G04 #@! TF.GenerationSoftware,KiCad,Pcbnew,5.1.6-c6e7f7d~87~ubuntu18.04.1*
G04 #@! TF.CreationDate,2021-11-08T15:35:58+02:00*
G04 #@! TF.ProjectId,ESP32-PoE-ISO_Rev_H,45535033-322d-4506-9f45-2d49534f5f52,H*
G04 #@! TF.SameCoordinates,Original*
G04 #@! TF.FileFunction,Soldermask,Top*
G04 #@! TF.FilePolarity,Negative*
%FSLAX46Y46*%
G04 Gerber Fmt 4.6, Leading zero omitted, Abs format (unit mm)*
G04 Created by KiCad (PCBNEW 5.1.6-c6e7f7d~87~ubuntu18.04.1) date 2021-11-08 15:35:58*
%MOMM*%
%LPD*%
G01*
G04 APERTURE LIST*
%ADD10R,1.601600X1.001600*%
%ADD11C,0.801600*%
%ADD12R,1.901600X0.901600*%
%ADD13R,0.901600X1.901600*%
%ADD14R,5.101600X5.101600*%
%ADD15C,2.101600*%
%ADD16R,3.101600X1.701600*%
%ADD17C,1.625600*%
%ADD18R,1.625600X1.625600*%
%ADD19R,1.501600X1.501600*%
%ADD20C,1.501600*%
%ADD21R,1.501600X1.301600*%
%ADD22R,1.501600X1.101600*%
%ADD23R,1.101600X1.501600*%
%ADD24R,0.651600X0.601600*%
%ADD25R,0.651600X1.301600*%
%ADD26R,1.371600X1.625600*%
%ADD27R,0.901600X0.901600*%
%ADD28R,0.601600X0.651600*%
%ADD29C,1.879600*%
%ADD30R,1.879600X1.879600*%
%ADD31R,1.117600X1.117600*%
%ADD32R,0.426600X1.371600*%
%ADD33C,1.254000*%
%ADD34R,1.524000X1.524000*%
%ADD35R,3.301600X2.601600*%
%ADD36O,2.133600X6.197600*%
%ADD37C,1.301600*%
%ADD38R,1.101600X4.351600*%
%ADD39R,1.751600X0.601600*%
%ADD40R,1.751600X0.426600*%
%ADD41C,0.701600*%
%ADD42R,1.101600X1.201600*%
%ADD43O,1.901600X1.301600*%
%ADD44C,3.401601*%
%ADD45O,1.701600X3.101599*%
%ADD46R,2.101600X1.801600*%
%ADD47R,1.625600X1.879600*%
%ADD48C,1.901600*%
%ADD49C,0.203200*%
G04 APERTURE END LIST*
D10*
X115959000Y-106444000D03*
X115959000Y-102090000D03*
D11*
X115059000Y-104267000D03*
X116859000Y-104267000D03*
D10*
X92321000Y-106444000D03*
X92321000Y-102090000D03*
D11*
X91421000Y-104267000D03*
X93221000Y-104267000D03*
D12*
X95540000Y-96725000D03*
X95540000Y-97995000D03*
X95540000Y-99265000D03*
X95540000Y-100535000D03*
X95540000Y-101805000D03*
X95540000Y-103075000D03*
X95540000Y-104345000D03*
X95540000Y-105615000D03*
X95540000Y-106885000D03*
X95540000Y-108155000D03*
X95540000Y-109425000D03*
X95540000Y-110695000D03*
X95540000Y-111965000D03*
X95540000Y-113235000D03*
D13*
X98440000Y-114335000D03*
X99710000Y-114335000D03*
X100980000Y-114335000D03*
X102250000Y-114335000D03*
X103520000Y-114335000D03*
X104790000Y-114335000D03*
X106060000Y-114335000D03*
X107330000Y-114335000D03*
X108600000Y-114335000D03*
X109870000Y-114335000D03*
D12*
X112740000Y-113235000D03*
X112740000Y-111965000D03*
X112740000Y-110695000D03*
X112740000Y-109425000D03*
X112740000Y-108155000D03*
X112740000Y-106885000D03*
X112740000Y-105615000D03*
X112740000Y-104345000D03*
X112740000Y-103075000D03*
X112740000Y-101805000D03*
X112740000Y-100535000D03*
X112740000Y-99265000D03*
X112740000Y-97995000D03*
X112740000Y-96725000D03*
D14*
X103140000Y-104235000D03*
D15*
X103140000Y-104235000D03*
D16*
X95377000Y-132150000D03*
X95377000Y-134550000D03*
D17*
X113411000Y-153543000D03*
D18*
X115951000Y-153543000D03*
D17*
X108331000Y-153543000D03*
X105791000Y-153543000D03*
X100711000Y-153543000D03*
X103251000Y-153543000D03*
D19*
X92209620Y-181759860D03*
D20*
X94221300Y-181757320D03*
D21*
X111338000Y-143853000D03*
X113538000Y-145453000D03*
X113538000Y-143853000D03*
X111338000Y-145453000D03*
D17*
X103866000Y-170434000D03*
D18*
X101366000Y-170434000D03*
D22*
X105156000Y-145029000D03*
X105156000Y-141229000D03*
X103124000Y-145029000D03*
X103124000Y-141229000D03*
G36*
G01*
X102935679Y-181571462D02*
X101498838Y-180134622D01*
G75*
G02*
X101498838Y-178625938I754342J754342D01*
G01*
X101498838Y-178625938D01*
G75*
G02*
X103007522Y-178625938I754342J-754342D01*
G01*
X104444362Y-180062778D01*
G75*
G02*
X104444362Y-181571462I-754342J-754342D01*
G01*
X104444362Y-181571462D01*
G75*
G02*
X102935678Y-181571462I-754342J754342D01*
G01*
G37*
D23*
X94620000Y-140970000D03*
X98420000Y-140970000D03*
X98420000Y-143002000D03*
X94620000Y-143002000D03*
D24*
X92075000Y-99695000D03*
X92075000Y-98679000D03*
X91186000Y-98679000D03*
X91186000Y-99695000D03*
X93091000Y-173355000D03*
X93091000Y-174371000D03*
D25*
X92903000Y-179862000D03*
X93853000Y-179862000D03*
X94803000Y-179862000D03*
X92903000Y-177262000D03*
X94803000Y-177262000D03*
D26*
X94488000Y-158242000D03*
X94488000Y-160274000D03*
D27*
X91567000Y-164592000D03*
X91567000Y-166116000D03*
X91567000Y-160401000D03*
X91567000Y-158877000D03*
D24*
X97155000Y-173355000D03*
X97155000Y-174371000D03*
X100838000Y-137414000D03*
X100838000Y-136398000D03*
X100838000Y-134112000D03*
X100838000Y-135128000D03*
X91567000Y-174371000D03*
X91567000Y-173355000D03*
X91567000Y-162941000D03*
X91567000Y-161925000D03*
X91567000Y-168656000D03*
X91567000Y-167640000D03*
X91567000Y-180086000D03*
X91567000Y-179070000D03*
D28*
X104267000Y-146685000D03*
X105283000Y-146685000D03*
X110871000Y-142494000D03*
X109855000Y-142494000D03*
D29*
X116840000Y-146080000D03*
X116840000Y-143540000D03*
X116840000Y-138460000D03*
X116840000Y-141000000D03*
X116840000Y-135920000D03*
X116840000Y-133380000D03*
D30*
X116840000Y-123220000D03*
D29*
X116840000Y-125760000D03*
X116840000Y-128300000D03*
X116840000Y-130840000D03*
X91440000Y-130840000D03*
X91440000Y-128300000D03*
X91440000Y-125760000D03*
D30*
X91440000Y-123220000D03*
D29*
X91440000Y-133380000D03*
X91440000Y-135920000D03*
X91440000Y-141000000D03*
X91440000Y-138460000D03*
X91440000Y-143540000D03*
X91440000Y-146080000D03*
D31*
X99695000Y-138684000D03*
X97917000Y-138684000D03*
X94869000Y-173482000D03*
X94869000Y-175260000D03*
D25*
X99756000Y-134463000D03*
X98806000Y-134463000D03*
X97856000Y-134463000D03*
X99756000Y-137063000D03*
X97856000Y-137063000D03*
D32*
X107565000Y-141033500D03*
X108215000Y-141033500D03*
X108865000Y-141033500D03*
X109515000Y-141033500D03*
X110165000Y-141033500D03*
X110815000Y-141033500D03*
X111465000Y-141033500D03*
X112115000Y-141033500D03*
X112765000Y-141033500D03*
X113415000Y-141033500D03*
X113415000Y-133794500D03*
X112765000Y-133794500D03*
X112115000Y-133794500D03*
X111465000Y-133794500D03*
X110815000Y-133794500D03*
X110165000Y-133794500D03*
X109515000Y-133794500D03*
X108865000Y-133794500D03*
X108215000Y-133794500D03*
X107565000Y-133794500D03*
D33*
X91821000Y-186309000D03*
X116459000Y-96774000D03*
X91821000Y-96774000D03*
D27*
X91567000Y-171831000D03*
X91567000Y-170307000D03*
D31*
X99060000Y-132969000D03*
X99060000Y-131191000D03*
D27*
X91567000Y-177546000D03*
X91567000Y-176022000D03*
D31*
X107188000Y-132080000D03*
X108966000Y-132080000D03*
D23*
X94554040Y-138775440D03*
X96456500Y-138775440D03*
X95501460Y-136565640D03*
X97469960Y-145069560D03*
X95567500Y-145069560D03*
X96522540Y-147279360D03*
D24*
X115951000Y-98679000D03*
X115951000Y-99695000D03*
X114935000Y-145034000D03*
X114935000Y-144018000D03*
D34*
X105410000Y-136906000D03*
D24*
X109982000Y-144018000D03*
X109982000Y-145034000D03*
X93345000Y-99695000D03*
X93345000Y-98679000D03*
D35*
X112919000Y-163195000D03*
X102219000Y-163195000D03*
D24*
X106934000Y-144907000D03*
X106934000Y-143891000D03*
D36*
X110871000Y-153733500D03*
D37*
X107950000Y-124333000D03*
D38*
X99060000Y-127458000D03*
X99060000Y-121208000D03*
X101600000Y-127458000D03*
X101600000Y-121208000D03*
X104140000Y-127458000D03*
X104140000Y-121208000D03*
X106680000Y-127458000D03*
X106680000Y-121208000D03*
X109220000Y-127458000D03*
X109220000Y-121208000D03*
D37*
X100330000Y-124333000D03*
D39*
X96876000Y-151266500D03*
D40*
X96876000Y-152004000D03*
X96876000Y-152654000D03*
X96876000Y-153304000D03*
D39*
X96876000Y-154041500D03*
D41*
X95626000Y-150654000D03*
X95626000Y-154654000D03*
D42*
X92326000Y-151154000D03*
X92326000Y-154154000D03*
D43*
X93476000Y-149054000D03*
X96946000Y-149054000D03*
X96946000Y-156254000D03*
X93476000Y-156254000D03*
D25*
X96332000Y-178211000D03*
X97282000Y-178211000D03*
X98232000Y-178211000D03*
X96332000Y-175611000D03*
X98232000Y-175611000D03*
D44*
X114915000Y-185443000D03*
X103485000Y-185443000D03*
D45*
X117000000Y-182393000D03*
X101400000Y-182393000D03*
D17*
X114915000Y-178793000D03*
X113645000Y-176253000D03*
X112375000Y-178793000D03*
X111105000Y-176253000D03*
X109835000Y-178793000D03*
X108565000Y-176253000D03*
X107295000Y-178793000D03*
X106025000Y-176253000D03*
X104755000Y-178793000D03*
X103485000Y-176253000D03*
X116185000Y-157861000D03*
D18*
X113685000Y-157861000D03*
D46*
X116673000Y-169926000D03*
X111673000Y-169926000D03*
D47*
X106680000Y-169926000D03*
X109474000Y-169926000D03*
D48*
X107442000Y-167646000D03*
D31*
X114808000Y-172466000D03*
X113030000Y-172466000D03*
D49*
G36*
X114579400Y-102006400D02*
G01*
X114020600Y-102006400D01*
X114020600Y-98145600D01*
X114579400Y-98145600D01*
X114579400Y-102006400D01*
G37*
X114579400Y-102006400D02*
X114020600Y-102006400D01*
X114020600Y-98145600D01*
X114579400Y-98145600D01*
X114579400Y-102006400D01*
M02*
