%TF.GenerationSoftware,KiCad,Pcbnew,7.0.11-7.0.11~ubuntu22.04.1*%
%TF.CreationDate,2025-02-21T15:51:23+02:00*%
%TF.ProjectId,ESP32-PoE-ISO_Rev_M,45535033-322d-4506-9f45-2d49534f5f52,M*%
%TF.SameCoordinates,PX55f9470PYb36f0f0*%
%TF.FileFunction,Soldermask,Top*%
%TF.FilePolarity,Negative*%
%FSLAX46Y46*%
G04 Gerber Fmt 4.6, Leading zero omitted, Abs format (unit mm)*
G04 Created by KiCad (PCBNEW 7.0.11-7.0.11~ubuntu22.04.1) date 2025-02-21 15:51:23*
%MOMM*%
%LPD*%
G01*
G04 APERTURE LIST*
G04 Aperture macros list*
%AMRoundRect*
0 Rectangle with rounded corners*
0 $1 Rounding radius*
0 $2 $3 $4 $5 $6 $7 $8 $9 X,Y pos of 4 corners*
0 Add a 4 corners polygon primitive as box body*
4,1,4,$2,$3,$4,$5,$6,$7,$8,$9,$2,$3,0*
0 Add four circle primitives for the rounded corners*
1,1,$1+$1,$2,$3*
1,1,$1+$1,$4,$5*
1,1,$1+$1,$6,$7*
1,1,$1+$1,$8,$9*
0 Add four rect primitives between the rounded corners*
20,1,$1+$1,$2,$3,$4,$5,0*
20,1,$1+$1,$4,$5,$6,$7,0*
20,1,$1+$1,$6,$7,$8,$9,0*
20,1,$1+$1,$8,$9,$2,$3,0*%
%AMHorizOval*
0 Thick line with rounded ends*
0 $1 width*
0 $2 $3 position (X,Y) of the first rounded end (center of the circle)*
0 $4 $5 position (X,Y) of the second rounded end (center of the circle)*
0 Add line between two ends*
20,1,$1,$2,$3,$4,$5,0*
0 Add two circle primitives to create the rounded ends*
1,1,$1,$2,$3*
1,1,$1,$4,$5*%
G04 Aperture macros list end*
%ADD10C,1.254000*%
%ADD11RoundRect,0.050800X0.275000X-0.250000X0.275000X0.250000X-0.275000X0.250000X-0.275000X-0.250000X0*%
%ADD12RoundRect,0.050800X-0.275000X0.250000X-0.275000X-0.250000X0.275000X-0.250000X0.275000X0.250000X0*%
%ADD13C,0.801600*%
%ADD14RoundRect,0.050800X0.750000X-0.450000X0.750000X0.450000X-0.750000X0.450000X-0.750000X-0.450000X0*%
%ADD15RoundRect,0.050800X0.508000X-0.508000X0.508000X0.508000X-0.508000X0.508000X-0.508000X-0.508000X0*%
%ADD16RoundRect,0.050800X-0.275000X0.600000X-0.275000X-0.600000X0.275000X-0.600000X0.275000X0.600000X0*%
%ADD17RoundRect,0.050800X-0.400000X0.400000X-0.400000X-0.400000X0.400000X-0.400000X0.400000X0.400000X0*%
%ADD18RoundRect,0.050800X0.500000X-0.700000X0.500000X0.700000X-0.500000X0.700000X-0.500000X-0.700000X0*%
%ADD19RoundRect,0.050800X0.900000X-0.450000X0.900000X0.450000X-0.900000X0.450000X-0.900000X-0.450000X0*%
%ADD20RoundRect,0.050800X0.250000X0.275000X-0.250000X0.275000X-0.250000X-0.275000X0.250000X-0.275000X0*%
%ADD21RoundRect,0.050800X-0.250000X-0.275000X0.250000X-0.275000X0.250000X0.275000X-0.250000X0.275000X0*%
%ADD22RoundRect,0.050800X-0.508000X-0.508000X0.508000X-0.508000X0.508000X0.508000X-0.508000X0.508000X0*%
%ADD23RoundRect,0.050800X-0.350000X-0.125000X0.350000X-0.125000X0.350000X0.125000X-0.350000X0.125000X0*%
%ADD24RoundRect,0.050800X-0.635000X0.762000X-0.635000X-0.762000X0.635000X-0.762000X0.635000X0.762000X0*%
%ADD25RoundRect,0.050800X-0.500000X0.700000X-0.500000X-0.700000X0.500000X-0.700000X0.500000X0.700000X0*%
%ADD26HorizOval,2.101600X-0.707107X0.707107X0.707107X-0.707107X0*%
%ADD27RoundRect,0.050800X0.762000X0.762000X-0.762000X0.762000X-0.762000X-0.762000X0.762000X-0.762000X0*%
%ADD28C,1.625600*%
%ADD29RoundRect,0.050800X0.125000X0.500000X-0.125000X0.500000X-0.125000X-0.500000X0.125000X-0.500000X0*%
%ADD30RoundRect,0.050800X-0.700000X0.500000X-0.700000X-0.500000X0.700000X-0.500000X0.700000X0.500000X0*%
%ADD31RoundRect,0.050800X0.500000X0.700000X-0.500000X0.700000X-0.500000X-0.700000X0.500000X-0.700000X0*%
%ADD32RoundRect,0.050800X-0.500000X-0.700000X0.500000X-0.700000X0.500000X0.700000X-0.500000X0.700000X0*%
%ADD33C,0.701600*%
%ADD34O,1.901600X1.301600*%
%ADD35RoundRect,0.050800X-0.500000X0.550000X-0.500000X-0.550000X0.500000X-0.550000X0.500000X0.550000X0*%
%ADD36RoundRect,0.050800X-0.825000X0.250000X-0.825000X-0.250000X0.825000X-0.250000X0.825000X0.250000X0*%
%ADD37RoundRect,0.050800X-0.825000X0.162500X-0.825000X-0.162500X0.825000X-0.162500X0.825000X0.162500X0*%
%ADD38O,2.101600X8.101600*%
%ADD39C,3.401601*%
%ADD40O,1.701600X3.101599*%
%ADD41C,1.301600*%
%ADD42RoundRect,0.050800X0.500000X-2.125000X0.500000X2.125000X-0.500000X2.125000X-0.500000X-2.125000X0*%
%ADD43RoundRect,0.050800X-0.762000X-0.889000X0.762000X-0.889000X0.762000X0.889000X-0.762000X0.889000X0*%
%ADD44RoundRect,0.050800X-1.500000X-1.250000X1.500000X-1.250000X1.500000X1.250000X-1.500000X1.250000X0*%
%ADD45RoundRect,0.050800X-1.000000X-0.850000X1.000000X-0.850000X1.000000X0.850000X-1.000000X0.850000X0*%
%ADD46RoundRect,0.050800X-1.000000X-0.450000X1.000000X-0.450000X1.000000X0.450000X-1.000000X0.450000X0*%
%ADD47RoundRect,0.050800X-0.450000X-1.000000X0.450000X-1.000000X0.450000X1.000000X-0.450000X1.000000X0*%
%ADD48C,2.101600*%
%ADD49RoundRect,0.050800X-2.500000X-2.500000X2.500000X-2.500000X2.500000X2.500000X-2.500000X2.500000X0*%
%ADD50C,2.301600*%
%ADD51RoundRect,0.050800X-0.700000X0.700000X-0.700000X-0.700000X0.700000X-0.700000X0.700000X0.700000X0*%
%ADD52C,1.501600*%
%ADD53RoundRect,0.050800X-0.889000X0.889000X-0.889000X-0.889000X0.889000X-0.889000X0.889000X0.889000X0*%
%ADD54C,1.879600*%
%ADD55RoundRect,0.050800X0.800000X-0.800000X0.800000X0.800000X-0.800000X0.800000X-0.800000X-0.800000X0*%
%ADD56C,1.901600*%
G04 APERTURE END LIST*
D10*
%TO.C,FID3*%
X1500000Y1500000D03*
%TD*%
%TO.C,FID2*%
X26300000Y96200000D03*
%TD*%
D11*
%TO.C,R32*%
X3322000Y93916000D03*
D12*
X3322000Y92900000D03*
%TD*%
D13*
%TO.C,BUT1*%
X24909000Y88328000D03*
X26709000Y88328000D03*
D14*
X25809000Y86151000D03*
X25809000Y90505000D03*
%TD*%
D15*
%TO.C,C1*%
X4719000Y12890000D03*
X4719000Y14668000D03*
%TD*%
D16*
%TO.C,U3*%
X2753000Y8288000D03*
X3703000Y8288000D03*
X4653000Y8288000D03*
X4653000Y10888000D03*
X2753000Y10888000D03*
%TD*%
D12*
%TO.C,R6*%
X2941000Y13779000D03*
D11*
X2941000Y14795000D03*
%TD*%
D12*
%TO.C,R4*%
X1036000Y92900000D03*
D11*
X1036000Y93916000D03*
%TD*%
%TO.C,R9*%
X1925000Y93916000D03*
D12*
X1925000Y92900000D03*
%TD*%
D17*
%TO.C,CHRG1*%
X1417000Y10604000D03*
X1417000Y12128000D03*
%TD*%
%TO.C,PWR1*%
X1417000Y16319000D03*
X1417000Y17843000D03*
%TD*%
D11*
%TO.C,R5*%
X1417000Y14795000D03*
D12*
X1417000Y13779000D03*
%TD*%
D10*
%TO.C,FID1*%
X1700000Y96200000D03*
%TD*%
D13*
%TO.C,RST1*%
X1271000Y88328000D03*
X3071000Y88328000D03*
D14*
X2171000Y86151000D03*
X2171000Y90505000D03*
%TD*%
D12*
%TO.C,C11*%
X7005000Y13779000D03*
D11*
X7005000Y14795000D03*
%TD*%
D18*
%TO.C,FET1*%
X7319960Y43080440D03*
X5417500Y43080440D03*
X6372540Y40870640D03*
%TD*%
D19*
%TO.C,L2*%
X5750000Y53350000D03*
X5750000Y54750000D03*
%TD*%
D20*
%TO.C,R30*%
X10642000Y52950000D03*
D21*
X11658000Y52950000D03*
%TD*%
D20*
%TO.C,R29*%
X10642000Y53850000D03*
D21*
X11658000Y53850000D03*
%TD*%
D22*
%TO.C,C6*%
X7761000Y50850000D03*
X9539000Y50850000D03*
%TD*%
D23*
%TO.C,U7*%
X7900000Y53650000D03*
X7900000Y53150000D03*
X7900000Y52650000D03*
X9400000Y52650000D03*
X9400000Y53150000D03*
X9400000Y53650000D03*
%TD*%
D22*
%TO.C,C22*%
X7761000Y55450000D03*
X9539000Y55450000D03*
%TD*%
D11*
%TO.C,R14*%
X1417000Y20510000D03*
D12*
X1417000Y19494000D03*
%TD*%
D17*
%TO.C,LNK1*%
X1417000Y22034000D03*
X1417000Y23558000D03*
%TD*%
D11*
%TO.C,R15*%
X1417000Y26225000D03*
D12*
X1417000Y25209000D03*
%TD*%
D17*
%TO.C,ACT1*%
X1417000Y27749000D03*
X1417000Y29273000D03*
%TD*%
D24*
%TO.C,L3*%
X4338000Y29908000D03*
X4338000Y27876000D03*
%TD*%
D15*
%TO.C,C7*%
X18150000Y44761000D03*
X18150000Y46539000D03*
%TD*%
D25*
%TO.C,FET2*%
X4404040Y49374560D03*
X6306500Y49374560D03*
X5351460Y51584360D03*
%TD*%
D12*
%TO.C,R18*%
X21350000Y42542000D03*
D11*
X21350000Y43558000D03*
%TD*%
D26*
%TO.C,Drill_Slot3*%
X12821600Y8051300D03*
%TD*%
D27*
%TO.C,DCDC1*%
X25801000Y34607000D03*
D28*
X23261000Y34607000D03*
X18181000Y34607000D03*
X15641000Y34607000D03*
X13101000Y34607000D03*
X10561000Y34607000D03*
%TD*%
%TO.C,C27*%
X13716000Y17716000D03*
D27*
X11216000Y17716000D03*
%TD*%
D29*
%TO.C,U1*%
X21850000Y50300000D03*
X21350000Y50300000D03*
X20850000Y50300000D03*
X20350000Y50300000D03*
X19850000Y50300000D03*
X19850000Y45500000D03*
X20350000Y45500000D03*
X20850000Y45500000D03*
X21350000Y45500000D03*
X21850000Y45500000D03*
%TD*%
D11*
%TO.C,R19*%
X22450000Y43258000D03*
D12*
X22450000Y42242000D03*
%TD*%
D30*
%TO.C,D6*%
X12974000Y46921000D03*
X12974000Y43121000D03*
%TD*%
%TO.C,D7*%
X15006000Y46921000D03*
X15006000Y43121000D03*
%TD*%
D31*
%TO.C,D3*%
X8270000Y47180000D03*
X4470000Y47180000D03*
%TD*%
D32*
%TO.C,D1*%
X4470000Y45148000D03*
X8270000Y45148000D03*
%TD*%
D11*
%TO.C,R17*%
X23450000Y43258000D03*
D12*
X23450000Y42242000D03*
%TD*%
D33*
%TO.C,USB-UART1*%
X5476000Y33496000D03*
X5476000Y37496000D03*
D34*
X6796000Y31896000D03*
X6796000Y39096000D03*
X3326000Y31896000D03*
X3326000Y39096000D03*
D35*
X2176000Y33996000D03*
X2176000Y36996000D03*
D36*
X6726000Y36883500D03*
D37*
X6726000Y36146000D03*
X6726000Y35496000D03*
X6726000Y34846000D03*
D36*
X6726000Y34108500D03*
%TD*%
D38*
%TO.C,Drill_Slot1*%
X20721000Y35000000D03*
%TD*%
D16*
%TO.C,TVS1*%
X6182000Y9939000D03*
X7132000Y9939000D03*
X8082000Y9939000D03*
X8082000Y12539000D03*
X6182000Y12539000D03*
%TD*%
D39*
%TO.C,LAN_CON1*%
X13335000Y2707000D03*
X24765000Y2707000D03*
D40*
X11250000Y5757000D03*
X26850000Y5757000D03*
D28*
X13335000Y11897000D03*
X14605000Y9357000D03*
X15875000Y11897000D03*
X17145000Y9357000D03*
X18415000Y11897000D03*
X19685000Y9357000D03*
X20955000Y11897000D03*
X22225000Y9357000D03*
X23495000Y11897000D03*
X24765000Y9357000D03*
%TD*%
D41*
%TO.C,UEXT1*%
X10180000Y63817000D03*
X17800000Y63817000D03*
D42*
X8910000Y60692000D03*
X8910000Y66942000D03*
X11450000Y60692000D03*
X11450000Y66942000D03*
X13990000Y60692000D03*
X13990000Y66942000D03*
X16530000Y60692000D03*
X16530000Y66942000D03*
X19070000Y60692000D03*
X19070000Y66942000D03*
%TD*%
D20*
%TO.C,C8*%
X22442000Y44350000D03*
D21*
X23458000Y44350000D03*
%TD*%
D43*
%TO.C,R28*%
X16530000Y18224000D03*
X19324000Y18224000D03*
%TD*%
D44*
%TO.C,L4*%
X12069000Y24955000D03*
X22769000Y24955000D03*
%TD*%
D28*
%TO.C,C26*%
X26035000Y30289000D03*
D27*
X23535000Y30289000D03*
%TD*%
D12*
%TO.C,R47*%
X25801000Y92900000D03*
D11*
X25801000Y93916000D03*
%TD*%
%TO.C,R8*%
X1417000Y9080000D03*
D12*
X1417000Y8064000D03*
%TD*%
D22*
%TO.C,C24*%
X22880000Y15684000D03*
X24658000Y15684000D03*
%TD*%
D45*
%TO.C,D10*%
X21523000Y18224000D03*
X26523000Y18224000D03*
%TD*%
D46*
%TO.C,U6*%
X5490000Y96969000D03*
X5490000Y95699000D03*
X5490000Y94429000D03*
X5490000Y93159000D03*
X5490000Y91889000D03*
X5490000Y90619000D03*
X5490000Y89349000D03*
X5490000Y88079000D03*
X5490000Y86809000D03*
X5490000Y85539000D03*
X5490000Y84269000D03*
X5490000Y82999000D03*
X5490000Y81729000D03*
X5490000Y80459000D03*
X5490000Y79189000D03*
D47*
X8290000Y79459000D03*
D46*
X5490000Y77919000D03*
D47*
X9560000Y79459000D03*
D46*
X5490000Y76649000D03*
D47*
X10830000Y79459000D03*
D46*
X5490000Y75379000D03*
D47*
X12100000Y79459000D03*
D46*
X5490000Y74109000D03*
D47*
X13370000Y79459000D03*
X14640000Y79459000D03*
D46*
X22490000Y74109000D03*
D47*
X15910000Y79459000D03*
D46*
X22490000Y75379000D03*
D47*
X17180000Y79459000D03*
D46*
X22490000Y76649000D03*
D47*
X18450000Y79459000D03*
D46*
X22490000Y77919000D03*
D47*
X19720000Y79459000D03*
D46*
X22490000Y79189000D03*
X22490000Y80459000D03*
X22490000Y81729000D03*
X22490000Y82999000D03*
X22490000Y84269000D03*
X22490000Y85539000D03*
X22490000Y86809000D03*
X22490000Y88079000D03*
X22490000Y89349000D03*
X22490000Y90619000D03*
X22490000Y91889000D03*
X22490000Y93159000D03*
X22490000Y94429000D03*
X22490000Y95699000D03*
X22490000Y96969000D03*
D48*
X12990000Y89459000D03*
D49*
X12990000Y89459000D03*
%TD*%
D20*
%TO.C,R48*%
X25039000Y84772000D03*
D21*
X26055000Y84772000D03*
%TD*%
D50*
%TO.C,MH1*%
X7640000Y2730000D03*
%TD*%
%TO.C,MH2*%
X2560000Y70675000D03*
%TD*%
%TO.C,MH3*%
X25420000Y70675000D03*
%TD*%
D51*
%TO.C,BAT1*%
X2920680Y5409700D03*
D52*
X2923220Y3380240D03*
%TD*%
D21*
%TO.C,R43*%
X20858000Y52850000D03*
D20*
X19842000Y52850000D03*
%TD*%
%TO.C,C30*%
X10642000Y54750000D03*
D21*
X11658000Y54750000D03*
%TD*%
D10*
%TO.C,FID7*%
X1650000Y74900000D03*
%TD*%
D53*
%TO.C,EXT2*%
X26690000Y64930000D03*
D54*
X26690000Y62390000D03*
X26690000Y59850000D03*
X26690000Y57310000D03*
X26690000Y54770000D03*
X26690000Y52230000D03*
X26690000Y49690000D03*
X26690000Y47150000D03*
X26690000Y44610000D03*
X26690000Y42070000D03*
%TD*%
D53*
%TO.C,EXT1*%
X1290000Y64930000D03*
D54*
X1290000Y62390000D03*
X1290000Y59850000D03*
X1290000Y57310000D03*
X1290000Y54770000D03*
X1290000Y52230000D03*
X1290000Y49690000D03*
X1290000Y47150000D03*
X1290000Y44610000D03*
X1290000Y42070000D03*
%TD*%
D55*
%TO.C,U4*%
X15260000Y51244000D03*
%TD*%
D56*
%TO.C,U5*%
X17292000Y20504000D03*
%TD*%
G36*
X24616531Y96055787D02*
G01*
X24653076Y96005487D01*
X24658000Y95974400D01*
X24658000Y92111600D01*
X24638787Y92052469D01*
X24588487Y92015924D01*
X24557400Y92011000D01*
X23996600Y92011000D01*
X23937469Y92030213D01*
X23900924Y92080513D01*
X23896000Y92111600D01*
X23896000Y95974400D01*
X23915213Y96033531D01*
X23965513Y96070076D01*
X23996600Y96075000D01*
X24557400Y96075000D01*
X24616531Y96055787D01*
G37*
M02*
