M48
; DRILL file {KiCad 7.0.11-7.0.11~ubuntu22.04.1} date 21.02.2025 (пт) 15:51:29
; FORMAT={-:-/ absolute / metric / decimal}
; #@! TF.CreationDate,2025-02-21T15:51:29+02:00
; #@! TF.GenerationSoftware,Kicad,Pcbnew,7.0.11-7.0.11~ubuntu22.04.1
; #@! TF.FileFunction,Plated,1,4,PTH
FMAT,2
METRIC
; #@! TA.AperFunction,Plated,PTH,ViaDrill
T1C0.400
; #@! TA.AperFunction,Plated,PTH,ComponentDrill
T2C0.400
; #@! TA.AperFunction,Plated,PTH,ViaDrill
T3C0.600
; #@! TA.AperFunction,Plated,PTH,ComponentDrill
T4C0.600
; #@! TA.AperFunction,Plated,PTH,ComponentDrill
T5C0.800
; #@! TA.AperFunction,Plated,PTH,ComponentDrill
T6C0.900
; #@! TA.AperFunction,Plated,PTH,ComponentDrill
T7C1.000
; #@! TA.AperFunction,Plated,PTH,ComponentDrill
T8C1.200
; #@! TA.AperFunction,Plated,PTH,ComponentDrill
T9C1.300
%
G90
G05
T1
X0.782Y87.35
X0.782Y85.915
X0.782Y84.645
X0.782Y83.375
X0.782Y82.105
X0.782Y80.835
X0.782Y79.565
X0.782Y78.295
X0.782Y77.025
X1.036Y4.0
X1.417Y30.353
X1.544Y87.35
X1.671Y40.703
X1.925Y91.757
X2.433Y17.843
X2.433Y12.89
X2.433Y12.128
X2.814Y9.588
X2.941Y65.722
X2.972Y76.39
X3.068Y85.534
X3.322Y92.265
X3.449Y28.257
X3.449Y27.495
X3.449Y26.669
X3.703Y10.477
X3.703Y9.588
X3.83Y25.082
X3.874Y90.023
X3.957Y42.735
X3.957Y41.719
X4.274Y26.669
X4.653Y11.935
X4.719Y9.842
X5.1Y26.669
X5.379Y72.738
X5.585Y63.78
X5.735Y8.4
X5.735Y7.429
X5.735Y66.357
X5.829Y13.779
X6.05Y45.65
X6.179Y10.855
X6.181Y11.682
X6.212Y64.483
X6.497Y33.337
X6.624Y8.699
X6.821Y89.627
X6.873Y93.159
X6.878Y60.25
X6.878Y59.245
X6.878Y58.229
X6.878Y57.213
X6.878Y56.15
X6.878Y55.25
X6.9Y85.35
X7.05Y83.55
X7.18Y81.063
X7.217Y84.434
X7.259Y33.337
X7.259Y78.295
X7.35Y54.25
X7.386Y40.871
X7.513Y79.184
X7.513Y73.469
X7.744Y94.438
X7.85Y52.05
X7.867Y91.992
X7.894Y40.068
X7.9Y88.85
X8.021Y34.099
X8.021Y33.337
X8.071Y75.204
X8.085Y11.683
X8.085Y10.856
X8.15Y54.25
X8.296Y85.494
X8.402Y40.703
X8.675Y74.619
X8.85Y51.321
X8.91Y50.05
X9.256Y86.986
X9.3Y95.55
X9.3Y93.3
X9.418Y69.786
X9.45Y52.05
X9.75Y54.45
X9.799Y68.643
X9.799Y65.753
X10.18Y70.548
X10.18Y61.85
X10.35Y52.05
X10.4Y60.95
X10.75Y51.35
X10.769Y82.711
X10.803Y81.503
X10.815Y45.021
X10.942Y45.91
X10.942Y20.383
X10.942Y19.621
X10.942Y18.859
X10.95Y46.893
X11.202Y83.415
X11.292Y95.409
X11.576Y82.09
X11.6Y81.15
X11.63Y46.526
X11.704Y71.183
X11.704Y57.213
X11.704Y51.371
X11.742Y64.666
X11.85Y42.831
X12.2Y44.5
X12.21Y45.422
X12.33Y60.907
X12.339Y70.548
X12.593Y62.547
X12.593Y61.785
X12.847Y60.261
X12.85Y54.646
X12.85Y53.9
X12.941Y45.021
X12.945Y71.154
X13.101Y57.721
X13.101Y56.324
X13.261Y81.962
X13.386Y83.375
X13.609Y70.548
X14.371Y71.056
X14.625Y11.747
X14.73Y85.915
X14.752Y45.021
X14.852Y67.346
X14.879Y62.42
X14.879Y56.324
X14.983Y70.428
X15.182Y64.675
X15.4Y40.95
X15.514Y66.772
X15.514Y63.055
X15.514Y56.959
X15.514Y37.401
X15.641Y71.056
X15.641Y61.531
X15.895Y9.715
X16.15Y92.15
X16.15Y63.913
X16.225Y42.425
X16.35Y82.35
X16.53Y70.802
X16.55Y55.85
X16.615Y40.957
X16.784Y45.021
X17.419Y70.802
X17.419Y40.957
X17.575Y71.627
X17.673Y61.531
X17.75Y53.65
X17.927Y81.343
X17.927Y48.364
X17.927Y22.415
X17.95Y91.55
X18.0Y65.025
X18.1Y92.9
X18.19Y72.907
X18.214Y76.393
X18.324Y73.723
X18.466Y71.591
X18.816Y48.364
X18.85Y56.35
X19.228Y73.617
X19.324Y84.264
X19.705Y48.364
X19.705Y29.654
X19.705Y28.892
X19.705Y28.13
X19.705Y27.368
X19.832Y51.752
X19.85Y41.825
X19.959Y56.324
X20.102Y74.47
X20.338Y93.406
X20.467Y84.264
X20.467Y23.939
X20.55Y72.605
X20.594Y71.691
X20.6Y89.8
X20.6Y81.95
X20.6Y81.05
X20.95Y79.184
X21.025Y80.225
X21.05Y85.534
X21.334Y72.95
X21.737Y59.626
X21.991Y72.25
X22.597Y59.597
X22.753Y72.95
X22.753Y23.431
X22.753Y14.45
X22.85Y45.35
X22.88Y56.197
X22.88Y51.752
X22.88Y29.019
X22.88Y28.257
X23.197Y21.279
X23.197Y20.15
X23.388Y59.118
X23.769Y20.707
X23.896Y84.264
X24.023Y49.974
X24.023Y46.75
X24.15Y83.121
X24.15Y75.628
X24.246Y82.105
X24.404Y89.788
X24.531Y85.28
X24.785Y61.658
X24.815Y28.9
X24.85Y42.55
X24.85Y43.85
X24.912Y63.182
X25.15Y23.65
X25.293Y83.121
X26.05Y23.65
X26.563Y81.597
X26.563Y66.611
X27.134Y20.55
X27.198Y93.916
X27.198Y92.9
X27.198Y91.63
X27.198Y90.36
X27.198Y89.25
X27.198Y87.4
X27.198Y86.169
X27.198Y84.645
X27.198Y67.5
X27.198Y37.401
X27.198Y36.639
X27.25Y29.65
X27.25Y28.9
T2
X13.96Y51.744
X13.96Y50.744
X14.76Y52.544
X14.76Y49.944
X15.76Y52.544
X15.76Y49.944
X16.56Y51.744
X16.56Y50.744
T3
X2.941Y56.07
X3.703Y96.964
X3.83Y95.694
X4.973Y40.576
X5.354Y23.177
X5.354Y22.161
X5.354Y21.145
X5.354Y20.129
X5.354Y19.113
X5.354Y18.097
X6.37Y24.193
X6.37Y23.177
X6.37Y20.129
X6.37Y19.113
X6.37Y18.097
X6.37Y16.954
X6.497Y52.006
X6.497Y50.99
X7.005Y95.694
X7.64Y96.969
X7.64Y59.753
X7.64Y58.737
X7.64Y57.721
X7.64Y56.705
X8.402Y43.624
X8.402Y42.481
X10.18Y96.969
X10.942Y3.25
X10.942Y1.95
X10.942Y0.825
X11.201Y73.146
X11.323Y26.733
X11.577Y41.846
X11.577Y40.703
X11.577Y37.02
X11.958Y22.161
X11.958Y21.145
X11.958Y20.129
X11.958Y19.113
X12.339Y37.782
X12.349Y83.245
X12.593Y41.846
X12.593Y28.13
X12.593Y26.733
X12.72Y96.969
X12.72Y5.27
X14.371Y25.971
X14.371Y24.828
X14.678Y73.146
X15.006Y21.526
X15.006Y20.51
X15.006Y19.494
X15.26Y96.969
X15.895Y29.273
X15.895Y28.13
X15.895Y26.987
X15.895Y0.9
X16.403Y37.401
X16.403Y36.258
X16.657Y25.844
X16.657Y24.701
X16.911Y34.607
X17.165Y1.45
X17.546Y29.654
X17.546Y28.511
X17.546Y27.368
X17.8Y96.969
X17.927Y25.844
X17.927Y24.701
X18.435Y0.9
X18.689Y41.973
X18.689Y40.957
X18.689Y29.654
X18.689Y28.511
X18.689Y27.368
X19.705Y1.45
X20.34Y96.969
X20.75Y0.9
X21.737Y19.621
X21.737Y16.827
X21.85Y1.45
X22.85Y0.9
X24.277Y96.964
X25.25Y6.667
X25.25Y5.27
X27.134Y16.573
X27.134Y15.557
X27.238Y3.4
X27.238Y2.15
X27.238Y0.762
T4
X11.19Y91.259
X11.19Y89.459
X11.19Y87.659
X12.99Y91.259
X12.99Y87.659
X14.79Y91.259
X14.79Y89.459
X14.79Y87.659
T5
X10.561Y34.607
X13.101Y34.607
X15.641Y34.607
X18.181Y34.607
X23.261Y34.607
X25.801Y34.607
T6
X2.921Y5.41
X2.923Y3.38
X11.216Y17.716
X13.716Y17.716
X23.535Y30.289
X26.035Y30.289
T7
X1.29Y64.93
X1.29Y62.39
X1.29Y59.85
X1.29Y57.31
X1.29Y54.77
X1.29Y52.23
X1.29Y49.69
X1.29Y47.15
X1.29Y44.61
X1.29Y42.07
X13.335Y11.897
X14.605Y9.357
X15.875Y11.897
X17.145Y9.357
X18.415Y11.897
X19.685Y9.357
X20.955Y11.897
X22.225Y9.357
X23.495Y11.897
X24.765Y9.357
X26.69Y64.93
X26.69Y62.39
X26.69Y59.85
X26.69Y57.31
X26.69Y54.77
X26.69Y52.23
X26.69Y49.69
X26.69Y47.15
X26.69Y44.61
X26.69Y42.07
T8
X15.26Y51.244
X17.292Y20.504
X25.45Y25.15
T9
X12.99Y89.459
T4
G00X3.626Y39.096
M15
G01X3.026Y39.096
M16
G05
G00X3.626Y31.896
M15
G01X3.026Y31.896
M16
G05
G00X7.096Y39.096
M15
G01X6.496Y39.096
M16
G05
G00X7.096Y31.896
M15
G01X6.496Y31.896
M16
G05
G00X11.25Y6.457
M15
G01X11.25Y5.057
M16
G05
G00X26.85Y6.457
M15
G01X26.85Y5.057
M16
G05
M30
