%TF.GenerationSoftware,KiCad,Pcbnew,7.0.11-7.0.11~ubuntu22.04.1*%
%TF.CreationDate,2025-02-21T15:51:22+02:00*%
%TF.ProjectId,ESP32-PoE-ISO_Rev_M,45535033-322d-4506-9f45-2d49534f5f52,M*%
%TF.SameCoordinates,PX55f9470PYb36f0f0*%
%TF.FileFunction,Paste,Bot*%
%TF.FilePolarity,Positive*%
%FSLAX46Y46*%
G04 Gerber Fmt 4.6, Leading zero omitted, Abs format (unit mm)*
G04 Created by KiCad (PCBNEW 7.0.11-7.0.11~ubuntu22.04.1) date 2025-02-21 15:51:22*
%MOMM*%
%LPD*%
G01*
G04 APERTURE LIST*
%ADD10R,1.524000X1.270000*%
%ADD11R,0.500000X0.550000*%
%ADD12R,0.550000X0.500000*%
%ADD13C,1.000000*%
%ADD14R,0.635000X1.016000*%
%ADD15R,0.381000X1.016000*%
%ADD16R,1.016000X1.016000*%
%ADD17R,1.778000X1.016000*%
%ADD18R,1.016000X2.032000*%
%ADD19R,1.000000X1.000000*%
%ADD20R,0.600000X1.000000*%
%ADD21R,1.000000X0.600000*%
%ADD22R,0.780000X0.230000*%
%ADD23R,0.230000X0.780000*%
%ADD24R,1.000000X1.400000*%
%ADD25R,1.400000X1.000000*%
%ADD26R,1.270000X1.524000*%
%ADD27R,2.286000X1.778000*%
%ADD28R,1.016000X0.635000*%
%ADD29R,1.016000X0.381000*%
%ADD30R,2.400000X3.600000*%
%ADD31R,1.454000X3.654000*%
%ADD32R,0.600000X1.400000*%
%ADD33R,3.500000X2.600000*%
%ADD34R,1.200000X0.550000*%
%ADD35R,1.760000X1.460000*%
%ADD36R,0.500000X1.000000*%
G04 APERTURE END LIST*
D10*
%TO.C,L5*%
X11069000Y74485000D03*
X13101000Y74485000D03*
%TD*%
D11*
%TO.C,R37*%
X11831000Y67373000D03*
X10815000Y67373000D03*
%TD*%
D12*
%TO.C,R40*%
X7259000Y81642000D03*
X7259000Y82658000D03*
%TD*%
D13*
%TO.C,FID4*%
X1700000Y96200000D03*
%TD*%
D14*
%TO.C,RM3*%
X14879000Y76517000D03*
X14879000Y74993000D03*
D15*
X15768000Y76517000D03*
X15768000Y74993000D03*
X16530000Y76517000D03*
X16530000Y74993000D03*
D14*
X17419000Y76517000D03*
X17419000Y74993000D03*
%TD*%
D11*
%TO.C,R39*%
X13228000Y61531000D03*
X14244000Y61531000D03*
%TD*%
D16*
%TO.C,C19*%
X13482000Y36385000D03*
X15260000Y36385000D03*
%TD*%
D17*
%TO.C,C2*%
X26690000Y14668000D03*
X26690000Y11112000D03*
%TD*%
D18*
%TO.C,C20*%
X18435000Y37401000D03*
X23007000Y37401000D03*
%TD*%
%TO.C,C23*%
X6370000Y21653000D03*
X10942000Y21653000D03*
%TD*%
D12*
%TO.C,R3*%
X24150000Y44386000D03*
X24150000Y45402000D03*
%TD*%
D16*
%TO.C,C10*%
X22880000Y42481000D03*
X22880000Y44259000D03*
%TD*%
D11*
%TO.C,C18*%
X10434000Y52950000D03*
X9418000Y52950000D03*
%TD*%
D16*
%TO.C,C21*%
X19959000Y55435000D03*
X19959000Y53657000D03*
%TD*%
%TO.C,C17*%
X10815000Y54250000D03*
X9037000Y54250000D03*
%TD*%
D10*
%TO.C,L1*%
X19959000Y45783000D03*
X17927000Y45783000D03*
%TD*%
D19*
%TO.C,U4*%
X14060000Y50044000D03*
D20*
X15260000Y50044000D03*
D19*
X16460000Y50044000D03*
D21*
X14060000Y51244000D03*
X16460000Y51244000D03*
D19*
X14060000Y52444000D03*
D20*
X15260000Y52444000D03*
D19*
X16460000Y52444000D03*
D22*
X12810000Y49494000D03*
X12810000Y49994000D03*
X12810000Y50494000D03*
X12810000Y50994000D03*
X12810000Y51494000D03*
X12810000Y51994000D03*
X12810000Y52494000D03*
X12810000Y52994000D03*
D23*
X13510000Y53694000D03*
X14010000Y53694000D03*
X14510000Y53694000D03*
X15010000Y53694000D03*
X15510000Y53694000D03*
X16010000Y53694000D03*
X16510000Y53694000D03*
X17010000Y53694000D03*
D22*
X17710000Y52994000D03*
X17710000Y52494000D03*
X17710000Y51994000D03*
X17710000Y51494000D03*
X17710000Y50994000D03*
X17710000Y50494000D03*
X17710000Y49994000D03*
X17710000Y49494000D03*
D23*
X17010000Y48794000D03*
X16510000Y48794000D03*
X16010000Y48794000D03*
X15510000Y48794000D03*
X15010000Y48794000D03*
X14510000Y48794000D03*
X14010000Y48794000D03*
X13510000Y48794000D03*
%TD*%
D24*
%TO.C,T1*%
X21930040Y48922440D03*
X23832500Y48922440D03*
X22877460Y46712640D03*
%TD*%
D12*
%TO.C,R12*%
X16530000Y45656000D03*
X16530000Y46672000D03*
%TD*%
%TO.C,R2*%
X24150000Y42227000D03*
X24150000Y43243000D03*
%TD*%
D11*
%TO.C,R16*%
X5989000Y89979000D03*
X4973000Y89979000D03*
%TD*%
%TO.C,R7*%
X4973000Y87947000D03*
X5989000Y87947000D03*
%TD*%
D16*
%TO.C,C9*%
X20467000Y47307000D03*
X20467000Y49085000D03*
%TD*%
D25*
%TO.C,FET3*%
X21193440Y44319960D03*
X21193440Y42417500D03*
X18983640Y43372540D03*
%TD*%
D12*
%TO.C,R25*%
X20467000Y52641000D03*
X20467000Y51625000D03*
%TD*%
D11*
%TO.C,C16*%
X11323000Y48958000D03*
X10307000Y48958000D03*
%TD*%
%TO.C,R26*%
X11323000Y48069000D03*
X10307000Y48069000D03*
%TD*%
%TO.C,R1*%
X13863000Y37655000D03*
X14879000Y37655000D03*
%TD*%
D12*
%TO.C,R20*%
X22753000Y75882000D03*
X22753000Y76898000D03*
%TD*%
%TO.C,R21*%
X22753000Y74104000D03*
X22753000Y75120000D03*
%TD*%
D25*
%TO.C,Q3*%
X24185560Y74551040D03*
X24185560Y76453500D03*
X26395360Y75498460D03*
%TD*%
%TO.C,Q2*%
X21356000Y76517000D03*
X21356000Y74614540D03*
X19146200Y75569580D03*
%TD*%
%TO.C,D2*%
X22542000Y78996000D03*
X22542000Y80896000D03*
X24742000Y79946000D03*
%TD*%
D11*
%TO.C,R31*%
X13228000Y62420000D03*
X14244000Y62420000D03*
%TD*%
D12*
%TO.C,R49*%
X26563000Y80962000D03*
X26563000Y79946000D03*
%TD*%
D11*
%TO.C,R35*%
X13228000Y67373000D03*
X14244000Y67373000D03*
%TD*%
%TO.C,R36*%
X13228000Y63309000D03*
X14244000Y63309000D03*
%TD*%
D16*
%TO.C,C13*%
X17292000Y44259000D03*
X17292000Y42481000D03*
%TD*%
D11*
%TO.C,R46*%
X22499000Y77787000D03*
X23515000Y77787000D03*
%TD*%
D24*
%TO.C,D4*%
X11455000Y65595000D03*
X15255000Y65595000D03*
%TD*%
D12*
%TO.C,R11*%
X12974000Y45656000D03*
X12974000Y46672000D03*
%TD*%
%TO.C,R10*%
X14244000Y45656000D03*
X14244000Y46672000D03*
%TD*%
D25*
%TO.C,D9*%
X2179000Y81094000D03*
X2179000Y84894000D03*
%TD*%
D12*
%TO.C,TVS2*%
X10307000Y12636000D03*
X10307000Y11620000D03*
%TD*%
%TO.C,TVS3*%
X7894000Y9969000D03*
X7894000Y8953000D03*
%TD*%
D26*
%TO.C,C3*%
X13101000Y76390000D03*
X11069000Y76390000D03*
%TD*%
D14*
%TO.C,RM2*%
X14244000Y59499000D03*
X14244000Y57975000D03*
D15*
X15133000Y59499000D03*
X15133000Y57975000D03*
X15895000Y59499000D03*
X15895000Y57975000D03*
D14*
X16784000Y59499000D03*
X16784000Y57975000D03*
%TD*%
D12*
%TO.C,R13*%
X15260000Y45656000D03*
X15260000Y46672000D03*
%TD*%
D11*
%TO.C,C15*%
X18181000Y47180000D03*
X19197000Y47180000D03*
%TD*%
D27*
%TO.C,D8*%
X7005000Y42590000D03*
X7005000Y46944000D03*
%TD*%
D11*
%TO.C,C25*%
X21610000Y21145000D03*
X20594000Y21145000D03*
%TD*%
%TO.C,R22*%
X22942000Y15050000D03*
X23958000Y15050000D03*
%TD*%
%TO.C,R23*%
X23958000Y16250000D03*
X22942000Y16250000D03*
%TD*%
%TO.C,C28*%
X5989000Y88963000D03*
X4973000Y88963000D03*
%TD*%
%TO.C,C14*%
X15006000Y55816000D03*
X16022000Y55816000D03*
%TD*%
D28*
%TO.C,RM1*%
X9164000Y55780000D03*
X10688000Y55780000D03*
D29*
X9164000Y56669000D03*
X10688000Y56669000D03*
X9164000Y57431000D03*
X10688000Y57431000D03*
D28*
X9164000Y58320000D03*
X10688000Y58320000D03*
%TD*%
D16*
%TO.C,C12*%
X13482000Y22923000D03*
X13482000Y21145000D03*
%TD*%
D11*
%TO.C,R33*%
X13990000Y19748000D03*
X12974000Y19748000D03*
%TD*%
D30*
%TO.C,D5*%
X14273000Y28130000D03*
X21073000Y28130000D03*
%TD*%
D31*
%TO.C,R41*%
X20775000Y18605000D03*
X27075000Y18605000D03*
%TD*%
D32*
%TO.C,U5*%
X15387000Y23304000D03*
X16657000Y23304000D03*
X17927000Y23304000D03*
X19197000Y23304000D03*
X19197000Y17704000D03*
X17927000Y17704000D03*
X16657000Y17704000D03*
X15387000Y17704000D03*
D33*
X17292000Y20504000D03*
%TD*%
D11*
%TO.C,R34*%
X20594000Y23050000D03*
X21610000Y23050000D03*
%TD*%
D12*
%TO.C,C29*%
X26563000Y83629000D03*
X26563000Y82613000D03*
%TD*%
D34*
%TO.C,U8*%
X22601000Y82170999D03*
X22601000Y83120999D03*
X22601000Y84070999D03*
X25201000Y84070999D03*
X25201000Y82170999D03*
%TD*%
D12*
%TO.C,R42*%
X7259000Y87312000D03*
X7259000Y86296000D03*
%TD*%
D16*
%TO.C,C31*%
X3322000Y86550000D03*
X1544000Y86550000D03*
%TD*%
D12*
%TO.C,R24*%
X25166000Y77787000D03*
X25166000Y78803000D03*
%TD*%
D35*
%TO.C,MICRO_SD1*%
X8690000Y83020000D03*
X8690000Y78570000D03*
X19290000Y83020000D03*
X19290000Y78570000D03*
D36*
X17840000Y84770000D03*
X16740000Y84770000D03*
X15640000Y84770000D03*
X14890000Y84770000D03*
X13440000Y84770000D03*
X12340000Y84770000D03*
X11240000Y84770000D03*
X10140000Y84770000D03*
X14190000Y84770000D03*
%TD*%
D11*
%TO.C,R38*%
X21610000Y22034000D03*
X20594000Y22034000D03*
%TD*%
D32*
%TO.C,U2*%
X27355000Y22350000D03*
X26085000Y22350000D03*
X24815000Y22350000D03*
X23545000Y22350000D03*
X23545000Y27950000D03*
X24815000Y27950000D03*
X26085000Y27950000D03*
X27355000Y27950000D03*
D33*
X25450000Y25150000D03*
%TD*%
D31*
%TO.C,R27*%
X16000000Y5450000D03*
X22300000Y5450000D03*
%TD*%
D13*
%TO.C,FID8*%
X1650000Y74900000D03*
%TD*%
M02*
