G04 #@! TF.GenerationSoftware,KiCad,Pcbnew,5.1.0-rc2-unknown-036be7d~80~ubuntu16.04.1*
G04 #@! TF.CreationDate,2021-12-23T14:11:39+02:00*
G04 #@! TF.ProjectId,ESP32-PoE-ISO_Rev_I,45535033-322d-4506-9f45-2d49534f5f52,I*
G04 #@! TF.SameCoordinates,Original*
G04 #@! TF.FileFunction,Legend,Bot*
G04 #@! TF.FilePolarity,Positive*
%FSLAX46Y46*%
G04 Gerber Fmt 4.6, Leading zero omitted, Abs format (unit mm)*
G04 Created by KiCad (PCBNEW 5.1.0-rc2-unknown-036be7d~80~ubuntu16.04.1) date 2021-12-23 14:11:39*
%MOMM*%
%LPD*%
G04 APERTURE LIST*
%ADD10C,0.203200*%
%ADD11C,0.254000*%
%ADD12C,0.190500*%
%ADD13C,0.300000*%
%ADD14C,0.600000*%
%ADD15C,0.420000*%
%ADD16C,0.370000*%
%ADD17C,0.400000*%
%ADD18C,0.380000*%
%ADD19C,0.150000*%
%ADD20C,1.000000*%
%ADD21C,0.700000*%
%ADD22C,0.500000*%
%ADD23C,0.100000*%
%ADD24C,0.127000*%
%ADD25C,0.200000*%
%ADD26C,0.180000*%
%ADD27C,0.177800*%
%ADD28C,0.125000*%
%ADD29C,0.222250*%
G04 APERTURE END LIST*
D10*
X112141000Y-165608000D02*
X112395000Y-165544500D01*
X112204500Y-165354000D02*
X112141000Y-165608000D01*
X112458500Y-165290500D02*
X112141000Y-165608000D01*
X112458500Y-164655500D02*
X112458500Y-165290500D01*
D11*
X103251000Y-169164000D02*
X103124000Y-169545000D01*
X103251000Y-169164000D02*
X102870000Y-169291000D01*
X102616000Y-169799000D02*
X103251000Y-169164000D01*
X102616000Y-171196000D02*
X102616000Y-169799000D01*
D10*
X96139000Y-104394000D02*
X96393000Y-104394000D01*
X96139000Y-104394000D02*
X96139000Y-104140000D01*
X96647000Y-103886000D02*
X96647000Y-103632000D01*
X96139000Y-104394000D02*
X96647000Y-103886000D01*
D11*
X95764047Y-180793571D02*
X94989952Y-180793571D01*
X91319047Y-180793571D02*
X90544952Y-180793571D01*
X90932000Y-181180619D02*
X90932000Y-180406523D01*
X93423619Y-145608523D02*
X94028380Y-145608523D01*
X94088857Y-146213285D01*
X94028380Y-146152809D01*
X93907428Y-146092333D01*
X93605047Y-146092333D01*
X93484095Y-146152809D01*
X93423619Y-146213285D01*
X93363142Y-146334238D01*
X93363142Y-146636619D01*
X93423619Y-146757571D01*
X93484095Y-146818047D01*
X93605047Y-146878523D01*
X93907428Y-146878523D01*
X94028380Y-146818047D01*
X94088857Y-146757571D01*
X93484095Y-143237857D02*
X93484095Y-144084523D01*
X93786476Y-142754047D02*
X94088857Y-143661190D01*
X93302666Y-143661190D01*
X94149333Y-140274523D02*
X93363142Y-140274523D01*
X93786476Y-140758333D01*
X93605047Y-140758333D01*
X93484095Y-140818809D01*
X93423619Y-140879285D01*
X93363142Y-141000238D01*
X93363142Y-141302619D01*
X93423619Y-141423571D01*
X93484095Y-141484047D01*
X93605047Y-141544523D01*
X93967904Y-141544523D01*
X94088857Y-141484047D01*
X94149333Y-141423571D01*
X94088857Y-137855476D02*
X94028380Y-137795000D01*
X93907428Y-137734523D01*
X93605047Y-137734523D01*
X93484095Y-137795000D01*
X93423619Y-137855476D01*
X93363142Y-137976428D01*
X93363142Y-138097380D01*
X93423619Y-138278809D01*
X94149333Y-139004523D01*
X93363142Y-139004523D01*
X93363142Y-136464523D02*
X94088857Y-136464523D01*
X93726000Y-136464523D02*
X93726000Y-135194523D01*
X93846952Y-135375952D01*
X93967904Y-135496904D01*
X94088857Y-135557380D01*
X93786476Y-132781523D02*
X93665523Y-132781523D01*
X93544571Y-132842000D01*
X93484095Y-132902476D01*
X93423619Y-133023428D01*
X93363142Y-133265333D01*
X93363142Y-133567714D01*
X93423619Y-133809619D01*
X93484095Y-133930571D01*
X93544571Y-133991047D01*
X93665523Y-134051523D01*
X93786476Y-134051523D01*
X93907428Y-133991047D01*
X93967904Y-133930571D01*
X94028380Y-133809619D01*
X94088857Y-133567714D01*
X94088857Y-133265333D01*
X94028380Y-133023428D01*
X93967904Y-132902476D01*
X93907428Y-132842000D01*
X93786476Y-132781523D01*
X98346380Y-130737428D02*
X98007714Y-130737428D01*
X97862571Y-131269619D02*
X98346380Y-131269619D01*
X98346380Y-130253619D01*
X97862571Y-130253619D01*
X97475523Y-131221238D02*
X97330380Y-131269619D01*
X97088476Y-131269619D01*
X96991714Y-131221238D01*
X96943333Y-131172857D01*
X96894952Y-131076095D01*
X96894952Y-130979333D01*
X96943333Y-130882571D01*
X96991714Y-130834190D01*
X97088476Y-130785809D01*
X97282000Y-130737428D01*
X97378761Y-130689047D01*
X97427142Y-130640666D01*
X97475523Y-130543904D01*
X97475523Y-130447142D01*
X97427142Y-130350380D01*
X97378761Y-130302000D01*
X97282000Y-130253619D01*
X97040095Y-130253619D01*
X96894952Y-130302000D01*
X96459523Y-131269619D02*
X96459523Y-130253619D01*
X96072476Y-130253619D01*
X95975714Y-130302000D01*
X95927333Y-130350380D01*
X95878952Y-130447142D01*
X95878952Y-130592285D01*
X95927333Y-130689047D01*
X95975714Y-130737428D01*
X96072476Y-130785809D01*
X96459523Y-130785809D01*
X95685428Y-131366380D02*
X94911333Y-131366380D01*
X94669428Y-130737428D02*
X94330761Y-130737428D01*
X94185619Y-131269619D02*
X94669428Y-131269619D01*
X94669428Y-130253619D01*
X94185619Y-130253619D01*
X93750190Y-131269619D02*
X93750190Y-130253619D01*
X93169619Y-131269619D01*
X93169619Y-130253619D01*
X95836619Y-127635000D02*
X95957571Y-127574523D01*
X96139000Y-127574523D01*
X96320428Y-127635000D01*
X96441380Y-127755952D01*
X96501857Y-127876904D01*
X96562333Y-128118809D01*
X96562333Y-128300238D01*
X96501857Y-128542142D01*
X96441380Y-128663095D01*
X96320428Y-128784047D01*
X96139000Y-128844523D01*
X96018047Y-128844523D01*
X95836619Y-128784047D01*
X95776142Y-128723571D01*
X95776142Y-128300238D01*
X96018047Y-128300238D01*
X95231857Y-128844523D02*
X95231857Y-127574523D01*
X94506142Y-128844523D01*
X94506142Y-127574523D01*
X93901380Y-128844523D02*
X93901380Y-127574523D01*
X93599000Y-127574523D01*
X93417571Y-127635000D01*
X93296619Y-127755952D01*
X93236142Y-127876904D01*
X93175666Y-128118809D01*
X93175666Y-128300238D01*
X93236142Y-128542142D01*
X93296619Y-128663095D01*
X93417571Y-128784047D01*
X93599000Y-128844523D01*
X93901380Y-128844523D01*
X97614619Y-125820714D02*
X96647000Y-125820714D01*
X97130809Y-126304523D02*
X97130809Y-125336904D01*
X96163190Y-125034523D02*
X95377000Y-125034523D01*
X95800333Y-125518333D01*
X95618904Y-125518333D01*
X95497952Y-125578809D01*
X95437476Y-125639285D01*
X95377000Y-125760238D01*
X95377000Y-126062619D01*
X95437476Y-126183571D01*
X95497952Y-126244047D01*
X95618904Y-126304523D01*
X95981761Y-126304523D01*
X96102714Y-126244047D01*
X96163190Y-126183571D01*
X95014142Y-125034523D02*
X94590809Y-126304523D01*
X94167476Y-125034523D01*
X93865095Y-125034523D02*
X93078904Y-125034523D01*
X93502238Y-125518333D01*
X93320809Y-125518333D01*
X93199857Y-125578809D01*
X93139380Y-125639285D01*
X93078904Y-125760238D01*
X93078904Y-126062619D01*
X93139380Y-126183571D01*
X93199857Y-126244047D01*
X93320809Y-126304523D01*
X93683666Y-126304523D01*
X93804619Y-126244047D01*
X93865095Y-126183571D01*
X96501857Y-123534714D02*
X95534238Y-123534714D01*
X96018047Y-124018523D02*
X96018047Y-123050904D01*
X94324714Y-122748523D02*
X94929476Y-122748523D01*
X94989952Y-123353285D01*
X94929476Y-123292809D01*
X94808523Y-123232333D01*
X94506142Y-123232333D01*
X94385190Y-123292809D01*
X94324714Y-123353285D01*
X94264238Y-123474238D01*
X94264238Y-123776619D01*
X94324714Y-123897571D01*
X94385190Y-123958047D01*
X94506142Y-124018523D01*
X94808523Y-124018523D01*
X94929476Y-123958047D01*
X94989952Y-123897571D01*
X93901380Y-122748523D02*
X93478047Y-124018523D01*
X93054714Y-122748523D01*
D12*
X116858142Y-148426714D02*
X117293571Y-148426714D01*
X117075857Y-148426714D02*
X117075857Y-147664714D01*
X117148428Y-147773571D01*
X117221000Y-147846142D01*
X117293571Y-147882428D01*
X116604142Y-147664714D02*
X116132428Y-147664714D01*
X116386428Y-147955000D01*
X116277571Y-147955000D01*
X116205000Y-147991285D01*
X116168714Y-148027571D01*
X116132428Y-148100142D01*
X116132428Y-148281571D01*
X116168714Y-148354142D01*
X116205000Y-148390428D01*
X116277571Y-148426714D01*
X116495285Y-148426714D01*
X116567857Y-148390428D01*
X116604142Y-148354142D01*
X115560102Y-144191659D02*
X115777817Y-143814567D01*
X115668959Y-144003113D02*
X115009048Y-143622113D01*
X115139607Y-143613693D01*
X115238741Y-143587130D01*
X115306451Y-143542424D01*
X114793590Y-144503298D02*
X115233531Y-144757298D01*
X114632909Y-144201033D02*
X115194989Y-144316054D01*
X114959132Y-144724571D01*
X114572142Y-142076714D02*
X115007571Y-142076714D01*
X114789857Y-142076714D02*
X114789857Y-141314714D01*
X114862428Y-141423571D01*
X114935000Y-141496142D01*
X115007571Y-141532428D01*
X113882714Y-141314714D02*
X114245571Y-141314714D01*
X114281857Y-141677571D01*
X114245571Y-141641285D01*
X114173000Y-141605000D01*
X113991571Y-141605000D01*
X113919000Y-141641285D01*
X113882714Y-141677571D01*
X113846428Y-141750142D01*
X113846428Y-141931571D01*
X113882714Y-142004142D01*
X113919000Y-142040428D01*
X113991571Y-142076714D01*
X114173000Y-142076714D01*
X114245571Y-142040428D01*
X114281857Y-142004142D01*
D11*
X114287904Y-138242523D02*
X115013619Y-138242523D01*
X114650761Y-138242523D02*
X114650761Y-136972523D01*
X114771714Y-137153952D01*
X114892666Y-137274904D01*
X115013619Y-137335380D01*
X113199333Y-136972523D02*
X113441238Y-136972523D01*
X113562190Y-137033000D01*
X113622666Y-137093476D01*
X113743619Y-137274904D01*
X113804095Y-137516809D01*
X113804095Y-138000619D01*
X113743619Y-138121571D01*
X113683142Y-138182047D01*
X113562190Y-138242523D01*
X113320285Y-138242523D01*
X113199333Y-138182047D01*
X113138857Y-138121571D01*
X113078380Y-138000619D01*
X113078380Y-137698238D01*
X113138857Y-137577285D01*
X113199333Y-137516809D01*
X113320285Y-137456333D01*
X113562190Y-137456333D01*
X113683142Y-137516809D01*
X113743619Y-137577285D01*
X113804095Y-137698238D01*
X115074095Y-134686523D02*
X114287904Y-134686523D01*
X114711238Y-135170333D01*
X114529809Y-135170333D01*
X114408857Y-135230809D01*
X114348380Y-135291285D01*
X114287904Y-135412238D01*
X114287904Y-135714619D01*
X114348380Y-135835571D01*
X114408857Y-135896047D01*
X114529809Y-135956523D01*
X114892666Y-135956523D01*
X115013619Y-135896047D01*
X115074095Y-135835571D01*
X113804095Y-134807476D02*
X113743619Y-134747000D01*
X113622666Y-134686523D01*
X113320285Y-134686523D01*
X113199333Y-134747000D01*
X113138857Y-134807476D01*
X113078380Y-134928428D01*
X113078380Y-135049380D01*
X113138857Y-135230809D01*
X113864571Y-135956523D01*
X113078380Y-135956523D01*
X115074095Y-132527523D02*
X114287904Y-132527523D01*
X114711238Y-133011333D01*
X114529809Y-133011333D01*
X114408857Y-133071809D01*
X114348380Y-133132285D01*
X114287904Y-133253238D01*
X114287904Y-133555619D01*
X114348380Y-133676571D01*
X114408857Y-133737047D01*
X114529809Y-133797523D01*
X114892666Y-133797523D01*
X115013619Y-133737047D01*
X115074095Y-133676571D01*
X113864571Y-132527523D02*
X113078380Y-132527523D01*
X113501714Y-133011333D01*
X113320285Y-133011333D01*
X113199333Y-133071809D01*
X113138857Y-133132285D01*
X113078380Y-133253238D01*
X113078380Y-133555619D01*
X113138857Y-133676571D01*
X113199333Y-133737047D01*
X113320285Y-133797523D01*
X113683142Y-133797523D01*
X113804095Y-133737047D01*
X113864571Y-133676571D01*
X115074095Y-130114523D02*
X114287904Y-130114523D01*
X114711238Y-130598333D01*
X114529809Y-130598333D01*
X114408857Y-130658809D01*
X114348380Y-130719285D01*
X114287904Y-130840238D01*
X114287904Y-131142619D01*
X114348380Y-131263571D01*
X114408857Y-131324047D01*
X114529809Y-131384523D01*
X114892666Y-131384523D01*
X115013619Y-131324047D01*
X115074095Y-131263571D01*
X113199333Y-130537857D02*
X113199333Y-131384523D01*
X113501714Y-130054047D02*
X113804095Y-130961190D01*
X113017904Y-130961190D01*
X115074095Y-127320523D02*
X114287904Y-127320523D01*
X114711238Y-127804333D01*
X114529809Y-127804333D01*
X114408857Y-127864809D01*
X114348380Y-127925285D01*
X114287904Y-128046238D01*
X114287904Y-128348619D01*
X114348380Y-128469571D01*
X114408857Y-128530047D01*
X114529809Y-128590523D01*
X114892666Y-128590523D01*
X115013619Y-128530047D01*
X115074095Y-128469571D01*
X113138857Y-127320523D02*
X113743619Y-127320523D01*
X113804095Y-127925285D01*
X113743619Y-127864809D01*
X113622666Y-127804333D01*
X113320285Y-127804333D01*
X113199333Y-127864809D01*
X113138857Y-127925285D01*
X113078380Y-128046238D01*
X113078380Y-128348619D01*
X113138857Y-128469571D01*
X113199333Y-128530047D01*
X113320285Y-128590523D01*
X113622666Y-128590523D01*
X113743619Y-128530047D01*
X113804095Y-128469571D01*
X115074095Y-125034523D02*
X114287904Y-125034523D01*
X114711238Y-125518333D01*
X114529809Y-125518333D01*
X114408857Y-125578809D01*
X114348380Y-125639285D01*
X114287904Y-125760238D01*
X114287904Y-126062619D01*
X114348380Y-126183571D01*
X114408857Y-126244047D01*
X114529809Y-126304523D01*
X114892666Y-126304523D01*
X115013619Y-126244047D01*
X115074095Y-126183571D01*
X113199333Y-125034523D02*
X113441238Y-125034523D01*
X113562190Y-125095000D01*
X113622666Y-125155476D01*
X113743619Y-125336904D01*
X113804095Y-125578809D01*
X113804095Y-126062619D01*
X113743619Y-126183571D01*
X113683142Y-126244047D01*
X113562190Y-126304523D01*
X113320285Y-126304523D01*
X113199333Y-126244047D01*
X113138857Y-126183571D01*
X113078380Y-126062619D01*
X113078380Y-125760238D01*
X113138857Y-125639285D01*
X113199333Y-125578809D01*
X113320285Y-125518333D01*
X113562190Y-125518333D01*
X113683142Y-125578809D01*
X113743619Y-125639285D01*
X113804095Y-125760238D01*
X115074095Y-122621523D02*
X114287904Y-122621523D01*
X114711238Y-123105333D01*
X114529809Y-123105333D01*
X114408857Y-123165809D01*
X114348380Y-123226285D01*
X114287904Y-123347238D01*
X114287904Y-123649619D01*
X114348380Y-123770571D01*
X114408857Y-123831047D01*
X114529809Y-123891523D01*
X114892666Y-123891523D01*
X115013619Y-123831047D01*
X115074095Y-123770571D01*
X113683142Y-123891523D02*
X113441238Y-123891523D01*
X113320285Y-123831047D01*
X113259809Y-123770571D01*
X113138857Y-123589142D01*
X113078380Y-123347238D01*
X113078380Y-122863428D01*
X113138857Y-122742476D01*
X113199333Y-122682000D01*
X113320285Y-122621523D01*
X113562190Y-122621523D01*
X113683142Y-122682000D01*
X113743619Y-122742476D01*
X113804095Y-122863428D01*
X113804095Y-123165809D01*
X113743619Y-123286761D01*
X113683142Y-123347238D01*
X113562190Y-123407714D01*
X113320285Y-123407714D01*
X113199333Y-123347238D01*
X113138857Y-123286761D01*
X113078380Y-123165809D01*
D12*
X108621285Y-108929714D02*
X109056714Y-108929714D01*
X108839000Y-108929714D02*
X108839000Y-108167714D01*
X108911571Y-108276571D01*
X108984142Y-108349142D01*
X109056714Y-108385428D01*
D11*
X109425619Y-174352857D02*
X109474000Y-174401238D01*
X109619142Y-174449619D01*
X109715904Y-174449619D01*
X109861047Y-174401238D01*
X109957809Y-174304476D01*
X110006190Y-174207714D01*
X110054571Y-174014190D01*
X110054571Y-173869047D01*
X110006190Y-173675523D01*
X109957809Y-173578761D01*
X109861047Y-173482000D01*
X109715904Y-173433619D01*
X109619142Y-173433619D01*
X109474000Y-173482000D01*
X109425619Y-173530380D01*
X108845047Y-174449619D02*
X108941809Y-174401238D01*
X108990190Y-174352857D01*
X109038571Y-174256095D01*
X109038571Y-173965809D01*
X108990190Y-173869047D01*
X108941809Y-173820666D01*
X108845047Y-173772285D01*
X108699904Y-173772285D01*
X108603142Y-173820666D01*
X108554761Y-173869047D01*
X108506380Y-173965809D01*
X108506380Y-174256095D01*
X108554761Y-174352857D01*
X108603142Y-174401238D01*
X108699904Y-174449619D01*
X108845047Y-174449619D01*
X108070952Y-174449619D02*
X108070952Y-173772285D01*
X108070952Y-173869047D02*
X108022571Y-173820666D01*
X107925809Y-173772285D01*
X107780666Y-173772285D01*
X107683904Y-173820666D01*
X107635523Y-173917428D01*
X107635523Y-174449619D01*
X107635523Y-173917428D02*
X107587142Y-173820666D01*
X107490380Y-173772285D01*
X107345238Y-173772285D01*
X107248476Y-173820666D01*
X107200095Y-173917428D01*
X107200095Y-174449619D01*
X106716285Y-173772285D02*
X106716285Y-174788285D01*
X106716285Y-173820666D02*
X106619523Y-173772285D01*
X106426000Y-173772285D01*
X106329238Y-173820666D01*
X106280857Y-173869047D01*
X106232476Y-173965809D01*
X106232476Y-174256095D01*
X106280857Y-174352857D01*
X106329238Y-174401238D01*
X106426000Y-174449619D01*
X106619523Y-174449619D01*
X106716285Y-174401238D01*
X105651904Y-174449619D02*
X105748666Y-174401238D01*
X105797047Y-174304476D01*
X105797047Y-173433619D01*
X105264857Y-174449619D02*
X105264857Y-173772285D01*
X105264857Y-173433619D02*
X105313238Y-173482000D01*
X105264857Y-173530380D01*
X105216476Y-173482000D01*
X105264857Y-173433619D01*
X105264857Y-173530380D01*
X104345619Y-174449619D02*
X104345619Y-173917428D01*
X104394000Y-173820666D01*
X104490761Y-173772285D01*
X104684285Y-173772285D01*
X104781047Y-173820666D01*
X104345619Y-174401238D02*
X104442380Y-174449619D01*
X104684285Y-174449619D01*
X104781047Y-174401238D01*
X104829428Y-174304476D01*
X104829428Y-174207714D01*
X104781047Y-174110952D01*
X104684285Y-174062571D01*
X104442380Y-174062571D01*
X104345619Y-174014190D01*
X103861809Y-173772285D02*
X103861809Y-174449619D01*
X103861809Y-173869047D02*
X103813428Y-173820666D01*
X103716666Y-173772285D01*
X103571523Y-173772285D01*
X103474761Y-173820666D01*
X103426380Y-173917428D01*
X103426380Y-174449619D01*
X103087714Y-173772285D02*
X102700666Y-173772285D01*
X102942571Y-173433619D02*
X102942571Y-174304476D01*
X102894190Y-174401238D01*
X102797428Y-174449619D01*
X102700666Y-174449619D01*
X109238142Y-172925619D02*
X109576809Y-172441809D01*
X109818714Y-172925619D02*
X109818714Y-171909619D01*
X109431666Y-171909619D01*
X109334904Y-171958000D01*
X109286523Y-172006380D01*
X109238142Y-172103142D01*
X109238142Y-172248285D01*
X109286523Y-172345047D01*
X109334904Y-172393428D01*
X109431666Y-172441809D01*
X109818714Y-172441809D01*
X108657571Y-172925619D02*
X108754333Y-172877238D01*
X108802714Y-172828857D01*
X108851095Y-172732095D01*
X108851095Y-172441809D01*
X108802714Y-172345047D01*
X108754333Y-172296666D01*
X108657571Y-172248285D01*
X108512428Y-172248285D01*
X108415666Y-172296666D01*
X108367285Y-172345047D01*
X108318904Y-172441809D01*
X108318904Y-172732095D01*
X108367285Y-172828857D01*
X108415666Y-172877238D01*
X108512428Y-172925619D01*
X108657571Y-172925619D01*
X107883476Y-172925619D02*
X107883476Y-171909619D01*
X107883476Y-172393428D02*
X107302904Y-172393428D01*
X107302904Y-172925619D02*
X107302904Y-171909619D01*
X106867476Y-172877238D02*
X106722333Y-172925619D01*
X106480428Y-172925619D01*
X106383666Y-172877238D01*
X106335285Y-172828857D01*
X106286904Y-172732095D01*
X106286904Y-172635333D01*
X106335285Y-172538571D01*
X106383666Y-172490190D01*
X106480428Y-172441809D01*
X106673952Y-172393428D01*
X106770714Y-172345047D01*
X106819095Y-172296666D01*
X106867476Y-172199904D01*
X106867476Y-172103142D01*
X106819095Y-172006380D01*
X106770714Y-171958000D01*
X106673952Y-171909619D01*
X106432047Y-171909619D01*
X106286904Y-171958000D01*
X114898714Y-121490619D02*
X115479285Y-121490619D01*
X115189000Y-121490619D02*
X115189000Y-120474619D01*
X115285761Y-120619761D01*
X115382523Y-120716523D01*
X115479285Y-120764904D01*
X92800714Y-121617619D02*
X93381285Y-121617619D01*
X93091000Y-121617619D02*
X93091000Y-120601619D01*
X93187761Y-120746761D01*
X93284523Y-120843523D01*
X93381285Y-120891904D01*
X102894190Y-158677428D02*
X102555523Y-158677428D01*
X102410380Y-159209619D02*
X102894190Y-159209619D01*
X102894190Y-158193619D01*
X102410380Y-158193619D01*
X102023333Y-159161238D02*
X101878190Y-159209619D01*
X101636285Y-159209619D01*
X101539523Y-159161238D01*
X101491142Y-159112857D01*
X101442761Y-159016095D01*
X101442761Y-158919333D01*
X101491142Y-158822571D01*
X101539523Y-158774190D01*
X101636285Y-158725809D01*
X101829809Y-158677428D01*
X101926571Y-158629047D01*
X101974952Y-158580666D01*
X102023333Y-158483904D01*
X102023333Y-158387142D01*
X101974952Y-158290380D01*
X101926571Y-158242000D01*
X101829809Y-158193619D01*
X101587904Y-158193619D01*
X101442761Y-158242000D01*
X101007333Y-159209619D02*
X101007333Y-158193619D01*
X100620285Y-158193619D01*
X100523523Y-158242000D01*
X100475142Y-158290380D01*
X100426761Y-158387142D01*
X100426761Y-158532285D01*
X100475142Y-158629047D01*
X100523523Y-158677428D01*
X100620285Y-158725809D01*
X101007333Y-158725809D01*
X100088095Y-158193619D02*
X99459142Y-158193619D01*
X99797809Y-158580666D01*
X99652666Y-158580666D01*
X99555904Y-158629047D01*
X99507523Y-158677428D01*
X99459142Y-158774190D01*
X99459142Y-159016095D01*
X99507523Y-159112857D01*
X99555904Y-159161238D01*
X99652666Y-159209619D01*
X99942952Y-159209619D01*
X100039714Y-159161238D01*
X100088095Y-159112857D01*
X99072095Y-158290380D02*
X99023714Y-158242000D01*
X98926952Y-158193619D01*
X98685047Y-158193619D01*
X98588285Y-158242000D01*
X98539904Y-158290380D01*
X98491523Y-158387142D01*
X98491523Y-158483904D01*
X98539904Y-158629047D01*
X99120476Y-159209619D01*
X98491523Y-159209619D01*
X98056095Y-158822571D02*
X97282000Y-158822571D01*
X96798190Y-159209619D02*
X96798190Y-158193619D01*
X96411142Y-158193619D01*
X96314380Y-158242000D01*
X96266000Y-158290380D01*
X96217619Y-158387142D01*
X96217619Y-158532285D01*
X96266000Y-158629047D01*
X96314380Y-158677428D01*
X96411142Y-158725809D01*
X96798190Y-158725809D01*
X95637047Y-159209619D02*
X95733809Y-159161238D01*
X95782190Y-159112857D01*
X95830571Y-159016095D01*
X95830571Y-158725809D01*
X95782190Y-158629047D01*
X95733809Y-158580666D01*
X95637047Y-158532285D01*
X95491904Y-158532285D01*
X95395142Y-158580666D01*
X95346761Y-158629047D01*
X95298380Y-158725809D01*
X95298380Y-159016095D01*
X95346761Y-159112857D01*
X95395142Y-159161238D01*
X95491904Y-159209619D01*
X95637047Y-159209619D01*
X94862952Y-158677428D02*
X94524285Y-158677428D01*
X94379142Y-159209619D02*
X94862952Y-159209619D01*
X94862952Y-158193619D01*
X94379142Y-158193619D01*
X93943714Y-158822571D02*
X93169619Y-158822571D01*
X92685809Y-159209619D02*
X92685809Y-158193619D01*
X92250380Y-159161238D02*
X92105238Y-159209619D01*
X91863333Y-159209619D01*
X91766571Y-159161238D01*
X91718190Y-159112857D01*
X91669809Y-159016095D01*
X91669809Y-158919333D01*
X91718190Y-158822571D01*
X91766571Y-158774190D01*
X91863333Y-158725809D01*
X92056857Y-158677428D01*
X92153619Y-158629047D01*
X92202000Y-158580666D01*
X92250380Y-158483904D01*
X92250380Y-158387142D01*
X92202000Y-158290380D01*
X92153619Y-158242000D01*
X92056857Y-158193619D01*
X91814952Y-158193619D01*
X91669809Y-158242000D01*
X91040857Y-158193619D02*
X90847333Y-158193619D01*
X90750571Y-158242000D01*
X90653809Y-158338761D01*
X90605428Y-158532285D01*
X90605428Y-158870952D01*
X90653809Y-159064476D01*
X90750571Y-159161238D01*
X90847333Y-159209619D01*
X91040857Y-159209619D01*
X91137619Y-159161238D01*
X91234380Y-159064476D01*
X91282761Y-158870952D01*
X91282761Y-158532285D01*
X91234380Y-158338761D01*
X91137619Y-158242000D01*
X91040857Y-158193619D01*
X95918261Y-162753523D02*
X96341595Y-162148761D01*
X96643976Y-162753523D02*
X96643976Y-161483523D01*
X96160166Y-161483523D01*
X96039214Y-161544000D01*
X95978738Y-161604476D01*
X95918261Y-161725428D01*
X95918261Y-161906857D01*
X95978738Y-162027809D01*
X96039214Y-162088285D01*
X96160166Y-162148761D01*
X96643976Y-162148761D01*
X94890166Y-162693047D02*
X95011119Y-162753523D01*
X95253023Y-162753523D01*
X95373976Y-162693047D01*
X95434452Y-162572095D01*
X95434452Y-162088285D01*
X95373976Y-161967333D01*
X95253023Y-161906857D01*
X95011119Y-161906857D01*
X94890166Y-161967333D01*
X94829690Y-162088285D01*
X94829690Y-162209238D01*
X95434452Y-162330190D01*
X94406357Y-161906857D02*
X94103976Y-162753523D01*
X93801595Y-161906857D01*
X93317785Y-162632571D02*
X93257309Y-162693047D01*
X93317785Y-162753523D01*
X93378261Y-162693047D01*
X93317785Y-162632571D01*
X93317785Y-162753523D01*
X92713023Y-162753523D02*
X92713023Y-161483523D01*
D12*
X96338571Y-99822000D02*
X96374857Y-99785714D01*
X96447428Y-99676857D01*
X96483714Y-99604285D01*
X96520000Y-99495428D01*
X96556285Y-99314000D01*
X96556285Y-99168857D01*
X96520000Y-98987428D01*
X96483714Y-98878571D01*
X96447428Y-98806000D01*
X96374857Y-98697142D01*
X96338571Y-98660857D01*
X95612857Y-99459142D02*
X95649142Y-99495428D01*
X95758000Y-99531714D01*
X95830571Y-99531714D01*
X95939428Y-99495428D01*
X96012000Y-99422857D01*
X96048285Y-99350285D01*
X96084571Y-99205142D01*
X96084571Y-99096285D01*
X96048285Y-98951142D01*
X96012000Y-98878571D01*
X95939428Y-98806000D01*
X95830571Y-98769714D01*
X95758000Y-98769714D01*
X95649142Y-98806000D01*
X95612857Y-98842285D01*
X95358857Y-99822000D02*
X95322571Y-99785714D01*
X95250000Y-99676857D01*
X95213714Y-99604285D01*
X95177428Y-99495428D01*
X95141142Y-99314000D01*
X95141142Y-99168857D01*
X95177428Y-98987428D01*
X95213714Y-98878571D01*
X95250000Y-98806000D01*
X95322571Y-98697142D01*
X95358857Y-98660857D01*
X94234000Y-98842285D02*
X94197714Y-98806000D01*
X94125142Y-98769714D01*
X93943714Y-98769714D01*
X93871142Y-98806000D01*
X93834857Y-98842285D01*
X93798571Y-98914857D01*
X93798571Y-98987428D01*
X93834857Y-99096285D01*
X94270285Y-99531714D01*
X93798571Y-99531714D01*
X93326857Y-98769714D02*
X93254285Y-98769714D01*
X93181714Y-98806000D01*
X93145428Y-98842285D01*
X93109142Y-98914857D01*
X93072857Y-99060000D01*
X93072857Y-99241428D01*
X93109142Y-99386571D01*
X93145428Y-99459142D01*
X93181714Y-99495428D01*
X93254285Y-99531714D01*
X93326857Y-99531714D01*
X93399428Y-99495428D01*
X93435714Y-99459142D01*
X93472000Y-99386571D01*
X93508285Y-99241428D01*
X93508285Y-99060000D01*
X93472000Y-98914857D01*
X93435714Y-98842285D01*
X93399428Y-98806000D01*
X93326857Y-98769714D01*
X92782571Y-98842285D02*
X92746285Y-98806000D01*
X92673714Y-98769714D01*
X92492285Y-98769714D01*
X92419714Y-98806000D01*
X92383428Y-98842285D01*
X92347142Y-98914857D01*
X92347142Y-98987428D01*
X92383428Y-99096285D01*
X92818857Y-99531714D01*
X92347142Y-99531714D01*
X91621428Y-99531714D02*
X92056857Y-99531714D01*
X91839142Y-99531714D02*
X91839142Y-98769714D01*
X91911714Y-98878571D01*
X91984285Y-98951142D01*
X92056857Y-98987428D01*
X113389833Y-101113166D02*
X113389833Y-100224166D01*
X113008833Y-101113166D02*
X113008833Y-100647500D01*
X113051166Y-100562833D01*
X113135833Y-100520500D01*
X113262833Y-100520500D01*
X113347500Y-100562833D01*
X113389833Y-100605166D01*
X112712500Y-100520500D02*
X112373833Y-100520500D01*
X112585500Y-100224166D02*
X112585500Y-100986166D01*
X112543166Y-101070833D01*
X112458500Y-101113166D01*
X112373833Y-101113166D01*
X112204500Y-100520500D02*
X111865833Y-100520500D01*
X112077500Y-100224166D02*
X112077500Y-100986166D01*
X112035166Y-101070833D01*
X111950500Y-101113166D01*
X111865833Y-101113166D01*
X111569500Y-100520500D02*
X111569500Y-101409500D01*
X111569500Y-100562833D02*
X111484833Y-100520500D01*
X111315500Y-100520500D01*
X111230833Y-100562833D01*
X111188500Y-100605166D01*
X111146166Y-100689833D01*
X111146166Y-100943833D01*
X111188500Y-101028500D01*
X111230833Y-101070833D01*
X111315500Y-101113166D01*
X111484833Y-101113166D01*
X111569500Y-101070833D01*
X110807500Y-101070833D02*
X110722833Y-101113166D01*
X110553500Y-101113166D01*
X110468833Y-101070833D01*
X110426500Y-100986166D01*
X110426500Y-100943833D01*
X110468833Y-100859166D01*
X110553500Y-100816833D01*
X110680500Y-100816833D01*
X110765166Y-100774500D01*
X110807500Y-100689833D01*
X110807500Y-100647500D01*
X110765166Y-100562833D01*
X110680500Y-100520500D01*
X110553500Y-100520500D01*
X110468833Y-100562833D01*
X110045500Y-101028500D02*
X110003166Y-101070833D01*
X110045500Y-101113166D01*
X110087833Y-101070833D01*
X110045500Y-101028500D01*
X110045500Y-101113166D01*
X110045500Y-100562833D02*
X110003166Y-100605166D01*
X110045500Y-100647500D01*
X110087833Y-100605166D01*
X110045500Y-100562833D01*
X110045500Y-100647500D01*
X108987166Y-100181833D02*
X109749166Y-101324833D01*
X108055833Y-100181833D02*
X108817833Y-101324833D01*
X107844166Y-100520500D02*
X107674833Y-101113166D01*
X107505500Y-100689833D01*
X107336166Y-101113166D01*
X107166833Y-100520500D01*
X106912833Y-100520500D02*
X106743500Y-101113166D01*
X106574166Y-100689833D01*
X106404833Y-101113166D01*
X106235500Y-100520500D01*
X105981500Y-100520500D02*
X105812166Y-101113166D01*
X105642833Y-100689833D01*
X105473500Y-101113166D01*
X105304166Y-100520500D01*
X104965500Y-101028500D02*
X104923166Y-101070833D01*
X104965500Y-101113166D01*
X105007833Y-101070833D01*
X104965500Y-101028500D01*
X104965500Y-101113166D01*
X104415166Y-101113166D02*
X104499833Y-101070833D01*
X104542166Y-101028500D01*
X104584500Y-100943833D01*
X104584500Y-100689833D01*
X104542166Y-100605166D01*
X104499833Y-100562833D01*
X104415166Y-100520500D01*
X104288166Y-100520500D01*
X104203500Y-100562833D01*
X104161166Y-100605166D01*
X104118833Y-100689833D01*
X104118833Y-100943833D01*
X104161166Y-101028500D01*
X104203500Y-101070833D01*
X104288166Y-101113166D01*
X104415166Y-101113166D01*
X103610833Y-101113166D02*
X103695500Y-101070833D01*
X103737833Y-100986166D01*
X103737833Y-100224166D01*
X103272166Y-101113166D02*
X103272166Y-100520500D01*
X103272166Y-100224166D02*
X103314500Y-100266500D01*
X103272166Y-100308833D01*
X103229833Y-100266500D01*
X103272166Y-100224166D01*
X103272166Y-100308833D01*
X102848833Y-101113166D02*
X102848833Y-100520500D01*
X102848833Y-100605166D02*
X102806500Y-100562833D01*
X102721833Y-100520500D01*
X102594833Y-100520500D01*
X102510166Y-100562833D01*
X102467833Y-100647500D01*
X102467833Y-101113166D01*
X102467833Y-100647500D02*
X102425500Y-100562833D01*
X102340833Y-100520500D01*
X102213833Y-100520500D01*
X102129166Y-100562833D01*
X102086833Y-100647500D01*
X102086833Y-101113166D01*
X101324833Y-101070833D02*
X101409500Y-101113166D01*
X101578833Y-101113166D01*
X101663500Y-101070833D01*
X101705833Y-100986166D01*
X101705833Y-100647500D01*
X101663500Y-100562833D01*
X101578833Y-100520500D01*
X101409500Y-100520500D01*
X101324833Y-100562833D01*
X101282500Y-100647500D01*
X101282500Y-100732166D01*
X101705833Y-100816833D01*
X100986166Y-101113166D02*
X100520500Y-100520500D01*
X100986166Y-100520500D02*
X100520500Y-101113166D01*
X100181833Y-101028500D02*
X100139500Y-101070833D01*
X100181833Y-101113166D01*
X100224166Y-101070833D01*
X100181833Y-101028500D01*
X100181833Y-101113166D01*
X99377500Y-101070833D02*
X99462166Y-101113166D01*
X99631500Y-101113166D01*
X99716166Y-101070833D01*
X99758500Y-101028500D01*
X99800833Y-100943833D01*
X99800833Y-100689833D01*
X99758500Y-100605166D01*
X99716166Y-100562833D01*
X99631500Y-100520500D01*
X99462166Y-100520500D01*
X99377500Y-100562833D01*
X98869500Y-101113166D02*
X98954166Y-101070833D01*
X98996500Y-101028500D01*
X99038833Y-100943833D01*
X99038833Y-100689833D01*
X98996500Y-100605166D01*
X98954166Y-100562833D01*
X98869500Y-100520500D01*
X98742500Y-100520500D01*
X98657833Y-100562833D01*
X98615500Y-100605166D01*
X98573166Y-100689833D01*
X98573166Y-100943833D01*
X98615500Y-101028500D01*
X98657833Y-101070833D01*
X98742500Y-101113166D01*
X98869500Y-101113166D01*
X98192166Y-101113166D02*
X98192166Y-100520500D01*
X98192166Y-100605166D02*
X98149833Y-100562833D01*
X98065166Y-100520500D01*
X97938166Y-100520500D01*
X97853500Y-100562833D01*
X97811166Y-100647500D01*
X97811166Y-101113166D01*
X97811166Y-100647500D02*
X97768833Y-100562833D01*
X97684166Y-100520500D01*
X97557166Y-100520500D01*
X97472500Y-100562833D01*
X97430166Y-100647500D01*
X97430166Y-101113166D01*
D11*
X94512000Y-185039000D02*
X95762000Y-185039000D01*
X94512000Y-185289000D02*
X95762000Y-185289000D01*
X94512000Y-184789000D02*
X94512000Y-185289000D01*
X95762000Y-184789000D02*
X94512000Y-184789000D01*
X94262000Y-183039000D02*
X94262000Y-183539000D01*
X94262000Y-186539000D02*
X94262000Y-187039000D01*
X97762000Y-186539000D02*
X97762000Y-187039000D01*
X97762000Y-183039000D02*
X97762000Y-183539000D01*
X97762000Y-186539000D02*
G75*
G03X97762000Y-183539000I0J1500000D01*
G01*
X97762000Y-187039000D02*
G75*
G03X97762000Y-183039000I0J2000000D01*
G01*
D13*
X97811980Y-186789000D02*
G75*
G03X97812000Y-183289000I-49980J1750000D01*
G01*
D11*
X94262000Y-186539000D02*
G75*
G03X94262000Y-183539000I0J1500000D01*
G01*
D13*
X94311980Y-186789000D02*
G75*
G03X94312000Y-183289000I-49980J1750000D01*
G01*
D11*
X94262000Y-187039000D02*
G75*
G03X94262000Y-183039000I0J2000000D01*
G01*
X93218000Y-102870000D02*
X92202000Y-102870000D01*
X93218000Y-101346000D02*
X92202000Y-101346000D01*
X98171000Y-103822500D02*
X98425000Y-103822500D01*
X98171000Y-103822500D02*
X97917000Y-103822500D01*
X98171000Y-102933500D02*
X97917000Y-102933500D01*
X98171000Y-102933500D02*
X98425000Y-102933500D01*
X99568000Y-167767000D02*
X98044000Y-167767000D01*
X99568000Y-165227000D02*
X98044000Y-165227000D01*
X111633000Y-152019000D02*
X110109000Y-152019000D01*
X111633000Y-149479000D02*
X110109000Y-149479000D01*
X109023000Y-160020000D02*
X109823000Y-160020000D01*
X107623000Y-160020000D02*
X107023000Y-160020000D01*
X111423000Y-156920000D02*
X111423000Y-158020000D01*
X111423000Y-163120000D02*
X111423000Y-162020000D01*
X104223000Y-156920000D02*
X104223000Y-158020000D01*
X104223000Y-163120000D02*
X104223000Y-162020000D01*
X107623000Y-159020000D02*
X107623000Y-161020000D01*
X109023000Y-159020000D02*
X107623000Y-160020000D01*
X109023000Y-161020000D02*
X107623000Y-160020000D01*
X109023000Y-159020000D02*
X109023000Y-161020000D01*
X111423000Y-156920000D02*
X104223000Y-156920000D01*
X104223000Y-163120000D02*
X111423000Y-163120000D01*
D14*
X106323000Y-162920000D02*
X106323000Y-157120000D01*
D11*
X94551500Y-145923000D02*
X94551500Y-146177000D01*
X94551500Y-145923000D02*
X94551500Y-145669000D01*
X95440500Y-145923000D02*
X95440500Y-145669000D01*
X95440500Y-145923000D02*
X95440500Y-146177000D01*
X110680500Y-186055000D02*
X110744000Y-186055000D01*
X110680500Y-186055000D02*
X110680500Y-185039000D01*
X110617000Y-186245500D02*
X110617000Y-186118500D01*
X111061500Y-184848500D02*
X111061500Y-185928000D01*
X110109000Y-186245500D02*
X109956600Y-186245500D01*
X107124500Y-184658000D02*
X107442000Y-184658000D01*
X108750100Y-183769000D02*
X107569000Y-183769000D01*
X111125000Y-183832500D02*
X105791000Y-187325000D01*
X107569000Y-183769000D02*
X109347000Y-180213000D01*
X107124500Y-184658000D02*
X107569000Y-183769000D01*
X105791000Y-187325000D02*
X107124500Y-184658000D01*
X112903000Y-187325000D02*
X105791000Y-187325000D01*
X109347000Y-180213000D02*
X112903000Y-187325000D01*
X108966721Y-183705678D02*
G75*
G02X110553500Y-184213500I466639J-1274902D01*
G01*
X108965915Y-183707114D02*
G75*
G02X108750100Y-183769000I-182795J230214D01*
G01*
X107441301Y-184658474D02*
G75*
G02X107950000Y-184848500I64199J-604046D01*
G01*
X108772461Y-185294576D02*
G75*
G02X107950000Y-184848500I147819J1253796D01*
G01*
X109284708Y-185040166D02*
G75*
G02X110236000Y-185801000I-285688J-1332334D01*
G01*
X109346915Y-185484965D02*
G75*
G02X109918500Y-186245500I-284395J-808795D01*
G01*
X108907275Y-185357493D02*
G75*
G02X109347000Y-185483500I-825195J-3709947D01*
G01*
X110235967Y-186118600D02*
G75*
G02X110109000Y-186245500I-190467J63600D01*
G01*
X110235068Y-185801674D02*
G75*
G02X110236000Y-186118500I-316568J-159346D01*
G01*
X110678935Y-185040845D02*
G75*
G02X109982000Y-184594500I153965J1007685D01*
G01*
X110869549Y-184531142D02*
G75*
G02X110553500Y-184213500I478971J792622D01*
G01*
X110872048Y-184532575D02*
G75*
G02X111061500Y-184848500I-168688J-315925D01*
G01*
X111061500Y-185928000D02*
G75*
G02X110680500Y-186309000I-381000J0D01*
G01*
X110678071Y-186311545D02*
G75*
G02X110617000Y-186245500I2429J63505D01*
G01*
X110617000Y-186118500D02*
G75*
G02X110680500Y-186055000I63500J0D01*
G01*
X110744000Y-186055000D02*
G75*
G02X110871000Y-186182000I0J-127000D01*
G01*
X95123000Y-104838500D02*
X95377000Y-104838500D01*
X95123000Y-104838500D02*
X94869000Y-104838500D01*
X95123000Y-103949500D02*
X94869000Y-103949500D01*
X95123000Y-103949500D02*
X95377000Y-103949500D01*
X95123000Y-103822500D02*
X95377000Y-103822500D01*
X95123000Y-103822500D02*
X94869000Y-103822500D01*
X95123000Y-102933500D02*
X94869000Y-102933500D01*
X95123000Y-102933500D02*
X95377000Y-102933500D01*
X95123000Y-104965500D02*
X94869000Y-104965500D01*
X95123000Y-104965500D02*
X95377000Y-104965500D01*
X95123000Y-105854500D02*
X95377000Y-105854500D01*
X95123000Y-105854500D02*
X94869000Y-105854500D01*
X104013000Y-152527000D02*
X105029000Y-152527000D01*
X104013000Y-151003000D02*
X105029000Y-151003000D01*
D15*
X97873820Y-175816260D02*
X97322640Y-174393860D01*
D16*
X98219260Y-175630840D02*
X97901760Y-175836580D01*
D17*
X99009200Y-176179480D02*
X98229420Y-175648620D01*
D18*
X99585780Y-175641000D02*
X99021900Y-176179480D01*
D16*
X99570540Y-175641000D02*
X99037140Y-174807880D01*
X99395280Y-173880780D02*
X99037140Y-174764700D01*
X100373180Y-173639480D02*
X99423220Y-173857920D01*
D18*
X100363020Y-172862240D02*
X100368100Y-173649640D01*
D16*
X100375720Y-172849540D02*
X99357180Y-172669200D01*
X99326700Y-172633640D02*
X98978720Y-171767500D01*
X99555300Y-170865800D02*
X98999040Y-171716700D01*
D18*
X99565460Y-170842940D02*
X99065080Y-170309540D01*
D16*
X99016820Y-170284140D02*
X98188780Y-170936920D01*
X98127820Y-170926760D02*
X97282000Y-170520360D01*
X97022920Y-169486580D02*
X97228660Y-170500040D01*
X97030540Y-169473880D02*
X96245680Y-169473880D01*
X96263460Y-169494200D02*
X96050100Y-170512740D01*
X96050100Y-170512740D02*
X95148400Y-170962320D01*
X95135700Y-170957240D02*
X94231460Y-170322800D01*
X94231460Y-170324780D02*
X93677740Y-170870880D01*
X93677740Y-170873420D02*
X94294960Y-171663360D01*
X94294960Y-171663360D02*
X93954600Y-172600620D01*
X93954600Y-172600620D02*
X92872560Y-172829220D01*
X92872560Y-172829220D02*
X92872560Y-173664880D01*
X92872560Y-173664880D02*
X93886020Y-173835060D01*
X93886020Y-173835060D02*
X94292420Y-174746920D01*
X94241620Y-176194720D02*
X95077280Y-175628300D01*
X95077280Y-175628300D02*
X95415100Y-175813720D01*
X95415100Y-175813720D02*
X95989140Y-174373540D01*
X94292420Y-174746920D02*
X93672660Y-175633380D01*
X94226380Y-176187100D02*
X93672660Y-175641000D01*
D19*
X97792540Y-175996600D02*
X97142300Y-174327820D01*
X98176080Y-175793400D02*
X97830640Y-176014380D01*
X98188780Y-175783240D02*
X99014280Y-176347120D01*
X99021900Y-176354740D02*
X99743260Y-175661320D01*
X99750880Y-175658780D02*
X99153980Y-174795180D01*
X100512880Y-173751240D02*
X99441000Y-173946820D01*
X100512880Y-172758100D02*
X100512880Y-173743620D01*
X100515420Y-172755560D02*
X99344480Y-172552360D01*
X99446080Y-172557440D02*
X99110800Y-171724320D01*
X99707700Y-170873420D02*
X99113340Y-171726860D01*
X99728020Y-170837860D02*
X99054920Y-170124120D01*
X99042220Y-170121580D02*
X98071940Y-170837860D01*
X98107500Y-170769280D02*
X97203260Y-170390820D01*
X97119440Y-169374820D02*
X97320100Y-170400980D01*
X97109280Y-169367200D02*
X96144080Y-169367200D01*
X96144080Y-169367200D02*
X95918020Y-170538140D01*
X95928180Y-170456860D02*
X95123000Y-170794680D01*
X95242380Y-170842940D02*
X94231460Y-170169840D01*
X94226380Y-170167300D02*
X93532960Y-170858180D01*
X93527880Y-170865800D02*
X94231460Y-171856400D01*
X94142560Y-171747180D02*
X93776800Y-172615860D01*
X92839540Y-173517560D02*
X93946980Y-173741080D01*
X92755720Y-172775880D02*
X92758260Y-173733460D01*
X93893640Y-173964600D02*
X92770960Y-173753780D01*
X93789500Y-173931580D02*
X94170500Y-174912020D01*
X93822520Y-175567340D02*
X94307660Y-176098200D01*
X94218760Y-176342040D02*
X93535500Y-175651160D01*
X95105220Y-175727360D02*
X94228920Y-176347120D01*
X94241620Y-176032160D02*
X95062040Y-175503840D01*
X94924880Y-175699420D02*
X95453200Y-176027080D01*
X95453200Y-176027080D02*
X95839280Y-175046640D01*
X95844360Y-174348140D02*
X95316040Y-175729900D01*
X100220780Y-172946060D02*
X100220780Y-173596300D01*
X100363020Y-173001940D02*
X99247960Y-172755560D01*
X98833940Y-171734480D02*
X99220020Y-172732700D01*
X98828860Y-171739560D02*
X99430840Y-170830240D01*
X99072700Y-170385740D02*
X98188780Y-171107100D01*
X95801180Y-174406560D02*
X95623380Y-174284640D01*
X95623380Y-174284640D02*
X95247460Y-173573440D01*
X95247460Y-173573440D02*
X95247460Y-173055280D01*
X95242380Y-173067980D02*
X95476060Y-172394880D01*
X95476060Y-172394880D02*
X95986600Y-171965620D01*
X95986600Y-171965620D02*
X96801940Y-171805600D01*
X96801940Y-171797980D02*
X97673160Y-172227240D01*
X97673160Y-172227240D02*
X98092260Y-172958760D01*
X98097340Y-172963840D02*
X97965260Y-173786800D01*
X97960180Y-173817280D02*
X97866200Y-173987460D01*
X97960180Y-173817280D02*
X97866200Y-173987460D01*
X97736660Y-174038260D02*
X97477580Y-174376080D01*
X97368360Y-174152560D02*
X97142300Y-174327820D01*
X95867220Y-174155100D02*
X96121220Y-174320200D01*
X96004380Y-174609760D02*
X96126300Y-174325280D01*
X98183700Y-171104560D02*
X97200720Y-170611800D01*
X97853500Y-174017940D02*
X97546160Y-174284640D01*
D20*
X98869500Y-175447960D02*
X98016060Y-174426880D01*
X99905820Y-173243240D02*
X98488500Y-173182280D01*
X98920300Y-170957240D02*
X97858580Y-172064680D01*
X96659700Y-169981880D02*
X96654620Y-171495720D01*
X94394020Y-171038520D02*
X95506540Y-172105320D01*
X93403420Y-173222920D02*
X94871540Y-173309280D01*
X98193860Y-175275240D02*
X97828100Y-174513240D01*
X98859340Y-174376080D02*
X98295460Y-173896020D01*
X99108260Y-173730920D02*
X98402140Y-173603920D01*
X98783140Y-172486320D02*
X98341180Y-172646340D01*
X98607880Y-172006260D02*
X98150680Y-172295820D01*
X97609660Y-171229020D02*
X97434400Y-171587160D01*
X97175320Y-170969940D02*
X97007680Y-171579540D01*
X95910400Y-170985180D02*
X96131380Y-171670980D01*
X95323660Y-171236640D02*
X95742760Y-171823380D01*
X94454980Y-172105320D02*
X95110300Y-172471080D01*
X94213680Y-172798740D02*
X94935040Y-172946060D01*
X95049340Y-173956980D02*
X94439740Y-174063660D01*
X95369380Y-174376080D02*
X94752160Y-174703740D01*
X95483680Y-174513240D02*
X94302580Y-175526700D01*
X95483680Y-174421800D02*
X95150940Y-175153320D01*
D16*
X97548700Y-172349160D02*
G75*
G02X97472500Y-174203360I-965200J-889000D01*
G01*
X95597980Y-172521880D02*
G75*
G02X97523300Y-172323760I1061720J-863600D01*
G01*
X95978980Y-174371000D02*
G75*
G02X95608140Y-172506640I746760J1117600D01*
G01*
D11*
X113855500Y-143256000D02*
X113855500Y-143510000D01*
X113855500Y-143256000D02*
X113855500Y-143002000D01*
X114744500Y-143256000D02*
X114744500Y-143002000D01*
X114744500Y-143256000D02*
X114744500Y-143510000D01*
X113792000Y-145288000D02*
X113792000Y-144272000D01*
X112268000Y-145288000D02*
X112268000Y-144272000D01*
D17*
X113735747Y-97663000D02*
G75*
G03X113735747Y-97663000I-337447J0D01*
G01*
D21*
X113411000Y-96888300D02*
X112903000Y-96380300D01*
X111810800Y-96304100D02*
X111175800Y-96913700D01*
X111201200Y-98869500D02*
X111760000Y-99453700D01*
X109575600Y-99466400D02*
X110032800Y-99009200D01*
X108589800Y-99466400D02*
X109575600Y-99466400D01*
D17*
X108443324Y-99441000D02*
G75*
G03X108443324Y-99441000I-366324J0D01*
G01*
D21*
X108077000Y-96748600D02*
X108077000Y-98348800D01*
D17*
X108437818Y-96215200D02*
G75*
G03X108437818Y-96215200I-373518J0D01*
G01*
X107204759Y-99415600D02*
G75*
G03X107204759Y-99415600I-359659J0D01*
G01*
D21*
X106857800Y-98907600D02*
X106857800Y-96316800D01*
X106857800Y-96316800D02*
X106019600Y-96316800D01*
X106019600Y-96316800D02*
X105410000Y-96824800D01*
X105308400Y-97612200D02*
X105308400Y-96901000D01*
X105232200Y-96824800D02*
X104597200Y-96316800D01*
D17*
X105679318Y-98145600D02*
G75*
G03X105679318Y-98145600I-370918J0D01*
G01*
D21*
X104597200Y-96316800D02*
X103708200Y-96316800D01*
D17*
X104058729Y-99428300D02*
G75*
G03X104058729Y-99428300I-363229J0D01*
G01*
X98195666Y-99517200D02*
G75*
G03X98195666Y-99517200I-329466J0D01*
G01*
D21*
X98196400Y-99161600D02*
X99034600Y-98348800D01*
D22*
X99542600Y-98247200D02*
X99009200Y-98247200D01*
D21*
X100685600Y-99466400D02*
X99542600Y-98348800D01*
X102006400Y-99466400D02*
X100685600Y-99466400D01*
X102438200Y-99034600D02*
X102006400Y-99466400D01*
X102438200Y-96799400D02*
X102438200Y-99034600D01*
X102438200Y-96774000D02*
X101955600Y-96266000D01*
X101907500Y-96291400D02*
X100685600Y-96291400D01*
X100685600Y-96291400D02*
X99593400Y-97358200D01*
D22*
X99568000Y-97472500D02*
X99009200Y-97472500D01*
D21*
X98145600Y-96481900D02*
X99009200Y-97375600D01*
D17*
X98136735Y-96126300D02*
G75*
G03X98136735Y-96126300I-359435J0D01*
G01*
D21*
X101219000Y-97866200D02*
X102438200Y-97866200D01*
D17*
X101070659Y-97866200D02*
G75*
G03X101070659Y-97866200I-359659J0D01*
G01*
D21*
X112839500Y-99479100D02*
X111798100Y-99479100D01*
X113398300Y-98920300D02*
X113398300Y-98158300D01*
X113411000Y-98907600D02*
X112826800Y-99479100D01*
X113411000Y-96939100D02*
X113411000Y-97180400D01*
X111188500Y-96901000D02*
X111188500Y-98831400D01*
X111810800Y-96291400D02*
X112814100Y-96291400D01*
X103695500Y-96304100D02*
X103695500Y-98907600D01*
X110032800Y-99021900D02*
X110032800Y-96291400D01*
D23*
X110032800Y-95948500D02*
X110312200Y-95948500D01*
X110337600Y-95948500D02*
X110337600Y-99098100D01*
X110324900Y-95948500D02*
X110337600Y-95948500D01*
X110312200Y-95948500D02*
X110324900Y-95948500D01*
X110197900Y-96037400D02*
X110261400Y-96024700D01*
X109715300Y-95948500D02*
X109715300Y-98983800D01*
X110020100Y-95948500D02*
X109715300Y-95948500D01*
X109893100Y-96024700D02*
X109778800Y-96024700D01*
X108394500Y-96634300D02*
X108394500Y-98653600D01*
X107759500Y-98653600D02*
X107759500Y-96634300D01*
X107784900Y-98653600D02*
X107759500Y-98653600D01*
X108394500Y-98653600D02*
X107784900Y-98653600D01*
X108254800Y-98590100D02*
X108318300Y-98590100D01*
X107911900Y-98590100D02*
X107823000Y-98590100D01*
X107175300Y-98996500D02*
X107175300Y-96012000D01*
X105930700Y-95999300D02*
X105346500Y-96481900D01*
X107175300Y-95999300D02*
X105930700Y-95999300D01*
X107022900Y-96062800D02*
X107099100Y-96062800D01*
X103365300Y-99021900D02*
X103365300Y-96012000D01*
X104686100Y-95999300D02*
X105308400Y-96494600D01*
X104660700Y-95999300D02*
X104686100Y-95999300D01*
X103365300Y-95999300D02*
X104660700Y-95999300D01*
X103365300Y-96012000D02*
X103365300Y-95999300D01*
X103517700Y-96075500D02*
X103416100Y-96075500D01*
X100571300Y-95961200D02*
X99314000Y-97205800D01*
X100622100Y-95961200D02*
X100571300Y-95961200D01*
X101993700Y-95961200D02*
X100622100Y-95961200D01*
D19*
X112855000Y-113107000D02*
X112855000Y-113869000D01*
X117427000Y-113107000D02*
X112855000Y-113107000D01*
X117427000Y-113869000D02*
X117427000Y-113107000D01*
X112855000Y-113869000D02*
X117427000Y-113869000D01*
X112905800Y-113157800D02*
X117325400Y-113157800D01*
X117376200Y-113259400D02*
X112905800Y-113259400D01*
X112905800Y-113411800D02*
X117325400Y-113411800D01*
X112905800Y-113564200D02*
X117325400Y-113564200D01*
X117376200Y-113310200D02*
X112956600Y-113310200D01*
X117376200Y-113462600D02*
X112905800Y-113462600D01*
X112956600Y-113665800D02*
X117325400Y-113665800D01*
X117376200Y-113767400D02*
X112956600Y-113767400D01*
D11*
X117221000Y-108331000D02*
X113030000Y-112522000D01*
X117094000Y-112395000D02*
X113030000Y-108458000D01*
X116078000Y-112014000D02*
X114681000Y-112014000D01*
X116078000Y-112014000D02*
X116332000Y-108966000D01*
X116586000Y-108839000D02*
X113665000Y-108839000D01*
X115570000Y-112395000D02*
X115570000Y-112141000D01*
X116078000Y-112395000D02*
X115570000Y-112395000D01*
X116078000Y-112014000D02*
X116078000Y-112395000D01*
X114173000Y-111506000D02*
X114046000Y-109474000D01*
X114574609Y-112014000D02*
G75*
G03X114574609Y-112014000I-401609J0D01*
G01*
X115951000Y-108204000D02*
X115951000Y-108712000D01*
X116078000Y-108204000D02*
X115951000Y-108204000D01*
X116078000Y-108712000D02*
X116078000Y-108204000D01*
X113665000Y-109347000D02*
X113665000Y-108839000D01*
X114046000Y-109347000D02*
X113665000Y-109347000D01*
X114046000Y-108839000D02*
X114046000Y-109347000D01*
X113919000Y-108966000D02*
X113919000Y-109093000D01*
X113919000Y-108839000D02*
X113792000Y-109220000D01*
X113919000Y-108966000D02*
X113919000Y-109093000D01*
X113792000Y-108966000D02*
X113792000Y-109347000D01*
X113919000Y-108966000D02*
X113792000Y-108966000D01*
X113919000Y-109347000D02*
X113919000Y-108966000D01*
X115316000Y-109728000D02*
X115316000Y-109347000D01*
X114427000Y-109728000D02*
X115316000Y-109728000D01*
X114427000Y-109347000D02*
X114427000Y-109728000D01*
X115316000Y-109347000D02*
X114427000Y-109347000D01*
X115189000Y-109474000D02*
X114554000Y-109474000D01*
X114935000Y-107950000D02*
X115316000Y-107950000D01*
X114935000Y-108077000D02*
X114935000Y-107950000D01*
X115316000Y-108077000D02*
X114935000Y-108077000D01*
X115316000Y-107950000D02*
X115316000Y-108077000D01*
D24*
X114300000Y-112014000D02*
G75*
G03X114300000Y-112014000I-127000J0D01*
G01*
D11*
X114046000Y-108712000D02*
G75*
G02X116332000Y-108712000I1143000J-1143000D01*
G01*
X113359037Y-104708960D02*
G75*
G03X113359037Y-104708960I-1802237J0D01*
G01*
D25*
X110396020Y-105872280D02*
X112829340Y-103451660D01*
D11*
X102743000Y-117729000D02*
X101727000Y-117729000D01*
X102743000Y-115697000D02*
X101727000Y-115697000D01*
X105664000Y-131889500D02*
X105410000Y-131889500D01*
X105664000Y-131889500D02*
X105918000Y-131889500D01*
X105664000Y-132778500D02*
X105918000Y-132778500D01*
X105664000Y-132778500D02*
X105410000Y-132778500D01*
X100076000Y-136334500D02*
X100330000Y-136334500D01*
X100076000Y-136334500D02*
X99822000Y-136334500D01*
X100076000Y-135445500D02*
X99822000Y-135445500D01*
X100076000Y-135445500D02*
X100330000Y-135445500D01*
X100965000Y-138747500D02*
X101219000Y-138747500D01*
X100965000Y-138747500D02*
X100711000Y-138747500D01*
X100965000Y-139636500D02*
X100711000Y-139636500D01*
X100965000Y-139636500D02*
X101219000Y-139636500D01*
X108839000Y-140525500D02*
X108585000Y-140525500D01*
X108839000Y-140525500D02*
X109093000Y-140525500D01*
X108839000Y-141414500D02*
X109093000Y-141414500D01*
X108839000Y-141414500D02*
X108585000Y-141414500D01*
X93599000Y-112712500D02*
X93345000Y-112712500D01*
X93599000Y-112712500D02*
X93853000Y-112712500D01*
X93599000Y-113601500D02*
X93853000Y-113601500D01*
X93599000Y-113601500D02*
X93345000Y-113601500D01*
X95440500Y-110744000D02*
X95440500Y-110998000D01*
X95440500Y-110744000D02*
X95440500Y-110490000D01*
X94551500Y-110744000D02*
X94551500Y-110490000D01*
X94551500Y-110744000D02*
X94551500Y-110998000D01*
X103886000Y-126174500D02*
X103632000Y-126174500D01*
X103886000Y-126174500D02*
X104140000Y-126174500D01*
X103886000Y-127063500D02*
X104140000Y-127063500D01*
X103886000Y-127063500D02*
X103632000Y-127063500D01*
X103886000Y-124396500D02*
X103632000Y-124396500D01*
X103886000Y-124396500D02*
X104140000Y-124396500D01*
X103886000Y-125285500D02*
X104140000Y-125285500D01*
X103886000Y-125285500D02*
X103632000Y-125285500D01*
X103886000Y-120332500D02*
X103632000Y-120332500D01*
X103886000Y-120332500D02*
X104140000Y-120332500D01*
X103886000Y-121221500D02*
X104140000Y-121221500D01*
X103886000Y-121221500D02*
X103632000Y-121221500D01*
X103886000Y-125285500D02*
X103632000Y-125285500D01*
X103886000Y-125285500D02*
X104140000Y-125285500D01*
X103886000Y-126174500D02*
X104140000Y-126174500D01*
X103886000Y-126174500D02*
X103632000Y-126174500D01*
X100965000Y-140525500D02*
X101219000Y-140525500D01*
X100965000Y-140525500D02*
X100711000Y-140525500D01*
X100965000Y-139636500D02*
X100711000Y-139636500D01*
X100965000Y-139636500D02*
X101219000Y-139636500D01*
X111061500Y-136017000D02*
X111061500Y-135763000D01*
X111061500Y-136017000D02*
X111061500Y-136271000D01*
X110172500Y-136017000D02*
X110172500Y-136271000D01*
X110172500Y-136017000D02*
X110172500Y-135763000D01*
X104965500Y-141986000D02*
X104965500Y-142240000D01*
X104965500Y-141986000D02*
X104965500Y-141732000D01*
X105854500Y-141986000D02*
X105854500Y-141732000D01*
X105854500Y-141986000D02*
X105854500Y-142240000D01*
X107124500Y-141986000D02*
X107124500Y-142240000D01*
X107124500Y-141986000D02*
X107124500Y-141732000D01*
X106235500Y-141986000D02*
X106235500Y-141732000D01*
X106235500Y-141986000D02*
X106235500Y-142240000D01*
X103568500Y-141986000D02*
X103568500Y-142240000D01*
X103568500Y-141986000D02*
X103568500Y-141732000D01*
X102679500Y-141986000D02*
X102679500Y-141732000D01*
X102679500Y-141986000D02*
X102679500Y-142240000D01*
X104838500Y-141986000D02*
X104838500Y-142240000D01*
X104838500Y-141986000D02*
X104838500Y-141732000D01*
X103949500Y-141986000D02*
X103949500Y-141732000D01*
X103949500Y-141986000D02*
X103949500Y-142240000D01*
X114744500Y-145415000D02*
X114744500Y-145669000D01*
X114744500Y-145415000D02*
X114744500Y-145161000D01*
X113855500Y-145415000D02*
X113855500Y-145161000D01*
X113855500Y-145415000D02*
X113855500Y-145669000D01*
X104521000Y-150050500D02*
X104267000Y-150050500D01*
X104521000Y-150050500D02*
X104775000Y-150050500D01*
X104521000Y-150939500D02*
X104775000Y-150939500D01*
X104521000Y-150939500D02*
X104267000Y-150939500D01*
X97155000Y-116649500D02*
X97409000Y-116649500D01*
X97155000Y-116649500D02*
X96901000Y-116649500D01*
X97155000Y-115760500D02*
X96901000Y-115760500D01*
X97155000Y-115760500D02*
X97409000Y-115760500D01*
X109601000Y-146202400D02*
X109601000Y-145491200D01*
X110439200Y-146202400D02*
X109601000Y-146202400D01*
X110439200Y-143357600D02*
X109601000Y-143357600D01*
X109601000Y-144068800D02*
X109601000Y-143357600D01*
X118110000Y-145064000D02*
X117856000Y-144810000D01*
X115824000Y-144810000D02*
X115570000Y-145064000D01*
X115570000Y-145064000D02*
X115570000Y-147096000D01*
X118110000Y-147096000D02*
X118110000Y-145064000D01*
X117856000Y-147350000D02*
X118110000Y-147096000D01*
X115570000Y-147096000D02*
X115824000Y-147350000D01*
X115570000Y-144556000D02*
X115824000Y-144810000D01*
X118110000Y-145064000D02*
X117856000Y-144810000D01*
X117856000Y-144810000D02*
X118110000Y-144556000D01*
X118110000Y-147096000D02*
X118110000Y-145064000D01*
X115824000Y-144810000D02*
X115570000Y-145064000D01*
X115570000Y-145064000D02*
X115570000Y-147096000D01*
X115824000Y-147350000D02*
X117856000Y-147350000D01*
X117856000Y-147350000D02*
X118110000Y-147096000D01*
X118110000Y-144556000D02*
X118110000Y-142524000D01*
X115570000Y-147096000D02*
X115824000Y-147350000D01*
X115570000Y-142524000D02*
X115570000Y-144556000D01*
X115824000Y-142270000D02*
X115570000Y-142524000D01*
X118110000Y-142524000D02*
X117856000Y-142270000D01*
X118110000Y-137444000D02*
X117856000Y-137190000D01*
X115824000Y-137190000D02*
X115570000Y-137444000D01*
X115570000Y-137444000D02*
X115570000Y-139476000D01*
X115570000Y-142016000D02*
X115824000Y-142270000D01*
X118110000Y-139476000D02*
X118110000Y-137444000D01*
X117856000Y-142270000D02*
X118110000Y-142016000D01*
X115570000Y-139984000D02*
X115570000Y-142016000D01*
X115824000Y-139730000D02*
X115570000Y-139984000D01*
X118110000Y-142016000D02*
X118110000Y-139984000D01*
X117856000Y-139730000D02*
X118110000Y-139476000D01*
X118110000Y-139984000D02*
X117856000Y-139730000D01*
X115570000Y-139476000D02*
X115824000Y-139730000D01*
X115570000Y-142016000D02*
X115824000Y-142270000D01*
X117856000Y-142270000D02*
X118110000Y-142016000D01*
X118110000Y-142016000D02*
X118110000Y-139984000D01*
X115570000Y-139984000D02*
X115570000Y-142016000D01*
X115824000Y-139730000D02*
X115570000Y-139984000D01*
X118110000Y-139984000D02*
X117856000Y-139730000D01*
X118110000Y-134904000D02*
X117856000Y-134650000D01*
X115824000Y-134650000D02*
X115570000Y-134904000D01*
X115570000Y-134904000D02*
X115570000Y-136936000D01*
X118110000Y-136936000D02*
X118110000Y-134904000D01*
X117856000Y-137190000D02*
X118110000Y-136936000D01*
X115570000Y-136936000D02*
X115824000Y-137190000D01*
X115570000Y-134396000D02*
X115824000Y-134650000D01*
X118110000Y-134904000D02*
X117856000Y-134650000D01*
X117856000Y-134650000D02*
X118110000Y-134396000D01*
X118110000Y-136936000D02*
X118110000Y-134904000D01*
X115824000Y-134650000D02*
X115570000Y-134904000D01*
X115570000Y-134904000D02*
X115570000Y-136936000D01*
X117856000Y-137190000D02*
X118110000Y-136936000D01*
X118110000Y-129824000D02*
X117856000Y-129570000D01*
X118110000Y-134396000D02*
X118110000Y-132364000D01*
X115570000Y-136936000D02*
X115824000Y-137190000D01*
X115570000Y-132364000D02*
X115570000Y-134396000D01*
X115824000Y-132110000D02*
X115570000Y-132364000D01*
X115570000Y-121950000D02*
X115570000Y-122204000D01*
X115570000Y-122204000D02*
X115570000Y-124236000D01*
X115570000Y-124236000D02*
X115824000Y-124490000D01*
X115824000Y-124490000D02*
X115570000Y-124744000D01*
X115570000Y-124744000D02*
X115570000Y-126776000D01*
X115570000Y-126776000D02*
X115824000Y-127030000D01*
X115824000Y-127030000D02*
X115570000Y-127284000D01*
X115570000Y-127284000D02*
X115570000Y-129316000D01*
X115570000Y-129316000D02*
X115824000Y-129570000D01*
X115824000Y-129570000D02*
X115570000Y-129824000D01*
X115570000Y-129824000D02*
X115570000Y-131856000D01*
X115570000Y-131856000D02*
X115824000Y-132110000D01*
X117856000Y-132110000D02*
X118110000Y-131856000D01*
X118110000Y-131856000D02*
X118110000Y-129824000D01*
X118110000Y-132364000D02*
X117856000Y-132110000D01*
X117856000Y-129570000D02*
X118110000Y-129316000D01*
X118110000Y-129316000D02*
X118110000Y-127284000D01*
X115824000Y-121950000D02*
X115570000Y-122204000D01*
X118110000Y-122204000D02*
X117856000Y-121950000D01*
X118110000Y-122458000D02*
X118110000Y-121950000D01*
X118110000Y-126776000D02*
X118110000Y-124744000D01*
X118110000Y-124744000D02*
X117856000Y-124490000D01*
X117856000Y-124490000D02*
X118110000Y-124236000D01*
X118110000Y-124236000D02*
X118110000Y-122458000D01*
X118110000Y-126776000D02*
X117856000Y-127030000D01*
X117856000Y-127030000D02*
X118110000Y-127284000D01*
X115570000Y-121950000D02*
X118110000Y-121950000D01*
X90170000Y-121950000D02*
X92710000Y-121950000D01*
X92456000Y-127030000D02*
X92710000Y-127284000D01*
X92710000Y-126776000D02*
X92456000Y-127030000D01*
X92710000Y-124236000D02*
X92710000Y-122458000D01*
X92456000Y-124490000D02*
X92710000Y-124236000D01*
X92710000Y-124744000D02*
X92456000Y-124490000D01*
X92710000Y-126776000D02*
X92710000Y-124744000D01*
X92710000Y-122458000D02*
X92710000Y-121950000D01*
X92710000Y-122204000D02*
X92456000Y-121950000D01*
X90424000Y-121950000D02*
X90170000Y-122204000D01*
X92710000Y-129316000D02*
X92710000Y-127284000D01*
X92456000Y-129570000D02*
X92710000Y-129316000D01*
X92710000Y-132364000D02*
X92456000Y-132110000D01*
X92710000Y-131856000D02*
X92710000Y-129824000D01*
X92456000Y-132110000D02*
X92710000Y-131856000D01*
X90170000Y-131856000D02*
X90424000Y-132110000D01*
X90170000Y-129824000D02*
X90170000Y-131856000D01*
X90424000Y-129570000D02*
X90170000Y-129824000D01*
X90170000Y-129316000D02*
X90424000Y-129570000D01*
X90170000Y-127284000D02*
X90170000Y-129316000D01*
X90424000Y-127030000D02*
X90170000Y-127284000D01*
X90170000Y-126776000D02*
X90424000Y-127030000D01*
X90170000Y-124744000D02*
X90170000Y-126776000D01*
X90424000Y-124490000D02*
X90170000Y-124744000D01*
X90170000Y-124236000D02*
X90424000Y-124490000D01*
X90170000Y-122204000D02*
X90170000Y-124236000D01*
X90170000Y-121950000D02*
X90170000Y-122204000D01*
X90424000Y-132110000D02*
X90170000Y-132364000D01*
X90170000Y-132364000D02*
X90170000Y-134396000D01*
X90170000Y-136936000D02*
X90424000Y-137190000D01*
X92710000Y-134396000D02*
X92710000Y-132364000D01*
X92710000Y-129824000D02*
X92456000Y-129570000D01*
X92456000Y-137190000D02*
X92710000Y-136936000D01*
X90170000Y-134904000D02*
X90170000Y-136936000D01*
X90424000Y-134650000D02*
X90170000Y-134904000D01*
X92710000Y-136936000D02*
X92710000Y-134904000D01*
X92456000Y-134650000D02*
X92710000Y-134396000D01*
X92710000Y-134904000D02*
X92456000Y-134650000D01*
X90170000Y-134396000D02*
X90424000Y-134650000D01*
X90170000Y-136936000D02*
X90424000Y-137190000D01*
X92456000Y-137190000D02*
X92710000Y-136936000D01*
X92710000Y-136936000D02*
X92710000Y-134904000D01*
X90170000Y-134904000D02*
X90170000Y-136936000D01*
X90424000Y-134650000D02*
X90170000Y-134904000D01*
X92710000Y-134904000D02*
X92456000Y-134650000D01*
X92710000Y-139984000D02*
X92456000Y-139730000D01*
X90424000Y-139730000D02*
X90170000Y-139984000D01*
X90170000Y-139984000D02*
X90170000Y-142016000D01*
X92710000Y-142016000D02*
X92710000Y-139984000D01*
X92456000Y-142270000D02*
X92710000Y-142016000D01*
X90170000Y-142016000D02*
X90424000Y-142270000D01*
X90170000Y-139476000D02*
X90424000Y-139730000D01*
X92710000Y-139984000D02*
X92456000Y-139730000D01*
X92456000Y-139730000D02*
X92710000Y-139476000D01*
X92710000Y-142016000D02*
X92710000Y-139984000D01*
X90424000Y-139730000D02*
X90170000Y-139984000D01*
X90170000Y-139984000D02*
X90170000Y-142016000D01*
X92456000Y-142270000D02*
X92710000Y-142016000D01*
X92710000Y-139476000D02*
X92710000Y-137444000D01*
X90170000Y-142016000D02*
X90424000Y-142270000D01*
X90170000Y-137444000D02*
X90170000Y-139476000D01*
X90424000Y-137190000D02*
X90170000Y-137444000D01*
X92710000Y-137444000D02*
X92456000Y-137190000D01*
X92710000Y-142524000D02*
X92456000Y-142270000D01*
X90424000Y-142270000D02*
X90170000Y-142524000D01*
X90170000Y-142524000D02*
X90170000Y-144556000D01*
X90170000Y-147096000D02*
X90424000Y-147350000D01*
X92710000Y-144556000D02*
X92710000Y-142524000D01*
X92456000Y-147350000D02*
X92710000Y-147096000D01*
X90424000Y-147350000D02*
X92456000Y-147350000D01*
X90170000Y-145064000D02*
X90170000Y-147096000D01*
X90424000Y-144810000D02*
X90170000Y-145064000D01*
X92710000Y-147096000D02*
X92710000Y-145064000D01*
X92456000Y-144810000D02*
X92710000Y-144556000D01*
X92710000Y-145064000D02*
X92456000Y-144810000D01*
X90170000Y-144556000D02*
X90424000Y-144810000D01*
X90170000Y-147096000D02*
X90424000Y-147350000D01*
X92456000Y-147350000D02*
X92710000Y-147096000D01*
X92710000Y-147096000D02*
X92710000Y-145064000D01*
X90170000Y-145064000D02*
X90170000Y-147096000D01*
X90424000Y-144810000D02*
X90170000Y-145064000D01*
X92710000Y-145064000D02*
X92456000Y-144810000D01*
X97256600Y-117094000D02*
X97967800Y-117094000D01*
X97256600Y-117932200D02*
X97256600Y-117094000D01*
X100101400Y-117932200D02*
X100101400Y-117094000D01*
X99390200Y-117094000D02*
X100101400Y-117094000D01*
D24*
X101803200Y-119507000D02*
X102641400Y-119507000D01*
X101803200Y-117729000D02*
X102641400Y-117729000D01*
D11*
X115697000Y-176022000D02*
X115697000Y-174498000D01*
X117983000Y-176022000D02*
X117983000Y-174498000D01*
X98515000Y-111312000D02*
X98515000Y-113812000D01*
X109765000Y-111312000D02*
X109765000Y-113812000D01*
X100140000Y-115387000D02*
X108140000Y-115387000D01*
X98515000Y-109387000D02*
X109765000Y-109387000D01*
X104340000Y-109687000D02*
X104340000Y-110587000D01*
X104340000Y-110587000D02*
X102440000Y-110587000D01*
X102440000Y-110587000D02*
X102440000Y-111987000D01*
X102440000Y-111987000D02*
X104040000Y-111987000D01*
X104040000Y-111987000D02*
X105140000Y-112587000D01*
X105240000Y-111987000D02*
X106940000Y-111987000D01*
X106940000Y-111987000D02*
X106940000Y-110587000D01*
X106940000Y-110587000D02*
X105040000Y-110587000D01*
X105040000Y-110587000D02*
X105040000Y-109687000D01*
X105040000Y-109687000D02*
X105040000Y-109687000D01*
D24*
X104740000Y-111787000D02*
X104840000Y-111887000D01*
X104740000Y-111787000D02*
X104640000Y-111887000D01*
X104388528Y-112635528D02*
G75*
G03X104740000Y-111787000I-848528J848528D01*
G01*
D11*
X109347000Y-133096000D02*
X109347000Y-134112000D01*
X110871000Y-133096000D02*
X110871000Y-134112000D01*
X100584000Y-133858000D02*
X99568000Y-133858000D01*
X100584000Y-135382000D02*
X99568000Y-135382000D01*
X108204000Y-144272000D02*
X108204000Y-145288000D01*
X106680000Y-144272000D02*
X106680000Y-145288000D01*
X109855000Y-140462000D02*
X109855000Y-139446000D01*
X111379000Y-140462000D02*
X111379000Y-139446000D01*
X103670100Y-130886200D02*
X103670100Y-127939800D01*
X103682800Y-130886200D02*
X103860600Y-130886200D01*
X103657400Y-127939800D02*
X103873300Y-127939800D01*
X107480100Y-130886200D02*
X107670600Y-130886200D01*
X107670600Y-130886200D02*
X107670600Y-127939800D01*
X107670600Y-127939800D02*
X107454700Y-127939800D01*
X100035360Y-123408440D02*
X99324160Y-123408440D01*
X100035360Y-122570240D02*
X100035360Y-123408440D01*
X97190560Y-122570240D02*
X97190560Y-123408440D01*
X97901760Y-123408440D02*
X97190560Y-123408440D01*
D24*
X109524800Y-141478000D02*
X108686600Y-141478000D01*
X109524800Y-143256000D02*
X108686600Y-143256000D01*
D11*
X98171000Y-103949500D02*
X97917000Y-103949500D01*
X98171000Y-103949500D02*
X98425000Y-103949500D01*
X98171000Y-104838500D02*
X98425000Y-104838500D01*
X98171000Y-104838500D02*
X97917000Y-104838500D01*
X104165400Y-121615200D02*
X104165400Y-123520200D01*
X102793800Y-121615200D02*
X102793800Y-123520200D01*
X102793800Y-122529600D02*
X104165400Y-123520200D01*
X104165400Y-121615200D02*
X102793800Y-122529600D01*
X104749600Y-122567700D02*
X102273100Y-122567700D01*
X100698300Y-123545600D02*
X101993700Y-123545600D01*
X100711000Y-121539000D02*
X102006400Y-121539000D01*
X100685600Y-123545600D02*
X100685600Y-121551700D01*
X106337100Y-123558300D02*
X104965500Y-123558300D01*
X106337100Y-121539000D02*
X104965500Y-121539000D01*
X106337100Y-123558300D02*
X106337100Y-121539000D01*
X106553000Y-121221500D02*
X106807000Y-121221500D01*
X106553000Y-121221500D02*
X106299000Y-121221500D01*
X106553000Y-120332500D02*
X106299000Y-120332500D01*
X106553000Y-120332500D02*
X106807000Y-120332500D01*
D25*
X102687873Y-139804140D02*
G75*
G03X102687873Y-139804140I-176013J0D01*
G01*
D11*
X103311960Y-139405360D02*
X103085900Y-139405360D01*
X107909360Y-139405360D02*
X107508040Y-139405360D01*
X107909360Y-139004040D02*
X107909360Y-139405360D01*
X107909360Y-134406640D02*
X107909360Y-134807960D01*
X107508040Y-134406640D02*
X107909360Y-134406640D01*
X102910640Y-134406640D02*
X103311960Y-134406640D01*
X102910640Y-134807960D02*
X102910640Y-134406640D01*
X102910640Y-139230100D02*
X102910640Y-139004040D01*
X103085900Y-139405360D02*
X102910640Y-139230100D01*
X99568000Y-119824500D02*
X99822000Y-119824500D01*
X99568000Y-119824500D02*
X99314000Y-119824500D01*
X99568000Y-120713500D02*
X99314000Y-120713500D01*
X99568000Y-120713500D02*
X99822000Y-120713500D01*
X97790000Y-119824500D02*
X98044000Y-119824500D01*
X97790000Y-119824500D02*
X97536000Y-119824500D01*
X97790000Y-120713500D02*
X97536000Y-120713500D01*
X97790000Y-120713500D02*
X98044000Y-120713500D01*
X93573600Y-116154200D02*
X93573600Y-115747800D01*
X94894400Y-114528600D02*
X94107000Y-114528600D01*
X94894400Y-115189000D02*
X94894400Y-114528600D01*
X94894400Y-117373400D02*
X94894400Y-116713000D01*
X94107000Y-117373400D02*
X94894400Y-117373400D01*
X112318800Y-140970000D02*
X111607600Y-140970000D01*
X111607600Y-140131800D02*
X111607600Y-140970000D01*
X114452400Y-140131800D02*
X114452400Y-140970000D01*
X114452400Y-140970000D02*
X113741200Y-140970000D01*
X108305600Y-116509800D02*
X108089700Y-116509800D01*
X108305600Y-119456200D02*
X108305600Y-116509800D01*
X108115100Y-119456200D02*
X108305600Y-119456200D01*
X104292400Y-116509800D02*
X104508300Y-116509800D01*
X104317800Y-119456200D02*
X104495600Y-119456200D01*
X104305100Y-119456200D02*
X104305100Y-116509800D01*
X101549200Y-133311900D02*
X98602800Y-133311900D01*
X101549200Y-133299200D02*
X101549200Y-133121400D01*
X98602800Y-133324600D02*
X98602800Y-133108700D01*
X101549200Y-129501900D02*
X101549200Y-129311400D01*
X101549200Y-129311400D02*
X98602800Y-129311400D01*
X98602800Y-129311400D02*
X98602800Y-129527300D01*
D17*
X98630000Y-144333000D02*
X95630000Y-144333000D01*
D11*
X98757740Y-145882360D02*
X98757740Y-140883640D01*
X95552260Y-140883640D02*
X95552260Y-145882360D01*
X96520000Y-142748000D02*
X97790000Y-142748000D01*
X97790000Y-142748000D02*
X97155000Y-143764000D01*
X96520000Y-142748000D02*
X97155000Y-143764000D01*
X96520000Y-143764000D02*
X97790000Y-143764000D01*
X92710000Y-108839000D02*
X93091000Y-108839000D01*
X92583000Y-108712000D02*
X93218000Y-108712000D01*
X92456000Y-108585000D02*
X93218000Y-108585000D01*
X92456000Y-108458000D02*
X93345000Y-108458000D01*
X93345000Y-108331000D02*
X92202000Y-108331000D01*
X92202000Y-108204000D02*
X93472000Y-108204000D01*
X93599000Y-108077000D02*
X92075000Y-108077000D01*
X91897200Y-109296200D02*
X91897200Y-109474000D01*
X93802200Y-109296200D02*
X93802200Y-109474000D01*
X91897200Y-109474000D02*
X93802200Y-109474000D01*
X91897200Y-107924600D02*
X93802200Y-107924600D01*
X91897200Y-109296200D02*
X93802200Y-109296200D01*
X92811600Y-109296200D02*
X93802200Y-107924600D01*
X91897200Y-107924600D02*
X92811600Y-109296200D01*
X92849700Y-107340400D02*
X92849700Y-109816900D01*
X100012500Y-176022000D02*
X100012500Y-175768000D01*
X100012500Y-176022000D02*
X100012500Y-176276000D01*
X100901500Y-176022000D02*
X100901500Y-176276000D01*
X100901500Y-176022000D02*
X100901500Y-175768000D01*
X98488500Y-178689000D02*
X98488500Y-178435000D01*
X98488500Y-178689000D02*
X98488500Y-178943000D01*
X97599500Y-178689000D02*
X97599500Y-178943000D01*
X97599500Y-178689000D02*
X97599500Y-178435000D01*
X111252000Y-166560500D02*
X111506000Y-166560500D01*
X111252000Y-166560500D02*
X110998000Y-166560500D01*
X111252000Y-167449500D02*
X110998000Y-167449500D01*
X111252000Y-167449500D02*
X111506000Y-167449500D01*
X112585500Y-172339000D02*
X112585500Y-172593000D01*
X112585500Y-172339000D02*
X112585500Y-172085000D01*
X113474500Y-172339000D02*
X113474500Y-172085000D01*
X113474500Y-172339000D02*
X113474500Y-172593000D01*
X115760500Y-172339000D02*
X115760500Y-172085000D01*
X115760500Y-172339000D02*
X115760500Y-172593000D01*
X114871500Y-172339000D02*
X114871500Y-172593000D01*
X114871500Y-172339000D02*
X114871500Y-172085000D01*
X114871500Y-172339000D02*
X114871500Y-172593000D01*
X114871500Y-172339000D02*
X114871500Y-172085000D01*
X113982500Y-172339000D02*
X113982500Y-172085000D01*
X113982500Y-172339000D02*
X113982500Y-172593000D01*
X103632000Y-168846500D02*
X103886000Y-168846500D01*
X103632000Y-168846500D02*
X103378000Y-168846500D01*
X103632000Y-167957500D02*
X103378000Y-167957500D01*
X103632000Y-167957500D02*
X103886000Y-167957500D01*
X111252000Y-165544500D02*
X110998000Y-165544500D01*
X111252000Y-165544500D02*
X111506000Y-165544500D01*
X111252000Y-164655500D02*
X111506000Y-164655500D01*
X111252000Y-164655500D02*
X110998000Y-164655500D01*
X111252000Y-165671500D02*
X111506000Y-165671500D01*
X111252000Y-165671500D02*
X110998000Y-165671500D01*
X111252000Y-166560500D02*
X110998000Y-166560500D01*
X111252000Y-166560500D02*
X111506000Y-166560500D01*
X113308000Y-166030000D02*
X113308000Y-161630000D01*
X116308000Y-166030000D02*
X116308000Y-161630000D01*
X104942000Y-169646000D02*
X104942000Y-165646000D01*
X109942000Y-169646000D02*
X109942000Y-165646000D01*
X102870000Y-165608000D02*
X102870000Y-166624000D01*
X104394000Y-165608000D02*
X104394000Y-166624000D01*
X116078000Y-167945000D02*
X112014000Y-167945000D01*
X116078000Y-171145000D02*
X112014000Y-171145000D01*
D12*
X92006057Y-104528257D02*
X91969771Y-104564542D01*
X91933485Y-104673400D01*
X91933485Y-104745971D01*
X91969771Y-104854828D01*
X92042342Y-104927400D01*
X92114914Y-104963685D01*
X92260057Y-104999971D01*
X92368914Y-104999971D01*
X92514057Y-104963685D01*
X92586628Y-104927400D01*
X92659200Y-104854828D01*
X92695485Y-104745971D01*
X92695485Y-104673400D01*
X92659200Y-104564542D01*
X92622914Y-104528257D01*
X92695485Y-104274257D02*
X92695485Y-103802542D01*
X92405200Y-104056542D01*
X92405200Y-103947685D01*
X92368914Y-103875114D01*
X92332628Y-103838828D01*
X92260057Y-103802542D01*
X92078628Y-103802542D01*
X92006057Y-103838828D01*
X91969771Y-103875114D01*
X91933485Y-103947685D01*
X91933485Y-104165400D01*
X91969771Y-104237971D01*
X92006057Y-104274257D01*
X91933485Y-103076828D02*
X91933485Y-103512257D01*
X91933485Y-103294542D02*
X92695485Y-103294542D01*
X92586628Y-103367114D01*
X92514057Y-103439685D01*
X92477771Y-103512257D01*
X100756357Y-103722714D02*
X101010357Y-103359857D01*
X101191785Y-103722714D02*
X101191785Y-102960714D01*
X100901500Y-102960714D01*
X100828928Y-102997000D01*
X100792642Y-103033285D01*
X100756357Y-103105857D01*
X100756357Y-103214714D01*
X100792642Y-103287285D01*
X100828928Y-103323571D01*
X100901500Y-103359857D01*
X101191785Y-103359857D01*
X100103214Y-103214714D02*
X100103214Y-103722714D01*
X100284642Y-102924428D02*
X100466071Y-103468714D01*
X99994357Y-103468714D01*
X99595214Y-103287285D02*
X99667785Y-103251000D01*
X99704071Y-103214714D01*
X99740357Y-103142142D01*
X99740357Y-103105857D01*
X99704071Y-103033285D01*
X99667785Y-102997000D01*
X99595214Y-102960714D01*
X99450071Y-102960714D01*
X99377500Y-102997000D01*
X99341214Y-103033285D01*
X99304928Y-103105857D01*
X99304928Y-103142142D01*
X99341214Y-103214714D01*
X99377500Y-103251000D01*
X99450071Y-103287285D01*
X99595214Y-103287285D01*
X99667785Y-103323571D01*
X99704071Y-103359857D01*
X99740357Y-103432428D01*
X99740357Y-103577571D01*
X99704071Y-103650142D01*
X99667785Y-103686428D01*
X99595214Y-103722714D01*
X99450071Y-103722714D01*
X99377500Y-103686428D01*
X99341214Y-103650142D01*
X99304928Y-103577571D01*
X99304928Y-103432428D01*
X99341214Y-103359857D01*
X99377500Y-103323571D01*
X99450071Y-103287285D01*
D11*
X99459142Y-164700857D02*
X99507523Y-164749238D01*
X99652666Y-164797619D01*
X99749428Y-164797619D01*
X99894571Y-164749238D01*
X99991333Y-164652476D01*
X100039714Y-164555714D01*
X100088095Y-164362190D01*
X100088095Y-164217047D01*
X100039714Y-164023523D01*
X99991333Y-163926761D01*
X99894571Y-163830000D01*
X99749428Y-163781619D01*
X99652666Y-163781619D01*
X99507523Y-163830000D01*
X99459142Y-163878380D01*
X99072095Y-163878380D02*
X99023714Y-163830000D01*
X98926952Y-163781619D01*
X98685047Y-163781619D01*
X98588285Y-163830000D01*
X98539904Y-163878380D01*
X98491523Y-163975142D01*
X98491523Y-164071904D01*
X98539904Y-164217047D01*
X99120476Y-164797619D01*
X98491523Y-164797619D01*
X98152857Y-163781619D02*
X97523904Y-163781619D01*
X97862571Y-164168666D01*
X97717428Y-164168666D01*
X97620666Y-164217047D01*
X97572285Y-164265428D01*
X97523904Y-164362190D01*
X97523904Y-164604095D01*
X97572285Y-164700857D01*
X97620666Y-164749238D01*
X97717428Y-164797619D01*
X98007714Y-164797619D01*
X98104476Y-164749238D01*
X98152857Y-164700857D01*
X111524142Y-148952857D02*
X111572523Y-149001238D01*
X111717666Y-149049619D01*
X111814428Y-149049619D01*
X111959571Y-149001238D01*
X112056333Y-148904476D01*
X112104714Y-148807714D01*
X112153095Y-148614190D01*
X112153095Y-148469047D01*
X112104714Y-148275523D01*
X112056333Y-148178761D01*
X111959571Y-148082000D01*
X111814428Y-148033619D01*
X111717666Y-148033619D01*
X111572523Y-148082000D01*
X111524142Y-148130380D01*
X111137095Y-148130380D02*
X111088714Y-148082000D01*
X110991952Y-148033619D01*
X110750047Y-148033619D01*
X110653285Y-148082000D01*
X110604904Y-148130380D01*
X110556523Y-148227142D01*
X110556523Y-148323904D01*
X110604904Y-148469047D01*
X111185476Y-149049619D01*
X110556523Y-149049619D01*
X109927571Y-148033619D02*
X109830809Y-148033619D01*
X109734047Y-148082000D01*
X109685666Y-148130380D01*
X109637285Y-148227142D01*
X109588904Y-148420666D01*
X109588904Y-148662571D01*
X109637285Y-148856095D01*
X109685666Y-148952857D01*
X109734047Y-149001238D01*
X109830809Y-149049619D01*
X109927571Y-149049619D01*
X110024333Y-149001238D01*
X110072714Y-148952857D01*
X110121095Y-148856095D01*
X110169476Y-148662571D01*
X110169476Y-148420666D01*
X110121095Y-148227142D01*
X110072714Y-148130380D01*
X110024333Y-148082000D01*
X109927571Y-148033619D01*
X108572904Y-156542619D02*
X108572904Y-155526619D01*
X108331000Y-155526619D01*
X108185857Y-155575000D01*
X108089095Y-155671761D01*
X108040714Y-155768523D01*
X107992333Y-155962047D01*
X107992333Y-156107190D01*
X108040714Y-156300714D01*
X108089095Y-156397476D01*
X108185857Y-156494238D01*
X108331000Y-156542619D01*
X108572904Y-156542619D01*
X107073095Y-155526619D02*
X107556904Y-155526619D01*
X107605285Y-156010428D01*
X107556904Y-155962047D01*
X107460142Y-155913666D01*
X107218238Y-155913666D01*
X107121476Y-155962047D01*
X107073095Y-156010428D01*
X107024714Y-156107190D01*
X107024714Y-156349095D01*
X107073095Y-156445857D01*
X107121476Y-156494238D01*
X107218238Y-156542619D01*
X107460142Y-156542619D01*
X107556904Y-156494238D01*
X107605285Y-156445857D01*
D12*
X96178131Y-147973631D02*
X96614315Y-147896657D01*
X96486025Y-148281525D02*
X97024841Y-147742710D01*
X96819578Y-147537447D01*
X96742604Y-147511789D01*
X96691288Y-147511789D01*
X96614315Y-147537447D01*
X96537341Y-147614420D01*
X96511683Y-147691394D01*
X96511683Y-147742710D01*
X96537341Y-147819683D01*
X96742604Y-148024946D01*
X95664974Y-147460473D02*
X95972868Y-147768368D01*
X95818921Y-147614420D02*
X96357736Y-147075605D01*
X96332078Y-147203894D01*
X96332078Y-147306526D01*
X96357736Y-147383500D01*
X96024184Y-146742053D02*
X95664974Y-146382842D01*
X95357079Y-147152579D01*
X96374857Y-102851857D02*
X96338571Y-102888142D01*
X96302285Y-102997000D01*
X96302285Y-103069571D01*
X96338571Y-103178428D01*
X96411142Y-103251000D01*
X96483714Y-103287285D01*
X96628857Y-103323571D01*
X96737714Y-103323571D01*
X96882857Y-103287285D01*
X96955428Y-103251000D01*
X97028000Y-103178428D01*
X97064285Y-103069571D01*
X97064285Y-102997000D01*
X97028000Y-102888142D01*
X96991714Y-102851857D01*
X96991714Y-102561571D02*
X97028000Y-102525285D01*
X97064285Y-102452714D01*
X97064285Y-102271285D01*
X97028000Y-102198714D01*
X96991714Y-102162428D01*
X96919142Y-102126142D01*
X96846571Y-102126142D01*
X96737714Y-102162428D01*
X96302285Y-102597857D01*
X96302285Y-102126142D01*
X96737714Y-101690714D02*
X96774000Y-101763285D01*
X96810285Y-101799571D01*
X96882857Y-101835857D01*
X96919142Y-101835857D01*
X96991714Y-101799571D01*
X97028000Y-101763285D01*
X97064285Y-101690714D01*
X97064285Y-101545571D01*
X97028000Y-101473000D01*
X96991714Y-101436714D01*
X96919142Y-101400428D01*
X96882857Y-101400428D01*
X96810285Y-101436714D01*
X96774000Y-101473000D01*
X96737714Y-101545571D01*
X96737714Y-101690714D01*
X96701428Y-101763285D01*
X96665142Y-101799571D01*
X96592571Y-101835857D01*
X96447428Y-101835857D01*
X96374857Y-101799571D01*
X96338571Y-101763285D01*
X96302285Y-101690714D01*
X96302285Y-101545571D01*
X96338571Y-101473000D01*
X96374857Y-101436714D01*
X96447428Y-101400428D01*
X96592571Y-101400428D01*
X96665142Y-101436714D01*
X96701428Y-101473000D01*
X96737714Y-101545571D01*
X94778285Y-102216857D02*
X95141142Y-102470857D01*
X94778285Y-102652285D02*
X95540285Y-102652285D01*
X95540285Y-102362000D01*
X95504000Y-102289428D01*
X95467714Y-102253142D01*
X95395142Y-102216857D01*
X95286285Y-102216857D01*
X95213714Y-102253142D01*
X95177428Y-102289428D01*
X95141142Y-102362000D01*
X95141142Y-102652285D01*
X94778285Y-101491142D02*
X94778285Y-101926571D01*
X94778285Y-101708857D02*
X95540285Y-101708857D01*
X95431428Y-101781428D01*
X95358857Y-101854000D01*
X95322571Y-101926571D01*
X95540285Y-100838000D02*
X95540285Y-100983142D01*
X95504000Y-101055714D01*
X95467714Y-101092000D01*
X95358857Y-101164571D01*
X95213714Y-101200857D01*
X94923428Y-101200857D01*
X94850857Y-101164571D01*
X94814571Y-101128285D01*
X94778285Y-101055714D01*
X94778285Y-100910571D01*
X94814571Y-100838000D01*
X94850857Y-100801714D01*
X94923428Y-100765428D01*
X95104857Y-100765428D01*
X95177428Y-100801714D01*
X95213714Y-100838000D01*
X95250000Y-100910571D01*
X95250000Y-101055714D01*
X95213714Y-101128285D01*
X95177428Y-101164571D01*
X95104857Y-101200857D01*
X96901000Y-105754714D02*
X97155000Y-105391857D01*
X97336428Y-105754714D02*
X97336428Y-104992714D01*
X97046142Y-104992714D01*
X96973571Y-105029000D01*
X96937285Y-105065285D01*
X96901000Y-105137857D01*
X96901000Y-105246714D01*
X96937285Y-105319285D01*
X96973571Y-105355571D01*
X97046142Y-105391857D01*
X97336428Y-105391857D01*
X96647000Y-104992714D02*
X96139000Y-104992714D01*
X96465571Y-105754714D01*
D11*
X101999142Y-152381857D02*
X102047523Y-152430238D01*
X102192666Y-152478619D01*
X102289428Y-152478619D01*
X102434571Y-152430238D01*
X102531333Y-152333476D01*
X102579714Y-152236714D01*
X102628095Y-152043190D01*
X102628095Y-151898047D01*
X102579714Y-151704523D01*
X102531333Y-151607761D01*
X102434571Y-151511000D01*
X102289428Y-151462619D01*
X102192666Y-151462619D01*
X102047523Y-151511000D01*
X101999142Y-151559380D01*
X101031523Y-152478619D02*
X101612095Y-152478619D01*
X101321809Y-152478619D02*
X101321809Y-151462619D01*
X101418571Y-151607761D01*
X101515333Y-151704523D01*
X101612095Y-151752904D01*
X100547714Y-152478619D02*
X100354190Y-152478619D01*
X100257428Y-152430238D01*
X100209047Y-152381857D01*
X100112285Y-152236714D01*
X100063904Y-152043190D01*
X100063904Y-151656142D01*
X100112285Y-151559380D01*
X100160666Y-151511000D01*
X100257428Y-151462619D01*
X100450952Y-151462619D01*
X100547714Y-151511000D01*
X100596095Y-151559380D01*
X100644476Y-151656142D01*
X100644476Y-151898047D01*
X100596095Y-151994809D01*
X100547714Y-152043190D01*
X100450952Y-152091571D01*
X100257428Y-152091571D01*
X100160666Y-152043190D01*
X100112285Y-151994809D01*
X100063904Y-151898047D01*
D26*
X96995857Y-178074580D02*
X96995857Y-177074580D01*
X96567285Y-178074580D02*
X96567285Y-177550771D01*
X96614904Y-177455533D01*
X96710142Y-177407914D01*
X96853000Y-177407914D01*
X96948238Y-177455533D01*
X96995857Y-177503152D01*
X95662523Y-178074580D02*
X95662523Y-177550771D01*
X95710142Y-177455533D01*
X95805380Y-177407914D01*
X95995857Y-177407914D01*
X96091095Y-177455533D01*
X95662523Y-178026961D02*
X95757761Y-178074580D01*
X95995857Y-178074580D01*
X96091095Y-178026961D01*
X96138714Y-177931723D01*
X96138714Y-177836485D01*
X96091095Y-177741247D01*
X95995857Y-177693628D01*
X95757761Y-177693628D01*
X95662523Y-177646009D01*
X95186333Y-178074580D02*
X95186333Y-177407914D01*
X95186333Y-177598390D02*
X95138714Y-177503152D01*
X95091095Y-177455533D01*
X94995857Y-177407914D01*
X94900619Y-177407914D01*
X94138714Y-178074580D02*
X94138714Y-177074580D01*
X94138714Y-178026961D02*
X94233952Y-178074580D01*
X94424428Y-178074580D01*
X94519666Y-178026961D01*
X94567285Y-177979342D01*
X94614904Y-177884104D01*
X94614904Y-177598390D01*
X94567285Y-177503152D01*
X94519666Y-177455533D01*
X94424428Y-177407914D01*
X94233952Y-177407914D01*
X94138714Y-177455533D01*
X93757761Y-177407914D02*
X93567285Y-178074580D01*
X93376809Y-177598390D01*
X93186333Y-178074580D01*
X92995857Y-177407914D01*
X92186333Y-178074580D02*
X92186333Y-177550771D01*
X92233952Y-177455533D01*
X92329190Y-177407914D01*
X92519666Y-177407914D01*
X92614904Y-177455533D01*
X92186333Y-178026961D02*
X92281571Y-178074580D01*
X92519666Y-178074580D01*
X92614904Y-178026961D01*
X92662523Y-177931723D01*
X92662523Y-177836485D01*
X92614904Y-177741247D01*
X92519666Y-177693628D01*
X92281571Y-177693628D01*
X92186333Y-177646009D01*
X91710142Y-178074580D02*
X91710142Y-177407914D01*
X91710142Y-177598390D02*
X91662523Y-177503152D01*
X91614904Y-177455533D01*
X91519666Y-177407914D01*
X91424428Y-177407914D01*
X90710142Y-178026961D02*
X90805380Y-178074580D01*
X90995857Y-178074580D01*
X91091095Y-178026961D01*
X91138714Y-177931723D01*
X91138714Y-177550771D01*
X91091095Y-177455533D01*
X90995857Y-177407914D01*
X90805380Y-177407914D01*
X90710142Y-177455533D01*
X90662523Y-177550771D01*
X90662523Y-177646009D01*
X91138714Y-177741247D01*
D11*
X102002238Y-178028379D02*
X102107000Y-177975998D01*
X102159380Y-177923617D01*
X102211761Y-177818855D01*
X102211761Y-177504569D01*
X102159380Y-177399807D01*
X102107000Y-177347426D01*
X102002238Y-177295045D01*
X101845095Y-177295045D01*
X101740333Y-177347426D01*
X101687952Y-177399807D01*
X101635571Y-177504569D01*
X101635571Y-177818855D01*
X101687952Y-177923617D01*
X101740333Y-177975998D01*
X101845095Y-178028379D01*
X102002238Y-178028379D01*
X101164142Y-177295045D02*
X101164142Y-178395045D01*
X101164142Y-177347426D02*
X101059380Y-177295045D01*
X100849857Y-177295045D01*
X100745095Y-177347426D01*
X100692714Y-177399807D01*
X100640333Y-177504569D01*
X100640333Y-177818855D01*
X100692714Y-177923617D01*
X100745095Y-177975998D01*
X100849857Y-178028379D01*
X101059380Y-178028379D01*
X101164142Y-177975998D01*
X99749857Y-177975998D02*
X99854619Y-178028379D01*
X100064142Y-178028379D01*
X100168904Y-177975998D01*
X100221285Y-177871236D01*
X100221285Y-177452188D01*
X100168904Y-177347426D01*
X100064142Y-177295045D01*
X99854619Y-177295045D01*
X99749857Y-177347426D01*
X99697476Y-177452188D01*
X99697476Y-177556950D01*
X100221285Y-177661712D01*
X99226047Y-177295045D02*
X99226047Y-178028379D01*
X99226047Y-177399807D02*
X99173666Y-177347426D01*
X99068904Y-177295045D01*
X98911761Y-177295045D01*
X98807000Y-177347426D01*
X98754619Y-177452188D01*
X98754619Y-178028379D01*
D12*
X113030000Y-143219714D02*
X113284000Y-142856857D01*
X113465428Y-143219714D02*
X113465428Y-142457714D01*
X113175142Y-142457714D01*
X113102571Y-142494000D01*
X113066285Y-142530285D01*
X113030000Y-142602857D01*
X113030000Y-142711714D01*
X113066285Y-142784285D01*
X113102571Y-142820571D01*
X113175142Y-142856857D01*
X113465428Y-142856857D01*
X112776000Y-142457714D02*
X112304285Y-142457714D01*
X112558285Y-142748000D01*
X112449428Y-142748000D01*
X112376857Y-142784285D01*
X112340571Y-142820571D01*
X112304285Y-142893142D01*
X112304285Y-143074571D01*
X112340571Y-143147142D01*
X112376857Y-143183428D01*
X112449428Y-143219714D01*
X112667142Y-143219714D01*
X112739714Y-143183428D01*
X112776000Y-143147142D01*
X112757857Y-147936857D02*
X112721571Y-147973142D01*
X112685285Y-148082000D01*
X112685285Y-148154571D01*
X112721571Y-148263428D01*
X112794142Y-148336000D01*
X112866714Y-148372285D01*
X113011857Y-148408571D01*
X113120714Y-148408571D01*
X113265857Y-148372285D01*
X113338428Y-148336000D01*
X113411000Y-148263428D01*
X113447285Y-148154571D01*
X113447285Y-148082000D01*
X113411000Y-147973142D01*
X113374714Y-147936857D01*
X112685285Y-147211142D02*
X112685285Y-147646571D01*
X112685285Y-147428857D02*
X113447285Y-147428857D01*
X113338428Y-147501428D01*
X113265857Y-147574000D01*
X113229571Y-147646571D01*
X113447285Y-146739428D02*
X113447285Y-146666857D01*
X113411000Y-146594285D01*
X113374714Y-146558000D01*
X113302142Y-146521714D01*
X113157000Y-146485428D01*
X112975571Y-146485428D01*
X112830428Y-146521714D01*
X112757857Y-146558000D01*
X112721571Y-146594285D01*
X112685285Y-146666857D01*
X112685285Y-146739428D01*
X112721571Y-146812000D01*
X112757857Y-146848285D01*
X112830428Y-146884571D01*
X112975571Y-146920857D01*
X113157000Y-146920857D01*
X113302142Y-146884571D01*
X113374714Y-146848285D01*
X113411000Y-146812000D01*
X113447285Y-146739428D01*
D11*
X112745068Y-105498327D02*
X112745068Y-103798327D01*
X112173640Y-103798327D01*
X112030782Y-103879280D01*
X111959354Y-103960232D01*
X111887925Y-104122137D01*
X111887925Y-104364994D01*
X111959354Y-104526899D01*
X112030782Y-104607851D01*
X112173640Y-104688803D01*
X112745068Y-104688803D01*
X111245068Y-105498327D02*
X111245068Y-103798327D01*
X111245068Y-104445946D02*
X111102211Y-104364994D01*
X110816497Y-104364994D01*
X110673640Y-104445946D01*
X110602211Y-104526899D01*
X110530782Y-104688803D01*
X110530782Y-105174518D01*
X110602211Y-105336422D01*
X110673640Y-105417375D01*
X110816497Y-105498327D01*
X111102211Y-105498327D01*
X111245068Y-105417375D01*
D12*
X99676857Y-116459000D02*
X99640571Y-116495285D01*
X99604285Y-116604142D01*
X99604285Y-116676714D01*
X99640571Y-116785571D01*
X99713142Y-116858142D01*
X99785714Y-116894428D01*
X99930857Y-116930714D01*
X100039714Y-116930714D01*
X100184857Y-116894428D01*
X100257428Y-116858142D01*
X100330000Y-116785571D01*
X100366285Y-116676714D01*
X100366285Y-116604142D01*
X100330000Y-116495285D01*
X100293714Y-116459000D01*
X100366285Y-116205000D02*
X100366285Y-115733285D01*
X100076000Y-115987285D01*
X100076000Y-115878428D01*
X100039714Y-115805857D01*
X100003428Y-115769571D01*
X99930857Y-115733285D01*
X99749428Y-115733285D01*
X99676857Y-115769571D01*
X99640571Y-115805857D01*
X99604285Y-115878428D01*
X99604285Y-116096142D01*
X99640571Y-116168714D01*
X99676857Y-116205000D01*
D11*
X104031142Y-133458857D02*
X104079523Y-133507238D01*
X104224666Y-133555619D01*
X104321428Y-133555619D01*
X104466571Y-133507238D01*
X104563333Y-133410476D01*
X104611714Y-133313714D01*
X104660095Y-133120190D01*
X104660095Y-132975047D01*
X104611714Y-132781523D01*
X104563333Y-132684761D01*
X104466571Y-132588000D01*
X104321428Y-132539619D01*
X104224666Y-132539619D01*
X104079523Y-132588000D01*
X104031142Y-132636380D01*
X103063523Y-133555619D02*
X103644095Y-133555619D01*
X103353809Y-133555619D02*
X103353809Y-132539619D01*
X103450571Y-132684761D01*
X103547333Y-132781523D01*
X103644095Y-132829904D01*
X102192666Y-132878285D02*
X102192666Y-133555619D01*
X102434571Y-132491238D02*
X102676476Y-133216952D01*
X102047523Y-133216952D01*
D12*
X100184857Y-137305142D02*
X100221142Y-137341428D01*
X100330000Y-137377714D01*
X100402571Y-137377714D01*
X100511428Y-137341428D01*
X100584000Y-137268857D01*
X100620285Y-137196285D01*
X100656571Y-137051142D01*
X100656571Y-136942285D01*
X100620285Y-136797142D01*
X100584000Y-136724571D01*
X100511428Y-136652000D01*
X100402571Y-136615714D01*
X100330000Y-136615714D01*
X100221142Y-136652000D01*
X100184857Y-136688285D01*
X99459142Y-137377714D02*
X99894571Y-137377714D01*
X99676857Y-137377714D02*
X99676857Y-136615714D01*
X99749428Y-136724571D01*
X99822000Y-136797142D01*
X99894571Y-136833428D01*
X99023714Y-136942285D02*
X99096285Y-136906000D01*
X99132571Y-136869714D01*
X99168857Y-136797142D01*
X99168857Y-136760857D01*
X99132571Y-136688285D01*
X99096285Y-136652000D01*
X99023714Y-136615714D01*
X98878571Y-136615714D01*
X98806000Y-136652000D01*
X98769714Y-136688285D01*
X98733428Y-136760857D01*
X98733428Y-136797142D01*
X98769714Y-136869714D01*
X98806000Y-136906000D01*
X98878571Y-136942285D01*
X99023714Y-136942285D01*
X99096285Y-136978571D01*
X99132571Y-137014857D01*
X99168857Y-137087428D01*
X99168857Y-137232571D01*
X99132571Y-137305142D01*
X99096285Y-137341428D01*
X99023714Y-137377714D01*
X98878571Y-137377714D01*
X98806000Y-137341428D01*
X98769714Y-137305142D01*
X98733428Y-137232571D01*
X98733428Y-137087428D01*
X98769714Y-137014857D01*
X98806000Y-136978571D01*
X98878571Y-136942285D01*
X99422857Y-139464142D02*
X99459142Y-139500428D01*
X99568000Y-139536714D01*
X99640571Y-139536714D01*
X99749428Y-139500428D01*
X99822000Y-139427857D01*
X99858285Y-139355285D01*
X99894571Y-139210142D01*
X99894571Y-139101285D01*
X99858285Y-138956142D01*
X99822000Y-138883571D01*
X99749428Y-138811000D01*
X99640571Y-138774714D01*
X99568000Y-138774714D01*
X99459142Y-138811000D01*
X99422857Y-138847285D01*
X98697142Y-139536714D02*
X99132571Y-139536714D01*
X98914857Y-139536714D02*
X98914857Y-138774714D01*
X98987428Y-138883571D01*
X99060000Y-138956142D01*
X99132571Y-138992428D01*
X98044000Y-138774714D02*
X98189142Y-138774714D01*
X98261714Y-138811000D01*
X98298000Y-138847285D01*
X98370571Y-138956142D01*
X98406857Y-139101285D01*
X98406857Y-139391571D01*
X98370571Y-139464142D01*
X98334285Y-139500428D01*
X98261714Y-139536714D01*
X98116571Y-139536714D01*
X98044000Y-139500428D01*
X98007714Y-139464142D01*
X97971428Y-139391571D01*
X97971428Y-139210142D01*
X98007714Y-139137571D01*
X98044000Y-139101285D01*
X98116571Y-139065000D01*
X98261714Y-139065000D01*
X98334285Y-139101285D01*
X98370571Y-139137571D01*
X98406857Y-139210142D01*
X107296857Y-140861142D02*
X107333142Y-140897428D01*
X107442000Y-140933714D01*
X107514571Y-140933714D01*
X107623428Y-140897428D01*
X107696000Y-140824857D01*
X107732285Y-140752285D01*
X107768571Y-140607142D01*
X107768571Y-140498285D01*
X107732285Y-140353142D01*
X107696000Y-140280571D01*
X107623428Y-140208000D01*
X107514571Y-140171714D01*
X107442000Y-140171714D01*
X107333142Y-140208000D01*
X107296857Y-140244285D01*
X106571142Y-140933714D02*
X107006571Y-140933714D01*
X106788857Y-140933714D02*
X106788857Y-140171714D01*
X106861428Y-140280571D01*
X106934000Y-140353142D01*
X107006571Y-140389428D01*
X105881714Y-140171714D02*
X106244571Y-140171714D01*
X106280857Y-140534571D01*
X106244571Y-140498285D01*
X106172000Y-140462000D01*
X105990571Y-140462000D01*
X105918000Y-140498285D01*
X105881714Y-140534571D01*
X105845428Y-140607142D01*
X105845428Y-140788571D01*
X105881714Y-140861142D01*
X105918000Y-140897428D01*
X105990571Y-140933714D01*
X106172000Y-140933714D01*
X106244571Y-140897428D01*
X106280857Y-140861142D01*
X91730285Y-113646857D02*
X92093142Y-113900857D01*
X91730285Y-114082285D02*
X92492285Y-114082285D01*
X92492285Y-113792000D01*
X92456000Y-113719428D01*
X92419714Y-113683142D01*
X92347142Y-113646857D01*
X92238285Y-113646857D01*
X92165714Y-113683142D01*
X92129428Y-113719428D01*
X92093142Y-113792000D01*
X92093142Y-114082285D01*
X92238285Y-112993714D02*
X91730285Y-112993714D01*
X92528571Y-113175142D02*
X91984285Y-113356571D01*
X91984285Y-112884857D01*
X92492285Y-112268000D02*
X92492285Y-112413142D01*
X92456000Y-112485714D01*
X92419714Y-112522000D01*
X92310857Y-112594571D01*
X92165714Y-112630857D01*
X91875428Y-112630857D01*
X91802857Y-112594571D01*
X91766571Y-112558285D01*
X91730285Y-112485714D01*
X91730285Y-112340571D01*
X91766571Y-112268000D01*
X91802857Y-112231714D01*
X91875428Y-112195428D01*
X92056857Y-112195428D01*
X92129428Y-112231714D01*
X92165714Y-112268000D01*
X92202000Y-112340571D01*
X92202000Y-112485714D01*
X92165714Y-112558285D01*
X92129428Y-112594571D01*
X92056857Y-112630857D01*
X95794285Y-111233857D02*
X96157142Y-111487857D01*
X95794285Y-111669285D02*
X96556285Y-111669285D01*
X96556285Y-111379000D01*
X96520000Y-111306428D01*
X96483714Y-111270142D01*
X96411142Y-111233857D01*
X96302285Y-111233857D01*
X96229714Y-111270142D01*
X96193428Y-111306428D01*
X96157142Y-111379000D01*
X96157142Y-111669285D01*
X96302285Y-110580714D02*
X95794285Y-110580714D01*
X96592571Y-110762142D02*
X96048285Y-110943571D01*
X96048285Y-110471857D01*
X96556285Y-110036428D02*
X96556285Y-109963857D01*
X96520000Y-109891285D01*
X96483714Y-109855000D01*
X96411142Y-109818714D01*
X96266000Y-109782428D01*
X96084571Y-109782428D01*
X95939428Y-109818714D01*
X95866857Y-109855000D01*
X95830571Y-109891285D01*
X95794285Y-109963857D01*
X95794285Y-110036428D01*
X95830571Y-110109000D01*
X95866857Y-110145285D01*
X95939428Y-110181571D01*
X96084571Y-110217857D01*
X96266000Y-110217857D01*
X96411142Y-110181571D01*
X96483714Y-110145285D01*
X96520000Y-110109000D01*
X96556285Y-110036428D01*
X101962857Y-126963714D02*
X102216857Y-126600857D01*
X102398285Y-126963714D02*
X102398285Y-126201714D01*
X102108000Y-126201714D01*
X102035428Y-126238000D01*
X101999142Y-126274285D01*
X101962857Y-126346857D01*
X101962857Y-126455714D01*
X101999142Y-126528285D01*
X102035428Y-126564571D01*
X102108000Y-126600857D01*
X102398285Y-126600857D01*
X101708857Y-126201714D02*
X101237142Y-126201714D01*
X101491142Y-126492000D01*
X101382285Y-126492000D01*
X101309714Y-126528285D01*
X101273428Y-126564571D01*
X101237142Y-126637142D01*
X101237142Y-126818571D01*
X101273428Y-126891142D01*
X101309714Y-126927428D01*
X101382285Y-126963714D01*
X101600000Y-126963714D01*
X101672571Y-126927428D01*
X101708857Y-126891142D01*
X100874285Y-126963714D02*
X100729142Y-126963714D01*
X100656571Y-126927428D01*
X100620285Y-126891142D01*
X100547714Y-126782285D01*
X100511428Y-126637142D01*
X100511428Y-126346857D01*
X100547714Y-126274285D01*
X100584000Y-126238000D01*
X100656571Y-126201714D01*
X100801714Y-126201714D01*
X100874285Y-126238000D01*
X100910571Y-126274285D01*
X100946857Y-126346857D01*
X100946857Y-126528285D01*
X100910571Y-126600857D01*
X100874285Y-126637142D01*
X100801714Y-126673428D01*
X100656571Y-126673428D01*
X100584000Y-126637142D01*
X100547714Y-126600857D01*
X100511428Y-126528285D01*
X102496257Y-125185714D02*
X102750257Y-124822857D01*
X102931685Y-125185714D02*
X102931685Y-124423714D01*
X102641400Y-124423714D01*
X102568828Y-124460000D01*
X102532542Y-124496285D01*
X102496257Y-124568857D01*
X102496257Y-124677714D01*
X102532542Y-124750285D01*
X102568828Y-124786571D01*
X102641400Y-124822857D01*
X102931685Y-124822857D01*
X102242257Y-124423714D02*
X101770542Y-124423714D01*
X102024542Y-124714000D01*
X101915685Y-124714000D01*
X101843114Y-124750285D01*
X101806828Y-124786571D01*
X101770542Y-124859142D01*
X101770542Y-125040571D01*
X101806828Y-125113142D01*
X101843114Y-125149428D01*
X101915685Y-125185714D01*
X102133400Y-125185714D01*
X102205971Y-125149428D01*
X102242257Y-125113142D01*
X101117400Y-124423714D02*
X101262542Y-124423714D01*
X101335114Y-124460000D01*
X101371400Y-124496285D01*
X101443971Y-124605142D01*
X101480257Y-124750285D01*
X101480257Y-125040571D01*
X101443971Y-125113142D01*
X101407685Y-125149428D01*
X101335114Y-125185714D01*
X101189971Y-125185714D01*
X101117400Y-125149428D01*
X101081114Y-125113142D01*
X101044828Y-125040571D01*
X101044828Y-124859142D01*
X101081114Y-124786571D01*
X101117400Y-124750285D01*
X101189971Y-124714000D01*
X101335114Y-124714000D01*
X101407685Y-124750285D01*
X101443971Y-124786571D01*
X101480257Y-124859142D01*
D27*
X101976766Y-121056400D02*
X102315433Y-121293466D01*
X101976766Y-121462800D02*
X102687966Y-121462800D01*
X102687966Y-121191866D01*
X102654100Y-121124133D01*
X102620233Y-121090266D01*
X102552500Y-121056400D01*
X102450900Y-121056400D01*
X102383166Y-121090266D01*
X102349300Y-121124133D01*
X102315433Y-121191866D01*
X102315433Y-121462800D01*
X102687966Y-120819333D02*
X102687966Y-120379066D01*
X102417033Y-120616133D01*
X102417033Y-120514533D01*
X102383166Y-120446800D01*
X102349300Y-120412933D01*
X102281566Y-120379066D01*
X102112233Y-120379066D01*
X102044500Y-120412933D01*
X102010633Y-120446800D01*
X101976766Y-120514533D01*
X101976766Y-120717733D01*
X102010633Y-120785466D01*
X102044500Y-120819333D01*
X102687966Y-119735600D02*
X102687966Y-120074266D01*
X102349300Y-120108133D01*
X102383166Y-120074266D01*
X102417033Y-120006533D01*
X102417033Y-119837200D01*
X102383166Y-119769466D01*
X102349300Y-119735600D01*
X102281566Y-119701733D01*
X102112233Y-119701733D01*
X102044500Y-119735600D01*
X102010633Y-119769466D01*
X101976766Y-119837200D01*
X101976766Y-120006533D01*
X102010633Y-120074266D01*
X102044500Y-120108133D01*
D12*
X106661857Y-126074714D02*
X106915857Y-125711857D01*
X107097285Y-126074714D02*
X107097285Y-125312714D01*
X106807000Y-125312714D01*
X106734428Y-125349000D01*
X106698142Y-125385285D01*
X106661857Y-125457857D01*
X106661857Y-125566714D01*
X106698142Y-125639285D01*
X106734428Y-125675571D01*
X106807000Y-125711857D01*
X107097285Y-125711857D01*
X106407857Y-125312714D02*
X105936142Y-125312714D01*
X106190142Y-125603000D01*
X106081285Y-125603000D01*
X106008714Y-125639285D01*
X105972428Y-125675571D01*
X105936142Y-125748142D01*
X105936142Y-125929571D01*
X105972428Y-126002142D01*
X106008714Y-126038428D01*
X106081285Y-126074714D01*
X106299000Y-126074714D01*
X106371571Y-126038428D01*
X106407857Y-126002142D01*
X105210428Y-126074714D02*
X105645857Y-126074714D01*
X105428142Y-126074714D02*
X105428142Y-125312714D01*
X105500714Y-125421571D01*
X105573285Y-125494142D01*
X105645857Y-125530428D01*
X100565857Y-141632214D02*
X100819857Y-141269357D01*
X101001285Y-141632214D02*
X101001285Y-140870214D01*
X100711000Y-140870214D01*
X100638428Y-140906500D01*
X100602142Y-140942785D01*
X100565857Y-141015357D01*
X100565857Y-141124214D01*
X100602142Y-141196785D01*
X100638428Y-141233071D01*
X100711000Y-141269357D01*
X101001285Y-141269357D01*
X100275571Y-140942785D02*
X100239285Y-140906500D01*
X100166714Y-140870214D01*
X99985285Y-140870214D01*
X99912714Y-140906500D01*
X99876428Y-140942785D01*
X99840142Y-141015357D01*
X99840142Y-141087928D01*
X99876428Y-141196785D01*
X100311857Y-141632214D01*
X99840142Y-141632214D01*
X99187000Y-140870214D02*
X99332142Y-140870214D01*
X99404714Y-140906500D01*
X99441000Y-140942785D01*
X99513571Y-141051642D01*
X99549857Y-141196785D01*
X99549857Y-141487071D01*
X99513571Y-141559642D01*
X99477285Y-141595928D01*
X99404714Y-141632214D01*
X99259571Y-141632214D01*
X99187000Y-141595928D01*
X99150714Y-141559642D01*
X99114428Y-141487071D01*
X99114428Y-141305642D01*
X99150714Y-141233071D01*
X99187000Y-141196785D01*
X99259571Y-141160500D01*
X99404714Y-141160500D01*
X99477285Y-141196785D01*
X99513571Y-141233071D01*
X99549857Y-141305642D01*
X111415285Y-135998857D02*
X111778142Y-136252857D01*
X111415285Y-136434285D02*
X112177285Y-136434285D01*
X112177285Y-136144000D01*
X112141000Y-136071428D01*
X112104714Y-136035142D01*
X112032142Y-135998857D01*
X111923285Y-135998857D01*
X111850714Y-136035142D01*
X111814428Y-136071428D01*
X111778142Y-136144000D01*
X111778142Y-136434285D01*
X112104714Y-135708571D02*
X112141000Y-135672285D01*
X112177285Y-135599714D01*
X112177285Y-135418285D01*
X112141000Y-135345714D01*
X112104714Y-135309428D01*
X112032142Y-135273142D01*
X111959571Y-135273142D01*
X111850714Y-135309428D01*
X111415285Y-135744857D01*
X111415285Y-135273142D01*
X112177285Y-134583714D02*
X112177285Y-134946571D01*
X111814428Y-134982857D01*
X111850714Y-134946571D01*
X111887000Y-134874000D01*
X111887000Y-134692571D01*
X111850714Y-134620000D01*
X111814428Y-134583714D01*
X111741857Y-134547428D01*
X111560428Y-134547428D01*
X111487857Y-134583714D01*
X111451571Y-134620000D01*
X111415285Y-134692571D01*
X111415285Y-134874000D01*
X111451571Y-134946571D01*
X111487857Y-134982857D01*
X104557285Y-144888857D02*
X104920142Y-145142857D01*
X104557285Y-145324285D02*
X105319285Y-145324285D01*
X105319285Y-145034000D01*
X105283000Y-144961428D01*
X105246714Y-144925142D01*
X105174142Y-144888857D01*
X105065285Y-144888857D01*
X104992714Y-144925142D01*
X104956428Y-144961428D01*
X104920142Y-145034000D01*
X104920142Y-145324285D01*
X104557285Y-144163142D02*
X104557285Y-144598571D01*
X104557285Y-144380857D02*
X105319285Y-144380857D01*
X105210428Y-144453428D01*
X105137857Y-144526000D01*
X105101571Y-144598571D01*
X105319285Y-143909142D02*
X105319285Y-143437428D01*
X105029000Y-143691428D01*
X105029000Y-143582571D01*
X104992714Y-143510000D01*
X104956428Y-143473714D01*
X104883857Y-143437428D01*
X104702428Y-143437428D01*
X104629857Y-143473714D01*
X104593571Y-143510000D01*
X104557285Y-143582571D01*
X104557285Y-143800285D01*
X104593571Y-143872857D01*
X104629857Y-143909142D01*
X105636785Y-144888857D02*
X105999642Y-145142857D01*
X105636785Y-145324285D02*
X106398785Y-145324285D01*
X106398785Y-145034000D01*
X106362500Y-144961428D01*
X106326214Y-144925142D01*
X106253642Y-144888857D01*
X106144785Y-144888857D01*
X106072214Y-144925142D01*
X106035928Y-144961428D01*
X105999642Y-145034000D01*
X105999642Y-145324285D01*
X105636785Y-144163142D02*
X105636785Y-144598571D01*
X105636785Y-144380857D02*
X106398785Y-144380857D01*
X106289928Y-144453428D01*
X106217357Y-144526000D01*
X106181071Y-144598571D01*
X106326214Y-143872857D02*
X106362500Y-143836571D01*
X106398785Y-143764000D01*
X106398785Y-143582571D01*
X106362500Y-143510000D01*
X106326214Y-143473714D01*
X106253642Y-143437428D01*
X106181071Y-143437428D01*
X106072214Y-143473714D01*
X105636785Y-143909142D01*
X105636785Y-143437428D01*
X102398285Y-144888857D02*
X102761142Y-145142857D01*
X102398285Y-145324285D02*
X103160285Y-145324285D01*
X103160285Y-145034000D01*
X103124000Y-144961428D01*
X103087714Y-144925142D01*
X103015142Y-144888857D01*
X102906285Y-144888857D01*
X102833714Y-144925142D01*
X102797428Y-144961428D01*
X102761142Y-145034000D01*
X102761142Y-145324285D01*
X102398285Y-144163142D02*
X102398285Y-144598571D01*
X102398285Y-144380857D02*
X103160285Y-144380857D01*
X103051428Y-144453428D01*
X102978857Y-144526000D01*
X102942571Y-144598571D01*
X102398285Y-143437428D02*
X102398285Y-143872857D01*
X102398285Y-143655142D02*
X103160285Y-143655142D01*
X103051428Y-143727714D01*
X102978857Y-143800285D01*
X102942571Y-143872857D01*
X103477785Y-144888857D02*
X103840642Y-145142857D01*
X103477785Y-145324285D02*
X104239785Y-145324285D01*
X104239785Y-145034000D01*
X104203500Y-144961428D01*
X104167214Y-144925142D01*
X104094642Y-144888857D01*
X103985785Y-144888857D01*
X103913214Y-144925142D01*
X103876928Y-144961428D01*
X103840642Y-145034000D01*
X103840642Y-145324285D01*
X103477785Y-144163142D02*
X103477785Y-144598571D01*
X103477785Y-144380857D02*
X104239785Y-144380857D01*
X104130928Y-144453428D01*
X104058357Y-144526000D01*
X104022071Y-144598571D01*
X104239785Y-143691428D02*
X104239785Y-143618857D01*
X104203500Y-143546285D01*
X104167214Y-143510000D01*
X104094642Y-143473714D01*
X103949500Y-143437428D01*
X103768071Y-143437428D01*
X103622928Y-143473714D01*
X103550357Y-143510000D01*
X103514071Y-143546285D01*
X103477785Y-143618857D01*
X103477785Y-143691428D01*
X103514071Y-143764000D01*
X103550357Y-143800285D01*
X103622928Y-143836571D01*
X103768071Y-143872857D01*
X103949500Y-143872857D01*
X104094642Y-143836571D01*
X104167214Y-143800285D01*
X104203500Y-143764000D01*
X104239785Y-143691428D01*
X113955285Y-147193000D02*
X114318142Y-147447000D01*
X113955285Y-147628428D02*
X114717285Y-147628428D01*
X114717285Y-147338142D01*
X114681000Y-147265571D01*
X114644714Y-147229285D01*
X114572142Y-147193000D01*
X114463285Y-147193000D01*
X114390714Y-147229285D01*
X114354428Y-147265571D01*
X114318142Y-147338142D01*
X114318142Y-147628428D01*
X114644714Y-146902714D02*
X114681000Y-146866428D01*
X114717285Y-146793857D01*
X114717285Y-146612428D01*
X114681000Y-146539857D01*
X114644714Y-146503571D01*
X114572142Y-146467285D01*
X114499571Y-146467285D01*
X114390714Y-146503571D01*
X113955285Y-146939000D01*
X113955285Y-146467285D01*
D11*
X104690333Y-149684619D02*
X105029000Y-149200809D01*
X105270904Y-149684619D02*
X105270904Y-148668619D01*
X104883857Y-148668619D01*
X104787095Y-148717000D01*
X104738714Y-148765380D01*
X104690333Y-148862142D01*
X104690333Y-149007285D01*
X104738714Y-149104047D01*
X104787095Y-149152428D01*
X104883857Y-149200809D01*
X105270904Y-149200809D01*
X103722714Y-149684619D02*
X104303285Y-149684619D01*
X104013000Y-149684619D02*
X104013000Y-148668619D01*
X104109761Y-148813761D01*
X104206523Y-148910523D01*
X104303285Y-148958904D01*
D12*
X96429285Y-115043857D02*
X96792142Y-115297857D01*
X96429285Y-115479285D02*
X97191285Y-115479285D01*
X97191285Y-115189000D01*
X97155000Y-115116428D01*
X97118714Y-115080142D01*
X97046142Y-115043857D01*
X96937285Y-115043857D01*
X96864714Y-115080142D01*
X96828428Y-115116428D01*
X96792142Y-115189000D01*
X96792142Y-115479285D01*
X97118714Y-114753571D02*
X97155000Y-114717285D01*
X97191285Y-114644714D01*
X97191285Y-114463285D01*
X97155000Y-114390714D01*
X97118714Y-114354428D01*
X97046142Y-114318142D01*
X96973571Y-114318142D01*
X96864714Y-114354428D01*
X96429285Y-114789857D01*
X96429285Y-114318142D01*
X96937285Y-113665000D02*
X96429285Y-113665000D01*
X97227571Y-113846428D02*
X96683285Y-114027857D01*
X96683285Y-113556142D01*
X111633000Y-146950611D02*
X111887000Y-146950611D01*
X111887000Y-147349754D02*
X111887000Y-146587754D01*
X111524142Y-146587754D01*
X111233857Y-146950611D02*
X110979857Y-146950611D01*
X110871000Y-147349754D02*
X111233857Y-147349754D01*
X111233857Y-146587754D01*
X110871000Y-146587754D01*
X110653285Y-146587754D02*
X110217857Y-146587754D01*
X110435571Y-147349754D02*
X110435571Y-146587754D01*
X110036428Y-146587754D02*
X109564714Y-146587754D01*
X109818714Y-146878040D01*
X109709857Y-146878040D01*
X109637285Y-146914325D01*
X109601000Y-146950611D01*
X109564714Y-147023182D01*
X109564714Y-147204611D01*
X109601000Y-147277182D01*
X109637285Y-147313468D01*
X109709857Y-147349754D01*
X109927571Y-147349754D01*
X110000142Y-147313468D01*
X110036428Y-147277182D01*
D11*
X116867214Y-121472476D02*
X116867214Y-121049142D01*
X116201976Y-120867714D02*
X116201976Y-121472476D01*
X117471976Y-121472476D01*
X117471976Y-120867714D01*
X117471976Y-120444380D02*
X116201976Y-119597714D01*
X117471976Y-119597714D02*
X116201976Y-120444380D01*
X117471976Y-119295333D02*
X117471976Y-118569619D01*
X116201976Y-118932476D02*
X117471976Y-118932476D01*
X117351023Y-118206761D02*
X117411500Y-118146285D01*
X117471976Y-118025333D01*
X117471976Y-117722952D01*
X117411500Y-117602000D01*
X117351023Y-117541523D01*
X117230071Y-117481047D01*
X117109119Y-117481047D01*
X116927690Y-117541523D01*
X116201976Y-118267238D01*
X116201976Y-117481047D01*
X91530714Y-121472476D02*
X91530714Y-121049142D01*
X90865476Y-120867714D02*
X90865476Y-121472476D01*
X92135476Y-121472476D01*
X92135476Y-120867714D01*
X92135476Y-120444380D02*
X90865476Y-119597714D01*
X92135476Y-119597714D02*
X90865476Y-120444380D01*
X92135476Y-119295333D02*
X92135476Y-118569619D01*
X90865476Y-118932476D02*
X92135476Y-118932476D01*
X90865476Y-117481047D02*
X90865476Y-118206761D01*
X90865476Y-117843904D02*
X92135476Y-117843904D01*
X91954047Y-117964857D01*
X91833095Y-118085809D01*
X91772619Y-118206761D01*
D12*
X96102714Y-117801571D02*
X96139000Y-117874142D01*
X96211571Y-117946714D01*
X96320428Y-118055571D01*
X96356714Y-118128142D01*
X96356714Y-118200714D01*
X96175285Y-118164428D02*
X96211571Y-118237000D01*
X96284142Y-118309571D01*
X96429285Y-118345857D01*
X96683285Y-118345857D01*
X96828428Y-118309571D01*
X96901000Y-118237000D01*
X96937285Y-118164428D01*
X96937285Y-118019285D01*
X96901000Y-117946714D01*
X96828428Y-117874142D01*
X96683285Y-117837857D01*
X96429285Y-117837857D01*
X96284142Y-117874142D01*
X96211571Y-117946714D01*
X96175285Y-118019285D01*
X96175285Y-118164428D01*
X96937285Y-117583857D02*
X96937285Y-117112142D01*
X96647000Y-117366142D01*
X96647000Y-117257285D01*
X96610714Y-117184714D01*
X96574428Y-117148428D01*
X96501857Y-117112142D01*
X96320428Y-117112142D01*
X96247857Y-117148428D01*
X96211571Y-117184714D01*
X96175285Y-117257285D01*
X96175285Y-117475000D01*
X96211571Y-117547571D01*
X96247857Y-117583857D01*
D27*
X103687033Y-120108133D02*
X104025700Y-120108133D01*
X104025700Y-119396933D01*
X103111300Y-119396933D02*
X103449966Y-119396933D01*
X103483833Y-119735600D01*
X103449966Y-119701733D01*
X103382233Y-119667866D01*
X103212900Y-119667866D01*
X103145166Y-119701733D01*
X103111300Y-119735600D01*
X103077433Y-119803333D01*
X103077433Y-119972666D01*
X103111300Y-120040400D01*
X103145166Y-120074266D01*
X103212900Y-120108133D01*
X103382233Y-120108133D01*
X103449966Y-120074266D01*
X103483833Y-120040400D01*
D11*
X117009333Y-178797857D02*
X117057714Y-178846238D01*
X117202857Y-178894619D01*
X117299619Y-178894619D01*
X117444761Y-178846238D01*
X117541523Y-178749476D01*
X117589904Y-178652714D01*
X117638285Y-178459190D01*
X117638285Y-178314047D01*
X117589904Y-178120523D01*
X117541523Y-178023761D01*
X117444761Y-177927000D01*
X117299619Y-177878619D01*
X117202857Y-177878619D01*
X117057714Y-177927000D01*
X117009333Y-177975380D01*
X116622285Y-177975380D02*
X116573904Y-177927000D01*
X116477142Y-177878619D01*
X116235238Y-177878619D01*
X116138476Y-177927000D01*
X116090095Y-177975380D01*
X116041714Y-178072142D01*
X116041714Y-178168904D01*
X116090095Y-178314047D01*
X116670666Y-178894619D01*
X116041714Y-178894619D01*
X111300380Y-115878428D02*
X112316380Y-115878428D01*
X111590666Y-115539761D01*
X112316380Y-115201095D01*
X111300380Y-115201095D01*
X111300380Y-114717285D02*
X112316380Y-114717285D01*
X111397142Y-113652904D02*
X111348761Y-113701285D01*
X111300380Y-113846428D01*
X111300380Y-113943190D01*
X111348761Y-114088333D01*
X111445523Y-114185095D01*
X111542285Y-114233476D01*
X111735809Y-114281857D01*
X111880952Y-114281857D01*
X112074476Y-114233476D01*
X112171238Y-114185095D01*
X112268000Y-114088333D01*
X112316380Y-113943190D01*
X112316380Y-113846428D01*
X112268000Y-113701285D01*
X112219619Y-113652904D01*
X111300380Y-112636904D02*
X111784190Y-112975571D01*
X111300380Y-113217476D02*
X112316380Y-113217476D01*
X112316380Y-112830428D01*
X112268000Y-112733666D01*
X112219619Y-112685285D01*
X112122857Y-112636904D01*
X111977714Y-112636904D01*
X111880952Y-112685285D01*
X111832571Y-112733666D01*
X111784190Y-112830428D01*
X111784190Y-113217476D01*
X112316380Y-112007952D02*
X112316380Y-111814428D01*
X112268000Y-111717666D01*
X112171238Y-111620904D01*
X111977714Y-111572523D01*
X111639047Y-111572523D01*
X111445523Y-111620904D01*
X111348761Y-111717666D01*
X111300380Y-111814428D01*
X111300380Y-112007952D01*
X111348761Y-112104714D01*
X111445523Y-112201476D01*
X111639047Y-112249857D01*
X111977714Y-112249857D01*
X112171238Y-112201476D01*
X112268000Y-112104714D01*
X112316380Y-112007952D01*
X111203619Y-111379000D02*
X111203619Y-110604904D01*
X111348761Y-110411380D02*
X111300380Y-110266238D01*
X111300380Y-110024333D01*
X111348761Y-109927571D01*
X111397142Y-109879190D01*
X111493904Y-109830809D01*
X111590666Y-109830809D01*
X111687428Y-109879190D01*
X111735809Y-109927571D01*
X111784190Y-110024333D01*
X111832571Y-110217857D01*
X111880952Y-110314619D01*
X111929333Y-110363000D01*
X112026095Y-110411380D01*
X112122857Y-110411380D01*
X112219619Y-110363000D01*
X112268000Y-110314619D01*
X112316380Y-110217857D01*
X112316380Y-109975952D01*
X112268000Y-109830809D01*
X111300380Y-109395380D02*
X112316380Y-109395380D01*
X112316380Y-109153476D01*
X112268000Y-109008333D01*
X112171238Y-108911571D01*
X112074476Y-108863190D01*
X111880952Y-108814809D01*
X111735809Y-108814809D01*
X111542285Y-108863190D01*
X111445523Y-108911571D01*
X111348761Y-109008333D01*
X111300380Y-109153476D01*
X111300380Y-109395380D01*
X111300380Y-107847190D02*
X111300380Y-108427761D01*
X111300380Y-108137476D02*
X112316380Y-108137476D01*
X112171238Y-108234238D01*
X112074476Y-108331000D01*
X112026095Y-108427761D01*
D28*
X108116190Y-113513190D02*
X108116190Y-113013190D01*
X107830476Y-113513190D01*
X107830476Y-113013190D01*
X107520952Y-113513190D02*
X107568571Y-113489380D01*
X107592380Y-113465571D01*
X107616190Y-113417952D01*
X107616190Y-113275095D01*
X107592380Y-113227476D01*
X107568571Y-113203666D01*
X107520952Y-113179857D01*
X107449523Y-113179857D01*
X107401904Y-113203666D01*
X107378095Y-113227476D01*
X107354285Y-113275095D01*
X107354285Y-113417952D01*
X107378095Y-113465571D01*
X107401904Y-113489380D01*
X107449523Y-113513190D01*
X107520952Y-113513190D01*
X107140000Y-113513190D02*
X107140000Y-113179857D01*
X107140000Y-113275095D02*
X107116190Y-113227476D01*
X107092380Y-113203666D01*
X107044761Y-113179857D01*
X106997142Y-113179857D01*
X106830476Y-113513190D02*
X106830476Y-113179857D01*
X106830476Y-113227476D02*
X106806666Y-113203666D01*
X106759047Y-113179857D01*
X106687619Y-113179857D01*
X106640000Y-113203666D01*
X106616190Y-113251285D01*
X106616190Y-113513190D01*
X106616190Y-113251285D02*
X106592380Y-113203666D01*
X106544761Y-113179857D01*
X106473333Y-113179857D01*
X106425714Y-113203666D01*
X106401904Y-113251285D01*
X106401904Y-113513190D01*
X105949523Y-113513190D02*
X105949523Y-113251285D01*
X105973333Y-113203666D01*
X106020952Y-113179857D01*
X106116190Y-113179857D01*
X106163809Y-113203666D01*
X105949523Y-113489380D02*
X105997142Y-113513190D01*
X106116190Y-113513190D01*
X106163809Y-113489380D01*
X106187619Y-113441761D01*
X106187619Y-113394142D01*
X106163809Y-113346523D01*
X106116190Y-113322714D01*
X105997142Y-113322714D01*
X105949523Y-113298904D01*
X105640000Y-113513190D02*
X105687619Y-113489380D01*
X105711428Y-113441761D01*
X105711428Y-113013190D01*
X104973333Y-113013190D02*
X104878095Y-113013190D01*
X104830476Y-113037000D01*
X104782857Y-113084619D01*
X104759047Y-113179857D01*
X104759047Y-113346523D01*
X104782857Y-113441761D01*
X104830476Y-113489380D01*
X104878095Y-113513190D01*
X104973333Y-113513190D01*
X105020952Y-113489380D01*
X105068571Y-113441761D01*
X105092380Y-113346523D01*
X105092380Y-113179857D01*
X105068571Y-113084619D01*
X105020952Y-113037000D01*
X104973333Y-113013190D01*
X104544761Y-113179857D02*
X104544761Y-113679857D01*
X104544761Y-113203666D02*
X104497142Y-113179857D01*
X104401904Y-113179857D01*
X104354285Y-113203666D01*
X104330476Y-113227476D01*
X104306666Y-113275095D01*
X104306666Y-113417952D01*
X104330476Y-113465571D01*
X104354285Y-113489380D01*
X104401904Y-113513190D01*
X104497142Y-113513190D01*
X104544761Y-113489380D01*
X103901904Y-113489380D02*
X103949523Y-113513190D01*
X104044761Y-113513190D01*
X104092380Y-113489380D01*
X104116190Y-113441761D01*
X104116190Y-113251285D01*
X104092380Y-113203666D01*
X104044761Y-113179857D01*
X103949523Y-113179857D01*
X103901904Y-113203666D01*
X103878095Y-113251285D01*
X103878095Y-113298904D01*
X104116190Y-113346523D01*
X103663809Y-113179857D02*
X103663809Y-113513190D01*
X103663809Y-113227476D02*
X103640000Y-113203666D01*
X103592380Y-113179857D01*
X103520952Y-113179857D01*
X103473333Y-113203666D01*
X103449523Y-113251285D01*
X103449523Y-113513190D01*
X102854285Y-113489380D02*
X102782857Y-113513190D01*
X102663809Y-113513190D01*
X102616190Y-113489380D01*
X102592380Y-113465571D01*
X102568571Y-113417952D01*
X102568571Y-113370333D01*
X102592380Y-113322714D01*
X102616190Y-113298904D01*
X102663809Y-113275095D01*
X102759047Y-113251285D01*
X102806666Y-113227476D01*
X102830476Y-113203666D01*
X102854285Y-113156047D01*
X102854285Y-113108428D01*
X102830476Y-113060809D01*
X102806666Y-113037000D01*
X102759047Y-113013190D01*
X102640000Y-113013190D01*
X102568571Y-113037000D01*
X102401904Y-113179857D02*
X102306666Y-113513190D01*
X102211428Y-113275095D01*
X102116190Y-113513190D01*
X102020952Y-113179857D01*
X101830476Y-113513190D02*
X101830476Y-113179857D01*
X101830476Y-113013190D02*
X101854285Y-113037000D01*
X101830476Y-113060809D01*
X101806666Y-113037000D01*
X101830476Y-113013190D01*
X101830476Y-113060809D01*
X101663809Y-113179857D02*
X101473333Y-113179857D01*
X101592380Y-113013190D02*
X101592380Y-113441761D01*
X101568571Y-113489380D01*
X101520952Y-113513190D01*
X101473333Y-113513190D01*
X101092380Y-113489380D02*
X101140000Y-113513190D01*
X101235238Y-113513190D01*
X101282857Y-113489380D01*
X101306666Y-113465571D01*
X101330476Y-113417952D01*
X101330476Y-113275095D01*
X101306666Y-113227476D01*
X101282857Y-113203666D01*
X101235238Y-113179857D01*
X101140000Y-113179857D01*
X101092380Y-113203666D01*
X100878095Y-113513190D02*
X100878095Y-113013190D01*
X100663809Y-113513190D02*
X100663809Y-113251285D01*
X100687619Y-113203666D01*
X100735238Y-113179857D01*
X100806666Y-113179857D01*
X100854285Y-113203666D01*
X100878095Y-113227476D01*
X106211428Y-114465571D02*
X106235238Y-114489380D01*
X106306666Y-114513190D01*
X106354285Y-114513190D01*
X106425714Y-114489380D01*
X106473333Y-114441761D01*
X106497142Y-114394142D01*
X106520952Y-114298904D01*
X106520952Y-114227476D01*
X106497142Y-114132238D01*
X106473333Y-114084619D01*
X106425714Y-114037000D01*
X106354285Y-114013190D01*
X106306666Y-114013190D01*
X106235238Y-114037000D01*
X106211428Y-114060809D01*
X105782857Y-114513190D02*
X105782857Y-114251285D01*
X105806666Y-114203666D01*
X105854285Y-114179857D01*
X105949523Y-114179857D01*
X105997142Y-114203666D01*
X105782857Y-114489380D02*
X105830476Y-114513190D01*
X105949523Y-114513190D01*
X105997142Y-114489380D01*
X106020952Y-114441761D01*
X106020952Y-114394142D01*
X105997142Y-114346523D01*
X105949523Y-114322714D01*
X105830476Y-114322714D01*
X105782857Y-114298904D01*
X105544761Y-114513190D02*
X105544761Y-114179857D01*
X105544761Y-114275095D02*
X105520952Y-114227476D01*
X105497142Y-114203666D01*
X105449523Y-114179857D01*
X105401904Y-114179857D01*
X105020952Y-114513190D02*
X105020952Y-114013190D01*
X105020952Y-114489380D02*
X105068571Y-114513190D01*
X105163809Y-114513190D01*
X105211428Y-114489380D01*
X105235238Y-114465571D01*
X105259047Y-114417952D01*
X105259047Y-114275095D01*
X105235238Y-114227476D01*
X105211428Y-114203666D01*
X105163809Y-114179857D01*
X105068571Y-114179857D01*
X105020952Y-114203666D01*
X104401904Y-114513190D02*
X104401904Y-114013190D01*
X104282857Y-114013190D01*
X104211428Y-114037000D01*
X104163809Y-114084619D01*
X104140000Y-114132238D01*
X104116190Y-114227476D01*
X104116190Y-114298904D01*
X104140000Y-114394142D01*
X104163809Y-114441761D01*
X104211428Y-114489380D01*
X104282857Y-114513190D01*
X104401904Y-114513190D01*
X103711428Y-114489380D02*
X103759047Y-114513190D01*
X103854285Y-114513190D01*
X103901904Y-114489380D01*
X103925714Y-114441761D01*
X103925714Y-114251285D01*
X103901904Y-114203666D01*
X103854285Y-114179857D01*
X103759047Y-114179857D01*
X103711428Y-114203666D01*
X103687619Y-114251285D01*
X103687619Y-114298904D01*
X103925714Y-114346523D01*
X103544761Y-114179857D02*
X103354285Y-114179857D01*
X103473333Y-114013190D02*
X103473333Y-114441761D01*
X103449523Y-114489380D01*
X103401904Y-114513190D01*
X103354285Y-114513190D01*
X102997142Y-114489380D02*
X103044761Y-114513190D01*
X103140000Y-114513190D01*
X103187619Y-114489380D01*
X103211428Y-114441761D01*
X103211428Y-114251285D01*
X103187619Y-114203666D01*
X103140000Y-114179857D01*
X103044761Y-114179857D01*
X102997142Y-114203666D01*
X102973333Y-114251285D01*
X102973333Y-114298904D01*
X103211428Y-114346523D01*
X102544761Y-114489380D02*
X102592380Y-114513190D01*
X102687619Y-114513190D01*
X102735238Y-114489380D01*
X102759047Y-114465571D01*
X102782857Y-114417952D01*
X102782857Y-114275095D01*
X102759047Y-114227476D01*
X102735238Y-114203666D01*
X102687619Y-114179857D01*
X102592380Y-114179857D01*
X102544761Y-114203666D01*
X102401904Y-114179857D02*
X102211428Y-114179857D01*
X102330476Y-114013190D02*
X102330476Y-114441761D01*
X102306666Y-114489380D01*
X102259047Y-114513190D01*
X102211428Y-114513190D01*
D12*
X111233857Y-133585857D02*
X111197571Y-133622142D01*
X111161285Y-133731000D01*
X111161285Y-133803571D01*
X111197571Y-133912428D01*
X111270142Y-133985000D01*
X111342714Y-134021285D01*
X111487857Y-134057571D01*
X111596714Y-134057571D01*
X111741857Y-134021285D01*
X111814428Y-133985000D01*
X111887000Y-133912428D01*
X111923285Y-133803571D01*
X111923285Y-133731000D01*
X111887000Y-133622142D01*
X111850714Y-133585857D01*
X111850714Y-133295571D02*
X111887000Y-133259285D01*
X111923285Y-133186714D01*
X111923285Y-133005285D01*
X111887000Y-132932714D01*
X111850714Y-132896428D01*
X111778142Y-132860142D01*
X111705571Y-132860142D01*
X111596714Y-132896428D01*
X111161285Y-133331857D01*
X111161285Y-132860142D01*
X111161285Y-132134428D02*
X111161285Y-132569857D01*
X111161285Y-132352142D02*
X111923285Y-132352142D01*
X111814428Y-132424714D01*
X111741857Y-132497285D01*
X111705571Y-132569857D01*
X97898857Y-134892142D02*
X97935142Y-134928428D01*
X98044000Y-134964714D01*
X98116571Y-134964714D01*
X98225428Y-134928428D01*
X98298000Y-134855857D01*
X98334285Y-134783285D01*
X98370571Y-134638142D01*
X98370571Y-134529285D01*
X98334285Y-134384142D01*
X98298000Y-134311571D01*
X98225428Y-134239000D01*
X98116571Y-134202714D01*
X98044000Y-134202714D01*
X97935142Y-134239000D01*
X97898857Y-134275285D01*
X97173142Y-134964714D02*
X97608571Y-134964714D01*
X97390857Y-134964714D02*
X97390857Y-134202714D01*
X97463428Y-134311571D01*
X97536000Y-134384142D01*
X97608571Y-134420428D01*
X96919142Y-134202714D02*
X96411142Y-134202714D01*
X96737714Y-134964714D01*
X105899857Y-146385642D02*
X105936142Y-146421928D01*
X106045000Y-146458214D01*
X106117571Y-146458214D01*
X106226428Y-146421928D01*
X106299000Y-146349357D01*
X106335285Y-146276785D01*
X106371571Y-146131642D01*
X106371571Y-146022785D01*
X106335285Y-145877642D01*
X106299000Y-145805071D01*
X106226428Y-145732500D01*
X106117571Y-145696214D01*
X106045000Y-145696214D01*
X105936142Y-145732500D01*
X105899857Y-145768785D01*
X105174142Y-146458214D02*
X105609571Y-146458214D01*
X105391857Y-146458214D02*
X105391857Y-145696214D01*
X105464428Y-145805071D01*
X105537000Y-145877642D01*
X105609571Y-145913928D01*
X104920142Y-145696214D02*
X104448428Y-145696214D01*
X104702428Y-145986500D01*
X104593571Y-145986500D01*
X104521000Y-146022785D01*
X104484714Y-146059071D01*
X104448428Y-146131642D01*
X104448428Y-146313071D01*
X104484714Y-146385642D01*
X104521000Y-146421928D01*
X104593571Y-146458214D01*
X104811285Y-146458214D01*
X104883857Y-146421928D01*
X104920142Y-146385642D01*
X110344857Y-137858500D02*
X110308571Y-137894785D01*
X110272285Y-138003642D01*
X110272285Y-138076214D01*
X110308571Y-138185071D01*
X110381142Y-138257642D01*
X110453714Y-138293928D01*
X110598857Y-138330214D01*
X110707714Y-138330214D01*
X110852857Y-138293928D01*
X110925428Y-138257642D01*
X110998000Y-138185071D01*
X111034285Y-138076214D01*
X111034285Y-138003642D01*
X110998000Y-137894785D01*
X110961714Y-137858500D01*
X110272285Y-137495642D02*
X110272285Y-137350500D01*
X110308571Y-137277928D01*
X110344857Y-137241642D01*
X110453714Y-137169071D01*
X110598857Y-137132785D01*
X110889142Y-137132785D01*
X110961714Y-137169071D01*
X110998000Y-137205357D01*
X111034285Y-137277928D01*
X111034285Y-137423071D01*
X110998000Y-137495642D01*
X110961714Y-137531928D01*
X110889142Y-137568214D01*
X110707714Y-137568214D01*
X110635142Y-137531928D01*
X110598857Y-137495642D01*
X110562571Y-137423071D01*
X110562571Y-137277928D01*
X110598857Y-137205357D01*
X110635142Y-137169071D01*
X110707714Y-137132785D01*
D11*
X108061880Y-130162904D02*
X108545690Y-130501571D01*
X108061880Y-130743476D02*
X109077880Y-130743476D01*
X109077880Y-130356428D01*
X109029500Y-130259666D01*
X108981119Y-130211285D01*
X108884357Y-130162904D01*
X108739214Y-130162904D01*
X108642452Y-130211285D01*
X108594071Y-130259666D01*
X108545690Y-130356428D01*
X108545690Y-130743476D01*
X108061880Y-129727476D02*
X109077880Y-129727476D01*
X108352166Y-129388809D01*
X109077880Y-129050142D01*
X108061880Y-129050142D01*
X108981119Y-128614714D02*
X109029500Y-128566333D01*
X109077880Y-128469571D01*
X109077880Y-128227666D01*
X109029500Y-128130904D01*
X108981119Y-128082523D01*
X108884357Y-128034142D01*
X108787595Y-128034142D01*
X108642452Y-128082523D01*
X108061880Y-128663095D01*
X108061880Y-128034142D01*
D12*
X99005571Y-125766285D02*
X99078142Y-125730000D01*
X99150714Y-125657428D01*
X99259571Y-125548571D01*
X99332142Y-125512285D01*
X99404714Y-125512285D01*
X99368428Y-125693714D02*
X99441000Y-125657428D01*
X99513571Y-125584857D01*
X99549857Y-125439714D01*
X99549857Y-125185714D01*
X99513571Y-125040571D01*
X99441000Y-124968000D01*
X99368428Y-124931714D01*
X99223285Y-124931714D01*
X99150714Y-124968000D01*
X99078142Y-125040571D01*
X99041857Y-125185714D01*
X99041857Y-125439714D01*
X99078142Y-125584857D01*
X99150714Y-125657428D01*
X99223285Y-125693714D01*
X99368428Y-125693714D01*
X98751571Y-125004285D02*
X98715285Y-124968000D01*
X98642714Y-124931714D01*
X98461285Y-124931714D01*
X98388714Y-124968000D01*
X98352428Y-125004285D01*
X98316142Y-125076857D01*
X98316142Y-125149428D01*
X98352428Y-125258285D01*
X98787857Y-125693714D01*
X98316142Y-125693714D01*
X111887000Y-142076714D02*
X112249857Y-142076714D01*
X112249857Y-141314714D01*
X111233857Y-142076714D02*
X111669285Y-142076714D01*
X111451571Y-142076714D02*
X111451571Y-141314714D01*
X111524142Y-141423571D01*
X111596714Y-141496142D01*
X111669285Y-141532428D01*
X100756357Y-105437214D02*
X101010357Y-105074357D01*
X101191785Y-105437214D02*
X101191785Y-104675214D01*
X100901500Y-104675214D01*
X100828928Y-104711500D01*
X100792642Y-104747785D01*
X100756357Y-104820357D01*
X100756357Y-104929214D01*
X100792642Y-105001785D01*
X100828928Y-105038071D01*
X100901500Y-105074357D01*
X101191785Y-105074357D01*
X100103214Y-104929214D02*
X100103214Y-105437214D01*
X100284642Y-104638928D02*
X100466071Y-105183214D01*
X99994357Y-105183214D01*
X99667785Y-105437214D02*
X99522642Y-105437214D01*
X99450071Y-105400928D01*
X99413785Y-105364642D01*
X99341214Y-105255785D01*
X99304928Y-105110642D01*
X99304928Y-104820357D01*
X99341214Y-104747785D01*
X99377500Y-104711500D01*
X99450071Y-104675214D01*
X99595214Y-104675214D01*
X99667785Y-104711500D01*
X99704071Y-104747785D01*
X99740357Y-104820357D01*
X99740357Y-105001785D01*
X99704071Y-105074357D01*
X99667785Y-105110642D01*
X99595214Y-105146928D01*
X99450071Y-105146928D01*
X99377500Y-105110642D01*
X99341214Y-105074357D01*
X99304928Y-105001785D01*
D11*
X108636404Y-122887619D02*
X108636404Y-121871619D01*
X108394500Y-121871619D01*
X108249357Y-121920000D01*
X108152595Y-122016761D01*
X108104214Y-122113523D01*
X108055833Y-122307047D01*
X108055833Y-122452190D01*
X108104214Y-122645714D01*
X108152595Y-122742476D01*
X108249357Y-122839238D01*
X108394500Y-122887619D01*
X108636404Y-122887619D01*
X107184976Y-122210285D02*
X107184976Y-122887619D01*
X107426880Y-121823238D02*
X107668785Y-122548952D01*
X107039833Y-122548952D01*
D12*
X109582857Y-121121714D02*
X109836857Y-120758857D01*
X110018285Y-121121714D02*
X110018285Y-120359714D01*
X109728000Y-120359714D01*
X109655428Y-120396000D01*
X109619142Y-120432285D01*
X109582857Y-120504857D01*
X109582857Y-120613714D01*
X109619142Y-120686285D01*
X109655428Y-120722571D01*
X109728000Y-120758857D01*
X110018285Y-120758857D01*
X109328857Y-120359714D02*
X108857142Y-120359714D01*
X109111142Y-120650000D01*
X109002285Y-120650000D01*
X108929714Y-120686285D01*
X108893428Y-120722571D01*
X108857142Y-120795142D01*
X108857142Y-120976571D01*
X108893428Y-121049142D01*
X108929714Y-121085428D01*
X109002285Y-121121714D01*
X109220000Y-121121714D01*
X109292571Y-121085428D01*
X109328857Y-121049142D01*
X108603142Y-120359714D02*
X108095142Y-120359714D01*
X108421714Y-121121714D01*
X102271285Y-138502571D02*
X101654428Y-138502571D01*
X101581857Y-138466285D01*
X101545571Y-138430000D01*
X101509285Y-138357428D01*
X101509285Y-138212285D01*
X101545571Y-138139714D01*
X101581857Y-138103428D01*
X101654428Y-138067142D01*
X102271285Y-138067142D01*
X102017285Y-137377714D02*
X101509285Y-137377714D01*
X102307571Y-137559142D02*
X101763285Y-137740571D01*
X101763285Y-137268857D01*
D27*
X100897266Y-120853200D02*
X101235933Y-121090266D01*
X100897266Y-121259600D02*
X101608466Y-121259600D01*
X101608466Y-120988666D01*
X101574600Y-120920933D01*
X101540733Y-120887066D01*
X101473000Y-120853200D01*
X101371400Y-120853200D01*
X101303666Y-120887066D01*
X101269800Y-120920933D01*
X101235933Y-120988666D01*
X101235933Y-121259600D01*
X101540733Y-120582266D02*
X101574600Y-120548400D01*
X101608466Y-120480666D01*
X101608466Y-120311333D01*
X101574600Y-120243600D01*
X101540733Y-120209733D01*
X101473000Y-120175866D01*
X101405266Y-120175866D01*
X101303666Y-120209733D01*
X100897266Y-120616133D01*
X100897266Y-120175866D01*
X100897266Y-119498533D02*
X100897266Y-119904933D01*
X100897266Y-119701733D02*
X101608466Y-119701733D01*
X101506866Y-119769466D01*
X101439133Y-119837200D01*
X101405266Y-119904933D01*
D12*
X95612857Y-120994714D02*
X95866857Y-120631857D01*
X96048285Y-120994714D02*
X96048285Y-120232714D01*
X95758000Y-120232714D01*
X95685428Y-120269000D01*
X95649142Y-120305285D01*
X95612857Y-120377857D01*
X95612857Y-120486714D01*
X95649142Y-120559285D01*
X95685428Y-120595571D01*
X95758000Y-120631857D01*
X96048285Y-120631857D01*
X95322571Y-120305285D02*
X95286285Y-120269000D01*
X95213714Y-120232714D01*
X95032285Y-120232714D01*
X94959714Y-120269000D01*
X94923428Y-120305285D01*
X94887142Y-120377857D01*
X94887142Y-120450428D01*
X94923428Y-120559285D01*
X95358857Y-120994714D01*
X94887142Y-120994714D01*
X94415428Y-120232714D02*
X94342857Y-120232714D01*
X94270285Y-120269000D01*
X94234000Y-120305285D01*
X94197714Y-120377857D01*
X94161428Y-120523000D01*
X94161428Y-120704428D01*
X94197714Y-120849571D01*
X94234000Y-120922142D01*
X94270285Y-120958428D01*
X94342857Y-120994714D01*
X94415428Y-120994714D01*
X94488000Y-120958428D01*
X94524285Y-120922142D01*
X94560571Y-120849571D01*
X94596857Y-120704428D01*
X94596857Y-120523000D01*
X94560571Y-120377857D01*
X94524285Y-120305285D01*
X94488000Y-120269000D01*
X94415428Y-120232714D01*
X91349285Y-116513428D02*
X92111285Y-116513428D01*
X92111285Y-116332000D01*
X92075000Y-116223142D01*
X92002428Y-116150571D01*
X91929857Y-116114285D01*
X91784714Y-116078000D01*
X91675857Y-116078000D01*
X91530714Y-116114285D01*
X91458142Y-116150571D01*
X91385571Y-116223142D01*
X91349285Y-116332000D01*
X91349285Y-116513428D01*
X92038714Y-115787714D02*
X92075000Y-115751428D01*
X92111285Y-115678857D01*
X92111285Y-115497428D01*
X92075000Y-115424857D01*
X92038714Y-115388571D01*
X91966142Y-115352285D01*
X91893571Y-115352285D01*
X91784714Y-115388571D01*
X91349285Y-115824000D01*
X91349285Y-115352285D01*
X112558285Y-138248571D02*
X112558285Y-137813142D01*
X111796285Y-138030857D02*
X112558285Y-138030857D01*
X111796285Y-137160000D02*
X111796285Y-137595428D01*
X111796285Y-137377714D02*
X112558285Y-137377714D01*
X112449428Y-137450285D01*
X112376857Y-137522857D01*
X112340571Y-137595428D01*
D11*
X108887380Y-118732904D02*
X109371190Y-119071571D01*
X108887380Y-119313476D02*
X109903380Y-119313476D01*
X109903380Y-118926428D01*
X109855000Y-118829666D01*
X109806619Y-118781285D01*
X109709857Y-118732904D01*
X109564714Y-118732904D01*
X109467952Y-118781285D01*
X109419571Y-118829666D01*
X109371190Y-118926428D01*
X109371190Y-119313476D01*
X108887380Y-118297476D02*
X109903380Y-118297476D01*
X109177666Y-117958809D01*
X109903380Y-117620142D01*
X108887380Y-117620142D01*
X109903380Y-117233095D02*
X109903380Y-116604142D01*
X109516333Y-116942809D01*
X109516333Y-116797666D01*
X109467952Y-116700904D01*
X109419571Y-116652523D01*
X109322809Y-116604142D01*
X109080904Y-116604142D01*
X108984142Y-116652523D01*
X108935761Y-116700904D01*
X108887380Y-116797666D01*
X108887380Y-117087952D01*
X108935761Y-117184714D01*
X108984142Y-117233095D01*
X100825904Y-128856619D02*
X101164571Y-128372809D01*
X101406476Y-128856619D02*
X101406476Y-127840619D01*
X101019428Y-127840619D01*
X100922666Y-127889000D01*
X100874285Y-127937380D01*
X100825904Y-128034142D01*
X100825904Y-128179285D01*
X100874285Y-128276047D01*
X100922666Y-128324428D01*
X101019428Y-128372809D01*
X101406476Y-128372809D01*
X100390476Y-128856619D02*
X100390476Y-127840619D01*
X100051809Y-128566333D01*
X99713142Y-127840619D01*
X99713142Y-128856619D01*
X98697142Y-128856619D02*
X99277714Y-128856619D01*
X98987428Y-128856619D02*
X98987428Y-127840619D01*
X99084190Y-127985761D01*
X99180952Y-128082523D01*
X99277714Y-128130904D01*
D12*
X100257428Y-143727714D02*
X100257428Y-142965714D01*
X100076000Y-142965714D01*
X99967142Y-143002000D01*
X99894571Y-143074571D01*
X99858285Y-143147142D01*
X99822000Y-143292285D01*
X99822000Y-143401142D01*
X99858285Y-143546285D01*
X99894571Y-143618857D01*
X99967142Y-143691428D01*
X100076000Y-143727714D01*
X100257428Y-143727714D01*
X99386571Y-143292285D02*
X99459142Y-143256000D01*
X99495428Y-143219714D01*
X99531714Y-143147142D01*
X99531714Y-143110857D01*
X99495428Y-143038285D01*
X99459142Y-143002000D01*
X99386571Y-142965714D01*
X99241428Y-142965714D01*
X99168857Y-143002000D01*
X99132571Y-143038285D01*
X99096285Y-143110857D01*
X99096285Y-143147142D01*
X99132571Y-143219714D01*
X99168857Y-143256000D01*
X99241428Y-143292285D01*
X99386571Y-143292285D01*
X99459142Y-143328571D01*
X99495428Y-143364857D01*
X99531714Y-143437428D01*
X99531714Y-143582571D01*
X99495428Y-143655142D01*
X99459142Y-143691428D01*
X99386571Y-143727714D01*
X99241428Y-143727714D01*
X99168857Y-143691428D01*
X99132571Y-143655142D01*
X99096285Y-143582571D01*
X99096285Y-143437428D01*
X99132571Y-143364857D01*
X99168857Y-143328571D01*
X99241428Y-143292285D01*
X90714285Y-109147428D02*
X91476285Y-109147428D01*
X91476285Y-108966000D01*
X91440000Y-108857142D01*
X91367428Y-108784571D01*
X91294857Y-108748285D01*
X91149714Y-108712000D01*
X91040857Y-108712000D01*
X90895714Y-108748285D01*
X90823142Y-108784571D01*
X90750571Y-108857142D01*
X90714285Y-108966000D01*
X90714285Y-109147428D01*
X90714285Y-108349142D02*
X90714285Y-108204000D01*
X90750571Y-108131428D01*
X90786857Y-108095142D01*
X90895714Y-108022571D01*
X91040857Y-107986285D01*
X91331142Y-107986285D01*
X91403714Y-108022571D01*
X91440000Y-108058857D01*
X91476285Y-108131428D01*
X91476285Y-108276571D01*
X91440000Y-108349142D01*
X91403714Y-108385428D01*
X91331142Y-108421714D01*
X91149714Y-108421714D01*
X91077142Y-108385428D01*
X91040857Y-108349142D01*
X91004571Y-108276571D01*
X91004571Y-108131428D01*
X91040857Y-108058857D01*
X91077142Y-108022571D01*
X91149714Y-107986285D01*
X102108000Y-174207714D02*
X101672571Y-174207714D01*
X101890285Y-174969714D02*
X101890285Y-174207714D01*
X101527428Y-174207714D02*
X101273428Y-174969714D01*
X101019428Y-174207714D01*
X100801714Y-174933428D02*
X100692857Y-174969714D01*
X100511428Y-174969714D01*
X100438857Y-174933428D01*
X100402571Y-174897142D01*
X100366285Y-174824571D01*
X100366285Y-174752000D01*
X100402571Y-174679428D01*
X100438857Y-174643142D01*
X100511428Y-174606857D01*
X100656571Y-174570571D01*
X100729142Y-174534285D01*
X100765428Y-174498000D01*
X100801714Y-174425428D01*
X100801714Y-174352857D01*
X100765428Y-174280285D01*
X100729142Y-174244000D01*
X100656571Y-174207714D01*
X100475142Y-174207714D01*
X100366285Y-174244000D01*
X100076000Y-174280285D02*
X100039714Y-174244000D01*
X99967142Y-174207714D01*
X99785714Y-174207714D01*
X99713142Y-174244000D01*
X99676857Y-174280285D01*
X99640571Y-174352857D01*
X99640571Y-174425428D01*
X99676857Y-174534285D01*
X100112285Y-174969714D01*
X99640571Y-174969714D01*
X99314000Y-179795714D02*
X98878571Y-179795714D01*
X99096285Y-180557714D02*
X99096285Y-179795714D01*
X98733428Y-179795714D02*
X98479428Y-180557714D01*
X98225428Y-179795714D01*
X98007714Y-180521428D02*
X97898857Y-180557714D01*
X97717428Y-180557714D01*
X97644857Y-180521428D01*
X97608571Y-180485142D01*
X97572285Y-180412571D01*
X97572285Y-180340000D01*
X97608571Y-180267428D01*
X97644857Y-180231142D01*
X97717428Y-180194857D01*
X97862571Y-180158571D01*
X97935142Y-180122285D01*
X97971428Y-180086000D01*
X98007714Y-180013428D01*
X98007714Y-179940857D01*
X97971428Y-179868285D01*
X97935142Y-179832000D01*
X97862571Y-179795714D01*
X97681142Y-179795714D01*
X97572285Y-179832000D01*
X97318285Y-179795714D02*
X96846571Y-179795714D01*
X97100571Y-180086000D01*
X96991714Y-180086000D01*
X96919142Y-180122285D01*
X96882857Y-180158571D01*
X96846571Y-180231142D01*
X96846571Y-180412571D01*
X96882857Y-180485142D01*
X96919142Y-180521428D01*
X96991714Y-180557714D01*
X97209428Y-180557714D01*
X97282000Y-180521428D01*
X97318285Y-180485142D01*
X112313357Y-167240857D02*
X112277071Y-167277142D01*
X112240785Y-167386000D01*
X112240785Y-167458571D01*
X112277071Y-167567428D01*
X112349642Y-167640000D01*
X112422214Y-167676285D01*
X112567357Y-167712571D01*
X112676214Y-167712571D01*
X112821357Y-167676285D01*
X112893928Y-167640000D01*
X112966500Y-167567428D01*
X113002785Y-167458571D01*
X113002785Y-167386000D01*
X112966500Y-167277142D01*
X112930214Y-167240857D01*
X112930214Y-166950571D02*
X112966500Y-166914285D01*
X113002785Y-166841714D01*
X113002785Y-166660285D01*
X112966500Y-166587714D01*
X112930214Y-166551428D01*
X112857642Y-166515142D01*
X112785071Y-166515142D01*
X112676214Y-166551428D01*
X112240785Y-166986857D01*
X112240785Y-166515142D01*
X113002785Y-165825714D02*
X113002785Y-166188571D01*
X112639928Y-166224857D01*
X112676214Y-166188571D01*
X112712500Y-166116000D01*
X112712500Y-165934571D01*
X112676214Y-165862000D01*
X112639928Y-165825714D01*
X112567357Y-165789428D01*
X112385928Y-165789428D01*
X112313357Y-165825714D01*
X112277071Y-165862000D01*
X112240785Y-165934571D01*
X112240785Y-166116000D01*
X112277071Y-166188571D01*
X112313357Y-166224857D01*
X111923285Y-174860857D02*
X112286142Y-175114857D01*
X111923285Y-175296285D02*
X112685285Y-175296285D01*
X112685285Y-175006000D01*
X112649000Y-174933428D01*
X112612714Y-174897142D01*
X112540142Y-174860857D01*
X112431285Y-174860857D01*
X112358714Y-174897142D01*
X112322428Y-174933428D01*
X112286142Y-175006000D01*
X112286142Y-175296285D01*
X112612714Y-174570571D02*
X112649000Y-174534285D01*
X112685285Y-174461714D01*
X112685285Y-174280285D01*
X112649000Y-174207714D01*
X112612714Y-174171428D01*
X112540142Y-174135142D01*
X112467571Y-174135142D01*
X112358714Y-174171428D01*
X111923285Y-174606857D01*
X111923285Y-174135142D01*
X112612714Y-173844857D02*
X112649000Y-173808571D01*
X112685285Y-173736000D01*
X112685285Y-173554571D01*
X112649000Y-173482000D01*
X112612714Y-173445714D01*
X112540142Y-173409428D01*
X112467571Y-173409428D01*
X112358714Y-173445714D01*
X111923285Y-173881142D01*
X111923285Y-173409428D01*
X114590285Y-175241857D02*
X114953142Y-175495857D01*
X114590285Y-175677285D02*
X115352285Y-175677285D01*
X115352285Y-175387000D01*
X115316000Y-175314428D01*
X115279714Y-175278142D01*
X115207142Y-175241857D01*
X115098285Y-175241857D01*
X115025714Y-175278142D01*
X114989428Y-175314428D01*
X114953142Y-175387000D01*
X114953142Y-175677285D01*
X115279714Y-174951571D02*
X115316000Y-174915285D01*
X115352285Y-174842714D01*
X115352285Y-174661285D01*
X115316000Y-174588714D01*
X115279714Y-174552428D01*
X115207142Y-174516142D01*
X115134571Y-174516142D01*
X115025714Y-174552428D01*
X114590285Y-174987857D01*
X114590285Y-174516142D01*
X115352285Y-174262142D02*
X115352285Y-173790428D01*
X115062000Y-174044428D01*
X115062000Y-173935571D01*
X115025714Y-173863000D01*
X114989428Y-173826714D01*
X114916857Y-173790428D01*
X114735428Y-173790428D01*
X114662857Y-173826714D01*
X114626571Y-173863000D01*
X114590285Y-173935571D01*
X114590285Y-174153285D01*
X114626571Y-174225857D01*
X114662857Y-174262142D01*
X113320285Y-174860857D02*
X113683142Y-175114857D01*
X113320285Y-175296285D02*
X114082285Y-175296285D01*
X114082285Y-175006000D01*
X114046000Y-174933428D01*
X114009714Y-174897142D01*
X113937142Y-174860857D01*
X113828285Y-174860857D01*
X113755714Y-174897142D01*
X113719428Y-174933428D01*
X113683142Y-175006000D01*
X113683142Y-175296285D01*
X114009714Y-174570571D02*
X114046000Y-174534285D01*
X114082285Y-174461714D01*
X114082285Y-174280285D01*
X114046000Y-174207714D01*
X114009714Y-174171428D01*
X113937142Y-174135142D01*
X113864571Y-174135142D01*
X113755714Y-174171428D01*
X113320285Y-174606857D01*
X113320285Y-174135142D01*
X114082285Y-173881142D02*
X114082285Y-173373142D01*
X113320285Y-173699714D01*
D29*
X102933500Y-172487166D02*
X103229833Y-172063833D01*
X103441500Y-172487166D02*
X103441500Y-171598166D01*
X103102833Y-171598166D01*
X103018166Y-171640500D01*
X102975833Y-171682833D01*
X102933500Y-171767500D01*
X102933500Y-171894500D01*
X102975833Y-171979166D01*
X103018166Y-172021500D01*
X103102833Y-172063833D01*
X103441500Y-172063833D01*
X102637166Y-171598166D02*
X102086833Y-171598166D01*
X102383166Y-171936833D01*
X102256166Y-171936833D01*
X102171500Y-171979166D01*
X102129166Y-172021500D01*
X102086833Y-172106166D01*
X102086833Y-172317833D01*
X102129166Y-172402500D01*
X102171500Y-172444833D01*
X102256166Y-172487166D01*
X102510166Y-172487166D01*
X102594833Y-172444833D01*
X102637166Y-172402500D01*
X101790500Y-171598166D02*
X101240166Y-171598166D01*
X101536500Y-171936833D01*
X101409500Y-171936833D01*
X101324833Y-171979166D01*
X101282500Y-172021500D01*
X101240166Y-172106166D01*
X101240166Y-172317833D01*
X101282500Y-172402500D01*
X101324833Y-172444833D01*
X101409500Y-172487166D01*
X101663500Y-172487166D01*
X101748166Y-172444833D01*
X101790500Y-172402500D01*
D12*
X111589457Y-164174714D02*
X111843457Y-163811857D01*
X112024885Y-164174714D02*
X112024885Y-163412714D01*
X111734600Y-163412714D01*
X111662028Y-163449000D01*
X111625742Y-163485285D01*
X111589457Y-163557857D01*
X111589457Y-163666714D01*
X111625742Y-163739285D01*
X111662028Y-163775571D01*
X111734600Y-163811857D01*
X112024885Y-163811857D01*
X111335457Y-163412714D02*
X110863742Y-163412714D01*
X111117742Y-163703000D01*
X111008885Y-163703000D01*
X110936314Y-163739285D01*
X110900028Y-163775571D01*
X110863742Y-163848142D01*
X110863742Y-164029571D01*
X110900028Y-164102142D01*
X110936314Y-164138428D01*
X111008885Y-164174714D01*
X111226600Y-164174714D01*
X111299171Y-164138428D01*
X111335457Y-164102142D01*
X110210600Y-163666714D02*
X110210600Y-164174714D01*
X110392028Y-163376428D02*
X110573457Y-163920714D01*
X110101742Y-163920714D01*
X112278885Y-163938857D02*
X112641742Y-164192857D01*
X112278885Y-164374285D02*
X113040885Y-164374285D01*
X113040885Y-164084000D01*
X113004600Y-164011428D01*
X112968314Y-163975142D01*
X112895742Y-163938857D01*
X112786885Y-163938857D01*
X112714314Y-163975142D01*
X112678028Y-164011428D01*
X112641742Y-164084000D01*
X112641742Y-164374285D01*
X113040885Y-163684857D02*
X113040885Y-163213142D01*
X112750600Y-163467142D01*
X112750600Y-163358285D01*
X112714314Y-163285714D01*
X112678028Y-163249428D01*
X112605457Y-163213142D01*
X112424028Y-163213142D01*
X112351457Y-163249428D01*
X112315171Y-163285714D01*
X112278885Y-163358285D01*
X112278885Y-163576000D01*
X112315171Y-163648571D01*
X112351457Y-163684857D01*
X112714314Y-162777714D02*
X112750600Y-162850285D01*
X112786885Y-162886571D01*
X112859457Y-162922857D01*
X112895742Y-162922857D01*
X112968314Y-162886571D01*
X113004600Y-162850285D01*
X113040885Y-162777714D01*
X113040885Y-162632571D01*
X113004600Y-162560000D01*
X112968314Y-162523714D01*
X112895742Y-162487428D01*
X112859457Y-162487428D01*
X112786885Y-162523714D01*
X112750600Y-162560000D01*
X112714314Y-162632571D01*
X112714314Y-162777714D01*
X112678028Y-162850285D01*
X112641742Y-162886571D01*
X112569171Y-162922857D01*
X112424028Y-162922857D01*
X112351457Y-162886571D01*
X112315171Y-162850285D01*
X112278885Y-162777714D01*
X112278885Y-162632571D01*
X112315171Y-162560000D01*
X112351457Y-162523714D01*
X112424028Y-162487428D01*
X112569171Y-162487428D01*
X112641742Y-162523714D01*
X112678028Y-162560000D01*
X112714314Y-162632571D01*
D11*
X117650380Y-164604095D02*
X116827904Y-164604095D01*
X116731142Y-164555714D01*
X116682761Y-164507333D01*
X116634380Y-164410571D01*
X116634380Y-164217047D01*
X116682761Y-164120285D01*
X116731142Y-164071904D01*
X116827904Y-164023523D01*
X117650380Y-164023523D01*
X117553619Y-163588095D02*
X117602000Y-163539714D01*
X117650380Y-163442952D01*
X117650380Y-163201047D01*
X117602000Y-163104285D01*
X117553619Y-163055904D01*
X117456857Y-163007523D01*
X117360095Y-163007523D01*
X117214952Y-163055904D01*
X116634380Y-163636476D01*
X116634380Y-163007523D01*
X116994214Y-167262023D02*
X117115166Y-167201547D01*
X117175642Y-167141071D01*
X117236119Y-167020119D01*
X117236119Y-166657261D01*
X117175642Y-166536309D01*
X117115166Y-166475833D01*
X116994214Y-166415357D01*
X116812785Y-166415357D01*
X116691833Y-166475833D01*
X116631357Y-166536309D01*
X116570880Y-166657261D01*
X116570880Y-167020119D01*
X116631357Y-167141071D01*
X116691833Y-167201547D01*
X116812785Y-167262023D01*
X116994214Y-167262023D01*
D29*
X105579333Y-171598166D02*
X105579333Y-172317833D01*
X105537000Y-172402500D01*
X105494666Y-172444833D01*
X105410000Y-172487166D01*
X105240666Y-172487166D01*
X105156000Y-172444833D01*
X105113666Y-172402500D01*
X105071333Y-172317833D01*
X105071333Y-171598166D01*
X104224666Y-171598166D02*
X104648000Y-171598166D01*
X104690333Y-172021500D01*
X104648000Y-171979166D01*
X104563333Y-171936833D01*
X104351666Y-171936833D01*
X104267000Y-171979166D01*
X104224666Y-172021500D01*
X104182333Y-172106166D01*
X104182333Y-172317833D01*
X104224666Y-172402500D01*
X104267000Y-172444833D01*
X104351666Y-172487166D01*
X104563333Y-172487166D01*
X104648000Y-172444833D01*
X104690333Y-172402500D01*
D11*
X104738714Y-164531523D02*
X104859666Y-164471047D01*
X104920142Y-164410571D01*
X104980619Y-164289619D01*
X104980619Y-163926761D01*
X104920142Y-163805809D01*
X104859666Y-163745333D01*
X104738714Y-163684857D01*
X104557285Y-163684857D01*
X104436333Y-163745333D01*
X104375857Y-163805809D01*
X104315380Y-163926761D01*
X104315380Y-164289619D01*
X104375857Y-164410571D01*
X104436333Y-164471047D01*
X104557285Y-164531523D01*
X104738714Y-164531523D01*
X101872142Y-164356142D02*
X101823761Y-164404523D01*
X101775380Y-164549666D01*
X101775380Y-164646428D01*
X101823761Y-164791571D01*
X101920523Y-164888333D01*
X102017285Y-164936714D01*
X102210809Y-164985095D01*
X102355952Y-164985095D01*
X102549476Y-164936714D01*
X102646238Y-164888333D01*
X102743000Y-164791571D01*
X102791380Y-164646428D01*
X102791380Y-164549666D01*
X102743000Y-164404523D01*
X102694619Y-164356142D01*
X101775380Y-163388523D02*
X101775380Y-163969095D01*
X101775380Y-163678809D02*
X102791380Y-163678809D01*
X102646238Y-163775571D01*
X102549476Y-163872333D01*
X102501095Y-163969095D01*
X102694619Y-163001476D02*
X102743000Y-162953095D01*
X102791380Y-162856333D01*
X102791380Y-162614428D01*
X102743000Y-162517666D01*
X102694619Y-162469285D01*
X102597857Y-162420904D01*
X102501095Y-162420904D01*
X102355952Y-162469285D01*
X101775380Y-163049857D01*
X101775380Y-162420904D01*
D12*
X111741857Y-172556714D02*
X111995857Y-172193857D01*
X112177285Y-172556714D02*
X112177285Y-171794714D01*
X111887000Y-171794714D01*
X111814428Y-171831000D01*
X111778142Y-171867285D01*
X111741857Y-171939857D01*
X111741857Y-172048714D01*
X111778142Y-172121285D01*
X111814428Y-172157571D01*
X111887000Y-172193857D01*
X112177285Y-172193857D01*
X111088714Y-172048714D02*
X111088714Y-172556714D01*
X111270142Y-171758428D02*
X111451571Y-172302714D01*
X110979857Y-172302714D01*
X110290428Y-172556714D02*
X110725857Y-172556714D01*
X110508142Y-172556714D02*
X110508142Y-171794714D01*
X110580714Y-171903571D01*
X110653285Y-171976142D01*
X110725857Y-172012428D01*
M02*
