G04 #@! TF.GenerationSoftware,KiCad,Pcbnew,5.1.6-c6e7f7d~87~ubuntu18.04.1*
G04 #@! TF.CreationDate,2022-10-10T13:55:49+03:00*
G04 #@! TF.ProjectId,ESP32-PoE-ISO_Rev_L,45535033-322d-4506-9f45-2d49534f5f52,L*
G04 #@! TF.SameCoordinates,Original*
G04 #@! TF.FileFunction,Paste,Bot*
G04 #@! TF.FilePolarity,Positive*
%FSLAX46Y46*%
G04 Gerber Fmt 4.6, Leading zero omitted, Abs format (unit mm)*
G04 Created by KiCad (PCBNEW 5.1.6-c6e7f7d~87~ubuntu18.04.1) date 2022-10-10 13:55:49*
%MOMM*%
%LPD*%
G01*
G04 APERTURE LIST*
%ADD10C,0.200000*%
%ADD11R,0.600000X1.600000*%
%ADD12R,1.400000X1.000000*%
%ADD13R,1.016000X1.016000*%
%ADD14R,1.016000X2.032000*%
%ADD15R,2.400000X3.600000*%
%ADD16R,0.550000X0.500000*%
%ADD17R,0.500000X0.550000*%
%ADD18R,1.270000X1.524000*%
%ADD19R,1.524000X1.270000*%
%ADD20R,1.778000X1.016000*%
%ADD21R,0.500000X1.000000*%
%ADD22R,1.754000X1.454000*%
%ADD23R,0.381000X1.016000*%
%ADD24R,0.635000X1.016000*%
%ADD25R,1.000000X1.400000*%
%ADD26R,0.230000X0.780000*%
%ADD27R,0.780000X0.230000*%
%ADD28R,1.016000X0.381000*%
%ADD29R,1.016000X0.635000*%
%ADD30R,2.286000X1.778000*%
%ADD31R,3.500000X2.600000*%
%ADD32R,0.600000X1.400000*%
%ADD33R,1.454000X3.654001*%
%ADD34R,1.200000X0.550000*%
G04 APERTURE END LIST*
D10*
X104610000Y-136706000D02*
X104610000Y-137106000D01*
X103810000Y-136706000D02*
X104610000Y-136706000D01*
X103810000Y-137106000D02*
X103810000Y-136706000D01*
X104610000Y-137106000D02*
X103810000Y-137106000D01*
X104610000Y-137006000D02*
X103810000Y-137006000D01*
X103810000Y-136906000D02*
X104610000Y-136906000D01*
X104610000Y-136806000D02*
X103810000Y-136806000D01*
X107010000Y-136806000D02*
X106210000Y-136806000D01*
X106210000Y-136906000D02*
X107010000Y-136906000D01*
X107010000Y-137006000D02*
X106210000Y-137006000D01*
X107010000Y-137106000D02*
X106210000Y-137106000D01*
X106210000Y-137106000D02*
X106210000Y-136706000D01*
X106210000Y-136706000D02*
X107010000Y-136706000D01*
X107010000Y-136706000D02*
X107010000Y-137106000D01*
X105210000Y-136106000D02*
X105610000Y-136106000D01*
X105210000Y-135306000D02*
X105210000Y-136106000D01*
X105610000Y-135306000D02*
X105210000Y-135306000D01*
X105610000Y-136106000D02*
X105610000Y-135306000D01*
X105510000Y-136106000D02*
X105510000Y-135306000D01*
X105410000Y-136106000D02*
X105410000Y-135306000D01*
X105310000Y-136106000D02*
X105310000Y-135306000D01*
X105310000Y-138506000D02*
X105310000Y-137706000D01*
X105410000Y-138506000D02*
X105410000Y-137706000D01*
X105510000Y-138506000D02*
X105510000Y-137706000D01*
X105610000Y-138506000D02*
X105610000Y-137706000D01*
X105610000Y-137706000D02*
X105210000Y-137706000D01*
X105210000Y-137706000D02*
X105210000Y-138506000D01*
X105210000Y-138506000D02*
X105610000Y-138506000D01*
X104610000Y-135406000D02*
X103810000Y-135406000D01*
X104610000Y-135506000D02*
X103810000Y-135506000D01*
X104610000Y-135606000D02*
X103810000Y-135606000D01*
X104610000Y-135706000D02*
X103810000Y-135706000D01*
X104610000Y-135806000D02*
X103810000Y-135806000D01*
X104610000Y-135906000D02*
X103810000Y-135906000D01*
X104610000Y-136006000D02*
X103810000Y-136006000D01*
X104610000Y-136106000D02*
X103810000Y-136106000D01*
X103810000Y-136106000D02*
X103810000Y-135306000D01*
X103810000Y-135306000D02*
X104610000Y-135306000D01*
X104610000Y-135306000D02*
X104610000Y-136106000D01*
X107010000Y-135306000D02*
X107010000Y-136106000D01*
X106210000Y-135306000D02*
X107010000Y-135306000D01*
X106210000Y-136106000D02*
X106210000Y-135306000D01*
X107010000Y-136106000D02*
X106210000Y-136106000D01*
X107010000Y-136006000D02*
X106210000Y-136006000D01*
X107010000Y-135906000D02*
X106210000Y-135906000D01*
X107010000Y-135806000D02*
X106210000Y-135806000D01*
X107010000Y-135706000D02*
X106210000Y-135706000D01*
X107010000Y-135606000D02*
X106210000Y-135606000D01*
X107010000Y-135506000D02*
X106210000Y-135506000D01*
X107010000Y-135406000D02*
X106210000Y-135406000D01*
X104610000Y-137706000D02*
X104610000Y-138506000D01*
X103810000Y-137706000D02*
X104610000Y-137706000D01*
X103810000Y-138506000D02*
X103810000Y-137706000D01*
X104610000Y-138506000D02*
X103810000Y-138506000D01*
X104610000Y-138406000D02*
X103810000Y-138406000D01*
X104610000Y-138306000D02*
X103810000Y-138306000D01*
X104610000Y-138206000D02*
X103810000Y-138206000D01*
X104610000Y-138106000D02*
X103810000Y-138106000D01*
X104610000Y-138006000D02*
X103810000Y-138006000D01*
X104610000Y-137906000D02*
X103810000Y-137906000D01*
X104610000Y-137806000D02*
X103810000Y-137806000D01*
X107010000Y-137806000D02*
X106210000Y-137806000D01*
X107010000Y-137906000D02*
X106210000Y-137906000D01*
X107010000Y-138006000D02*
X106210000Y-138006000D01*
X107010000Y-138106000D02*
X106210000Y-138106000D01*
X107010000Y-138206000D02*
X106210000Y-138206000D01*
X107010000Y-138306000D02*
X106210000Y-138306000D01*
X107010000Y-138406000D02*
X106210000Y-138406000D01*
X107010000Y-138506000D02*
X106210000Y-138506000D01*
X106210000Y-138506000D02*
X106210000Y-137706000D01*
X106210000Y-137706000D02*
X107010000Y-137706000D01*
X107010000Y-137706000D02*
X107010000Y-138506000D01*
D11*
X117094000Y-166530000D03*
X115824000Y-166530000D03*
X114554000Y-166530000D03*
X113284000Y-166530000D03*
X113284000Y-161130000D03*
X114554000Y-161130000D03*
X115824000Y-161130000D03*
X117094000Y-161130000D03*
D12*
X92329000Y-103256000D03*
X92329000Y-107056000D03*
D13*
X91694000Y-101600000D03*
X93472000Y-101600000D03*
D14*
X101092000Y-166497000D03*
X96520000Y-166497000D03*
X113157000Y-150749000D03*
X108585000Y-150749000D03*
D15*
X104423000Y-160020000D03*
X111223000Y-160020000D03*
D16*
X94996000Y-145415000D03*
X94996000Y-146431000D03*
D17*
X95123000Y-99187000D03*
X96139000Y-99187000D03*
X95123000Y-98171000D03*
X96139000Y-98171000D03*
X96139000Y-100203000D03*
X95123000Y-100203000D03*
D13*
X105410000Y-151765000D03*
X103632000Y-151765000D03*
D16*
X114300000Y-142748000D03*
X114300000Y-143764000D03*
D13*
X113030000Y-143891000D03*
X113030000Y-145669000D03*
D18*
X103251000Y-111760000D03*
X101219000Y-111760000D03*
D17*
X106172000Y-132334000D03*
X105156000Y-132334000D03*
X99568000Y-135890000D03*
X100584000Y-135890000D03*
X101473000Y-139192000D03*
X100457000Y-139192000D03*
X109347000Y-140970000D03*
X108331000Y-140970000D03*
X113665000Y-110363000D03*
X112649000Y-110363000D03*
D16*
X97409000Y-105791000D03*
X97409000Y-104775000D03*
D17*
X104394000Y-126619000D03*
X103378000Y-126619000D03*
X104394000Y-124841000D03*
X103378000Y-124841000D03*
X104394000Y-120777000D03*
X103378000Y-120777000D03*
X104394000Y-125730000D03*
X103378000Y-125730000D03*
X100457000Y-140081000D03*
X101473000Y-140081000D03*
D16*
X110617000Y-136525000D03*
X110617000Y-135509000D03*
X105410000Y-141478000D03*
X105410000Y-142494000D03*
X106680000Y-142494000D03*
X106680000Y-141478000D03*
X103124000Y-142494000D03*
X103124000Y-141478000D03*
X104394000Y-142494000D03*
X104394000Y-141478000D03*
X114300000Y-145923000D03*
X114300000Y-144907000D03*
D17*
X105029000Y-150495000D03*
X104013000Y-150495000D03*
D16*
X115316000Y-109347000D03*
X115316000Y-110363000D03*
D12*
X111343440Y-143830040D03*
X111343440Y-145732500D03*
X109133640Y-144777460D03*
X114335560Y-113598960D03*
X114335560Y-111696500D03*
X116545360Y-112651540D03*
D19*
X101219000Y-113665000D03*
X103251000Y-113665000D03*
D20*
X116840000Y-177038000D03*
X116840000Y-173482000D03*
D21*
X100290000Y-103380000D03*
X101390000Y-103380000D03*
X102490000Y-103380000D03*
X103590000Y-103380000D03*
X104340000Y-103380000D03*
X105040000Y-103380000D03*
X105790000Y-103380000D03*
X106890000Y-103380000D03*
X107990000Y-103380000D03*
D22*
X109440000Y-105130000D03*
X98840000Y-105130000D03*
X109440000Y-109580000D03*
X98840000Y-109580000D03*
D13*
X110109000Y-134493000D03*
X110109000Y-132715000D03*
X99187000Y-134620000D03*
X100965000Y-134620000D03*
X107442000Y-143891000D03*
X107442000Y-145669000D03*
X110617000Y-140843000D03*
X110617000Y-139065000D03*
D23*
X106045000Y-128651000D03*
X105283000Y-128651000D03*
X106045000Y-130175000D03*
X105283000Y-130175000D03*
D24*
X106934000Y-128651000D03*
X106934000Y-130175000D03*
X104394000Y-128651000D03*
X104394000Y-130175000D03*
D12*
X111506000Y-111633000D03*
X111506000Y-113535460D03*
X109296200Y-112580420D03*
D19*
X110109000Y-142367000D03*
X108077000Y-142367000D03*
D16*
X116713000Y-108204000D03*
X116713000Y-107188000D03*
D25*
X105405000Y-122555000D03*
X101605000Y-122555000D03*
D17*
X100965000Y-120777000D03*
X101981000Y-120777000D03*
D26*
X103660000Y-139356000D03*
X104160000Y-139356000D03*
X104660000Y-139356000D03*
X105160000Y-139356000D03*
X105660000Y-139356000D03*
X106160000Y-139356000D03*
X106660000Y-139356000D03*
X107160000Y-139356000D03*
D27*
X107860000Y-138656000D03*
X107860000Y-138156000D03*
X107860000Y-137656000D03*
X107860000Y-137156000D03*
X107860000Y-136656000D03*
X107860000Y-136156000D03*
X107860000Y-135656000D03*
X107860000Y-135156000D03*
D26*
X107160000Y-134456000D03*
X106660000Y-134456000D03*
X106160000Y-134456000D03*
X105660000Y-134456000D03*
X105160000Y-134456000D03*
X104660000Y-134456000D03*
X104160000Y-134456000D03*
X103660000Y-134456000D03*
D27*
X102960000Y-135156000D03*
X102960000Y-135656000D03*
X102960000Y-136156000D03*
X102960000Y-136656000D03*
X102960000Y-137156000D03*
X102960000Y-137656000D03*
X102960000Y-138156000D03*
X102960000Y-138656000D03*
D16*
X112903000Y-114046000D03*
X112903000Y-113030000D03*
X112903000Y-112268000D03*
X112903000Y-111252000D03*
D12*
X114892000Y-108204000D03*
X112692000Y-107254000D03*
X112692000Y-109154000D03*
D25*
X113027460Y-141437360D03*
X113982500Y-139227560D03*
X112080040Y-139227560D03*
D24*
X105029000Y-113157000D03*
X105029000Y-111633000D03*
X107569000Y-113157000D03*
X107569000Y-111633000D03*
D23*
X105918000Y-113157000D03*
X106680000Y-113157000D03*
X105918000Y-111633000D03*
X106680000Y-111633000D03*
D28*
X99314000Y-130937000D03*
X99314000Y-131699000D03*
X100838000Y-130937000D03*
X100838000Y-131699000D03*
D29*
X99314000Y-130048000D03*
X100838000Y-130048000D03*
X99314000Y-132588000D03*
X100838000Y-132588000D03*
D30*
X97155000Y-145560000D03*
X97155000Y-141206000D03*
D16*
X100457000Y-175514000D03*
X100457000Y-176530000D03*
X98044000Y-179197000D03*
X98044000Y-178181000D03*
D17*
X111760000Y-167005000D03*
X110744000Y-167005000D03*
D16*
X113030000Y-171831000D03*
X113030000Y-172847000D03*
X115316000Y-172847000D03*
X115316000Y-171831000D03*
X114427000Y-172847000D03*
X114427000Y-171831000D03*
D17*
X103124000Y-168402000D03*
X104140000Y-168402000D03*
X110744000Y-165100000D03*
X111760000Y-165100000D03*
X111760000Y-166116000D03*
X110744000Y-166116000D03*
D31*
X107442000Y-167646000D03*
D32*
X105537000Y-170446000D03*
X106807000Y-170446000D03*
X108077000Y-170446000D03*
X109347000Y-170446000D03*
X109347000Y-164846000D03*
X108077000Y-164846000D03*
X106807000Y-164846000D03*
X105537000Y-164846000D03*
D13*
X103632000Y-165227000D03*
X103632000Y-167005000D03*
D33*
X117196000Y-169545000D03*
X110896000Y-169545000D03*
D16*
X116713000Y-104521000D03*
X116713000Y-105537000D03*
D34*
X115351000Y-104079001D03*
X115351000Y-105979001D03*
X112751000Y-104079001D03*
X112751000Y-105029001D03*
X112751000Y-105979001D03*
D16*
X97409000Y-100838000D03*
X97409000Y-101854000D03*
D17*
X116967000Y-159512000D03*
X115951000Y-159512000D03*
X115951000Y-156210000D03*
X116967000Y-156210000D03*
M02*
