G04 #@! TF.GenerationSoftware,KiCad,Pcbnew,5.1.6-c6e7f7d~87~ubuntu18.04.1*
G04 #@! TF.CreationDate,2022-10-10T13:55:49+03:00*
G04 #@! TF.ProjectId,ESP32-PoE-ISO_Rev_L,45535033-322d-4506-9f45-2d49534f5f52,L*
G04 #@! TF.SameCoordinates,Original*
G04 #@! TF.FileFunction,Legend,Bot*
G04 #@! TF.FilePolarity,Positive*
%FSLAX46Y46*%
G04 Gerber Fmt 4.6, Leading zero omitted, Abs format (unit mm)*
G04 Created by KiCad (PCBNEW 5.1.6-c6e7f7d~87~ubuntu18.04.1) date 2022-10-10 13:55:49*
%MOMM*%
%LPD*%
G01*
G04 APERTURE LIST*
%ADD10C,0.203200*%
%ADD11C,0.254000*%
%ADD12C,0.190500*%
%ADD13C,0.300000*%
%ADD14C,0.600000*%
%ADD15C,1.000000*%
%ADD16C,0.150000*%
%ADD17C,0.370000*%
%ADD18C,0.380000*%
%ADD19C,0.400000*%
%ADD20C,0.420000*%
%ADD21C,0.100000*%
%ADD22C,0.700000*%
%ADD23C,0.500000*%
%ADD24C,0.127000*%
%ADD25C,0.200000*%
%ADD26C,0.158750*%
%ADD27C,0.180000*%
%ADD28C,0.177800*%
%ADD29C,0.125000*%
%ADD30C,0.222250*%
%ADD31C,0.152400*%
G04 APERTURE END LIST*
D10*
X112331500Y-164592000D02*
X112458500Y-164719000D01*
X112331500Y-164592000D02*
X112204500Y-164719000D01*
X112331500Y-165544500D02*
X112204500Y-165671500D01*
X112331500Y-164592000D02*
X112331500Y-165544500D01*
D11*
X103251000Y-169164000D02*
X103124000Y-169545000D01*
X103251000Y-169164000D02*
X102870000Y-169291000D01*
X102616000Y-169799000D02*
X103251000Y-169164000D01*
X102616000Y-171196000D02*
X102616000Y-169799000D01*
X91827047Y-184730571D02*
X91052952Y-184730571D01*
X91827047Y-182825571D02*
X91052952Y-182825571D01*
X91440000Y-183212619D02*
X91440000Y-182438523D01*
X93423619Y-145608523D02*
X94028380Y-145608523D01*
X94088857Y-146213285D01*
X94028380Y-146152809D01*
X93907428Y-146092333D01*
X93605047Y-146092333D01*
X93484095Y-146152809D01*
X93423619Y-146213285D01*
X93363142Y-146334238D01*
X93363142Y-146636619D01*
X93423619Y-146757571D01*
X93484095Y-146818047D01*
X93605047Y-146878523D01*
X93907428Y-146878523D01*
X94028380Y-146818047D01*
X94088857Y-146757571D01*
X93484095Y-143237857D02*
X93484095Y-144084523D01*
X93786476Y-142754047D02*
X94088857Y-143661190D01*
X93302666Y-143661190D01*
X94149333Y-140274523D02*
X93363142Y-140274523D01*
X93786476Y-140758333D01*
X93605047Y-140758333D01*
X93484095Y-140818809D01*
X93423619Y-140879285D01*
X93363142Y-141000238D01*
X93363142Y-141302619D01*
X93423619Y-141423571D01*
X93484095Y-141484047D01*
X93605047Y-141544523D01*
X93967904Y-141544523D01*
X94088857Y-141484047D01*
X94149333Y-141423571D01*
X94088857Y-137855476D02*
X94028380Y-137795000D01*
X93907428Y-137734523D01*
X93605047Y-137734523D01*
X93484095Y-137795000D01*
X93423619Y-137855476D01*
X93363142Y-137976428D01*
X93363142Y-138097380D01*
X93423619Y-138278809D01*
X94149333Y-139004523D01*
X93363142Y-139004523D01*
X93363142Y-136464523D02*
X94088857Y-136464523D01*
X93726000Y-136464523D02*
X93726000Y-135194523D01*
X93846952Y-135375952D01*
X93967904Y-135496904D01*
X94088857Y-135557380D01*
X93786476Y-132781523D02*
X93665523Y-132781523D01*
X93544571Y-132842000D01*
X93484095Y-132902476D01*
X93423619Y-133023428D01*
X93363142Y-133265333D01*
X93363142Y-133567714D01*
X93423619Y-133809619D01*
X93484095Y-133930571D01*
X93544571Y-133991047D01*
X93665523Y-134051523D01*
X93786476Y-134051523D01*
X93907428Y-133991047D01*
X93967904Y-133930571D01*
X94028380Y-133809619D01*
X94088857Y-133567714D01*
X94088857Y-133265333D01*
X94028380Y-133023428D01*
X93967904Y-132902476D01*
X93907428Y-132842000D01*
X93786476Y-132781523D01*
X98346380Y-130737428D02*
X98007714Y-130737428D01*
X97862571Y-131269619D02*
X98346380Y-131269619D01*
X98346380Y-130253619D01*
X97862571Y-130253619D01*
X97475523Y-131221238D02*
X97330380Y-131269619D01*
X97088476Y-131269619D01*
X96991714Y-131221238D01*
X96943333Y-131172857D01*
X96894952Y-131076095D01*
X96894952Y-130979333D01*
X96943333Y-130882571D01*
X96991714Y-130834190D01*
X97088476Y-130785809D01*
X97282000Y-130737428D01*
X97378761Y-130689047D01*
X97427142Y-130640666D01*
X97475523Y-130543904D01*
X97475523Y-130447142D01*
X97427142Y-130350380D01*
X97378761Y-130302000D01*
X97282000Y-130253619D01*
X97040095Y-130253619D01*
X96894952Y-130302000D01*
X96459523Y-131269619D02*
X96459523Y-130253619D01*
X96072476Y-130253619D01*
X95975714Y-130302000D01*
X95927333Y-130350380D01*
X95878952Y-130447142D01*
X95878952Y-130592285D01*
X95927333Y-130689047D01*
X95975714Y-130737428D01*
X96072476Y-130785809D01*
X96459523Y-130785809D01*
X95685428Y-131366380D02*
X94911333Y-131366380D01*
X94669428Y-130737428D02*
X94330761Y-130737428D01*
X94185619Y-131269619D02*
X94669428Y-131269619D01*
X94669428Y-130253619D01*
X94185619Y-130253619D01*
X93750190Y-131269619D02*
X93750190Y-130253619D01*
X93169619Y-131269619D01*
X93169619Y-130253619D01*
X95836619Y-127635000D02*
X95957571Y-127574523D01*
X96139000Y-127574523D01*
X96320428Y-127635000D01*
X96441380Y-127755952D01*
X96501857Y-127876904D01*
X96562333Y-128118809D01*
X96562333Y-128300238D01*
X96501857Y-128542142D01*
X96441380Y-128663095D01*
X96320428Y-128784047D01*
X96139000Y-128844523D01*
X96018047Y-128844523D01*
X95836619Y-128784047D01*
X95776142Y-128723571D01*
X95776142Y-128300238D01*
X96018047Y-128300238D01*
X95231857Y-128844523D02*
X95231857Y-127574523D01*
X94506142Y-128844523D01*
X94506142Y-127574523D01*
X93901380Y-128844523D02*
X93901380Y-127574523D01*
X93599000Y-127574523D01*
X93417571Y-127635000D01*
X93296619Y-127755952D01*
X93236142Y-127876904D01*
X93175666Y-128118809D01*
X93175666Y-128300238D01*
X93236142Y-128542142D01*
X93296619Y-128663095D01*
X93417571Y-128784047D01*
X93599000Y-128844523D01*
X93901380Y-128844523D01*
X97614619Y-125820714D02*
X96647000Y-125820714D01*
X97130809Y-126304523D02*
X97130809Y-125336904D01*
X96163190Y-125034523D02*
X95377000Y-125034523D01*
X95800333Y-125518333D01*
X95618904Y-125518333D01*
X95497952Y-125578809D01*
X95437476Y-125639285D01*
X95377000Y-125760238D01*
X95377000Y-126062619D01*
X95437476Y-126183571D01*
X95497952Y-126244047D01*
X95618904Y-126304523D01*
X95981761Y-126304523D01*
X96102714Y-126244047D01*
X96163190Y-126183571D01*
X95014142Y-125034523D02*
X94590809Y-126304523D01*
X94167476Y-125034523D01*
X93865095Y-125034523D02*
X93078904Y-125034523D01*
X93502238Y-125518333D01*
X93320809Y-125518333D01*
X93199857Y-125578809D01*
X93139380Y-125639285D01*
X93078904Y-125760238D01*
X93078904Y-126062619D01*
X93139380Y-126183571D01*
X93199857Y-126244047D01*
X93320809Y-126304523D01*
X93683666Y-126304523D01*
X93804619Y-126244047D01*
X93865095Y-126183571D01*
X96501857Y-123534714D02*
X95534238Y-123534714D01*
X96018047Y-124018523D02*
X96018047Y-123050904D01*
X94324714Y-122748523D02*
X94929476Y-122748523D01*
X94989952Y-123353285D01*
X94929476Y-123292809D01*
X94808523Y-123232333D01*
X94506142Y-123232333D01*
X94385190Y-123292809D01*
X94324714Y-123353285D01*
X94264238Y-123474238D01*
X94264238Y-123776619D01*
X94324714Y-123897571D01*
X94385190Y-123958047D01*
X94506142Y-124018523D01*
X94808523Y-124018523D01*
X94929476Y-123958047D01*
X94989952Y-123897571D01*
X93901380Y-122748523D02*
X93478047Y-124018523D01*
X93054714Y-122748523D01*
D12*
X116858142Y-148426714D02*
X117293571Y-148426714D01*
X117075857Y-148426714D02*
X117075857Y-147664714D01*
X117148428Y-147773571D01*
X117221000Y-147846142D01*
X117293571Y-147882428D01*
X116604142Y-147664714D02*
X116132428Y-147664714D01*
X116386428Y-147955000D01*
X116277571Y-147955000D01*
X116205000Y-147991285D01*
X116168714Y-148027571D01*
X116132428Y-148100142D01*
X116132428Y-148281571D01*
X116168714Y-148354142D01*
X116205000Y-148390428D01*
X116277571Y-148426714D01*
X116495285Y-148426714D01*
X116567857Y-148390428D01*
X116604142Y-148354142D01*
X115560102Y-144191659D02*
X115777817Y-143814567D01*
X115668959Y-144003113D02*
X115009048Y-143622113D01*
X115139607Y-143613693D01*
X115238741Y-143587130D01*
X115306451Y-143542424D01*
X114793590Y-144503298D02*
X115233531Y-144757298D01*
X114632909Y-144201033D02*
X115194989Y-144316054D01*
X114959132Y-144724571D01*
X114572142Y-142076714D02*
X115007571Y-142076714D01*
X114789857Y-142076714D02*
X114789857Y-141314714D01*
X114862428Y-141423571D01*
X114935000Y-141496142D01*
X115007571Y-141532428D01*
X113882714Y-141314714D02*
X114245571Y-141314714D01*
X114281857Y-141677571D01*
X114245571Y-141641285D01*
X114173000Y-141605000D01*
X113991571Y-141605000D01*
X113919000Y-141641285D01*
X113882714Y-141677571D01*
X113846428Y-141750142D01*
X113846428Y-141931571D01*
X113882714Y-142004142D01*
X113919000Y-142040428D01*
X113991571Y-142076714D01*
X114173000Y-142076714D01*
X114245571Y-142040428D01*
X114281857Y-142004142D01*
D11*
X114287904Y-138242523D02*
X115013619Y-138242523D01*
X114650761Y-138242523D02*
X114650761Y-136972523D01*
X114771714Y-137153952D01*
X114892666Y-137274904D01*
X115013619Y-137335380D01*
X113199333Y-136972523D02*
X113441238Y-136972523D01*
X113562190Y-137033000D01*
X113622666Y-137093476D01*
X113743619Y-137274904D01*
X113804095Y-137516809D01*
X113804095Y-138000619D01*
X113743619Y-138121571D01*
X113683142Y-138182047D01*
X113562190Y-138242523D01*
X113320285Y-138242523D01*
X113199333Y-138182047D01*
X113138857Y-138121571D01*
X113078380Y-138000619D01*
X113078380Y-137698238D01*
X113138857Y-137577285D01*
X113199333Y-137516809D01*
X113320285Y-137456333D01*
X113562190Y-137456333D01*
X113683142Y-137516809D01*
X113743619Y-137577285D01*
X113804095Y-137698238D01*
X115074095Y-134686523D02*
X114287904Y-134686523D01*
X114711238Y-135170333D01*
X114529809Y-135170333D01*
X114408857Y-135230809D01*
X114348380Y-135291285D01*
X114287904Y-135412238D01*
X114287904Y-135714619D01*
X114348380Y-135835571D01*
X114408857Y-135896047D01*
X114529809Y-135956523D01*
X114892666Y-135956523D01*
X115013619Y-135896047D01*
X115074095Y-135835571D01*
X113804095Y-134807476D02*
X113743619Y-134747000D01*
X113622666Y-134686523D01*
X113320285Y-134686523D01*
X113199333Y-134747000D01*
X113138857Y-134807476D01*
X113078380Y-134928428D01*
X113078380Y-135049380D01*
X113138857Y-135230809D01*
X113864571Y-135956523D01*
X113078380Y-135956523D01*
X115074095Y-132527523D02*
X114287904Y-132527523D01*
X114711238Y-133011333D01*
X114529809Y-133011333D01*
X114408857Y-133071809D01*
X114348380Y-133132285D01*
X114287904Y-133253238D01*
X114287904Y-133555619D01*
X114348380Y-133676571D01*
X114408857Y-133737047D01*
X114529809Y-133797523D01*
X114892666Y-133797523D01*
X115013619Y-133737047D01*
X115074095Y-133676571D01*
X113864571Y-132527523D02*
X113078380Y-132527523D01*
X113501714Y-133011333D01*
X113320285Y-133011333D01*
X113199333Y-133071809D01*
X113138857Y-133132285D01*
X113078380Y-133253238D01*
X113078380Y-133555619D01*
X113138857Y-133676571D01*
X113199333Y-133737047D01*
X113320285Y-133797523D01*
X113683142Y-133797523D01*
X113804095Y-133737047D01*
X113864571Y-133676571D01*
X115074095Y-130114523D02*
X114287904Y-130114523D01*
X114711238Y-130598333D01*
X114529809Y-130598333D01*
X114408857Y-130658809D01*
X114348380Y-130719285D01*
X114287904Y-130840238D01*
X114287904Y-131142619D01*
X114348380Y-131263571D01*
X114408857Y-131324047D01*
X114529809Y-131384523D01*
X114892666Y-131384523D01*
X115013619Y-131324047D01*
X115074095Y-131263571D01*
X113199333Y-130537857D02*
X113199333Y-131384523D01*
X113501714Y-130054047D02*
X113804095Y-130961190D01*
X113017904Y-130961190D01*
X115074095Y-127320523D02*
X114287904Y-127320523D01*
X114711238Y-127804333D01*
X114529809Y-127804333D01*
X114408857Y-127864809D01*
X114348380Y-127925285D01*
X114287904Y-128046238D01*
X114287904Y-128348619D01*
X114348380Y-128469571D01*
X114408857Y-128530047D01*
X114529809Y-128590523D01*
X114892666Y-128590523D01*
X115013619Y-128530047D01*
X115074095Y-128469571D01*
X113138857Y-127320523D02*
X113743619Y-127320523D01*
X113804095Y-127925285D01*
X113743619Y-127864809D01*
X113622666Y-127804333D01*
X113320285Y-127804333D01*
X113199333Y-127864809D01*
X113138857Y-127925285D01*
X113078380Y-128046238D01*
X113078380Y-128348619D01*
X113138857Y-128469571D01*
X113199333Y-128530047D01*
X113320285Y-128590523D01*
X113622666Y-128590523D01*
X113743619Y-128530047D01*
X113804095Y-128469571D01*
X115074095Y-125034523D02*
X114287904Y-125034523D01*
X114711238Y-125518333D01*
X114529809Y-125518333D01*
X114408857Y-125578809D01*
X114348380Y-125639285D01*
X114287904Y-125760238D01*
X114287904Y-126062619D01*
X114348380Y-126183571D01*
X114408857Y-126244047D01*
X114529809Y-126304523D01*
X114892666Y-126304523D01*
X115013619Y-126244047D01*
X115074095Y-126183571D01*
X113199333Y-125034523D02*
X113441238Y-125034523D01*
X113562190Y-125095000D01*
X113622666Y-125155476D01*
X113743619Y-125336904D01*
X113804095Y-125578809D01*
X113804095Y-126062619D01*
X113743619Y-126183571D01*
X113683142Y-126244047D01*
X113562190Y-126304523D01*
X113320285Y-126304523D01*
X113199333Y-126244047D01*
X113138857Y-126183571D01*
X113078380Y-126062619D01*
X113078380Y-125760238D01*
X113138857Y-125639285D01*
X113199333Y-125578809D01*
X113320285Y-125518333D01*
X113562190Y-125518333D01*
X113683142Y-125578809D01*
X113743619Y-125639285D01*
X113804095Y-125760238D01*
X115074095Y-122621523D02*
X114287904Y-122621523D01*
X114711238Y-123105333D01*
X114529809Y-123105333D01*
X114408857Y-123165809D01*
X114348380Y-123226285D01*
X114287904Y-123347238D01*
X114287904Y-123649619D01*
X114348380Y-123770571D01*
X114408857Y-123831047D01*
X114529809Y-123891523D01*
X114892666Y-123891523D01*
X115013619Y-123831047D01*
X115074095Y-123770571D01*
X113683142Y-123891523D02*
X113441238Y-123891523D01*
X113320285Y-123831047D01*
X113259809Y-123770571D01*
X113138857Y-123589142D01*
X113078380Y-123347238D01*
X113078380Y-122863428D01*
X113138857Y-122742476D01*
X113199333Y-122682000D01*
X113320285Y-122621523D01*
X113562190Y-122621523D01*
X113683142Y-122682000D01*
X113743619Y-122742476D01*
X113804095Y-122863428D01*
X113804095Y-123165809D01*
X113743619Y-123286761D01*
X113683142Y-123347238D01*
X113562190Y-123407714D01*
X113320285Y-123407714D01*
X113199333Y-123347238D01*
X113138857Y-123286761D01*
X113078380Y-123165809D01*
D12*
X108621285Y-103849714D02*
X109056714Y-103849714D01*
X108839000Y-103849714D02*
X108839000Y-103087714D01*
X108911571Y-103196571D01*
X108984142Y-103269142D01*
X109056714Y-103305428D01*
D11*
X109425619Y-174352857D02*
X109474000Y-174401238D01*
X109619142Y-174449619D01*
X109715904Y-174449619D01*
X109861047Y-174401238D01*
X109957809Y-174304476D01*
X110006190Y-174207714D01*
X110054571Y-174014190D01*
X110054571Y-173869047D01*
X110006190Y-173675523D01*
X109957809Y-173578761D01*
X109861047Y-173482000D01*
X109715904Y-173433619D01*
X109619142Y-173433619D01*
X109474000Y-173482000D01*
X109425619Y-173530380D01*
X108845047Y-174449619D02*
X108941809Y-174401238D01*
X108990190Y-174352857D01*
X109038571Y-174256095D01*
X109038571Y-173965809D01*
X108990190Y-173869047D01*
X108941809Y-173820666D01*
X108845047Y-173772285D01*
X108699904Y-173772285D01*
X108603142Y-173820666D01*
X108554761Y-173869047D01*
X108506380Y-173965809D01*
X108506380Y-174256095D01*
X108554761Y-174352857D01*
X108603142Y-174401238D01*
X108699904Y-174449619D01*
X108845047Y-174449619D01*
X108070952Y-174449619D02*
X108070952Y-173772285D01*
X108070952Y-173869047D02*
X108022571Y-173820666D01*
X107925809Y-173772285D01*
X107780666Y-173772285D01*
X107683904Y-173820666D01*
X107635523Y-173917428D01*
X107635523Y-174449619D01*
X107635523Y-173917428D02*
X107587142Y-173820666D01*
X107490380Y-173772285D01*
X107345238Y-173772285D01*
X107248476Y-173820666D01*
X107200095Y-173917428D01*
X107200095Y-174449619D01*
X106716285Y-173772285D02*
X106716285Y-174788285D01*
X106716285Y-173820666D02*
X106619523Y-173772285D01*
X106426000Y-173772285D01*
X106329238Y-173820666D01*
X106280857Y-173869047D01*
X106232476Y-173965809D01*
X106232476Y-174256095D01*
X106280857Y-174352857D01*
X106329238Y-174401238D01*
X106426000Y-174449619D01*
X106619523Y-174449619D01*
X106716285Y-174401238D01*
X105651904Y-174449619D02*
X105748666Y-174401238D01*
X105797047Y-174304476D01*
X105797047Y-173433619D01*
X105264857Y-174449619D02*
X105264857Y-173772285D01*
X105264857Y-173433619D02*
X105313238Y-173482000D01*
X105264857Y-173530380D01*
X105216476Y-173482000D01*
X105264857Y-173433619D01*
X105264857Y-173530380D01*
X104345619Y-174449619D02*
X104345619Y-173917428D01*
X104394000Y-173820666D01*
X104490761Y-173772285D01*
X104684285Y-173772285D01*
X104781047Y-173820666D01*
X104345619Y-174401238D02*
X104442380Y-174449619D01*
X104684285Y-174449619D01*
X104781047Y-174401238D01*
X104829428Y-174304476D01*
X104829428Y-174207714D01*
X104781047Y-174110952D01*
X104684285Y-174062571D01*
X104442380Y-174062571D01*
X104345619Y-174014190D01*
X103861809Y-173772285D02*
X103861809Y-174449619D01*
X103861809Y-173869047D02*
X103813428Y-173820666D01*
X103716666Y-173772285D01*
X103571523Y-173772285D01*
X103474761Y-173820666D01*
X103426380Y-173917428D01*
X103426380Y-174449619D01*
X103087714Y-173772285D02*
X102700666Y-173772285D01*
X102942571Y-173433619D02*
X102942571Y-174304476D01*
X102894190Y-174401238D01*
X102797428Y-174449619D01*
X102700666Y-174449619D01*
X109238142Y-172925619D02*
X109576809Y-172441809D01*
X109818714Y-172925619D02*
X109818714Y-171909619D01*
X109431666Y-171909619D01*
X109334904Y-171958000D01*
X109286523Y-172006380D01*
X109238142Y-172103142D01*
X109238142Y-172248285D01*
X109286523Y-172345047D01*
X109334904Y-172393428D01*
X109431666Y-172441809D01*
X109818714Y-172441809D01*
X108657571Y-172925619D02*
X108754333Y-172877238D01*
X108802714Y-172828857D01*
X108851095Y-172732095D01*
X108851095Y-172441809D01*
X108802714Y-172345047D01*
X108754333Y-172296666D01*
X108657571Y-172248285D01*
X108512428Y-172248285D01*
X108415666Y-172296666D01*
X108367285Y-172345047D01*
X108318904Y-172441809D01*
X108318904Y-172732095D01*
X108367285Y-172828857D01*
X108415666Y-172877238D01*
X108512428Y-172925619D01*
X108657571Y-172925619D01*
X107883476Y-172925619D02*
X107883476Y-171909619D01*
X107883476Y-172393428D02*
X107302904Y-172393428D01*
X107302904Y-172925619D02*
X107302904Y-171909619D01*
X106867476Y-172877238D02*
X106722333Y-172925619D01*
X106480428Y-172925619D01*
X106383666Y-172877238D01*
X106335285Y-172828857D01*
X106286904Y-172732095D01*
X106286904Y-172635333D01*
X106335285Y-172538571D01*
X106383666Y-172490190D01*
X106480428Y-172441809D01*
X106673952Y-172393428D01*
X106770714Y-172345047D01*
X106819095Y-172296666D01*
X106867476Y-172199904D01*
X106867476Y-172103142D01*
X106819095Y-172006380D01*
X106770714Y-171958000D01*
X106673952Y-171909619D01*
X106432047Y-171909619D01*
X106286904Y-171958000D01*
X114898714Y-121490619D02*
X115479285Y-121490619D01*
X115189000Y-121490619D02*
X115189000Y-120474619D01*
X115285761Y-120619761D01*
X115382523Y-120716523D01*
X115479285Y-120764904D01*
X92800714Y-121617619D02*
X93381285Y-121617619D01*
X93091000Y-121617619D02*
X93091000Y-120601619D01*
X93187761Y-120746761D01*
X93284523Y-120843523D01*
X93381285Y-120891904D01*
X102894190Y-158804428D02*
X102555523Y-158804428D01*
X102410380Y-159336619D02*
X102894190Y-159336619D01*
X102894190Y-158320619D01*
X102410380Y-158320619D01*
X102023333Y-159288238D02*
X101878190Y-159336619D01*
X101636285Y-159336619D01*
X101539523Y-159288238D01*
X101491142Y-159239857D01*
X101442761Y-159143095D01*
X101442761Y-159046333D01*
X101491142Y-158949571D01*
X101539523Y-158901190D01*
X101636285Y-158852809D01*
X101829809Y-158804428D01*
X101926571Y-158756047D01*
X101974952Y-158707666D01*
X102023333Y-158610904D01*
X102023333Y-158514142D01*
X101974952Y-158417380D01*
X101926571Y-158369000D01*
X101829809Y-158320619D01*
X101587904Y-158320619D01*
X101442761Y-158369000D01*
X101007333Y-159336619D02*
X101007333Y-158320619D01*
X100620285Y-158320619D01*
X100523523Y-158369000D01*
X100475142Y-158417380D01*
X100426761Y-158514142D01*
X100426761Y-158659285D01*
X100475142Y-158756047D01*
X100523523Y-158804428D01*
X100620285Y-158852809D01*
X101007333Y-158852809D01*
X100088095Y-158320619D02*
X99459142Y-158320619D01*
X99797809Y-158707666D01*
X99652666Y-158707666D01*
X99555904Y-158756047D01*
X99507523Y-158804428D01*
X99459142Y-158901190D01*
X99459142Y-159143095D01*
X99507523Y-159239857D01*
X99555904Y-159288238D01*
X99652666Y-159336619D01*
X99942952Y-159336619D01*
X100039714Y-159288238D01*
X100088095Y-159239857D01*
X99072095Y-158417380D02*
X99023714Y-158369000D01*
X98926952Y-158320619D01*
X98685047Y-158320619D01*
X98588285Y-158369000D01*
X98539904Y-158417380D01*
X98491523Y-158514142D01*
X98491523Y-158610904D01*
X98539904Y-158756047D01*
X99120476Y-159336619D01*
X98491523Y-159336619D01*
X98056095Y-158949571D02*
X97282000Y-158949571D01*
X96798190Y-159336619D02*
X96798190Y-158320619D01*
X96411142Y-158320619D01*
X96314380Y-158369000D01*
X96266000Y-158417380D01*
X96217619Y-158514142D01*
X96217619Y-158659285D01*
X96266000Y-158756047D01*
X96314380Y-158804428D01*
X96411142Y-158852809D01*
X96798190Y-158852809D01*
X95637047Y-159336619D02*
X95733809Y-159288238D01*
X95782190Y-159239857D01*
X95830571Y-159143095D01*
X95830571Y-158852809D01*
X95782190Y-158756047D01*
X95733809Y-158707666D01*
X95637047Y-158659285D01*
X95491904Y-158659285D01*
X95395142Y-158707666D01*
X95346761Y-158756047D01*
X95298380Y-158852809D01*
X95298380Y-159143095D01*
X95346761Y-159239857D01*
X95395142Y-159288238D01*
X95491904Y-159336619D01*
X95637047Y-159336619D01*
X94862952Y-158804428D02*
X94524285Y-158804428D01*
X94379142Y-159336619D02*
X94862952Y-159336619D01*
X94862952Y-158320619D01*
X94379142Y-158320619D01*
X93943714Y-158949571D02*
X93169619Y-158949571D01*
X92685809Y-159336619D02*
X92685809Y-158320619D01*
X92250380Y-159288238D02*
X92105238Y-159336619D01*
X91863333Y-159336619D01*
X91766571Y-159288238D01*
X91718190Y-159239857D01*
X91669809Y-159143095D01*
X91669809Y-159046333D01*
X91718190Y-158949571D01*
X91766571Y-158901190D01*
X91863333Y-158852809D01*
X92056857Y-158804428D01*
X92153619Y-158756047D01*
X92202000Y-158707666D01*
X92250380Y-158610904D01*
X92250380Y-158514142D01*
X92202000Y-158417380D01*
X92153619Y-158369000D01*
X92056857Y-158320619D01*
X91814952Y-158320619D01*
X91669809Y-158369000D01*
X91040857Y-158320619D02*
X90847333Y-158320619D01*
X90750571Y-158369000D01*
X90653809Y-158465761D01*
X90605428Y-158659285D01*
X90605428Y-158997952D01*
X90653809Y-159191476D01*
X90750571Y-159288238D01*
X90847333Y-159336619D01*
X91040857Y-159336619D01*
X91137619Y-159288238D01*
X91234380Y-159191476D01*
X91282761Y-158997952D01*
X91282761Y-158659285D01*
X91234380Y-158465761D01*
X91137619Y-158369000D01*
X91040857Y-158320619D01*
X96129928Y-162753523D02*
X96553261Y-162148761D01*
X96855642Y-162753523D02*
X96855642Y-161483523D01*
X96371833Y-161483523D01*
X96250880Y-161544000D01*
X96190404Y-161604476D01*
X96129928Y-161725428D01*
X96129928Y-161906857D01*
X96190404Y-162027809D01*
X96250880Y-162088285D01*
X96371833Y-162148761D01*
X96855642Y-162148761D01*
X95101833Y-162693047D02*
X95222785Y-162753523D01*
X95464690Y-162753523D01*
X95585642Y-162693047D01*
X95646119Y-162572095D01*
X95646119Y-162088285D01*
X95585642Y-161967333D01*
X95464690Y-161906857D01*
X95222785Y-161906857D01*
X95101833Y-161967333D01*
X95041357Y-162088285D01*
X95041357Y-162209238D01*
X95646119Y-162330190D01*
X94618023Y-161906857D02*
X94315642Y-162753523D01*
X94013261Y-161906857D01*
X93529452Y-162632571D02*
X93468976Y-162693047D01*
X93529452Y-162753523D01*
X93589928Y-162693047D01*
X93529452Y-162632571D01*
X93529452Y-162753523D01*
X92319928Y-162753523D02*
X92924690Y-162753523D01*
X92924690Y-161483523D01*
D12*
X95576571Y-95123000D02*
X95612857Y-95086714D01*
X95685428Y-94977857D01*
X95721714Y-94905285D01*
X95758000Y-94796428D01*
X95794285Y-94615000D01*
X95794285Y-94469857D01*
X95758000Y-94288428D01*
X95721714Y-94179571D01*
X95685428Y-94107000D01*
X95612857Y-93998142D01*
X95576571Y-93961857D01*
X94850857Y-94760142D02*
X94887142Y-94796428D01*
X94996000Y-94832714D01*
X95068571Y-94832714D01*
X95177428Y-94796428D01*
X95250000Y-94723857D01*
X95286285Y-94651285D01*
X95322571Y-94506142D01*
X95322571Y-94397285D01*
X95286285Y-94252142D01*
X95250000Y-94179571D01*
X95177428Y-94107000D01*
X95068571Y-94070714D01*
X94996000Y-94070714D01*
X94887142Y-94107000D01*
X94850857Y-94143285D01*
X94596857Y-95123000D02*
X94560571Y-95086714D01*
X94488000Y-94977857D01*
X94451714Y-94905285D01*
X94415428Y-94796428D01*
X94379142Y-94615000D01*
X94379142Y-94469857D01*
X94415428Y-94288428D01*
X94451714Y-94179571D01*
X94488000Y-94107000D01*
X94560571Y-93998142D01*
X94596857Y-93961857D01*
X93472000Y-94143285D02*
X93435714Y-94107000D01*
X93363142Y-94070714D01*
X93181714Y-94070714D01*
X93109142Y-94107000D01*
X93072857Y-94143285D01*
X93036571Y-94215857D01*
X93036571Y-94288428D01*
X93072857Y-94397285D01*
X93508285Y-94832714D01*
X93036571Y-94832714D01*
X92564857Y-94070714D02*
X92492285Y-94070714D01*
X92419714Y-94107000D01*
X92383428Y-94143285D01*
X92347142Y-94215857D01*
X92310857Y-94361000D01*
X92310857Y-94542428D01*
X92347142Y-94687571D01*
X92383428Y-94760142D01*
X92419714Y-94796428D01*
X92492285Y-94832714D01*
X92564857Y-94832714D01*
X92637428Y-94796428D01*
X92673714Y-94760142D01*
X92710000Y-94687571D01*
X92746285Y-94542428D01*
X92746285Y-94361000D01*
X92710000Y-94215857D01*
X92673714Y-94143285D01*
X92637428Y-94107000D01*
X92564857Y-94070714D01*
X92020571Y-94143285D02*
X91984285Y-94107000D01*
X91911714Y-94070714D01*
X91730285Y-94070714D01*
X91657714Y-94107000D01*
X91621428Y-94143285D01*
X91585142Y-94215857D01*
X91585142Y-94288428D01*
X91621428Y-94397285D01*
X92056857Y-94832714D01*
X91585142Y-94832714D01*
X91294857Y-94143285D02*
X91258571Y-94107000D01*
X91186000Y-94070714D01*
X91004571Y-94070714D01*
X90932000Y-94107000D01*
X90895714Y-94143285D01*
X90859428Y-94215857D01*
X90859428Y-94288428D01*
X90895714Y-94397285D01*
X91331142Y-94832714D01*
X90859428Y-94832714D01*
X112119833Y-96033166D02*
X112119833Y-95144166D01*
X111738833Y-96033166D02*
X111738833Y-95567500D01*
X111781166Y-95482833D01*
X111865833Y-95440500D01*
X111992833Y-95440500D01*
X112077500Y-95482833D01*
X112119833Y-95525166D01*
X111442500Y-95440500D02*
X111103833Y-95440500D01*
X111315500Y-95144166D02*
X111315500Y-95906166D01*
X111273166Y-95990833D01*
X111188500Y-96033166D01*
X111103833Y-96033166D01*
X110934500Y-95440500D02*
X110595833Y-95440500D01*
X110807500Y-95144166D02*
X110807500Y-95906166D01*
X110765166Y-95990833D01*
X110680500Y-96033166D01*
X110595833Y-96033166D01*
X110299500Y-95440500D02*
X110299500Y-96329500D01*
X110299500Y-95482833D02*
X110214833Y-95440500D01*
X110045500Y-95440500D01*
X109960833Y-95482833D01*
X109918500Y-95525166D01*
X109876166Y-95609833D01*
X109876166Y-95863833D01*
X109918500Y-95948500D01*
X109960833Y-95990833D01*
X110045500Y-96033166D01*
X110214833Y-96033166D01*
X110299500Y-95990833D01*
X109537500Y-95990833D02*
X109452833Y-96033166D01*
X109283500Y-96033166D01*
X109198833Y-95990833D01*
X109156500Y-95906166D01*
X109156500Y-95863833D01*
X109198833Y-95779166D01*
X109283500Y-95736833D01*
X109410500Y-95736833D01*
X109495166Y-95694500D01*
X109537500Y-95609833D01*
X109537500Y-95567500D01*
X109495166Y-95482833D01*
X109410500Y-95440500D01*
X109283500Y-95440500D01*
X109198833Y-95482833D01*
X108775500Y-95948500D02*
X108733166Y-95990833D01*
X108775500Y-96033166D01*
X108817833Y-95990833D01*
X108775500Y-95948500D01*
X108775500Y-96033166D01*
X108775500Y-95482833D02*
X108733166Y-95525166D01*
X108775500Y-95567500D01*
X108817833Y-95525166D01*
X108775500Y-95482833D01*
X108775500Y-95567500D01*
X107717166Y-95101833D02*
X108479166Y-96244833D01*
X106785833Y-95101833D02*
X107547833Y-96244833D01*
X106574166Y-95440500D02*
X106404833Y-96033166D01*
X106235500Y-95609833D01*
X106066166Y-96033166D01*
X105896833Y-95440500D01*
X105642833Y-95440500D02*
X105473500Y-96033166D01*
X105304166Y-95609833D01*
X105134833Y-96033166D01*
X104965500Y-95440500D01*
X104711500Y-95440500D02*
X104542166Y-96033166D01*
X104372833Y-95609833D01*
X104203500Y-96033166D01*
X104034166Y-95440500D01*
X103695500Y-95948500D02*
X103653166Y-95990833D01*
X103695500Y-96033166D01*
X103737833Y-95990833D01*
X103695500Y-95948500D01*
X103695500Y-96033166D01*
X103145166Y-96033166D02*
X103229833Y-95990833D01*
X103272166Y-95948500D01*
X103314500Y-95863833D01*
X103314500Y-95609833D01*
X103272166Y-95525166D01*
X103229833Y-95482833D01*
X103145166Y-95440500D01*
X103018166Y-95440500D01*
X102933500Y-95482833D01*
X102891166Y-95525166D01*
X102848833Y-95609833D01*
X102848833Y-95863833D01*
X102891166Y-95948500D01*
X102933500Y-95990833D01*
X103018166Y-96033166D01*
X103145166Y-96033166D01*
X102340833Y-96033166D02*
X102425500Y-95990833D01*
X102467833Y-95906166D01*
X102467833Y-95144166D01*
X102002166Y-96033166D02*
X102002166Y-95440500D01*
X102002166Y-95144166D02*
X102044500Y-95186500D01*
X102002166Y-95228833D01*
X101959833Y-95186500D01*
X102002166Y-95144166D01*
X102002166Y-95228833D01*
X101578833Y-96033166D02*
X101578833Y-95440500D01*
X101578833Y-95525166D02*
X101536500Y-95482833D01*
X101451833Y-95440500D01*
X101324833Y-95440500D01*
X101240166Y-95482833D01*
X101197833Y-95567500D01*
X101197833Y-96033166D01*
X101197833Y-95567500D02*
X101155500Y-95482833D01*
X101070833Y-95440500D01*
X100943833Y-95440500D01*
X100859166Y-95482833D01*
X100816833Y-95567500D01*
X100816833Y-96033166D01*
X100054833Y-95990833D02*
X100139500Y-96033166D01*
X100308833Y-96033166D01*
X100393500Y-95990833D01*
X100435833Y-95906166D01*
X100435833Y-95567500D01*
X100393500Y-95482833D01*
X100308833Y-95440500D01*
X100139500Y-95440500D01*
X100054833Y-95482833D01*
X100012500Y-95567500D01*
X100012500Y-95652166D01*
X100435833Y-95736833D01*
X99716166Y-96033166D02*
X99250500Y-95440500D01*
X99716166Y-95440500D02*
X99250500Y-96033166D01*
X98911833Y-95948500D02*
X98869500Y-95990833D01*
X98911833Y-96033166D01*
X98954166Y-95990833D01*
X98911833Y-95948500D01*
X98911833Y-96033166D01*
X98107500Y-95990833D02*
X98192166Y-96033166D01*
X98361500Y-96033166D01*
X98446166Y-95990833D01*
X98488500Y-95948500D01*
X98530833Y-95863833D01*
X98530833Y-95609833D01*
X98488500Y-95525166D01*
X98446166Y-95482833D01*
X98361500Y-95440500D01*
X98192166Y-95440500D01*
X98107500Y-95482833D01*
X97599500Y-96033166D02*
X97684166Y-95990833D01*
X97726500Y-95948500D01*
X97768833Y-95863833D01*
X97768833Y-95609833D01*
X97726500Y-95525166D01*
X97684166Y-95482833D01*
X97599500Y-95440500D01*
X97472500Y-95440500D01*
X97387833Y-95482833D01*
X97345500Y-95525166D01*
X97303166Y-95609833D01*
X97303166Y-95863833D01*
X97345500Y-95948500D01*
X97387833Y-95990833D01*
X97472500Y-96033166D01*
X97599500Y-96033166D01*
X96922166Y-96033166D02*
X96922166Y-95440500D01*
X96922166Y-95525166D02*
X96879833Y-95482833D01*
X96795166Y-95440500D01*
X96668166Y-95440500D01*
X96583500Y-95482833D01*
X96541166Y-95567500D01*
X96541166Y-96033166D01*
X96541166Y-95567500D02*
X96498833Y-95482833D01*
X96414166Y-95440500D01*
X96287166Y-95440500D01*
X96202500Y-95482833D01*
X96160166Y-95567500D01*
X96160166Y-96033166D01*
D11*
X112689000Y-161830000D02*
X112689000Y-165830000D01*
X117689000Y-161830000D02*
X117689000Y-165730000D01*
X117689000Y-165730000D02*
X117589000Y-165830000D01*
X117689000Y-161830000D02*
X117589000Y-161830000D01*
X112789000Y-161830000D02*
X112689000Y-161830000D01*
X112789000Y-165830000D02*
X112689000Y-165830000D01*
X117343000Y-165100000D02*
G75*
G03*
X117343000Y-165100000I-254000J0D01*
G01*
X92341700Y-103911400D02*
X92341700Y-106387900D01*
X91389200Y-104495600D02*
X92303600Y-105867200D01*
X92303600Y-105867200D02*
X93294200Y-104495600D01*
X91389200Y-105867200D02*
X93294200Y-105867200D01*
X91389200Y-104495600D02*
X93294200Y-104495600D01*
X91389200Y-106045000D02*
X93294200Y-106045000D01*
X93294200Y-105867200D02*
X93294200Y-106045000D01*
X91389200Y-105867200D02*
X91389200Y-106045000D01*
X93091000Y-104648000D02*
X91567000Y-104648000D01*
X91694000Y-104775000D02*
X92964000Y-104775000D01*
X92837000Y-104902000D02*
X91694000Y-104902000D01*
X91948000Y-105029000D02*
X92837000Y-105029000D01*
X91948000Y-105156000D02*
X92710000Y-105156000D01*
X92075000Y-105283000D02*
X92710000Y-105283000D01*
X92202000Y-105410000D02*
X92583000Y-105410000D01*
X96365000Y-150400000D02*
X96365000Y-150900000D01*
X96365000Y-153900000D02*
X96365000Y-154400000D01*
X92865000Y-153900000D02*
X92865000Y-154400000D01*
X92865000Y-150400000D02*
X92865000Y-150900000D01*
X94365000Y-152150000D02*
X93115000Y-152150000D01*
X93115000Y-152150000D02*
X93115000Y-152650000D01*
X93115000Y-152650000D02*
X94365000Y-152650000D01*
X93115000Y-152400000D02*
X94365000Y-152400000D01*
X96365000Y-153900000D02*
G75*
G03*
X96365000Y-150900000I0J1500000D01*
G01*
X96365000Y-154400000D02*
G75*
G03*
X96365000Y-150400000I0J2000000D01*
G01*
D13*
X96414980Y-154150000D02*
G75*
G03*
X96415000Y-150650000I-49980J1750000D01*
G01*
D11*
X92865000Y-153900000D02*
G75*
G03*
X92865000Y-150900000I0J1500000D01*
G01*
D13*
X92914980Y-154150000D02*
G75*
G03*
X92915000Y-150650000I-49980J1750000D01*
G01*
D11*
X92865000Y-154400000D02*
G75*
G03*
X92865000Y-150400000I0J2000000D01*
G01*
X93091000Y-100838000D02*
X92075000Y-100838000D01*
X93091000Y-102362000D02*
X92075000Y-102362000D01*
X99568000Y-165227000D02*
X98044000Y-165227000D01*
X99568000Y-167767000D02*
X98044000Y-167767000D01*
X111633000Y-149479000D02*
X110109000Y-149479000D01*
X111633000Y-152019000D02*
X110109000Y-152019000D01*
D14*
X106323000Y-162920000D02*
X106323000Y-157120000D01*
D11*
X104223000Y-163120000D02*
X111423000Y-163120000D01*
X111423000Y-156920000D02*
X104223000Y-156920000D01*
X109023000Y-159020000D02*
X109023000Y-161020000D01*
X109023000Y-161020000D02*
X107623000Y-160020000D01*
X109023000Y-159020000D02*
X107623000Y-160020000D01*
X107623000Y-159020000D02*
X107623000Y-161020000D01*
X104223000Y-163120000D02*
X104223000Y-162020000D01*
X104223000Y-156920000D02*
X104223000Y-158020000D01*
X111423000Y-163120000D02*
X111423000Y-162020000D01*
X111423000Y-156920000D02*
X111423000Y-158020000D01*
X107623000Y-160020000D02*
X107023000Y-160020000D01*
X109023000Y-160020000D02*
X109823000Y-160020000D01*
X95440500Y-145923000D02*
X95440500Y-146177000D01*
X95440500Y-145923000D02*
X95440500Y-145669000D01*
X94551500Y-145923000D02*
X94551500Y-145669000D01*
X94551500Y-145923000D02*
X94551500Y-146177000D01*
X109347000Y-180213000D02*
X112903000Y-187325000D01*
X112903000Y-187325000D02*
X105791000Y-187325000D01*
X105791000Y-187325000D02*
X107124500Y-184658000D01*
X107124500Y-184658000D02*
X107569000Y-183769000D01*
X107569000Y-183769000D02*
X109347000Y-180213000D01*
X111125000Y-183832500D02*
X105791000Y-187325000D01*
X108750100Y-183769000D02*
X107569000Y-183769000D01*
X107124500Y-184658000D02*
X107442000Y-184658000D01*
X110109000Y-186245500D02*
X109956600Y-186245500D01*
X111061500Y-184848500D02*
X111061500Y-185928000D01*
X110617000Y-186245500D02*
X110617000Y-186118500D01*
X110680500Y-186055000D02*
X110680500Y-185039000D01*
X110680500Y-186055000D02*
X110744000Y-186055000D01*
X108966721Y-183705678D02*
G75*
G02*
X110553500Y-184213500I466639J-1274902D01*
G01*
X108965915Y-183707114D02*
G75*
G02*
X108750100Y-183769000I-182795J230214D01*
G01*
X107441301Y-184658474D02*
G75*
G02*
X107950000Y-184848500I64199J-604046D01*
G01*
X108772461Y-185294576D02*
G75*
G02*
X107950000Y-184848500I147819J1253796D01*
G01*
X109284708Y-185040166D02*
G75*
G02*
X110236000Y-185801000I-285688J-1332334D01*
G01*
X109346915Y-185484965D02*
G75*
G02*
X109918500Y-186245500I-284395J-808795D01*
G01*
X108907275Y-185357493D02*
G75*
G02*
X109347000Y-185483500I-825195J-3709947D01*
G01*
X110235967Y-186118600D02*
G75*
G02*
X110109000Y-186245500I-190467J63600D01*
G01*
X110235068Y-185801674D02*
G75*
G02*
X110236000Y-186118500I-316568J-159346D01*
G01*
X110678935Y-185040845D02*
G75*
G02*
X109982000Y-184594500I153965J1007685D01*
G01*
X110869549Y-184531142D02*
G75*
G02*
X110553500Y-184213500I478971J792622D01*
G01*
X110872048Y-184532575D02*
G75*
G02*
X111061500Y-184848500I-168688J-315925D01*
G01*
X111061500Y-185928000D02*
G75*
G02*
X110680500Y-186309000I-381000J0D01*
G01*
X110678071Y-186311545D02*
G75*
G02*
X110617000Y-186245500I2429J63505D01*
G01*
X110617000Y-186118500D02*
G75*
G02*
X110680500Y-186055000I63500J0D01*
G01*
X110744000Y-186055000D02*
G75*
G02*
X110871000Y-186182000I0J-127000D01*
G01*
X95631000Y-98742500D02*
X95885000Y-98742500D01*
X95631000Y-98742500D02*
X95377000Y-98742500D01*
X95631000Y-99631500D02*
X95377000Y-99631500D01*
X95631000Y-99631500D02*
X95885000Y-99631500D01*
X95631000Y-97726500D02*
X95885000Y-97726500D01*
X95631000Y-97726500D02*
X95377000Y-97726500D01*
X95631000Y-98615500D02*
X95377000Y-98615500D01*
X95631000Y-98615500D02*
X95885000Y-98615500D01*
X95631000Y-100647500D02*
X95377000Y-100647500D01*
X95631000Y-100647500D02*
X95885000Y-100647500D01*
X95631000Y-99758500D02*
X95885000Y-99758500D01*
X95631000Y-99758500D02*
X95377000Y-99758500D01*
X104013000Y-151003000D02*
X105029000Y-151003000D01*
X104013000Y-152527000D02*
X105029000Y-152527000D01*
D15*
X95483680Y-174421800D02*
X95150940Y-175153320D01*
X95483680Y-174513240D02*
X94302580Y-175526700D01*
X95369380Y-174376080D02*
X94752160Y-174703740D01*
X95049340Y-173956980D02*
X94439740Y-174063660D01*
X94213680Y-172798740D02*
X94935040Y-172946060D01*
X94454980Y-172105320D02*
X95110300Y-172471080D01*
X95323660Y-171236640D02*
X95742760Y-171823380D01*
X95910400Y-170985180D02*
X96131380Y-171670980D01*
X97175320Y-170969940D02*
X97007680Y-171579540D01*
X97609660Y-171229020D02*
X97434400Y-171587160D01*
X98607880Y-172006260D02*
X98150680Y-172295820D01*
X98783140Y-172486320D02*
X98341180Y-172646340D01*
X99108260Y-173730920D02*
X98402140Y-173603920D01*
X98859340Y-174376080D02*
X98295460Y-173896020D01*
X98193860Y-175275240D02*
X97828100Y-174513240D01*
X93403420Y-173222920D02*
X94871540Y-173309280D01*
X94394020Y-171038520D02*
X95506540Y-172105320D01*
X96659700Y-169981880D02*
X96654620Y-171495720D01*
X98920300Y-170957240D02*
X97858580Y-172064680D01*
X99905820Y-173243240D02*
X98488500Y-173182280D01*
X98869500Y-175447960D02*
X98016060Y-174426880D01*
D16*
X97853500Y-174017940D02*
X97546160Y-174284640D01*
X98183700Y-171104560D02*
X97200720Y-170611800D01*
X96004380Y-174609760D02*
X96126300Y-174325280D01*
X95867220Y-174155100D02*
X96121220Y-174320200D01*
X97368360Y-174152560D02*
X97142300Y-174327820D01*
X97736660Y-174038260D02*
X97477580Y-174376080D01*
X97960180Y-173817280D02*
X97866200Y-173987460D01*
X97960180Y-173817280D02*
X97866200Y-173987460D01*
X98097340Y-172963840D02*
X97965260Y-173786800D01*
X97673160Y-172227240D02*
X98092260Y-172958760D01*
X96801940Y-171797980D02*
X97673160Y-172227240D01*
X95986600Y-171965620D02*
X96801940Y-171805600D01*
X95476060Y-172394880D02*
X95986600Y-171965620D01*
X95242380Y-173067980D02*
X95476060Y-172394880D01*
X95247460Y-173573440D02*
X95247460Y-173055280D01*
X95623380Y-174284640D02*
X95247460Y-173573440D01*
X95801180Y-174406560D02*
X95623380Y-174284640D01*
X99072700Y-170385740D02*
X98188780Y-171107100D01*
X98828860Y-171739560D02*
X99430840Y-170830240D01*
X98833940Y-171734480D02*
X99220020Y-172732700D01*
X100363020Y-173001940D02*
X99247960Y-172755560D01*
X100220780Y-172946060D02*
X100220780Y-173596300D01*
X95844360Y-174348140D02*
X95316040Y-175729900D01*
X95453200Y-176027080D02*
X95839280Y-175046640D01*
X94924880Y-175699420D02*
X95453200Y-176027080D01*
X94241620Y-176032160D02*
X95062040Y-175503840D01*
X95105220Y-175727360D02*
X94228920Y-176347120D01*
X94218760Y-176342040D02*
X93535500Y-175651160D01*
X93822520Y-175567340D02*
X94307660Y-176098200D01*
X93789500Y-173931580D02*
X94170500Y-174912020D01*
X93893640Y-173964600D02*
X92770960Y-173753780D01*
X92755720Y-172775880D02*
X92758260Y-173733460D01*
X92839540Y-173517560D02*
X93946980Y-173741080D01*
X94142560Y-171747180D02*
X93776800Y-172615860D01*
X93527880Y-170865800D02*
X94231460Y-171856400D01*
X94226380Y-170167300D02*
X93532960Y-170858180D01*
X95242380Y-170842940D02*
X94231460Y-170169840D01*
X95928180Y-170456860D02*
X95123000Y-170794680D01*
X96144080Y-169367200D02*
X95918020Y-170538140D01*
X97109280Y-169367200D02*
X96144080Y-169367200D01*
X97119440Y-169374820D02*
X97320100Y-170400980D01*
X98107500Y-170769280D02*
X97203260Y-170390820D01*
X99042220Y-170121580D02*
X98071940Y-170837860D01*
X99728020Y-170837860D02*
X99054920Y-170124120D01*
X99707700Y-170873420D02*
X99113340Y-171726860D01*
X99446080Y-172557440D02*
X99110800Y-171724320D01*
X100515420Y-172755560D02*
X99344480Y-172552360D01*
X100512880Y-172758100D02*
X100512880Y-173743620D01*
X100512880Y-173751240D02*
X99441000Y-173946820D01*
X99750880Y-175658780D02*
X99153980Y-174795180D01*
X99021900Y-176354740D02*
X99743260Y-175661320D01*
X98188780Y-175783240D02*
X99014280Y-176347120D01*
X98176080Y-175793400D02*
X97830640Y-176014380D01*
X97792540Y-175996600D02*
X97142300Y-174327820D01*
D17*
X94226380Y-176187100D02*
X93672660Y-175641000D01*
X94292420Y-174746920D02*
X93672660Y-175633380D01*
X95415100Y-175813720D02*
X95989140Y-174373540D01*
X95077280Y-175628300D02*
X95415100Y-175813720D01*
X94241620Y-176194720D02*
X95077280Y-175628300D01*
X93886020Y-173835060D02*
X94292420Y-174746920D01*
X92872560Y-173664880D02*
X93886020Y-173835060D01*
X92872560Y-172829220D02*
X92872560Y-173664880D01*
X93954600Y-172600620D02*
X92872560Y-172829220D01*
X94294960Y-171663360D02*
X93954600Y-172600620D01*
X93677740Y-170873420D02*
X94294960Y-171663360D01*
X94231460Y-170324780D02*
X93677740Y-170870880D01*
X95135700Y-170957240D02*
X94231460Y-170322800D01*
X96050100Y-170512740D02*
X95148400Y-170962320D01*
X96263460Y-169494200D02*
X96050100Y-170512740D01*
X97030540Y-169473880D02*
X96245680Y-169473880D01*
X97022920Y-169486580D02*
X97228660Y-170500040D01*
X98127820Y-170926760D02*
X97282000Y-170520360D01*
X99016820Y-170284140D02*
X98188780Y-170936920D01*
D18*
X99565460Y-170842940D02*
X99065080Y-170309540D01*
D17*
X99555300Y-170865800D02*
X98999040Y-171716700D01*
X99326700Y-172633640D02*
X98978720Y-171767500D01*
X100375720Y-172849540D02*
X99357180Y-172669200D01*
D18*
X100363020Y-172862240D02*
X100368100Y-173649640D01*
D17*
X100373180Y-173639480D02*
X99423220Y-173857920D01*
X99395280Y-173880780D02*
X99037140Y-174764700D01*
X99570540Y-175641000D02*
X99037140Y-174807880D01*
D18*
X99585780Y-175641000D02*
X99021900Y-176179480D01*
D19*
X99009200Y-176179480D02*
X98229420Y-175648620D01*
D17*
X98219260Y-175630840D02*
X97901760Y-175836580D01*
D20*
X97873820Y-175816260D02*
X97322640Y-174393860D01*
D17*
X97548700Y-172349160D02*
G75*
G02*
X97472500Y-174203360I-965200J-889000D01*
G01*
X95597980Y-172521880D02*
G75*
G02*
X97523300Y-172323760I1061720J-863600D01*
G01*
X95978980Y-174371000D02*
G75*
G02*
X95608140Y-172506640I746760J1117600D01*
G01*
D11*
X114744500Y-143256000D02*
X114744500Y-143510000D01*
X114744500Y-143256000D02*
X114744500Y-143002000D01*
X113855500Y-143256000D02*
X113855500Y-143002000D01*
X113855500Y-143256000D02*
X113855500Y-143510000D01*
X112268000Y-145288000D02*
X112268000Y-144272000D01*
X113792000Y-145288000D02*
X113792000Y-144272000D01*
D21*
X100723700Y-90881200D02*
X99352100Y-90881200D01*
X99352100Y-90881200D02*
X99301300Y-90881200D01*
X99301300Y-90881200D02*
X98044000Y-92125800D01*
X102247700Y-90995500D02*
X102146100Y-90995500D01*
X102095300Y-90932000D02*
X102095300Y-90919300D01*
X102095300Y-90919300D02*
X103390700Y-90919300D01*
X103390700Y-90919300D02*
X103416100Y-90919300D01*
X103416100Y-90919300D02*
X104038400Y-91414600D01*
X102095300Y-93941900D02*
X102095300Y-90932000D01*
X105752900Y-90982800D02*
X105829100Y-90982800D01*
X105905300Y-90919300D02*
X104660700Y-90919300D01*
X104660700Y-90919300D02*
X104076500Y-91401900D01*
X105905300Y-93916500D02*
X105905300Y-90932000D01*
X106641900Y-93510100D02*
X106553000Y-93510100D01*
X106984800Y-93510100D02*
X107048300Y-93510100D01*
X107124500Y-93573600D02*
X106514900Y-93573600D01*
X106514900Y-93573600D02*
X106489500Y-93573600D01*
X106489500Y-93573600D02*
X106489500Y-91554300D01*
X107124500Y-91554300D02*
X107124500Y-93573600D01*
X108623100Y-90944700D02*
X108508800Y-90944700D01*
X108750100Y-90868500D02*
X108445300Y-90868500D01*
X108445300Y-90868500D02*
X108445300Y-93903800D01*
X108927900Y-90957400D02*
X108991400Y-90944700D01*
X109042200Y-90868500D02*
X109054900Y-90868500D01*
X109054900Y-90868500D02*
X109067600Y-90868500D01*
X109067600Y-90868500D02*
X109067600Y-94018100D01*
X108762800Y-90868500D02*
X109042200Y-90868500D01*
D22*
X108762800Y-93941900D02*
X108762800Y-91211400D01*
X102425500Y-91224100D02*
X102425500Y-93827600D01*
X110540800Y-91211400D02*
X111544100Y-91211400D01*
X109918500Y-91821000D02*
X109918500Y-93751400D01*
X112141000Y-91859100D02*
X112141000Y-92100400D01*
X112141000Y-93827600D02*
X111556800Y-94399100D01*
X112128300Y-93840300D02*
X112128300Y-93078300D01*
X111569500Y-94399100D02*
X110528100Y-94399100D01*
D19*
X99800659Y-92786200D02*
G75*
G03*
X99800659Y-92786200I-359659J0D01*
G01*
D22*
X99949000Y-92786200D02*
X101168200Y-92786200D01*
D19*
X96866735Y-91046300D02*
G75*
G03*
X96866735Y-91046300I-359435J0D01*
G01*
D22*
X96875600Y-91401900D02*
X97739200Y-92295600D01*
D23*
X98298000Y-92392500D02*
X97739200Y-92392500D01*
D22*
X99415600Y-91211400D02*
X98323400Y-92278200D01*
X100637500Y-91211400D02*
X99415600Y-91211400D01*
X101168200Y-91694000D02*
X100685600Y-91186000D01*
X101168200Y-91719400D02*
X101168200Y-93954600D01*
X101168200Y-93954600D02*
X100736400Y-94386400D01*
X100736400Y-94386400D02*
X99415600Y-94386400D01*
X99415600Y-94386400D02*
X98272600Y-93268800D01*
D23*
X98272600Y-93167200D02*
X97739200Y-93167200D01*
D22*
X96926400Y-94081600D02*
X97764600Y-93268800D01*
D19*
X96925666Y-94437200D02*
G75*
G03*
X96925666Y-94437200I-329466J0D01*
G01*
X102788729Y-94348300D02*
G75*
G03*
X102788729Y-94348300I-363229J0D01*
G01*
D22*
X103327200Y-91236800D02*
X102438200Y-91236800D01*
D19*
X104409318Y-93065600D02*
G75*
G03*
X104409318Y-93065600I-370918J0D01*
G01*
D22*
X103962200Y-91744800D02*
X103327200Y-91236800D01*
X104038400Y-92532200D02*
X104038400Y-91821000D01*
X104749600Y-91236800D02*
X104140000Y-91744800D01*
X105587800Y-91236800D02*
X104749600Y-91236800D01*
X105587800Y-93827600D02*
X105587800Y-91236800D01*
D19*
X105934759Y-94335600D02*
G75*
G03*
X105934759Y-94335600I-359659J0D01*
G01*
X107167818Y-91135200D02*
G75*
G03*
X107167818Y-91135200I-373518J0D01*
G01*
D22*
X106807000Y-91668600D02*
X106807000Y-93268800D01*
D19*
X107173324Y-94361000D02*
G75*
G03*
X107173324Y-94361000I-366324J0D01*
G01*
D22*
X107319800Y-94386400D02*
X108305600Y-94386400D01*
X108305600Y-94386400D02*
X108762800Y-93929200D01*
X109931200Y-93789500D02*
X110490000Y-94373700D01*
X110540800Y-91224100D02*
X109905800Y-91833700D01*
X112141000Y-91808300D02*
X111633000Y-91300300D01*
D19*
X112465747Y-92583000D02*
G75*
G03*
X112465747Y-92583000I-337447J0D01*
G01*
D24*
X94107000Y-112522000D02*
G75*
G03*
X94107000Y-112522000I-127000J0D01*
G01*
D11*
X95123000Y-108458000D02*
X95123000Y-108585000D01*
X95123000Y-108585000D02*
X94742000Y-108585000D01*
X94742000Y-108585000D02*
X94742000Y-108458000D01*
X94742000Y-108458000D02*
X95123000Y-108458000D01*
X94996000Y-109982000D02*
X94361000Y-109982000D01*
X95123000Y-109855000D02*
X94234000Y-109855000D01*
X94234000Y-109855000D02*
X94234000Y-110236000D01*
X94234000Y-110236000D02*
X95123000Y-110236000D01*
X95123000Y-110236000D02*
X95123000Y-109855000D01*
X93726000Y-109855000D02*
X93726000Y-109474000D01*
X93726000Y-109474000D02*
X93599000Y-109474000D01*
X93599000Y-109474000D02*
X93599000Y-109855000D01*
X93726000Y-109474000D02*
X93726000Y-109601000D01*
X93726000Y-109347000D02*
X93599000Y-109728000D01*
X93726000Y-109474000D02*
X93726000Y-109601000D01*
X93853000Y-109347000D02*
X93853000Y-109855000D01*
X93853000Y-109855000D02*
X93472000Y-109855000D01*
X93472000Y-109855000D02*
X93472000Y-109347000D01*
X95885000Y-109220000D02*
X95885000Y-108712000D01*
X95885000Y-108712000D02*
X95758000Y-108712000D01*
X95758000Y-108712000D02*
X95758000Y-109220000D01*
X94381609Y-112522000D02*
G75*
G03*
X94381609Y-112522000I-401609J0D01*
G01*
X93980000Y-112014000D02*
X93853000Y-109982000D01*
X95885000Y-112522000D02*
X95885000Y-112903000D01*
X95885000Y-112903000D02*
X95377000Y-112903000D01*
X95377000Y-112903000D02*
X95377000Y-112649000D01*
X96393000Y-109347000D02*
X93472000Y-109347000D01*
X95885000Y-112522000D02*
X96139000Y-109474000D01*
X95885000Y-112522000D02*
X94488000Y-112522000D01*
X96901000Y-112903000D02*
X92837000Y-108966000D01*
X97028000Y-108839000D02*
X92837000Y-113030000D01*
D16*
X97183200Y-114275400D02*
X92763600Y-114275400D01*
X92763600Y-114173800D02*
X97132400Y-114173800D01*
X97183200Y-113970600D02*
X92712800Y-113970600D01*
X97183200Y-113818200D02*
X92763600Y-113818200D01*
X92712800Y-114072200D02*
X97132400Y-114072200D01*
X92712800Y-113919800D02*
X97132400Y-113919800D01*
X97183200Y-113767400D02*
X92712800Y-113767400D01*
X92712800Y-113665800D02*
X97132400Y-113665800D01*
X92662000Y-114377000D02*
X97234000Y-114377000D01*
X97234000Y-114377000D02*
X97234000Y-113615000D01*
X97234000Y-113615000D02*
X92662000Y-113615000D01*
X92662000Y-113615000D02*
X92662000Y-114377000D01*
D11*
X93853000Y-109220000D02*
G75*
G02*
X96139000Y-109220000I1143000J-1143000D01*
G01*
D25*
X109634020Y-120731280D02*
X112067340Y-118310660D01*
D11*
X112597037Y-119567960D02*
G75*
G03*
X112597037Y-119567960I-1802237J0D01*
G01*
X102743000Y-110744000D02*
X101727000Y-110744000D01*
X102743000Y-112776000D02*
X101727000Y-112776000D01*
X105664000Y-132778500D02*
X105410000Y-132778500D01*
X105664000Y-132778500D02*
X105918000Y-132778500D01*
X105664000Y-131889500D02*
X105918000Y-131889500D01*
X105664000Y-131889500D02*
X105410000Y-131889500D01*
X100076000Y-135445500D02*
X100330000Y-135445500D01*
X100076000Y-135445500D02*
X99822000Y-135445500D01*
X100076000Y-136334500D02*
X99822000Y-136334500D01*
X100076000Y-136334500D02*
X100330000Y-136334500D01*
X100965000Y-139636500D02*
X101219000Y-139636500D01*
X100965000Y-139636500D02*
X100711000Y-139636500D01*
X100965000Y-138747500D02*
X100711000Y-138747500D01*
X100965000Y-138747500D02*
X101219000Y-138747500D01*
X108839000Y-141414500D02*
X108585000Y-141414500D01*
X108839000Y-141414500D02*
X109093000Y-141414500D01*
X108839000Y-140525500D02*
X109093000Y-140525500D01*
X108839000Y-140525500D02*
X108585000Y-140525500D01*
X113157000Y-110807500D02*
X112903000Y-110807500D01*
X113157000Y-110807500D02*
X113411000Y-110807500D01*
X113157000Y-109918500D02*
X113411000Y-109918500D01*
X113157000Y-109918500D02*
X112903000Y-109918500D01*
X96964500Y-105283000D02*
X96964500Y-105537000D01*
X96964500Y-105283000D02*
X96964500Y-105029000D01*
X97853500Y-105283000D02*
X97853500Y-105029000D01*
X97853500Y-105283000D02*
X97853500Y-105537000D01*
X103886000Y-127063500D02*
X103632000Y-127063500D01*
X103886000Y-127063500D02*
X104140000Y-127063500D01*
X103886000Y-126174500D02*
X104140000Y-126174500D01*
X103886000Y-126174500D02*
X103632000Y-126174500D01*
X103886000Y-125285500D02*
X103632000Y-125285500D01*
X103886000Y-125285500D02*
X104140000Y-125285500D01*
X103886000Y-124396500D02*
X104140000Y-124396500D01*
X103886000Y-124396500D02*
X103632000Y-124396500D01*
X103886000Y-121221500D02*
X103632000Y-121221500D01*
X103886000Y-121221500D02*
X104140000Y-121221500D01*
X103886000Y-120332500D02*
X104140000Y-120332500D01*
X103886000Y-120332500D02*
X103632000Y-120332500D01*
X103886000Y-126174500D02*
X103632000Y-126174500D01*
X103886000Y-126174500D02*
X104140000Y-126174500D01*
X103886000Y-125285500D02*
X104140000Y-125285500D01*
X103886000Y-125285500D02*
X103632000Y-125285500D01*
X100965000Y-139636500D02*
X101219000Y-139636500D01*
X100965000Y-139636500D02*
X100711000Y-139636500D01*
X100965000Y-140525500D02*
X100711000Y-140525500D01*
X100965000Y-140525500D02*
X101219000Y-140525500D01*
X110172500Y-136017000D02*
X110172500Y-135763000D01*
X110172500Y-136017000D02*
X110172500Y-136271000D01*
X111061500Y-136017000D02*
X111061500Y-136271000D01*
X111061500Y-136017000D02*
X111061500Y-135763000D01*
X105854500Y-141986000D02*
X105854500Y-142240000D01*
X105854500Y-141986000D02*
X105854500Y-141732000D01*
X104965500Y-141986000D02*
X104965500Y-141732000D01*
X104965500Y-141986000D02*
X104965500Y-142240000D01*
X106235500Y-141986000D02*
X106235500Y-142240000D01*
X106235500Y-141986000D02*
X106235500Y-141732000D01*
X107124500Y-141986000D02*
X107124500Y-141732000D01*
X107124500Y-141986000D02*
X107124500Y-142240000D01*
X102679500Y-141986000D02*
X102679500Y-142240000D01*
X102679500Y-141986000D02*
X102679500Y-141732000D01*
X103568500Y-141986000D02*
X103568500Y-141732000D01*
X103568500Y-141986000D02*
X103568500Y-142240000D01*
X103949500Y-141986000D02*
X103949500Y-142240000D01*
X103949500Y-141986000D02*
X103949500Y-141732000D01*
X104838500Y-141986000D02*
X104838500Y-141732000D01*
X104838500Y-141986000D02*
X104838500Y-142240000D01*
X113855500Y-145415000D02*
X113855500Y-145669000D01*
X113855500Y-145415000D02*
X113855500Y-145161000D01*
X114744500Y-145415000D02*
X114744500Y-145161000D01*
X114744500Y-145415000D02*
X114744500Y-145669000D01*
X104521000Y-150939500D02*
X104267000Y-150939500D01*
X104521000Y-150939500D02*
X104775000Y-150939500D01*
X104521000Y-150050500D02*
X104775000Y-150050500D01*
X104521000Y-150050500D02*
X104267000Y-150050500D01*
X115760500Y-109855000D02*
X115760500Y-110109000D01*
X115760500Y-109855000D02*
X115760500Y-109601000D01*
X114871500Y-109855000D02*
X114871500Y-109601000D01*
X114871500Y-109855000D02*
X114871500Y-110109000D01*
X109601000Y-144068800D02*
X109601000Y-143357600D01*
X110439200Y-143357600D02*
X109601000Y-143357600D01*
X110439200Y-146202400D02*
X109601000Y-146202400D01*
X109601000Y-146202400D02*
X109601000Y-145491200D01*
X115570000Y-121950000D02*
X118110000Y-121950000D01*
X117856000Y-127030000D02*
X118110000Y-127284000D01*
X118110000Y-126776000D02*
X117856000Y-127030000D01*
X118110000Y-124236000D02*
X118110000Y-122458000D01*
X117856000Y-124490000D02*
X118110000Y-124236000D01*
X118110000Y-124744000D02*
X117856000Y-124490000D01*
X118110000Y-126776000D02*
X118110000Y-124744000D01*
X118110000Y-122458000D02*
X118110000Y-121950000D01*
X118110000Y-122204000D02*
X117856000Y-121950000D01*
X115824000Y-121950000D02*
X115570000Y-122204000D01*
X118110000Y-129316000D02*
X118110000Y-127284000D01*
X117856000Y-129570000D02*
X118110000Y-129316000D01*
X118110000Y-132364000D02*
X117856000Y-132110000D01*
X118110000Y-131856000D02*
X118110000Y-129824000D01*
X117856000Y-132110000D02*
X118110000Y-131856000D01*
X115570000Y-131856000D02*
X115824000Y-132110000D01*
X115570000Y-129824000D02*
X115570000Y-131856000D01*
X115824000Y-129570000D02*
X115570000Y-129824000D01*
X115570000Y-129316000D02*
X115824000Y-129570000D01*
X115570000Y-127284000D02*
X115570000Y-129316000D01*
X115824000Y-127030000D02*
X115570000Y-127284000D01*
X115570000Y-126776000D02*
X115824000Y-127030000D01*
X115570000Y-124744000D02*
X115570000Y-126776000D01*
X115824000Y-124490000D02*
X115570000Y-124744000D01*
X115570000Y-124236000D02*
X115824000Y-124490000D01*
X115570000Y-122204000D02*
X115570000Y-124236000D01*
X115570000Y-121950000D02*
X115570000Y-122204000D01*
X115824000Y-132110000D02*
X115570000Y-132364000D01*
X115570000Y-132364000D02*
X115570000Y-134396000D01*
X115570000Y-136936000D02*
X115824000Y-137190000D01*
X118110000Y-134396000D02*
X118110000Y-132364000D01*
X118110000Y-129824000D02*
X117856000Y-129570000D01*
X117856000Y-137190000D02*
X118110000Y-136936000D01*
X115570000Y-134904000D02*
X115570000Y-136936000D01*
X115824000Y-134650000D02*
X115570000Y-134904000D01*
X118110000Y-136936000D02*
X118110000Y-134904000D01*
X117856000Y-134650000D02*
X118110000Y-134396000D01*
X118110000Y-134904000D02*
X117856000Y-134650000D01*
X115570000Y-134396000D02*
X115824000Y-134650000D01*
X115570000Y-136936000D02*
X115824000Y-137190000D01*
X117856000Y-137190000D02*
X118110000Y-136936000D01*
X118110000Y-136936000D02*
X118110000Y-134904000D01*
X115570000Y-134904000D02*
X115570000Y-136936000D01*
X115824000Y-134650000D02*
X115570000Y-134904000D01*
X118110000Y-134904000D02*
X117856000Y-134650000D01*
X118110000Y-139984000D02*
X117856000Y-139730000D01*
X115824000Y-139730000D02*
X115570000Y-139984000D01*
X115570000Y-139984000D02*
X115570000Y-142016000D01*
X118110000Y-142016000D02*
X118110000Y-139984000D01*
X117856000Y-142270000D02*
X118110000Y-142016000D01*
X115570000Y-142016000D02*
X115824000Y-142270000D01*
X115570000Y-139476000D02*
X115824000Y-139730000D01*
X118110000Y-139984000D02*
X117856000Y-139730000D01*
X117856000Y-139730000D02*
X118110000Y-139476000D01*
X118110000Y-142016000D02*
X118110000Y-139984000D01*
X115824000Y-139730000D02*
X115570000Y-139984000D01*
X115570000Y-139984000D02*
X115570000Y-142016000D01*
X117856000Y-142270000D02*
X118110000Y-142016000D01*
X118110000Y-139476000D02*
X118110000Y-137444000D01*
X115570000Y-142016000D02*
X115824000Y-142270000D01*
X115570000Y-137444000D02*
X115570000Y-139476000D01*
X115824000Y-137190000D02*
X115570000Y-137444000D01*
X118110000Y-137444000D02*
X117856000Y-137190000D01*
X118110000Y-142524000D02*
X117856000Y-142270000D01*
X115824000Y-142270000D02*
X115570000Y-142524000D01*
X115570000Y-142524000D02*
X115570000Y-144556000D01*
X115570000Y-147096000D02*
X115824000Y-147350000D01*
X118110000Y-144556000D02*
X118110000Y-142524000D01*
X117856000Y-147350000D02*
X118110000Y-147096000D01*
X115824000Y-147350000D02*
X117856000Y-147350000D01*
X115570000Y-145064000D02*
X115570000Y-147096000D01*
X115824000Y-144810000D02*
X115570000Y-145064000D01*
X118110000Y-147096000D02*
X118110000Y-145064000D01*
X117856000Y-144810000D02*
X118110000Y-144556000D01*
X118110000Y-145064000D02*
X117856000Y-144810000D01*
X115570000Y-144556000D02*
X115824000Y-144810000D01*
X115570000Y-147096000D02*
X115824000Y-147350000D01*
X117856000Y-147350000D02*
X118110000Y-147096000D01*
X118110000Y-147096000D02*
X118110000Y-145064000D01*
X115570000Y-145064000D02*
X115570000Y-147096000D01*
X115824000Y-144810000D02*
X115570000Y-145064000D01*
X118110000Y-145064000D02*
X117856000Y-144810000D01*
X92710000Y-145064000D02*
X92456000Y-144810000D01*
X90424000Y-144810000D02*
X90170000Y-145064000D01*
X90170000Y-145064000D02*
X90170000Y-147096000D01*
X92710000Y-147096000D02*
X92710000Y-145064000D01*
X92456000Y-147350000D02*
X92710000Y-147096000D01*
X90170000Y-147096000D02*
X90424000Y-147350000D01*
X90170000Y-144556000D02*
X90424000Y-144810000D01*
X92710000Y-145064000D02*
X92456000Y-144810000D01*
X92456000Y-144810000D02*
X92710000Y-144556000D01*
X92710000Y-147096000D02*
X92710000Y-145064000D01*
X90424000Y-144810000D02*
X90170000Y-145064000D01*
X90170000Y-145064000D02*
X90170000Y-147096000D01*
X90424000Y-147350000D02*
X92456000Y-147350000D01*
X92456000Y-147350000D02*
X92710000Y-147096000D01*
X92710000Y-144556000D02*
X92710000Y-142524000D01*
X90170000Y-147096000D02*
X90424000Y-147350000D01*
X90170000Y-142524000D02*
X90170000Y-144556000D01*
X90424000Y-142270000D02*
X90170000Y-142524000D01*
X92710000Y-142524000D02*
X92456000Y-142270000D01*
X92710000Y-137444000D02*
X92456000Y-137190000D01*
X90424000Y-137190000D02*
X90170000Y-137444000D01*
X90170000Y-137444000D02*
X90170000Y-139476000D01*
X90170000Y-142016000D02*
X90424000Y-142270000D01*
X92710000Y-139476000D02*
X92710000Y-137444000D01*
X92456000Y-142270000D02*
X92710000Y-142016000D01*
X90170000Y-139984000D02*
X90170000Y-142016000D01*
X90424000Y-139730000D02*
X90170000Y-139984000D01*
X92710000Y-142016000D02*
X92710000Y-139984000D01*
X92456000Y-139730000D02*
X92710000Y-139476000D01*
X92710000Y-139984000D02*
X92456000Y-139730000D01*
X90170000Y-139476000D02*
X90424000Y-139730000D01*
X90170000Y-142016000D02*
X90424000Y-142270000D01*
X92456000Y-142270000D02*
X92710000Y-142016000D01*
X92710000Y-142016000D02*
X92710000Y-139984000D01*
X90170000Y-139984000D02*
X90170000Y-142016000D01*
X90424000Y-139730000D02*
X90170000Y-139984000D01*
X92710000Y-139984000D02*
X92456000Y-139730000D01*
X92710000Y-134904000D02*
X92456000Y-134650000D01*
X90424000Y-134650000D02*
X90170000Y-134904000D01*
X90170000Y-134904000D02*
X90170000Y-136936000D01*
X92710000Y-136936000D02*
X92710000Y-134904000D01*
X92456000Y-137190000D02*
X92710000Y-136936000D01*
X90170000Y-136936000D02*
X90424000Y-137190000D01*
X90170000Y-134396000D02*
X90424000Y-134650000D01*
X92710000Y-134904000D02*
X92456000Y-134650000D01*
X92456000Y-134650000D02*
X92710000Y-134396000D01*
X92710000Y-136936000D02*
X92710000Y-134904000D01*
X90424000Y-134650000D02*
X90170000Y-134904000D01*
X90170000Y-134904000D02*
X90170000Y-136936000D01*
X92456000Y-137190000D02*
X92710000Y-136936000D01*
X92710000Y-129824000D02*
X92456000Y-129570000D01*
X92710000Y-134396000D02*
X92710000Y-132364000D01*
X90170000Y-136936000D02*
X90424000Y-137190000D01*
X90170000Y-132364000D02*
X90170000Y-134396000D01*
X90424000Y-132110000D02*
X90170000Y-132364000D01*
X90170000Y-121950000D02*
X90170000Y-122204000D01*
X90170000Y-122204000D02*
X90170000Y-124236000D01*
X90170000Y-124236000D02*
X90424000Y-124490000D01*
X90424000Y-124490000D02*
X90170000Y-124744000D01*
X90170000Y-124744000D02*
X90170000Y-126776000D01*
X90170000Y-126776000D02*
X90424000Y-127030000D01*
X90424000Y-127030000D02*
X90170000Y-127284000D01*
X90170000Y-127284000D02*
X90170000Y-129316000D01*
X90170000Y-129316000D02*
X90424000Y-129570000D01*
X90424000Y-129570000D02*
X90170000Y-129824000D01*
X90170000Y-129824000D02*
X90170000Y-131856000D01*
X90170000Y-131856000D02*
X90424000Y-132110000D01*
X92456000Y-132110000D02*
X92710000Y-131856000D01*
X92710000Y-131856000D02*
X92710000Y-129824000D01*
X92710000Y-132364000D02*
X92456000Y-132110000D01*
X92456000Y-129570000D02*
X92710000Y-129316000D01*
X92710000Y-129316000D02*
X92710000Y-127284000D01*
X90424000Y-121950000D02*
X90170000Y-122204000D01*
X92710000Y-122204000D02*
X92456000Y-121950000D01*
X92710000Y-122458000D02*
X92710000Y-121950000D01*
X92710000Y-126776000D02*
X92710000Y-124744000D01*
X92710000Y-124744000D02*
X92456000Y-124490000D01*
X92456000Y-124490000D02*
X92710000Y-124236000D01*
X92710000Y-124236000D02*
X92710000Y-122458000D01*
X92710000Y-126776000D02*
X92456000Y-127030000D01*
X92456000Y-127030000D02*
X92710000Y-127284000D01*
X90170000Y-121950000D02*
X92710000Y-121950000D01*
X116078000Y-113360200D02*
X116078000Y-114071400D01*
X115239800Y-114071400D02*
X116078000Y-114071400D01*
X115239800Y-111226600D02*
X116078000Y-111226600D01*
X116078000Y-111226600D02*
X116078000Y-111937800D01*
D24*
X101803200Y-112776000D02*
X102641400Y-112776000D01*
X101803200Y-114554000D02*
X102641400Y-114554000D01*
D11*
X117983000Y-176022000D02*
X117983000Y-174498000D01*
X115697000Y-176022000D02*
X115697000Y-174498000D01*
D24*
X104740000Y-106580000D02*
X104640000Y-106680000D01*
X104740000Y-106580000D02*
X104840000Y-106680000D01*
D11*
X105040000Y-104480000D02*
X105040000Y-104480000D01*
X105040000Y-105380000D02*
X105040000Y-104480000D01*
X106940000Y-105380000D02*
X105040000Y-105380000D01*
X106940000Y-106780000D02*
X106940000Y-105380000D01*
X105240000Y-106780000D02*
X106940000Y-106780000D01*
X104040000Y-106780000D02*
X105140000Y-107380000D01*
X102440000Y-106780000D02*
X104040000Y-106780000D01*
X102440000Y-105380000D02*
X102440000Y-106780000D01*
X104340000Y-105380000D02*
X102440000Y-105380000D01*
X104340000Y-104480000D02*
X104340000Y-105380000D01*
X98515000Y-104180000D02*
X109765000Y-104180000D01*
X100140000Y-110180000D02*
X108140000Y-110180000D01*
X109765000Y-106105000D02*
X109765000Y-108605000D01*
X98515000Y-106105000D02*
X98515000Y-108605000D01*
D24*
X104388528Y-107428528D02*
G75*
G03*
X104740000Y-106580000I-848528J848528D01*
G01*
D11*
X110871000Y-133096000D02*
X110871000Y-134112000D01*
X109347000Y-133096000D02*
X109347000Y-134112000D01*
X100584000Y-135382000D02*
X99568000Y-135382000D01*
X100584000Y-133858000D02*
X99568000Y-133858000D01*
X106680000Y-144272000D02*
X106680000Y-145288000D01*
X108204000Y-144272000D02*
X108204000Y-145288000D01*
X111379000Y-140462000D02*
X111379000Y-139446000D01*
X109855000Y-140462000D02*
X109855000Y-139446000D01*
X107670600Y-127939800D02*
X107454700Y-127939800D01*
X107670600Y-130886200D02*
X107670600Y-127939800D01*
X107480100Y-130886200D02*
X107670600Y-130886200D01*
X103657400Y-127939800D02*
X103873300Y-127939800D01*
X103682800Y-130886200D02*
X103860600Y-130886200D01*
X103670100Y-130886200D02*
X103670100Y-127939800D01*
X109763560Y-111871760D02*
X109763560Y-111160560D01*
X110601760Y-111160560D02*
X109763560Y-111160560D01*
X110601760Y-114005360D02*
X109763560Y-114005360D01*
X109763560Y-114005360D02*
X109763560Y-113294160D01*
D24*
X109524800Y-143256000D02*
X108686600Y-143256000D01*
X109524800Y-141478000D02*
X108686600Y-141478000D01*
D11*
X116268500Y-107696000D02*
X116268500Y-107442000D01*
X116268500Y-107696000D02*
X116268500Y-107950000D01*
X117157500Y-107696000D02*
X117157500Y-107950000D01*
X117157500Y-107696000D02*
X117157500Y-107442000D01*
X106337100Y-123558300D02*
X106337100Y-121539000D01*
X106337100Y-121539000D02*
X104965500Y-121539000D01*
X106337100Y-123558300D02*
X104965500Y-123558300D01*
X100685600Y-123545600D02*
X100685600Y-121551700D01*
X100711000Y-121539000D02*
X102006400Y-121539000D01*
X100698300Y-123545600D02*
X101993700Y-123545600D01*
X104749600Y-122567700D02*
X102273100Y-122567700D01*
X104165400Y-121615200D02*
X102793800Y-122529600D01*
X102793800Y-122529600D02*
X104165400Y-123520200D01*
X102793800Y-121615200D02*
X102793800Y-123520200D01*
X104165400Y-121615200D02*
X104165400Y-123520200D01*
X101473000Y-120332500D02*
X101727000Y-120332500D01*
X101473000Y-120332500D02*
X101219000Y-120332500D01*
X101473000Y-121221500D02*
X101219000Y-121221500D01*
X101473000Y-121221500D02*
X101727000Y-121221500D01*
X103085900Y-139405360D02*
X102910640Y-139230100D01*
X102910640Y-139230100D02*
X102910640Y-139004040D01*
X102910640Y-134807960D02*
X102910640Y-134406640D01*
X102910640Y-134406640D02*
X103311960Y-134406640D01*
X107508040Y-134406640D02*
X107909360Y-134406640D01*
X107909360Y-134406640D02*
X107909360Y-134807960D01*
X107909360Y-139004040D02*
X107909360Y-139405360D01*
X107909360Y-139405360D02*
X107508040Y-139405360D01*
X103311960Y-139405360D02*
X103085900Y-139405360D01*
D25*
X102687873Y-139804140D02*
G75*
G03*
X102687873Y-139804140I-176013J0D01*
G01*
D11*
X112458500Y-113538000D02*
X112458500Y-113792000D01*
X112458500Y-113538000D02*
X112458500Y-113284000D01*
X113347500Y-113538000D02*
X113347500Y-113284000D01*
X113347500Y-113538000D02*
X113347500Y-113792000D01*
X112458500Y-111760000D02*
X112458500Y-112014000D01*
X112458500Y-111760000D02*
X112458500Y-111506000D01*
X113347500Y-111760000D02*
X113347500Y-111506000D01*
X113347500Y-111760000D02*
X113347500Y-112014000D01*
X113665000Y-109626400D02*
X114452400Y-109626400D01*
X114452400Y-109626400D02*
X114452400Y-108966000D01*
X114452400Y-107442000D02*
X114452400Y-106781600D01*
X114452400Y-106781600D02*
X113665000Y-106781600D01*
X113131600Y-108407200D02*
X113131600Y-108000800D01*
X114452400Y-140970000D02*
X113741200Y-140970000D01*
X114452400Y-140131800D02*
X114452400Y-140970000D01*
X111607600Y-140131800D02*
X111607600Y-140970000D01*
X112318800Y-140970000D02*
X111607600Y-140970000D01*
X104305100Y-113868200D02*
X104305100Y-110921800D01*
X104317800Y-113868200D02*
X104495600Y-113868200D01*
X104292400Y-110921800D02*
X104508300Y-110921800D01*
X108115100Y-113868200D02*
X108305600Y-113868200D01*
X108305600Y-113868200D02*
X108305600Y-110921800D01*
X108305600Y-110921800D02*
X108089700Y-110921800D01*
X98602800Y-129311400D02*
X98602800Y-129527300D01*
X101549200Y-129311400D02*
X98602800Y-129311400D01*
X101549200Y-129501900D02*
X101549200Y-129311400D01*
X98602800Y-133324600D02*
X98602800Y-133108700D01*
X101549200Y-133299200D02*
X101549200Y-133121400D01*
X101549200Y-133311900D02*
X98602800Y-133311900D01*
X96520000Y-143764000D02*
X97790000Y-143764000D01*
X96520000Y-142748000D02*
X97155000Y-143764000D01*
X97790000Y-142748000D02*
X97155000Y-143764000D01*
X96520000Y-142748000D02*
X97790000Y-142748000D01*
X95552260Y-140883640D02*
X95552260Y-145882360D01*
X98757740Y-145882360D02*
X98757740Y-140883640D01*
D19*
X98630000Y-144333000D02*
X95630000Y-144333000D01*
D11*
X100901500Y-176022000D02*
X100901500Y-175768000D01*
X100901500Y-176022000D02*
X100901500Y-176276000D01*
X100012500Y-176022000D02*
X100012500Y-176276000D01*
X100012500Y-176022000D02*
X100012500Y-175768000D01*
X97599500Y-178689000D02*
X97599500Y-178435000D01*
X97599500Y-178689000D02*
X97599500Y-178943000D01*
X98488500Y-178689000D02*
X98488500Y-178943000D01*
X98488500Y-178689000D02*
X98488500Y-178435000D01*
X111252000Y-167449500D02*
X111506000Y-167449500D01*
X111252000Y-167449500D02*
X110998000Y-167449500D01*
X111252000Y-166560500D02*
X110998000Y-166560500D01*
X111252000Y-166560500D02*
X111506000Y-166560500D01*
X113474500Y-172339000D02*
X113474500Y-172593000D01*
X113474500Y-172339000D02*
X113474500Y-172085000D01*
X112585500Y-172339000D02*
X112585500Y-172085000D01*
X112585500Y-172339000D02*
X112585500Y-172593000D01*
X114871500Y-172339000D02*
X114871500Y-172085000D01*
X114871500Y-172339000D02*
X114871500Y-172593000D01*
X115760500Y-172339000D02*
X115760500Y-172593000D01*
X115760500Y-172339000D02*
X115760500Y-172085000D01*
X113982500Y-172339000D02*
X113982500Y-172593000D01*
X113982500Y-172339000D02*
X113982500Y-172085000D01*
X114871500Y-172339000D02*
X114871500Y-172085000D01*
X114871500Y-172339000D02*
X114871500Y-172593000D01*
X103632000Y-167957500D02*
X103886000Y-167957500D01*
X103632000Y-167957500D02*
X103378000Y-167957500D01*
X103632000Y-168846500D02*
X103378000Y-168846500D01*
X103632000Y-168846500D02*
X103886000Y-168846500D01*
X111252000Y-164655500D02*
X110998000Y-164655500D01*
X111252000Y-164655500D02*
X111506000Y-164655500D01*
X111252000Y-165544500D02*
X111506000Y-165544500D01*
X111252000Y-165544500D02*
X110998000Y-165544500D01*
X111252000Y-166560500D02*
X111506000Y-166560500D01*
X111252000Y-166560500D02*
X110998000Y-166560500D01*
X111252000Y-165671500D02*
X110998000Y-165671500D01*
X111252000Y-165671500D02*
X111506000Y-165671500D01*
X109942000Y-169646000D02*
X109942000Y-165646000D01*
X104942000Y-169646000D02*
X104942000Y-165646000D01*
X104394000Y-165608000D02*
X104394000Y-166624000D01*
X102870000Y-165608000D02*
X102870000Y-166624000D01*
X116078000Y-171145000D02*
X112014000Y-171145000D01*
X116078000Y-167945000D02*
X112014000Y-167945000D01*
X117157500Y-105029000D02*
X117157500Y-104775000D01*
X117157500Y-105029000D02*
X117157500Y-105283000D01*
X116268500Y-105029000D02*
X116268500Y-105283000D01*
X116268500Y-105029000D02*
X116268500Y-104775000D01*
X114609800Y-103632001D02*
X113479500Y-103632001D01*
X114609800Y-106438701D02*
X113479500Y-106438701D01*
X97853500Y-101346000D02*
X97853500Y-101092000D01*
X97853500Y-101346000D02*
X97853500Y-101600000D01*
X96964500Y-101346000D02*
X96964500Y-101600000D01*
X96964500Y-101346000D02*
X96964500Y-101092000D01*
X116459000Y-159067500D02*
X116713000Y-159067500D01*
X116459000Y-159067500D02*
X116205000Y-159067500D01*
X116459000Y-159956500D02*
X116205000Y-159956500D01*
X116459000Y-159956500D02*
X116713000Y-159956500D01*
X116459000Y-156654500D02*
X116205000Y-156654500D01*
X116459000Y-156654500D02*
X116713000Y-156654500D01*
X116459000Y-155765500D02*
X116713000Y-155765500D01*
X116459000Y-155765500D02*
X116205000Y-155765500D01*
D12*
X114563071Y-158840714D02*
X114563071Y-159457571D01*
X114526785Y-159530142D01*
X114490500Y-159566428D01*
X114417928Y-159602714D01*
X114272785Y-159602714D01*
X114200214Y-159566428D01*
X114163928Y-159530142D01*
X114127642Y-159457571D01*
X114127642Y-158840714D01*
X113801071Y-158913285D02*
X113764785Y-158877000D01*
X113692214Y-158840714D01*
X113510785Y-158840714D01*
X113438214Y-158877000D01*
X113401928Y-158913285D01*
X113365642Y-158985857D01*
X113365642Y-159058428D01*
X113401928Y-159167285D01*
X113837357Y-159602714D01*
X113365642Y-159602714D01*
D26*
X117774357Y-166657261D02*
X117834833Y-166627023D01*
X117865071Y-166596785D01*
X117895309Y-166536309D01*
X117895309Y-166354880D01*
X117865071Y-166294404D01*
X117834833Y-166264166D01*
X117774357Y-166233928D01*
X117683642Y-166233928D01*
X117623166Y-166264166D01*
X117592928Y-166294404D01*
X117562690Y-166354880D01*
X117562690Y-166536309D01*
X117592928Y-166596785D01*
X117623166Y-166627023D01*
X117683642Y-166657261D01*
X117774357Y-166657261D01*
D12*
X93762285Y-105718428D02*
X94524285Y-105718428D01*
X94524285Y-105537000D01*
X94488000Y-105428142D01*
X94415428Y-105355571D01*
X94342857Y-105319285D01*
X94197714Y-105283000D01*
X94088857Y-105283000D01*
X93943714Y-105319285D01*
X93871142Y-105355571D01*
X93798571Y-105428142D01*
X93762285Y-105537000D01*
X93762285Y-105718428D01*
X93762285Y-104920142D02*
X93762285Y-104775000D01*
X93798571Y-104702428D01*
X93834857Y-104666142D01*
X93943714Y-104593571D01*
X94088857Y-104557285D01*
X94379142Y-104557285D01*
X94451714Y-104593571D01*
X94488000Y-104629857D01*
X94524285Y-104702428D01*
X94524285Y-104847571D01*
X94488000Y-104920142D01*
X94451714Y-104956428D01*
X94379142Y-104992714D01*
X94197714Y-104992714D01*
X94125142Y-104956428D01*
X94088857Y-104920142D01*
X94052571Y-104847571D01*
X94052571Y-104702428D01*
X94088857Y-104629857D01*
X94125142Y-104593571D01*
X94197714Y-104557285D01*
X95485857Y-103015142D02*
X95522142Y-103051428D01*
X95631000Y-103087714D01*
X95703571Y-103087714D01*
X95812428Y-103051428D01*
X95885000Y-102978857D01*
X95921285Y-102906285D01*
X95957571Y-102761142D01*
X95957571Y-102652285D01*
X95921285Y-102507142D01*
X95885000Y-102434571D01*
X95812428Y-102362000D01*
X95703571Y-102325714D01*
X95631000Y-102325714D01*
X95522142Y-102362000D01*
X95485857Y-102398285D01*
X95231857Y-102325714D02*
X94760142Y-102325714D01*
X95014142Y-102616000D01*
X94905285Y-102616000D01*
X94832714Y-102652285D01*
X94796428Y-102688571D01*
X94760142Y-102761142D01*
X94760142Y-102942571D01*
X94796428Y-103015142D01*
X94832714Y-103051428D01*
X94905285Y-103087714D01*
X95123000Y-103087714D01*
X95195571Y-103051428D01*
X95231857Y-103015142D01*
X94034428Y-103087714D02*
X94469857Y-103087714D01*
X94252142Y-103087714D02*
X94252142Y-102325714D01*
X94324714Y-102434571D01*
X94397285Y-102507142D01*
X94469857Y-102543428D01*
D11*
X99459142Y-164700857D02*
X99507523Y-164749238D01*
X99652666Y-164797619D01*
X99749428Y-164797619D01*
X99894571Y-164749238D01*
X99991333Y-164652476D01*
X100039714Y-164555714D01*
X100088095Y-164362190D01*
X100088095Y-164217047D01*
X100039714Y-164023523D01*
X99991333Y-163926761D01*
X99894571Y-163830000D01*
X99749428Y-163781619D01*
X99652666Y-163781619D01*
X99507523Y-163830000D01*
X99459142Y-163878380D01*
X99072095Y-163878380D02*
X99023714Y-163830000D01*
X98926952Y-163781619D01*
X98685047Y-163781619D01*
X98588285Y-163830000D01*
X98539904Y-163878380D01*
X98491523Y-163975142D01*
X98491523Y-164071904D01*
X98539904Y-164217047D01*
X99120476Y-164797619D01*
X98491523Y-164797619D01*
X98152857Y-163781619D02*
X97523904Y-163781619D01*
X97862571Y-164168666D01*
X97717428Y-164168666D01*
X97620666Y-164217047D01*
X97572285Y-164265428D01*
X97523904Y-164362190D01*
X97523904Y-164604095D01*
X97572285Y-164700857D01*
X97620666Y-164749238D01*
X97717428Y-164797619D01*
X98007714Y-164797619D01*
X98104476Y-164749238D01*
X98152857Y-164700857D01*
X111524142Y-148952857D02*
X111572523Y-149001238D01*
X111717666Y-149049619D01*
X111814428Y-149049619D01*
X111959571Y-149001238D01*
X112056333Y-148904476D01*
X112104714Y-148807714D01*
X112153095Y-148614190D01*
X112153095Y-148469047D01*
X112104714Y-148275523D01*
X112056333Y-148178761D01*
X111959571Y-148082000D01*
X111814428Y-148033619D01*
X111717666Y-148033619D01*
X111572523Y-148082000D01*
X111524142Y-148130380D01*
X111137095Y-148130380D02*
X111088714Y-148082000D01*
X110991952Y-148033619D01*
X110750047Y-148033619D01*
X110653285Y-148082000D01*
X110604904Y-148130380D01*
X110556523Y-148227142D01*
X110556523Y-148323904D01*
X110604904Y-148469047D01*
X111185476Y-149049619D01*
X110556523Y-149049619D01*
X109927571Y-148033619D02*
X109830809Y-148033619D01*
X109734047Y-148082000D01*
X109685666Y-148130380D01*
X109637285Y-148227142D01*
X109588904Y-148420666D01*
X109588904Y-148662571D01*
X109637285Y-148856095D01*
X109685666Y-148952857D01*
X109734047Y-149001238D01*
X109830809Y-149049619D01*
X109927571Y-149049619D01*
X110024333Y-149001238D01*
X110072714Y-148952857D01*
X110121095Y-148856095D01*
X110169476Y-148662571D01*
X110169476Y-148420666D01*
X110121095Y-148227142D01*
X110072714Y-148130380D01*
X110024333Y-148082000D01*
X109927571Y-148033619D01*
X108572904Y-156542619D02*
X108572904Y-155526619D01*
X108331000Y-155526619D01*
X108185857Y-155575000D01*
X108089095Y-155671761D01*
X108040714Y-155768523D01*
X107992333Y-155962047D01*
X107992333Y-156107190D01*
X108040714Y-156300714D01*
X108089095Y-156397476D01*
X108185857Y-156494238D01*
X108331000Y-156542619D01*
X108572904Y-156542619D01*
X107073095Y-155526619D02*
X107556904Y-155526619D01*
X107605285Y-156010428D01*
X107556904Y-155962047D01*
X107460142Y-155913666D01*
X107218238Y-155913666D01*
X107121476Y-155962047D01*
X107073095Y-156010428D01*
X107024714Y-156107190D01*
X107024714Y-156349095D01*
X107073095Y-156445857D01*
X107121476Y-156494238D01*
X107218238Y-156542619D01*
X107460142Y-156542619D01*
X107556904Y-156494238D01*
X107605285Y-156445857D01*
D12*
X96178131Y-147973631D02*
X96614315Y-147896657D01*
X96486025Y-148281525D02*
X97024841Y-147742710D01*
X96819578Y-147537447D01*
X96742604Y-147511789D01*
X96691288Y-147511789D01*
X96614315Y-147537447D01*
X96537341Y-147614420D01*
X96511683Y-147691394D01*
X96511683Y-147742710D01*
X96537341Y-147819683D01*
X96742604Y-148024946D01*
X95664974Y-147460473D02*
X95972868Y-147768368D01*
X95818921Y-147614420D02*
X96357736Y-147075605D01*
X96332078Y-147203894D01*
X96332078Y-147306526D01*
X96357736Y-147383500D01*
X96024184Y-146742053D02*
X95664974Y-146382842D01*
X95357079Y-147152579D01*
X98152857Y-99713142D02*
X98189142Y-99749428D01*
X98298000Y-99785714D01*
X98370571Y-99785714D01*
X98479428Y-99749428D01*
X98552000Y-99676857D01*
X98588285Y-99604285D01*
X98624571Y-99459142D01*
X98624571Y-99350285D01*
X98588285Y-99205142D01*
X98552000Y-99132571D01*
X98479428Y-99060000D01*
X98370571Y-99023714D01*
X98298000Y-99023714D01*
X98189142Y-99060000D01*
X98152857Y-99096285D01*
X97862571Y-99096285D02*
X97826285Y-99060000D01*
X97753714Y-99023714D01*
X97572285Y-99023714D01*
X97499714Y-99060000D01*
X97463428Y-99096285D01*
X97427142Y-99168857D01*
X97427142Y-99241428D01*
X97463428Y-99350285D01*
X97898857Y-99785714D01*
X97427142Y-99785714D01*
X96991714Y-99350285D02*
X97064285Y-99314000D01*
X97100571Y-99277714D01*
X97136857Y-99205142D01*
X97136857Y-99168857D01*
X97100571Y-99096285D01*
X97064285Y-99060000D01*
X96991714Y-99023714D01*
X96846571Y-99023714D01*
X96774000Y-99060000D01*
X96737714Y-99096285D01*
X96701428Y-99168857D01*
X96701428Y-99205142D01*
X96737714Y-99277714D01*
X96774000Y-99314000D01*
X96846571Y-99350285D01*
X96991714Y-99350285D01*
X97064285Y-99386571D01*
X97100571Y-99422857D01*
X97136857Y-99495428D01*
X97136857Y-99640571D01*
X97100571Y-99713142D01*
X97064285Y-99749428D01*
X96991714Y-99785714D01*
X96846571Y-99785714D01*
X96774000Y-99749428D01*
X96737714Y-99713142D01*
X96701428Y-99640571D01*
X96701428Y-99495428D01*
X96737714Y-99422857D01*
X96774000Y-99386571D01*
X96846571Y-99350285D01*
X98152857Y-98515714D02*
X98406857Y-98152857D01*
X98588285Y-98515714D02*
X98588285Y-97753714D01*
X98298000Y-97753714D01*
X98225428Y-97790000D01*
X98189142Y-97826285D01*
X98152857Y-97898857D01*
X98152857Y-98007714D01*
X98189142Y-98080285D01*
X98225428Y-98116571D01*
X98298000Y-98152857D01*
X98588285Y-98152857D01*
X97427142Y-98515714D02*
X97862571Y-98515714D01*
X97644857Y-98515714D02*
X97644857Y-97753714D01*
X97717428Y-97862571D01*
X97790000Y-97935142D01*
X97862571Y-97971428D01*
X96774000Y-97753714D02*
X96919142Y-97753714D01*
X96991714Y-97790000D01*
X97028000Y-97826285D01*
X97100571Y-97935142D01*
X97136857Y-98080285D01*
X97136857Y-98370571D01*
X97100571Y-98443142D01*
X97064285Y-98479428D01*
X96991714Y-98515714D01*
X96846571Y-98515714D01*
X96774000Y-98479428D01*
X96737714Y-98443142D01*
X96701428Y-98370571D01*
X96701428Y-98189142D01*
X96737714Y-98116571D01*
X96774000Y-98080285D01*
X96846571Y-98044000D01*
X96991714Y-98044000D01*
X97064285Y-98080285D01*
X97100571Y-98116571D01*
X97136857Y-98189142D01*
X95758000Y-101817714D02*
X96012000Y-101454857D01*
X96193428Y-101817714D02*
X96193428Y-101055714D01*
X95903142Y-101055714D01*
X95830571Y-101092000D01*
X95794285Y-101128285D01*
X95758000Y-101200857D01*
X95758000Y-101309714D01*
X95794285Y-101382285D01*
X95830571Y-101418571D01*
X95903142Y-101454857D01*
X96193428Y-101454857D01*
X95504000Y-101055714D02*
X94996000Y-101055714D01*
X95322571Y-101817714D01*
D11*
X101999142Y-152381857D02*
X102047523Y-152430238D01*
X102192666Y-152478619D01*
X102289428Y-152478619D01*
X102434571Y-152430238D01*
X102531333Y-152333476D01*
X102579714Y-152236714D01*
X102628095Y-152043190D01*
X102628095Y-151898047D01*
X102579714Y-151704523D01*
X102531333Y-151607761D01*
X102434571Y-151511000D01*
X102289428Y-151462619D01*
X102192666Y-151462619D01*
X102047523Y-151511000D01*
X101999142Y-151559380D01*
X101031523Y-152478619D02*
X101612095Y-152478619D01*
X101321809Y-152478619D02*
X101321809Y-151462619D01*
X101418571Y-151607761D01*
X101515333Y-151704523D01*
X101612095Y-151752904D01*
X100547714Y-152478619D02*
X100354190Y-152478619D01*
X100257428Y-152430238D01*
X100209047Y-152381857D01*
X100112285Y-152236714D01*
X100063904Y-152043190D01*
X100063904Y-151656142D01*
X100112285Y-151559380D01*
X100160666Y-151511000D01*
X100257428Y-151462619D01*
X100450952Y-151462619D01*
X100547714Y-151511000D01*
X100596095Y-151559380D01*
X100644476Y-151656142D01*
X100644476Y-151898047D01*
X100596095Y-151994809D01*
X100547714Y-152043190D01*
X100450952Y-152091571D01*
X100257428Y-152091571D01*
X100160666Y-152043190D01*
X100112285Y-151994809D01*
X100063904Y-151898047D01*
D27*
X96995857Y-178074580D02*
X96995857Y-177074580D01*
X96567285Y-178074580D02*
X96567285Y-177550771D01*
X96614904Y-177455533D01*
X96710142Y-177407914D01*
X96853000Y-177407914D01*
X96948238Y-177455533D01*
X96995857Y-177503152D01*
X95662523Y-178074580D02*
X95662523Y-177550771D01*
X95710142Y-177455533D01*
X95805380Y-177407914D01*
X95995857Y-177407914D01*
X96091095Y-177455533D01*
X95662523Y-178026961D02*
X95757761Y-178074580D01*
X95995857Y-178074580D01*
X96091095Y-178026961D01*
X96138714Y-177931723D01*
X96138714Y-177836485D01*
X96091095Y-177741247D01*
X95995857Y-177693628D01*
X95757761Y-177693628D01*
X95662523Y-177646009D01*
X95186333Y-178074580D02*
X95186333Y-177407914D01*
X95186333Y-177598390D02*
X95138714Y-177503152D01*
X95091095Y-177455533D01*
X94995857Y-177407914D01*
X94900619Y-177407914D01*
X94138714Y-178074580D02*
X94138714Y-177074580D01*
X94138714Y-178026961D02*
X94233952Y-178074580D01*
X94424428Y-178074580D01*
X94519666Y-178026961D01*
X94567285Y-177979342D01*
X94614904Y-177884104D01*
X94614904Y-177598390D01*
X94567285Y-177503152D01*
X94519666Y-177455533D01*
X94424428Y-177407914D01*
X94233952Y-177407914D01*
X94138714Y-177455533D01*
X93757761Y-177407914D02*
X93567285Y-178074580D01*
X93376809Y-177598390D01*
X93186333Y-178074580D01*
X92995857Y-177407914D01*
X92186333Y-178074580D02*
X92186333Y-177550771D01*
X92233952Y-177455533D01*
X92329190Y-177407914D01*
X92519666Y-177407914D01*
X92614904Y-177455533D01*
X92186333Y-178026961D02*
X92281571Y-178074580D01*
X92519666Y-178074580D01*
X92614904Y-178026961D01*
X92662523Y-177931723D01*
X92662523Y-177836485D01*
X92614904Y-177741247D01*
X92519666Y-177693628D01*
X92281571Y-177693628D01*
X92186333Y-177646009D01*
X91710142Y-178074580D02*
X91710142Y-177407914D01*
X91710142Y-177598390D02*
X91662523Y-177503152D01*
X91614904Y-177455533D01*
X91519666Y-177407914D01*
X91424428Y-177407914D01*
X90710142Y-178026961D02*
X90805380Y-178074580D01*
X90995857Y-178074580D01*
X91091095Y-178026961D01*
X91138714Y-177931723D01*
X91138714Y-177550771D01*
X91091095Y-177455533D01*
X90995857Y-177407914D01*
X90805380Y-177407914D01*
X90710142Y-177455533D01*
X90662523Y-177550771D01*
X90662523Y-177646009D01*
X91138714Y-177741247D01*
D11*
X102002238Y-178028379D02*
X102107000Y-177975998D01*
X102159380Y-177923617D01*
X102211761Y-177818855D01*
X102211761Y-177504569D01*
X102159380Y-177399807D01*
X102107000Y-177347426D01*
X102002238Y-177295045D01*
X101845095Y-177295045D01*
X101740333Y-177347426D01*
X101687952Y-177399807D01*
X101635571Y-177504569D01*
X101635571Y-177818855D01*
X101687952Y-177923617D01*
X101740333Y-177975998D01*
X101845095Y-178028379D01*
X102002238Y-178028379D01*
X101164142Y-177295045D02*
X101164142Y-178395045D01*
X101164142Y-177347426D02*
X101059380Y-177295045D01*
X100849857Y-177295045D01*
X100745095Y-177347426D01*
X100692714Y-177399807D01*
X100640333Y-177504569D01*
X100640333Y-177818855D01*
X100692714Y-177923617D01*
X100745095Y-177975998D01*
X100849857Y-178028379D01*
X101059380Y-178028379D01*
X101164142Y-177975998D01*
X99749857Y-177975998D02*
X99854619Y-178028379D01*
X100064142Y-178028379D01*
X100168904Y-177975998D01*
X100221285Y-177871236D01*
X100221285Y-177452188D01*
X100168904Y-177347426D01*
X100064142Y-177295045D01*
X99854619Y-177295045D01*
X99749857Y-177347426D01*
X99697476Y-177452188D01*
X99697476Y-177556950D01*
X100221285Y-177661712D01*
X99226047Y-177295045D02*
X99226047Y-178028379D01*
X99226047Y-177399807D02*
X99173666Y-177347426D01*
X99068904Y-177295045D01*
X98911761Y-177295045D01*
X98807000Y-177347426D01*
X98754619Y-177452188D01*
X98754619Y-178028379D01*
D12*
X113030000Y-143219714D02*
X113284000Y-142856857D01*
X113465428Y-143219714D02*
X113465428Y-142457714D01*
X113175142Y-142457714D01*
X113102571Y-142494000D01*
X113066285Y-142530285D01*
X113030000Y-142602857D01*
X113030000Y-142711714D01*
X113066285Y-142784285D01*
X113102571Y-142820571D01*
X113175142Y-142856857D01*
X113465428Y-142856857D01*
X112776000Y-142457714D02*
X112304285Y-142457714D01*
X112558285Y-142748000D01*
X112449428Y-142748000D01*
X112376857Y-142784285D01*
X112340571Y-142820571D01*
X112304285Y-142893142D01*
X112304285Y-143074571D01*
X112340571Y-143147142D01*
X112376857Y-143183428D01*
X112449428Y-143219714D01*
X112667142Y-143219714D01*
X112739714Y-143183428D01*
X112776000Y-143147142D01*
X112757857Y-147936857D02*
X112721571Y-147973142D01*
X112685285Y-148082000D01*
X112685285Y-148154571D01*
X112721571Y-148263428D01*
X112794142Y-148336000D01*
X112866714Y-148372285D01*
X113011857Y-148408571D01*
X113120714Y-148408571D01*
X113265857Y-148372285D01*
X113338428Y-148336000D01*
X113411000Y-148263428D01*
X113447285Y-148154571D01*
X113447285Y-148082000D01*
X113411000Y-147973142D01*
X113374714Y-147936857D01*
X112685285Y-147211142D02*
X112685285Y-147646571D01*
X112685285Y-147428857D02*
X113447285Y-147428857D01*
X113338428Y-147501428D01*
X113265857Y-147574000D01*
X113229571Y-147646571D01*
X113447285Y-146739428D02*
X113447285Y-146666857D01*
X113411000Y-146594285D01*
X113374714Y-146558000D01*
X113302142Y-146521714D01*
X113157000Y-146485428D01*
X112975571Y-146485428D01*
X112830428Y-146521714D01*
X112757857Y-146558000D01*
X112721571Y-146594285D01*
X112685285Y-146666857D01*
X112685285Y-146739428D01*
X112721571Y-146812000D01*
X112757857Y-146848285D01*
X112830428Y-146884571D01*
X112975571Y-146920857D01*
X113157000Y-146920857D01*
X113302142Y-146884571D01*
X113374714Y-146848285D01*
X113411000Y-146812000D01*
X113447285Y-146739428D01*
D11*
X111983068Y-120357327D02*
X111983068Y-118657327D01*
X111411640Y-118657327D01*
X111268782Y-118738280D01*
X111197354Y-118819232D01*
X111125925Y-118981137D01*
X111125925Y-119223994D01*
X111197354Y-119385899D01*
X111268782Y-119466851D01*
X111411640Y-119547803D01*
X111983068Y-119547803D01*
X110483068Y-120357327D02*
X110483068Y-118657327D01*
X110483068Y-119304946D02*
X110340211Y-119223994D01*
X110054497Y-119223994D01*
X109911640Y-119304946D01*
X109840211Y-119385899D01*
X109768782Y-119547803D01*
X109768782Y-120033518D01*
X109840211Y-120195422D01*
X109911640Y-120276375D01*
X110054497Y-120357327D01*
X110340211Y-120357327D01*
X110483068Y-120276375D01*
D12*
X99822000Y-112032142D02*
X99858285Y-112068428D01*
X99967142Y-112104714D01*
X100039714Y-112104714D01*
X100148571Y-112068428D01*
X100221142Y-111995857D01*
X100257428Y-111923285D01*
X100293714Y-111778142D01*
X100293714Y-111669285D01*
X100257428Y-111524142D01*
X100221142Y-111451571D01*
X100148571Y-111379000D01*
X100039714Y-111342714D01*
X99967142Y-111342714D01*
X99858285Y-111379000D01*
X99822000Y-111415285D01*
X99568000Y-111342714D02*
X99096285Y-111342714D01*
X99350285Y-111633000D01*
X99241428Y-111633000D01*
X99168857Y-111669285D01*
X99132571Y-111705571D01*
X99096285Y-111778142D01*
X99096285Y-111959571D01*
X99132571Y-112032142D01*
X99168857Y-112068428D01*
X99241428Y-112104714D01*
X99459142Y-112104714D01*
X99531714Y-112068428D01*
X99568000Y-112032142D01*
D11*
X104031142Y-133458857D02*
X104079523Y-133507238D01*
X104224666Y-133555619D01*
X104321428Y-133555619D01*
X104466571Y-133507238D01*
X104563333Y-133410476D01*
X104611714Y-133313714D01*
X104660095Y-133120190D01*
X104660095Y-132975047D01*
X104611714Y-132781523D01*
X104563333Y-132684761D01*
X104466571Y-132588000D01*
X104321428Y-132539619D01*
X104224666Y-132539619D01*
X104079523Y-132588000D01*
X104031142Y-132636380D01*
X103063523Y-133555619D02*
X103644095Y-133555619D01*
X103353809Y-133555619D02*
X103353809Y-132539619D01*
X103450571Y-132684761D01*
X103547333Y-132781523D01*
X103644095Y-132829904D01*
X102192666Y-132878285D02*
X102192666Y-133555619D01*
X102434571Y-132491238D02*
X102676476Y-133216952D01*
X102047523Y-133216952D01*
D12*
X100184857Y-137305142D02*
X100221142Y-137341428D01*
X100330000Y-137377714D01*
X100402571Y-137377714D01*
X100511428Y-137341428D01*
X100584000Y-137268857D01*
X100620285Y-137196285D01*
X100656571Y-137051142D01*
X100656571Y-136942285D01*
X100620285Y-136797142D01*
X100584000Y-136724571D01*
X100511428Y-136652000D01*
X100402571Y-136615714D01*
X100330000Y-136615714D01*
X100221142Y-136652000D01*
X100184857Y-136688285D01*
X99459142Y-137377714D02*
X99894571Y-137377714D01*
X99676857Y-137377714D02*
X99676857Y-136615714D01*
X99749428Y-136724571D01*
X99822000Y-136797142D01*
X99894571Y-136833428D01*
X99023714Y-136942285D02*
X99096285Y-136906000D01*
X99132571Y-136869714D01*
X99168857Y-136797142D01*
X99168857Y-136760857D01*
X99132571Y-136688285D01*
X99096285Y-136652000D01*
X99023714Y-136615714D01*
X98878571Y-136615714D01*
X98806000Y-136652000D01*
X98769714Y-136688285D01*
X98733428Y-136760857D01*
X98733428Y-136797142D01*
X98769714Y-136869714D01*
X98806000Y-136906000D01*
X98878571Y-136942285D01*
X99023714Y-136942285D01*
X99096285Y-136978571D01*
X99132571Y-137014857D01*
X99168857Y-137087428D01*
X99168857Y-137232571D01*
X99132571Y-137305142D01*
X99096285Y-137341428D01*
X99023714Y-137377714D01*
X98878571Y-137377714D01*
X98806000Y-137341428D01*
X98769714Y-137305142D01*
X98733428Y-137232571D01*
X98733428Y-137087428D01*
X98769714Y-137014857D01*
X98806000Y-136978571D01*
X98878571Y-136942285D01*
X99422857Y-139464142D02*
X99459142Y-139500428D01*
X99568000Y-139536714D01*
X99640571Y-139536714D01*
X99749428Y-139500428D01*
X99822000Y-139427857D01*
X99858285Y-139355285D01*
X99894571Y-139210142D01*
X99894571Y-139101285D01*
X99858285Y-138956142D01*
X99822000Y-138883571D01*
X99749428Y-138811000D01*
X99640571Y-138774714D01*
X99568000Y-138774714D01*
X99459142Y-138811000D01*
X99422857Y-138847285D01*
X98697142Y-139536714D02*
X99132571Y-139536714D01*
X98914857Y-139536714D02*
X98914857Y-138774714D01*
X98987428Y-138883571D01*
X99060000Y-138956142D01*
X99132571Y-138992428D01*
X98044000Y-138774714D02*
X98189142Y-138774714D01*
X98261714Y-138811000D01*
X98298000Y-138847285D01*
X98370571Y-138956142D01*
X98406857Y-139101285D01*
X98406857Y-139391571D01*
X98370571Y-139464142D01*
X98334285Y-139500428D01*
X98261714Y-139536714D01*
X98116571Y-139536714D01*
X98044000Y-139500428D01*
X98007714Y-139464142D01*
X97971428Y-139391571D01*
X97971428Y-139210142D01*
X98007714Y-139137571D01*
X98044000Y-139101285D01*
X98116571Y-139065000D01*
X98261714Y-139065000D01*
X98334285Y-139101285D01*
X98370571Y-139137571D01*
X98406857Y-139210142D01*
X107296857Y-140861142D02*
X107333142Y-140897428D01*
X107442000Y-140933714D01*
X107514571Y-140933714D01*
X107623428Y-140897428D01*
X107696000Y-140824857D01*
X107732285Y-140752285D01*
X107768571Y-140607142D01*
X107768571Y-140498285D01*
X107732285Y-140353142D01*
X107696000Y-140280571D01*
X107623428Y-140208000D01*
X107514571Y-140171714D01*
X107442000Y-140171714D01*
X107333142Y-140208000D01*
X107296857Y-140244285D01*
X106571142Y-140933714D02*
X107006571Y-140933714D01*
X106788857Y-140933714D02*
X106788857Y-140171714D01*
X106861428Y-140280571D01*
X106934000Y-140353142D01*
X107006571Y-140389428D01*
X105881714Y-140171714D02*
X106244571Y-140171714D01*
X106280857Y-140534571D01*
X106244571Y-140498285D01*
X106172000Y-140462000D01*
X105990571Y-140462000D01*
X105918000Y-140498285D01*
X105881714Y-140534571D01*
X105845428Y-140607142D01*
X105845428Y-140788571D01*
X105881714Y-140861142D01*
X105918000Y-140897428D01*
X105990571Y-140933714D01*
X106172000Y-140933714D01*
X106244571Y-140897428D01*
X106280857Y-140861142D01*
D28*
X111709200Y-110684733D02*
X111946266Y-110346066D01*
X112115600Y-110684733D02*
X112115600Y-109973533D01*
X111844666Y-109973533D01*
X111776933Y-110007400D01*
X111743066Y-110041266D01*
X111709200Y-110109000D01*
X111709200Y-110210600D01*
X111743066Y-110278333D01*
X111776933Y-110312200D01*
X111844666Y-110346066D01*
X112115600Y-110346066D01*
X111099600Y-110210600D02*
X111099600Y-110684733D01*
X111268933Y-109939666D02*
X111438266Y-110447666D01*
X110998000Y-110447666D01*
X110422266Y-109973533D02*
X110557733Y-109973533D01*
X110625466Y-110007400D01*
X110659333Y-110041266D01*
X110727066Y-110142866D01*
X110760933Y-110278333D01*
X110760933Y-110549266D01*
X110727066Y-110617000D01*
X110693200Y-110650866D01*
X110625466Y-110684733D01*
X110490000Y-110684733D01*
X110422266Y-110650866D01*
X110388400Y-110617000D01*
X110354533Y-110549266D01*
X110354533Y-110379933D01*
X110388400Y-110312200D01*
X110422266Y-110278333D01*
X110490000Y-110244466D01*
X110625466Y-110244466D01*
X110693200Y-110278333D01*
X110727066Y-110312200D01*
X110760933Y-110379933D01*
D12*
X95540285Y-106026857D02*
X95903142Y-106280857D01*
X95540285Y-106462285D02*
X96302285Y-106462285D01*
X96302285Y-106172000D01*
X96266000Y-106099428D01*
X96229714Y-106063142D01*
X96157142Y-106026857D01*
X96048285Y-106026857D01*
X95975714Y-106063142D01*
X95939428Y-106099428D01*
X95903142Y-106172000D01*
X95903142Y-106462285D01*
X96048285Y-105373714D02*
X95540285Y-105373714D01*
X96338571Y-105555142D02*
X95794285Y-105736571D01*
X95794285Y-105264857D01*
X96302285Y-104829428D02*
X96302285Y-104756857D01*
X96266000Y-104684285D01*
X96229714Y-104648000D01*
X96157142Y-104611714D01*
X96012000Y-104575428D01*
X95830571Y-104575428D01*
X95685428Y-104611714D01*
X95612857Y-104648000D01*
X95576571Y-104684285D01*
X95540285Y-104756857D01*
X95540285Y-104829428D01*
X95576571Y-104902000D01*
X95612857Y-104938285D01*
X95685428Y-104974571D01*
X95830571Y-105010857D01*
X96012000Y-105010857D01*
X96157142Y-104974571D01*
X96229714Y-104938285D01*
X96266000Y-104902000D01*
X96302285Y-104829428D01*
X101962857Y-126963714D02*
X102216857Y-126600857D01*
X102398285Y-126963714D02*
X102398285Y-126201714D01*
X102108000Y-126201714D01*
X102035428Y-126238000D01*
X101999142Y-126274285D01*
X101962857Y-126346857D01*
X101962857Y-126455714D01*
X101999142Y-126528285D01*
X102035428Y-126564571D01*
X102108000Y-126600857D01*
X102398285Y-126600857D01*
X101708857Y-126201714D02*
X101237142Y-126201714D01*
X101491142Y-126492000D01*
X101382285Y-126492000D01*
X101309714Y-126528285D01*
X101273428Y-126564571D01*
X101237142Y-126637142D01*
X101237142Y-126818571D01*
X101273428Y-126891142D01*
X101309714Y-126927428D01*
X101382285Y-126963714D01*
X101600000Y-126963714D01*
X101672571Y-126927428D01*
X101708857Y-126891142D01*
X100874285Y-126963714D02*
X100729142Y-126963714D01*
X100656571Y-126927428D01*
X100620285Y-126891142D01*
X100547714Y-126782285D01*
X100511428Y-126637142D01*
X100511428Y-126346857D01*
X100547714Y-126274285D01*
X100584000Y-126238000D01*
X100656571Y-126201714D01*
X100801714Y-126201714D01*
X100874285Y-126238000D01*
X100910571Y-126274285D01*
X100946857Y-126346857D01*
X100946857Y-126528285D01*
X100910571Y-126600857D01*
X100874285Y-126637142D01*
X100801714Y-126673428D01*
X100656571Y-126673428D01*
X100584000Y-126637142D01*
X100547714Y-126600857D01*
X100511428Y-126528285D01*
X102496257Y-125185714D02*
X102750257Y-124822857D01*
X102931685Y-125185714D02*
X102931685Y-124423714D01*
X102641400Y-124423714D01*
X102568828Y-124460000D01*
X102532542Y-124496285D01*
X102496257Y-124568857D01*
X102496257Y-124677714D01*
X102532542Y-124750285D01*
X102568828Y-124786571D01*
X102641400Y-124822857D01*
X102931685Y-124822857D01*
X102242257Y-124423714D02*
X101770542Y-124423714D01*
X102024542Y-124714000D01*
X101915685Y-124714000D01*
X101843114Y-124750285D01*
X101806828Y-124786571D01*
X101770542Y-124859142D01*
X101770542Y-125040571D01*
X101806828Y-125113142D01*
X101843114Y-125149428D01*
X101915685Y-125185714D01*
X102133400Y-125185714D01*
X102205971Y-125149428D01*
X102242257Y-125113142D01*
X101117400Y-124423714D02*
X101262542Y-124423714D01*
X101335114Y-124460000D01*
X101371400Y-124496285D01*
X101443971Y-124605142D01*
X101480257Y-124750285D01*
X101480257Y-125040571D01*
X101443971Y-125113142D01*
X101407685Y-125149428D01*
X101335114Y-125185714D01*
X101189971Y-125185714D01*
X101117400Y-125149428D01*
X101081114Y-125113142D01*
X101044828Y-125040571D01*
X101044828Y-124859142D01*
X101081114Y-124786571D01*
X101117400Y-124750285D01*
X101189971Y-124714000D01*
X101335114Y-124714000D01*
X101407685Y-124750285D01*
X101443971Y-124786571D01*
X101480257Y-124859142D01*
D28*
X106756200Y-121098733D02*
X106993266Y-120760066D01*
X107162600Y-121098733D02*
X107162600Y-120387533D01*
X106891666Y-120387533D01*
X106823933Y-120421400D01*
X106790066Y-120455266D01*
X106756200Y-120523000D01*
X106756200Y-120624600D01*
X106790066Y-120692333D01*
X106823933Y-120726200D01*
X106891666Y-120760066D01*
X107162600Y-120760066D01*
X106519133Y-120387533D02*
X106078866Y-120387533D01*
X106315933Y-120658466D01*
X106214333Y-120658466D01*
X106146600Y-120692333D01*
X106112733Y-120726200D01*
X106078866Y-120793933D01*
X106078866Y-120963266D01*
X106112733Y-121031000D01*
X106146600Y-121064866D01*
X106214333Y-121098733D01*
X106417533Y-121098733D01*
X106485266Y-121064866D01*
X106519133Y-121031000D01*
X105435400Y-120387533D02*
X105774066Y-120387533D01*
X105807933Y-120726200D01*
X105774066Y-120692333D01*
X105706333Y-120658466D01*
X105537000Y-120658466D01*
X105469266Y-120692333D01*
X105435400Y-120726200D01*
X105401533Y-120793933D01*
X105401533Y-120963266D01*
X105435400Y-121031000D01*
X105469266Y-121064866D01*
X105537000Y-121098733D01*
X105706333Y-121098733D01*
X105774066Y-121064866D01*
X105807933Y-121031000D01*
D12*
X106661857Y-126201714D02*
X106915857Y-125838857D01*
X107097285Y-126201714D02*
X107097285Y-125439714D01*
X106807000Y-125439714D01*
X106734428Y-125476000D01*
X106698142Y-125512285D01*
X106661857Y-125584857D01*
X106661857Y-125693714D01*
X106698142Y-125766285D01*
X106734428Y-125802571D01*
X106807000Y-125838857D01*
X107097285Y-125838857D01*
X106407857Y-125439714D02*
X105936142Y-125439714D01*
X106190142Y-125730000D01*
X106081285Y-125730000D01*
X106008714Y-125766285D01*
X105972428Y-125802571D01*
X105936142Y-125875142D01*
X105936142Y-126056571D01*
X105972428Y-126129142D01*
X106008714Y-126165428D01*
X106081285Y-126201714D01*
X106299000Y-126201714D01*
X106371571Y-126165428D01*
X106407857Y-126129142D01*
X105210428Y-126201714D02*
X105645857Y-126201714D01*
X105428142Y-126201714D02*
X105428142Y-125439714D01*
X105500714Y-125548571D01*
X105573285Y-125621142D01*
X105645857Y-125657428D01*
X100565857Y-141632214D02*
X100819857Y-141269357D01*
X101001285Y-141632214D02*
X101001285Y-140870214D01*
X100711000Y-140870214D01*
X100638428Y-140906500D01*
X100602142Y-140942785D01*
X100565857Y-141015357D01*
X100565857Y-141124214D01*
X100602142Y-141196785D01*
X100638428Y-141233071D01*
X100711000Y-141269357D01*
X101001285Y-141269357D01*
X100275571Y-140942785D02*
X100239285Y-140906500D01*
X100166714Y-140870214D01*
X99985285Y-140870214D01*
X99912714Y-140906500D01*
X99876428Y-140942785D01*
X99840142Y-141015357D01*
X99840142Y-141087928D01*
X99876428Y-141196785D01*
X100311857Y-141632214D01*
X99840142Y-141632214D01*
X99187000Y-140870214D02*
X99332142Y-140870214D01*
X99404714Y-140906500D01*
X99441000Y-140942785D01*
X99513571Y-141051642D01*
X99549857Y-141196785D01*
X99549857Y-141487071D01*
X99513571Y-141559642D01*
X99477285Y-141595928D01*
X99404714Y-141632214D01*
X99259571Y-141632214D01*
X99187000Y-141595928D01*
X99150714Y-141559642D01*
X99114428Y-141487071D01*
X99114428Y-141305642D01*
X99150714Y-141233071D01*
X99187000Y-141196785D01*
X99259571Y-141160500D01*
X99404714Y-141160500D01*
X99477285Y-141196785D01*
X99513571Y-141233071D01*
X99549857Y-141305642D01*
X111415285Y-135998857D02*
X111778142Y-136252857D01*
X111415285Y-136434285D02*
X112177285Y-136434285D01*
X112177285Y-136144000D01*
X112141000Y-136071428D01*
X112104714Y-136035142D01*
X112032142Y-135998857D01*
X111923285Y-135998857D01*
X111850714Y-136035142D01*
X111814428Y-136071428D01*
X111778142Y-136144000D01*
X111778142Y-136434285D01*
X112104714Y-135708571D02*
X112141000Y-135672285D01*
X112177285Y-135599714D01*
X112177285Y-135418285D01*
X112141000Y-135345714D01*
X112104714Y-135309428D01*
X112032142Y-135273142D01*
X111959571Y-135273142D01*
X111850714Y-135309428D01*
X111415285Y-135744857D01*
X111415285Y-135273142D01*
X112177285Y-134583714D02*
X112177285Y-134946571D01*
X111814428Y-134982857D01*
X111850714Y-134946571D01*
X111887000Y-134874000D01*
X111887000Y-134692571D01*
X111850714Y-134620000D01*
X111814428Y-134583714D01*
X111741857Y-134547428D01*
X111560428Y-134547428D01*
X111487857Y-134583714D01*
X111451571Y-134620000D01*
X111415285Y-134692571D01*
X111415285Y-134874000D01*
X111451571Y-134946571D01*
X111487857Y-134982857D01*
X104557285Y-144888857D02*
X104920142Y-145142857D01*
X104557285Y-145324285D02*
X105319285Y-145324285D01*
X105319285Y-145034000D01*
X105283000Y-144961428D01*
X105246714Y-144925142D01*
X105174142Y-144888857D01*
X105065285Y-144888857D01*
X104992714Y-144925142D01*
X104956428Y-144961428D01*
X104920142Y-145034000D01*
X104920142Y-145324285D01*
X104557285Y-144163142D02*
X104557285Y-144598571D01*
X104557285Y-144380857D02*
X105319285Y-144380857D01*
X105210428Y-144453428D01*
X105137857Y-144526000D01*
X105101571Y-144598571D01*
X105319285Y-143909142D02*
X105319285Y-143437428D01*
X105029000Y-143691428D01*
X105029000Y-143582571D01*
X104992714Y-143510000D01*
X104956428Y-143473714D01*
X104883857Y-143437428D01*
X104702428Y-143437428D01*
X104629857Y-143473714D01*
X104593571Y-143510000D01*
X104557285Y-143582571D01*
X104557285Y-143800285D01*
X104593571Y-143872857D01*
X104629857Y-143909142D01*
X105636785Y-144888857D02*
X105999642Y-145142857D01*
X105636785Y-145324285D02*
X106398785Y-145324285D01*
X106398785Y-145034000D01*
X106362500Y-144961428D01*
X106326214Y-144925142D01*
X106253642Y-144888857D01*
X106144785Y-144888857D01*
X106072214Y-144925142D01*
X106035928Y-144961428D01*
X105999642Y-145034000D01*
X105999642Y-145324285D01*
X105636785Y-144163142D02*
X105636785Y-144598571D01*
X105636785Y-144380857D02*
X106398785Y-144380857D01*
X106289928Y-144453428D01*
X106217357Y-144526000D01*
X106181071Y-144598571D01*
X106326214Y-143872857D02*
X106362500Y-143836571D01*
X106398785Y-143764000D01*
X106398785Y-143582571D01*
X106362500Y-143510000D01*
X106326214Y-143473714D01*
X106253642Y-143437428D01*
X106181071Y-143437428D01*
X106072214Y-143473714D01*
X105636785Y-143909142D01*
X105636785Y-143437428D01*
X102398285Y-144888857D02*
X102761142Y-145142857D01*
X102398285Y-145324285D02*
X103160285Y-145324285D01*
X103160285Y-145034000D01*
X103124000Y-144961428D01*
X103087714Y-144925142D01*
X103015142Y-144888857D01*
X102906285Y-144888857D01*
X102833714Y-144925142D01*
X102797428Y-144961428D01*
X102761142Y-145034000D01*
X102761142Y-145324285D01*
X102398285Y-144163142D02*
X102398285Y-144598571D01*
X102398285Y-144380857D02*
X103160285Y-144380857D01*
X103051428Y-144453428D01*
X102978857Y-144526000D01*
X102942571Y-144598571D01*
X102398285Y-143437428D02*
X102398285Y-143872857D01*
X102398285Y-143655142D02*
X103160285Y-143655142D01*
X103051428Y-143727714D01*
X102978857Y-143800285D01*
X102942571Y-143872857D01*
X103477785Y-144888857D02*
X103840642Y-145142857D01*
X103477785Y-145324285D02*
X104239785Y-145324285D01*
X104239785Y-145034000D01*
X104203500Y-144961428D01*
X104167214Y-144925142D01*
X104094642Y-144888857D01*
X103985785Y-144888857D01*
X103913214Y-144925142D01*
X103876928Y-144961428D01*
X103840642Y-145034000D01*
X103840642Y-145324285D01*
X103477785Y-144163142D02*
X103477785Y-144598571D01*
X103477785Y-144380857D02*
X104239785Y-144380857D01*
X104130928Y-144453428D01*
X104058357Y-144526000D01*
X104022071Y-144598571D01*
X104239785Y-143691428D02*
X104239785Y-143618857D01*
X104203500Y-143546285D01*
X104167214Y-143510000D01*
X104094642Y-143473714D01*
X103949500Y-143437428D01*
X103768071Y-143437428D01*
X103622928Y-143473714D01*
X103550357Y-143510000D01*
X103514071Y-143546285D01*
X103477785Y-143618857D01*
X103477785Y-143691428D01*
X103514071Y-143764000D01*
X103550357Y-143800285D01*
X103622928Y-143836571D01*
X103768071Y-143872857D01*
X103949500Y-143872857D01*
X104094642Y-143836571D01*
X104167214Y-143800285D01*
X104203500Y-143764000D01*
X104239785Y-143691428D01*
X113955285Y-147193000D02*
X114318142Y-147447000D01*
X113955285Y-147628428D02*
X114717285Y-147628428D01*
X114717285Y-147338142D01*
X114681000Y-147265571D01*
X114644714Y-147229285D01*
X114572142Y-147193000D01*
X114463285Y-147193000D01*
X114390714Y-147229285D01*
X114354428Y-147265571D01*
X114318142Y-147338142D01*
X114318142Y-147628428D01*
X114644714Y-146902714D02*
X114681000Y-146866428D01*
X114717285Y-146793857D01*
X114717285Y-146612428D01*
X114681000Y-146539857D01*
X114644714Y-146503571D01*
X114572142Y-146467285D01*
X114499571Y-146467285D01*
X114390714Y-146503571D01*
X113955285Y-146939000D01*
X113955285Y-146467285D01*
D11*
X104690333Y-149684619D02*
X105029000Y-149200809D01*
X105270904Y-149684619D02*
X105270904Y-148668619D01*
X104883857Y-148668619D01*
X104787095Y-148717000D01*
X104738714Y-148765380D01*
X104690333Y-148862142D01*
X104690333Y-149007285D01*
X104738714Y-149104047D01*
X104787095Y-149152428D01*
X104883857Y-149200809D01*
X105270904Y-149200809D01*
X103722714Y-149684619D02*
X104303285Y-149684619D01*
X104013000Y-149684619D02*
X104013000Y-148668619D01*
X104109761Y-148813761D01*
X104206523Y-148910523D01*
X104303285Y-148958904D01*
D26*
X116044738Y-110263214D02*
X116347119Y-110474880D01*
X116044738Y-110626071D02*
X116679738Y-110626071D01*
X116679738Y-110384166D01*
X116649500Y-110323690D01*
X116619261Y-110293452D01*
X116558785Y-110263214D01*
X116468071Y-110263214D01*
X116407595Y-110293452D01*
X116377357Y-110323690D01*
X116347119Y-110384166D01*
X116347119Y-110626071D01*
X116619261Y-110021309D02*
X116649500Y-109991071D01*
X116679738Y-109930595D01*
X116679738Y-109779404D01*
X116649500Y-109718928D01*
X116619261Y-109688690D01*
X116558785Y-109658452D01*
X116498309Y-109658452D01*
X116407595Y-109688690D01*
X116044738Y-110051547D01*
X116044738Y-109658452D01*
X116468071Y-109114166D02*
X116044738Y-109114166D01*
X116709976Y-109265357D02*
X116256404Y-109416547D01*
X116256404Y-109023452D01*
D12*
X111633000Y-146950611D02*
X111887000Y-146950611D01*
X111887000Y-147349754D02*
X111887000Y-146587754D01*
X111524142Y-146587754D01*
X111233857Y-146950611D02*
X110979857Y-146950611D01*
X110871000Y-147349754D02*
X111233857Y-147349754D01*
X111233857Y-146587754D01*
X110871000Y-146587754D01*
X110653285Y-146587754D02*
X110217857Y-146587754D01*
X110435571Y-147349754D02*
X110435571Y-146587754D01*
X110036428Y-146587754D02*
X109564714Y-146587754D01*
X109818714Y-146878040D01*
X109709857Y-146878040D01*
X109637285Y-146914325D01*
X109601000Y-146950611D01*
X109564714Y-147023182D01*
X109564714Y-147204611D01*
X109601000Y-147277182D01*
X109637285Y-147313468D01*
X109709857Y-147349754D01*
X109927571Y-147349754D01*
X110000142Y-147313468D01*
X110036428Y-147277182D01*
X116513428Y-121194285D02*
X116513428Y-120940285D01*
X116114285Y-120831428D02*
X116114285Y-121194285D01*
X116876285Y-121194285D01*
X116876285Y-120831428D01*
X116876285Y-120577428D02*
X116114285Y-120069428D01*
X116876285Y-120069428D02*
X116114285Y-120577428D01*
X116876285Y-119888000D02*
X116876285Y-119452571D01*
X116114285Y-119670285D02*
X116876285Y-119670285D01*
X116803714Y-119234857D02*
X116840000Y-119198571D01*
X116876285Y-119126000D01*
X116876285Y-118944571D01*
X116840000Y-118872000D01*
X116803714Y-118835714D01*
X116731142Y-118799428D01*
X116658571Y-118799428D01*
X116549714Y-118835714D01*
X116114285Y-119271142D01*
X116114285Y-118799428D01*
D11*
X91258571Y-121460380D02*
X91258571Y-121121714D01*
X90726380Y-120976571D02*
X90726380Y-121460380D01*
X91742380Y-121460380D01*
X91742380Y-120976571D01*
X91742380Y-120637904D02*
X90726380Y-119960571D01*
X91742380Y-119960571D02*
X90726380Y-120637904D01*
X91742380Y-119718666D02*
X91742380Y-119138095D01*
X90726380Y-119428380D02*
X91742380Y-119428380D01*
X90726380Y-118267238D02*
X90726380Y-118847809D01*
X90726380Y-118557523D02*
X91742380Y-118557523D01*
X91597238Y-118654285D01*
X91500476Y-118751047D01*
X91452095Y-118847809D01*
D12*
X117166571Y-114336285D02*
X117239142Y-114300000D01*
X117311714Y-114227428D01*
X117420571Y-114118571D01*
X117493142Y-114082285D01*
X117565714Y-114082285D01*
X117529428Y-114263714D02*
X117602000Y-114227428D01*
X117674571Y-114154857D01*
X117710857Y-114009714D01*
X117710857Y-113755714D01*
X117674571Y-113610571D01*
X117602000Y-113538000D01*
X117529428Y-113501714D01*
X117384285Y-113501714D01*
X117311714Y-113538000D01*
X117239142Y-113610571D01*
X117202857Y-113755714D01*
X117202857Y-114009714D01*
X117239142Y-114154857D01*
X117311714Y-114227428D01*
X117384285Y-114263714D01*
X117529428Y-114263714D01*
X116948857Y-113501714D02*
X116477142Y-113501714D01*
X116731142Y-113792000D01*
X116622285Y-113792000D01*
X116549714Y-113828285D01*
X116513428Y-113864571D01*
X116477142Y-113937142D01*
X116477142Y-114118571D01*
X116513428Y-114191142D01*
X116549714Y-114227428D01*
X116622285Y-114263714D01*
X116840000Y-114263714D01*
X116912571Y-114227428D01*
X116948857Y-114191142D01*
X99822000Y-114009714D02*
X100184857Y-114009714D01*
X100184857Y-113247714D01*
X99205142Y-113247714D02*
X99568000Y-113247714D01*
X99604285Y-113610571D01*
X99568000Y-113574285D01*
X99495428Y-113538000D01*
X99314000Y-113538000D01*
X99241428Y-113574285D01*
X99205142Y-113610571D01*
X99168857Y-113683142D01*
X99168857Y-113864571D01*
X99205142Y-113937142D01*
X99241428Y-113973428D01*
X99314000Y-114009714D01*
X99495428Y-114009714D01*
X99568000Y-113973428D01*
X99604285Y-113937142D01*
D11*
X117009333Y-178797857D02*
X117057714Y-178846238D01*
X117202857Y-178894619D01*
X117299619Y-178894619D01*
X117444761Y-178846238D01*
X117541523Y-178749476D01*
X117589904Y-178652714D01*
X117638285Y-178459190D01*
X117638285Y-178314047D01*
X117589904Y-178120523D01*
X117541523Y-178023761D01*
X117444761Y-177927000D01*
X117299619Y-177878619D01*
X117202857Y-177878619D01*
X117057714Y-177927000D01*
X117009333Y-177975380D01*
X116622285Y-177975380D02*
X116573904Y-177927000D01*
X116477142Y-177878619D01*
X116235238Y-177878619D01*
X116138476Y-177927000D01*
X116090095Y-177975380D01*
X116041714Y-178072142D01*
X116041714Y-178168904D01*
X116090095Y-178314047D01*
X116670666Y-178894619D01*
X116041714Y-178894619D01*
X108766428Y-102440619D02*
X108766428Y-101424619D01*
X108427761Y-102150333D01*
X108089095Y-101424619D01*
X108089095Y-102440619D01*
X107605285Y-102440619D02*
X107605285Y-101424619D01*
X106540904Y-102343857D02*
X106589285Y-102392238D01*
X106734428Y-102440619D01*
X106831190Y-102440619D01*
X106976333Y-102392238D01*
X107073095Y-102295476D01*
X107121476Y-102198714D01*
X107169857Y-102005190D01*
X107169857Y-101860047D01*
X107121476Y-101666523D01*
X107073095Y-101569761D01*
X106976333Y-101473000D01*
X106831190Y-101424619D01*
X106734428Y-101424619D01*
X106589285Y-101473000D01*
X106540904Y-101521380D01*
X105524904Y-102440619D02*
X105863571Y-101956809D01*
X106105476Y-102440619D02*
X106105476Y-101424619D01*
X105718428Y-101424619D01*
X105621666Y-101473000D01*
X105573285Y-101521380D01*
X105524904Y-101618142D01*
X105524904Y-101763285D01*
X105573285Y-101860047D01*
X105621666Y-101908428D01*
X105718428Y-101956809D01*
X106105476Y-101956809D01*
X104895952Y-101424619D02*
X104702428Y-101424619D01*
X104605666Y-101473000D01*
X104508904Y-101569761D01*
X104460523Y-101763285D01*
X104460523Y-102101952D01*
X104508904Y-102295476D01*
X104605666Y-102392238D01*
X104702428Y-102440619D01*
X104895952Y-102440619D01*
X104992714Y-102392238D01*
X105089476Y-102295476D01*
X105137857Y-102101952D01*
X105137857Y-101763285D01*
X105089476Y-101569761D01*
X104992714Y-101473000D01*
X104895952Y-101424619D01*
X104267000Y-102537380D02*
X103492904Y-102537380D01*
X103299380Y-102392238D02*
X103154238Y-102440619D01*
X102912333Y-102440619D01*
X102815571Y-102392238D01*
X102767190Y-102343857D01*
X102718809Y-102247095D01*
X102718809Y-102150333D01*
X102767190Y-102053571D01*
X102815571Y-102005190D01*
X102912333Y-101956809D01*
X103105857Y-101908428D01*
X103202619Y-101860047D01*
X103251000Y-101811666D01*
X103299380Y-101714904D01*
X103299380Y-101618142D01*
X103251000Y-101521380D01*
X103202619Y-101473000D01*
X103105857Y-101424619D01*
X102863952Y-101424619D01*
X102718809Y-101473000D01*
X102283380Y-102440619D02*
X102283380Y-101424619D01*
X102041476Y-101424619D01*
X101896333Y-101473000D01*
X101799571Y-101569761D01*
X101751190Y-101666523D01*
X101702809Y-101860047D01*
X101702809Y-102005190D01*
X101751190Y-102198714D01*
X101799571Y-102295476D01*
X101896333Y-102392238D01*
X102041476Y-102440619D01*
X102283380Y-102440619D01*
X100735190Y-102440619D02*
X101315761Y-102440619D01*
X101025476Y-102440619D02*
X101025476Y-101424619D01*
X101122238Y-101569761D01*
X101219000Y-101666523D01*
X101315761Y-101714904D01*
D29*
X108116190Y-108306190D02*
X108116190Y-107806190D01*
X107830476Y-108306190D01*
X107830476Y-107806190D01*
X107520952Y-108306190D02*
X107568571Y-108282380D01*
X107592380Y-108258571D01*
X107616190Y-108210952D01*
X107616190Y-108068095D01*
X107592380Y-108020476D01*
X107568571Y-107996666D01*
X107520952Y-107972857D01*
X107449523Y-107972857D01*
X107401904Y-107996666D01*
X107378095Y-108020476D01*
X107354285Y-108068095D01*
X107354285Y-108210952D01*
X107378095Y-108258571D01*
X107401904Y-108282380D01*
X107449523Y-108306190D01*
X107520952Y-108306190D01*
X107140000Y-108306190D02*
X107140000Y-107972857D01*
X107140000Y-108068095D02*
X107116190Y-108020476D01*
X107092380Y-107996666D01*
X107044761Y-107972857D01*
X106997142Y-107972857D01*
X106830476Y-108306190D02*
X106830476Y-107972857D01*
X106830476Y-108020476D02*
X106806666Y-107996666D01*
X106759047Y-107972857D01*
X106687619Y-107972857D01*
X106640000Y-107996666D01*
X106616190Y-108044285D01*
X106616190Y-108306190D01*
X106616190Y-108044285D02*
X106592380Y-107996666D01*
X106544761Y-107972857D01*
X106473333Y-107972857D01*
X106425714Y-107996666D01*
X106401904Y-108044285D01*
X106401904Y-108306190D01*
X105949523Y-108306190D02*
X105949523Y-108044285D01*
X105973333Y-107996666D01*
X106020952Y-107972857D01*
X106116190Y-107972857D01*
X106163809Y-107996666D01*
X105949523Y-108282380D02*
X105997142Y-108306190D01*
X106116190Y-108306190D01*
X106163809Y-108282380D01*
X106187619Y-108234761D01*
X106187619Y-108187142D01*
X106163809Y-108139523D01*
X106116190Y-108115714D01*
X105997142Y-108115714D01*
X105949523Y-108091904D01*
X105640000Y-108306190D02*
X105687619Y-108282380D01*
X105711428Y-108234761D01*
X105711428Y-107806190D01*
X104973333Y-107806190D02*
X104878095Y-107806190D01*
X104830476Y-107830000D01*
X104782857Y-107877619D01*
X104759047Y-107972857D01*
X104759047Y-108139523D01*
X104782857Y-108234761D01*
X104830476Y-108282380D01*
X104878095Y-108306190D01*
X104973333Y-108306190D01*
X105020952Y-108282380D01*
X105068571Y-108234761D01*
X105092380Y-108139523D01*
X105092380Y-107972857D01*
X105068571Y-107877619D01*
X105020952Y-107830000D01*
X104973333Y-107806190D01*
X104544761Y-107972857D02*
X104544761Y-108472857D01*
X104544761Y-107996666D02*
X104497142Y-107972857D01*
X104401904Y-107972857D01*
X104354285Y-107996666D01*
X104330476Y-108020476D01*
X104306666Y-108068095D01*
X104306666Y-108210952D01*
X104330476Y-108258571D01*
X104354285Y-108282380D01*
X104401904Y-108306190D01*
X104497142Y-108306190D01*
X104544761Y-108282380D01*
X103901904Y-108282380D02*
X103949523Y-108306190D01*
X104044761Y-108306190D01*
X104092380Y-108282380D01*
X104116190Y-108234761D01*
X104116190Y-108044285D01*
X104092380Y-107996666D01*
X104044761Y-107972857D01*
X103949523Y-107972857D01*
X103901904Y-107996666D01*
X103878095Y-108044285D01*
X103878095Y-108091904D01*
X104116190Y-108139523D01*
X103663809Y-107972857D02*
X103663809Y-108306190D01*
X103663809Y-108020476D02*
X103640000Y-107996666D01*
X103592380Y-107972857D01*
X103520952Y-107972857D01*
X103473333Y-107996666D01*
X103449523Y-108044285D01*
X103449523Y-108306190D01*
X102854285Y-108282380D02*
X102782857Y-108306190D01*
X102663809Y-108306190D01*
X102616190Y-108282380D01*
X102592380Y-108258571D01*
X102568571Y-108210952D01*
X102568571Y-108163333D01*
X102592380Y-108115714D01*
X102616190Y-108091904D01*
X102663809Y-108068095D01*
X102759047Y-108044285D01*
X102806666Y-108020476D01*
X102830476Y-107996666D01*
X102854285Y-107949047D01*
X102854285Y-107901428D01*
X102830476Y-107853809D01*
X102806666Y-107830000D01*
X102759047Y-107806190D01*
X102640000Y-107806190D01*
X102568571Y-107830000D01*
X102401904Y-107972857D02*
X102306666Y-108306190D01*
X102211428Y-108068095D01*
X102116190Y-108306190D01*
X102020952Y-107972857D01*
X101830476Y-108306190D02*
X101830476Y-107972857D01*
X101830476Y-107806190D02*
X101854285Y-107830000D01*
X101830476Y-107853809D01*
X101806666Y-107830000D01*
X101830476Y-107806190D01*
X101830476Y-107853809D01*
X101663809Y-107972857D02*
X101473333Y-107972857D01*
X101592380Y-107806190D02*
X101592380Y-108234761D01*
X101568571Y-108282380D01*
X101520952Y-108306190D01*
X101473333Y-108306190D01*
X101092380Y-108282380D02*
X101140000Y-108306190D01*
X101235238Y-108306190D01*
X101282857Y-108282380D01*
X101306666Y-108258571D01*
X101330476Y-108210952D01*
X101330476Y-108068095D01*
X101306666Y-108020476D01*
X101282857Y-107996666D01*
X101235238Y-107972857D01*
X101140000Y-107972857D01*
X101092380Y-107996666D01*
X100878095Y-108306190D02*
X100878095Y-107806190D01*
X100663809Y-108306190D02*
X100663809Y-108044285D01*
X100687619Y-107996666D01*
X100735238Y-107972857D01*
X100806666Y-107972857D01*
X100854285Y-107996666D01*
X100878095Y-108020476D01*
X106211428Y-109258571D02*
X106235238Y-109282380D01*
X106306666Y-109306190D01*
X106354285Y-109306190D01*
X106425714Y-109282380D01*
X106473333Y-109234761D01*
X106497142Y-109187142D01*
X106520952Y-109091904D01*
X106520952Y-109020476D01*
X106497142Y-108925238D01*
X106473333Y-108877619D01*
X106425714Y-108830000D01*
X106354285Y-108806190D01*
X106306666Y-108806190D01*
X106235238Y-108830000D01*
X106211428Y-108853809D01*
X105782857Y-109306190D02*
X105782857Y-109044285D01*
X105806666Y-108996666D01*
X105854285Y-108972857D01*
X105949523Y-108972857D01*
X105997142Y-108996666D01*
X105782857Y-109282380D02*
X105830476Y-109306190D01*
X105949523Y-109306190D01*
X105997142Y-109282380D01*
X106020952Y-109234761D01*
X106020952Y-109187142D01*
X105997142Y-109139523D01*
X105949523Y-109115714D01*
X105830476Y-109115714D01*
X105782857Y-109091904D01*
X105544761Y-109306190D02*
X105544761Y-108972857D01*
X105544761Y-109068095D02*
X105520952Y-109020476D01*
X105497142Y-108996666D01*
X105449523Y-108972857D01*
X105401904Y-108972857D01*
X105020952Y-109306190D02*
X105020952Y-108806190D01*
X105020952Y-109282380D02*
X105068571Y-109306190D01*
X105163809Y-109306190D01*
X105211428Y-109282380D01*
X105235238Y-109258571D01*
X105259047Y-109210952D01*
X105259047Y-109068095D01*
X105235238Y-109020476D01*
X105211428Y-108996666D01*
X105163809Y-108972857D01*
X105068571Y-108972857D01*
X105020952Y-108996666D01*
X104401904Y-109306190D02*
X104401904Y-108806190D01*
X104282857Y-108806190D01*
X104211428Y-108830000D01*
X104163809Y-108877619D01*
X104140000Y-108925238D01*
X104116190Y-109020476D01*
X104116190Y-109091904D01*
X104140000Y-109187142D01*
X104163809Y-109234761D01*
X104211428Y-109282380D01*
X104282857Y-109306190D01*
X104401904Y-109306190D01*
X103711428Y-109282380D02*
X103759047Y-109306190D01*
X103854285Y-109306190D01*
X103901904Y-109282380D01*
X103925714Y-109234761D01*
X103925714Y-109044285D01*
X103901904Y-108996666D01*
X103854285Y-108972857D01*
X103759047Y-108972857D01*
X103711428Y-108996666D01*
X103687619Y-109044285D01*
X103687619Y-109091904D01*
X103925714Y-109139523D01*
X103544761Y-108972857D02*
X103354285Y-108972857D01*
X103473333Y-108806190D02*
X103473333Y-109234761D01*
X103449523Y-109282380D01*
X103401904Y-109306190D01*
X103354285Y-109306190D01*
X102997142Y-109282380D02*
X103044761Y-109306190D01*
X103140000Y-109306190D01*
X103187619Y-109282380D01*
X103211428Y-109234761D01*
X103211428Y-109044285D01*
X103187619Y-108996666D01*
X103140000Y-108972857D01*
X103044761Y-108972857D01*
X102997142Y-108996666D01*
X102973333Y-109044285D01*
X102973333Y-109091904D01*
X103211428Y-109139523D01*
X102544761Y-109282380D02*
X102592380Y-109306190D01*
X102687619Y-109306190D01*
X102735238Y-109282380D01*
X102759047Y-109258571D01*
X102782857Y-109210952D01*
X102782857Y-109068095D01*
X102759047Y-109020476D01*
X102735238Y-108996666D01*
X102687619Y-108972857D01*
X102592380Y-108972857D01*
X102544761Y-108996666D01*
X102401904Y-108972857D02*
X102211428Y-108972857D01*
X102330476Y-108806190D02*
X102330476Y-109234761D01*
X102306666Y-109282380D01*
X102259047Y-109306190D01*
X102211428Y-109306190D01*
D12*
X111233857Y-133585857D02*
X111197571Y-133622142D01*
X111161285Y-133731000D01*
X111161285Y-133803571D01*
X111197571Y-133912428D01*
X111270142Y-133985000D01*
X111342714Y-134021285D01*
X111487857Y-134057571D01*
X111596714Y-134057571D01*
X111741857Y-134021285D01*
X111814428Y-133985000D01*
X111887000Y-133912428D01*
X111923285Y-133803571D01*
X111923285Y-133731000D01*
X111887000Y-133622142D01*
X111850714Y-133585857D01*
X111850714Y-133295571D02*
X111887000Y-133259285D01*
X111923285Y-133186714D01*
X111923285Y-133005285D01*
X111887000Y-132932714D01*
X111850714Y-132896428D01*
X111778142Y-132860142D01*
X111705571Y-132860142D01*
X111596714Y-132896428D01*
X111161285Y-133331857D01*
X111161285Y-132860142D01*
X111161285Y-132134428D02*
X111161285Y-132569857D01*
X111161285Y-132352142D02*
X111923285Y-132352142D01*
X111814428Y-132424714D01*
X111741857Y-132497285D01*
X111705571Y-132569857D01*
X97898857Y-134892142D02*
X97935142Y-134928428D01*
X98044000Y-134964714D01*
X98116571Y-134964714D01*
X98225428Y-134928428D01*
X98298000Y-134855857D01*
X98334285Y-134783285D01*
X98370571Y-134638142D01*
X98370571Y-134529285D01*
X98334285Y-134384142D01*
X98298000Y-134311571D01*
X98225428Y-134239000D01*
X98116571Y-134202714D01*
X98044000Y-134202714D01*
X97935142Y-134239000D01*
X97898857Y-134275285D01*
X97173142Y-134964714D02*
X97608571Y-134964714D01*
X97390857Y-134964714D02*
X97390857Y-134202714D01*
X97463428Y-134311571D01*
X97536000Y-134384142D01*
X97608571Y-134420428D01*
X96919142Y-134202714D02*
X96411142Y-134202714D01*
X96737714Y-134964714D01*
X105899857Y-146385642D02*
X105936142Y-146421928D01*
X106045000Y-146458214D01*
X106117571Y-146458214D01*
X106226428Y-146421928D01*
X106299000Y-146349357D01*
X106335285Y-146276785D01*
X106371571Y-146131642D01*
X106371571Y-146022785D01*
X106335285Y-145877642D01*
X106299000Y-145805071D01*
X106226428Y-145732500D01*
X106117571Y-145696214D01*
X106045000Y-145696214D01*
X105936142Y-145732500D01*
X105899857Y-145768785D01*
X105174142Y-146458214D02*
X105609571Y-146458214D01*
X105391857Y-146458214D02*
X105391857Y-145696214D01*
X105464428Y-145805071D01*
X105537000Y-145877642D01*
X105609571Y-145913928D01*
X104920142Y-145696214D02*
X104448428Y-145696214D01*
X104702428Y-145986500D01*
X104593571Y-145986500D01*
X104521000Y-146022785D01*
X104484714Y-146059071D01*
X104448428Y-146131642D01*
X104448428Y-146313071D01*
X104484714Y-146385642D01*
X104521000Y-146421928D01*
X104593571Y-146458214D01*
X104811285Y-146458214D01*
X104883857Y-146421928D01*
X104920142Y-146385642D01*
X110344857Y-137858500D02*
X110308571Y-137894785D01*
X110272285Y-138003642D01*
X110272285Y-138076214D01*
X110308571Y-138185071D01*
X110381142Y-138257642D01*
X110453714Y-138293928D01*
X110598857Y-138330214D01*
X110707714Y-138330214D01*
X110852857Y-138293928D01*
X110925428Y-138257642D01*
X110998000Y-138185071D01*
X111034285Y-138076214D01*
X111034285Y-138003642D01*
X110998000Y-137894785D01*
X110961714Y-137858500D01*
X110272285Y-137495642D02*
X110272285Y-137350500D01*
X110308571Y-137277928D01*
X110344857Y-137241642D01*
X110453714Y-137169071D01*
X110598857Y-137132785D01*
X110889142Y-137132785D01*
X110961714Y-137169071D01*
X110998000Y-137205357D01*
X111034285Y-137277928D01*
X111034285Y-137423071D01*
X110998000Y-137495642D01*
X110961714Y-137531928D01*
X110889142Y-137568214D01*
X110707714Y-137568214D01*
X110635142Y-137531928D01*
X110598857Y-137495642D01*
X110562571Y-137423071D01*
X110562571Y-137277928D01*
X110598857Y-137205357D01*
X110635142Y-137169071D01*
X110707714Y-137132785D01*
D11*
X108061880Y-130162904D02*
X108545690Y-130501571D01*
X108061880Y-130743476D02*
X109077880Y-130743476D01*
X109077880Y-130356428D01*
X109029500Y-130259666D01*
X108981119Y-130211285D01*
X108884357Y-130162904D01*
X108739214Y-130162904D01*
X108642452Y-130211285D01*
X108594071Y-130259666D01*
X108545690Y-130356428D01*
X108545690Y-130743476D01*
X108061880Y-129727476D02*
X109077880Y-129727476D01*
X108352166Y-129388809D01*
X109077880Y-129050142D01*
X108061880Y-129050142D01*
X108981119Y-128614714D02*
X109029500Y-128566333D01*
X109077880Y-128469571D01*
X109077880Y-128227666D01*
X109029500Y-128130904D01*
X108981119Y-128082523D01*
X108884357Y-128034142D01*
X108787595Y-128034142D01*
X108642452Y-128082523D01*
X108061880Y-128663095D01*
X108061880Y-128034142D01*
D12*
X110435571Y-115225285D02*
X110508142Y-115189000D01*
X110580714Y-115116428D01*
X110689571Y-115007571D01*
X110762142Y-114971285D01*
X110834714Y-114971285D01*
X110798428Y-115152714D02*
X110871000Y-115116428D01*
X110943571Y-115043857D01*
X110979857Y-114898714D01*
X110979857Y-114644714D01*
X110943571Y-114499571D01*
X110871000Y-114427000D01*
X110798428Y-114390714D01*
X110653285Y-114390714D01*
X110580714Y-114427000D01*
X110508142Y-114499571D01*
X110471857Y-114644714D01*
X110471857Y-114898714D01*
X110508142Y-115043857D01*
X110580714Y-115116428D01*
X110653285Y-115152714D01*
X110798428Y-115152714D01*
X110181571Y-114463285D02*
X110145285Y-114427000D01*
X110072714Y-114390714D01*
X109891285Y-114390714D01*
X109818714Y-114427000D01*
X109782428Y-114463285D01*
X109746142Y-114535857D01*
X109746142Y-114608428D01*
X109782428Y-114717285D01*
X110217857Y-115152714D01*
X109746142Y-115152714D01*
X111887000Y-142076714D02*
X112249857Y-142076714D01*
X112249857Y-141314714D01*
X111233857Y-142076714D02*
X111669285Y-142076714D01*
X111451571Y-142076714D02*
X111451571Y-141314714D01*
X111524142Y-141423571D01*
X111596714Y-141496142D01*
X111669285Y-141532428D01*
D26*
X115851214Y-107221261D02*
X116062880Y-106918880D01*
X116214071Y-107221261D02*
X116214071Y-106586261D01*
X115972166Y-106586261D01*
X115911690Y-106616500D01*
X115881452Y-106646738D01*
X115851214Y-106707214D01*
X115851214Y-106797928D01*
X115881452Y-106858404D01*
X115911690Y-106888642D01*
X115972166Y-106918880D01*
X116214071Y-106918880D01*
X115306928Y-106797928D02*
X115306928Y-107221261D01*
X115458119Y-106556023D02*
X115609309Y-107009595D01*
X115216214Y-107009595D01*
X114944071Y-107221261D02*
X114823119Y-107221261D01*
X114762642Y-107191023D01*
X114732404Y-107160785D01*
X114671928Y-107070071D01*
X114641690Y-106949119D01*
X114641690Y-106707214D01*
X114671928Y-106646738D01*
X114702166Y-106616500D01*
X114762642Y-106586261D01*
X114883595Y-106586261D01*
X114944071Y-106616500D01*
X114974309Y-106646738D01*
X115004547Y-106707214D01*
X115004547Y-106858404D01*
X114974309Y-106918880D01*
X114944071Y-106949119D01*
X114883595Y-106979357D01*
X114762642Y-106979357D01*
X114702166Y-106949119D01*
X114671928Y-106918880D01*
X114641690Y-106858404D01*
D11*
X108318904Y-122760619D02*
X108318904Y-121744619D01*
X108077000Y-121744619D01*
X107931857Y-121793000D01*
X107835095Y-121889761D01*
X107786714Y-121986523D01*
X107738333Y-122180047D01*
X107738333Y-122325190D01*
X107786714Y-122518714D01*
X107835095Y-122615476D01*
X107931857Y-122712238D01*
X108077000Y-122760619D01*
X108318904Y-122760619D01*
X106867476Y-122083285D02*
X106867476Y-122760619D01*
X107109380Y-121696238D02*
X107351285Y-122421952D01*
X106722333Y-122421952D01*
D12*
X99930857Y-121121714D02*
X100184857Y-120758857D01*
X100366285Y-121121714D02*
X100366285Y-120359714D01*
X100076000Y-120359714D01*
X100003428Y-120396000D01*
X99967142Y-120432285D01*
X99930857Y-120504857D01*
X99930857Y-120613714D01*
X99967142Y-120686285D01*
X100003428Y-120722571D01*
X100076000Y-120758857D01*
X100366285Y-120758857D01*
X99676857Y-120359714D02*
X99205142Y-120359714D01*
X99459142Y-120650000D01*
X99350285Y-120650000D01*
X99277714Y-120686285D01*
X99241428Y-120722571D01*
X99205142Y-120795142D01*
X99205142Y-120976571D01*
X99241428Y-121049142D01*
X99277714Y-121085428D01*
X99350285Y-121121714D01*
X99568000Y-121121714D01*
X99640571Y-121085428D01*
X99676857Y-121049142D01*
X98951142Y-120359714D02*
X98443142Y-120359714D01*
X98769714Y-121121714D01*
X102271285Y-138502571D02*
X101654428Y-138502571D01*
X101581857Y-138466285D01*
X101545571Y-138430000D01*
X101509285Y-138357428D01*
X101509285Y-138212285D01*
X101545571Y-138139714D01*
X101581857Y-138103428D01*
X101654428Y-138067142D01*
X102271285Y-138067142D01*
X102017285Y-137377714D02*
X101509285Y-137377714D01*
X102307571Y-137559142D02*
X101763285Y-137740571D01*
X101763285Y-137268857D01*
D28*
X113106200Y-115256733D02*
X113343266Y-114918066D01*
X113512600Y-115256733D02*
X113512600Y-114545533D01*
X113241666Y-114545533D01*
X113173933Y-114579400D01*
X113140066Y-114613266D01*
X113106200Y-114681000D01*
X113106200Y-114782600D01*
X113140066Y-114850333D01*
X113173933Y-114884200D01*
X113241666Y-114918066D01*
X113512600Y-114918066D01*
X112835266Y-114613266D02*
X112801400Y-114579400D01*
X112733666Y-114545533D01*
X112564333Y-114545533D01*
X112496600Y-114579400D01*
X112462733Y-114613266D01*
X112428866Y-114681000D01*
X112428866Y-114748733D01*
X112462733Y-114850333D01*
X112869133Y-115256733D01*
X112428866Y-115256733D01*
X111751533Y-115256733D02*
X112157933Y-115256733D01*
X111954733Y-115256733D02*
X111954733Y-114545533D01*
X112022466Y-114647133D01*
X112090200Y-114714866D01*
X112157933Y-114748733D01*
D26*
X112015814Y-112910861D02*
X112227480Y-112608480D01*
X112378671Y-112910861D02*
X112378671Y-112275861D01*
X112136766Y-112275861D01*
X112076290Y-112306100D01*
X112046052Y-112336338D01*
X112015814Y-112396814D01*
X112015814Y-112487528D01*
X112046052Y-112548004D01*
X112076290Y-112578242D01*
X112136766Y-112608480D01*
X112378671Y-112608480D01*
X111773909Y-112336338D02*
X111743671Y-112306100D01*
X111683195Y-112275861D01*
X111532004Y-112275861D01*
X111471528Y-112306100D01*
X111441290Y-112336338D01*
X111411052Y-112396814D01*
X111411052Y-112457290D01*
X111441290Y-112548004D01*
X111804147Y-112910861D01*
X111411052Y-112910861D01*
X111017957Y-112275861D02*
X110957480Y-112275861D01*
X110897004Y-112306100D01*
X110866766Y-112336338D01*
X110836528Y-112396814D01*
X110806290Y-112517766D01*
X110806290Y-112668957D01*
X110836528Y-112789909D01*
X110866766Y-112850385D01*
X110897004Y-112880623D01*
X110957480Y-112910861D01*
X111017957Y-112910861D01*
X111078433Y-112880623D01*
X111108671Y-112850385D01*
X111138909Y-112789909D01*
X111169147Y-112668957D01*
X111169147Y-112517766D01*
X111138909Y-112396814D01*
X111108671Y-112336338D01*
X111078433Y-112306100D01*
X111017957Y-112275861D01*
X111720690Y-108618261D02*
X111720690Y-107983261D01*
X111569500Y-107983261D01*
X111478785Y-108013500D01*
X111418309Y-108073976D01*
X111388071Y-108134452D01*
X111357833Y-108255404D01*
X111357833Y-108346119D01*
X111388071Y-108467071D01*
X111418309Y-108527547D01*
X111478785Y-108588023D01*
X111569500Y-108618261D01*
X111720690Y-108618261D01*
X111115928Y-108043738D02*
X111085690Y-108013500D01*
X111025214Y-107983261D01*
X110874023Y-107983261D01*
X110813547Y-108013500D01*
X110783309Y-108043738D01*
X110753071Y-108104214D01*
X110753071Y-108164690D01*
X110783309Y-108255404D01*
X111146166Y-108618261D01*
X110753071Y-108618261D01*
D12*
X112558285Y-138248571D02*
X112558285Y-137813142D01*
X111796285Y-138030857D02*
X112558285Y-138030857D01*
X111796285Y-137160000D02*
X111796285Y-137595428D01*
X111796285Y-137377714D02*
X112558285Y-137377714D01*
X112449428Y-137450285D01*
X112376857Y-137522857D01*
X112340571Y-137595428D01*
D30*
X107336166Y-115210166D02*
X107632500Y-114786833D01*
X107844166Y-115210166D02*
X107844166Y-114321166D01*
X107505500Y-114321166D01*
X107420833Y-114363500D01*
X107378500Y-114405833D01*
X107336166Y-114490500D01*
X107336166Y-114617500D01*
X107378500Y-114702166D01*
X107420833Y-114744500D01*
X107505500Y-114786833D01*
X107844166Y-114786833D01*
X106955166Y-115210166D02*
X106955166Y-114321166D01*
X106658833Y-114956166D01*
X106362500Y-114321166D01*
X106362500Y-115210166D01*
X106023833Y-114321166D02*
X105473500Y-114321166D01*
X105769833Y-114659833D01*
X105642833Y-114659833D01*
X105558166Y-114702166D01*
X105515833Y-114744500D01*
X105473500Y-114829166D01*
X105473500Y-115040833D01*
X105515833Y-115125500D01*
X105558166Y-115167833D01*
X105642833Y-115210166D01*
X105896833Y-115210166D01*
X105981500Y-115167833D01*
X106023833Y-115125500D01*
D11*
X100825904Y-128856619D02*
X101164571Y-128372809D01*
X101406476Y-128856619D02*
X101406476Y-127840619D01*
X101019428Y-127840619D01*
X100922666Y-127889000D01*
X100874285Y-127937380D01*
X100825904Y-128034142D01*
X100825904Y-128179285D01*
X100874285Y-128276047D01*
X100922666Y-128324428D01*
X101019428Y-128372809D01*
X101406476Y-128372809D01*
X100390476Y-128856619D02*
X100390476Y-127840619D01*
X100051809Y-128566333D01*
X99713142Y-127840619D01*
X99713142Y-128856619D01*
X98697142Y-128856619D02*
X99277714Y-128856619D01*
X98987428Y-128856619D02*
X98987428Y-127840619D01*
X99084190Y-127985761D01*
X99180952Y-128082523D01*
X99277714Y-128130904D01*
D12*
X100257428Y-143727714D02*
X100257428Y-142965714D01*
X100076000Y-142965714D01*
X99967142Y-143002000D01*
X99894571Y-143074571D01*
X99858285Y-143147142D01*
X99822000Y-143292285D01*
X99822000Y-143401142D01*
X99858285Y-143546285D01*
X99894571Y-143618857D01*
X99967142Y-143691428D01*
X100076000Y-143727714D01*
X100257428Y-143727714D01*
X99386571Y-143292285D02*
X99459142Y-143256000D01*
X99495428Y-143219714D01*
X99531714Y-143147142D01*
X99531714Y-143110857D01*
X99495428Y-143038285D01*
X99459142Y-143002000D01*
X99386571Y-142965714D01*
X99241428Y-142965714D01*
X99168857Y-143002000D01*
X99132571Y-143038285D01*
X99096285Y-143110857D01*
X99096285Y-143147142D01*
X99132571Y-143219714D01*
X99168857Y-143256000D01*
X99241428Y-143292285D01*
X99386571Y-143292285D01*
X99459142Y-143328571D01*
X99495428Y-143364857D01*
X99531714Y-143437428D01*
X99531714Y-143582571D01*
X99495428Y-143655142D01*
X99459142Y-143691428D01*
X99386571Y-143727714D01*
X99241428Y-143727714D01*
X99168857Y-143691428D01*
X99132571Y-143655142D01*
X99096285Y-143582571D01*
X99096285Y-143437428D01*
X99132571Y-143364857D01*
X99168857Y-143328571D01*
X99241428Y-143292285D01*
X102108000Y-174207714D02*
X101672571Y-174207714D01*
X101890285Y-174969714D02*
X101890285Y-174207714D01*
X101527428Y-174207714D02*
X101273428Y-174969714D01*
X101019428Y-174207714D01*
X100801714Y-174933428D02*
X100692857Y-174969714D01*
X100511428Y-174969714D01*
X100438857Y-174933428D01*
X100402571Y-174897142D01*
X100366285Y-174824571D01*
X100366285Y-174752000D01*
X100402571Y-174679428D01*
X100438857Y-174643142D01*
X100511428Y-174606857D01*
X100656571Y-174570571D01*
X100729142Y-174534285D01*
X100765428Y-174498000D01*
X100801714Y-174425428D01*
X100801714Y-174352857D01*
X100765428Y-174280285D01*
X100729142Y-174244000D01*
X100656571Y-174207714D01*
X100475142Y-174207714D01*
X100366285Y-174244000D01*
X100076000Y-174280285D02*
X100039714Y-174244000D01*
X99967142Y-174207714D01*
X99785714Y-174207714D01*
X99713142Y-174244000D01*
X99676857Y-174280285D01*
X99640571Y-174352857D01*
X99640571Y-174425428D01*
X99676857Y-174534285D01*
X100112285Y-174969714D01*
X99640571Y-174969714D01*
X99314000Y-179795714D02*
X98878571Y-179795714D01*
X99096285Y-180557714D02*
X99096285Y-179795714D01*
X98733428Y-179795714D02*
X98479428Y-180557714D01*
X98225428Y-179795714D01*
X98007714Y-180521428D02*
X97898857Y-180557714D01*
X97717428Y-180557714D01*
X97644857Y-180521428D01*
X97608571Y-180485142D01*
X97572285Y-180412571D01*
X97572285Y-180340000D01*
X97608571Y-180267428D01*
X97644857Y-180231142D01*
X97717428Y-180194857D01*
X97862571Y-180158571D01*
X97935142Y-180122285D01*
X97971428Y-180086000D01*
X98007714Y-180013428D01*
X98007714Y-179940857D01*
X97971428Y-179868285D01*
X97935142Y-179832000D01*
X97862571Y-179795714D01*
X97681142Y-179795714D01*
X97572285Y-179832000D01*
X97318285Y-179795714D02*
X96846571Y-179795714D01*
X97100571Y-180086000D01*
X96991714Y-180086000D01*
X96919142Y-180122285D01*
X96882857Y-180158571D01*
X96846571Y-180231142D01*
X96846571Y-180412571D01*
X96882857Y-180485142D01*
X96919142Y-180521428D01*
X96991714Y-180557714D01*
X97209428Y-180557714D01*
X97282000Y-180521428D01*
X97318285Y-180485142D01*
D26*
X112231714Y-167413214D02*
X112201476Y-167443452D01*
X112171238Y-167534166D01*
X112171238Y-167594642D01*
X112201476Y-167685357D01*
X112261952Y-167745833D01*
X112322428Y-167776071D01*
X112443380Y-167806309D01*
X112534095Y-167806309D01*
X112655047Y-167776071D01*
X112715523Y-167745833D01*
X112776000Y-167685357D01*
X112806238Y-167594642D01*
X112806238Y-167534166D01*
X112776000Y-167443452D01*
X112745761Y-167413214D01*
X112745761Y-167171309D02*
X112776000Y-167141071D01*
X112806238Y-167080595D01*
X112806238Y-166929404D01*
X112776000Y-166868928D01*
X112745761Y-166838690D01*
X112685285Y-166808452D01*
X112624809Y-166808452D01*
X112534095Y-166838690D01*
X112171238Y-167201547D01*
X112171238Y-166808452D01*
X112806238Y-166233928D02*
X112806238Y-166536309D01*
X112503857Y-166566547D01*
X112534095Y-166536309D01*
X112564333Y-166475833D01*
X112564333Y-166324642D01*
X112534095Y-166264166D01*
X112503857Y-166233928D01*
X112443380Y-166203690D01*
X112292190Y-166203690D01*
X112231714Y-166233928D01*
X112201476Y-166264166D01*
X112171238Y-166324642D01*
X112171238Y-166475833D01*
X112201476Y-166536309D01*
X112231714Y-166566547D01*
D12*
X111923285Y-174860857D02*
X112286142Y-175114857D01*
X111923285Y-175296285D02*
X112685285Y-175296285D01*
X112685285Y-175006000D01*
X112649000Y-174933428D01*
X112612714Y-174897142D01*
X112540142Y-174860857D01*
X112431285Y-174860857D01*
X112358714Y-174897142D01*
X112322428Y-174933428D01*
X112286142Y-175006000D01*
X112286142Y-175296285D01*
X112612714Y-174570571D02*
X112649000Y-174534285D01*
X112685285Y-174461714D01*
X112685285Y-174280285D01*
X112649000Y-174207714D01*
X112612714Y-174171428D01*
X112540142Y-174135142D01*
X112467571Y-174135142D01*
X112358714Y-174171428D01*
X111923285Y-174606857D01*
X111923285Y-174135142D01*
X112612714Y-173844857D02*
X112649000Y-173808571D01*
X112685285Y-173736000D01*
X112685285Y-173554571D01*
X112649000Y-173482000D01*
X112612714Y-173445714D01*
X112540142Y-173409428D01*
X112467571Y-173409428D01*
X112358714Y-173445714D01*
X111923285Y-173881142D01*
X111923285Y-173409428D01*
X114590285Y-175241857D02*
X114953142Y-175495857D01*
X114590285Y-175677285D02*
X115352285Y-175677285D01*
X115352285Y-175387000D01*
X115316000Y-175314428D01*
X115279714Y-175278142D01*
X115207142Y-175241857D01*
X115098285Y-175241857D01*
X115025714Y-175278142D01*
X114989428Y-175314428D01*
X114953142Y-175387000D01*
X114953142Y-175677285D01*
X115279714Y-174951571D02*
X115316000Y-174915285D01*
X115352285Y-174842714D01*
X115352285Y-174661285D01*
X115316000Y-174588714D01*
X115279714Y-174552428D01*
X115207142Y-174516142D01*
X115134571Y-174516142D01*
X115025714Y-174552428D01*
X114590285Y-174987857D01*
X114590285Y-174516142D01*
X115352285Y-174262142D02*
X115352285Y-173790428D01*
X115062000Y-174044428D01*
X115062000Y-173935571D01*
X115025714Y-173863000D01*
X114989428Y-173826714D01*
X114916857Y-173790428D01*
X114735428Y-173790428D01*
X114662857Y-173826714D01*
X114626571Y-173863000D01*
X114590285Y-173935571D01*
X114590285Y-174153285D01*
X114626571Y-174225857D01*
X114662857Y-174262142D01*
X113320285Y-174860857D02*
X113683142Y-175114857D01*
X113320285Y-175296285D02*
X114082285Y-175296285D01*
X114082285Y-175006000D01*
X114046000Y-174933428D01*
X114009714Y-174897142D01*
X113937142Y-174860857D01*
X113828285Y-174860857D01*
X113755714Y-174897142D01*
X113719428Y-174933428D01*
X113683142Y-175006000D01*
X113683142Y-175296285D01*
X114009714Y-174570571D02*
X114046000Y-174534285D01*
X114082285Y-174461714D01*
X114082285Y-174280285D01*
X114046000Y-174207714D01*
X114009714Y-174171428D01*
X113937142Y-174135142D01*
X113864571Y-174135142D01*
X113755714Y-174171428D01*
X113320285Y-174606857D01*
X113320285Y-174135142D01*
X114082285Y-173881142D02*
X114082285Y-173373142D01*
X113320285Y-173699714D01*
D30*
X102933500Y-172487166D02*
X103229833Y-172063833D01*
X103441500Y-172487166D02*
X103441500Y-171598166D01*
X103102833Y-171598166D01*
X103018166Y-171640500D01*
X102975833Y-171682833D01*
X102933500Y-171767500D01*
X102933500Y-171894500D01*
X102975833Y-171979166D01*
X103018166Y-172021500D01*
X103102833Y-172063833D01*
X103441500Y-172063833D01*
X102637166Y-171598166D02*
X102086833Y-171598166D01*
X102383166Y-171936833D01*
X102256166Y-171936833D01*
X102171500Y-171979166D01*
X102129166Y-172021500D01*
X102086833Y-172106166D01*
X102086833Y-172317833D01*
X102129166Y-172402500D01*
X102171500Y-172444833D01*
X102256166Y-172487166D01*
X102510166Y-172487166D01*
X102594833Y-172444833D01*
X102637166Y-172402500D01*
X101790500Y-171598166D02*
X101240166Y-171598166D01*
X101536500Y-171936833D01*
X101409500Y-171936833D01*
X101324833Y-171979166D01*
X101282500Y-172021500D01*
X101240166Y-172106166D01*
X101240166Y-172317833D01*
X101282500Y-172402500D01*
X101324833Y-172444833D01*
X101409500Y-172487166D01*
X101663500Y-172487166D01*
X101748166Y-172444833D01*
X101790500Y-172402500D01*
D31*
X111199385Y-163978771D02*
X111402585Y-163688485D01*
X111547728Y-163978771D02*
X111547728Y-163369171D01*
X111315500Y-163369171D01*
X111257442Y-163398200D01*
X111228414Y-163427228D01*
X111199385Y-163485285D01*
X111199385Y-163572371D01*
X111228414Y-163630428D01*
X111257442Y-163659457D01*
X111315500Y-163688485D01*
X111547728Y-163688485D01*
X110996185Y-163369171D02*
X110618814Y-163369171D01*
X110822014Y-163601400D01*
X110734928Y-163601400D01*
X110676871Y-163630428D01*
X110647842Y-163659457D01*
X110618814Y-163717514D01*
X110618814Y-163862657D01*
X110647842Y-163920714D01*
X110676871Y-163949742D01*
X110734928Y-163978771D01*
X110909100Y-163978771D01*
X110967157Y-163949742D01*
X110996185Y-163920714D01*
X110096300Y-163572371D02*
X110096300Y-163978771D01*
X110241442Y-163340142D02*
X110386585Y-163775571D01*
X110009214Y-163775571D01*
X111801728Y-163967885D02*
X112092014Y-164171085D01*
X111801728Y-164316228D02*
X112411328Y-164316228D01*
X112411328Y-164084000D01*
X112382300Y-164025942D01*
X112353271Y-163996914D01*
X112295214Y-163967885D01*
X112208128Y-163967885D01*
X112150071Y-163996914D01*
X112121042Y-164025942D01*
X112092014Y-164084000D01*
X112092014Y-164316228D01*
X112411328Y-163764685D02*
X112411328Y-163387314D01*
X112179100Y-163590514D01*
X112179100Y-163503428D01*
X112150071Y-163445371D01*
X112121042Y-163416342D01*
X112062985Y-163387314D01*
X111917842Y-163387314D01*
X111859785Y-163416342D01*
X111830757Y-163445371D01*
X111801728Y-163503428D01*
X111801728Y-163677600D01*
X111830757Y-163735657D01*
X111859785Y-163764685D01*
X112150071Y-163038971D02*
X112179100Y-163097028D01*
X112208128Y-163126057D01*
X112266185Y-163155085D01*
X112295214Y-163155085D01*
X112353271Y-163126057D01*
X112382300Y-163097028D01*
X112411328Y-163038971D01*
X112411328Y-162922857D01*
X112382300Y-162864800D01*
X112353271Y-162835771D01*
X112295214Y-162806742D01*
X112266185Y-162806742D01*
X112208128Y-162835771D01*
X112179100Y-162864800D01*
X112150071Y-162922857D01*
X112150071Y-163038971D01*
X112121042Y-163097028D01*
X112092014Y-163126057D01*
X112033957Y-163155085D01*
X111917842Y-163155085D01*
X111859785Y-163126057D01*
X111830757Y-163097028D01*
X111801728Y-163038971D01*
X111801728Y-162922857D01*
X111830757Y-162864800D01*
X111859785Y-162835771D01*
X111917842Y-162806742D01*
X112033957Y-162806742D01*
X112092014Y-162835771D01*
X112121042Y-162864800D01*
X112150071Y-162922857D01*
D30*
X105579333Y-171598166D02*
X105579333Y-172317833D01*
X105537000Y-172402500D01*
X105494666Y-172444833D01*
X105410000Y-172487166D01*
X105240666Y-172487166D01*
X105156000Y-172444833D01*
X105113666Y-172402500D01*
X105071333Y-172317833D01*
X105071333Y-171598166D01*
X104224666Y-171598166D02*
X104648000Y-171598166D01*
X104690333Y-172021500D01*
X104648000Y-171979166D01*
X104563333Y-171936833D01*
X104351666Y-171936833D01*
X104267000Y-171979166D01*
X104224666Y-172021500D01*
X104182333Y-172106166D01*
X104182333Y-172317833D01*
X104224666Y-172402500D01*
X104267000Y-172444833D01*
X104351666Y-172487166D01*
X104563333Y-172487166D01*
X104648000Y-172444833D01*
X104690333Y-172402500D01*
D11*
X104738714Y-164531523D02*
X104859666Y-164471047D01*
X104920142Y-164410571D01*
X104980619Y-164289619D01*
X104980619Y-163926761D01*
X104920142Y-163805809D01*
X104859666Y-163745333D01*
X104738714Y-163684857D01*
X104557285Y-163684857D01*
X104436333Y-163745333D01*
X104375857Y-163805809D01*
X104315380Y-163926761D01*
X104315380Y-164289619D01*
X104375857Y-164410571D01*
X104436333Y-164471047D01*
X104557285Y-164531523D01*
X104738714Y-164531523D01*
X101872142Y-164356142D02*
X101823761Y-164404523D01*
X101775380Y-164549666D01*
X101775380Y-164646428D01*
X101823761Y-164791571D01*
X101920523Y-164888333D01*
X102017285Y-164936714D01*
X102210809Y-164985095D01*
X102355952Y-164985095D01*
X102549476Y-164936714D01*
X102646238Y-164888333D01*
X102743000Y-164791571D01*
X102791380Y-164646428D01*
X102791380Y-164549666D01*
X102743000Y-164404523D01*
X102694619Y-164356142D01*
X101775380Y-163388523D02*
X101775380Y-163969095D01*
X101775380Y-163678809D02*
X102791380Y-163678809D01*
X102646238Y-163775571D01*
X102549476Y-163872333D01*
X102501095Y-163969095D01*
X102694619Y-163001476D02*
X102743000Y-162953095D01*
X102791380Y-162856333D01*
X102791380Y-162614428D01*
X102743000Y-162517666D01*
X102694619Y-162469285D01*
X102597857Y-162420904D01*
X102501095Y-162420904D01*
X102355952Y-162469285D01*
X101775380Y-163049857D01*
X101775380Y-162420904D01*
D12*
X111741857Y-172556714D02*
X111995857Y-172193857D01*
X112177285Y-172556714D02*
X112177285Y-171794714D01*
X111887000Y-171794714D01*
X111814428Y-171831000D01*
X111778142Y-171867285D01*
X111741857Y-171939857D01*
X111741857Y-172048714D01*
X111778142Y-172121285D01*
X111814428Y-172157571D01*
X111887000Y-172193857D01*
X112177285Y-172193857D01*
X111088714Y-172048714D02*
X111088714Y-172556714D01*
X111270142Y-171758428D02*
X111451571Y-172302714D01*
X110979857Y-172302714D01*
X110290428Y-172556714D02*
X110725857Y-172556714D01*
X110508142Y-172556714D02*
X110508142Y-171794714D01*
X110580714Y-171903571D01*
X110653285Y-171976142D01*
X110725857Y-172012428D01*
X116313857Y-103613857D02*
X116277571Y-103650142D01*
X116241285Y-103759000D01*
X116241285Y-103831571D01*
X116277571Y-103940428D01*
X116350142Y-104013000D01*
X116422714Y-104049285D01*
X116567857Y-104085571D01*
X116676714Y-104085571D01*
X116821857Y-104049285D01*
X116894428Y-104013000D01*
X116967000Y-103940428D01*
X117003285Y-103831571D01*
X117003285Y-103759000D01*
X116967000Y-103650142D01*
X116930714Y-103613857D01*
X116930714Y-103323571D02*
X116967000Y-103287285D01*
X117003285Y-103214714D01*
X117003285Y-103033285D01*
X116967000Y-102960714D01*
X116930714Y-102924428D01*
X116858142Y-102888142D01*
X116785571Y-102888142D01*
X116676714Y-102924428D01*
X116241285Y-103359857D01*
X116241285Y-102888142D01*
X116241285Y-102525285D02*
X116241285Y-102380142D01*
X116277571Y-102307571D01*
X116313857Y-102271285D01*
X116422714Y-102198714D01*
X116567857Y-102162428D01*
X116858142Y-102162428D01*
X116930714Y-102198714D01*
X116967000Y-102235000D01*
X117003285Y-102307571D01*
X117003285Y-102452714D01*
X116967000Y-102525285D01*
X116930714Y-102561571D01*
X116858142Y-102597857D01*
X116676714Y-102597857D01*
X116604142Y-102561571D01*
X116567857Y-102525285D01*
X116531571Y-102452714D01*
X116531571Y-102307571D01*
X116567857Y-102235000D01*
X116604142Y-102198714D01*
X116676714Y-102162428D01*
X114118571Y-102452714D02*
X114118571Y-103069571D01*
X114082285Y-103142142D01*
X114046000Y-103178428D01*
X113973428Y-103214714D01*
X113828285Y-103214714D01*
X113755714Y-103178428D01*
X113719428Y-103142142D01*
X113683142Y-103069571D01*
X113683142Y-102452714D01*
X113211428Y-102779285D02*
X113284000Y-102743000D01*
X113320285Y-102706714D01*
X113356571Y-102634142D01*
X113356571Y-102597857D01*
X113320285Y-102525285D01*
X113284000Y-102489000D01*
X113211428Y-102452714D01*
X113066285Y-102452714D01*
X112993714Y-102489000D01*
X112957428Y-102525285D01*
X112921142Y-102597857D01*
X112921142Y-102634142D01*
X112957428Y-102706714D01*
X112993714Y-102743000D01*
X113066285Y-102779285D01*
X113211428Y-102779285D01*
X113284000Y-102815571D01*
X113320285Y-102851857D01*
X113356571Y-102924428D01*
X113356571Y-103069571D01*
X113320285Y-103142142D01*
X113284000Y-103178428D01*
X113211428Y-103214714D01*
X113066285Y-103214714D01*
X112993714Y-103178428D01*
X112957428Y-103142142D01*
X112921142Y-103069571D01*
X112921142Y-102924428D01*
X112957428Y-102851857D01*
X112993714Y-102815571D01*
X113066285Y-102779285D01*
X98207285Y-101835857D02*
X98570142Y-102089857D01*
X98207285Y-102271285D02*
X98969285Y-102271285D01*
X98969285Y-101981000D01*
X98933000Y-101908428D01*
X98896714Y-101872142D01*
X98824142Y-101835857D01*
X98715285Y-101835857D01*
X98642714Y-101872142D01*
X98606428Y-101908428D01*
X98570142Y-101981000D01*
X98570142Y-102271285D01*
X98715285Y-101182714D02*
X98207285Y-101182714D01*
X99005571Y-101364142D02*
X98461285Y-101545571D01*
X98461285Y-101073857D01*
X98896714Y-100819857D02*
X98933000Y-100783571D01*
X98969285Y-100711000D01*
X98969285Y-100529571D01*
X98933000Y-100457000D01*
X98896714Y-100420714D01*
X98824142Y-100384428D01*
X98751571Y-100384428D01*
X98642714Y-100420714D01*
X98207285Y-100856142D01*
X98207285Y-100384428D01*
D26*
X117762261Y-157706785D02*
X117459880Y-157495119D01*
X117762261Y-157343928D02*
X117127261Y-157343928D01*
X117127261Y-157585833D01*
X117157500Y-157646309D01*
X117187738Y-157676547D01*
X117248214Y-157706785D01*
X117338928Y-157706785D01*
X117399404Y-157676547D01*
X117429642Y-157646309D01*
X117459880Y-157585833D01*
X117459880Y-157343928D01*
X117338928Y-158251071D02*
X117762261Y-158251071D01*
X117097023Y-158099880D02*
X117550595Y-157948690D01*
X117550595Y-158341785D01*
X117127261Y-158523214D02*
X117127261Y-158916309D01*
X117369166Y-158704642D01*
X117369166Y-158795357D01*
X117399404Y-158855833D01*
X117429642Y-158886071D01*
X117490119Y-158916309D01*
X117641309Y-158916309D01*
X117701785Y-158886071D01*
X117732023Y-158855833D01*
X117762261Y-158795357D01*
X117762261Y-158613928D01*
X117732023Y-158553452D01*
X117701785Y-158523214D01*
D11*
X114762642Y-156669619D02*
X115101309Y-156185809D01*
X115343214Y-156669619D02*
X115343214Y-155653619D01*
X114956166Y-155653619D01*
X114859404Y-155702000D01*
X114811023Y-155750380D01*
X114762642Y-155847142D01*
X114762642Y-155992285D01*
X114811023Y-156089047D01*
X114859404Y-156137428D01*
X114956166Y-156185809D01*
X115343214Y-156185809D01*
X113891785Y-155992285D02*
X113891785Y-156669619D01*
X114133690Y-155605238D02*
X114375595Y-156330952D01*
X113746642Y-156330952D01*
X112924166Y-155992285D02*
X112924166Y-156669619D01*
X113166071Y-155605238D02*
X113407976Y-156330952D01*
X112779023Y-156330952D01*
M02*
