G04 #@! TF.GenerationSoftware,KiCad,Pcbnew,5.1.6-c6e7f7d~87~ubuntu18.04.1*
G04 #@! TF.CreationDate,2022-10-10T13:55:49+03:00*
G04 #@! TF.ProjectId,ESP32-PoE-ISO_Rev_L,45535033-322d-4506-9f45-2d49534f5f52,L*
G04 #@! TF.SameCoordinates,Original*
G04 #@! TF.FileFunction,Soldermask,Bot*
G04 #@! TF.FilePolarity,Negative*
%FSLAX46Y46*%
G04 Gerber Fmt 4.6, Leading zero omitted, Abs format (unit mm)*
G04 Created by KiCad (PCBNEW 5.1.6-c6e7f7d~87~ubuntu18.04.1) date 2022-10-10 13:55:49*
%MOMM*%
%LPD*%
G01*
G04 APERTURE LIST*
%ADD10R,0.701600X1.701600*%
%ADD11R,1.501600X1.101600*%
%ADD12C,0.801600*%
%ADD13R,1.117600X1.117600*%
%ADD14R,1.117600X2.133600*%
%ADD15C,1.625600*%
%ADD16R,1.625600X1.625600*%
%ADD17R,2.301600X3.501600*%
%ADD18R,0.651600X0.601600*%
%ADD19R,0.601600X0.651600*%
%ADD20R,1.371600X1.625600*%
%ADD21C,1.254000*%
%ADD22C,1.879600*%
%ADD23R,1.879600X1.879600*%
%ADD24R,1.625600X1.371600*%
%ADD25R,1.879600X1.117600*%
%ADD26R,0.601600X1.101600*%
%ADD27R,1.601600X1.301600*%
%ADD28R,0.482600X1.117600*%
%ADD29R,0.736600X1.117600*%
%ADD30R,1.101600X1.501600*%
%ADD31R,3.701600X3.701600*%
%ADD32R,0.501600X0.501600*%
%ADD33R,1.524000X1.524000*%
%ADD34R,0.351600X0.901600*%
%ADD35R,0.901600X0.351600*%
%ADD36O,2.133600X6.197600*%
%ADD37C,1.301600*%
%ADD38R,1.117600X0.482600*%
%ADD39R,1.117600X0.736600*%
%ADD40C,0.701600*%
%ADD41O,1.901600X1.301600*%
%ADD42R,2.387600X1.879600*%
%ADD43C,3.401601*%
%ADD44O,1.701600X3.101599*%
%ADD45R,3.601600X2.701600*%
%ADD46R,0.701600X1.501600*%
%ADD47C,1.901600*%
%ADD48R,1.301600X3.501601*%
%ADD49C,1.601600*%
%ADD50R,1.301600X0.651600*%
%ADD51C,2.301600*%
%ADD52R,1.501600X1.501600*%
%ADD53C,1.501600*%
%ADD54C,0.203200*%
G04 APERTURE END LIST*
D10*
X117094000Y-166530000D03*
X115824000Y-166530000D03*
X114554000Y-166530000D03*
X113284000Y-166530000D03*
X113284000Y-161130000D03*
X114554000Y-161130000D03*
X115824000Y-161130000D03*
X117094000Y-161130000D03*
D11*
X92329000Y-103256000D03*
X92329000Y-107056000D03*
D12*
X115059000Y-99822000D03*
X116859000Y-99822000D03*
X91421000Y-99822000D03*
X93221000Y-99822000D03*
D13*
X91694000Y-101600000D03*
X93472000Y-101600000D03*
D14*
X101092000Y-166497000D03*
X96520000Y-166497000D03*
X113157000Y-150749000D03*
X108585000Y-150749000D03*
D15*
X113411000Y-153543000D03*
D16*
X115951000Y-153543000D03*
D15*
X108331000Y-153543000D03*
X105791000Y-153543000D03*
X100711000Y-153543000D03*
X103251000Y-153543000D03*
D17*
X104423000Y-160020000D03*
X111223000Y-160020000D03*
D15*
X103866000Y-170434000D03*
D16*
X101366000Y-170434000D03*
D18*
X94996000Y-145415000D03*
X94996000Y-146431000D03*
G36*
G01*
X102935679Y-181571462D02*
X101498838Y-180134622D01*
G75*
G02*
X101498838Y-178625938I754342J754342D01*
G01*
X101498838Y-178625938D01*
G75*
G02*
X103007522Y-178625938I754342J-754342D01*
G01*
X104444362Y-180062778D01*
G75*
G02*
X104444362Y-181571462I-754342J-754342D01*
G01*
X104444362Y-181571462D01*
G75*
G02*
X102935678Y-181571462I-754342J754342D01*
G01*
G37*
D19*
X95123000Y-99187000D03*
X96139000Y-99187000D03*
X95123000Y-98171000D03*
X96139000Y-98171000D03*
X96139000Y-100203000D03*
X95123000Y-100203000D03*
D13*
X105410000Y-151765000D03*
X103632000Y-151765000D03*
D18*
X114300000Y-142748000D03*
X114300000Y-143764000D03*
D13*
X113030000Y-143891000D03*
X113030000Y-145669000D03*
D20*
X103251000Y-111760000D03*
X101219000Y-111760000D03*
D21*
X91567000Y-186563000D03*
X116459000Y-92000000D03*
X91821000Y-92000000D03*
D19*
X106172000Y-132334000D03*
X105156000Y-132334000D03*
X99568000Y-135890000D03*
X100584000Y-135890000D03*
X101473000Y-139192000D03*
X100457000Y-139192000D03*
X109347000Y-140970000D03*
X108331000Y-140970000D03*
X113665000Y-110363000D03*
X112649000Y-110363000D03*
D18*
X97409000Y-105791000D03*
X97409000Y-104775000D03*
D19*
X104394000Y-126619000D03*
X103378000Y-126619000D03*
X104394000Y-124841000D03*
X103378000Y-124841000D03*
X104394000Y-120777000D03*
X103378000Y-120777000D03*
X104394000Y-125730000D03*
X103378000Y-125730000D03*
X100457000Y-140081000D03*
X101473000Y-140081000D03*
D18*
X110617000Y-136525000D03*
X110617000Y-135509000D03*
X105410000Y-141478000D03*
X105410000Y-142494000D03*
X106680000Y-142494000D03*
X106680000Y-141478000D03*
X103124000Y-142494000D03*
X103124000Y-141478000D03*
X104394000Y-142494000D03*
X104394000Y-141478000D03*
X114300000Y-145923000D03*
X114300000Y-144907000D03*
D19*
X105029000Y-150495000D03*
X104013000Y-150495000D03*
D18*
X115316000Y-109347000D03*
X115316000Y-110363000D03*
D11*
X111343440Y-143830040D03*
X111343440Y-145732500D03*
X109133640Y-144777460D03*
D22*
X116840000Y-146080000D03*
X116840000Y-143540000D03*
X116840000Y-138460000D03*
X116840000Y-141000000D03*
X116840000Y-135920000D03*
X116840000Y-133380000D03*
D23*
X116840000Y-123220000D03*
D22*
X116840000Y-125760000D03*
X116840000Y-128300000D03*
X116840000Y-130840000D03*
X91440000Y-130840000D03*
X91440000Y-128300000D03*
X91440000Y-125760000D03*
D23*
X91440000Y-123220000D03*
D22*
X91440000Y-133380000D03*
X91440000Y-135920000D03*
X91440000Y-141000000D03*
X91440000Y-138460000D03*
X91440000Y-143540000D03*
X91440000Y-146080000D03*
D11*
X114335560Y-113598960D03*
X114335560Y-111696500D03*
X116545360Y-112651540D03*
D24*
X101219000Y-113665000D03*
X103251000Y-113665000D03*
D25*
X116840000Y-177038000D03*
X116840000Y-173482000D03*
D26*
X100290000Y-103380000D03*
X101390000Y-103380000D03*
X102490000Y-103380000D03*
X103590000Y-103380000D03*
X104340000Y-103380000D03*
X105040000Y-103380000D03*
X105790000Y-103380000D03*
X106890000Y-103380000D03*
X107990000Y-103380000D03*
D27*
X109440000Y-105130000D03*
X98840000Y-105130000D03*
X109440000Y-109580000D03*
X98840000Y-109580000D03*
D13*
X110109000Y-134493000D03*
X110109000Y-132715000D03*
X99187000Y-134620000D03*
X100965000Y-134620000D03*
X107442000Y-143891000D03*
X107442000Y-145669000D03*
X110617000Y-140843000D03*
X110617000Y-139065000D03*
D28*
X106045000Y-128651000D03*
X105283000Y-128651000D03*
X106045000Y-130175000D03*
X105283000Y-130175000D03*
D29*
X106934000Y-128651000D03*
X106934000Y-130175000D03*
X104394000Y-128651000D03*
X104394000Y-130175000D03*
D11*
X111506000Y-111633000D03*
X111506000Y-113535460D03*
X109296200Y-112580420D03*
D24*
X110109000Y-142367000D03*
X108077000Y-142367000D03*
D18*
X116713000Y-108204000D03*
X116713000Y-107188000D03*
D30*
X105405000Y-122555000D03*
X101605000Y-122555000D03*
D19*
X100965000Y-120777000D03*
X101981000Y-120777000D03*
D31*
X105410000Y-136906000D03*
D32*
X106710000Y-137406000D03*
X106710000Y-136406000D03*
X105910000Y-135606000D03*
X104910000Y-135606000D03*
X104110000Y-136406000D03*
X104110000Y-137406000D03*
X104910000Y-138206000D03*
X105910000Y-138206000D03*
D33*
X105410000Y-136906000D03*
D34*
X103660000Y-139356000D03*
X104160000Y-139356000D03*
X104660000Y-139356000D03*
X105160000Y-139356000D03*
X105660000Y-139356000D03*
X106160000Y-139356000D03*
X106660000Y-139356000D03*
X107160000Y-139356000D03*
D35*
X107860000Y-138656000D03*
X107860000Y-138156000D03*
X107860000Y-137656000D03*
X107860000Y-137156000D03*
X107860000Y-136656000D03*
X107860000Y-136156000D03*
X107860000Y-135656000D03*
X107860000Y-135156000D03*
D34*
X107160000Y-134456000D03*
X106660000Y-134456000D03*
X106160000Y-134456000D03*
X105660000Y-134456000D03*
X105160000Y-134456000D03*
X104660000Y-134456000D03*
X104160000Y-134456000D03*
X103660000Y-134456000D03*
D35*
X102960000Y-135156000D03*
X102960000Y-135656000D03*
X102960000Y-136156000D03*
X102960000Y-136656000D03*
X102960000Y-137156000D03*
X102960000Y-137656000D03*
X102960000Y-138156000D03*
X102960000Y-138656000D03*
D18*
X112903000Y-114046000D03*
X112903000Y-113030000D03*
X112903000Y-112268000D03*
X112903000Y-111252000D03*
D11*
X114892000Y-108204000D03*
X112692000Y-107254000D03*
X112692000Y-109154000D03*
D30*
X113027460Y-141437360D03*
X113982500Y-139227560D03*
X112080040Y-139227560D03*
D29*
X105029000Y-113157000D03*
X105029000Y-111633000D03*
X107569000Y-113157000D03*
X107569000Y-111633000D03*
D28*
X105918000Y-113157000D03*
X106680000Y-113157000D03*
X105918000Y-111633000D03*
X106680000Y-111633000D03*
D36*
X110871000Y-153733500D03*
D37*
X107950000Y-124333000D03*
X100330000Y-124333000D03*
D38*
X99314000Y-130937000D03*
X99314000Y-131699000D03*
X100838000Y-130937000D03*
X100838000Y-131699000D03*
D39*
X99314000Y-130048000D03*
X100838000Y-130048000D03*
X99314000Y-132588000D03*
X100838000Y-132588000D03*
D40*
X95626000Y-150654000D03*
X95626000Y-154654000D03*
D41*
X93476000Y-149054000D03*
X96946000Y-149054000D03*
X96946000Y-156254000D03*
X93476000Y-156254000D03*
D42*
X97155000Y-145560000D03*
X97155000Y-141206000D03*
D43*
X114915000Y-185443000D03*
X103485000Y-185443000D03*
D44*
X117000000Y-182393000D03*
X101400000Y-182393000D03*
D15*
X114915000Y-178793000D03*
X113645000Y-176253000D03*
X112375000Y-178793000D03*
X111105000Y-176253000D03*
X109835000Y-178793000D03*
X108565000Y-176253000D03*
X107295000Y-178793000D03*
X106025000Y-176253000D03*
X104755000Y-178793000D03*
X103485000Y-176253000D03*
D18*
X100457000Y-175514000D03*
X100457000Y-176530000D03*
X98044000Y-179197000D03*
X98044000Y-178181000D03*
D19*
X111760000Y-167005000D03*
X110744000Y-167005000D03*
D15*
X116185000Y-157861000D03*
D16*
X113685000Y-157861000D03*
D18*
X113030000Y-171831000D03*
X113030000Y-172847000D03*
X115316000Y-172847000D03*
X115316000Y-171831000D03*
X114427000Y-172847000D03*
X114427000Y-171831000D03*
D19*
X103124000Y-168402000D03*
X104140000Y-168402000D03*
X110744000Y-165100000D03*
X111760000Y-165100000D03*
X111760000Y-166116000D03*
X110744000Y-166116000D03*
D45*
X107442000Y-167646000D03*
D46*
X105537000Y-170446000D03*
X106807000Y-170446000D03*
X108077000Y-170446000D03*
X109347000Y-170446000D03*
X109347000Y-164846000D03*
X108077000Y-164846000D03*
X106807000Y-164846000D03*
X105537000Y-164846000D03*
D47*
X107442000Y-167646000D03*
D13*
X103632000Y-165227000D03*
X103632000Y-167005000D03*
D48*
X117196000Y-169545000D03*
X110896000Y-169545000D03*
D49*
X102640000Y-98981000D03*
D18*
X116713000Y-104521000D03*
X116713000Y-105537000D03*
D50*
X115351000Y-104079001D03*
X115351000Y-105979001D03*
X112751000Y-104079001D03*
X112751000Y-105029001D03*
X112751000Y-105979001D03*
D18*
X97409000Y-100838000D03*
X97409000Y-101854000D03*
D51*
X97790000Y-185420000D03*
X92710000Y-117475000D03*
X115570000Y-117475000D03*
D52*
X93070680Y-182740300D03*
D53*
X93073220Y-184769760D03*
D19*
X116967000Y-159512000D03*
X115951000Y-159512000D03*
X115951000Y-156210000D03*
X116967000Y-156210000D03*
D54*
G36*
X114706400Y-96037400D02*
G01*
X114147600Y-96037400D01*
X114147600Y-92176600D01*
X114706400Y-92176600D01*
X114706400Y-96037400D01*
G37*
X114706400Y-96037400D02*
X114147600Y-96037400D01*
X114147600Y-92176600D01*
X114706400Y-92176600D01*
X114706400Y-96037400D01*
M02*
