G04 #@! TF.GenerationSoftware,KiCad,Pcbnew,5.1.6-c6e7f7d~87~ubuntu18.04.1*
G04 #@! TF.CreationDate,2022-07-28T15:35:08+03:00*
G04 #@! TF.ProjectId,ESP32-PoE-ISO_Rev_K,45535033-322d-4506-9f45-2d49534f5f52,K*
G04 #@! TF.SameCoordinates,Original*
G04 #@! TF.FileFunction,Legend,Top*
G04 #@! TF.FilePolarity,Positive*
%FSLAX46Y46*%
G04 Gerber Fmt 4.6, Leading zero omitted, Abs format (unit mm)*
G04 Created by KiCad (PCBNEW 5.1.6-c6e7f7d~87~ubuntu18.04.1) date 2022-07-28 15:35:08*
%MOMM*%
%LPD*%
G01*
G04 APERTURE LIST*
%ADD10C,0.349250*%
%ADD11C,0.254000*%
%ADD12C,0.158750*%
%ADD13C,0.127000*%
%ADD14C,0.200000*%
%ADD15C,0.100000*%
%ADD16C,0.050000*%
%ADD17C,0.190500*%
%ADD18C,0.317500*%
%ADD19C,0.508000*%
G04 APERTURE END LIST*
D10*
X95724738Y-117375214D02*
X96190404Y-117375214D01*
X96389976Y-118106976D02*
X95724738Y-118106976D01*
X95724738Y-116709976D01*
X96389976Y-116709976D01*
X96922166Y-118040452D02*
X97121738Y-118106976D01*
X97454357Y-118106976D01*
X97587404Y-118040452D01*
X97653928Y-117973928D01*
X97720452Y-117840880D01*
X97720452Y-117707833D01*
X97653928Y-117574785D01*
X97587404Y-117508261D01*
X97454357Y-117441738D01*
X97188261Y-117375214D01*
X97055214Y-117308690D01*
X96988690Y-117242166D01*
X96922166Y-117109119D01*
X96922166Y-116976071D01*
X96988690Y-116843023D01*
X97055214Y-116776500D01*
X97188261Y-116709976D01*
X97520880Y-116709976D01*
X97720452Y-116776500D01*
X98319166Y-118106976D02*
X98319166Y-116709976D01*
X98851357Y-116709976D01*
X98984404Y-116776500D01*
X99050928Y-116843023D01*
X99117452Y-116976071D01*
X99117452Y-117175642D01*
X99050928Y-117308690D01*
X98984404Y-117375214D01*
X98851357Y-117441738D01*
X98319166Y-117441738D01*
X99583119Y-116709976D02*
X100447928Y-116709976D01*
X99982261Y-117242166D01*
X100181833Y-117242166D01*
X100314880Y-117308690D01*
X100381404Y-117375214D01*
X100447928Y-117508261D01*
X100447928Y-117840880D01*
X100381404Y-117973928D01*
X100314880Y-118040452D01*
X100181833Y-118106976D01*
X99782690Y-118106976D01*
X99649642Y-118040452D01*
X99583119Y-117973928D01*
X100980119Y-116843023D02*
X101046642Y-116776500D01*
X101179690Y-116709976D01*
X101512309Y-116709976D01*
X101645357Y-116776500D01*
X101711880Y-116843023D01*
X101778404Y-116976071D01*
X101778404Y-117109119D01*
X101711880Y-117308690D01*
X100913595Y-118106976D01*
X101778404Y-118106976D01*
X102377119Y-117574785D02*
X103441500Y-117574785D01*
X104106738Y-118106976D02*
X104106738Y-116709976D01*
X104638928Y-116709976D01*
X104771976Y-116776500D01*
X104838500Y-116843023D01*
X104905023Y-116976071D01*
X104905023Y-117175642D01*
X104838500Y-117308690D01*
X104771976Y-117375214D01*
X104638928Y-117441738D01*
X104106738Y-117441738D01*
X105703309Y-118106976D02*
X105570261Y-118040452D01*
X105503738Y-117973928D01*
X105437214Y-117840880D01*
X105437214Y-117441738D01*
X105503738Y-117308690D01*
X105570261Y-117242166D01*
X105703309Y-117175642D01*
X105902880Y-117175642D01*
X106035928Y-117242166D01*
X106102452Y-117308690D01*
X106168976Y-117441738D01*
X106168976Y-117840880D01*
X106102452Y-117973928D01*
X106035928Y-118040452D01*
X105902880Y-118106976D01*
X105703309Y-118106976D01*
X106767690Y-117375214D02*
X107233357Y-117375214D01*
X107432928Y-118106976D02*
X106767690Y-118106976D01*
X106767690Y-116709976D01*
X107432928Y-116709976D01*
X108031642Y-117574785D02*
X109096023Y-117574785D01*
X109761261Y-118106976D02*
X109761261Y-116709976D01*
X110359976Y-118040452D02*
X110559547Y-118106976D01*
X110892166Y-118106976D01*
X111025214Y-118040452D01*
X111091738Y-117973928D01*
X111158261Y-117840880D01*
X111158261Y-117707833D01*
X111091738Y-117574785D01*
X111025214Y-117508261D01*
X110892166Y-117441738D01*
X110626071Y-117375214D01*
X110493023Y-117308690D01*
X110426500Y-117242166D01*
X110359976Y-117109119D01*
X110359976Y-116976071D01*
X110426500Y-116843023D01*
X110493023Y-116776500D01*
X110626071Y-116709976D01*
X110958690Y-116709976D01*
X111158261Y-116776500D01*
X112023071Y-116709976D02*
X112289166Y-116709976D01*
X112422214Y-116776500D01*
X112555261Y-116909547D01*
X112621785Y-117175642D01*
X112621785Y-117641309D01*
X112555261Y-117907404D01*
X112422214Y-118040452D01*
X112289166Y-118106976D01*
X112023071Y-118106976D01*
X111890023Y-118040452D01*
X111756976Y-117907404D01*
X111690452Y-117641309D01*
X111690452Y-117175642D01*
X111756976Y-116909547D01*
X111890023Y-116776500D01*
X112023071Y-116709976D01*
D11*
X114493523Y-121109619D02*
X115122476Y-121109619D01*
X114783809Y-121496666D01*
X114928952Y-121496666D01*
X115025714Y-121545047D01*
X115074095Y-121593428D01*
X115122476Y-121690190D01*
X115122476Y-121932095D01*
X115074095Y-122028857D01*
X115025714Y-122077238D01*
X114928952Y-122125619D01*
X114638666Y-122125619D01*
X114541904Y-122077238D01*
X114493523Y-122028857D01*
X115606285Y-122125619D02*
X115799809Y-122125619D01*
X115896571Y-122077238D01*
X115944952Y-122028857D01*
X116041714Y-121883714D01*
X116090095Y-121690190D01*
X116090095Y-121303142D01*
X116041714Y-121206380D01*
X115993333Y-121158000D01*
X115896571Y-121109619D01*
X115703047Y-121109619D01*
X115606285Y-121158000D01*
X115557904Y-121206380D01*
X115509523Y-121303142D01*
X115509523Y-121545047D01*
X115557904Y-121641809D01*
X115606285Y-121690190D01*
X115703047Y-121738571D01*
X115896571Y-121738571D01*
X115993333Y-121690190D01*
X116041714Y-121641809D01*
X116090095Y-121545047D01*
X114493523Y-124284619D02*
X115122476Y-124284619D01*
X114783809Y-124671666D01*
X114928952Y-124671666D01*
X115025714Y-124720047D01*
X115074095Y-124768428D01*
X115122476Y-124865190D01*
X115122476Y-125107095D01*
X115074095Y-125203857D01*
X115025714Y-125252238D01*
X114928952Y-125300619D01*
X114638666Y-125300619D01*
X114541904Y-125252238D01*
X114493523Y-125203857D01*
X115993333Y-124284619D02*
X115799809Y-124284619D01*
X115703047Y-124333000D01*
X115654666Y-124381380D01*
X115557904Y-124526523D01*
X115509523Y-124720047D01*
X115509523Y-125107095D01*
X115557904Y-125203857D01*
X115606285Y-125252238D01*
X115703047Y-125300619D01*
X115896571Y-125300619D01*
X115993333Y-125252238D01*
X116041714Y-125203857D01*
X116090095Y-125107095D01*
X116090095Y-124865190D01*
X116041714Y-124768428D01*
X115993333Y-124720047D01*
X115896571Y-124671666D01*
X115703047Y-124671666D01*
X115606285Y-124720047D01*
X115557904Y-124768428D01*
X115509523Y-124865190D01*
X114493523Y-126570619D02*
X115122476Y-126570619D01*
X114783809Y-126957666D01*
X114928952Y-126957666D01*
X115025714Y-127006047D01*
X115074095Y-127054428D01*
X115122476Y-127151190D01*
X115122476Y-127393095D01*
X115074095Y-127489857D01*
X115025714Y-127538238D01*
X114928952Y-127586619D01*
X114638666Y-127586619D01*
X114541904Y-127538238D01*
X114493523Y-127489857D01*
X116041714Y-126570619D02*
X115557904Y-126570619D01*
X115509523Y-127054428D01*
X115557904Y-127006047D01*
X115654666Y-126957666D01*
X115896571Y-126957666D01*
X115993333Y-127006047D01*
X116041714Y-127054428D01*
X116090095Y-127151190D01*
X116090095Y-127393095D01*
X116041714Y-127489857D01*
X115993333Y-127538238D01*
X115896571Y-127586619D01*
X115654666Y-127586619D01*
X115557904Y-127538238D01*
X115509523Y-127489857D01*
X114493523Y-128983619D02*
X115122476Y-128983619D01*
X114783809Y-129370666D01*
X114928952Y-129370666D01*
X115025714Y-129419047D01*
X115074095Y-129467428D01*
X115122476Y-129564190D01*
X115122476Y-129806095D01*
X115074095Y-129902857D01*
X115025714Y-129951238D01*
X114928952Y-129999619D01*
X114638666Y-129999619D01*
X114541904Y-129951238D01*
X114493523Y-129902857D01*
X115993333Y-129322285D02*
X115993333Y-129999619D01*
X115751428Y-128935238D02*
X115509523Y-129660952D01*
X116138476Y-129660952D01*
X114493523Y-131650619D02*
X115122476Y-131650619D01*
X114783809Y-132037666D01*
X114928952Y-132037666D01*
X115025714Y-132086047D01*
X115074095Y-132134428D01*
X115122476Y-132231190D01*
X115122476Y-132473095D01*
X115074095Y-132569857D01*
X115025714Y-132618238D01*
X114928952Y-132666619D01*
X114638666Y-132666619D01*
X114541904Y-132618238D01*
X114493523Y-132569857D01*
X115461142Y-131650619D02*
X116090095Y-131650619D01*
X115751428Y-132037666D01*
X115896571Y-132037666D01*
X115993333Y-132086047D01*
X116041714Y-132134428D01*
X116090095Y-132231190D01*
X116090095Y-132473095D01*
X116041714Y-132569857D01*
X115993333Y-132618238D01*
X115896571Y-132666619D01*
X115606285Y-132666619D01*
X115509523Y-132618238D01*
X115461142Y-132569857D01*
X114493523Y-134063619D02*
X115122476Y-134063619D01*
X114783809Y-134450666D01*
X114928952Y-134450666D01*
X115025714Y-134499047D01*
X115074095Y-134547428D01*
X115122476Y-134644190D01*
X115122476Y-134886095D01*
X115074095Y-134982857D01*
X115025714Y-135031238D01*
X114928952Y-135079619D01*
X114638666Y-135079619D01*
X114541904Y-135031238D01*
X114493523Y-134982857D01*
X115509523Y-134160380D02*
X115557904Y-134112000D01*
X115654666Y-134063619D01*
X115896571Y-134063619D01*
X115993333Y-134112000D01*
X116041714Y-134160380D01*
X116090095Y-134257142D01*
X116090095Y-134353904D01*
X116041714Y-134499047D01*
X115461142Y-135079619D01*
X116090095Y-135079619D01*
X115122476Y-137746619D02*
X114541904Y-137746619D01*
X114832190Y-137746619D02*
X114832190Y-136730619D01*
X114735428Y-136875761D01*
X114638666Y-136972523D01*
X114541904Y-137020904D01*
X115993333Y-136730619D02*
X115799809Y-136730619D01*
X115703047Y-136779000D01*
X115654666Y-136827380D01*
X115557904Y-136972523D01*
X115509523Y-137166047D01*
X115509523Y-137553095D01*
X115557904Y-137649857D01*
X115606285Y-137698238D01*
X115703047Y-137746619D01*
X115896571Y-137746619D01*
X115993333Y-137698238D01*
X116041714Y-137649857D01*
X116090095Y-137553095D01*
X116090095Y-137311190D01*
X116041714Y-137214428D01*
X115993333Y-137166047D01*
X115896571Y-137117666D01*
X115703047Y-137117666D01*
X115606285Y-137166047D01*
X115557904Y-137214428D01*
X115509523Y-137311190D01*
X115122476Y-140286619D02*
X114541904Y-140286619D01*
X114832190Y-140286619D02*
X114832190Y-139270619D01*
X114735428Y-139415761D01*
X114638666Y-139512523D01*
X114541904Y-139560904D01*
X116041714Y-139270619D02*
X115557904Y-139270619D01*
X115509523Y-139754428D01*
X115557904Y-139706047D01*
X115654666Y-139657666D01*
X115896571Y-139657666D01*
X115993333Y-139706047D01*
X116041714Y-139754428D01*
X116090095Y-139851190D01*
X116090095Y-140093095D01*
X116041714Y-140189857D01*
X115993333Y-140238238D01*
X115896571Y-140286619D01*
X115654666Y-140286619D01*
X115557904Y-140238238D01*
X115509523Y-140189857D01*
X114868476Y-142953619D02*
X114287904Y-142953619D01*
X114578190Y-142953619D02*
X114578190Y-141937619D01*
X114481428Y-142082761D01*
X114384666Y-142179523D01*
X114287904Y-142227904D01*
X115739333Y-142276285D02*
X115739333Y-142953619D01*
X115497428Y-141889238D02*
X115255523Y-142614952D01*
X115884476Y-142614952D01*
X114741476Y-147144619D02*
X114160904Y-147144619D01*
X114451190Y-147144619D02*
X114451190Y-146128619D01*
X114354428Y-146273761D01*
X114257666Y-146370523D01*
X114160904Y-146418904D01*
X115080142Y-146128619D02*
X115709095Y-146128619D01*
X115370428Y-146515666D01*
X115515571Y-146515666D01*
X115612333Y-146564047D01*
X115660714Y-146612428D01*
X115709095Y-146709190D01*
X115709095Y-146951095D01*
X115660714Y-147047857D01*
X115612333Y-147096238D01*
X115515571Y-147144619D01*
X115225285Y-147144619D01*
X115128523Y-147096238D01*
X115080142Y-147047857D01*
X93266380Y-145354523D02*
X92661619Y-145354523D01*
X92601142Y-145959285D01*
X92661619Y-145898809D01*
X92782571Y-145838333D01*
X93084952Y-145838333D01*
X93205904Y-145898809D01*
X93266380Y-145959285D01*
X93326857Y-146080238D01*
X93326857Y-146382619D01*
X93266380Y-146503571D01*
X93205904Y-146564047D01*
X93084952Y-146624523D01*
X92782571Y-146624523D01*
X92661619Y-146564047D01*
X92601142Y-146503571D01*
X93205904Y-143364857D02*
X93205904Y-144211523D01*
X92903523Y-142881047D02*
X92601142Y-143788190D01*
X93387333Y-143788190D01*
X92540666Y-140401523D02*
X93326857Y-140401523D01*
X92903523Y-140885333D01*
X93084952Y-140885333D01*
X93205904Y-140945809D01*
X93266380Y-141006285D01*
X93326857Y-141127238D01*
X93326857Y-141429619D01*
X93266380Y-141550571D01*
X93205904Y-141611047D01*
X93084952Y-141671523D01*
X92722095Y-141671523D01*
X92601142Y-141611047D01*
X92540666Y-141550571D01*
X92601142Y-137855476D02*
X92661619Y-137795000D01*
X92782571Y-137734523D01*
X93084952Y-137734523D01*
X93205904Y-137795000D01*
X93266380Y-137855476D01*
X93326857Y-137976428D01*
X93326857Y-138097380D01*
X93266380Y-138278809D01*
X92540666Y-139004523D01*
X93326857Y-139004523D01*
X93326857Y-136464523D02*
X92601142Y-136464523D01*
X92964000Y-136464523D02*
X92964000Y-135194523D01*
X92843047Y-135375952D01*
X92722095Y-135496904D01*
X92601142Y-135557380D01*
X110931476Y-130253619D02*
X111125000Y-130253619D01*
X111221761Y-130205238D01*
X111270142Y-130156857D01*
X111366904Y-130011714D01*
X111415285Y-129818190D01*
X111415285Y-129431142D01*
X111366904Y-129334380D01*
X111318523Y-129286000D01*
X111221761Y-129237619D01*
X111028238Y-129237619D01*
X110931476Y-129286000D01*
X110883095Y-129334380D01*
X110834714Y-129431142D01*
X110834714Y-129673047D01*
X110883095Y-129769809D01*
X110931476Y-129818190D01*
X111028238Y-129866571D01*
X111221761Y-129866571D01*
X111318523Y-129818190D01*
X111366904Y-129769809D01*
X111415285Y-129673047D01*
X100330000Y-139700000D02*
X99822000Y-139954000D01*
X100330000Y-139700000D02*
X99822000Y-139446000D01*
X97536000Y-139700000D02*
X97282000Y-139446000D01*
X97663000Y-139700000D02*
X97536000Y-139700000D01*
X100330000Y-139700000D02*
X97663000Y-139700000D01*
X93024476Y-133918476D02*
X92903523Y-133918476D01*
X92782571Y-133858000D01*
X92722095Y-133797523D01*
X92661619Y-133676571D01*
X92601142Y-133434666D01*
X92601142Y-133132285D01*
X92661619Y-132890380D01*
X92722095Y-132769428D01*
X92782571Y-132708952D01*
X92903523Y-132648476D01*
X93024476Y-132648476D01*
X93145428Y-132708952D01*
X93205904Y-132769428D01*
X93266380Y-132890380D01*
X93326857Y-133132285D01*
X93326857Y-133434666D01*
X93266380Y-133676571D01*
X93205904Y-133797523D01*
X93145428Y-133858000D01*
X93024476Y-133918476D01*
D12*
X92483214Y-130120571D02*
X92737214Y-130120571D01*
X92846071Y-130519714D02*
X92483214Y-130519714D01*
X92483214Y-129757714D01*
X92846071Y-129757714D01*
X93136357Y-130483428D02*
X93245214Y-130519714D01*
X93426642Y-130519714D01*
X93499214Y-130483428D01*
X93535500Y-130447142D01*
X93571785Y-130374571D01*
X93571785Y-130302000D01*
X93535500Y-130229428D01*
X93499214Y-130193142D01*
X93426642Y-130156857D01*
X93281500Y-130120571D01*
X93208928Y-130084285D01*
X93172642Y-130048000D01*
X93136357Y-129975428D01*
X93136357Y-129902857D01*
X93172642Y-129830285D01*
X93208928Y-129794000D01*
X93281500Y-129757714D01*
X93462928Y-129757714D01*
X93571785Y-129794000D01*
X93898357Y-130519714D02*
X93898357Y-129757714D01*
X94188642Y-129757714D01*
X94261214Y-129794000D01*
X94297500Y-129830285D01*
X94333785Y-129902857D01*
X94333785Y-130011714D01*
X94297500Y-130084285D01*
X94261214Y-130120571D01*
X94188642Y-130156857D01*
X93898357Y-130156857D01*
X94478928Y-130592285D02*
X95059500Y-130592285D01*
X95240928Y-130120571D02*
X95494928Y-130120571D01*
X95603785Y-130519714D02*
X95240928Y-130519714D01*
X95240928Y-129757714D01*
X95603785Y-129757714D01*
X95930357Y-130519714D02*
X95930357Y-129757714D01*
X96365785Y-130519714D01*
X96365785Y-129757714D01*
X92574132Y-128530241D02*
X92517707Y-128567496D01*
X92472349Y-128646057D01*
X92453179Y-128739737D01*
X92475315Y-128822349D01*
X92512570Y-128878774D01*
X92602199Y-128965437D01*
X92680760Y-129010794D01*
X92800627Y-129045083D01*
X92868119Y-129049134D01*
X92950732Y-129026998D01*
X93022276Y-128963557D01*
X93052514Y-128911183D01*
X93071684Y-128817503D01*
X93060616Y-128776197D01*
X92877307Y-128670363D01*
X92816831Y-128775111D01*
X93249061Y-128570752D02*
X92699135Y-128253252D01*
X93430490Y-128256509D01*
X92880564Y-127939009D01*
X93581680Y-127994639D02*
X93031754Y-127677139D01*
X93107349Y-127546204D01*
X93178894Y-127482762D01*
X93261506Y-127460627D01*
X93328999Y-127464678D01*
X93448865Y-127498967D01*
X93527426Y-127544324D01*
X93617055Y-127630987D01*
X93654310Y-127687412D01*
X93676446Y-127770024D01*
X93657276Y-127863704D01*
X93581680Y-127994639D01*
X92443875Y-127102596D02*
X92685780Y-126683604D01*
X92774323Y-127014052D02*
X92355332Y-126772147D01*
X92466302Y-126277561D02*
X92662849Y-125937130D01*
X92766512Y-126241392D01*
X92811869Y-126162831D01*
X92868294Y-126125576D01*
X92909600Y-126114508D01*
X92977093Y-126118559D01*
X93108028Y-126194154D01*
X93145283Y-126250579D01*
X93156351Y-126291885D01*
X93152299Y-126359378D01*
X93061585Y-126516500D01*
X93005160Y-126553755D01*
X92963854Y-126564823D01*
X92753564Y-125780009D02*
X93409323Y-125914200D01*
X92965230Y-125413391D01*
X93040826Y-125282456D02*
X93237373Y-124942026D01*
X93341036Y-125246287D01*
X93386393Y-125167726D01*
X93442818Y-125130471D01*
X93484124Y-125119403D01*
X93551617Y-125123455D01*
X93682552Y-125199050D01*
X93719806Y-125255475D01*
X93730874Y-125296781D01*
X93726823Y-125364274D01*
X93636109Y-125521396D01*
X93579684Y-125558650D01*
X93538378Y-125569718D01*
X92722066Y-124427726D02*
X92963970Y-124008735D01*
X93052514Y-124339183D02*
X92633522Y-124097278D01*
X92925921Y-123288448D02*
X92774730Y-123550317D01*
X93021481Y-123727695D01*
X93010413Y-123686389D01*
X93014464Y-123618896D01*
X93090059Y-123487961D01*
X93146484Y-123450706D01*
X93187790Y-123439638D01*
X93255283Y-123443689D01*
X93386218Y-123519285D01*
X93423473Y-123575710D01*
X93434541Y-123617016D01*
X93430490Y-123684509D01*
X93354895Y-123815443D01*
X93298470Y-123852698D01*
X93257164Y-123863766D01*
X93031754Y-123105139D02*
X93687514Y-123239330D01*
X93243421Y-122738522D01*
D11*
X97572285Y-130253619D02*
X96991714Y-130253619D01*
X97282000Y-130253619D02*
X97282000Y-129237619D01*
X97185238Y-129382761D01*
X97088476Y-129479523D01*
X96991714Y-129527904D01*
X95116952Y-181301571D02*
X95891047Y-181301571D01*
X95504000Y-181688619D02*
X95504000Y-180914523D01*
X95449571Y-186696047D02*
X95449571Y-185921952D01*
X117638285Y-121871619D02*
X117057714Y-121871619D01*
X117348000Y-121871619D02*
X117348000Y-120855619D01*
X117251238Y-121000761D01*
X117154476Y-121097523D01*
X117057714Y-121145904D01*
X91476285Y-121871619D02*
X90895714Y-121871619D01*
X91186000Y-121871619D02*
X91186000Y-120855619D01*
X91089238Y-121000761D01*
X90992476Y-121097523D01*
X90895714Y-121145904D01*
D13*
X116798738Y-99822000D02*
G75*
G03*
X116798738Y-99822000I-839738J0D01*
G01*
X116898000Y-101822000D02*
X117456800Y-101822000D01*
X114461200Y-101822000D02*
X115070800Y-101822000D01*
X116898000Y-97822000D02*
X117456800Y-97822000D01*
X114462000Y-97822000D02*
X115020800Y-97822000D01*
X117459000Y-101822000D02*
X117459000Y-97822000D01*
X114459000Y-101822000D02*
X114459000Y-97822000D01*
X93160738Y-99822000D02*
G75*
G03*
X93160738Y-99822000I-839738J0D01*
G01*
X93260000Y-101822000D02*
X93818800Y-101822000D01*
X90823200Y-101822000D02*
X91432800Y-101822000D01*
X93260000Y-97822000D02*
X93818800Y-97822000D01*
X90824000Y-97822000D02*
X91382800Y-97822000D01*
X93821000Y-101822000D02*
X93821000Y-97822000D01*
X90821000Y-101822000D02*
X90821000Y-97822000D01*
D14*
X96127000Y-133500000D02*
X96477000Y-133500000D01*
X94627000Y-133500000D02*
X94277000Y-133500000D01*
D11*
X93877000Y-133550000D02*
X93877000Y-133150000D01*
X96877000Y-133550000D02*
X96877000Y-133150000D01*
D14*
X95627000Y-133450000D02*
G75*
G02*
X96127000Y-133450000I250000J0D01*
G01*
X94627000Y-133450000D02*
G75*
G02*
X95127000Y-133450000I250000J0D01*
G01*
X95127000Y-133450000D02*
G75*
G02*
X95627000Y-133450000I250000J0D01*
G01*
D11*
X98581000Y-147543000D02*
X98581000Y-148543000D01*
X118081000Y-147543000D02*
X98581000Y-147543000D01*
X118081000Y-148543000D02*
X118081000Y-147543000D01*
X118081000Y-148543000D02*
X118081000Y-154543000D01*
X118081000Y-148543000D02*
X98581000Y-148543000D01*
X118081000Y-154543000D02*
X98581000Y-154543000D01*
X98581000Y-154543000D02*
X98581000Y-148543000D01*
X112692000Y-145923000D02*
X112184000Y-145923000D01*
X112692000Y-143383000D02*
X112184000Y-143383000D01*
X105703021Y-170434000D02*
G75*
G03*
X105703021Y-170434000I-3087021J0D01*
G01*
X106159300Y-145961100D02*
X104140000Y-145961100D01*
X104140000Y-145961100D02*
X104140000Y-144589500D01*
X106159300Y-145961100D02*
X106159300Y-144589500D01*
X106146600Y-140309600D02*
X104152700Y-140309600D01*
X104140000Y-140335000D02*
X104140000Y-141630400D01*
X106146600Y-140322300D02*
X106146600Y-141617700D01*
X105168700Y-144373600D02*
X105168700Y-141897100D01*
X104216200Y-143789400D02*
X105130600Y-142417800D01*
X105130600Y-142417800D02*
X106121200Y-143789400D01*
X104216200Y-142417800D02*
X106121200Y-142417800D01*
X104216200Y-143789400D02*
X106121200Y-143789400D01*
X104127300Y-145961100D02*
X102108000Y-145961100D01*
X102108000Y-145961100D02*
X102108000Y-144589500D01*
X104127300Y-145961100D02*
X104127300Y-144589500D01*
X104114600Y-140309600D02*
X102120700Y-140309600D01*
X102108000Y-140335000D02*
X102108000Y-141630400D01*
X104114600Y-140322300D02*
X104114600Y-141617700D01*
X103136700Y-144373600D02*
X103136700Y-141897100D01*
X102184200Y-143789400D02*
X103098600Y-142417800D01*
X103098600Y-142417800D02*
X104089200Y-143789400D01*
X102184200Y-142417800D02*
X104089200Y-142417800D01*
X102184200Y-143789400D02*
X104089200Y-143789400D01*
X93687900Y-141973300D02*
X93687900Y-139954000D01*
X93687900Y-139954000D02*
X95059500Y-139954000D01*
X93687900Y-141973300D02*
X95059500Y-141973300D01*
X99339400Y-141960600D02*
X99339400Y-139966700D01*
X99314000Y-139954000D02*
X98018600Y-139954000D01*
X99326700Y-141960600D02*
X98031300Y-141960600D01*
X95275400Y-140982700D02*
X97751900Y-140982700D01*
X95859600Y-140030200D02*
X97231200Y-140944600D01*
X97231200Y-140944600D02*
X95859600Y-141935200D01*
X97231200Y-140030200D02*
X97231200Y-141935200D01*
X95859600Y-140030200D02*
X95859600Y-141935200D01*
X99352100Y-141998700D02*
X99352100Y-144018000D01*
X99352100Y-144018000D02*
X97980500Y-144018000D01*
X99352100Y-141998700D02*
X97980500Y-141998700D01*
X93700600Y-142011400D02*
X93700600Y-144005300D01*
X93726000Y-144018000D02*
X95021400Y-144018000D01*
X93713300Y-142011400D02*
X95008700Y-142011400D01*
X97764600Y-142989300D02*
X95288100Y-142989300D01*
X97180400Y-143941800D02*
X95808800Y-143027400D01*
X95808800Y-143027400D02*
X97180400Y-142036800D01*
X95808800Y-143941800D02*
X95808800Y-142036800D01*
X97180400Y-143941800D02*
X97180400Y-142036800D01*
X92519500Y-94742000D02*
X92519500Y-94488000D01*
X92519500Y-94742000D02*
X92519500Y-94996000D01*
X91630500Y-94742000D02*
X91630500Y-94996000D01*
X91630500Y-94742000D02*
X91630500Y-94488000D01*
X90741500Y-94742000D02*
X90741500Y-94996000D01*
X90741500Y-94742000D02*
X90741500Y-94488000D01*
X91630500Y-94742000D02*
X91630500Y-94488000D01*
X91630500Y-94742000D02*
X91630500Y-94996000D01*
X92646500Y-173863000D02*
X92646500Y-174117000D01*
X92646500Y-173863000D02*
X92646500Y-173609000D01*
X93535500Y-173863000D02*
X93535500Y-173609000D01*
X93535500Y-173863000D02*
X93535500Y-174117000D01*
X92443300Y-178003200D02*
X92443300Y-179133500D01*
X95250000Y-178003200D02*
X95250000Y-179133500D01*
D13*
X93599000Y-158826200D02*
X93599000Y-159664400D01*
X95377000Y-158826200D02*
X95377000Y-159664400D01*
X90982800Y-166751000D02*
X90982800Y-165735000D01*
X92202000Y-165735000D02*
X92202000Y-166751000D01*
D15*
X91567000Y-165094000D02*
X91567000Y-165614000D01*
X91677000Y-165264000D02*
X91457000Y-165264000D01*
X91677000Y-165264000D02*
X91577000Y-165374000D01*
X91457000Y-165264000D02*
X91557000Y-165364000D01*
X91677000Y-165454000D02*
X91457000Y-165454000D01*
D16*
X91321400Y-165531800D02*
X91211400Y-165401800D01*
X91212400Y-165400200D02*
X91222400Y-165480200D01*
X91212400Y-165400200D02*
X91292400Y-165400200D01*
X91212400Y-165184800D02*
X91292400Y-165184800D01*
X91212400Y-165184800D02*
X91222400Y-165264800D01*
X91342400Y-165324800D02*
X91232400Y-165194800D01*
D11*
X92138500Y-166763700D02*
X92011500Y-166916100D01*
X91046300Y-166763700D02*
X91173300Y-166903400D01*
X92011500Y-166916100D02*
X91186000Y-166916100D01*
X91084400Y-166751000D02*
X92125800Y-166751000D01*
X91084400Y-161036000D02*
X92125800Y-161036000D01*
X92011500Y-161201100D02*
X91186000Y-161201100D01*
X91046300Y-161048700D02*
X91173300Y-161188400D01*
X92138500Y-161048700D02*
X92011500Y-161201100D01*
D16*
X91342400Y-159609800D02*
X91232400Y-159479800D01*
X91212400Y-159469800D02*
X91222400Y-159549800D01*
X91212400Y-159469800D02*
X91292400Y-159469800D01*
X91212400Y-159685200D02*
X91292400Y-159685200D01*
X91212400Y-159685200D02*
X91222400Y-159765200D01*
X91321400Y-159816800D02*
X91211400Y-159686800D01*
D15*
X91677000Y-159739000D02*
X91457000Y-159739000D01*
X91457000Y-159549000D02*
X91557000Y-159649000D01*
X91677000Y-159549000D02*
X91577000Y-159659000D01*
X91677000Y-159549000D02*
X91457000Y-159549000D01*
X91567000Y-159379000D02*
X91567000Y-159899000D01*
D13*
X92202000Y-160020000D02*
X92202000Y-161036000D01*
X90982800Y-161036000D02*
X90982800Y-160020000D01*
D11*
X96710500Y-173863000D02*
X96710500Y-174117000D01*
X96710500Y-173863000D02*
X96710500Y-173609000D01*
X97599500Y-173863000D02*
X97599500Y-173609000D01*
X97599500Y-173863000D02*
X97599500Y-174117000D01*
X101282500Y-136906000D02*
X101282500Y-136652000D01*
X101282500Y-136906000D02*
X101282500Y-137160000D01*
X100393500Y-136906000D02*
X100393500Y-137160000D01*
X100393500Y-136906000D02*
X100393500Y-136652000D01*
X100393500Y-134620000D02*
X100393500Y-134874000D01*
X100393500Y-134620000D02*
X100393500Y-134366000D01*
X101282500Y-134620000D02*
X101282500Y-134366000D01*
X101282500Y-134620000D02*
X101282500Y-134874000D01*
X92011500Y-173863000D02*
X92011500Y-173609000D01*
X92011500Y-173863000D02*
X92011500Y-174117000D01*
X91122500Y-173863000D02*
X91122500Y-174117000D01*
X91122500Y-173863000D02*
X91122500Y-173609000D01*
X92011500Y-162433000D02*
X92011500Y-162179000D01*
X92011500Y-162433000D02*
X92011500Y-162687000D01*
X91122500Y-162433000D02*
X91122500Y-162687000D01*
X91122500Y-162433000D02*
X91122500Y-162179000D01*
X92011500Y-168148000D02*
X92011500Y-167894000D01*
X92011500Y-168148000D02*
X92011500Y-168402000D01*
X91122500Y-168148000D02*
X91122500Y-168402000D01*
X91122500Y-168148000D02*
X91122500Y-167894000D01*
X92011500Y-179578000D02*
X92011500Y-179324000D01*
X92011500Y-179578000D02*
X92011500Y-179832000D01*
X91122500Y-179578000D02*
X91122500Y-179832000D01*
X91122500Y-179578000D02*
X91122500Y-179324000D01*
X104775000Y-147129500D02*
X105029000Y-147129500D01*
X104775000Y-147129500D02*
X104521000Y-147129500D01*
X104775000Y-146240500D02*
X104521000Y-146240500D01*
X104775000Y-146240500D02*
X105029000Y-146240500D01*
X110363000Y-142049500D02*
X110109000Y-142049500D01*
X110363000Y-142049500D02*
X110617000Y-142049500D01*
X110363000Y-142938500D02*
X110617000Y-142938500D01*
X110363000Y-142938500D02*
X110109000Y-142938500D01*
X98298000Y-139446000D02*
X99314000Y-139446000D01*
X98298000Y-137922000D02*
X99314000Y-137922000D01*
X95631000Y-174879000D02*
X95631000Y-173863000D01*
X94107000Y-174879000D02*
X94107000Y-173863000D01*
X100215700Y-136321800D02*
X100215700Y-135191500D01*
X97409000Y-136321800D02*
X97409000Y-135191500D01*
X106680000Y-140144500D02*
X106680000Y-134683500D01*
X114300000Y-134683500D02*
X114300000Y-140144500D01*
X106680000Y-140144500D02*
X114300000Y-140144500D01*
X114300000Y-134683500D02*
X106680000Y-134683500D01*
X107061000Y-134683500D02*
X107061000Y-140144500D01*
X91084400Y-172466000D02*
X92125800Y-172466000D01*
X92011500Y-172631100D02*
X91186000Y-172631100D01*
X91046300Y-172478700D02*
X91173300Y-172618400D01*
X92138500Y-172478700D02*
X92011500Y-172631100D01*
D16*
X91342400Y-171039800D02*
X91232400Y-170909800D01*
X91212400Y-170899800D02*
X91222400Y-170979800D01*
X91212400Y-170899800D02*
X91292400Y-170899800D01*
X91212400Y-171115200D02*
X91292400Y-171115200D01*
X91212400Y-171115200D02*
X91222400Y-171195200D01*
X91321400Y-171246800D02*
X91211400Y-171116800D01*
D15*
X91677000Y-171169000D02*
X91457000Y-171169000D01*
X91457000Y-170979000D02*
X91557000Y-171079000D01*
X91677000Y-170979000D02*
X91577000Y-171089000D01*
X91677000Y-170979000D02*
X91457000Y-170979000D01*
X91567000Y-170809000D02*
X91567000Y-171329000D01*
D13*
X92202000Y-171450000D02*
X92202000Y-172466000D01*
X90982800Y-172466000D02*
X90982800Y-171450000D01*
D11*
X98298000Y-131572000D02*
X98298000Y-132588000D01*
X99822000Y-131572000D02*
X99822000Y-132588000D01*
X91084400Y-178181000D02*
X92125800Y-178181000D01*
X92011500Y-178346100D02*
X91186000Y-178346100D01*
X91046300Y-178193700D02*
X91173300Y-178333400D01*
X92138500Y-178193700D02*
X92011500Y-178346100D01*
D16*
X91342400Y-176754800D02*
X91232400Y-176624800D01*
X91212400Y-176614800D02*
X91222400Y-176694800D01*
X91212400Y-176614800D02*
X91292400Y-176614800D01*
X91212400Y-176830200D02*
X91292400Y-176830200D01*
X91212400Y-176830200D02*
X91222400Y-176910200D01*
X91321400Y-176961800D02*
X91211400Y-176831800D01*
D15*
X91677000Y-176884000D02*
X91457000Y-176884000D01*
X91457000Y-176694000D02*
X91557000Y-176794000D01*
X91677000Y-176694000D02*
X91577000Y-176804000D01*
X91677000Y-176694000D02*
X91457000Y-176694000D01*
X91567000Y-176524000D02*
X91567000Y-177044000D01*
D13*
X92202000Y-177165000D02*
X92202000Y-178181000D01*
X90982800Y-178181000D02*
X90982800Y-177165000D01*
D11*
X108585000Y-131318000D02*
X107569000Y-131318000D01*
X108585000Y-132842000D02*
X107569000Y-132842000D01*
X94792800Y-137033000D02*
X94081600Y-137033000D01*
X94081600Y-137871200D02*
X94081600Y-137033000D01*
X96926400Y-137871200D02*
X96926400Y-137033000D01*
X96926400Y-137033000D02*
X96215200Y-137033000D01*
X97231200Y-146812000D02*
X97942400Y-146812000D01*
X97942400Y-145973800D02*
X97942400Y-146812000D01*
X95097600Y-145973800D02*
X95097600Y-146812000D01*
X95097600Y-146812000D02*
X95808800Y-146812000D01*
X115506500Y-94742000D02*
X115506500Y-94996000D01*
X115506500Y-94742000D02*
X115506500Y-94488000D01*
X116395500Y-94742000D02*
X116395500Y-94488000D01*
X116395500Y-94742000D02*
X116395500Y-94996000D01*
X115379500Y-144526000D02*
X115379500Y-144272000D01*
X115379500Y-144526000D02*
X115379500Y-144780000D01*
X114490500Y-144526000D02*
X114490500Y-144780000D01*
X114490500Y-144526000D02*
X114490500Y-144272000D01*
X109537500Y-144526000D02*
X109537500Y-144780000D01*
X109537500Y-144526000D02*
X109537500Y-144272000D01*
X110426500Y-144526000D02*
X110426500Y-144272000D01*
X110426500Y-144526000D02*
X110426500Y-144780000D01*
X93916500Y-94742000D02*
X93916500Y-94488000D01*
X93916500Y-94742000D02*
X93916500Y-94996000D01*
X93027500Y-94742000D02*
X93027500Y-94996000D01*
X93027500Y-94742000D02*
X93027500Y-94488000D01*
X104569000Y-158395000D02*
X110569000Y-158395000D01*
X110569000Y-158395000D02*
X114069000Y-161095000D01*
X114069000Y-161095000D02*
X114069000Y-161595000D01*
X114069000Y-161595000D02*
X110969000Y-161595000D01*
X110969000Y-161595000D02*
X110969000Y-164795000D01*
X110969000Y-164795000D02*
X114069000Y-164795000D01*
X114069000Y-164795000D02*
X114069000Y-165295000D01*
X114069000Y-165295000D02*
X110569000Y-167995000D01*
X110569000Y-167995000D02*
X104569000Y-167995000D01*
X104569000Y-167995000D02*
X101069000Y-165295000D01*
X101069000Y-165295000D02*
X101069000Y-164795000D01*
X101069000Y-164795000D02*
X104169000Y-164795000D01*
X104169000Y-164795000D02*
X104169000Y-161595000D01*
X104169000Y-161595000D02*
X101069000Y-161595000D01*
X101069000Y-161595000D02*
X101069000Y-161095000D01*
X101069000Y-161095000D02*
X104569000Y-158395000D01*
X110680270Y-163195000D02*
G75*
G03*
X110680270Y-163195000I-3111270J0D01*
G01*
X106069000Y-163195000D02*
X105169000Y-163195000D01*
X109969000Y-163195000D02*
X109069000Y-163195000D01*
X107069000Y-163195000D02*
G75*
G02*
X108069000Y-163195000I500000J0D01*
G01*
X108069000Y-163195000D02*
G75*
G02*
X109069000Y-163195000I500000J0D01*
G01*
X106069000Y-163195000D02*
G75*
G02*
X107069000Y-163195000I500000J0D01*
G01*
X107378500Y-144399000D02*
X107378500Y-144145000D01*
X107378500Y-144399000D02*
X107378500Y-144653000D01*
X106489500Y-144399000D02*
X106489500Y-144653000D01*
X106489500Y-144399000D02*
X106489500Y-144145000D01*
X97790000Y-121158000D02*
X97790000Y-120904000D01*
X97790000Y-127762000D02*
X97790000Y-127508000D01*
X110490000Y-127762000D02*
X110490000Y-127508000D01*
X110490000Y-121158000D02*
X110490000Y-120904000D01*
X97790000Y-128778000D02*
X93980000Y-128778000D01*
X94996000Y-127762000D02*
X97790000Y-127762000D01*
X94996000Y-120904000D02*
X94996000Y-127762000D01*
X97790000Y-120904000D02*
X94996000Y-120904000D01*
X113284000Y-120904000D02*
X110490000Y-120904000D01*
X113284000Y-127762000D02*
X113284000Y-120904000D01*
X110490000Y-127762000D02*
X113284000Y-127762000D01*
X96520000Y-119888000D02*
X97790000Y-119888000D01*
X96520000Y-119634000D02*
X96520000Y-119888000D01*
X95250000Y-119634000D02*
X95250000Y-119888000D01*
X96520000Y-119634000D02*
X95250000Y-119634000D01*
X110490000Y-119888000D02*
X111760000Y-119888000D01*
X113030000Y-119888000D02*
X114300000Y-119888000D01*
X111760000Y-119888000D02*
X111760000Y-119634000D01*
X113030000Y-119634000D02*
X111760000Y-119634000D01*
X113030000Y-119888000D02*
X113030000Y-119634000D01*
X97790000Y-127508000D02*
X95250000Y-127508000D01*
X113030000Y-127508000D02*
X110490000Y-127508000D01*
X93980000Y-119888000D02*
X93980000Y-128778000D01*
X114300000Y-128778000D02*
X114300000Y-119888000D01*
X114300000Y-128778000D02*
X110490000Y-128778000D01*
X93980000Y-119888000D02*
X95250000Y-119888000D01*
X95250000Y-121158000D02*
X95250000Y-127508000D01*
X113030000Y-127508000D02*
X113030000Y-121158000D01*
X110490000Y-121158000D02*
X113030000Y-121158000D01*
X95250000Y-121158000D02*
X97790000Y-121158000D01*
X95504000Y-121031000D02*
X95123000Y-121031000D01*
X95504000Y-127635000D02*
X95123000Y-127635000D01*
X112903000Y-127635000D02*
X113157000Y-127635000D01*
X112776000Y-121031000D02*
X113284000Y-121031000D01*
X90297000Y-148590000D02*
X91313000Y-148971000D01*
X90297000Y-156718000D02*
X91313000Y-156337000D01*
X95826000Y-156354000D02*
X94626000Y-156354000D01*
X91326000Y-148954000D02*
X92326000Y-148954000D01*
X90226000Y-156718000D02*
X90226000Y-148590000D01*
X92326000Y-156354000D02*
X91326000Y-156354000D01*
X97326000Y-155454000D02*
X97326000Y-154454000D01*
X97326000Y-150854000D02*
X97326000Y-149854000D01*
X95826000Y-148954000D02*
X94626000Y-148954000D01*
X91326000Y-156354000D02*
X91326000Y-148954000D01*
X98679000Y-176352200D02*
X98679000Y-177482500D01*
X95872300Y-176352200D02*
X95872300Y-177482500D01*
X101200000Y-180063000D02*
X101200000Y-174293000D01*
X101200000Y-196293000D02*
X101200000Y-184493000D01*
X117200000Y-196293000D02*
X101200000Y-196293000D01*
X117200000Y-184493000D02*
X117200000Y-196293000D01*
X117200000Y-174293000D02*
X117200000Y-180063000D01*
X101200000Y-174293000D02*
X117200000Y-174293000D01*
X118022021Y-157861000D02*
G75*
G03*
X118022021Y-157861000I-3087021J0D01*
G01*
X113483000Y-168576000D02*
X113483000Y-171276000D01*
X116673000Y-168576000D02*
X111673000Y-168576000D01*
X113043000Y-168576000D02*
X113043000Y-171276000D01*
X111673000Y-171276000D02*
X116673000Y-171276000D01*
X108839000Y-168783000D02*
X107315000Y-168783000D01*
X108839000Y-171069000D02*
X107315000Y-171069000D01*
X113411000Y-171704000D02*
X114427000Y-171704000D01*
X113411000Y-173228000D02*
X114427000Y-173228000D01*
X95140000Y-83741000D02*
X113140000Y-83741000D01*
X95140000Y-90041000D02*
X113140000Y-90041000D01*
X113140000Y-83741000D02*
X113140000Y-90361000D01*
X95140000Y-83741000D02*
X95140000Y-90361000D01*
X95140000Y-115141000D02*
X113140000Y-115141000D01*
X95140000Y-115141000D02*
X95140000Y-114841000D01*
X113140000Y-115141000D02*
X113140000Y-114841000D01*
X96990000Y-109241000D02*
X97640000Y-109241000D01*
X111290000Y-109241000D02*
X110690000Y-109241000D01*
X115697000Y-103822500D02*
X115443000Y-103822500D01*
X115697000Y-103822500D02*
X115951000Y-103822500D01*
X115697000Y-102933500D02*
X115951000Y-102933500D01*
X115697000Y-102933500D02*
X115443000Y-102933500D01*
X90144600Y-180738780D02*
X90144600Y-186786520D01*
X90144600Y-186786520D02*
X94660720Y-186786520D01*
X94660720Y-186786520D02*
X94660720Y-180751480D01*
X94660720Y-180751480D02*
X90167460Y-180751480D01*
X114493523Y-106226428D02*
X114638666Y-106274809D01*
X114687047Y-106323190D01*
X114735428Y-106419952D01*
X114735428Y-106565095D01*
X114687047Y-106661857D01*
X114638666Y-106710238D01*
X114541904Y-106758619D01*
X114154857Y-106758619D01*
X114154857Y-105742619D01*
X114493523Y-105742619D01*
X114590285Y-105791000D01*
X114638666Y-105839380D01*
X114687047Y-105936142D01*
X114687047Y-106032904D01*
X114638666Y-106129666D01*
X114590285Y-106178047D01*
X114493523Y-106226428D01*
X114154857Y-106226428D01*
X115170857Y-105742619D02*
X115170857Y-106565095D01*
X115219238Y-106661857D01*
X115267619Y-106710238D01*
X115364380Y-106758619D01*
X115557904Y-106758619D01*
X115654666Y-106710238D01*
X115703047Y-106661857D01*
X115751428Y-106565095D01*
X115751428Y-105742619D01*
X116090095Y-105742619D02*
X116670666Y-105742619D01*
X116380380Y-106758619D02*
X116380380Y-105742619D01*
X117541523Y-106758619D02*
X116960952Y-106758619D01*
X117251238Y-106758619D02*
X117251238Y-105742619D01*
X117154476Y-105887761D01*
X117057714Y-105984523D01*
X116960952Y-106032904D01*
X91288809Y-104218619D02*
X90950142Y-103734809D01*
X90708238Y-104218619D02*
X90708238Y-103202619D01*
X91095285Y-103202619D01*
X91192047Y-103251000D01*
X91240428Y-103299380D01*
X91288809Y-103396142D01*
X91288809Y-103541285D01*
X91240428Y-103638047D01*
X91192047Y-103686428D01*
X91095285Y-103734809D01*
X90708238Y-103734809D01*
X91675857Y-104170238D02*
X91821000Y-104218619D01*
X92062904Y-104218619D01*
X92159666Y-104170238D01*
X92208047Y-104121857D01*
X92256428Y-104025095D01*
X92256428Y-103928333D01*
X92208047Y-103831571D01*
X92159666Y-103783190D01*
X92062904Y-103734809D01*
X91869380Y-103686428D01*
X91772619Y-103638047D01*
X91724238Y-103589666D01*
X91675857Y-103492904D01*
X91675857Y-103396142D01*
X91724238Y-103299380D01*
X91772619Y-103251000D01*
X91869380Y-103202619D01*
X92111285Y-103202619D01*
X92256428Y-103251000D01*
X92546714Y-103202619D02*
X93127285Y-103202619D01*
X92837000Y-104218619D02*
X92837000Y-103202619D01*
X93998142Y-104218619D02*
X93417571Y-104218619D01*
X93707857Y-104218619D02*
X93707857Y-103202619D01*
X93611095Y-103347761D01*
X93514333Y-103444523D01*
X93417571Y-103492904D01*
D17*
X94705714Y-136271000D02*
X94705714Y-136633857D01*
X93943714Y-136633857D01*
X94016285Y-136053285D02*
X93980000Y-136017000D01*
X93943714Y-135944428D01*
X93943714Y-135763000D01*
X93980000Y-135690428D01*
X94016285Y-135654142D01*
X94088857Y-135617857D01*
X94161428Y-135617857D01*
X94270285Y-135654142D01*
X94705714Y-136089571D01*
X94705714Y-135617857D01*
X109546571Y-147156714D02*
X109546571Y-146394714D01*
X109728000Y-146394714D01*
X109836857Y-146431000D01*
X109909428Y-146503571D01*
X109945714Y-146576142D01*
X109982000Y-146721285D01*
X109982000Y-146830142D01*
X109945714Y-146975285D01*
X109909428Y-147047857D01*
X109836857Y-147120428D01*
X109728000Y-147156714D01*
X109546571Y-147156714D01*
X110744000Y-147084142D02*
X110707714Y-147120428D01*
X110598857Y-147156714D01*
X110526285Y-147156714D01*
X110417428Y-147120428D01*
X110344857Y-147047857D01*
X110308571Y-146975285D01*
X110272285Y-146830142D01*
X110272285Y-146721285D01*
X110308571Y-146576142D01*
X110344857Y-146503571D01*
X110417428Y-146431000D01*
X110526285Y-146394714D01*
X110598857Y-146394714D01*
X110707714Y-146431000D01*
X110744000Y-146467285D01*
X111070571Y-147156714D02*
X111070571Y-146394714D01*
X111252000Y-146394714D01*
X111360857Y-146431000D01*
X111433428Y-146503571D01*
X111469714Y-146576142D01*
X111506000Y-146721285D01*
X111506000Y-146830142D01*
X111469714Y-146975285D01*
X111433428Y-147047857D01*
X111360857Y-147120428D01*
X111252000Y-147156714D01*
X111070571Y-147156714D01*
X112268000Y-147084142D02*
X112231714Y-147120428D01*
X112122857Y-147156714D01*
X112050285Y-147156714D01*
X111941428Y-147120428D01*
X111868857Y-147047857D01*
X111832571Y-146975285D01*
X111796285Y-146830142D01*
X111796285Y-146721285D01*
X111832571Y-146576142D01*
X111868857Y-146503571D01*
X111941428Y-146431000D01*
X112050285Y-146394714D01*
X112122857Y-146394714D01*
X112231714Y-146431000D01*
X112268000Y-146467285D01*
X112993714Y-147156714D02*
X112558285Y-147156714D01*
X112776000Y-147156714D02*
X112776000Y-146394714D01*
X112703428Y-146503571D01*
X112630857Y-146576142D01*
X112558285Y-146612428D01*
D15*
X117397666Y-154104904D02*
X117397666Y-153914428D01*
X117511952Y-154143000D02*
X117111952Y-154009666D01*
X117511952Y-153876333D01*
X117511952Y-153743000D02*
X117111952Y-153743000D01*
X117397666Y-153609666D01*
X117111952Y-153476333D01*
X117511952Y-153476333D01*
X117511952Y-153076333D02*
X117511952Y-153304904D01*
X117511952Y-153190619D02*
X117111952Y-153190619D01*
X117169095Y-153228714D01*
X117207190Y-153266809D01*
X117226238Y-153304904D01*
X117511952Y-152904904D02*
X117111952Y-152904904D01*
X117111952Y-152809666D01*
X117131000Y-152752523D01*
X117169095Y-152714428D01*
X117207190Y-152695380D01*
X117283380Y-152676333D01*
X117340523Y-152676333D01*
X117416714Y-152695380D01*
X117454809Y-152714428D01*
X117492904Y-152752523D01*
X117511952Y-152809666D01*
X117511952Y-152904904D01*
X117359571Y-152504904D02*
X117359571Y-152200142D01*
X117111952Y-151933476D02*
X117111952Y-151895380D01*
X117131000Y-151857285D01*
X117150047Y-151838238D01*
X117188142Y-151819190D01*
X117264333Y-151800142D01*
X117359571Y-151800142D01*
X117435761Y-151819190D01*
X117473857Y-151838238D01*
X117492904Y-151857285D01*
X117511952Y-151895380D01*
X117511952Y-151933476D01*
X117492904Y-151971571D01*
X117473857Y-151990619D01*
X117435761Y-152009666D01*
X117359571Y-152028714D01*
X117264333Y-152028714D01*
X117188142Y-152009666D01*
X117150047Y-151990619D01*
X117131000Y-151971571D01*
X117111952Y-151933476D01*
X117111952Y-151438238D02*
X117111952Y-151628714D01*
X117302428Y-151647761D01*
X117283380Y-151628714D01*
X117264333Y-151590619D01*
X117264333Y-151495380D01*
X117283380Y-151457285D01*
X117302428Y-151438238D01*
X117340523Y-151419190D01*
X117435761Y-151419190D01*
X117473857Y-151438238D01*
X117492904Y-151457285D01*
X117511952Y-151495380D01*
X117511952Y-151590619D01*
X117492904Y-151628714D01*
X117473857Y-151647761D01*
X117111952Y-151171571D02*
X117111952Y-151133476D01*
X117131000Y-151095380D01*
X117150047Y-151076333D01*
X117188142Y-151057285D01*
X117264333Y-151038238D01*
X117359571Y-151038238D01*
X117435761Y-151057285D01*
X117473857Y-151076333D01*
X117492904Y-151095380D01*
X117511952Y-151133476D01*
X117511952Y-151171571D01*
X117492904Y-151209666D01*
X117473857Y-151228714D01*
X117435761Y-151247761D01*
X117359571Y-151266809D01*
X117264333Y-151266809D01*
X117188142Y-151247761D01*
X117150047Y-151228714D01*
X117131000Y-151209666D01*
X117111952Y-151171571D01*
X117111952Y-150676333D02*
X117111952Y-150866809D01*
X117302428Y-150885857D01*
X117283380Y-150866809D01*
X117264333Y-150828714D01*
X117264333Y-150733476D01*
X117283380Y-150695380D01*
X117302428Y-150676333D01*
X117340523Y-150657285D01*
X117435761Y-150657285D01*
X117473857Y-150676333D01*
X117492904Y-150695380D01*
X117511952Y-150733476D01*
X117511952Y-150828714D01*
X117492904Y-150866809D01*
X117473857Y-150885857D01*
X117492904Y-150504904D02*
X117511952Y-150447761D01*
X117511952Y-150352523D01*
X117492904Y-150314428D01*
X117473857Y-150295380D01*
X117435761Y-150276333D01*
X117397666Y-150276333D01*
X117359571Y-150295380D01*
X117340523Y-150314428D01*
X117321476Y-150352523D01*
X117302428Y-150428714D01*
X117283380Y-150466809D01*
X117264333Y-150485857D01*
X117226238Y-150504904D01*
X117188142Y-150504904D01*
X117150047Y-150485857D01*
X117131000Y-150466809D01*
X117111952Y-150428714D01*
X117111952Y-150333476D01*
X117131000Y-150276333D01*
X117359571Y-150104904D02*
X117359571Y-149800142D01*
X117511952Y-149609666D02*
X117111952Y-149609666D01*
X117511952Y-149381095D01*
X117111952Y-149381095D01*
X117111952Y-149228714D02*
X117111952Y-148962047D01*
X117511952Y-149228714D01*
X117511952Y-148962047D01*
X117397666Y-154104904D02*
X117397666Y-153914428D01*
X117511952Y-154143000D02*
X117111952Y-154009666D01*
X117511952Y-153876333D01*
X117511952Y-153743000D02*
X117111952Y-153743000D01*
X117397666Y-153609666D01*
X117111952Y-153476333D01*
X117511952Y-153476333D01*
X117511952Y-153076333D02*
X117511952Y-153304904D01*
X117511952Y-153190619D02*
X117111952Y-153190619D01*
X117169095Y-153228714D01*
X117207190Y-153266809D01*
X117226238Y-153304904D01*
X117511952Y-152904904D02*
X117111952Y-152904904D01*
X117111952Y-152809666D01*
X117131000Y-152752523D01*
X117169095Y-152714428D01*
X117207190Y-152695380D01*
X117283380Y-152676333D01*
X117340523Y-152676333D01*
X117416714Y-152695380D01*
X117454809Y-152714428D01*
X117492904Y-152752523D01*
X117511952Y-152809666D01*
X117511952Y-152904904D01*
X117359571Y-152504904D02*
X117359571Y-152200142D01*
X117111952Y-151933476D02*
X117111952Y-151895380D01*
X117131000Y-151857285D01*
X117150047Y-151838238D01*
X117188142Y-151819190D01*
X117264333Y-151800142D01*
X117359571Y-151800142D01*
X117435761Y-151819190D01*
X117473857Y-151838238D01*
X117492904Y-151857285D01*
X117511952Y-151895380D01*
X117511952Y-151933476D01*
X117492904Y-151971571D01*
X117473857Y-151990619D01*
X117435761Y-152009666D01*
X117359571Y-152028714D01*
X117264333Y-152028714D01*
X117188142Y-152009666D01*
X117150047Y-151990619D01*
X117131000Y-151971571D01*
X117111952Y-151933476D01*
X117111952Y-151438238D02*
X117111952Y-151628714D01*
X117302428Y-151647761D01*
X117283380Y-151628714D01*
X117264333Y-151590619D01*
X117264333Y-151495380D01*
X117283380Y-151457285D01*
X117302428Y-151438238D01*
X117340523Y-151419190D01*
X117435761Y-151419190D01*
X117473857Y-151438238D01*
X117492904Y-151457285D01*
X117511952Y-151495380D01*
X117511952Y-151590619D01*
X117492904Y-151628714D01*
X117473857Y-151647761D01*
X117111952Y-151171571D02*
X117111952Y-151133476D01*
X117131000Y-151095380D01*
X117150047Y-151076333D01*
X117188142Y-151057285D01*
X117264333Y-151038238D01*
X117359571Y-151038238D01*
X117435761Y-151057285D01*
X117473857Y-151076333D01*
X117492904Y-151095380D01*
X117511952Y-151133476D01*
X117511952Y-151171571D01*
X117492904Y-151209666D01*
X117473857Y-151228714D01*
X117435761Y-151247761D01*
X117359571Y-151266809D01*
X117264333Y-151266809D01*
X117188142Y-151247761D01*
X117150047Y-151228714D01*
X117131000Y-151209666D01*
X117111952Y-151171571D01*
X117111952Y-150676333D02*
X117111952Y-150866809D01*
X117302428Y-150885857D01*
X117283380Y-150866809D01*
X117264333Y-150828714D01*
X117264333Y-150733476D01*
X117283380Y-150695380D01*
X117302428Y-150676333D01*
X117340523Y-150657285D01*
X117435761Y-150657285D01*
X117473857Y-150676333D01*
X117492904Y-150695380D01*
X117511952Y-150733476D01*
X117511952Y-150828714D01*
X117492904Y-150866809D01*
X117473857Y-150885857D01*
X117492904Y-150504904D02*
X117511952Y-150447761D01*
X117511952Y-150352523D01*
X117492904Y-150314428D01*
X117473857Y-150295380D01*
X117435761Y-150276333D01*
X117397666Y-150276333D01*
X117359571Y-150295380D01*
X117340523Y-150314428D01*
X117321476Y-150352523D01*
X117302428Y-150428714D01*
X117283380Y-150466809D01*
X117264333Y-150485857D01*
X117226238Y-150504904D01*
X117188142Y-150504904D01*
X117150047Y-150485857D01*
X117131000Y-150466809D01*
X117111952Y-150428714D01*
X117111952Y-150333476D01*
X117131000Y-150276333D01*
X117359571Y-150104904D02*
X117359571Y-149800142D01*
X117511952Y-149609666D02*
X117111952Y-149609666D01*
X117511952Y-149381095D01*
X117111952Y-149381095D01*
X117111952Y-149228714D02*
X117111952Y-148962047D01*
X117511952Y-149228714D01*
X117511952Y-148962047D01*
D13*
X106486476Y-148006714D02*
X106317142Y-148006714D01*
X106317142Y-148272809D02*
X106317142Y-147764809D01*
X106559047Y-147764809D01*
X106849333Y-147764809D02*
X106897714Y-147764809D01*
X106946095Y-147789000D01*
X106970285Y-147813190D01*
X106994476Y-147861571D01*
X107018666Y-147958333D01*
X107018666Y-148079285D01*
X106994476Y-148176047D01*
X106970285Y-148224428D01*
X106946095Y-148248619D01*
X106897714Y-148272809D01*
X106849333Y-148272809D01*
X106800952Y-148248619D01*
X106776761Y-148224428D01*
X106752571Y-148176047D01*
X106728380Y-148079285D01*
X106728380Y-147958333D01*
X106752571Y-147861571D01*
X106776761Y-147813190D01*
X106800952Y-147789000D01*
X106849333Y-147764809D01*
X107478285Y-147764809D02*
X107236380Y-147764809D01*
X107212190Y-148006714D01*
X107236380Y-147982523D01*
X107284761Y-147958333D01*
X107405714Y-147958333D01*
X107454095Y-147982523D01*
X107478285Y-148006714D01*
X107502476Y-148055095D01*
X107502476Y-148176047D01*
X107478285Y-148224428D01*
X107454095Y-148248619D01*
X107405714Y-148272809D01*
X107284761Y-148272809D01*
X107236380Y-148248619D01*
X107212190Y-148224428D01*
X107816952Y-147764809D02*
X107865333Y-147764809D01*
X107913714Y-147789000D01*
X107937904Y-147813190D01*
X107962095Y-147861571D01*
X107986285Y-147958333D01*
X107986285Y-148079285D01*
X107962095Y-148176047D01*
X107937904Y-148224428D01*
X107913714Y-148248619D01*
X107865333Y-148272809D01*
X107816952Y-148272809D01*
X107768571Y-148248619D01*
X107744380Y-148224428D01*
X107720190Y-148176047D01*
X107696000Y-148079285D01*
X107696000Y-147958333D01*
X107720190Y-147861571D01*
X107744380Y-147813190D01*
X107768571Y-147789000D01*
X107816952Y-147764809D01*
X108445904Y-147764809D02*
X108204000Y-147764809D01*
X108179809Y-148006714D01*
X108204000Y-147982523D01*
X108252380Y-147958333D01*
X108373333Y-147958333D01*
X108421714Y-147982523D01*
X108445904Y-148006714D01*
X108470095Y-148055095D01*
X108470095Y-148176047D01*
X108445904Y-148224428D01*
X108421714Y-148248619D01*
X108373333Y-148272809D01*
X108252380Y-148272809D01*
X108204000Y-148248619D01*
X108179809Y-148224428D01*
X108663619Y-148248619D02*
X108736190Y-148272809D01*
X108857142Y-148272809D01*
X108905523Y-148248619D01*
X108929714Y-148224428D01*
X108953904Y-148176047D01*
X108953904Y-148127666D01*
X108929714Y-148079285D01*
X108905523Y-148055095D01*
X108857142Y-148030904D01*
X108760380Y-148006714D01*
X108712000Y-147982523D01*
X108687809Y-147958333D01*
X108663619Y-147909952D01*
X108663619Y-147861571D01*
X108687809Y-147813190D01*
X108712000Y-147789000D01*
X108760380Y-147764809D01*
X108881333Y-147764809D01*
X108953904Y-147789000D01*
X109171619Y-148079285D02*
X109558666Y-148079285D01*
X109776380Y-147813190D02*
X109800571Y-147789000D01*
X109848952Y-147764809D01*
X109969904Y-147764809D01*
X110018285Y-147789000D01*
X110042476Y-147813190D01*
X110066666Y-147861571D01*
X110066666Y-147909952D01*
X110042476Y-147982523D01*
X109752190Y-148272809D01*
X110066666Y-148272809D01*
X110236000Y-147764809D02*
X110356952Y-148272809D01*
X110453714Y-147909952D01*
X110550476Y-148272809D01*
X110671428Y-147764809D01*
X111155238Y-148272809D02*
X110985904Y-148030904D01*
X110864952Y-148272809D02*
X110864952Y-147764809D01*
X111058476Y-147764809D01*
X111106857Y-147789000D01*
X111131047Y-147813190D01*
X111155238Y-147861571D01*
X111155238Y-147934142D01*
X111131047Y-147982523D01*
X111106857Y-148006714D01*
X111058476Y-148030904D01*
X110864952Y-148030904D01*
X111348761Y-147813190D02*
X111372952Y-147789000D01*
X111421333Y-147764809D01*
X111542285Y-147764809D01*
X111590666Y-147789000D01*
X111614857Y-147813190D01*
X111639047Y-147861571D01*
X111639047Y-147909952D01*
X111614857Y-147982523D01*
X111324571Y-148272809D01*
X111639047Y-148272809D01*
D11*
X100287666Y-150942523D02*
X101134333Y-150942523D01*
X100590047Y-152212523D01*
X103492904Y-150942523D02*
X103251000Y-150942523D01*
X103130047Y-151003000D01*
X103069571Y-151063476D01*
X102948619Y-151244904D01*
X102888142Y-151486809D01*
X102888142Y-151970619D01*
X102948619Y-152091571D01*
X103009095Y-152152047D01*
X103130047Y-152212523D01*
X103371952Y-152212523D01*
X103492904Y-152152047D01*
X103553380Y-152091571D01*
X103613857Y-151970619D01*
X103613857Y-151668238D01*
X103553380Y-151547285D01*
X103492904Y-151486809D01*
X103371952Y-151426333D01*
X103130047Y-151426333D01*
X103009095Y-151486809D01*
X102948619Y-151547285D01*
X102888142Y-151668238D01*
X106093380Y-150942523D02*
X105488619Y-150942523D01*
X105428142Y-151547285D01*
X105488619Y-151486809D01*
X105609571Y-151426333D01*
X105911952Y-151426333D01*
X106032904Y-151486809D01*
X106093380Y-151547285D01*
X106153857Y-151668238D01*
X106153857Y-151970619D01*
X106093380Y-152091571D01*
X106032904Y-152152047D01*
X105911952Y-152212523D01*
X105609571Y-152212523D01*
X105488619Y-152152047D01*
X105428142Y-152091571D01*
X108572904Y-151365857D02*
X108572904Y-152212523D01*
X108270523Y-150882047D02*
X107968142Y-151789190D01*
X108754333Y-151789190D01*
X113048142Y-151063476D02*
X113108619Y-151003000D01*
X113229571Y-150942523D01*
X113531952Y-150942523D01*
X113652904Y-151003000D01*
X113713380Y-151063476D01*
X113773857Y-151184428D01*
X113773857Y-151305380D01*
X113713380Y-151486809D01*
X112987666Y-152212523D01*
X113773857Y-152212523D01*
X116313857Y-152212523D02*
X115588142Y-152212523D01*
X115951000Y-152212523D02*
X115951000Y-150942523D01*
X115830047Y-151123952D01*
X115709095Y-151244904D01*
X115588142Y-151305380D01*
X100771476Y-150247047D02*
X100952904Y-150307523D01*
X101255285Y-150307523D01*
X101376238Y-150247047D01*
X101436714Y-150186571D01*
X101497190Y-150065619D01*
X101497190Y-149944666D01*
X101436714Y-149823714D01*
X101376238Y-149763238D01*
X101255285Y-149702761D01*
X101013380Y-149642285D01*
X100892428Y-149581809D01*
X100831952Y-149521333D01*
X100771476Y-149400380D01*
X100771476Y-149279428D01*
X100831952Y-149158476D01*
X100892428Y-149098000D01*
X101013380Y-149037523D01*
X101315761Y-149037523D01*
X101497190Y-149098000D01*
X102041476Y-150307523D02*
X102041476Y-149037523D01*
X102646238Y-150307523D02*
X102646238Y-149037523D01*
X103130047Y-149037523D01*
X103251000Y-149098000D01*
X103311476Y-149158476D01*
X103371952Y-149279428D01*
X103371952Y-149460857D01*
X103311476Y-149581809D01*
X103251000Y-149642285D01*
X103130047Y-149702761D01*
X102646238Y-149702761D01*
X103916238Y-149823714D02*
X104883857Y-149823714D01*
X105367666Y-149037523D02*
X106214333Y-149037523D01*
X105670047Y-150307523D01*
X106395761Y-150428476D02*
X107363380Y-150428476D01*
X107665761Y-149037523D02*
X107665761Y-150065619D01*
X107726238Y-150186571D01*
X107786714Y-150247047D01*
X107907666Y-150307523D01*
X108149571Y-150307523D01*
X108270523Y-150247047D01*
X108331000Y-150186571D01*
X108391476Y-150065619D01*
X108391476Y-149037523D01*
X108996238Y-149460857D02*
X108996238Y-150307523D01*
X108996238Y-149581809D02*
X109056714Y-149521333D01*
X109177666Y-149460857D01*
X109359095Y-149460857D01*
X109480047Y-149521333D01*
X109540523Y-149642285D01*
X109540523Y-150307523D01*
X110145285Y-150307523D02*
X110145285Y-149460857D01*
X110145285Y-149037523D02*
X110084809Y-149098000D01*
X110145285Y-149158476D01*
X110205761Y-149098000D01*
X110145285Y-149037523D01*
X110145285Y-149158476D01*
X110629095Y-149460857D02*
X110931476Y-150307523D01*
X111233857Y-149460857D01*
X112201476Y-150247047D02*
X112080523Y-150307523D01*
X111838619Y-150307523D01*
X111717666Y-150247047D01*
X111657190Y-150126095D01*
X111657190Y-149642285D01*
X111717666Y-149521333D01*
X111838619Y-149460857D01*
X112080523Y-149460857D01*
X112201476Y-149521333D01*
X112261952Y-149642285D01*
X112261952Y-149763238D01*
X111657190Y-149884190D01*
X112806238Y-150307523D02*
X112806238Y-149460857D01*
X112806238Y-149702761D02*
X112866714Y-149581809D01*
X112927190Y-149521333D01*
X113048142Y-149460857D01*
X113169095Y-149460857D01*
X113531952Y-150247047D02*
X113652904Y-150307523D01*
X113894809Y-150307523D01*
X114015761Y-150247047D01*
X114076238Y-150126095D01*
X114076238Y-150065619D01*
X114015761Y-149944666D01*
X113894809Y-149884190D01*
X113713380Y-149884190D01*
X113592428Y-149823714D01*
X113531952Y-149702761D01*
X113531952Y-149642285D01*
X113592428Y-149521333D01*
X113713380Y-149460857D01*
X113894809Y-149460857D01*
X114015761Y-149521333D01*
X115164809Y-150307523D02*
X115164809Y-149642285D01*
X115104333Y-149521333D01*
X114983380Y-149460857D01*
X114741476Y-149460857D01*
X114620523Y-149521333D01*
X115164809Y-150247047D02*
X115043857Y-150307523D01*
X114741476Y-150307523D01*
X114620523Y-150247047D01*
X114560047Y-150126095D01*
X114560047Y-150005142D01*
X114620523Y-149884190D01*
X114741476Y-149823714D01*
X115043857Y-149823714D01*
X115164809Y-149763238D01*
X115951000Y-150307523D02*
X115830047Y-150247047D01*
X115769571Y-150126095D01*
X115769571Y-149037523D01*
D17*
X112957428Y-142911285D02*
X112884857Y-142875000D01*
X112812285Y-142802428D01*
X112703428Y-142693571D01*
X112630857Y-142657285D01*
X112558285Y-142657285D01*
X112594571Y-142838714D02*
X112522000Y-142802428D01*
X112449428Y-142729857D01*
X112413142Y-142584714D01*
X112413142Y-142330714D01*
X112449428Y-142185571D01*
X112522000Y-142113000D01*
X112594571Y-142076714D01*
X112739714Y-142076714D01*
X112812285Y-142113000D01*
X112884857Y-142185571D01*
X112921142Y-142330714D01*
X112921142Y-142584714D01*
X112884857Y-142729857D01*
X112812285Y-142802428D01*
X112739714Y-142838714D01*
X112594571Y-142838714D01*
X113646857Y-142838714D02*
X113211428Y-142838714D01*
X113429142Y-142838714D02*
X113429142Y-142076714D01*
X113356571Y-142185571D01*
X113284000Y-142258142D01*
X113211428Y-142294428D01*
D14*
X110051857Y-146030904D02*
X109975666Y-145992809D01*
X109937571Y-145954714D01*
X109899476Y-145878523D01*
X109899476Y-145649952D01*
X109937571Y-145573761D01*
X109975666Y-145535666D01*
X110051857Y-145497571D01*
X110166142Y-145497571D01*
X110242333Y-145535666D01*
X110280428Y-145573761D01*
X110318523Y-145649952D01*
X110318523Y-145878523D01*
X110280428Y-145954714D01*
X110242333Y-145992809D01*
X110166142Y-146030904D01*
X110051857Y-146030904D01*
D11*
X99743737Y-168231420D02*
X99743737Y-168299841D01*
X99675316Y-168436683D01*
X99606895Y-168505104D01*
X99470053Y-168573525D01*
X99333211Y-168573525D01*
X99230579Y-168539314D01*
X99059527Y-168436683D01*
X98956895Y-168334051D01*
X98854264Y-168162999D01*
X98820053Y-168060367D01*
X98820053Y-167923525D01*
X98888474Y-167786683D01*
X98956895Y-167718262D01*
X99093737Y-167649841D01*
X99162158Y-167649841D01*
X99435842Y-167376158D02*
X99435842Y-167307737D01*
X99470053Y-167205105D01*
X99641105Y-167034053D01*
X99743737Y-166999842D01*
X99812158Y-166999842D01*
X99914789Y-167034053D01*
X99983210Y-167102474D01*
X100051631Y-167239316D01*
X100051631Y-168060367D01*
X100496367Y-167615631D01*
X100017420Y-166657737D02*
X100496367Y-166178790D01*
X100906893Y-167205105D01*
X103275190Y-172175714D02*
X104242809Y-172175714D01*
X103759000Y-172659523D02*
X103759000Y-171691904D01*
X104926190Y-173064714D02*
X105893809Y-173064714D01*
X105410000Y-173548523D02*
X105410000Y-172580904D01*
D17*
X105500714Y-139881428D02*
X104738714Y-139881428D01*
X104738714Y-139700000D01*
X104775000Y-139591142D01*
X104847571Y-139518571D01*
X104920142Y-139482285D01*
X105065285Y-139446000D01*
X105174142Y-139446000D01*
X105319285Y-139482285D01*
X105391857Y-139518571D01*
X105464428Y-139591142D01*
X105500714Y-139700000D01*
X105500714Y-139881428D01*
X104738714Y-139192000D02*
X104738714Y-138684000D01*
X105500714Y-139010571D01*
X104103714Y-139881428D02*
X103341714Y-139881428D01*
X103341714Y-139700000D01*
X103378000Y-139591142D01*
X103450571Y-139518571D01*
X103523142Y-139482285D01*
X103668285Y-139446000D01*
X103777142Y-139446000D01*
X103922285Y-139482285D01*
X103994857Y-139518571D01*
X104067428Y-139591142D01*
X104103714Y-139700000D01*
X104103714Y-139881428D01*
X103341714Y-138792857D02*
X103341714Y-138938000D01*
X103378000Y-139010571D01*
X103414285Y-139046857D01*
X103523142Y-139119428D01*
X103668285Y-139155714D01*
X103958571Y-139155714D01*
X104031142Y-139119428D01*
X104067428Y-139083142D01*
X104103714Y-139010571D01*
X104103714Y-138865428D01*
X104067428Y-138792857D01*
X104031142Y-138756571D01*
X103958571Y-138720285D01*
X103777142Y-138720285D01*
X103704571Y-138756571D01*
X103668285Y-138792857D01*
X103632000Y-138865428D01*
X103632000Y-139010571D01*
X103668285Y-139083142D01*
X103704571Y-139119428D01*
X103777142Y-139155714D01*
X99767571Y-141314714D02*
X99767571Y-140552714D01*
X99949000Y-140552714D01*
X100057857Y-140589000D01*
X100130428Y-140661571D01*
X100166714Y-140734142D01*
X100203000Y-140879285D01*
X100203000Y-140988142D01*
X100166714Y-141133285D01*
X100130428Y-141205857D01*
X100057857Y-141278428D01*
X99949000Y-141314714D01*
X99767571Y-141314714D01*
X100457000Y-140552714D02*
X100928714Y-140552714D01*
X100674714Y-140843000D01*
X100783571Y-140843000D01*
X100856142Y-140879285D01*
X100892428Y-140915571D01*
X100928714Y-140988142D01*
X100928714Y-141169571D01*
X100892428Y-141242142D01*
X100856142Y-141278428D01*
X100783571Y-141314714D01*
X100565857Y-141314714D01*
X100493285Y-141278428D01*
X100457000Y-141242142D01*
X99767571Y-142838714D02*
X99767571Y-142076714D01*
X99949000Y-142076714D01*
X100057857Y-142113000D01*
X100130428Y-142185571D01*
X100166714Y-142258142D01*
X100203000Y-142403285D01*
X100203000Y-142512142D01*
X100166714Y-142657285D01*
X100130428Y-142729857D01*
X100057857Y-142802428D01*
X99949000Y-142838714D01*
X99767571Y-142838714D01*
X100928714Y-142838714D02*
X100493285Y-142838714D01*
X100711000Y-142838714D02*
X100711000Y-142076714D01*
X100638428Y-142185571D01*
X100565857Y-142258142D01*
X100493285Y-142294428D01*
X93054714Y-96520000D02*
X92691857Y-96774000D01*
X93054714Y-96955428D02*
X92292714Y-96955428D01*
X92292714Y-96665142D01*
X92329000Y-96592571D01*
X92365285Y-96556285D01*
X92437857Y-96520000D01*
X92546714Y-96520000D01*
X92619285Y-96556285D01*
X92655571Y-96592571D01*
X92691857Y-96665142D01*
X92691857Y-96955428D01*
X93054714Y-96157142D02*
X93054714Y-96012000D01*
X93018428Y-95939428D01*
X92982142Y-95903142D01*
X92873285Y-95830571D01*
X92728142Y-95794285D01*
X92437857Y-95794285D01*
X92365285Y-95830571D01*
X92329000Y-95866857D01*
X92292714Y-95939428D01*
X92292714Y-96084571D01*
X92329000Y-96157142D01*
X92365285Y-96193428D01*
X92437857Y-96229714D01*
X92619285Y-96229714D01*
X92691857Y-96193428D01*
X92728142Y-96157142D01*
X92764428Y-96084571D01*
X92764428Y-95939428D01*
X92728142Y-95866857D01*
X92691857Y-95830571D01*
X92619285Y-95794285D01*
X91530714Y-96520000D02*
X91167857Y-96774000D01*
X91530714Y-96955428D02*
X90768714Y-96955428D01*
X90768714Y-96665142D01*
X90805000Y-96592571D01*
X90841285Y-96556285D01*
X90913857Y-96520000D01*
X91022714Y-96520000D01*
X91095285Y-96556285D01*
X91131571Y-96592571D01*
X91167857Y-96665142D01*
X91167857Y-96955428D01*
X91022714Y-95866857D02*
X91530714Y-95866857D01*
X90732428Y-96048285D02*
X91276714Y-96229714D01*
X91276714Y-95758000D01*
X93816714Y-175641000D02*
X93453857Y-175895000D01*
X93816714Y-176076428D02*
X93054714Y-176076428D01*
X93054714Y-175786142D01*
X93091000Y-175713571D01*
X93127285Y-175677285D01*
X93199857Y-175641000D01*
X93308714Y-175641000D01*
X93381285Y-175677285D01*
X93417571Y-175713571D01*
X93453857Y-175786142D01*
X93453857Y-176076428D01*
X93054714Y-174987857D02*
X93054714Y-175133000D01*
X93091000Y-175205571D01*
X93127285Y-175241857D01*
X93236142Y-175314428D01*
X93381285Y-175350714D01*
X93671571Y-175350714D01*
X93744142Y-175314428D01*
X93780428Y-175278142D01*
X93816714Y-175205571D01*
X93816714Y-175060428D01*
X93780428Y-174987857D01*
X93744142Y-174951571D01*
X93671571Y-174915285D01*
X93490142Y-174915285D01*
X93417571Y-174951571D01*
X93381285Y-174987857D01*
X93345000Y-175060428D01*
X93345000Y-175205571D01*
X93381285Y-175278142D01*
X93417571Y-175314428D01*
X93490142Y-175350714D01*
X95594714Y-180285571D02*
X96211571Y-180285571D01*
X96284142Y-180249285D01*
X96320428Y-180213000D01*
X96356714Y-180140428D01*
X96356714Y-179995285D01*
X96320428Y-179922714D01*
X96284142Y-179886428D01*
X96211571Y-179850142D01*
X95594714Y-179850142D01*
X95594714Y-179559857D02*
X95594714Y-179088142D01*
X95885000Y-179342142D01*
X95885000Y-179233285D01*
X95921285Y-179160714D01*
X95957571Y-179124428D01*
X96030142Y-179088142D01*
X96211571Y-179088142D01*
X96284142Y-179124428D01*
X96320428Y-179160714D01*
X96356714Y-179233285D01*
X96356714Y-179451000D01*
X96320428Y-179523571D01*
X96284142Y-179559857D01*
D11*
X96725619Y-159427333D02*
X96725619Y-159911142D01*
X95709619Y-159911142D01*
X95709619Y-159185428D02*
X95709619Y-158556476D01*
X96096666Y-158895142D01*
X96096666Y-158750000D01*
X96145047Y-158653238D01*
X96193428Y-158604857D01*
X96290190Y-158556476D01*
X96532095Y-158556476D01*
X96628857Y-158604857D01*
X96677238Y-158653238D01*
X96725619Y-158750000D01*
X96725619Y-159040285D01*
X96677238Y-159137047D01*
X96628857Y-159185428D01*
D17*
X93562714Y-166261142D02*
X93562714Y-166624000D01*
X92800714Y-166624000D01*
X93562714Y-166007142D02*
X92800714Y-166007142D01*
X93562714Y-165571714D01*
X92800714Y-165571714D01*
X93562714Y-165208857D02*
X92800714Y-165208857D01*
X93562714Y-164773428D02*
X93127285Y-165100000D01*
X92800714Y-164773428D02*
X93236142Y-165208857D01*
X93562714Y-164047714D02*
X93562714Y-164483142D01*
X93562714Y-164265428D02*
X92800714Y-164265428D01*
X92909571Y-164338000D01*
X92982142Y-164410571D01*
X93018428Y-164483142D01*
X92964000Y-160854571D02*
X92964000Y-160491714D01*
X93181714Y-160927142D02*
X92419714Y-160673142D01*
X93181714Y-160419142D01*
X93109142Y-159729714D02*
X93145428Y-159766000D01*
X93181714Y-159874857D01*
X93181714Y-159947428D01*
X93145428Y-160056285D01*
X93072857Y-160128857D01*
X93000285Y-160165142D01*
X92855142Y-160201428D01*
X92746285Y-160201428D01*
X92601142Y-160165142D01*
X92528571Y-160128857D01*
X92456000Y-160056285D01*
X92419714Y-159947428D01*
X92419714Y-159874857D01*
X92456000Y-159766000D01*
X92492285Y-159729714D01*
X92419714Y-159512000D02*
X92419714Y-159076571D01*
X93181714Y-159294285D02*
X92419714Y-159294285D01*
X93181714Y-158423428D02*
X93181714Y-158858857D01*
X93181714Y-158641142D02*
X92419714Y-158641142D01*
X92528571Y-158713714D01*
X92601142Y-158786285D01*
X92637428Y-158858857D01*
X97681142Y-172193857D02*
X97717428Y-172230142D01*
X97753714Y-172339000D01*
X97753714Y-172411571D01*
X97717428Y-172520428D01*
X97644857Y-172593000D01*
X97572285Y-172629285D01*
X97427142Y-172665571D01*
X97318285Y-172665571D01*
X97173142Y-172629285D01*
X97100571Y-172593000D01*
X97028000Y-172520428D01*
X96991714Y-172411571D01*
X96991714Y-172339000D01*
X97028000Y-172230142D01*
X97064285Y-172193857D01*
X97753714Y-171468142D02*
X97753714Y-171903571D01*
X97753714Y-171685857D02*
X96991714Y-171685857D01*
X97100571Y-171758428D01*
X97173142Y-171831000D01*
X97209428Y-171903571D01*
X97753714Y-170742428D02*
X97753714Y-171177857D01*
X97753714Y-170960142D02*
X96991714Y-170960142D01*
X97100571Y-171032714D01*
X97173142Y-171105285D01*
X97209428Y-171177857D01*
X101999142Y-136488714D02*
X101745142Y-136125857D01*
X101563714Y-136488714D02*
X101563714Y-135726714D01*
X101854000Y-135726714D01*
X101926571Y-135763000D01*
X101962857Y-135799285D01*
X101999142Y-135871857D01*
X101999142Y-135980714D01*
X101962857Y-136053285D01*
X101926571Y-136089571D01*
X101854000Y-136125857D01*
X101563714Y-136125857D01*
X102253142Y-135726714D02*
X102724857Y-135726714D01*
X102470857Y-136017000D01*
X102579714Y-136017000D01*
X102652285Y-136053285D01*
X102688571Y-136089571D01*
X102724857Y-136162142D01*
X102724857Y-136343571D01*
X102688571Y-136416142D01*
X102652285Y-136452428D01*
X102579714Y-136488714D01*
X102362000Y-136488714D01*
X102289428Y-136452428D01*
X102253142Y-136416142D01*
X103196571Y-135726714D02*
X103269142Y-135726714D01*
X103341714Y-135763000D01*
X103378000Y-135799285D01*
X103414285Y-135871857D01*
X103450571Y-136017000D01*
X103450571Y-136198428D01*
X103414285Y-136343571D01*
X103378000Y-136416142D01*
X103341714Y-136452428D01*
X103269142Y-136488714D01*
X103196571Y-136488714D01*
X103124000Y-136452428D01*
X103087714Y-136416142D01*
X103051428Y-136343571D01*
X103015142Y-136198428D01*
X103015142Y-136017000D01*
X103051428Y-135871857D01*
X103087714Y-135799285D01*
X103124000Y-135763000D01*
X103196571Y-135726714D01*
X101999142Y-134964714D02*
X101745142Y-134601857D01*
X101563714Y-134964714D02*
X101563714Y-134202714D01*
X101854000Y-134202714D01*
X101926571Y-134239000D01*
X101962857Y-134275285D01*
X101999142Y-134347857D01*
X101999142Y-134456714D01*
X101962857Y-134529285D01*
X101926571Y-134565571D01*
X101854000Y-134601857D01*
X101563714Y-134601857D01*
X102289428Y-134275285D02*
X102325714Y-134239000D01*
X102398285Y-134202714D01*
X102579714Y-134202714D01*
X102652285Y-134239000D01*
X102688571Y-134275285D01*
X102724857Y-134347857D01*
X102724857Y-134420428D01*
X102688571Y-134529285D01*
X102253142Y-134964714D01*
X102724857Y-134964714D01*
X103087714Y-134964714D02*
X103232857Y-134964714D01*
X103305428Y-134928428D01*
X103341714Y-134892142D01*
X103414285Y-134783285D01*
X103450571Y-134638142D01*
X103450571Y-134347857D01*
X103414285Y-134275285D01*
X103378000Y-134239000D01*
X103305428Y-134202714D01*
X103160285Y-134202714D01*
X103087714Y-134239000D01*
X103051428Y-134275285D01*
X103015142Y-134347857D01*
X103015142Y-134529285D01*
X103051428Y-134601857D01*
X103087714Y-134638142D01*
X103160285Y-134674428D01*
X103305428Y-134674428D01*
X103378000Y-134638142D01*
X103414285Y-134601857D01*
X103450571Y-134529285D01*
D12*
X91651666Y-175420261D02*
X91440000Y-175117880D01*
X91288809Y-175420261D02*
X91288809Y-174785261D01*
X91530714Y-174785261D01*
X91591190Y-174815500D01*
X91621428Y-174845738D01*
X91651666Y-174906214D01*
X91651666Y-174996928D01*
X91621428Y-175057404D01*
X91591190Y-175087642D01*
X91530714Y-175117880D01*
X91288809Y-175117880D01*
X92226190Y-174785261D02*
X91923809Y-174785261D01*
X91893571Y-175087642D01*
X91923809Y-175057404D01*
X91984285Y-175027166D01*
X92135476Y-175027166D01*
X92195952Y-175057404D01*
X92226190Y-175087642D01*
X92256428Y-175148119D01*
X92256428Y-175299309D01*
X92226190Y-175359785D01*
X92195952Y-175390023D01*
X92135476Y-175420261D01*
X91984285Y-175420261D01*
X91923809Y-175390023D01*
X91893571Y-175359785D01*
D17*
X92855142Y-162650714D02*
X92601142Y-162287857D01*
X92419714Y-162650714D02*
X92419714Y-161888714D01*
X92710000Y-161888714D01*
X92782571Y-161925000D01*
X92818857Y-161961285D01*
X92855142Y-162033857D01*
X92855142Y-162142714D01*
X92818857Y-162215285D01*
X92782571Y-162251571D01*
X92710000Y-162287857D01*
X92419714Y-162287857D01*
X93580857Y-162650714D02*
X93145428Y-162650714D01*
X93363142Y-162650714D02*
X93363142Y-161888714D01*
X93290571Y-161997571D01*
X93218000Y-162070142D01*
X93145428Y-162106428D01*
X94270285Y-161888714D02*
X93907428Y-161888714D01*
X93871142Y-162251571D01*
X93907428Y-162215285D01*
X93980000Y-162179000D01*
X94161428Y-162179000D01*
X94234000Y-162215285D01*
X94270285Y-162251571D01*
X94306571Y-162324142D01*
X94306571Y-162505571D01*
X94270285Y-162578142D01*
X94234000Y-162614428D01*
X94161428Y-162650714D01*
X93980000Y-162650714D01*
X93907428Y-162614428D01*
X93871142Y-162578142D01*
X92855142Y-168492714D02*
X92601142Y-168129857D01*
X92419714Y-168492714D02*
X92419714Y-167730714D01*
X92710000Y-167730714D01*
X92782571Y-167767000D01*
X92818857Y-167803285D01*
X92855142Y-167875857D01*
X92855142Y-167984714D01*
X92818857Y-168057285D01*
X92782571Y-168093571D01*
X92710000Y-168129857D01*
X92419714Y-168129857D01*
X93580857Y-168492714D02*
X93145428Y-168492714D01*
X93363142Y-168492714D02*
X93363142Y-167730714D01*
X93290571Y-167839571D01*
X93218000Y-167912142D01*
X93145428Y-167948428D01*
X94234000Y-167984714D02*
X94234000Y-168492714D01*
X94052571Y-167694428D02*
X93871142Y-168238714D01*
X94342857Y-168238714D01*
D12*
X91092261Y-178921833D02*
X90789880Y-179133500D01*
X91092261Y-179284690D02*
X90457261Y-179284690D01*
X90457261Y-179042785D01*
X90487500Y-178982309D01*
X90517738Y-178952071D01*
X90578214Y-178921833D01*
X90668928Y-178921833D01*
X90729404Y-178952071D01*
X90759642Y-178982309D01*
X90789880Y-179042785D01*
X90789880Y-179284690D01*
X90729404Y-178558976D02*
X90699166Y-178619452D01*
X90668928Y-178649690D01*
X90608452Y-178679928D01*
X90578214Y-178679928D01*
X90517738Y-178649690D01*
X90487500Y-178619452D01*
X90457261Y-178558976D01*
X90457261Y-178438023D01*
X90487500Y-178377547D01*
X90517738Y-178347309D01*
X90578214Y-178317071D01*
X90608452Y-178317071D01*
X90668928Y-178347309D01*
X90699166Y-178377547D01*
X90729404Y-178438023D01*
X90729404Y-178558976D01*
X90759642Y-178619452D01*
X90789880Y-178649690D01*
X90850357Y-178679928D01*
X90971309Y-178679928D01*
X91031785Y-178649690D01*
X91062023Y-178619452D01*
X91092261Y-178558976D01*
X91092261Y-178438023D01*
X91062023Y-178377547D01*
X91031785Y-178347309D01*
X90971309Y-178317071D01*
X90850357Y-178317071D01*
X90789880Y-178347309D01*
X90759642Y-178377547D01*
X90729404Y-178438023D01*
X102588785Y-147289761D02*
X102377119Y-146987380D01*
X102225928Y-147289761D02*
X102225928Y-146654761D01*
X102467833Y-146654761D01*
X102528309Y-146685000D01*
X102558547Y-146715238D01*
X102588785Y-146775714D01*
X102588785Y-146866428D01*
X102558547Y-146926904D01*
X102528309Y-146957142D01*
X102467833Y-146987380D01*
X102225928Y-146987380D01*
X103193547Y-147289761D02*
X102830690Y-147289761D01*
X103012119Y-147289761D02*
X103012119Y-146654761D01*
X102951642Y-146745476D01*
X102891166Y-146805952D01*
X102830690Y-146836190D01*
X103495928Y-147289761D02*
X103616880Y-147289761D01*
X103677357Y-147259523D01*
X103707595Y-147229285D01*
X103768071Y-147138571D01*
X103798309Y-147017619D01*
X103798309Y-146775714D01*
X103768071Y-146715238D01*
X103737833Y-146685000D01*
X103677357Y-146654761D01*
X103556404Y-146654761D01*
X103495928Y-146685000D01*
X103465690Y-146715238D01*
X103435452Y-146775714D01*
X103435452Y-146926904D01*
X103465690Y-146987380D01*
X103495928Y-147017619D01*
X103556404Y-147047857D01*
X103677357Y-147047857D01*
X103737833Y-147017619D01*
X103768071Y-146987380D01*
X103798309Y-146926904D01*
D17*
X109111142Y-142748000D02*
X109147428Y-142784285D01*
X109183714Y-142893142D01*
X109183714Y-142965714D01*
X109147428Y-143074571D01*
X109074857Y-143147142D01*
X109002285Y-143183428D01*
X108857142Y-143219714D01*
X108748285Y-143219714D01*
X108603142Y-143183428D01*
X108530571Y-143147142D01*
X108458000Y-143074571D01*
X108421714Y-142965714D01*
X108421714Y-142893142D01*
X108458000Y-142784285D01*
X108494285Y-142748000D01*
X108748285Y-142312571D02*
X108712000Y-142385142D01*
X108675714Y-142421428D01*
X108603142Y-142457714D01*
X108566857Y-142457714D01*
X108494285Y-142421428D01*
X108458000Y-142385142D01*
X108421714Y-142312571D01*
X108421714Y-142167428D01*
X108458000Y-142094857D01*
X108494285Y-142058571D01*
X108566857Y-142022285D01*
X108603142Y-142022285D01*
X108675714Y-142058571D01*
X108712000Y-142094857D01*
X108748285Y-142167428D01*
X108748285Y-142312571D01*
X108784571Y-142385142D01*
X108820857Y-142421428D01*
X108893428Y-142457714D01*
X109038571Y-142457714D01*
X109111142Y-142421428D01*
X109147428Y-142385142D01*
X109183714Y-142312571D01*
X109183714Y-142167428D01*
X109147428Y-142094857D01*
X109111142Y-142058571D01*
X109038571Y-142022285D01*
X108893428Y-142022285D01*
X108820857Y-142058571D01*
X108784571Y-142094857D01*
X108748285Y-142167428D01*
X101219000Y-138702142D02*
X101182714Y-138738428D01*
X101073857Y-138774714D01*
X101001285Y-138774714D01*
X100892428Y-138738428D01*
X100819857Y-138665857D01*
X100783571Y-138593285D01*
X100747285Y-138448142D01*
X100747285Y-138339285D01*
X100783571Y-138194142D01*
X100819857Y-138121571D01*
X100892428Y-138049000D01*
X101001285Y-138012714D01*
X101073857Y-138012714D01*
X101182714Y-138049000D01*
X101219000Y-138085285D01*
X101872142Y-138012714D02*
X101727000Y-138012714D01*
X101654428Y-138049000D01*
X101618142Y-138085285D01*
X101545571Y-138194142D01*
X101509285Y-138339285D01*
X101509285Y-138629571D01*
X101545571Y-138702142D01*
X101581857Y-138738428D01*
X101654428Y-138774714D01*
X101799571Y-138774714D01*
X101872142Y-138738428D01*
X101908428Y-138702142D01*
X101944714Y-138629571D01*
X101944714Y-138448142D01*
X101908428Y-138375571D01*
X101872142Y-138339285D01*
X101799571Y-138303000D01*
X101654428Y-138303000D01*
X101581857Y-138339285D01*
X101545571Y-138375571D01*
X101509285Y-138448142D01*
X95141142Y-172212000D02*
X95177428Y-172248285D01*
X95213714Y-172357142D01*
X95213714Y-172429714D01*
X95177428Y-172538571D01*
X95104857Y-172611142D01*
X95032285Y-172647428D01*
X94887142Y-172683714D01*
X94778285Y-172683714D01*
X94633142Y-172647428D01*
X94560571Y-172611142D01*
X94488000Y-172538571D01*
X94451714Y-172429714D01*
X94451714Y-172357142D01*
X94488000Y-172248285D01*
X94524285Y-172212000D01*
X95213714Y-171486285D02*
X95213714Y-171921714D01*
X95213714Y-171704000D02*
X94451714Y-171704000D01*
X94560571Y-171776571D01*
X94633142Y-171849142D01*
X94669428Y-171921714D01*
X100384428Y-132805714D02*
X100384428Y-133422571D01*
X100420714Y-133495142D01*
X100457000Y-133531428D01*
X100529571Y-133567714D01*
X100674714Y-133567714D01*
X100747285Y-133531428D01*
X100783571Y-133495142D01*
X100819857Y-133422571D01*
X100819857Y-132805714D01*
X101110142Y-132805714D02*
X101618142Y-132805714D01*
X101291571Y-133567714D01*
X106734428Y-142013214D02*
X106734428Y-142630071D01*
X106770714Y-142702642D01*
X106807000Y-142738928D01*
X106879571Y-142775214D01*
X107024714Y-142775214D01*
X107097285Y-142738928D01*
X107133571Y-142702642D01*
X107169857Y-142630071D01*
X107169857Y-142013214D01*
X107931857Y-142775214D02*
X107496428Y-142775214D01*
X107714142Y-142775214D02*
X107714142Y-142013214D01*
X107641571Y-142122071D01*
X107569000Y-142194642D01*
X107496428Y-142230928D01*
D11*
X106607428Y-141429619D02*
X106510666Y-141381238D01*
X106462285Y-141332857D01*
X106413904Y-141236095D01*
X106413904Y-140945809D01*
X106462285Y-140849047D01*
X106510666Y-140800666D01*
X106607428Y-140752285D01*
X106752571Y-140752285D01*
X106849333Y-140800666D01*
X106897714Y-140849047D01*
X106946095Y-140945809D01*
X106946095Y-141236095D01*
X106897714Y-141332857D01*
X106849333Y-141381238D01*
X106752571Y-141429619D01*
X106607428Y-141429619D01*
D17*
X93689714Y-172447857D02*
X92927714Y-172447857D01*
X92927714Y-172157571D01*
X92964000Y-172085000D01*
X93000285Y-172048714D01*
X93072857Y-172012428D01*
X93181714Y-172012428D01*
X93254285Y-172048714D01*
X93290571Y-172085000D01*
X93326857Y-172157571D01*
X93326857Y-172447857D01*
X92927714Y-171758428D02*
X93689714Y-171577000D01*
X93145428Y-171431857D01*
X93689714Y-171286714D01*
X92927714Y-171105285D01*
X93689714Y-170379571D02*
X93326857Y-170633571D01*
X93689714Y-170815000D02*
X92927714Y-170815000D01*
X92927714Y-170524714D01*
X92964000Y-170452142D01*
X93000285Y-170415857D01*
X93072857Y-170379571D01*
X93181714Y-170379571D01*
X93254285Y-170415857D01*
X93290571Y-170452142D01*
X93326857Y-170524714D01*
X93326857Y-170815000D01*
X93689714Y-169653857D02*
X93689714Y-170089285D01*
X93689714Y-169871571D02*
X92927714Y-169871571D01*
X93036571Y-169944142D01*
X93109142Y-170016714D01*
X93145428Y-170089285D01*
D12*
X100683785Y-131726214D02*
X100714023Y-131756452D01*
X100744261Y-131847166D01*
X100744261Y-131907642D01*
X100714023Y-131998357D01*
X100653547Y-132058833D01*
X100593071Y-132089071D01*
X100472119Y-132119309D01*
X100381404Y-132119309D01*
X100260452Y-132089071D01*
X100199976Y-132058833D01*
X100139500Y-131998357D01*
X100109261Y-131907642D01*
X100109261Y-131847166D01*
X100139500Y-131756452D01*
X100169738Y-131726214D01*
X100169738Y-131484309D02*
X100139500Y-131454071D01*
X100109261Y-131393595D01*
X100109261Y-131242404D01*
X100139500Y-131181928D01*
X100169738Y-131151690D01*
X100230214Y-131121452D01*
X100290690Y-131121452D01*
X100381404Y-131151690D01*
X100744261Y-131514547D01*
X100744261Y-131121452D01*
X100169738Y-130879547D02*
X100139500Y-130849309D01*
X100109261Y-130788833D01*
X100109261Y-130637642D01*
X100139500Y-130577166D01*
X100169738Y-130546928D01*
X100230214Y-130516690D01*
X100290690Y-130516690D01*
X100381404Y-130546928D01*
X100744261Y-130909785D01*
X100744261Y-130516690D01*
X90904785Y-176841452D02*
X90935023Y-176871690D01*
X90965261Y-176962404D01*
X90965261Y-177022880D01*
X90935023Y-177113595D01*
X90874547Y-177174071D01*
X90814071Y-177204309D01*
X90693119Y-177234547D01*
X90602404Y-177234547D01*
X90481452Y-177204309D01*
X90420976Y-177174071D01*
X90360500Y-177113595D01*
X90330261Y-177022880D01*
X90330261Y-176962404D01*
X90360500Y-176871690D01*
X90390738Y-176841452D01*
X90965261Y-176569309D02*
X90330261Y-176569309D01*
X90632642Y-176569309D02*
X90632642Y-176206452D01*
X90965261Y-176206452D02*
X90330261Y-176206452D01*
X90965261Y-175541214D02*
X90662880Y-175752880D01*
X90965261Y-175904071D02*
X90330261Y-175904071D01*
X90330261Y-175662166D01*
X90360500Y-175601690D01*
X90390738Y-175571452D01*
X90451214Y-175541214D01*
X90541928Y-175541214D01*
X90602404Y-175571452D01*
X90632642Y-175601690D01*
X90662880Y-175662166D01*
X90662880Y-175904071D01*
X90360500Y-174936452D02*
X90330261Y-174996928D01*
X90330261Y-175087642D01*
X90360500Y-175178357D01*
X90420976Y-175238833D01*
X90481452Y-175269071D01*
X90602404Y-175299309D01*
X90693119Y-175299309D01*
X90814071Y-175269071D01*
X90874547Y-175238833D01*
X90935023Y-175178357D01*
X90965261Y-175087642D01*
X90965261Y-175027166D01*
X90935023Y-174936452D01*
X90904785Y-174906214D01*
X90693119Y-174906214D01*
X90693119Y-175027166D01*
X90965261Y-174301452D02*
X90965261Y-174664309D01*
X90965261Y-174482880D02*
X90330261Y-174482880D01*
X90420976Y-174543357D01*
X90481452Y-174603833D01*
X90511690Y-174664309D01*
D11*
X111209666Y-132442857D02*
X111161285Y-132491238D01*
X111016142Y-132539619D01*
X110919380Y-132539619D01*
X110774238Y-132491238D01*
X110677476Y-132394476D01*
X110629095Y-132297714D01*
X110580714Y-132104190D01*
X110580714Y-131959047D01*
X110629095Y-131765523D01*
X110677476Y-131668761D01*
X110774238Y-131572000D01*
X110919380Y-131523619D01*
X111016142Y-131523619D01*
X111161285Y-131572000D01*
X111209666Y-131620380D01*
X111548333Y-131523619D02*
X112225666Y-131523619D01*
X111790238Y-132539619D01*
D17*
X100838000Y-139518571D02*
X100584000Y-139518571D01*
X100584000Y-139917714D02*
X100584000Y-139155714D01*
X100946857Y-139155714D01*
X101237142Y-139518571D02*
X101491142Y-139518571D01*
X101600000Y-139917714D02*
X101237142Y-139917714D01*
X101237142Y-139155714D01*
X101600000Y-139155714D01*
X101817714Y-139155714D02*
X102253142Y-139155714D01*
X102035428Y-139917714D02*
X102035428Y-139155714D01*
X102470857Y-139228285D02*
X102507142Y-139192000D01*
X102579714Y-139155714D01*
X102761142Y-139155714D01*
X102833714Y-139192000D01*
X102870000Y-139228285D01*
X102906285Y-139300857D01*
X102906285Y-139373428D01*
X102870000Y-139482285D01*
X102434571Y-139917714D01*
X102906285Y-139917714D01*
X98679000Y-146630571D02*
X98425000Y-146630571D01*
X98425000Y-147029714D02*
X98425000Y-146267714D01*
X98787857Y-146267714D01*
X99078142Y-146630571D02*
X99332142Y-146630571D01*
X99441000Y-147029714D02*
X99078142Y-147029714D01*
X99078142Y-146267714D01*
X99441000Y-146267714D01*
X99658714Y-146267714D02*
X100094142Y-146267714D01*
X99876428Y-147029714D02*
X99876428Y-146267714D01*
X100747285Y-147029714D02*
X100311857Y-147029714D01*
X100529571Y-147029714D02*
X100529571Y-146267714D01*
X100457000Y-146376571D01*
X100384428Y-146449142D01*
X100311857Y-146485428D01*
X115461142Y-96610714D02*
X115207142Y-96247857D01*
X115025714Y-96610714D02*
X115025714Y-95848714D01*
X115316000Y-95848714D01*
X115388571Y-95885000D01*
X115424857Y-95921285D01*
X115461142Y-95993857D01*
X115461142Y-96102714D01*
X115424857Y-96175285D01*
X115388571Y-96211571D01*
X115316000Y-96247857D01*
X115025714Y-96247857D01*
X116114285Y-96102714D02*
X116114285Y-96610714D01*
X115932857Y-95812428D02*
X115751428Y-96356714D01*
X116223142Y-96356714D01*
X116440857Y-95848714D02*
X116948857Y-95848714D01*
X116622285Y-96610714D01*
X116079031Y-145252736D02*
X116079031Y-145304052D01*
X116027715Y-145406683D01*
X115976400Y-145457999D01*
X115873768Y-145509315D01*
X115771137Y-145509315D01*
X115694163Y-145483657D01*
X115565874Y-145406683D01*
X115488900Y-145329710D01*
X115411926Y-145201420D01*
X115386268Y-145124447D01*
X115386268Y-145021815D01*
X115437584Y-144919184D01*
X115488900Y-144867868D01*
X115591531Y-144816552D01*
X115642847Y-144816552D01*
X116079031Y-144277737D02*
X115822452Y-144534316D01*
X116053373Y-144816552D01*
X116053373Y-144765237D01*
X116079031Y-144688263D01*
X116207320Y-144559974D01*
X116284294Y-144534316D01*
X116335610Y-144534316D01*
X116412583Y-144559974D01*
X116540873Y-144688263D01*
X116566531Y-144765237D01*
X116566531Y-144816552D01*
X116540873Y-144893526D01*
X116412583Y-145021815D01*
X116335610Y-145047473D01*
X116284294Y-145047473D01*
X109111142Y-144653000D02*
X109147428Y-144689285D01*
X109183714Y-144798142D01*
X109183714Y-144870714D01*
X109147428Y-144979571D01*
X109074857Y-145052142D01*
X109002285Y-145088428D01*
X108857142Y-145124714D01*
X108748285Y-145124714D01*
X108603142Y-145088428D01*
X108530571Y-145052142D01*
X108458000Y-144979571D01*
X108421714Y-144870714D01*
X108421714Y-144798142D01*
X108458000Y-144689285D01*
X108494285Y-144653000D01*
X108675714Y-143999857D02*
X109183714Y-143999857D01*
X108385428Y-144181285D02*
X108929714Y-144362714D01*
X108929714Y-143891000D01*
D12*
X94419661Y-96979014D02*
X94117280Y-97190680D01*
X94419661Y-97341871D02*
X93784661Y-97341871D01*
X93784661Y-97099966D01*
X93814900Y-97039490D01*
X93845138Y-97009252D01*
X93905614Y-96979014D01*
X93996328Y-96979014D01*
X94056804Y-97009252D01*
X94087042Y-97039490D01*
X94117280Y-97099966D01*
X94117280Y-97341871D01*
X93784661Y-96767347D02*
X93784661Y-96374252D01*
X94026566Y-96585919D01*
X94026566Y-96495204D01*
X94056804Y-96434728D01*
X94087042Y-96404490D01*
X94147519Y-96374252D01*
X94298709Y-96374252D01*
X94359185Y-96404490D01*
X94389423Y-96434728D01*
X94419661Y-96495204D01*
X94419661Y-96676633D01*
X94389423Y-96737109D01*
X94359185Y-96767347D01*
X93845138Y-96132347D02*
X93814900Y-96102109D01*
X93784661Y-96041633D01*
X93784661Y-95890442D01*
X93814900Y-95829966D01*
X93845138Y-95799728D01*
X93905614Y-95769490D01*
X93966090Y-95769490D01*
X94056804Y-95799728D01*
X94419661Y-96162585D01*
X94419661Y-95769490D01*
D11*
X99144666Y-163654619D02*
X98660857Y-163654619D01*
X98660857Y-162638619D01*
X99918761Y-162977285D02*
X99918761Y-163654619D01*
X99676857Y-162590238D02*
X99434952Y-163315952D01*
X100063904Y-163315952D01*
D17*
X106952142Y-146140714D02*
X106698142Y-145777857D01*
X106516714Y-146140714D02*
X106516714Y-145378714D01*
X106807000Y-145378714D01*
X106879571Y-145415000D01*
X106915857Y-145451285D01*
X106952142Y-145523857D01*
X106952142Y-145632714D01*
X106915857Y-145705285D01*
X106879571Y-145741571D01*
X106807000Y-145777857D01*
X106516714Y-145777857D01*
X107677857Y-146140714D02*
X107242428Y-146140714D01*
X107460142Y-146140714D02*
X107460142Y-145378714D01*
X107387571Y-145487571D01*
X107315000Y-145560142D01*
X107242428Y-145596428D01*
X108113285Y-145705285D02*
X108040714Y-145669000D01*
X108004428Y-145632714D01*
X107968142Y-145560142D01*
X107968142Y-145523857D01*
X108004428Y-145451285D01*
X108040714Y-145415000D01*
X108113285Y-145378714D01*
X108258428Y-145378714D01*
X108331000Y-145415000D01*
X108367285Y-145451285D01*
X108403571Y-145523857D01*
X108403571Y-145560142D01*
X108367285Y-145632714D01*
X108331000Y-145669000D01*
X108258428Y-145705285D01*
X108113285Y-145705285D01*
X108040714Y-145741571D01*
X108004428Y-145777857D01*
X107968142Y-145850428D01*
X107968142Y-145995571D01*
X108004428Y-146068142D01*
X108040714Y-146104428D01*
X108113285Y-146140714D01*
X108258428Y-146140714D01*
X108331000Y-146104428D01*
X108367285Y-146068142D01*
X108403571Y-145995571D01*
X108403571Y-145850428D01*
X108367285Y-145777857D01*
X108331000Y-145741571D01*
X108258428Y-145705285D01*
D18*
X101445785Y-130114523D02*
X101445785Y-131142619D01*
X101506261Y-131263571D01*
X101566738Y-131324047D01*
X101687690Y-131384523D01*
X101929595Y-131384523D01*
X102050547Y-131324047D01*
X102111023Y-131263571D01*
X102171500Y-131142619D01*
X102171500Y-130114523D01*
X102776261Y-130719285D02*
X103199595Y-130719285D01*
X103381023Y-131384523D02*
X102776261Y-131384523D01*
X102776261Y-130114523D01*
X103381023Y-130114523D01*
X103804357Y-130114523D02*
X104651023Y-131384523D01*
X104651023Y-130114523D02*
X103804357Y-131384523D01*
X104953404Y-130114523D02*
X105679119Y-130114523D01*
X105316261Y-131384523D02*
X105316261Y-130114523D01*
X106767690Y-131384523D02*
X106041976Y-131384523D01*
X106404833Y-131384523D02*
X106404833Y-130114523D01*
X106283880Y-130295952D01*
X106162928Y-130416904D01*
X106041976Y-130477380D01*
D11*
X96792142Y-122488476D02*
X96852619Y-122428000D01*
X96973571Y-122367523D01*
X97275952Y-122367523D01*
X97396904Y-122428000D01*
X97457380Y-122488476D01*
X97517857Y-122609428D01*
X97517857Y-122730380D01*
X97457380Y-122911809D01*
X96731666Y-123637523D01*
X97517857Y-123637523D01*
X97517857Y-126177523D02*
X96792142Y-126177523D01*
X97155000Y-126177523D02*
X97155000Y-124907523D01*
X97034047Y-125088952D01*
X96913095Y-125209904D01*
X96792142Y-125270380D01*
X98358476Y-155272619D02*
X98358476Y-156095095D01*
X98406857Y-156191857D01*
X98455238Y-156240238D01*
X98552000Y-156288619D01*
X98745523Y-156288619D01*
X98842285Y-156240238D01*
X98890666Y-156191857D01*
X98939047Y-156095095D01*
X98939047Y-155272619D01*
X99374476Y-156240238D02*
X99519619Y-156288619D01*
X99761523Y-156288619D01*
X99858285Y-156240238D01*
X99906666Y-156191857D01*
X99955047Y-156095095D01*
X99955047Y-155998333D01*
X99906666Y-155901571D01*
X99858285Y-155853190D01*
X99761523Y-155804809D01*
X99568000Y-155756428D01*
X99471238Y-155708047D01*
X99422857Y-155659666D01*
X99374476Y-155562904D01*
X99374476Y-155466142D01*
X99422857Y-155369380D01*
X99471238Y-155321000D01*
X99568000Y-155272619D01*
X99809904Y-155272619D01*
X99955047Y-155321000D01*
X100729142Y-155756428D02*
X100874285Y-155804809D01*
X100922666Y-155853190D01*
X100971047Y-155949952D01*
X100971047Y-156095095D01*
X100922666Y-156191857D01*
X100874285Y-156240238D01*
X100777523Y-156288619D01*
X100390476Y-156288619D01*
X100390476Y-155272619D01*
X100729142Y-155272619D01*
X100825904Y-155321000D01*
X100874285Y-155369380D01*
X100922666Y-155466142D01*
X100922666Y-155562904D01*
X100874285Y-155659666D01*
X100825904Y-155708047D01*
X100729142Y-155756428D01*
X100390476Y-155756428D01*
X101406476Y-155901571D02*
X102180571Y-155901571D01*
X102664380Y-155272619D02*
X102664380Y-156095095D01*
X102712761Y-156191857D01*
X102761142Y-156240238D01*
X102857904Y-156288619D01*
X103051428Y-156288619D01*
X103148190Y-156240238D01*
X103196571Y-156191857D01*
X103244952Y-156095095D01*
X103244952Y-155272619D01*
X103680380Y-155998333D02*
X104164190Y-155998333D01*
X103583619Y-156288619D02*
X103922285Y-155272619D01*
X104260952Y-156288619D01*
X105180190Y-156288619D02*
X104841523Y-155804809D01*
X104599619Y-156288619D02*
X104599619Y-155272619D01*
X104986666Y-155272619D01*
X105083428Y-155321000D01*
X105131809Y-155369380D01*
X105180190Y-155466142D01*
X105180190Y-155611285D01*
X105131809Y-155708047D01*
X105083428Y-155756428D01*
X104986666Y-155804809D01*
X104599619Y-155804809D01*
X105470476Y-155272619D02*
X106051047Y-155272619D01*
X105760761Y-156288619D02*
X105760761Y-155272619D01*
X106921904Y-156288619D02*
X106341333Y-156288619D01*
X106631619Y-156288619D02*
X106631619Y-155272619D01*
X106534857Y-155417761D01*
X106438095Y-155514523D01*
X106341333Y-155562904D01*
D19*
X55033333Y-223338571D02*
X55396190Y-223459523D01*
X55517142Y-223580476D01*
X55638095Y-223822380D01*
X55638095Y-224185238D01*
X55517142Y-224427142D01*
X55396190Y-224548095D01*
X55154285Y-224669047D01*
X54186666Y-224669047D01*
X54186666Y-222129047D01*
X55033333Y-222129047D01*
X55275238Y-222250000D01*
X55396190Y-222370952D01*
X55517142Y-222612857D01*
X55517142Y-222854761D01*
X55396190Y-223096666D01*
X55275238Y-223217619D01*
X55033333Y-223338571D01*
X54186666Y-223338571D01*
X56726666Y-223822380D02*
X57815238Y-223822380D01*
X56726666Y-222975714D02*
X56726666Y-224669047D01*
X57815238Y-222975714D02*
X57815238Y-224669047D01*
X59024761Y-222975714D02*
X59024761Y-224669047D01*
X60234285Y-222975714D01*
X60234285Y-224669047D01*
X61443809Y-224669047D02*
X61443809Y-222975714D01*
X62169523Y-224306190D01*
X62895238Y-222975714D01*
X62895238Y-224669047D01*
X65193333Y-224669047D02*
X65193333Y-223338571D01*
X65072380Y-223096666D01*
X64830476Y-222975714D01*
X64346666Y-222975714D01*
X64104761Y-223096666D01*
X65193333Y-224548095D02*
X64951428Y-224669047D01*
X64346666Y-224669047D01*
X64104761Y-224548095D01*
X63983809Y-224306190D01*
X63983809Y-224064285D01*
X64104761Y-223822380D01*
X64346666Y-223701428D01*
X64951428Y-223701428D01*
X65193333Y-223580476D01*
X66402857Y-223822380D02*
X67491428Y-223822380D01*
X66402857Y-222975714D02*
X66402857Y-224669047D01*
X67491428Y-222975714D02*
X67491428Y-224669047D01*
X68700952Y-222975714D02*
X68700952Y-224669047D01*
X69910476Y-222975714D01*
X69910476Y-224669047D01*
X72087619Y-224548095D02*
X71845714Y-224669047D01*
X71361904Y-224669047D01*
X71120000Y-224548095D01*
X70999047Y-224306190D01*
X70999047Y-223338571D01*
X71120000Y-223096666D01*
X71361904Y-222975714D01*
X71845714Y-222975714D01*
X72087619Y-223096666D01*
X72208571Y-223338571D01*
X72208571Y-223580476D01*
X70999047Y-223822380D01*
X73297142Y-224427142D02*
X73418095Y-224548095D01*
X73297142Y-224669047D01*
X73176190Y-224548095D01*
X73297142Y-224427142D01*
X73297142Y-224669047D01*
X73297142Y-223701428D02*
X73176190Y-222250000D01*
X73297142Y-222129047D01*
X73418095Y-222250000D01*
X73297142Y-223701428D01*
X73297142Y-222129047D01*
X76441904Y-222129047D02*
X76441904Y-224669047D01*
X77893333Y-222129047D01*
X77893333Y-224669047D01*
X79102857Y-224669047D02*
X79102857Y-222975714D01*
X79828571Y-224306190D01*
X80554285Y-222975714D01*
X80554285Y-224669047D01*
X82852380Y-224669047D02*
X82852380Y-223338571D01*
X82731428Y-223096666D01*
X82489523Y-222975714D01*
X82005714Y-222975714D01*
X81763809Y-223096666D01*
X82852380Y-224548095D02*
X82610476Y-224669047D01*
X82005714Y-224669047D01*
X81763809Y-224548095D01*
X81642857Y-224306190D01*
X81642857Y-224064285D01*
X81763809Y-223822380D01*
X82005714Y-223701428D01*
X82610476Y-223701428D01*
X82852380Y-223580476D01*
X86722857Y-222129047D02*
X86722857Y-225515714D01*
X86480952Y-222975714D02*
X86964761Y-222975714D01*
X87206666Y-223096666D01*
X87448571Y-223338571D01*
X87569523Y-223580476D01*
X87569523Y-224064285D01*
X87448571Y-224306190D01*
X87206666Y-224548095D01*
X86964761Y-224669047D01*
X86480952Y-224669047D01*
X86239047Y-224548095D01*
X85997142Y-224306190D01*
X85876190Y-224064285D01*
X85876190Y-223580476D01*
X85997142Y-223338571D01*
X86239047Y-223096666D01*
X86480952Y-222975714D01*
X88658095Y-222975714D02*
X88658095Y-225515714D01*
X88658095Y-223096666D02*
X88900000Y-222975714D01*
X89383809Y-222975714D01*
X89625714Y-223096666D01*
X89746666Y-223217619D01*
X89867619Y-223459523D01*
X89867619Y-224185238D01*
X89746666Y-224427142D01*
X89625714Y-224548095D01*
X89383809Y-224669047D01*
X88900000Y-224669047D01*
X88658095Y-224548095D01*
X91923809Y-224548095D02*
X91681904Y-224669047D01*
X91198095Y-224669047D01*
X90956190Y-224548095D01*
X90835238Y-224306190D01*
X90835238Y-223338571D01*
X90956190Y-223096666D01*
X91198095Y-222975714D01*
X91681904Y-222975714D01*
X91923809Y-223096666D01*
X92044761Y-223338571D01*
X92044761Y-223580476D01*
X90835238Y-223822380D01*
X93375238Y-223822380D02*
X93617142Y-223822380D01*
X92891428Y-223096666D02*
X93133333Y-222975714D01*
X93617142Y-222975714D01*
X93859047Y-223096666D01*
X93980000Y-223338571D01*
X93980000Y-223459523D01*
X93859047Y-223701428D01*
X93617142Y-223822380D01*
X93859047Y-223943333D01*
X93980000Y-224185238D01*
X93980000Y-224306190D01*
X93859047Y-224548095D01*
X93617142Y-224669047D01*
X93133333Y-224669047D01*
X92891428Y-224548095D01*
X95431428Y-224669047D02*
X95189523Y-224548095D01*
X95068571Y-224427142D01*
X94947619Y-224185238D01*
X94947619Y-223459523D01*
X95068571Y-223217619D01*
X95189523Y-223096666D01*
X95431428Y-222975714D01*
X95794285Y-222975714D01*
X96036190Y-223096666D01*
X96157142Y-223217619D01*
X96278095Y-223459523D01*
X96278095Y-224185238D01*
X96157142Y-224427142D01*
X96036190Y-224548095D01*
X95794285Y-224669047D01*
X95431428Y-224669047D01*
X97971428Y-223822380D02*
X98334285Y-223943333D01*
X98455238Y-224185238D01*
X98455238Y-224306190D01*
X98334285Y-224548095D01*
X98092380Y-224669047D01*
X97366666Y-224669047D01*
X97366666Y-222975714D01*
X97971428Y-222975714D01*
X98213333Y-223096666D01*
X98334285Y-223338571D01*
X98334285Y-223459523D01*
X98213333Y-223701428D01*
X97971428Y-223822380D01*
X97366666Y-223822380D01*
X100632380Y-224669047D02*
X100632380Y-223338571D01*
X100511428Y-223096666D01*
X100269523Y-222975714D01*
X99785714Y-222975714D01*
X99543809Y-223096666D01*
X100632380Y-224548095D02*
X100390476Y-224669047D01*
X99785714Y-224669047D01*
X99543809Y-224548095D01*
X99422857Y-224306190D01*
X99422857Y-224064285D01*
X99543809Y-223822380D01*
X99785714Y-223701428D01*
X100390476Y-223701428D01*
X100632380Y-223580476D01*
X101841904Y-223822380D02*
X102930476Y-223822380D01*
X101841904Y-222975714D02*
X101841904Y-224669047D01*
X102930476Y-222975714D02*
X102930476Y-224669047D01*
X105107619Y-224548095D02*
X104865714Y-224669047D01*
X104381904Y-224669047D01*
X104140000Y-224548095D01*
X104019047Y-224306190D01*
X104019047Y-223338571D01*
X104140000Y-223096666D01*
X104381904Y-222975714D01*
X104865714Y-222975714D01*
X105107619Y-223096666D01*
X105228571Y-223338571D01*
X105228571Y-223580476D01*
X104019047Y-223822380D01*
X108252380Y-223822380D02*
X109340952Y-223822380D01*
X108252380Y-222975714D02*
X108252380Y-224669047D01*
X109340952Y-222975714D02*
X109340952Y-224669047D01*
X111639047Y-224669047D02*
X111639047Y-223338571D01*
X111518095Y-223096666D01*
X111276190Y-222975714D01*
X110792380Y-222975714D01*
X110550476Y-223096666D01*
X111639047Y-224548095D02*
X111397142Y-224669047D01*
X110792380Y-224669047D01*
X110550476Y-224548095D01*
X110429523Y-224306190D01*
X110429523Y-224064285D01*
X110550476Y-223822380D01*
X110792380Y-223701428D01*
X111397142Y-223701428D01*
X111639047Y-223580476D01*
X112848571Y-224669047D02*
X112848571Y-222975714D01*
X113937142Y-222975714D01*
X113937142Y-224669047D01*
X115146666Y-222975714D02*
X115146666Y-225515714D01*
X115146666Y-223096666D02*
X115388571Y-222975714D01*
X115872380Y-222975714D01*
X116114285Y-223096666D01*
X116235238Y-223217619D01*
X116356190Y-223459523D01*
X116356190Y-224185238D01*
X116235238Y-224427142D01*
X116114285Y-224548095D01*
X115872380Y-224669047D01*
X115388571Y-224669047D01*
X115146666Y-224548095D01*
X118533333Y-224669047D02*
X118533333Y-223338571D01*
X118412380Y-223096666D01*
X118170476Y-222975714D01*
X117686666Y-222975714D01*
X117444761Y-223096666D01*
X118533333Y-224548095D02*
X118291428Y-224669047D01*
X117686666Y-224669047D01*
X117444761Y-224548095D01*
X117323809Y-224306190D01*
X117323809Y-224064285D01*
X117444761Y-223822380D01*
X117686666Y-223701428D01*
X118291428Y-223701428D01*
X118533333Y-223580476D01*
X120347619Y-223822380D02*
X120710476Y-223943333D01*
X120831428Y-224185238D01*
X120831428Y-224306190D01*
X120710476Y-224548095D01*
X120468571Y-224669047D01*
X119742857Y-224669047D01*
X119742857Y-222975714D01*
X120347619Y-222975714D01*
X120589523Y-223096666D01*
X120710476Y-223338571D01*
X120710476Y-223459523D01*
X120589523Y-223701428D01*
X120347619Y-223822380D01*
X119742857Y-223822380D01*
X122887619Y-224548095D02*
X122645714Y-224669047D01*
X122161904Y-224669047D01*
X121920000Y-224548095D01*
X121799047Y-224306190D01*
X121799047Y-223338571D01*
X121920000Y-223096666D01*
X122161904Y-222975714D01*
X122645714Y-222975714D01*
X122887619Y-223096666D01*
X123008571Y-223338571D01*
X123008571Y-223580476D01*
X121799047Y-223822380D01*
X124097142Y-223822380D02*
X125185714Y-223822380D01*
X124097142Y-222975714D02*
X124097142Y-224669047D01*
X125185714Y-222975714D02*
X125185714Y-224669047D01*
X126758095Y-224669047D02*
X126516190Y-224548095D01*
X126395238Y-224427142D01*
X126274285Y-224185238D01*
X126274285Y-223459523D01*
X126395238Y-223217619D01*
X126516190Y-223096666D01*
X126758095Y-222975714D01*
X127120952Y-222975714D01*
X127362857Y-223096666D01*
X127483809Y-223217619D01*
X127604761Y-223459523D01*
X127604761Y-224185238D01*
X127483809Y-224427142D01*
X127362857Y-224548095D01*
X127120952Y-224669047D01*
X126758095Y-224669047D01*
X131717142Y-224548095D02*
X131475238Y-224669047D01*
X130991428Y-224669047D01*
X130749523Y-224548095D01*
X130628571Y-224427142D01*
X130507619Y-224185238D01*
X130507619Y-223459523D01*
X130628571Y-223217619D01*
X130749523Y-223096666D01*
X130991428Y-222975714D01*
X131475238Y-222975714D01*
X131717142Y-223096666D01*
X134740952Y-224669047D02*
X134740952Y-222129047D01*
X135345714Y-222129047D01*
X135708571Y-222250000D01*
X135950476Y-222491904D01*
X136071428Y-222733809D01*
X136192380Y-223217619D01*
X136192380Y-223580476D01*
X136071428Y-224064285D01*
X135950476Y-224306190D01*
X135708571Y-224548095D01*
X135345714Y-224669047D01*
X134740952Y-224669047D01*
X137280952Y-224669047D02*
X137280952Y-222975714D01*
X137280952Y-223459523D02*
X137401904Y-223217619D01*
X137522857Y-223096666D01*
X137764761Y-222975714D01*
X138006666Y-222975714D01*
X138853333Y-224669047D02*
X138853333Y-222975714D01*
X138853333Y-222129047D02*
X138732380Y-222250000D01*
X138853333Y-222370952D01*
X138974285Y-222250000D01*
X138853333Y-222129047D01*
X138853333Y-222370952D01*
X140425714Y-224669047D02*
X140183809Y-224548095D01*
X140062857Y-224306190D01*
X140062857Y-222129047D01*
X141756190Y-224669047D02*
X141514285Y-224548095D01*
X141393333Y-224306190D01*
X141393333Y-222129047D01*
X144538095Y-224548095D02*
X144900952Y-224669047D01*
X145505714Y-224669047D01*
X145747619Y-224548095D01*
X145868571Y-224427142D01*
X145989523Y-224185238D01*
X145989523Y-223943333D01*
X145868571Y-223701428D01*
X145747619Y-223580476D01*
X145505714Y-223459523D01*
X145021904Y-223338571D01*
X144780000Y-223217619D01*
X144659047Y-223096666D01*
X144538095Y-222854761D01*
X144538095Y-222612857D01*
X144659047Y-222370952D01*
X144780000Y-222250000D01*
X145021904Y-222129047D01*
X145626666Y-222129047D01*
X145989523Y-222250000D01*
X147440952Y-224669047D02*
X147199047Y-224548095D01*
X147078095Y-224306190D01*
X147078095Y-222129047D01*
X148771428Y-224669047D02*
X148529523Y-224548095D01*
X148408571Y-224427142D01*
X148287619Y-224185238D01*
X148287619Y-223459523D01*
X148408571Y-223217619D01*
X148529523Y-223096666D01*
X148771428Y-222975714D01*
X149134285Y-222975714D01*
X149376190Y-223096666D01*
X149497142Y-223217619D01*
X149618095Y-223459523D01*
X149618095Y-224185238D01*
X149497142Y-224427142D01*
X149376190Y-224548095D01*
X149134285Y-224669047D01*
X148771428Y-224669047D01*
X150343809Y-222975714D02*
X151311428Y-222975714D01*
X150706666Y-222129047D02*
X150706666Y-224306190D01*
X150827619Y-224548095D01*
X151069523Y-224669047D01*
X151311428Y-224669047D01*
X152037142Y-224548095D02*
X152279047Y-224669047D01*
X152762857Y-224669047D01*
X153004761Y-224548095D01*
X153125714Y-224306190D01*
X153125714Y-224185238D01*
X153004761Y-223943333D01*
X152762857Y-223822380D01*
X152400000Y-223822380D01*
X152158095Y-223701428D01*
X152037142Y-223459523D01*
X152037142Y-223338571D01*
X152158095Y-223096666D01*
X152400000Y-222975714D01*
X152762857Y-222975714D01*
X153004761Y-223096666D01*
X154214285Y-224427142D02*
X154335238Y-224548095D01*
X154214285Y-224669047D01*
X154093333Y-224548095D01*
X154214285Y-224427142D01*
X154214285Y-224669047D01*
X154214285Y-223701428D02*
X154093333Y-222250000D01*
X154214285Y-222129047D01*
X154335238Y-222250000D01*
X154214285Y-223701428D01*
X154214285Y-222129047D01*
X155423809Y-224427142D02*
X155544761Y-224548095D01*
X155423809Y-224669047D01*
X155302857Y-224548095D01*
X155423809Y-224427142D01*
X155423809Y-224669047D01*
X155423809Y-223701428D02*
X155302857Y-222250000D01*
X155423809Y-222129047D01*
X155544761Y-222250000D01*
X155423809Y-223701428D01*
X155423809Y-222129047D01*
X156633333Y-224427142D02*
X156754285Y-224548095D01*
X156633333Y-224669047D01*
X156512380Y-224548095D01*
X156633333Y-224427142D01*
X156633333Y-224669047D01*
X156633333Y-223701428D02*
X156512380Y-222250000D01*
X156633333Y-222129047D01*
X156754285Y-222250000D01*
X156633333Y-223701428D01*
X156633333Y-222129047D01*
D17*
X99023714Y-178181000D02*
X99023714Y-177745571D01*
X99785714Y-177963285D02*
X99023714Y-177963285D01*
X99023714Y-177600428D02*
X99785714Y-177346428D01*
X99023714Y-177092428D01*
X99749428Y-176874714D02*
X99785714Y-176765857D01*
X99785714Y-176584428D01*
X99749428Y-176511857D01*
X99713142Y-176475571D01*
X99640571Y-176439285D01*
X99568000Y-176439285D01*
X99495428Y-176475571D01*
X99459142Y-176511857D01*
X99422857Y-176584428D01*
X99386571Y-176729571D01*
X99350285Y-176802142D01*
X99314000Y-176838428D01*
X99241428Y-176874714D01*
X99168857Y-176874714D01*
X99096285Y-176838428D01*
X99060000Y-176802142D01*
X99023714Y-176729571D01*
X99023714Y-176548142D01*
X99060000Y-176439285D01*
X99785714Y-175713571D02*
X99785714Y-176149000D01*
X99785714Y-175931285D02*
X99023714Y-175931285D01*
X99132571Y-176003857D01*
X99205142Y-176076428D01*
X99241428Y-176149000D01*
D11*
X100339071Y-187125428D02*
X100339071Y-187669714D01*
X99196071Y-187669714D01*
X100012500Y-186798857D02*
X100012500Y-186254571D01*
X100339071Y-186907714D02*
X99196071Y-186526714D01*
X100339071Y-186145714D01*
X100339071Y-185764714D02*
X99196071Y-185764714D01*
X100339071Y-185111571D01*
X99196071Y-185111571D01*
X100447928Y-184839428D02*
X100447928Y-183968571D01*
X100230214Y-183043285D02*
X100284642Y-183097714D01*
X100339071Y-183261000D01*
X100339071Y-183369857D01*
X100284642Y-183533142D01*
X100175785Y-183642000D01*
X100066928Y-183696428D01*
X99849214Y-183750857D01*
X99685928Y-183750857D01*
X99468214Y-183696428D01*
X99359357Y-183642000D01*
X99250500Y-183533142D01*
X99196071Y-183369857D01*
X99196071Y-183261000D01*
X99250500Y-183097714D01*
X99304928Y-183043285D01*
X99196071Y-182335714D02*
X99196071Y-182118000D01*
X99250500Y-182009142D01*
X99359357Y-181900285D01*
X99577071Y-181845857D01*
X99958071Y-181845857D01*
X100175785Y-181900285D01*
X100284642Y-182009142D01*
X100339071Y-182118000D01*
X100339071Y-182335714D01*
X100284642Y-182444571D01*
X100175785Y-182553428D01*
X99958071Y-182607857D01*
X99577071Y-182607857D01*
X99359357Y-182553428D01*
X99250500Y-182444571D01*
X99196071Y-182335714D01*
X100339071Y-181356000D02*
X99196071Y-181356000D01*
X100339071Y-180702857D01*
X99196071Y-180702857D01*
X100339071Y-179559857D02*
X100339071Y-180213000D01*
X100339071Y-179886428D02*
X99196071Y-179886428D01*
X99359357Y-179995285D01*
X99468214Y-180104142D01*
X99522642Y-180213000D01*
X115678857Y-162922857D02*
X115630476Y-162971238D01*
X115485333Y-163019619D01*
X115388571Y-163019619D01*
X115243428Y-162971238D01*
X115146666Y-162874476D01*
X115098285Y-162777714D01*
X115049904Y-162584190D01*
X115049904Y-162439047D01*
X115098285Y-162245523D01*
X115146666Y-162148761D01*
X115243428Y-162052000D01*
X115388571Y-162003619D01*
X115485333Y-162003619D01*
X115630476Y-162052000D01*
X115678857Y-162100380D01*
X116065904Y-162100380D02*
X116114285Y-162052000D01*
X116211047Y-162003619D01*
X116452952Y-162003619D01*
X116549714Y-162052000D01*
X116598095Y-162100380D01*
X116646476Y-162197142D01*
X116646476Y-162293904D01*
X116598095Y-162439047D01*
X116017523Y-163019619D01*
X116646476Y-163019619D01*
X117517333Y-162003619D02*
X117323809Y-162003619D01*
X117227047Y-162052000D01*
X117178666Y-162100380D01*
X117081904Y-162245523D01*
X117033523Y-162439047D01*
X117033523Y-162826095D01*
X117081904Y-162922857D01*
X117130285Y-162971238D01*
X117227047Y-163019619D01*
X117420571Y-163019619D01*
X117517333Y-162971238D01*
X117565714Y-162922857D01*
X117614095Y-162826095D01*
X117614095Y-162584190D01*
X117565714Y-162487428D01*
X117517333Y-162439047D01*
X117420571Y-162390666D01*
X117227047Y-162390666D01*
X117130285Y-162439047D01*
X117081904Y-162487428D01*
X117033523Y-162584190D01*
X116737190Y-160999714D02*
X117704809Y-160999714D01*
X117221000Y-161483523D02*
X117221000Y-160515904D01*
X115751190Y-159551714D02*
X116718809Y-159551714D01*
X116235000Y-160035523D02*
X116235000Y-159067904D01*
X114463285Y-168099619D02*
X114463285Y-167083619D01*
X114705190Y-167083619D01*
X114850333Y-167132000D01*
X114947095Y-167228761D01*
X114995476Y-167325523D01*
X115043857Y-167519047D01*
X115043857Y-167664190D01*
X114995476Y-167857714D01*
X114947095Y-167954476D01*
X114850333Y-168051238D01*
X114705190Y-168099619D01*
X114463285Y-168099619D01*
X116011476Y-168099619D02*
X115430904Y-168099619D01*
X115721190Y-168099619D02*
X115721190Y-167083619D01*
X115624428Y-167228761D01*
X115527666Y-167325523D01*
X115430904Y-167373904D01*
X116640428Y-167083619D02*
X116737190Y-167083619D01*
X116833952Y-167132000D01*
X116882333Y-167180380D01*
X116930714Y-167277142D01*
X116979095Y-167470666D01*
X116979095Y-167712571D01*
X116930714Y-167906095D01*
X116882333Y-168002857D01*
X116833952Y-168051238D01*
X116737190Y-168099619D01*
X116640428Y-168099619D01*
X116543666Y-168051238D01*
X116495285Y-168002857D01*
X116446904Y-167906095D01*
X116398523Y-167712571D01*
X116398523Y-167470666D01*
X116446904Y-167277142D01*
X116495285Y-167180380D01*
X116543666Y-167132000D01*
X116640428Y-167083619D01*
X107423857Y-172544619D02*
X107085190Y-172060809D01*
X106843285Y-172544619D02*
X106843285Y-171528619D01*
X107230333Y-171528619D01*
X107327095Y-171577000D01*
X107375476Y-171625380D01*
X107423857Y-171722142D01*
X107423857Y-171867285D01*
X107375476Y-171964047D01*
X107327095Y-172012428D01*
X107230333Y-172060809D01*
X106843285Y-172060809D01*
X107810904Y-171625380D02*
X107859285Y-171577000D01*
X107956047Y-171528619D01*
X108197952Y-171528619D01*
X108294714Y-171577000D01*
X108343095Y-171625380D01*
X108391476Y-171722142D01*
X108391476Y-171818904D01*
X108343095Y-171964047D01*
X107762523Y-172544619D01*
X108391476Y-172544619D01*
X108972047Y-171964047D02*
X108875285Y-171915666D01*
X108826904Y-171867285D01*
X108778523Y-171770523D01*
X108778523Y-171722142D01*
X108826904Y-171625380D01*
X108875285Y-171577000D01*
X108972047Y-171528619D01*
X109165571Y-171528619D01*
X109262333Y-171577000D01*
X109310714Y-171625380D01*
X109359095Y-171722142D01*
X109359095Y-171770523D01*
X109310714Y-171867285D01*
X109262333Y-171915666D01*
X109165571Y-171964047D01*
X108972047Y-171964047D01*
X108875285Y-172012428D01*
X108826904Y-172060809D01*
X108778523Y-172157571D01*
X108778523Y-172351095D01*
X108826904Y-172447857D01*
X108875285Y-172496238D01*
X108972047Y-172544619D01*
X109165571Y-172544619D01*
X109262333Y-172496238D01*
X109310714Y-172447857D01*
X109359095Y-172351095D01*
X109359095Y-172157571D01*
X109310714Y-172060809D01*
X109262333Y-172012428D01*
X109165571Y-171964047D01*
X110344857Y-173717857D02*
X110296476Y-173766238D01*
X110151333Y-173814619D01*
X110054571Y-173814619D01*
X109909428Y-173766238D01*
X109812666Y-173669476D01*
X109764285Y-173572714D01*
X109715904Y-173379190D01*
X109715904Y-173234047D01*
X109764285Y-173040523D01*
X109812666Y-172943761D01*
X109909428Y-172847000D01*
X110054571Y-172798619D01*
X110151333Y-172798619D01*
X110296476Y-172847000D01*
X110344857Y-172895380D01*
X110731904Y-172895380D02*
X110780285Y-172847000D01*
X110877047Y-172798619D01*
X111118952Y-172798619D01*
X111215714Y-172847000D01*
X111264095Y-172895380D01*
X111312476Y-172992142D01*
X111312476Y-173088904D01*
X111264095Y-173234047D01*
X110683523Y-173814619D01*
X111312476Y-173814619D01*
X112183333Y-173137285D02*
X112183333Y-173814619D01*
X111941428Y-172750238D02*
X111699523Y-173475952D01*
X112328476Y-173475952D01*
X114094380Y-113223523D02*
X114094380Y-114251619D01*
X114154857Y-114372571D01*
X114215333Y-114433047D01*
X114336285Y-114493523D01*
X114578190Y-114493523D01*
X114699142Y-114433047D01*
X114759619Y-114372571D01*
X114820095Y-114251619D01*
X114820095Y-113223523D01*
X115969142Y-113223523D02*
X115727238Y-113223523D01*
X115606285Y-113284000D01*
X115545809Y-113344476D01*
X115424857Y-113525904D01*
X115364380Y-113767809D01*
X115364380Y-114251619D01*
X115424857Y-114372571D01*
X115485333Y-114433047D01*
X115606285Y-114493523D01*
X115848190Y-114493523D01*
X115969142Y-114433047D01*
X116029619Y-114372571D01*
X116090095Y-114251619D01*
X116090095Y-113949238D01*
X116029619Y-113828285D01*
X115969142Y-113767809D01*
X115848190Y-113707333D01*
X115606285Y-113707333D01*
X115485333Y-113767809D01*
X115424857Y-113828285D01*
X115364380Y-113949238D01*
X109395380Y-107200095D02*
X109347000Y-107151714D01*
X109298619Y-107054952D01*
X109298619Y-106813047D01*
X109347000Y-106716285D01*
X109395380Y-106667904D01*
X109492142Y-106619523D01*
X109588904Y-106619523D01*
X109734047Y-106667904D01*
X110314619Y-107248476D01*
X110314619Y-106619523D01*
X109637285Y-105748666D02*
X110314619Y-105748666D01*
X109250238Y-105990571D02*
X109975952Y-106232476D01*
X109975952Y-105603523D01*
X98884619Y-106619523D02*
X98884619Y-107200095D01*
X98884619Y-106909809D02*
X97868619Y-106909809D01*
X98013761Y-107006571D01*
X98110523Y-107103333D01*
X98158904Y-107200095D01*
X97868619Y-105700285D02*
X97868619Y-106184095D01*
X98352428Y-106232476D01*
X98304047Y-106184095D01*
X98255666Y-106087333D01*
X98255666Y-105845428D01*
X98304047Y-105748666D01*
X98352428Y-105700285D01*
X98449190Y-105651904D01*
X98691095Y-105651904D01*
X98787857Y-105700285D01*
X98836238Y-105748666D01*
X98884619Y-105845428D01*
X98884619Y-106087333D01*
X98836238Y-106184095D01*
X98787857Y-106232476D01*
X108270523Y-90629619D02*
X108899476Y-90629619D01*
X108560809Y-91016666D01*
X108705952Y-91016666D01*
X108802714Y-91065047D01*
X108851095Y-91113428D01*
X108899476Y-91210190D01*
X108899476Y-91452095D01*
X108851095Y-91548857D01*
X108802714Y-91597238D01*
X108705952Y-91645619D01*
X108415666Y-91645619D01*
X108318904Y-91597238D01*
X108270523Y-91548857D01*
X109480047Y-91065047D02*
X109383285Y-91016666D01*
X109334904Y-90968285D01*
X109286523Y-90871523D01*
X109286523Y-90823142D01*
X109334904Y-90726380D01*
X109383285Y-90678000D01*
X109480047Y-90629619D01*
X109673571Y-90629619D01*
X109770333Y-90678000D01*
X109818714Y-90726380D01*
X109867095Y-90823142D01*
X109867095Y-90871523D01*
X109818714Y-90968285D01*
X109770333Y-91016666D01*
X109673571Y-91065047D01*
X109480047Y-91065047D01*
X109383285Y-91113428D01*
X109334904Y-91161809D01*
X109286523Y-91258571D01*
X109286523Y-91452095D01*
X109334904Y-91548857D01*
X109383285Y-91597238D01*
X109480047Y-91645619D01*
X109673571Y-91645619D01*
X109770333Y-91597238D01*
X109818714Y-91548857D01*
X109867095Y-91452095D01*
X109867095Y-91258571D01*
X109818714Y-91161809D01*
X109770333Y-91113428D01*
X109673571Y-91065047D01*
X109969904Y-113459380D02*
X110018285Y-113411000D01*
X110115047Y-113362619D01*
X110356952Y-113362619D01*
X110453714Y-113411000D01*
X110502095Y-113459380D01*
X110550476Y-113556142D01*
X110550476Y-113652904D01*
X110502095Y-113798047D01*
X109921523Y-114378619D01*
X110550476Y-114378619D01*
X111179428Y-113362619D02*
X111276190Y-113362619D01*
X111372952Y-113411000D01*
X111421333Y-113459380D01*
X111469714Y-113556142D01*
X111518095Y-113749666D01*
X111518095Y-113991571D01*
X111469714Y-114185095D01*
X111421333Y-114281857D01*
X111372952Y-114330238D01*
X111276190Y-114378619D01*
X111179428Y-114378619D01*
X111082666Y-114330238D01*
X111034285Y-114281857D01*
X110985904Y-114185095D01*
X110937523Y-113991571D01*
X110937523Y-113749666D01*
X110985904Y-113556142D01*
X111034285Y-113459380D01*
X111082666Y-113411000D01*
X111179428Y-113362619D01*
X97469476Y-114378619D02*
X96888904Y-114378619D01*
X97179190Y-114378619D02*
X97179190Y-113362619D01*
X97082428Y-113507761D01*
X96985666Y-113604523D01*
X96888904Y-113652904D01*
X97953285Y-114378619D02*
X98146809Y-114378619D01*
X98243571Y-114330238D01*
X98291952Y-114281857D01*
X98388714Y-114136714D01*
X98437095Y-113943190D01*
X98437095Y-113556142D01*
X98388714Y-113459380D01*
X98340333Y-113411000D01*
X98243571Y-113362619D01*
X98050047Y-113362619D01*
X97953285Y-113411000D01*
X97904904Y-113459380D01*
X97856523Y-113556142D01*
X97856523Y-113798047D01*
X97904904Y-113894809D01*
X97953285Y-113943190D01*
X98050047Y-113991571D01*
X98243571Y-113991571D01*
X98340333Y-113943190D01*
X98388714Y-113894809D01*
X98437095Y-113798047D01*
X98842285Y-91645619D02*
X98261714Y-91645619D01*
X98552000Y-91645619D02*
X98552000Y-90629619D01*
X98455238Y-90774761D01*
X98358476Y-90871523D01*
X98261714Y-90919904D01*
X100632380Y-87452666D02*
X101237142Y-87452666D01*
X100511428Y-87815523D02*
X100934761Y-86545523D01*
X101358095Y-87815523D01*
X101781428Y-86968857D02*
X101781428Y-87815523D01*
X101781428Y-87089809D02*
X101841904Y-87029333D01*
X101962857Y-86968857D01*
X102144285Y-86968857D01*
X102265238Y-87029333D01*
X102325714Y-87150285D01*
X102325714Y-87815523D01*
X102749047Y-86968857D02*
X103232857Y-86968857D01*
X102930476Y-86545523D02*
X102930476Y-87634095D01*
X102990952Y-87755047D01*
X103111904Y-87815523D01*
X103232857Y-87815523D01*
X104140000Y-87755047D02*
X104019047Y-87815523D01*
X103777142Y-87815523D01*
X103656190Y-87755047D01*
X103595714Y-87634095D01*
X103595714Y-87150285D01*
X103656190Y-87029333D01*
X103777142Y-86968857D01*
X104019047Y-86968857D01*
X104140000Y-87029333D01*
X104200476Y-87150285D01*
X104200476Y-87271238D01*
X103595714Y-87392190D01*
X104744761Y-86968857D02*
X104744761Y-87815523D01*
X104744761Y-87089809D02*
X104805238Y-87029333D01*
X104926190Y-86968857D01*
X105107619Y-86968857D01*
X105228571Y-87029333D01*
X105289047Y-87150285D01*
X105289047Y-87815523D01*
X105893809Y-86968857D02*
X105893809Y-87815523D01*
X105893809Y-87089809D02*
X105954285Y-87029333D01*
X106075238Y-86968857D01*
X106256666Y-86968857D01*
X106377619Y-87029333D01*
X106438095Y-87150285D01*
X106438095Y-87815523D01*
X107587142Y-87815523D02*
X107587142Y-87150285D01*
X107526666Y-87029333D01*
X107405714Y-86968857D01*
X107163809Y-86968857D01*
X107042857Y-87029333D01*
X107587142Y-87755047D02*
X107466190Y-87815523D01*
X107163809Y-87815523D01*
X107042857Y-87755047D01*
X106982380Y-87634095D01*
X106982380Y-87513142D01*
X107042857Y-87392190D01*
X107163809Y-87331714D01*
X107466190Y-87331714D01*
X107587142Y-87271238D01*
X93762285Y-91506523D02*
X93641333Y-91446047D01*
X93580857Y-91385571D01*
X93520380Y-91264619D01*
X93520380Y-90901761D01*
X93580857Y-90780809D01*
X93641333Y-90720333D01*
X93762285Y-90659857D01*
X93943714Y-90659857D01*
X94064666Y-90720333D01*
X94125142Y-90780809D01*
X94185619Y-90901761D01*
X94185619Y-91264619D01*
X94125142Y-91385571D01*
X94064666Y-91446047D01*
X93943714Y-91506523D01*
X93762285Y-91506523D01*
D17*
X115105542Y-104929214D02*
X114851542Y-104566357D01*
X114670114Y-104929214D02*
X114670114Y-104167214D01*
X114960400Y-104167214D01*
X115032971Y-104203500D01*
X115069257Y-104239785D01*
X115105542Y-104312357D01*
X115105542Y-104421214D01*
X115069257Y-104493785D01*
X115032971Y-104530071D01*
X114960400Y-104566357D01*
X114670114Y-104566357D01*
X115758685Y-104421214D02*
X115758685Y-104929214D01*
X115577257Y-104130928D02*
X115395828Y-104675214D01*
X115867542Y-104675214D01*
X116266685Y-104493785D02*
X116194114Y-104457500D01*
X116157828Y-104421214D01*
X116121542Y-104348642D01*
X116121542Y-104312357D01*
X116157828Y-104239785D01*
X116194114Y-104203500D01*
X116266685Y-104167214D01*
X116411828Y-104167214D01*
X116484400Y-104203500D01*
X116520685Y-104239785D01*
X116556971Y-104312357D01*
X116556971Y-104348642D01*
X116520685Y-104421214D01*
X116484400Y-104457500D01*
X116411828Y-104493785D01*
X116266685Y-104493785D01*
X116194114Y-104530071D01*
X116157828Y-104566357D01*
X116121542Y-104638928D01*
X116121542Y-104784071D01*
X116157828Y-104856642D01*
X116194114Y-104892928D01*
X116266685Y-104929214D01*
X116411828Y-104929214D01*
X116484400Y-104892928D01*
X116520685Y-104856642D01*
X116556971Y-104784071D01*
X116556971Y-104638928D01*
X116520685Y-104566357D01*
X116484400Y-104530071D01*
X116411828Y-104493785D01*
D11*
X95539728Y-185104714D02*
X95592109Y-184947571D01*
X95644490Y-184895190D01*
X95749252Y-184842809D01*
X95906395Y-184842809D01*
X96011157Y-184895190D01*
X96063538Y-184947571D01*
X96115919Y-185052333D01*
X96115919Y-185471380D01*
X95015919Y-185471380D01*
X95015919Y-185104714D01*
X95068300Y-184999952D01*
X95120680Y-184947571D01*
X95225442Y-184895190D01*
X95330204Y-184895190D01*
X95434966Y-184947571D01*
X95487347Y-184999952D01*
X95539728Y-185104714D01*
X95539728Y-185471380D01*
X95801633Y-184423761D02*
X95801633Y-183899952D01*
X96115919Y-184528523D02*
X95015919Y-184161857D01*
X96115919Y-183795190D01*
X95015919Y-183585666D02*
X95015919Y-182957095D01*
X96115919Y-183271380D02*
X95015919Y-183271380D01*
X96115919Y-182014238D02*
X96115919Y-182642809D01*
X96115919Y-182328523D02*
X95015919Y-182328523D01*
X95173061Y-182433285D01*
X95277823Y-182538047D01*
X95330204Y-182642809D01*
X90767120Y-185104365D02*
X90714740Y-185051984D01*
X90662359Y-184947222D01*
X90662359Y-184685318D01*
X90714740Y-184580556D01*
X90767120Y-184528175D01*
X90871882Y-184475794D01*
X90976644Y-184475794D01*
X91133787Y-184528175D01*
X91762359Y-185156746D01*
X91762359Y-184475794D01*
X91711559Y-182471734D02*
X91711559Y-183100305D01*
X91711559Y-182786020D02*
X90611559Y-182786020D01*
X90768701Y-182890781D01*
X90873463Y-182995543D01*
X90925844Y-183100305D01*
M02*
