G04 #@! TF.GenerationSoftware,KiCad,Pcbnew,5.1.6-c6e7f7d~87~ubuntu18.04.1*
G04 #@! TF.CreationDate,2022-07-28T15:35:08+03:00*
G04 #@! TF.ProjectId,ESP32-PoE-ISO_Rev_K,45535033-322d-4506-9f45-2d49534f5f52,K*
G04 #@! TF.SameCoordinates,Original*
G04 #@! TF.FileFunction,Soldermask,Top*
G04 #@! TF.FilePolarity,Negative*
%FSLAX46Y46*%
G04 Gerber Fmt 4.6, Leading zero omitted, Abs format (unit mm)*
G04 Created by KiCad (PCBNEW 5.1.6-c6e7f7d~87~ubuntu18.04.1) date 2022-07-28 15:35:08*
%MOMM*%
%LPD*%
G01*
G04 APERTURE LIST*
%ADD10R,1.601600X1.001600*%
%ADD11C,0.801600*%
%ADD12R,3.101600X1.701600*%
%ADD13C,1.625600*%
%ADD14R,1.625600X1.625600*%
%ADD15R,1.501600X1.301600*%
%ADD16R,1.501600X1.101600*%
%ADD17R,1.101600X1.501600*%
%ADD18R,0.651600X0.601600*%
%ADD19R,0.651600X1.301600*%
%ADD20R,1.371600X1.625600*%
%ADD21R,0.901600X0.901600*%
%ADD22R,0.601600X0.651600*%
%ADD23C,1.879600*%
%ADD24R,1.879600X1.879600*%
%ADD25R,1.117600X1.117600*%
%ADD26R,0.426600X1.371600*%
%ADD27C,1.254000*%
%ADD28R,1.524000X1.524000*%
%ADD29R,3.301600X2.601600*%
%ADD30O,2.133600X6.197600*%
%ADD31C,1.301600*%
%ADD32R,1.101600X4.351600*%
%ADD33R,1.751600X0.601600*%
%ADD34R,1.751600X0.426600*%
%ADD35C,0.701600*%
%ADD36R,1.101600X1.201600*%
%ADD37O,1.901600X1.301600*%
%ADD38C,3.401601*%
%ADD39O,1.701600X3.101599*%
%ADD40R,2.101600X1.801600*%
%ADD41R,1.625600X1.879600*%
%ADD42C,1.901600*%
%ADD43R,1.901600X0.901600*%
%ADD44R,0.901600X1.901600*%
%ADD45R,4.001600X4.001600*%
%ADD46C,1.601600*%
%ADD47C,2.301600*%
%ADD48R,1.501600X1.501600*%
%ADD49C,1.501600*%
%ADD50C,0.203200*%
G04 APERTURE END LIST*
D10*
X115959000Y-101999000D03*
X115959000Y-97645000D03*
D11*
X115059000Y-99822000D03*
X116859000Y-99822000D03*
D10*
X92321000Y-101999000D03*
X92321000Y-97645000D03*
D11*
X91421000Y-99822000D03*
X93221000Y-99822000D03*
D12*
X95377000Y-132150000D03*
X95377000Y-134550000D03*
D13*
X113411000Y-153543000D03*
D14*
X115951000Y-153543000D03*
D13*
X108331000Y-153543000D03*
X105791000Y-153543000D03*
X100711000Y-153543000D03*
X103251000Y-153543000D03*
D15*
X111338000Y-143853000D03*
X113538000Y-145453000D03*
X113538000Y-143853000D03*
X111338000Y-145453000D03*
D13*
X103866000Y-170434000D03*
D14*
X101366000Y-170434000D03*
D16*
X105156000Y-145029000D03*
X105156000Y-141229000D03*
X103124000Y-145029000D03*
X103124000Y-141229000D03*
G36*
G01*
X102935679Y-181571462D02*
X101498838Y-180134622D01*
G75*
G02*
X101498838Y-178625938I754342J754342D01*
G01*
X101498838Y-178625938D01*
G75*
G02*
X103007522Y-178625938I754342J-754342D01*
G01*
X104444362Y-180062778D01*
G75*
G02*
X104444362Y-181571462I-754342J-754342D01*
G01*
X104444362Y-181571462D01*
G75*
G02*
X102935678Y-181571462I-754342J754342D01*
G01*
G37*
D17*
X94620000Y-140970000D03*
X98420000Y-140970000D03*
X98420000Y-143002000D03*
X94620000Y-143002000D03*
D18*
X92075000Y-95250000D03*
X92075000Y-94234000D03*
X91186000Y-94234000D03*
X91186000Y-95250000D03*
X93091000Y-173355000D03*
X93091000Y-174371000D03*
D19*
X92903000Y-179862000D03*
X93853000Y-179862000D03*
X94803000Y-179862000D03*
X92903000Y-177262000D03*
X94803000Y-177262000D03*
D20*
X94488000Y-158242000D03*
X94488000Y-160274000D03*
D21*
X91567000Y-164592000D03*
X91567000Y-166116000D03*
X91567000Y-160401000D03*
X91567000Y-158877000D03*
D18*
X97155000Y-173355000D03*
X97155000Y-174371000D03*
X100838000Y-137414000D03*
X100838000Y-136398000D03*
X100838000Y-134112000D03*
X100838000Y-135128000D03*
X91567000Y-174371000D03*
X91567000Y-173355000D03*
X91567000Y-162941000D03*
X91567000Y-161925000D03*
X91567000Y-168656000D03*
X91567000Y-167640000D03*
X91567000Y-180086000D03*
X91567000Y-179070000D03*
D22*
X104267000Y-146685000D03*
X105283000Y-146685000D03*
X110871000Y-142494000D03*
X109855000Y-142494000D03*
D23*
X116840000Y-146080000D03*
X116840000Y-143540000D03*
X116840000Y-138460000D03*
X116840000Y-141000000D03*
X116840000Y-135920000D03*
X116840000Y-133380000D03*
D24*
X116840000Y-123220000D03*
D23*
X116840000Y-125760000D03*
X116840000Y-128300000D03*
X116840000Y-130840000D03*
X91440000Y-130840000D03*
X91440000Y-128300000D03*
X91440000Y-125760000D03*
D24*
X91440000Y-123220000D03*
D23*
X91440000Y-133380000D03*
X91440000Y-135920000D03*
X91440000Y-141000000D03*
X91440000Y-138460000D03*
X91440000Y-143540000D03*
X91440000Y-146080000D03*
D25*
X99695000Y-138684000D03*
X97917000Y-138684000D03*
X94869000Y-173482000D03*
X94869000Y-175260000D03*
D19*
X99756000Y-134463000D03*
X98806000Y-134463000D03*
X97856000Y-134463000D03*
X99756000Y-137063000D03*
X97856000Y-137063000D03*
D26*
X107565000Y-141033500D03*
X108215000Y-141033500D03*
X108865000Y-141033500D03*
X109515000Y-141033500D03*
X110165000Y-141033500D03*
X110815000Y-141033500D03*
X111465000Y-141033500D03*
X112115000Y-141033500D03*
X112765000Y-141033500D03*
X113415000Y-141033500D03*
X113415000Y-133794500D03*
X112765000Y-133794500D03*
X112115000Y-133794500D03*
X111465000Y-133794500D03*
X110815000Y-133794500D03*
X110165000Y-133794500D03*
X109515000Y-133794500D03*
X108865000Y-133794500D03*
X108215000Y-133794500D03*
X107565000Y-133794500D03*
D27*
X91567000Y-186563000D03*
X116459000Y-92000000D03*
X91821000Y-92000000D03*
D21*
X91567000Y-171831000D03*
X91567000Y-170307000D03*
D25*
X99060000Y-132969000D03*
X99060000Y-131191000D03*
D21*
X91567000Y-177546000D03*
X91567000Y-176022000D03*
D25*
X107188000Y-132080000D03*
X108966000Y-132080000D03*
D17*
X94554040Y-138775440D03*
X96456500Y-138775440D03*
X95501460Y-136565640D03*
X97469960Y-145069560D03*
X95567500Y-145069560D03*
X96522540Y-147279360D03*
D18*
X115951000Y-94234000D03*
X115951000Y-95250000D03*
X114935000Y-145034000D03*
X114935000Y-144018000D03*
D28*
X105410000Y-136906000D03*
D18*
X109982000Y-144018000D03*
X109982000Y-145034000D03*
X93472000Y-95250000D03*
X93472000Y-94234000D03*
D29*
X112919000Y-163195000D03*
X102219000Y-163195000D03*
D18*
X106934000Y-144907000D03*
X106934000Y-143891000D03*
D30*
X110871000Y-153733500D03*
D31*
X107950000Y-124333000D03*
D32*
X99060000Y-127458000D03*
X99060000Y-121208000D03*
X101600000Y-127458000D03*
X101600000Y-121208000D03*
X104140000Y-127458000D03*
X104140000Y-121208000D03*
X106680000Y-127458000D03*
X106680000Y-121208000D03*
X109220000Y-127458000D03*
X109220000Y-121208000D03*
D31*
X100330000Y-124333000D03*
D33*
X96876000Y-151266500D03*
D34*
X96876000Y-152004000D03*
X96876000Y-152654000D03*
X96876000Y-153304000D03*
D33*
X96876000Y-154041500D03*
D35*
X95626000Y-150654000D03*
X95626000Y-154654000D03*
D36*
X92326000Y-151154000D03*
X92326000Y-154154000D03*
D37*
X93476000Y-149054000D03*
X96946000Y-149054000D03*
X96946000Y-156254000D03*
X93476000Y-156254000D03*
D19*
X96332000Y-178211000D03*
X97282000Y-178211000D03*
X98232000Y-178211000D03*
X96332000Y-175611000D03*
X98232000Y-175611000D03*
D38*
X114915000Y-185443000D03*
X103485000Y-185443000D03*
D39*
X117000000Y-182393000D03*
X101400000Y-182393000D03*
D13*
X114915000Y-178793000D03*
X113645000Y-176253000D03*
X112375000Y-178793000D03*
X111105000Y-176253000D03*
X109835000Y-178793000D03*
X108565000Y-176253000D03*
X107295000Y-178793000D03*
X106025000Y-176253000D03*
X104755000Y-178793000D03*
X103485000Y-176253000D03*
X116185000Y-157861000D03*
D14*
X113685000Y-157861000D03*
D40*
X116673000Y-169926000D03*
X111673000Y-169926000D03*
D41*
X106680000Y-169926000D03*
X109474000Y-169926000D03*
D42*
X107442000Y-167646000D03*
D25*
X114808000Y-172466000D03*
X113030000Y-172466000D03*
D43*
X112740000Y-112771000D03*
X112740000Y-111501000D03*
X112740000Y-110231000D03*
X112740000Y-108961000D03*
X112740000Y-114041000D03*
X95540000Y-114041000D03*
X95540000Y-108961000D03*
X95540000Y-110231000D03*
X95540000Y-111501000D03*
X95540000Y-112771000D03*
X95540000Y-91181000D03*
X95540000Y-92451000D03*
X95540000Y-93721000D03*
X95540000Y-94991000D03*
X95540000Y-96261000D03*
X95540000Y-97531000D03*
X95540000Y-98801000D03*
X95540000Y-100071000D03*
X95540000Y-101341000D03*
X95540000Y-102611000D03*
X95540000Y-103881000D03*
X95540000Y-105151000D03*
X95540000Y-106421000D03*
X95540000Y-107691000D03*
D44*
X98425000Y-108841000D03*
X99695000Y-108841000D03*
X100965000Y-108841000D03*
X102235000Y-108841000D03*
X103505000Y-108841000D03*
X104775000Y-108841000D03*
X106045000Y-108841000D03*
X107315000Y-108841000D03*
X108585000Y-108841000D03*
X109855000Y-108841000D03*
D43*
X112740000Y-107691000D03*
X112740000Y-106421000D03*
X112740000Y-105151000D03*
X112740000Y-103881000D03*
X112740000Y-102611000D03*
X112740000Y-101341000D03*
X112740000Y-100071000D03*
X112740000Y-98801000D03*
X112740000Y-97531000D03*
X112740000Y-96261000D03*
X112740000Y-94991000D03*
X112740000Y-93721000D03*
X112740000Y-92451000D03*
X112740000Y-91181000D03*
D45*
X102640000Y-98981000D03*
D46*
X102640000Y-98981000D03*
D22*
X115189000Y-103378000D03*
X116205000Y-103378000D03*
D47*
X97790000Y-185420000D03*
X92710000Y-117475000D03*
X115570000Y-117475000D03*
D48*
X93070680Y-182740300D03*
D49*
X93073220Y-184769760D03*
D50*
G36*
X114706400Y-96037400D02*
G01*
X114147600Y-96037400D01*
X114147600Y-92176600D01*
X114706400Y-92176600D01*
X114706400Y-96037400D01*
G37*
X114706400Y-96037400D02*
X114147600Y-96037400D01*
X114147600Y-92176600D01*
X114706400Y-92176600D01*
X114706400Y-96037400D01*
M02*
