M48
; DRILL file {KiCad 5.1.6-c6e7f7d~87~ubuntu18.04.1} date Thu Jul 28 15:35:15 2022
; FORMAT={-:-/ absolute / inch / decimal}
; #@! TF.CreationDate,2022-07-28T15:35:15+03:00
; #@! TF.GenerationSoftware,Kicad,Pcbnew,5.1.6-c6e7f7d~87~ubuntu18.04.1
; #@! TF.FileFunction,Plated,1,4,PTH
FMAT,2
INCH
T1C0.0118
T2C0.0118
T3C0.0157
T4C0.0197
T5C0.0236
T6C0.0315
T7C0.0354
T8C0.0394
T9C0.0472
%
G90
G05
T1
X4.1697Y-5.3388
T2
X4.0988Y-5.3703
X4.0988Y-5.4097
X4.1303Y-5.3388
X4.1303Y-5.4412
X4.1697Y-5.4412
X4.2012Y-5.3703
X4.2012Y-5.4097
T3
X3.58Y-3.965
X3.58Y-4.025
X3.58Y-4.075
X3.58Y-4.125
X3.58Y-4.175
X3.58Y-4.225
X3.58Y-4.275
X3.58Y-4.325
X3.58Y-4.375
X3.58Y-4.425
X3.58Y-4.475
X3.58Y-4.525
X3.59Y-7.25
X3.605Y-6.2125
X3.61Y-3.965
X3.615Y-5.805
X3.625Y-3.795
X3.645Y-6.705
X3.645Y-6.9
X3.645Y-6.93
X3.66Y-7.03
X3.665Y-4.82
X3.6662Y-4.4
X3.67Y-4.04
X3.68Y-3.775
X3.685Y-6.295
X3.685Y-6.325
X3.685Y-6.3575
X3.695Y-6.995
X3.695Y-7.03
X3.7Y-6.42
X3.7017Y-3.8633
X3.705Y-5.725
X3.705Y-5.765
X3.705Y-5.805
X3.7175Y-6.3575
X3.7324Y-6.9376
X3.735Y-7.02
X3.75Y-6.3575
X3.761Y-4.5438
X3.7691Y-4.8965
X3.775Y-7.115
X3.775Y-4.795
X3.7787Y-6.865
X3.7925Y-6.9801
X3.7925Y-6.9475
X3.7938Y-4.8688
X3.8Y-4.1413
X3.805Y-6.095
X3.81Y-3.89
X3.81Y-4.0398
X3.81Y-7.065
X3.8198Y-3.7398
X3.82Y-5.075
X3.82Y-5.115
X3.82Y-5.155
X3.8231Y-4.0875
X3.835Y-3.95
X3.835Y-4.19
X3.835Y-6.095
X3.835Y-4.325
X3.84Y-5.7984
X3.845Y-4.29
X3.845Y-4.515
X3.845Y-5.35
X3.8589Y-3.7857
X3.86Y-3.695
X3.86Y-5.83
X3.865Y-6.065
X3.865Y-6.095
X3.867Y-4.4467
X3.8675Y-6.9475
X3.8675Y-6.9801
X3.8713Y-4.08
X3.88Y-5.805
X3.8907Y-4.4697
X3.895Y-3.65
X3.9Y-5.435
X3.9082Y-4.0268
X3.92Y-4.66
X3.9238Y-3.7395
X3.935Y-4.705
X3.935Y-4.8188
X3.935Y-5.25
X3.94Y-4.995
X3.95Y-4.63
X3.95Y-4.96
X3.9732Y-4.1512
X3.9745Y-4.1987
X3.975Y-5.635
X3.98Y-5.6
X3.98Y-6.605
X3.98Y-6.635
X3.98Y-6.665
X3.9898Y-5.5613
X3.9902Y-4.1234
X3.9938Y-3.6512
X4.005Y-5.71
X4.0053Y-4.1882
X4.0075Y-4.865
X4.01Y-4.605
X4.01Y-5.155
X4.01Y-5.385
X4.01Y-5.585
X4.0125Y-4.2225
X4.02Y-5.67
X4.025Y-5.625
X4.0347Y-5.0096
X4.035Y-4.63
X4.045Y-4.945
X4.045Y-4.975
X4.055Y-5.035
X4.0587Y-5.635
X4.0589Y-4.6061
X4.0629Y-4.19
X4.065Y-5.135
X4.065Y-5.19
X4.0762Y-4.125
X4.085Y-4.63
X4.115Y-4.61
X4.125Y-6.945
X4.127Y-3.7747
X4.1291Y-4.025
X4.13Y-5.635
X4.1339Y-4.7561
X4.135Y-4.95
X4.135Y-5.19
X4.1391Y-4.6347
X4.1469Y-4.8612
X4.16Y-4.7787
X4.16Y-4.925
X4.16Y-5.165
X4.16Y-5.935
X4.165Y-4.61
X4.165Y-4.985
X4.165Y-5.805
X4.175Y-7.025
X4.18Y-3.745
X4.18Y-3.78
X4.18Y-4.175
X4.185Y-5.19
X4.1894Y-4.8912
X4.2Y-4.62
X4.21Y-5.635
X4.235Y-4.62
X4.2411Y-4.5875
X4.245Y-4.985
X4.255Y-4.205
X4.255Y-5.5034
X4.255Y-6.525
X4.26Y-4.85
X4.26Y-5.195
X4.26Y-5.225
X4.2654Y-4.5371
X4.2663Y-4.3999
X4.2706Y-4.505
X4.2762Y-4.589
X4.29Y-5.5034
X4.3062Y-4.5092
X4.31Y-4.09
X4.325Y-5.5034
X4.325Y-6.24
X4.325Y-6.27
X4.325Y-6.3
X4.325Y-6.33
X4.33Y-5.37
X4.335Y-5.19
X4.3406Y-4.4756
X4.3499Y-3.7301
X4.355Y-4.09
X4.355Y-6.465
X4.3597Y-4.2235
X4.36Y-4.1874
X4.36Y-4.585
X4.3644Y-4.5447
X4.375Y-3.872
X4.385Y-4.04
X4.3891Y-4.5235
X4.39Y-4.24
X4.39Y-4.29
X4.405Y-5.06
X4.415Y-4.55
X4.4389Y-5.0611
X4.445Y-4.525
X4.45Y-5.195
X4.45Y-5.37
X4.45Y-6.28
X4.45Y-6.3092
X4.45Y-6.83
X4.46Y-6.55
X4.46Y-6.5825
X4.47Y-5.08
X4.475Y-6.61
X4.48Y-6.52
X4.49Y-4.09
X4.495Y-5.44
X4.495Y-5.52
X4.5Y-4.135
X4.5Y-4.43
X4.5038Y-4.175
X4.51Y-3.8725
X4.5105Y-6.2864
X4.515Y-4.05
X4.515Y-6.51
X4.525Y-4.98
X4.528Y-6.257
X4.53Y-4.92
X4.535Y-6.8287
X4.54Y-5.74
X4.545Y-4.135
X4.555Y-6.51
X4.595Y-4.195
X4.595Y-4.785
X4.6125Y-6.4525
X4.62Y-3.71
X4.62Y-3.75
X4.62Y-3.8
X4.62Y-3.85
X4.62Y-3.9
X4.62Y-3.96
X4.62Y-4.015
X4.62Y-4.075
X4.62Y-4.75
X3.9858Y-3.8693
X3.9858Y-3.9244
X4.0134Y-3.8418
X4.0134Y-3.952
X4.0685Y-3.8418
X4.0685Y-3.952
X4.0961Y-3.8693
X4.0961Y-3.9244
T4
X4.2Y-5.7725
T5
X3.665Y-5.2
X3.695Y-3.59
X3.7Y-3.64
X3.745Y-5.81
X3.76Y-6.495
X3.76Y-6.535
X3.76Y-6.575
X3.76Y-6.615
X3.76Y-6.655
X3.76Y-6.695
X3.8Y-6.455
X3.8Y-6.495
X3.8Y-6.615
X3.8Y-6.655
X3.8Y-6.695
X3.8Y-6.74
X3.805Y-5.36
X3.805Y-5.4
X3.825Y-3.64
X3.85Y-3.5898
X3.85Y-5.055
X3.85Y-5.095
X3.85Y-5.135
X3.85Y-5.175
X3.85Y-5.215
X3.88Y-5.69
X3.88Y-5.735
X3.885Y-5.3375
X3.95Y-3.5898
X3.98Y-7.3
X3.98Y-7.375
X3.9902Y-4.5277
X3.995Y-6.355
X4.005Y-5.76
X4.005Y-5.805
X4.005Y-5.95
X4.02Y-6.535
X4.02Y-6.575
X4.02Y-6.615
X4.02Y-6.655
X4.035Y-5.92
X4.0354Y-4.1301
X4.045Y-5.76
X4.045Y-6.3
X4.045Y-6.355
X4.05Y-3.5898
X4.05Y-7.2
X4.115Y-6.385
X4.115Y-6.43
X4.1271Y-4.5277
X4.14Y-6.56
X4.14Y-6.6
X4.14Y-6.64
X4.15Y-3.5898
X4.175Y-6.255
X4.175Y-6.3
X4.175Y-6.345
X4.175Y-7.25
X4.175Y-7.35
X4.195Y-5.935
X4.195Y-5.98
X4.205Y-6.39
X4.205Y-6.435
X4.215Y-6.045
X4.225Y-7.3
X4.235Y-5.795
X4.24Y-6.24
X4.24Y-6.285
X4.24Y-6.33
X4.25Y-3.5898
X4.255Y-6.39
X4.255Y-6.435
X4.275Y-7.25
X4.275Y-7.35
X4.285Y-5.755
X4.285Y-5.795
X4.285Y-6.24
X4.285Y-6.285
X4.285Y-6.33
X4.325Y-7.3
X4.35Y-3.5898
X4.375Y-7.25
X4.375Y-7.35
X4.4Y-5.61
X4.405Y-6.635
X4.405Y-6.745
X4.425Y-7.3
X4.445Y-6.49
X4.47Y-7.2
X4.505Y-3.59
X4.525Y-7.145
X4.525Y-7.2
X4.6175Y-6.755
X4.6175Y-6.795
X4.6216Y-7.3
X4.6216Y-7.3775
T6
X3.965Y-6.045
X4.065Y-6.045
X4.165Y-6.045
X4.265Y-6.045
X4.465Y-6.045
X4.565Y-6.045
T7
X3.9908Y-6.71
X4.0892Y-6.71
X4.4758Y-6.215
X4.5742Y-6.215
X3.6642Y-7.1945
X3.6643Y-7.2744
T8
X4.0742Y-6.9391
X4.1242Y-7.0391
X4.1742Y-6.9391
X4.2242Y-7.0391
X4.2742Y-6.9391
X4.3242Y-7.0391
X4.3742Y-6.9391
X4.4242Y-7.0391
X4.4742Y-6.9391
X4.5242Y-7.0391
X3.6Y-4.8512
X3.6Y-4.9512
X3.6Y-5.0512
X3.6Y-5.1512
X3.6Y-5.2512
X3.6Y-5.3512
X3.6Y-5.4512
X3.6Y-5.5512
X3.6Y-5.6512
X3.6Y-5.7512
X4.6Y-4.8512
X4.6Y-4.9512
X4.6Y-5.0512
X4.6Y-5.1512
X4.6Y-5.2512
X4.6Y-5.3512
X4.6Y-5.4512
X4.6Y-5.5512
X4.6Y-5.6512
X4.6Y-5.7512
T9
X4.15Y-5.39
X4.23Y-6.6002
X4.0409Y-3.8969
T5
G00X3.9921Y-7.1533
M15
G01X3.9921Y-7.2084
M16
G05
G00X4.6063Y-7.1533
M15
G01X4.6063Y-7.2084
M16
G05
G00X3.692Y-5.8683
M15
G01X3.6683Y-5.8683
M16
G05
G00X3.692Y-6.1517
M15
G01X3.6683Y-6.1517
M16
G05
G00X3.8286Y-5.8683
M15
G01X3.805Y-5.8683
M16
G05
G00X3.8286Y-6.1517
M15
G01X3.805Y-6.1517
M16
G05
T0
M30
