G04 #@! TF.GenerationSoftware,KiCad,Pcbnew,5.99.0-unknown-d20d310~100~ubuntu18.04.1*
G04 #@! TF.CreationDate,2019-12-17T13:26:06+02:00*
G04 #@! TF.ProjectId,ESP32-PoE-ISO_Rev_D,45535033-322d-4506-9f45-2d49534f5f52,D*
G04 #@! TF.SameCoordinates,Original*
G04 #@! TF.FileFunction,Soldermask,Top*
G04 #@! TF.FilePolarity,Negative*
%FSLAX46Y46*%
G04 Gerber Fmt 4.6, Leading zero omitted, Abs format (unit mm)*
G04 Created by KiCad (PCBNEW 5.99.0-unknown-d20d310~100~ubuntu18.04.1) date 2019-12-17 13:26:06*
%MOMM*%
%LPD*%
G04 APERTURE LIST*
%ADD10R,2.101600X1.001600*%
%ADD11R,1.001600X2.101600*%
%ADD12R,5.101600X5.101600*%
%ADD13C,2.101600*%
%ADD14R,1.601600X1.001600*%
%ADD15C,0.801600*%
%ADD16C,3.401601*%
%ADD17O,1.701600X3.101599*%
%ADD18C,1.625600*%
%ADD19R,3.101600X1.701600*%
%ADD20R,1.625600X1.625600*%
%ADD21R,1.501600X1.501600*%
%ADD22C,1.501600*%
%ADD23R,2.901599X2.901599*%
%ADD24R,1.501600X1.301600*%
%ADD25R,2.301600X3.501600*%
%ADD26R,1.501600X1.101600*%
%ADD27C,2.133600*%
%ADD28R,1.101600X1.501600*%
%ADD29R,0.651600X0.601600*%
%ADD30R,0.651600X1.301600*%
%ADD31R,1.371600X1.625600*%
%ADD32R,0.901600X0.901600*%
%ADD33R,0.601600X0.651600*%
%ADD34C,1.879600*%
%ADD35R,1.879600X1.879600*%
%ADD36R,1.117600X1.117600*%
%ADD37R,0.426600X1.371600*%
%ADD38C,1.254000*%
%ADD39R,1.524000X1.524000*%
%ADD40R,3.301600X2.601600*%
%ADD41O,2.133600X6.197600*%
%ADD42C,1.301600*%
%ADD43R,1.101600X4.351600*%
%ADD44R,1.751600X0.601600*%
%ADD45R,1.751600X0.426600*%
%ADD46C,0.701600*%
%ADD47R,1.101600X1.201600*%
%ADD48O,1.901600X1.301600*%
G04 APERTURE END LIST*
D10*
X95640000Y-96725000D03*
X95640000Y-97995000D03*
X95640000Y-99265000D03*
X95640000Y-100535000D03*
X95640000Y-101805000D03*
X95640000Y-103075000D03*
X95640000Y-104345000D03*
X95640000Y-105615000D03*
X95640000Y-106885000D03*
X95640000Y-108155000D03*
X95640000Y-109425000D03*
X95640000Y-110695000D03*
X95640000Y-111965000D03*
X95640000Y-113235000D03*
D11*
X98440000Y-114235000D03*
X99710000Y-114235000D03*
X100980000Y-114235000D03*
X102250000Y-114235000D03*
X103520000Y-114235000D03*
X104790000Y-114235000D03*
X106060000Y-114235000D03*
X107330000Y-114235000D03*
X108600000Y-114235000D03*
X109870000Y-114235000D03*
D10*
X112640000Y-113235000D03*
X112640000Y-111965000D03*
X112640000Y-110695000D03*
X112640000Y-109425000D03*
X112640000Y-108155000D03*
X112640000Y-106885000D03*
X112640000Y-105615000D03*
X112640000Y-104345000D03*
X112640000Y-103075000D03*
X112640000Y-101805000D03*
X112640000Y-100535000D03*
X112640000Y-99265000D03*
X112640000Y-97995000D03*
X112640000Y-96725000D03*
D12*
X103140000Y-104235000D03*
D13*
X103140000Y-104235000D03*
D14*
X115959000Y-106444000D03*
X115959000Y-102090000D03*
D15*
X115059000Y-104267000D03*
X116859000Y-104267000D03*
D14*
X92321000Y-106444000D03*
X92321000Y-102090000D03*
D15*
X91421000Y-104267000D03*
X93221000Y-104267000D03*
D16*
X114915000Y-185443000D03*
X103485000Y-185443000D03*
D17*
X117000000Y-182393000D03*
X101400000Y-182393000D03*
D18*
X114915000Y-178793000D03*
X113645000Y-176253000D03*
X109835000Y-178793000D03*
X108565000Y-176253000D03*
X107295000Y-178793000D03*
X106025000Y-176253000D03*
X104755000Y-178793000D03*
X103485000Y-176253000D03*
D19*
X95377000Y-132150000D03*
X95377000Y-134550000D03*
D18*
X113411000Y-153543000D03*
D20*
X115951000Y-153543000D03*
D18*
X108331000Y-153543000D03*
X105791000Y-153543000D03*
X100711000Y-153543000D03*
X103251000Y-153543000D03*
D21*
X92209620Y-181759860D03*
D22*
X94221300Y-181757320D03*
D23*
X109077000Y-164592000D03*
D24*
X111338000Y-143853000D03*
X113538000Y-145453000D03*
X113538000Y-143853000D03*
X111338000Y-145453000D03*
D25*
X108683000Y-169418000D03*
X101883000Y-169418000D03*
D18*
X112423000Y-168656000D03*
D20*
X115923000Y-168656000D03*
D18*
X101346000Y-164318000D03*
D20*
X101346000Y-161818000D03*
D26*
X105156000Y-145029000D03*
X105156000Y-141229000D03*
X103124000Y-145029000D03*
X103124000Y-141229000D03*
D27*
X102253180Y-179380280D02*
X103690020Y-180817120D01*
D28*
X94620000Y-140970000D03*
X98420000Y-140970000D03*
X98420000Y-143002000D03*
X94620000Y-143002000D03*
D29*
X92075000Y-99695000D03*
X92075000Y-98679000D03*
X91186000Y-98679000D03*
X91186000Y-99695000D03*
X94107000Y-173355000D03*
X94107000Y-174371000D03*
D30*
X94046000Y-179354000D03*
X94996000Y-179354000D03*
X95946000Y-179354000D03*
X94046000Y-176754000D03*
X95946000Y-176754000D03*
D31*
X94488000Y-158242000D03*
X94488000Y-160274000D03*
D32*
X91567000Y-164592000D03*
X91567000Y-166116000D03*
X91567000Y-160401000D03*
X91567000Y-158877000D03*
D29*
X97155000Y-173355000D03*
X97155000Y-174371000D03*
X100838000Y-137414000D03*
X100838000Y-136398000D03*
X100838000Y-134112000D03*
X100838000Y-135128000D03*
X91567000Y-174371000D03*
X91567000Y-173355000D03*
X91567000Y-162941000D03*
X91567000Y-161925000D03*
X91567000Y-168656000D03*
X91567000Y-167640000D03*
X91567000Y-180086000D03*
X91567000Y-179070000D03*
D33*
X104013000Y-146685000D03*
X105029000Y-146685000D03*
X110871000Y-142494000D03*
X109855000Y-142494000D03*
D34*
X116840000Y-146080000D03*
X116840000Y-143540000D03*
X116840000Y-138460000D03*
X116840000Y-141000000D03*
X116840000Y-135920000D03*
X116840000Y-133380000D03*
D35*
X116840000Y-123220000D03*
D34*
X116840000Y-125760000D03*
X116840000Y-128300000D03*
X116840000Y-130840000D03*
X91440000Y-130840000D03*
X91440000Y-128300000D03*
X91440000Y-125760000D03*
D35*
X91440000Y-123220000D03*
D34*
X91440000Y-133380000D03*
X91440000Y-135920000D03*
X91440000Y-141000000D03*
X91440000Y-138460000D03*
X91440000Y-143540000D03*
X91440000Y-146080000D03*
D36*
X99695000Y-138684000D03*
X97917000Y-138684000D03*
X95631000Y-173482000D03*
X95631000Y-175260000D03*
D30*
X99756000Y-134463000D03*
X98806000Y-134463000D03*
X97856000Y-134463000D03*
X99756000Y-137063000D03*
X97856000Y-137063000D03*
D37*
X107565000Y-141033500D03*
X108215000Y-141033500D03*
X108865000Y-141033500D03*
X109515000Y-141033500D03*
X110165000Y-141033500D03*
X110815000Y-141033500D03*
X111465000Y-141033500D03*
X112115000Y-141033500D03*
X112765000Y-141033500D03*
X113415000Y-141033500D03*
X113415000Y-133794500D03*
X112765000Y-133794500D03*
X112115000Y-133794500D03*
X111465000Y-133794500D03*
X110815000Y-133794500D03*
X110165000Y-133794500D03*
X109515000Y-133794500D03*
X108865000Y-133794500D03*
X108215000Y-133794500D03*
X107565000Y-133794500D03*
D38*
X91821000Y-186309000D03*
X116459000Y-96774000D03*
X91821000Y-96774000D03*
D32*
X91567000Y-171831000D03*
X91567000Y-170307000D03*
D36*
X99060000Y-132969000D03*
X99060000Y-131191000D03*
D32*
X91567000Y-177546000D03*
X91567000Y-176022000D03*
D36*
X107188000Y-132080000D03*
X108966000Y-132080000D03*
D28*
X94554040Y-138775440D03*
X96456500Y-138775440D03*
X95501460Y-136565640D03*
X97469960Y-145069560D03*
X95567500Y-145069560D03*
X96522540Y-147279360D03*
D29*
X115951000Y-98679000D03*
X115951000Y-99695000D03*
X114935000Y-145034000D03*
X114935000Y-144018000D03*
D39*
X105410000Y-136906000D03*
D29*
X109982000Y-144018000D03*
X109982000Y-145034000D03*
X93345000Y-99695000D03*
X93345000Y-98679000D03*
D40*
X116094000Y-159639000D03*
X105394000Y-159639000D03*
D29*
X106934000Y-144907000D03*
X106934000Y-143891000D03*
D41*
X110871000Y-153733500D03*
D27*
X110716335Y-175495317D02*
X112676665Y-179342683D01*
D42*
X107950000Y-124333000D03*
D43*
X99060000Y-127458000D03*
X99060000Y-121208000D03*
X101600000Y-127458000D03*
X101600000Y-121208000D03*
X104140000Y-127458000D03*
X104140000Y-121208000D03*
X106680000Y-127458000D03*
X106680000Y-121208000D03*
X109220000Y-127458000D03*
X109220000Y-121208000D03*
D42*
X100330000Y-124333000D03*
D44*
X96876000Y-151266500D03*
D45*
X96876000Y-152004000D03*
X96876000Y-152654000D03*
X96876000Y-153304000D03*
D44*
X96876000Y-154041500D03*
D46*
X95626000Y-150654000D03*
X95626000Y-154654000D03*
D47*
X92326000Y-151154000D03*
X92326000Y-154154000D03*
D48*
X93476000Y-149054000D03*
X96946000Y-149054000D03*
X96946000Y-156254000D03*
X93476000Y-156254000D03*
M02*
