G04 #@! TF.GenerationSoftware,KiCad,Pcbnew,5.99.0-unknown-d20d310~100~ubuntu18.04.1*
G04 #@! TF.CreationDate,2019-12-17T13:26:36+02:00*
G04 #@! TF.ProjectId,ESP32-PoE-ISO_Rev_D,45535033-322d-4506-9f45-2d49534f5f52,D*
G04 #@! TF.SameCoordinates,Original*
G04 #@! TF.FileFunction,Profile,NP*
%FSLAX46Y46*%
G04 Gerber Fmt 4.6, Leading zero omitted, Abs format (unit mm)*
G04 Created by KiCad (PCBNEW 5.99.0-unknown-d20d310~100~ubuntu18.04.1) date 2019-12-17 13:26:36*
%MOMM*%
%LPD*%
G04 APERTURE LIST*
%ADD10C,0.150000*%
%ADD11C,0.254000*%
G04 APERTURE END LIST*
D10*
X111887000Y-155702000D02*
X111887000Y-151765000D01*
X109855000Y-155702000D02*
X109854991Y-151765000D01*
X111887000Y-155702000D02*
G75*
G02X109855000Y-155702000I-1016000J0D01*
G01*
X109854991Y-151765000D02*
G75*
G02X111887009Y-151765000I1016009J0D01*
G01*
X104412050Y-180095025D02*
X102975217Y-178658179D01*
X102975212Y-181531865D02*
X101538369Y-180095027D01*
X104412048Y-180095025D02*
G75*
G02X102975212Y-181531865I-718418J-718420D01*
G01*
X101538363Y-180095033D02*
G75*
G02X102975217Y-178658179I718427J718427D01*
G01*
X111623880Y-175006002D02*
X113528883Y-178815998D01*
X113528883Y-178815998D02*
G75*
G02X111769117Y-179832002I-879883J-508002D01*
G01*
X109835265Y-175968368D02*
G75*
G02X111623880Y-175006002I908735J454368D01*
G01*
X109835264Y-175968368D02*
X111769117Y-179832002D01*
D11*
X90150000Y-158200000D02*
X91350000Y-157000000D01*
X90150000Y-188150000D02*
X90150000Y-158200000D01*
X91350000Y-148300000D02*
X91350000Y-157000000D01*
X90150000Y-147100000D02*
X91350000Y-148300000D01*
X90150000Y-147100000D02*
X90150000Y-95150000D01*
X90150000Y-188150000D02*
X118150000Y-188150000D01*
X90150000Y-95150000D02*
X118150000Y-95150000D01*
X118150000Y-188150000D02*
X118150000Y-95150000D01*
M02*
