G04 #@! TF.GenerationSoftware,KiCad,Pcbnew,5.99.0-unknown-d20d310~100~ubuntu18.04.1*
G04 #@! TF.CreationDate,2019-12-17T13:26:06+02:00*
G04 #@! TF.ProjectId,ESP32-PoE-ISO_Rev_D,45535033-322d-4506-9f45-2d49534f5f52,D*
G04 #@! TF.SameCoordinates,Original*
G04 #@! TF.FileFunction,Soldermask,Bot*
G04 #@! TF.FilePolarity,Negative*
%FSLAX46Y46*%
G04 Gerber Fmt 4.6, Leading zero omitted, Abs format (unit mm)*
G04 Created by KiCad (PCBNEW 5.99.0-unknown-d20d310~100~ubuntu18.04.1) date 2019-12-17 13:26:06*
%MOMM*%
%LPD*%
G04 APERTURE LIST*
%ADD10R,1.117600X1.117600*%
%ADD11R,0.601600X0.651600*%
%ADD12C,2.101600*%
%ADD13C,0.801600*%
%ADD14C,3.401601*%
%ADD15O,1.701600X3.101599*%
%ADD16C,1.625600*%
%ADD17R,1.117600X2.133600*%
%ADD18R,1.625600X1.625600*%
%ADD19R,1.501600X1.501600*%
%ADD20C,1.501600*%
%ADD21R,0.501600X1.101600*%
%ADD22R,1.101600X0.501600*%
%ADD23R,2.901599X2.901599*%
%ADD24R,0.651600X0.601600*%
%ADD25C,2.133600*%
%ADD26R,1.371600X1.625600*%
%ADD27C,1.254000*%
%ADD28R,1.625600X1.879600*%
%ADD29R,1.501600X1.101600*%
%ADD30C,1.879600*%
%ADD31R,1.879600X1.879600*%
%ADD32R,1.101600X1.501600*%
%ADD33R,1.625600X1.371600*%
%ADD34R,1.879600X1.117600*%
%ADD35R,0.601600X1.101600*%
%ADD36R,1.601600X1.301600*%
%ADD37R,0.482600X1.117600*%
%ADD38R,0.736600X1.117600*%
%ADD39R,3.701600X3.701600*%
%ADD40R,0.501600X0.501600*%
%ADD41R,1.524000X1.524000*%
%ADD42R,0.351600X0.901600*%
%ADD43R,0.901600X0.351600*%
%ADD44R,1.117600X1.879600*%
%ADD45O,2.133600X6.197600*%
%ADD46C,1.301600*%
%ADD47R,1.117600X0.482600*%
%ADD48R,1.117600X0.736600*%
%ADD49C,0.701600*%
%ADD50O,1.901600X1.301600*%
G04 APERTURE END LIST*
D10*
X91440000Y-102108000D03*
X93218000Y-102108000D03*
D11*
X97663000Y-103378000D03*
X98679000Y-103378000D03*
D12*
X103140000Y-104235000D03*
D13*
X115059000Y-104267000D03*
X116859000Y-104267000D03*
X91421000Y-104267000D03*
X93221000Y-104267000D03*
D14*
X114915000Y-185443000D03*
X103485000Y-185443000D03*
D15*
X117000000Y-182393000D03*
X101400000Y-182393000D03*
D16*
X114915000Y-178793000D03*
X113645000Y-176253000D03*
X109835000Y-178793000D03*
X108565000Y-176253000D03*
X107295000Y-178793000D03*
X106025000Y-176253000D03*
X104755000Y-178793000D03*
X103485000Y-176253000D03*
D17*
X101092000Y-166497000D03*
X96520000Y-166497000D03*
X113157000Y-150749000D03*
X108585000Y-150749000D03*
D16*
X113411000Y-153543000D03*
D18*
X115951000Y-153543000D03*
D16*
X108331000Y-153543000D03*
X105791000Y-153543000D03*
X100711000Y-153543000D03*
X103251000Y-153543000D03*
D19*
X92209620Y-181759860D03*
D20*
X94221300Y-181757320D03*
D21*
X107877000Y-162242000D03*
X108677000Y-162242000D03*
X109477000Y-162242000D03*
X110277000Y-162242000D03*
D22*
X111427000Y-162592000D03*
X111427000Y-163392000D03*
X111427000Y-164192000D03*
X111427000Y-164992000D03*
X111427000Y-165792000D03*
X111427000Y-166592000D03*
D21*
X110277000Y-166942000D03*
X109477000Y-166942000D03*
X108677000Y-166942000D03*
X107877000Y-166942000D03*
D22*
X106727000Y-166592000D03*
X106727000Y-165792000D03*
X106727000Y-164992000D03*
X106727000Y-164192000D03*
X106727000Y-163392000D03*
X106727000Y-162592000D03*
D23*
X109077000Y-164592000D03*
D16*
X112423000Y-168656000D03*
D18*
X115923000Y-168656000D03*
D16*
X101346000Y-164318000D03*
D18*
X101346000Y-161818000D03*
D24*
X94996000Y-145415000D03*
X94996000Y-146431000D03*
D25*
X102253180Y-179380280D02*
X103690020Y-180817120D01*
D11*
X94615000Y-104394000D03*
X95631000Y-104394000D03*
X94615000Y-103378000D03*
X95631000Y-103378000D03*
X95631000Y-105410000D03*
X94615000Y-105410000D03*
X110617000Y-160020000D03*
X109601000Y-160020000D03*
D10*
X105410000Y-151765000D03*
X103632000Y-151765000D03*
D24*
X114300000Y-142748000D03*
X114300000Y-143764000D03*
D10*
X113030000Y-143891000D03*
X113030000Y-145669000D03*
D11*
X110617000Y-160909000D03*
X109601000Y-160909000D03*
D26*
X103251000Y-116713000D03*
X101219000Y-116713000D03*
D27*
X91821000Y-186309000D03*
X116459000Y-96774000D03*
X91821000Y-96774000D03*
D10*
X114173000Y-159893000D03*
X115951000Y-159893000D03*
D28*
X113665000Y-155575000D03*
X116459000Y-155575000D03*
X113665000Y-157988000D03*
X116459000Y-157988000D03*
D11*
X106172000Y-132969000D03*
X105156000Y-132969000D03*
X99568000Y-135890000D03*
X100584000Y-135890000D03*
D24*
X101346000Y-139573000D03*
X101346000Y-140589000D03*
D11*
X107823000Y-140589000D03*
X106807000Y-140589000D03*
X93726000Y-113157000D03*
X92710000Y-113157000D03*
X104394000Y-161544000D03*
X105410000Y-161544000D03*
X105410000Y-162433000D03*
X104394000Y-162433000D03*
D24*
X93980000Y-111252000D03*
X93980000Y-110236000D03*
D11*
X104394000Y-126619000D03*
X103378000Y-126619000D03*
X104394000Y-124841000D03*
X103378000Y-124841000D03*
X104394000Y-120777000D03*
X103378000Y-120777000D03*
X113792000Y-165100000D03*
X114808000Y-165100000D03*
X107696000Y-160020000D03*
X108712000Y-160020000D03*
X104394000Y-125730000D03*
X103378000Y-125730000D03*
X102108000Y-140589000D03*
X103124000Y-140589000D03*
D24*
X109728000Y-136525000D03*
X109728000Y-135509000D03*
X105410000Y-141478000D03*
X105410000Y-142494000D03*
X106680000Y-142494000D03*
X106680000Y-141478000D03*
X103124000Y-142494000D03*
X103124000Y-141478000D03*
X104394000Y-142494000D03*
X104394000Y-141478000D03*
X114300000Y-145923000D03*
X114300000Y-144907000D03*
D11*
X105029000Y-150495000D03*
X104013000Y-150495000D03*
X96647000Y-116205000D03*
X97663000Y-116205000D03*
D29*
X111343440Y-143830040D03*
X111343440Y-145732500D03*
X109133640Y-144777460D03*
D30*
X116840000Y-146080000D03*
X116840000Y-143540000D03*
X116840000Y-138460000D03*
X116840000Y-141000000D03*
X116840000Y-135920000D03*
X116840000Y-133380000D03*
D31*
X116840000Y-123220000D03*
D30*
X116840000Y-125760000D03*
X116840000Y-128300000D03*
X116840000Y-130840000D03*
X91440000Y-130840000D03*
X91440000Y-128300000D03*
X91440000Y-125760000D03*
D31*
X91440000Y-123220000D03*
D30*
X91440000Y-133380000D03*
X91440000Y-135920000D03*
X91440000Y-141000000D03*
X91440000Y-138460000D03*
X91440000Y-143540000D03*
X91440000Y-146080000D03*
D32*
X99628960Y-118836440D03*
X97726500Y-118836440D03*
X98681540Y-116626640D03*
D33*
X101219000Y-118618000D03*
X103251000Y-118618000D03*
D28*
X115824000Y-170942000D03*
X113030000Y-170942000D03*
D34*
X116840000Y-177038000D03*
X116840000Y-173482000D03*
D35*
X100290000Y-108587000D03*
X101390000Y-108587000D03*
X102490000Y-108587000D03*
X103590000Y-108587000D03*
X104340000Y-108587000D03*
X105040000Y-108587000D03*
X105790000Y-108587000D03*
X106890000Y-108587000D03*
X107990000Y-108587000D03*
D36*
X109440000Y-110337000D03*
X98840000Y-110337000D03*
X109440000Y-114787000D03*
X98840000Y-114787000D03*
D33*
X115697000Y-161544000D03*
X113665000Y-161544000D03*
D10*
X109347000Y-134493000D03*
X109347000Y-132715000D03*
X99187000Y-134620000D03*
X100965000Y-134620000D03*
X109093000Y-140843000D03*
X109093000Y-139065000D03*
X110617000Y-140843000D03*
X110617000Y-139065000D03*
D37*
X106045000Y-129286000D03*
X105283000Y-129286000D03*
X106045000Y-130810000D03*
X105283000Y-130810000D03*
D38*
X106934000Y-129286000D03*
X106934000Y-130810000D03*
X104394000Y-129286000D03*
X104394000Y-130810000D03*
D32*
X97663000Y-121666000D03*
X99565460Y-121666000D03*
X98610420Y-123875800D03*
D33*
X110109000Y-142367000D03*
X108077000Y-142367000D03*
D11*
X98679000Y-104394000D03*
X97663000Y-104394000D03*
D32*
X105405000Y-122555000D03*
X101605000Y-122555000D03*
D11*
X106045000Y-120777000D03*
X107061000Y-120777000D03*
D39*
X105410000Y-136906000D03*
D40*
X106710000Y-137406000D03*
X106710000Y-136406000D03*
X105910000Y-135606000D03*
X104910000Y-135606000D03*
X104110000Y-136406000D03*
X104110000Y-137406000D03*
X104910000Y-138206000D03*
X105910000Y-138206000D03*
D41*
X105410000Y-136906000D03*
D42*
X103660000Y-139356000D03*
X104160000Y-139356000D03*
X104660000Y-139356000D03*
X105160000Y-139356000D03*
X105660000Y-139356000D03*
X106160000Y-139356000D03*
X106660000Y-139356000D03*
X107160000Y-139356000D03*
D43*
X107860000Y-138656000D03*
X107860000Y-138156000D03*
X107860000Y-137656000D03*
X107860000Y-137156000D03*
X107860000Y-136656000D03*
X107860000Y-136156000D03*
X107860000Y-135656000D03*
X107860000Y-135156000D03*
D42*
X107160000Y-134456000D03*
X106660000Y-134456000D03*
X106160000Y-134456000D03*
X105660000Y-134456000D03*
X105160000Y-134456000D03*
X104660000Y-134456000D03*
X104160000Y-134456000D03*
X103660000Y-134456000D03*
D43*
X102960000Y-135156000D03*
X102960000Y-135656000D03*
X102960000Y-136156000D03*
X102960000Y-136656000D03*
X102960000Y-137156000D03*
X102960000Y-137656000D03*
X102960000Y-138156000D03*
X102960000Y-138656000D03*
D11*
X100076000Y-120269000D03*
X99060000Y-120269000D03*
X98298000Y-120269000D03*
X97282000Y-120269000D03*
D10*
X115824000Y-163703000D03*
X114046000Y-163703000D03*
D29*
X95334000Y-115951000D03*
X93134000Y-115001000D03*
X93134000Y-116901000D03*
D32*
X113027460Y-141437360D03*
X113982500Y-139227560D03*
X112080040Y-139227560D03*
D38*
X105029000Y-118745000D03*
X105029000Y-117221000D03*
X107569000Y-118745000D03*
X107569000Y-117221000D03*
D37*
X105918000Y-118745000D03*
X106680000Y-118745000D03*
X105918000Y-117221000D03*
X106680000Y-117221000D03*
D44*
X106680000Y-168783000D03*
X110236000Y-168783000D03*
D45*
X110871000Y-153733500D03*
D25*
X110716335Y-175495317D02*
X112676665Y-179342683D01*
D46*
X107950000Y-124333000D03*
X100330000Y-124333000D03*
D47*
X99314000Y-130937000D03*
X99314000Y-131699000D03*
X100838000Y-130937000D03*
X100838000Y-131699000D03*
D48*
X99314000Y-130048000D03*
X100838000Y-130048000D03*
X99314000Y-132588000D03*
X100838000Y-132588000D03*
D49*
X95626000Y-150654000D03*
X95626000Y-154654000D03*
D50*
X93476000Y-149054000D03*
X96946000Y-149054000D03*
X96946000Y-156254000D03*
X93476000Y-156254000D03*
M02*
