G04 #@! TF.GenerationSoftware,KiCad,Pcbnew,5.99.0-unknown-d20d310~100~ubuntu18.04.1*
G04 #@! TF.CreationDate,2019-12-17T13:26:05+02:00*
G04 #@! TF.ProjectId,ESP32-PoE-ISO_Rev_D,45535033-322d-4506-9f45-2d49534f5f52,D*
G04 #@! TF.SameCoordinates,Original*
G04 #@! TF.FileFunction,Paste,Bot*
G04 #@! TF.FilePolarity,Positive*
%FSLAX46Y46*%
G04 Gerber Fmt 4.6, Leading zero omitted, Abs format (unit mm)*
G04 Created by KiCad (PCBNEW 5.99.0-unknown-d20d310~100~ubuntu18.04.1) date 2019-12-17 13:26:05*
%MOMM*%
%LPD*%
G04 APERTURE LIST*
%ADD10C,0.100000*%
%ADD11C,0.200000*%
%ADD12R,1.016000X1.016000*%
%ADD13R,0.500000X0.550000*%
%ADD14R,1.016000X2.032000*%
%ADD15R,0.400000X1.000000*%
%ADD16R,1.000000X0.400000*%
%ADD17R,0.550000X0.500000*%
%ADD18R,1.270000X1.524000*%
%ADD19R,1.524000X1.778000*%
%ADD20R,1.400000X1.000000*%
%ADD21R,1.000000X1.400000*%
%ADD22R,1.524000X1.270000*%
%ADD23R,1.778000X1.016000*%
%ADD24R,0.500000X1.000000*%
%ADD25R,1.754000X1.454000*%
%ADD26R,0.381000X1.016000*%
%ADD27R,0.635000X1.016000*%
%ADD28R,0.230000X0.780000*%
%ADD29R,0.780000X0.230000*%
%ADD30R,1.016000X1.778000*%
%ADD31R,1.016000X0.381000*%
%ADD32R,1.016000X0.635000*%
G04 APERTURE END LIST*
G36*
X110377000Y-165342000D02*
G01*
X110127000Y-165342000D01*
X110127000Y-164842000D01*
X110377000Y-164842000D01*
X110377000Y-165342000D01*
G37*
D10*
X110377000Y-165342000D02*
X110127000Y-165342000D01*
X110127000Y-164842000D01*
X110377000Y-164842000D01*
X110377000Y-165342000D01*
G36*
X110377000Y-164342000D02*
G01*
X110127000Y-164342000D01*
X110127000Y-163842000D01*
X110377000Y-163842000D01*
X110377000Y-164342000D01*
G37*
X110377000Y-164342000D02*
X110127000Y-164342000D01*
X110127000Y-163842000D01*
X110377000Y-163842000D01*
X110377000Y-164342000D01*
G36*
X108027000Y-164342000D02*
G01*
X107777000Y-164342000D01*
X107777000Y-163842000D01*
X108027000Y-163842000D01*
X108027000Y-164342000D01*
G37*
X108027000Y-164342000D02*
X107777000Y-164342000D01*
X107777000Y-163842000D01*
X108027000Y-163842000D01*
X108027000Y-164342000D01*
G36*
X109727000Y-165892000D02*
G01*
X109427000Y-165892000D01*
X109427000Y-163292000D01*
X109727000Y-163292000D01*
X109727000Y-165892000D01*
G37*
X109727000Y-165892000D02*
X109427000Y-165892000D01*
X109427000Y-163292000D01*
X109727000Y-163292000D01*
X109727000Y-165892000D01*
G36*
X108027000Y-165342000D02*
G01*
X107777000Y-165342000D01*
X107777000Y-164842000D01*
X108027000Y-164842000D01*
X108027000Y-165342000D01*
G37*
X108027000Y-165342000D02*
X107777000Y-165342000D01*
X107777000Y-164842000D01*
X108027000Y-164842000D01*
X108027000Y-165342000D01*
G36*
X108727000Y-165892000D02*
G01*
X108427000Y-165892000D01*
X108427000Y-163292000D01*
X108727000Y-163292000D01*
X108727000Y-165892000D01*
G37*
X108727000Y-165892000D02*
X108427000Y-165892000D01*
X108427000Y-163292000D01*
X108727000Y-163292000D01*
X108727000Y-165892000D01*
D11*
X107010000Y-137706000D02*
X107010000Y-138506000D01*
X106210000Y-137706000D02*
X107010000Y-137706000D01*
X106210000Y-138506000D02*
X106210000Y-137706000D01*
X107010000Y-138506000D02*
X106210000Y-138506000D01*
X107010000Y-138406000D02*
X106210000Y-138406000D01*
X107010000Y-138306000D02*
X106210000Y-138306000D01*
X107010000Y-138206000D02*
X106210000Y-138206000D01*
X107010000Y-138106000D02*
X106210000Y-138106000D01*
X107010000Y-138006000D02*
X106210000Y-138006000D01*
X107010000Y-137906000D02*
X106210000Y-137906000D01*
X107010000Y-137806000D02*
X106210000Y-137806000D01*
X104610000Y-137806000D02*
X103810000Y-137806000D01*
X104610000Y-137906000D02*
X103810000Y-137906000D01*
X104610000Y-138006000D02*
X103810000Y-138006000D01*
X104610000Y-138106000D02*
X103810000Y-138106000D01*
X104610000Y-138206000D02*
X103810000Y-138206000D01*
X104610000Y-138306000D02*
X103810000Y-138306000D01*
X104610000Y-138406000D02*
X103810000Y-138406000D01*
X104610000Y-138506000D02*
X103810000Y-138506000D01*
X103810000Y-138506000D02*
X103810000Y-137706000D01*
X103810000Y-137706000D02*
X104610000Y-137706000D01*
X104610000Y-137706000D02*
X104610000Y-138506000D01*
X107010000Y-135406000D02*
X106210000Y-135406000D01*
X107010000Y-135506000D02*
X106210000Y-135506000D01*
X107010000Y-135606000D02*
X106210000Y-135606000D01*
X107010000Y-135706000D02*
X106210000Y-135706000D01*
X107010000Y-135806000D02*
X106210000Y-135806000D01*
X107010000Y-135906000D02*
X106210000Y-135906000D01*
X107010000Y-136006000D02*
X106210000Y-136006000D01*
X107010000Y-136106000D02*
X106210000Y-136106000D01*
X106210000Y-136106000D02*
X106210000Y-135306000D01*
X106210000Y-135306000D02*
X107010000Y-135306000D01*
X107010000Y-135306000D02*
X107010000Y-136106000D01*
X104610000Y-135306000D02*
X104610000Y-136106000D01*
X103810000Y-135306000D02*
X104610000Y-135306000D01*
X103810000Y-136106000D02*
X103810000Y-135306000D01*
X104610000Y-136106000D02*
X103810000Y-136106000D01*
X104610000Y-136006000D02*
X103810000Y-136006000D01*
X104610000Y-135906000D02*
X103810000Y-135906000D01*
X104610000Y-135806000D02*
X103810000Y-135806000D01*
X104610000Y-135706000D02*
X103810000Y-135706000D01*
X104610000Y-135606000D02*
X103810000Y-135606000D01*
X104610000Y-135506000D02*
X103810000Y-135506000D01*
X104610000Y-135406000D02*
X103810000Y-135406000D01*
X105210000Y-138506000D02*
X105610000Y-138506000D01*
X105210000Y-137706000D02*
X105210000Y-138506000D01*
X105610000Y-137706000D02*
X105210000Y-137706000D01*
X105610000Y-138506000D02*
X105610000Y-137706000D01*
X105510000Y-138506000D02*
X105510000Y-137706000D01*
X105410000Y-138506000D02*
X105410000Y-137706000D01*
X105310000Y-138506000D02*
X105310000Y-137706000D01*
X105310000Y-136106000D02*
X105310000Y-135306000D01*
X105410000Y-136106000D02*
X105410000Y-135306000D01*
X105510000Y-136106000D02*
X105510000Y-135306000D01*
X105610000Y-136106000D02*
X105610000Y-135306000D01*
X105610000Y-135306000D02*
X105210000Y-135306000D01*
X105210000Y-135306000D02*
X105210000Y-136106000D01*
X105210000Y-136106000D02*
X105610000Y-136106000D01*
X107010000Y-136706000D02*
X107010000Y-137106000D01*
X106210000Y-136706000D02*
X107010000Y-136706000D01*
X106210000Y-137106000D02*
X106210000Y-136706000D01*
X107010000Y-137106000D02*
X106210000Y-137106000D01*
X107010000Y-137006000D02*
X106210000Y-137006000D01*
X106210000Y-136906000D02*
X107010000Y-136906000D01*
X107010000Y-136806000D02*
X106210000Y-136806000D01*
X104610000Y-136806000D02*
X103810000Y-136806000D01*
X103810000Y-136906000D02*
X104610000Y-136906000D01*
X104610000Y-137006000D02*
X103810000Y-137006000D01*
X104610000Y-137106000D02*
X103810000Y-137106000D01*
X103810000Y-137106000D02*
X103810000Y-136706000D01*
X103810000Y-136706000D02*
X104610000Y-136706000D01*
X104610000Y-136706000D02*
X104610000Y-137106000D01*
D12*
X91440000Y-102108000D03*
X93218000Y-102108000D03*
D13*
X97663000Y-103378000D03*
X98679000Y-103378000D03*
D14*
X101092000Y-166497000D03*
X96520000Y-166497000D03*
X113157000Y-150749000D03*
X108585000Y-150749000D03*
D15*
X107877000Y-162242000D03*
X108677000Y-162242000D03*
X109477000Y-162242000D03*
X110277000Y-162242000D03*
D16*
X111427000Y-162592000D03*
X111427000Y-163392000D03*
X111427000Y-164192000D03*
X111427000Y-164992000D03*
X111427000Y-165792000D03*
X111427000Y-166592000D03*
D15*
X110277000Y-166942000D03*
X109477000Y-166942000D03*
X108677000Y-166942000D03*
X107877000Y-166942000D03*
D16*
X106727000Y-166592000D03*
X106727000Y-165792000D03*
X106727000Y-164992000D03*
X106727000Y-164192000D03*
X106727000Y-163392000D03*
X106727000Y-162592000D03*
D17*
X94996000Y-145415000D03*
X94996000Y-146431000D03*
D13*
X94615000Y-104394000D03*
X95631000Y-104394000D03*
X94615000Y-103378000D03*
X95631000Y-103378000D03*
X95631000Y-105410000D03*
X94615000Y-105410000D03*
X110617000Y-160020000D03*
X109601000Y-160020000D03*
D12*
X105410000Y-151765000D03*
X103632000Y-151765000D03*
D17*
X114300000Y-142748000D03*
X114300000Y-143764000D03*
D12*
X113030000Y-143891000D03*
X113030000Y-145669000D03*
D13*
X110617000Y-160909000D03*
X109601000Y-160909000D03*
D18*
X103251000Y-116713000D03*
X101219000Y-116713000D03*
D12*
X114173000Y-159893000D03*
X115951000Y-159893000D03*
D19*
X113665000Y-155575000D03*
X116459000Y-155575000D03*
X113665000Y-157988000D03*
X116459000Y-157988000D03*
D13*
X106172000Y-132969000D03*
X105156000Y-132969000D03*
X99568000Y-135890000D03*
X100584000Y-135890000D03*
D17*
X101346000Y-139573000D03*
X101346000Y-140589000D03*
D13*
X107823000Y-140589000D03*
X106807000Y-140589000D03*
X93726000Y-113157000D03*
X92710000Y-113157000D03*
X104394000Y-161544000D03*
X105410000Y-161544000D03*
X105410000Y-162433000D03*
X104394000Y-162433000D03*
D17*
X93980000Y-111252000D03*
X93980000Y-110236000D03*
D13*
X104394000Y-126619000D03*
X103378000Y-126619000D03*
X104394000Y-124841000D03*
X103378000Y-124841000D03*
X104394000Y-120777000D03*
X103378000Y-120777000D03*
X113792000Y-165100000D03*
X114808000Y-165100000D03*
X107696000Y-160020000D03*
X108712000Y-160020000D03*
X104394000Y-125730000D03*
X103378000Y-125730000D03*
X102108000Y-140589000D03*
X103124000Y-140589000D03*
D17*
X109728000Y-136525000D03*
X109728000Y-135509000D03*
X105410000Y-141478000D03*
X105410000Y-142494000D03*
X106680000Y-142494000D03*
X106680000Y-141478000D03*
X103124000Y-142494000D03*
X103124000Y-141478000D03*
X104394000Y-142494000D03*
X104394000Y-141478000D03*
X114300000Y-145923000D03*
X114300000Y-144907000D03*
D13*
X105029000Y-150495000D03*
X104013000Y-150495000D03*
X96647000Y-116205000D03*
X97663000Y-116205000D03*
D20*
X111343440Y-143830040D03*
X111343440Y-145732500D03*
X109133640Y-144777460D03*
D21*
X99628960Y-118836440D03*
X97726500Y-118836440D03*
X98681540Y-116626640D03*
D22*
X101219000Y-118618000D03*
X103251000Y-118618000D03*
D19*
X115824000Y-170942000D03*
X113030000Y-170942000D03*
D23*
X116840000Y-177038000D03*
X116840000Y-173482000D03*
D24*
X100290000Y-108587000D03*
X101390000Y-108587000D03*
X102490000Y-108587000D03*
X103590000Y-108587000D03*
X104340000Y-108587000D03*
X105040000Y-108587000D03*
X105790000Y-108587000D03*
X106890000Y-108587000D03*
X107990000Y-108587000D03*
D25*
X109440000Y-110337000D03*
X98840000Y-110337000D03*
X109440000Y-114787000D03*
X98840000Y-114787000D03*
D22*
X115697000Y-161544000D03*
X113665000Y-161544000D03*
D12*
X109347000Y-134493000D03*
X109347000Y-132715000D03*
X99187000Y-134620000D03*
X100965000Y-134620000D03*
X109093000Y-140843000D03*
X109093000Y-139065000D03*
X110617000Y-140843000D03*
X110617000Y-139065000D03*
D26*
X106045000Y-129286000D03*
X105283000Y-129286000D03*
X106045000Y-130810000D03*
X105283000Y-130810000D03*
D27*
X106934000Y-129286000D03*
X106934000Y-130810000D03*
X104394000Y-129286000D03*
X104394000Y-130810000D03*
D21*
X97663000Y-121666000D03*
X99565460Y-121666000D03*
X98610420Y-123875800D03*
D22*
X110109000Y-142367000D03*
X108077000Y-142367000D03*
D13*
X98679000Y-104394000D03*
X97663000Y-104394000D03*
D21*
X105405000Y-122555000D03*
X101605000Y-122555000D03*
D13*
X106045000Y-120777000D03*
X107061000Y-120777000D03*
D28*
X103660000Y-139356000D03*
X104160000Y-139356000D03*
X104660000Y-139356000D03*
X105160000Y-139356000D03*
X105660000Y-139356000D03*
X106160000Y-139356000D03*
X106660000Y-139356000D03*
X107160000Y-139356000D03*
D29*
X107860000Y-138656000D03*
X107860000Y-138156000D03*
X107860000Y-137656000D03*
X107860000Y-137156000D03*
X107860000Y-136656000D03*
X107860000Y-136156000D03*
X107860000Y-135656000D03*
X107860000Y-135156000D03*
D28*
X107160000Y-134456000D03*
X106660000Y-134456000D03*
X106160000Y-134456000D03*
X105660000Y-134456000D03*
X105160000Y-134456000D03*
X104660000Y-134456000D03*
X104160000Y-134456000D03*
X103660000Y-134456000D03*
D29*
X102960000Y-135156000D03*
X102960000Y-135656000D03*
X102960000Y-136156000D03*
X102960000Y-136656000D03*
X102960000Y-137156000D03*
X102960000Y-137656000D03*
X102960000Y-138156000D03*
X102960000Y-138656000D03*
D13*
X100076000Y-120269000D03*
X99060000Y-120269000D03*
X98298000Y-120269000D03*
X97282000Y-120269000D03*
D12*
X115824000Y-163703000D03*
X114046000Y-163703000D03*
D20*
X95334000Y-115951000D03*
X93134000Y-115001000D03*
X93134000Y-116901000D03*
D21*
X113027460Y-141437360D03*
X113982500Y-139227560D03*
X112080040Y-139227560D03*
D27*
X105029000Y-118745000D03*
X105029000Y-117221000D03*
X107569000Y-118745000D03*
X107569000Y-117221000D03*
D26*
X105918000Y-118745000D03*
X106680000Y-118745000D03*
X105918000Y-117221000D03*
X106680000Y-117221000D03*
D30*
X106680000Y-168783000D03*
X110236000Y-168783000D03*
D31*
X99314000Y-130937000D03*
X99314000Y-131699000D03*
X100838000Y-130937000D03*
X100838000Y-131699000D03*
D32*
X99314000Y-130048000D03*
X100838000Y-130048000D03*
X99314000Y-132588000D03*
X100838000Y-132588000D03*
M02*
