G04 #@! TF.GenerationSoftware,KiCad,Pcbnew,5.99.0-unknown-d20d310~100~ubuntu18.04.1*
G04 #@! TF.CreationDate,2019-12-18T16:17:23+02:00*
G04 #@! TF.ProjectId,ESP32-PoE-ISO_Rev_D,45535033-322d-4506-9f45-2d49534f5f52,D*
G04 #@! TF.SameCoordinates,Original*
G04 #@! TF.FileFunction,Legend,Top*
G04 #@! TF.FilePolarity,Positive*
%FSLAX46Y46*%
G04 Gerber Fmt 4.6, Leading zero omitted, Abs format (unit mm)*
G04 Created by KiCad (PCBNEW 5.99.0-unknown-d20d310~100~ubuntu18.04.1) date 2019-12-18 16:17:23*
%MOMM*%
%LPD*%
G04 APERTURE LIST*
%ADD10C,0.254000*%
%ADD11C,0.158750*%
%ADD12C,0.508000*%
%ADD13C,0.127000*%
%ADD14C,0.200000*%
%ADD15C,0.600000*%
%ADD16C,0.050000*%
%ADD17C,0.100000*%
%ADD18C,0.190500*%
%ADD19C,0.125000*%
%ADD20C,0.317500*%
%ADD21C,0.222250*%
G04 APERTURE END LIST*
D10*
X114493523Y-121109619D02*
X115122476Y-121109619D01*
X114783809Y-121496666D01*
X114928952Y-121496666D01*
X115025714Y-121545047D01*
X115074095Y-121593428D01*
X115122476Y-121690190D01*
X115122476Y-121932095D01*
X115074095Y-122028857D01*
X115025714Y-122077238D01*
X114928952Y-122125619D01*
X114638666Y-122125619D01*
X114541904Y-122077238D01*
X114493523Y-122028857D01*
X115606285Y-122125619D02*
X115799809Y-122125619D01*
X115896571Y-122077238D01*
X115944952Y-122028857D01*
X116041714Y-121883714D01*
X116090095Y-121690190D01*
X116090095Y-121303142D01*
X116041714Y-121206380D01*
X115993333Y-121158000D01*
X115896571Y-121109619D01*
X115703047Y-121109619D01*
X115606285Y-121158000D01*
X115557904Y-121206380D01*
X115509523Y-121303142D01*
X115509523Y-121545047D01*
X115557904Y-121641809D01*
X115606285Y-121690190D01*
X115703047Y-121738571D01*
X115896571Y-121738571D01*
X115993333Y-121690190D01*
X116041714Y-121641809D01*
X116090095Y-121545047D01*
X114493523Y-124284619D02*
X115122476Y-124284619D01*
X114783809Y-124671666D01*
X114928952Y-124671666D01*
X115025714Y-124720047D01*
X115074095Y-124768428D01*
X115122476Y-124865190D01*
X115122476Y-125107095D01*
X115074095Y-125203857D01*
X115025714Y-125252238D01*
X114928952Y-125300619D01*
X114638666Y-125300619D01*
X114541904Y-125252238D01*
X114493523Y-125203857D01*
X115993333Y-124284619D02*
X115799809Y-124284619D01*
X115703047Y-124333000D01*
X115654666Y-124381380D01*
X115557904Y-124526523D01*
X115509523Y-124720047D01*
X115509523Y-125107095D01*
X115557904Y-125203857D01*
X115606285Y-125252238D01*
X115703047Y-125300619D01*
X115896571Y-125300619D01*
X115993333Y-125252238D01*
X116041714Y-125203857D01*
X116090095Y-125107095D01*
X116090095Y-124865190D01*
X116041714Y-124768428D01*
X115993333Y-124720047D01*
X115896571Y-124671666D01*
X115703047Y-124671666D01*
X115606285Y-124720047D01*
X115557904Y-124768428D01*
X115509523Y-124865190D01*
X114493523Y-126570619D02*
X115122476Y-126570619D01*
X114783809Y-126957666D01*
X114928952Y-126957666D01*
X115025714Y-127006047D01*
X115074095Y-127054428D01*
X115122476Y-127151190D01*
X115122476Y-127393095D01*
X115074095Y-127489857D01*
X115025714Y-127538238D01*
X114928952Y-127586619D01*
X114638666Y-127586619D01*
X114541904Y-127538238D01*
X114493523Y-127489857D01*
X116041714Y-126570619D02*
X115557904Y-126570619D01*
X115509523Y-127054428D01*
X115557904Y-127006047D01*
X115654666Y-126957666D01*
X115896571Y-126957666D01*
X115993333Y-127006047D01*
X116041714Y-127054428D01*
X116090095Y-127151190D01*
X116090095Y-127393095D01*
X116041714Y-127489857D01*
X115993333Y-127538238D01*
X115896571Y-127586619D01*
X115654666Y-127586619D01*
X115557904Y-127538238D01*
X115509523Y-127489857D01*
X114493523Y-128983619D02*
X115122476Y-128983619D01*
X114783809Y-129370666D01*
X114928952Y-129370666D01*
X115025714Y-129419047D01*
X115074095Y-129467428D01*
X115122476Y-129564190D01*
X115122476Y-129806095D01*
X115074095Y-129902857D01*
X115025714Y-129951238D01*
X114928952Y-129999619D01*
X114638666Y-129999619D01*
X114541904Y-129951238D01*
X114493523Y-129902857D01*
X115993333Y-129322285D02*
X115993333Y-129999619D01*
X115751428Y-128935238D02*
X115509523Y-129660952D01*
X116138476Y-129660952D01*
X114493523Y-131650619D02*
X115122476Y-131650619D01*
X114783809Y-132037666D01*
X114928952Y-132037666D01*
X115025714Y-132086047D01*
X115074095Y-132134428D01*
X115122476Y-132231190D01*
X115122476Y-132473095D01*
X115074095Y-132569857D01*
X115025714Y-132618238D01*
X114928952Y-132666619D01*
X114638666Y-132666619D01*
X114541904Y-132618238D01*
X114493523Y-132569857D01*
X115461142Y-131650619D02*
X116090095Y-131650619D01*
X115751428Y-132037666D01*
X115896571Y-132037666D01*
X115993333Y-132086047D01*
X116041714Y-132134428D01*
X116090095Y-132231190D01*
X116090095Y-132473095D01*
X116041714Y-132569857D01*
X115993333Y-132618238D01*
X115896571Y-132666619D01*
X115606285Y-132666619D01*
X115509523Y-132618238D01*
X115461142Y-132569857D01*
X114493523Y-134063619D02*
X115122476Y-134063619D01*
X114783809Y-134450666D01*
X114928952Y-134450666D01*
X115025714Y-134499047D01*
X115074095Y-134547428D01*
X115122476Y-134644190D01*
X115122476Y-134886095D01*
X115074095Y-134982857D01*
X115025714Y-135031238D01*
X114928952Y-135079619D01*
X114638666Y-135079619D01*
X114541904Y-135031238D01*
X114493523Y-134982857D01*
X115509523Y-134160380D02*
X115557904Y-134112000D01*
X115654666Y-134063619D01*
X115896571Y-134063619D01*
X115993333Y-134112000D01*
X116041714Y-134160380D01*
X116090095Y-134257142D01*
X116090095Y-134353904D01*
X116041714Y-134499047D01*
X115461142Y-135079619D01*
X116090095Y-135079619D01*
X115122476Y-137746619D02*
X114541904Y-137746619D01*
X114832190Y-137746619D02*
X114832190Y-136730619D01*
X114735428Y-136875761D01*
X114638666Y-136972523D01*
X114541904Y-137020904D01*
X115993333Y-136730619D02*
X115799809Y-136730619D01*
X115703047Y-136779000D01*
X115654666Y-136827380D01*
X115557904Y-136972523D01*
X115509523Y-137166047D01*
X115509523Y-137553095D01*
X115557904Y-137649857D01*
X115606285Y-137698238D01*
X115703047Y-137746619D01*
X115896571Y-137746619D01*
X115993333Y-137698238D01*
X116041714Y-137649857D01*
X116090095Y-137553095D01*
X116090095Y-137311190D01*
X116041714Y-137214428D01*
X115993333Y-137166047D01*
X115896571Y-137117666D01*
X115703047Y-137117666D01*
X115606285Y-137166047D01*
X115557904Y-137214428D01*
X115509523Y-137311190D01*
X115122476Y-140286619D02*
X114541904Y-140286619D01*
X114832190Y-140286619D02*
X114832190Y-139270619D01*
X114735428Y-139415761D01*
X114638666Y-139512523D01*
X114541904Y-139560904D01*
X116041714Y-139270619D02*
X115557904Y-139270619D01*
X115509523Y-139754428D01*
X115557904Y-139706047D01*
X115654666Y-139657666D01*
X115896571Y-139657666D01*
X115993333Y-139706047D01*
X116041714Y-139754428D01*
X116090095Y-139851190D01*
X116090095Y-140093095D01*
X116041714Y-140189857D01*
X115993333Y-140238238D01*
X115896571Y-140286619D01*
X115654666Y-140286619D01*
X115557904Y-140238238D01*
X115509523Y-140189857D01*
X114868476Y-142953619D02*
X114287904Y-142953619D01*
X114578190Y-142953619D02*
X114578190Y-141937619D01*
X114481428Y-142082761D01*
X114384666Y-142179523D01*
X114287904Y-142227904D01*
X115739333Y-142276285D02*
X115739333Y-142953619D01*
X115497428Y-141889238D02*
X115255523Y-142614952D01*
X115884476Y-142614952D01*
X114741476Y-147144619D02*
X114160904Y-147144619D01*
X114451190Y-147144619D02*
X114451190Y-146128619D01*
X114354428Y-146273761D01*
X114257666Y-146370523D01*
X114160904Y-146418904D01*
X115080142Y-146128619D02*
X115709095Y-146128619D01*
X115370428Y-146515666D01*
X115515571Y-146515666D01*
X115612333Y-146564047D01*
X115660714Y-146612428D01*
X115709095Y-146709190D01*
X115709095Y-146951095D01*
X115660714Y-147047857D01*
X115612333Y-147096238D01*
X115515571Y-147144619D01*
X115225285Y-147144619D01*
X115128523Y-147096238D01*
X115080142Y-147047857D01*
X93266380Y-145354523D02*
X92661619Y-145354523D01*
X92601142Y-145959285D01*
X92661619Y-145898809D01*
X92782571Y-145838333D01*
X93084952Y-145838333D01*
X93205904Y-145898809D01*
X93266380Y-145959285D01*
X93326857Y-146080238D01*
X93326857Y-146382619D01*
X93266380Y-146503571D01*
X93205904Y-146564047D01*
X93084952Y-146624523D01*
X92782571Y-146624523D01*
X92661619Y-146564047D01*
X92601142Y-146503571D01*
X93205904Y-143364857D02*
X93205904Y-144211523D01*
X92903523Y-142881047D02*
X92601142Y-143788190D01*
X93387333Y-143788190D01*
X92540666Y-140401523D02*
X93326857Y-140401523D01*
X92903523Y-140885333D01*
X93084952Y-140885333D01*
X93205904Y-140945809D01*
X93266380Y-141006285D01*
X93326857Y-141127238D01*
X93326857Y-141429619D01*
X93266380Y-141550571D01*
X93205904Y-141611047D01*
X93084952Y-141671523D01*
X92722095Y-141671523D01*
X92601142Y-141611047D01*
X92540666Y-141550571D01*
X92601142Y-137855476D02*
X92661619Y-137795000D01*
X92782571Y-137734523D01*
X93084952Y-137734523D01*
X93205904Y-137795000D01*
X93266380Y-137855476D01*
X93326857Y-137976428D01*
X93326857Y-138097380D01*
X93266380Y-138278809D01*
X92540666Y-139004523D01*
X93326857Y-139004523D01*
X93326857Y-136464523D02*
X92601142Y-136464523D01*
X92964000Y-136464523D02*
X92964000Y-135194523D01*
X92843047Y-135375952D01*
X92722095Y-135496904D01*
X92601142Y-135557380D01*
X110931476Y-130253619D02*
X111125000Y-130253619D01*
X111221761Y-130205238D01*
X111270142Y-130156857D01*
X111366904Y-130011714D01*
X111415285Y-129818190D01*
X111415285Y-129431142D01*
X111366904Y-129334380D01*
X111318523Y-129286000D01*
X111221761Y-129237619D01*
X111028238Y-129237619D01*
X110931476Y-129286000D01*
X110883095Y-129334380D01*
X110834714Y-129431142D01*
X110834714Y-129673047D01*
X110883095Y-129769809D01*
X110931476Y-129818190D01*
X111028238Y-129866571D01*
X111221761Y-129866571D01*
X111318523Y-129818190D01*
X111366904Y-129769809D01*
X111415285Y-129673047D01*
X100330000Y-139700000D02*
X99822000Y-139954000D01*
X100330000Y-139700000D02*
X99822000Y-139446000D01*
X97536000Y-139700000D02*
X97282000Y-139446000D01*
X97663000Y-139700000D02*
X97536000Y-139700000D01*
X100330000Y-139700000D02*
X97663000Y-139700000D01*
X93024476Y-133918476D02*
X92903523Y-133918476D01*
X92782571Y-133858000D01*
X92722095Y-133797523D01*
X92661619Y-133676571D01*
X92601142Y-133434666D01*
X92601142Y-133132285D01*
X92661619Y-132890380D01*
X92722095Y-132769428D01*
X92782571Y-132708952D01*
X92903523Y-132648476D01*
X93024476Y-132648476D01*
X93145428Y-132708952D01*
X93205904Y-132769428D01*
X93266380Y-132890380D01*
X93326857Y-133132285D01*
X93326857Y-133434666D01*
X93266380Y-133676571D01*
X93205904Y-133797523D01*
X93145428Y-133858000D01*
X93024476Y-133918476D01*
D11*
X92483214Y-130120571D02*
X92737214Y-130120571D01*
X92846071Y-130519714D02*
X92483214Y-130519714D01*
X92483214Y-129757714D01*
X92846071Y-129757714D01*
X93136357Y-130483428D02*
X93245214Y-130519714D01*
X93426642Y-130519714D01*
X93499214Y-130483428D01*
X93535500Y-130447142D01*
X93571785Y-130374571D01*
X93571785Y-130302000D01*
X93535500Y-130229428D01*
X93499214Y-130193142D01*
X93426642Y-130156857D01*
X93281500Y-130120571D01*
X93208928Y-130084285D01*
X93172642Y-130048000D01*
X93136357Y-129975428D01*
X93136357Y-129902857D01*
X93172642Y-129830285D01*
X93208928Y-129794000D01*
X93281500Y-129757714D01*
X93462928Y-129757714D01*
X93571785Y-129794000D01*
X93898357Y-130519714D02*
X93898357Y-129757714D01*
X94188642Y-129757714D01*
X94261214Y-129794000D01*
X94297500Y-129830285D01*
X94333785Y-129902857D01*
X94333785Y-130011714D01*
X94297500Y-130084285D01*
X94261214Y-130120571D01*
X94188642Y-130156857D01*
X93898357Y-130156857D01*
X94478928Y-130592285D02*
X95059500Y-130592285D01*
X95240928Y-130120571D02*
X95494928Y-130120571D01*
X95603785Y-130519714D02*
X95240928Y-130519714D01*
X95240928Y-129757714D01*
X95603785Y-129757714D01*
X95930357Y-130519714D02*
X95930357Y-129757714D01*
X96365785Y-130519714D01*
X96365785Y-129757714D01*
X92574132Y-128530241D02*
X92517707Y-128567496D01*
X92472349Y-128646057D01*
X92453179Y-128739737D01*
X92475315Y-128822349D01*
X92512570Y-128878774D01*
X92602199Y-128965437D01*
X92680760Y-129010794D01*
X92800627Y-129045083D01*
X92868119Y-129049134D01*
X92950732Y-129026998D01*
X93022276Y-128963557D01*
X93052514Y-128911183D01*
X93071684Y-128817503D01*
X93060616Y-128776197D01*
X92877307Y-128670363D01*
X92816831Y-128775111D01*
X93249061Y-128570752D02*
X92699135Y-128253252D01*
X93430490Y-128256509D01*
X92880564Y-127939009D01*
X93581680Y-127994639D02*
X93031754Y-127677139D01*
X93107349Y-127546204D01*
X93178894Y-127482762D01*
X93261506Y-127460627D01*
X93328999Y-127464678D01*
X93448865Y-127498967D01*
X93527426Y-127544324D01*
X93617055Y-127630987D01*
X93654310Y-127687412D01*
X93676446Y-127770024D01*
X93657276Y-127863704D01*
X93581680Y-127994639D01*
X92443875Y-127102596D02*
X92685780Y-126683604D01*
X92774323Y-127014052D02*
X92355332Y-126772147D01*
X92466302Y-126277561D02*
X92662849Y-125937130D01*
X92766512Y-126241392D01*
X92811869Y-126162831D01*
X92868294Y-126125576D01*
X92909600Y-126114508D01*
X92977093Y-126118559D01*
X93108028Y-126194154D01*
X93145283Y-126250579D01*
X93156351Y-126291885D01*
X93152299Y-126359378D01*
X93061585Y-126516500D01*
X93005160Y-126553755D01*
X92963854Y-126564823D01*
X92753564Y-125780009D02*
X93409323Y-125914200D01*
X92965230Y-125413391D01*
X93040826Y-125282456D02*
X93237373Y-124942026D01*
X93341036Y-125246287D01*
X93386393Y-125167726D01*
X93442818Y-125130471D01*
X93484124Y-125119403D01*
X93551617Y-125123455D01*
X93682552Y-125199050D01*
X93719806Y-125255475D01*
X93730874Y-125296781D01*
X93726823Y-125364274D01*
X93636109Y-125521396D01*
X93579684Y-125558650D01*
X93538378Y-125569718D01*
X92722066Y-124046726D02*
X92963970Y-123627735D01*
X93052514Y-123958183D02*
X92633522Y-123716278D01*
X92925921Y-122907448D02*
X92774730Y-123169317D01*
X93021481Y-123346695D01*
X93010413Y-123305389D01*
X93014464Y-123237896D01*
X93090059Y-123106961D01*
X93146484Y-123069706D01*
X93187790Y-123058638D01*
X93255283Y-123062689D01*
X93386218Y-123138285D01*
X93423473Y-123194710D01*
X93434541Y-123236016D01*
X93430490Y-123303509D01*
X93354895Y-123434443D01*
X93298470Y-123471698D01*
X93257164Y-123482766D01*
X93031754Y-122724139D02*
X93687514Y-122858330D01*
X93243421Y-122357522D01*
D10*
X97572285Y-130253619D02*
X96991714Y-130253619D01*
X97282000Y-130253619D02*
X97282000Y-129237619D01*
X97185238Y-129382761D01*
X97088476Y-129479523D01*
X96991714Y-129527904D01*
X90544952Y-180793571D02*
X91319047Y-180793571D01*
X90932000Y-181180619D02*
X90932000Y-180406523D01*
X95243952Y-180793571D02*
X96018047Y-180793571D01*
X117638285Y-121871619D02*
X117057714Y-121871619D01*
X117348000Y-121871619D02*
X117348000Y-120855619D01*
X117251238Y-121000761D01*
X117154476Y-121097523D01*
X117057714Y-121145904D01*
X91476285Y-121871619D02*
X90895714Y-121871619D01*
X91186000Y-121871619D02*
X91186000Y-120855619D01*
X91089238Y-121000761D01*
X90992476Y-121097523D01*
X90895714Y-121145904D01*
D12*
X91134595Y-116939785D02*
X91854261Y-116939785D01*
X92162690Y-118070690D02*
X91134595Y-118070690D01*
X91134595Y-115911690D01*
X92162690Y-115911690D01*
X92985166Y-117967880D02*
X93293595Y-118070690D01*
X93807642Y-118070690D01*
X94013261Y-117967880D01*
X94116071Y-117865071D01*
X94218880Y-117659452D01*
X94218880Y-117453833D01*
X94116071Y-117248214D01*
X94013261Y-117145404D01*
X93807642Y-117042595D01*
X93396404Y-116939785D01*
X93190785Y-116836976D01*
X93087976Y-116734166D01*
X92985166Y-116528547D01*
X92985166Y-116322928D01*
X93087976Y-116117309D01*
X93190785Y-116014500D01*
X93396404Y-115911690D01*
X93910452Y-115911690D01*
X94218880Y-116014500D01*
X95144166Y-118070690D02*
X95144166Y-115911690D01*
X95966642Y-115911690D01*
X96172261Y-116014500D01*
X96275071Y-116117309D01*
X96377880Y-116322928D01*
X96377880Y-116631357D01*
X96275071Y-116836976D01*
X96172261Y-116939785D01*
X95966642Y-117042595D01*
X95144166Y-117042595D01*
X97097547Y-115911690D02*
X98434071Y-115911690D01*
X97714404Y-116734166D01*
X98022833Y-116734166D01*
X98228452Y-116836976D01*
X98331261Y-116939785D01*
X98434071Y-117145404D01*
X98434071Y-117659452D01*
X98331261Y-117865071D01*
X98228452Y-117967880D01*
X98022833Y-118070690D01*
X97405976Y-118070690D01*
X97200357Y-117967880D01*
X97097547Y-117865071D01*
X99256547Y-116117309D02*
X99359357Y-116014500D01*
X99564976Y-115911690D01*
X100079023Y-115911690D01*
X100284642Y-116014500D01*
X100387452Y-116117309D01*
X100490261Y-116322928D01*
X100490261Y-116528547D01*
X100387452Y-116836976D01*
X99153738Y-118070690D01*
X100490261Y-118070690D01*
X101415547Y-117248214D02*
X103060499Y-117248214D01*
X104088595Y-118070690D02*
X104088595Y-115911690D01*
X104911071Y-115911690D01*
X105116690Y-116014500D01*
X105219499Y-116117309D01*
X105322309Y-116322928D01*
X105322309Y-116631357D01*
X105219499Y-116836976D01*
X105116690Y-116939785D01*
X104911071Y-117042595D01*
X104088595Y-117042595D01*
X106556023Y-118070690D02*
X106350404Y-117967880D01*
X106247595Y-117865071D01*
X106144785Y-117659452D01*
X106144785Y-117042595D01*
X106247595Y-116836976D01*
X106350404Y-116734166D01*
X106556023Y-116631357D01*
X106864452Y-116631357D01*
X107070071Y-116734166D01*
X107172880Y-116836976D01*
X107275690Y-117042595D01*
X107275690Y-117659452D01*
X107172880Y-117865071D01*
X107070071Y-117967880D01*
X106864452Y-118070690D01*
X106556023Y-118070690D01*
X108200976Y-116939785D02*
X108920642Y-116939785D01*
X109229071Y-118070690D02*
X108200976Y-118070690D01*
X108200976Y-115911690D01*
X109229071Y-115911690D01*
X110154357Y-117248214D02*
X111799309Y-117248214D01*
X112827404Y-118070690D02*
X112827404Y-115911690D01*
X113752690Y-117967880D02*
X114061119Y-118070690D01*
X114575166Y-118070690D01*
X114780785Y-117967880D01*
X114883595Y-117865071D01*
X114986404Y-117659452D01*
X114986404Y-117453833D01*
X114883595Y-117248214D01*
X114780785Y-117145404D01*
X114575166Y-117042595D01*
X114163928Y-116939785D01*
X113958309Y-116836976D01*
X113855500Y-116734166D01*
X113752690Y-116528547D01*
X113752690Y-116322928D01*
X113855500Y-116117309D01*
X113958309Y-116014500D01*
X114163928Y-115911690D01*
X114677976Y-115911690D01*
X114986404Y-116014500D01*
X116322928Y-115911690D02*
X116734166Y-115911690D01*
X116939785Y-116014500D01*
X117145404Y-116220119D01*
X117248214Y-116631357D01*
X117248214Y-117351023D01*
X117145404Y-117762261D01*
X116939785Y-117967880D01*
X116734166Y-118070690D01*
X116322928Y-118070690D01*
X116117309Y-117967880D01*
X115911690Y-117762261D01*
X115808880Y-117351023D01*
X115808880Y-116631357D01*
X115911690Y-116220119D01*
X116117309Y-116014500D01*
X116322928Y-115911690D01*
D10*
X111290000Y-114785000D02*
X110690000Y-114785000D01*
X96990000Y-114785000D02*
X97640000Y-114785000D01*
X95140000Y-89285000D02*
X95140000Y-95905000D01*
X113140000Y-114785000D02*
X113140000Y-114035000D01*
X113140000Y-114785000D02*
X110690000Y-114785000D01*
X95140000Y-114785000D02*
X97640000Y-114785000D01*
X95140000Y-114785000D02*
X95140000Y-114035000D01*
X113140000Y-89285000D02*
X113140000Y-95905000D01*
X95140000Y-95285000D02*
X113140000Y-95285000D01*
X95140000Y-89285000D02*
X113140000Y-89285000D01*
D13*
X116798738Y-104267000D02*
G75*
G03X116798738Y-104267000I-839738J0D01*
G01*
X116898000Y-106267000D02*
X117456800Y-106267000D01*
X114461200Y-106267000D02*
X115070800Y-106267000D01*
X116898000Y-102267000D02*
X117456800Y-102267000D01*
X114462000Y-102267000D02*
X115020800Y-102267000D01*
X117459000Y-106267000D02*
X117459000Y-102267000D01*
X114459000Y-106267000D02*
X114459000Y-102267000D01*
X93160738Y-104267000D02*
G75*
G03X93160738Y-104267000I-839738J0D01*
G01*
X93260000Y-106267000D02*
X93818800Y-106267000D01*
X90823200Y-106267000D02*
X91432800Y-106267000D01*
X93260000Y-102267000D02*
X93818800Y-102267000D01*
X90824000Y-102267000D02*
X91382800Y-102267000D01*
X93821000Y-106267000D02*
X93821000Y-102267000D01*
X90821000Y-106267000D02*
X90821000Y-102267000D01*
D10*
X101200000Y-180063000D02*
X101200000Y-174293000D01*
X101200000Y-196293000D02*
X101200000Y-184493000D01*
X117200000Y-196293000D02*
X101200000Y-196293000D01*
X117200000Y-184493000D02*
X117200000Y-196293000D01*
X117200000Y-174293000D02*
X117200000Y-180063000D01*
X101200000Y-174293000D02*
X117200000Y-174293000D01*
X96877000Y-133550000D02*
X96877000Y-133150000D01*
X93877000Y-133550000D02*
X93877000Y-133150000D01*
D14*
X95127000Y-133450000D02*
G75*
G02X95627000Y-133450000I250000J0D01*
G01*
X94627000Y-133450000D02*
G75*
G02X95127000Y-133450000I250000J0D01*
G01*
X95627000Y-133450000D02*
G75*
G02X96127000Y-133450000I250000J0D01*
G01*
X94627000Y-133500000D02*
X94277000Y-133500000D01*
X96127000Y-133500000D02*
X96477000Y-133500000D01*
D10*
X98581000Y-154543000D02*
X98581000Y-148543000D01*
X118081000Y-154543000D02*
X98581000Y-154543000D01*
X118081000Y-148543000D02*
X98581000Y-148543000D01*
X118081000Y-148543000D02*
X118081000Y-154543000D01*
X118081000Y-148543000D02*
X118081000Y-147543000D01*
X118081000Y-147543000D02*
X98581000Y-147543000D01*
X98581000Y-147543000D02*
X98581000Y-148543000D01*
X95224600Y-181749700D02*
X96227900Y-181749700D01*
X90157300Y-181749700D02*
X91211400Y-181749700D01*
X90152220Y-181757320D02*
X90152220Y-188066680D01*
X90152220Y-188066680D02*
X96232980Y-188066680D01*
X96232980Y-188066680D02*
X96232980Y-181749698D01*
X112692000Y-143383000D02*
X112184000Y-143383000D01*
X112692000Y-145923000D02*
X112184000Y-145923000D01*
X104083000Y-169418000D02*
X103283000Y-169418000D01*
X105483000Y-169418000D02*
X106083000Y-169418000D01*
X101683000Y-166318000D02*
X101683000Y-167418000D01*
X101683000Y-172518000D02*
X101683000Y-171418000D01*
X108883000Y-166318000D02*
X108883000Y-167418000D01*
X108883000Y-172518000D02*
X108883000Y-171418000D01*
X105483000Y-168418000D02*
X105483000Y-170418000D01*
X104083000Y-168418000D02*
X105483000Y-169418000D01*
X104083000Y-170418000D02*
X105483000Y-169418000D01*
X104083000Y-168418000D02*
X104083000Y-170418000D01*
X101683000Y-166318000D02*
X108883000Y-166318000D01*
X108883000Y-172518000D02*
X101683000Y-172518000D01*
D15*
X106783000Y-172318000D02*
X106783000Y-166518000D01*
D10*
X118173000Y-168656000D02*
G75*
G03X118173000Y-168656000I-4000000J0D01*
G01*
X104433021Y-163068000D02*
G75*
G03X104433021Y-163068000I-3087021J0D01*
G01*
X104216200Y-143789400D02*
X106121200Y-143789400D01*
X104216200Y-142417800D02*
X106121200Y-142417800D01*
X105130600Y-142417800D02*
X106121200Y-143789400D01*
X104216200Y-143789400D02*
X105130600Y-142417800D01*
X105168700Y-144373600D02*
X105168700Y-141897100D01*
X106146600Y-140322300D02*
X106146600Y-141617700D01*
X104140000Y-140335000D02*
X104140000Y-141630400D01*
X106146600Y-140309600D02*
X104152700Y-140309600D01*
X106159300Y-145961100D02*
X106159300Y-144589500D01*
X104140000Y-145961100D02*
X104140000Y-144589500D01*
X106159300Y-145961100D02*
X104140000Y-145961100D01*
X102184200Y-143789400D02*
X104089200Y-143789400D01*
X102184200Y-142417800D02*
X104089200Y-142417800D01*
X103098600Y-142417800D02*
X104089200Y-143789400D01*
X102184200Y-143789400D02*
X103098600Y-142417800D01*
X103136700Y-144373600D02*
X103136700Y-141897100D01*
X104114600Y-140322300D02*
X104114600Y-141617700D01*
X102108000Y-140335000D02*
X102108000Y-141630400D01*
X104114600Y-140309600D02*
X102120700Y-140309600D01*
X104127300Y-145961100D02*
X104127300Y-144589500D01*
X102108000Y-145961100D02*
X102108000Y-144589500D01*
X104127300Y-145961100D02*
X102108000Y-145961100D01*
X95859600Y-140030200D02*
X95859600Y-141935200D01*
X97231200Y-140030200D02*
X97231200Y-141935200D01*
X97231200Y-140944600D02*
X95859600Y-141935200D01*
X95859600Y-140030200D02*
X97231200Y-140944600D01*
X95275400Y-140982700D02*
X97751900Y-140982700D01*
X99326700Y-141960600D02*
X98031300Y-141960600D01*
X99314000Y-139954000D02*
X98018600Y-139954000D01*
X99339400Y-141960600D02*
X99339400Y-139966700D01*
X93687900Y-141973300D02*
X95059500Y-141973300D01*
X93687900Y-139954000D02*
X95059500Y-139954000D01*
X93687900Y-141973300D02*
X93687900Y-139954000D01*
X97180400Y-143941800D02*
X97180400Y-142036800D01*
X95808800Y-143941800D02*
X95808800Y-142036800D01*
X95808800Y-143027400D02*
X97180400Y-142036800D01*
X97180400Y-143941800D02*
X95808800Y-143027400D01*
X97764600Y-142989300D02*
X95288100Y-142989300D01*
X93713300Y-142011400D02*
X95008700Y-142011400D01*
X93726000Y-144018000D02*
X95021400Y-144018000D01*
X93700600Y-142011400D02*
X93700600Y-144005300D01*
X99352100Y-141998700D02*
X97980500Y-141998700D01*
X99352100Y-144018000D02*
X97980500Y-144018000D01*
X99352100Y-141998700D02*
X99352100Y-144018000D01*
X91630500Y-99187000D02*
X91630500Y-98933000D01*
X91630500Y-99187000D02*
X91630500Y-99441000D01*
X92519500Y-99187000D02*
X92519500Y-99441000D01*
X92519500Y-99187000D02*
X92519500Y-98933000D01*
X91630500Y-99187000D02*
X91630500Y-99441000D01*
X91630500Y-99187000D02*
X91630500Y-98933000D01*
X90741500Y-99187000D02*
X90741500Y-98933000D01*
X90741500Y-99187000D02*
X90741500Y-99441000D01*
X94551500Y-173863000D02*
X94551500Y-174117000D01*
X94551500Y-173863000D02*
X94551500Y-173609000D01*
X93662500Y-173863000D02*
X93662500Y-173609000D01*
X93662500Y-173863000D02*
X93662500Y-174117000D01*
X96393000Y-177495200D02*
X96393000Y-178625500D01*
X93586300Y-177495200D02*
X93586300Y-178625500D01*
D13*
X95377000Y-158826200D02*
X95377000Y-159664400D01*
X93599000Y-158826200D02*
X93599000Y-159664400D01*
D10*
X91084400Y-166751000D02*
X92125800Y-166751000D01*
X92011500Y-166916100D02*
X91186000Y-166916100D01*
X91046300Y-166763700D02*
X91173300Y-166903400D01*
X92138500Y-166763700D02*
X92011500Y-166916100D01*
D16*
X91342400Y-165324800D02*
X91232400Y-165194800D01*
X91212400Y-165184800D02*
X91222400Y-165264800D01*
X91212400Y-165184800D02*
X91292400Y-165184800D01*
X91212400Y-165400200D02*
X91292400Y-165400200D01*
X91212400Y-165400200D02*
X91222400Y-165480200D01*
X91321400Y-165531800D02*
X91211400Y-165401800D01*
D17*
X91677000Y-165454000D02*
X91457000Y-165454000D01*
X91457000Y-165264000D02*
X91557000Y-165364000D01*
X91677000Y-165264000D02*
X91577000Y-165374000D01*
X91677000Y-165264000D02*
X91457000Y-165264000D01*
X91567000Y-165094000D02*
X91567000Y-165614000D01*
D13*
X92202000Y-165735000D02*
X92202000Y-166751000D01*
X90982800Y-166751000D02*
X90982800Y-165735000D01*
X90982800Y-161036000D02*
X90982800Y-160020000D01*
X92202000Y-160020000D02*
X92202000Y-161036000D01*
D17*
X91567000Y-159379000D02*
X91567000Y-159899000D01*
X91677000Y-159549000D02*
X91457000Y-159549000D01*
X91677000Y-159549000D02*
X91577000Y-159659000D01*
X91457000Y-159549000D02*
X91557000Y-159649000D01*
X91677000Y-159739000D02*
X91457000Y-159739000D01*
D16*
X91321400Y-159816800D02*
X91211400Y-159686800D01*
X91212400Y-159685200D02*
X91222400Y-159765200D01*
X91212400Y-159685200D02*
X91292400Y-159685200D01*
X91212400Y-159469800D02*
X91292400Y-159469800D01*
X91212400Y-159469800D02*
X91222400Y-159549800D01*
X91342400Y-159609800D02*
X91232400Y-159479800D01*
D10*
X92138500Y-161048700D02*
X92011500Y-161201100D01*
X91046300Y-161048700D02*
X91173300Y-161188400D01*
X92011500Y-161201100D02*
X91186000Y-161201100D01*
X91084400Y-161036000D02*
X92125800Y-161036000D01*
X97599500Y-173863000D02*
X97599500Y-174117000D01*
X97599500Y-173863000D02*
X97599500Y-173609000D01*
X96710500Y-173863000D02*
X96710500Y-173609000D01*
X96710500Y-173863000D02*
X96710500Y-174117000D01*
X100393500Y-136906000D02*
X100393500Y-136652000D01*
X100393500Y-136906000D02*
X100393500Y-137160000D01*
X101282500Y-136906000D02*
X101282500Y-137160000D01*
X101282500Y-136906000D02*
X101282500Y-136652000D01*
X101282500Y-134620000D02*
X101282500Y-134874000D01*
X101282500Y-134620000D02*
X101282500Y-134366000D01*
X100393500Y-134620000D02*
X100393500Y-134366000D01*
X100393500Y-134620000D02*
X100393500Y-134874000D01*
X91122500Y-173863000D02*
X91122500Y-173609000D01*
X91122500Y-173863000D02*
X91122500Y-174117000D01*
X92011500Y-173863000D02*
X92011500Y-174117000D01*
X92011500Y-173863000D02*
X92011500Y-173609000D01*
X91122500Y-162433000D02*
X91122500Y-162179000D01*
X91122500Y-162433000D02*
X91122500Y-162687000D01*
X92011500Y-162433000D02*
X92011500Y-162687000D01*
X92011500Y-162433000D02*
X92011500Y-162179000D01*
X91122500Y-168148000D02*
X91122500Y-167894000D01*
X91122500Y-168148000D02*
X91122500Y-168402000D01*
X92011500Y-168148000D02*
X92011500Y-168402000D01*
X92011500Y-168148000D02*
X92011500Y-167894000D01*
X91122500Y-179578000D02*
X91122500Y-179324000D01*
X91122500Y-179578000D02*
X91122500Y-179832000D01*
X92011500Y-179578000D02*
X92011500Y-179832000D01*
X92011500Y-179578000D02*
X92011500Y-179324000D01*
X104521000Y-146240500D02*
X104775000Y-146240500D01*
X104521000Y-146240500D02*
X104267000Y-146240500D01*
X104521000Y-147129500D02*
X104267000Y-147129500D01*
X104521000Y-147129500D02*
X104775000Y-147129500D01*
X110363000Y-142938500D02*
X110109000Y-142938500D01*
X110363000Y-142938500D02*
X110617000Y-142938500D01*
X110363000Y-142049500D02*
X110617000Y-142049500D01*
X110363000Y-142049500D02*
X110109000Y-142049500D01*
X98298000Y-137922000D02*
X99314000Y-137922000D01*
X98298000Y-139446000D02*
X99314000Y-139446000D01*
X94869000Y-174879000D02*
X94869000Y-173863000D01*
X96393000Y-174879000D02*
X96393000Y-173863000D01*
X97409000Y-136321800D02*
X97409000Y-135191500D01*
X100215700Y-136321800D02*
X100215700Y-135191500D01*
X107061000Y-134683500D02*
X107061000Y-140144500D01*
X114300000Y-134683500D02*
X106680000Y-134683500D01*
X106680000Y-140144500D02*
X114300000Y-140144500D01*
X114300000Y-134683500D02*
X114300000Y-140144500D01*
X106680000Y-140144500D02*
X106680000Y-134683500D01*
D13*
X90982800Y-172466000D02*
X90982800Y-171450000D01*
X92202000Y-171450000D02*
X92202000Y-172466000D01*
D17*
X91567000Y-170809000D02*
X91567000Y-171329000D01*
X91677000Y-170979000D02*
X91457000Y-170979000D01*
X91677000Y-170979000D02*
X91577000Y-171089000D01*
X91457000Y-170979000D02*
X91557000Y-171079000D01*
X91677000Y-171169000D02*
X91457000Y-171169000D01*
D16*
X91321400Y-171246800D02*
X91211400Y-171116800D01*
X91212400Y-171115200D02*
X91222400Y-171195200D01*
X91212400Y-171115200D02*
X91292400Y-171115200D01*
X91212400Y-170899800D02*
X91292400Y-170899800D01*
X91212400Y-170899800D02*
X91222400Y-170979800D01*
X91342400Y-171039800D02*
X91232400Y-170909800D01*
D10*
X92138500Y-172478700D02*
X92011500Y-172631100D01*
X91046300Y-172478700D02*
X91173300Y-172618400D01*
X92011500Y-172631100D02*
X91186000Y-172631100D01*
X91084400Y-172466000D02*
X92125800Y-172466000D01*
X99822000Y-131572000D02*
X99822000Y-132588000D01*
X98298000Y-131572000D02*
X98298000Y-132588000D01*
D13*
X90982800Y-178181000D02*
X90982800Y-177165000D01*
X92202000Y-177165000D02*
X92202000Y-178181000D01*
D17*
X91567000Y-176524000D02*
X91567000Y-177044000D01*
X91677000Y-176694000D02*
X91457000Y-176694000D01*
X91677000Y-176694000D02*
X91577000Y-176804000D01*
X91457000Y-176694000D02*
X91557000Y-176794000D01*
X91677000Y-176884000D02*
X91457000Y-176884000D01*
D16*
X91321400Y-176961800D02*
X91211400Y-176831800D01*
X91212400Y-176830200D02*
X91222400Y-176910200D01*
X91212400Y-176830200D02*
X91292400Y-176830200D01*
X91212400Y-176614800D02*
X91292400Y-176614800D01*
X91212400Y-176614800D02*
X91222400Y-176694800D01*
X91342400Y-176754800D02*
X91232400Y-176624800D01*
D10*
X92138500Y-178193700D02*
X92011500Y-178346100D01*
X91046300Y-178193700D02*
X91173300Y-178333400D01*
X92011500Y-178346100D02*
X91186000Y-178346100D01*
X91084400Y-178181000D02*
X92125800Y-178181000D01*
X108585000Y-132842000D02*
X107569000Y-132842000D01*
X108585000Y-131318000D02*
X107569000Y-131318000D01*
X96926400Y-137033000D02*
X96215200Y-137033000D01*
X96926400Y-137871200D02*
X96926400Y-137033000D01*
X94081600Y-137871200D02*
X94081600Y-137033000D01*
X94792800Y-137033000D02*
X94081600Y-137033000D01*
X95097600Y-146812000D02*
X95808800Y-146812000D01*
X95097600Y-145973800D02*
X95097600Y-146812000D01*
X97942400Y-145973800D02*
X97942400Y-146812000D01*
X97231200Y-146812000D02*
X97942400Y-146812000D01*
X116395500Y-99187000D02*
X116395500Y-99441000D01*
X116395500Y-99187000D02*
X116395500Y-98933000D01*
X115506500Y-99187000D02*
X115506500Y-98933000D01*
X115506500Y-99187000D02*
X115506500Y-99441000D01*
X114490500Y-144526000D02*
X114490500Y-144272000D01*
X114490500Y-144526000D02*
X114490500Y-144780000D01*
X115379500Y-144526000D02*
X115379500Y-144780000D01*
X115379500Y-144526000D02*
X115379500Y-144272000D01*
X110426500Y-144526000D02*
X110426500Y-144780000D01*
X110426500Y-144526000D02*
X110426500Y-144272000D01*
X109537500Y-144526000D02*
X109537500Y-144272000D01*
X109537500Y-144526000D02*
X109537500Y-144780000D01*
X92900500Y-99187000D02*
X92900500Y-98933000D01*
X92900500Y-99187000D02*
X92900500Y-99441000D01*
X93789500Y-99187000D02*
X93789500Y-99441000D01*
X93789500Y-99187000D02*
X93789500Y-98933000D01*
X113144000Y-159639000D02*
X112244000Y-159639000D01*
X109244000Y-159639000D02*
X108344000Y-159639000D01*
X109244000Y-159639000D02*
G75*
G02X110244000Y-159639000I500000J0D01*
G01*
X111244000Y-159639000D02*
G75*
G02X112244000Y-159639000I500000J0D01*
G01*
X110244000Y-159639000D02*
G75*
G02X111244000Y-159639000I500000J0D01*
G01*
X113855270Y-159639000D02*
G75*
G03X113855270Y-159639000I-3111270J0D01*
G01*
X104244000Y-157539000D02*
X107744000Y-154839000D01*
X104244000Y-158039000D02*
X104244000Y-157539000D01*
X107344000Y-158039000D02*
X104244000Y-158039000D01*
X107344000Y-161239000D02*
X107344000Y-158039000D01*
X104244000Y-161239000D02*
X107344000Y-161239000D01*
X104244000Y-161739000D02*
X104244000Y-161239000D01*
X107744000Y-164439000D02*
X104244000Y-161739000D01*
X113744000Y-164439000D02*
X107744000Y-164439000D01*
X117244000Y-161739000D02*
X113744000Y-164439000D01*
X117244000Y-161239000D02*
X117244000Y-161739000D01*
X114144000Y-161239000D02*
X117244000Y-161239000D01*
X114144000Y-158039000D02*
X114144000Y-161239000D01*
X117244000Y-158039000D02*
X114144000Y-158039000D01*
X117244000Y-157539000D02*
X117244000Y-158039000D01*
X113744000Y-154839000D02*
X117244000Y-157539000D01*
X107744000Y-154839000D02*
X113744000Y-154839000D01*
X106489500Y-144399000D02*
X106489500Y-144145000D01*
X106489500Y-144399000D02*
X106489500Y-144653000D01*
X107378500Y-144399000D02*
X107378500Y-144653000D01*
X107378500Y-144399000D02*
X107378500Y-144145000D01*
X112776000Y-121031000D02*
X113284000Y-121031000D01*
X112903000Y-127635000D02*
X113157000Y-127635000D01*
X95504000Y-127635000D02*
X95123000Y-127635000D01*
X95504000Y-121031000D02*
X95123000Y-121031000D01*
X95250000Y-121158000D02*
X97790000Y-121158000D01*
X110490000Y-121158000D02*
X113030000Y-121158000D01*
X113030000Y-127508000D02*
X113030000Y-121158000D01*
X95250000Y-121158000D02*
X95250000Y-127508000D01*
X93980000Y-119888000D02*
X95250000Y-119888000D01*
X114300000Y-128778000D02*
X110490000Y-128778000D01*
X114300000Y-128778000D02*
X114300000Y-119888000D01*
X93980000Y-119888000D02*
X93980000Y-128778000D01*
X113030000Y-127508000D02*
X110490000Y-127508000D01*
X97790000Y-127508000D02*
X95250000Y-127508000D01*
X113030000Y-119888000D02*
X113030000Y-119634000D01*
X113030000Y-119634000D02*
X111760000Y-119634000D01*
X111760000Y-119888000D02*
X111760000Y-119634000D01*
X113030000Y-119888000D02*
X114300000Y-119888000D01*
X110490000Y-119888000D02*
X111760000Y-119888000D01*
X96520000Y-119634000D02*
X95250000Y-119634000D01*
X95250000Y-119634000D02*
X95250000Y-119888000D01*
X96520000Y-119634000D02*
X96520000Y-119888000D01*
X96520000Y-119888000D02*
X97790000Y-119888000D01*
X110490000Y-127762000D02*
X113284000Y-127762000D01*
X113284000Y-127762000D02*
X113284000Y-120904000D01*
X113284000Y-120904000D02*
X110490000Y-120904000D01*
X97790000Y-120904000D02*
X94996000Y-120904000D01*
X94996000Y-120904000D02*
X94996000Y-127762000D01*
X94996000Y-127762000D02*
X97790000Y-127762000D01*
X97790000Y-128778000D02*
X93980000Y-128778000D01*
X110490000Y-121158000D02*
X110490000Y-120904000D01*
X110490000Y-127762000D02*
X110490000Y-127508000D01*
X97790000Y-127762000D02*
X97790000Y-127508000D01*
X97790000Y-121158000D02*
X97790000Y-120904000D01*
X91326000Y-156354000D02*
X91326000Y-148954000D01*
X95826000Y-148954000D02*
X94626000Y-148954000D01*
X97326000Y-150854000D02*
X97326000Y-149854000D01*
X97326000Y-155454000D02*
X97326000Y-154454000D01*
X92326000Y-156354000D02*
X91326000Y-156354000D01*
X90226000Y-156718000D02*
X90226000Y-148590000D01*
X91326000Y-148954000D02*
X92326000Y-148954000D01*
X95826000Y-156354000D02*
X94626000Y-156354000D01*
X90297000Y-156718000D02*
X91313000Y-156337000D01*
X90297000Y-148590000D02*
X91313000Y-148971000D01*
X114033904Y-112600619D02*
X114033904Y-113423095D01*
X114082285Y-113519857D01*
X114130666Y-113568238D01*
X114227428Y-113616619D01*
X114420952Y-113616619D01*
X114517714Y-113568238D01*
X114566095Y-113519857D01*
X114614476Y-113423095D01*
X114614476Y-112600619D01*
X115146666Y-113616619D02*
X115340190Y-113616619D01*
X115436952Y-113568238D01*
X115485333Y-113519857D01*
X115582095Y-113374714D01*
X115630476Y-113181190D01*
X115630476Y-112794142D01*
X115582095Y-112697380D01*
X115533714Y-112649000D01*
X115436952Y-112600619D01*
X115243428Y-112600619D01*
X115146666Y-112649000D01*
X115098285Y-112697380D01*
X115049904Y-112794142D01*
X115049904Y-113036047D01*
X115098285Y-113132809D01*
X115146666Y-113181190D01*
X115243428Y-113229571D01*
X115436952Y-113229571D01*
X115533714Y-113181190D01*
X115582095Y-113132809D01*
X115630476Y-113036047D01*
X109395380Y-112744095D02*
X109347000Y-112695714D01*
X109298619Y-112598952D01*
X109298619Y-112357047D01*
X109347000Y-112260285D01*
X109395380Y-112211904D01*
X109492142Y-112163523D01*
X109588904Y-112163523D01*
X109734047Y-112211904D01*
X110314619Y-112792476D01*
X110314619Y-112163523D01*
X109637285Y-111292666D02*
X110314619Y-111292666D01*
X109250238Y-111534571D02*
X109975952Y-111776476D01*
X109975952Y-111147523D01*
X98884619Y-112163523D02*
X98884619Y-112744095D01*
X98884619Y-112453809D02*
X97868619Y-112453809D01*
X98013761Y-112550571D01*
X98110523Y-112647333D01*
X98158904Y-112744095D01*
X97868619Y-111244285D02*
X97868619Y-111728095D01*
X98352428Y-111776476D01*
X98304047Y-111728095D01*
X98255666Y-111631333D01*
X98255666Y-111389428D01*
X98304047Y-111292666D01*
X98352428Y-111244285D01*
X98449190Y-111195904D01*
X98691095Y-111195904D01*
X98787857Y-111244285D01*
X98836238Y-111292666D01*
X98884619Y-111389428D01*
X98884619Y-111631333D01*
X98836238Y-111728095D01*
X98787857Y-111776476D01*
X109032523Y-96173619D02*
X109661476Y-96173619D01*
X109322809Y-96560666D01*
X109467952Y-96560666D01*
X109564714Y-96609047D01*
X109613095Y-96657428D01*
X109661476Y-96754190D01*
X109661476Y-96996095D01*
X109613095Y-97092857D01*
X109564714Y-97141238D01*
X109467952Y-97189619D01*
X109177666Y-97189619D01*
X109080904Y-97141238D01*
X109032523Y-97092857D01*
X110242047Y-96609047D02*
X110145285Y-96560666D01*
X110096904Y-96512285D01*
X110048523Y-96415523D01*
X110048523Y-96367142D01*
X110096904Y-96270380D01*
X110145285Y-96222000D01*
X110242047Y-96173619D01*
X110435571Y-96173619D01*
X110532333Y-96222000D01*
X110580714Y-96270380D01*
X110629095Y-96367142D01*
X110629095Y-96415523D01*
X110580714Y-96512285D01*
X110532333Y-96560666D01*
X110435571Y-96609047D01*
X110242047Y-96609047D01*
X110145285Y-96657428D01*
X110096904Y-96705809D01*
X110048523Y-96802571D01*
X110048523Y-96996095D01*
X110096904Y-97092857D01*
X110145285Y-97141238D01*
X110242047Y-97189619D01*
X110435571Y-97189619D01*
X110532333Y-97141238D01*
X110580714Y-97092857D01*
X110629095Y-96996095D01*
X110629095Y-96802571D01*
X110580714Y-96705809D01*
X110532333Y-96657428D01*
X110435571Y-96609047D01*
X98080285Y-97189619D02*
X97499714Y-97189619D01*
X97790000Y-97189619D02*
X97790000Y-96173619D01*
X97693238Y-96318761D01*
X97596476Y-96415523D01*
X97499714Y-96463904D01*
X97971428Y-108722428D02*
X98310095Y-108722428D01*
X98455238Y-109254619D02*
X97971428Y-109254619D01*
X97971428Y-108238619D01*
X98455238Y-108238619D01*
X98842285Y-109206238D02*
X98987428Y-109254619D01*
X99229333Y-109254619D01*
X99326095Y-109206238D01*
X99374476Y-109157857D01*
X99422857Y-109061095D01*
X99422857Y-108964333D01*
X99374476Y-108867571D01*
X99326095Y-108819190D01*
X99229333Y-108770809D01*
X99035809Y-108722428D01*
X98939047Y-108674047D01*
X98890666Y-108625666D01*
X98842285Y-108528904D01*
X98842285Y-108432142D01*
X98890666Y-108335380D01*
X98939047Y-108287000D01*
X99035809Y-108238619D01*
X99277714Y-108238619D01*
X99422857Y-108287000D01*
X99858285Y-109254619D02*
X99858285Y-108238619D01*
X100245333Y-108238619D01*
X100342095Y-108287000D01*
X100390476Y-108335380D01*
X100438857Y-108432142D01*
X100438857Y-108577285D01*
X100390476Y-108674047D01*
X100342095Y-108722428D01*
X100245333Y-108770809D01*
X99858285Y-108770809D01*
X100874285Y-108867571D02*
X101648380Y-108867571D01*
X102035428Y-108238619D02*
X102277333Y-109254619D01*
X102470857Y-108528904D01*
X102664380Y-109254619D01*
X102906285Y-108238619D01*
X103873904Y-109254619D02*
X103535238Y-108770809D01*
X103293333Y-109254619D02*
X103293333Y-108238619D01*
X103680380Y-108238619D01*
X103777142Y-108287000D01*
X103825523Y-108335380D01*
X103873904Y-108432142D01*
X103873904Y-108577285D01*
X103825523Y-108674047D01*
X103777142Y-108722428D01*
X103680380Y-108770809D01*
X103293333Y-108770809D01*
X104502857Y-108238619D02*
X104696380Y-108238619D01*
X104793142Y-108287000D01*
X104889904Y-108383761D01*
X104938285Y-108577285D01*
X104938285Y-108915952D01*
X104889904Y-109109476D01*
X104793142Y-109206238D01*
X104696380Y-109254619D01*
X104502857Y-109254619D01*
X104406095Y-109206238D01*
X104309333Y-109109476D01*
X104260952Y-108915952D01*
X104260952Y-108577285D01*
X104309333Y-108383761D01*
X104406095Y-108287000D01*
X104502857Y-108238619D01*
X105567238Y-108238619D02*
X105760761Y-108238619D01*
X105857523Y-108287000D01*
X105954285Y-108383761D01*
X106002666Y-108577285D01*
X106002666Y-108915952D01*
X105954285Y-109109476D01*
X105857523Y-109206238D01*
X105760761Y-109254619D01*
X105567238Y-109254619D01*
X105470476Y-109206238D01*
X105373714Y-109109476D01*
X105325333Y-108915952D01*
X105325333Y-108577285D01*
X105373714Y-108383761D01*
X105470476Y-108287000D01*
X105567238Y-108238619D01*
X106438095Y-109254619D02*
X106438095Y-108238619D01*
X106776761Y-108964333D01*
X107115428Y-108238619D01*
X107115428Y-109254619D01*
X107599238Y-108867571D02*
X108373333Y-108867571D01*
X108760380Y-108238619D02*
X109389333Y-108238619D01*
X109050666Y-108625666D01*
X109195809Y-108625666D01*
X109292571Y-108674047D01*
X109340952Y-108722428D01*
X109389333Y-108819190D01*
X109389333Y-109061095D01*
X109340952Y-109157857D01*
X109292571Y-109206238D01*
X109195809Y-109254619D01*
X108905523Y-109254619D01*
X108808761Y-109206238D01*
X108760380Y-109157857D01*
X109776380Y-108335380D02*
X109824761Y-108287000D01*
X109921523Y-108238619D01*
X110163428Y-108238619D01*
X110260190Y-108287000D01*
X110308571Y-108335380D01*
X110356952Y-108432142D01*
X110356952Y-108528904D01*
X110308571Y-108674047D01*
X109728000Y-109254619D01*
X110356952Y-109254619D01*
X100632380Y-92496666D02*
X101237142Y-92496666D01*
X100511428Y-92859523D02*
X100934761Y-91589523D01*
X101358095Y-92859523D01*
X101781428Y-92012857D02*
X101781428Y-92859523D01*
X101781428Y-92133809D02*
X101841904Y-92073333D01*
X101962857Y-92012857D01*
X102144285Y-92012857D01*
X102265238Y-92073333D01*
X102325714Y-92194285D01*
X102325714Y-92859523D01*
X102749047Y-92012857D02*
X103232857Y-92012857D01*
X102930476Y-91589523D02*
X102930476Y-92678095D01*
X102990952Y-92799047D01*
X103111904Y-92859523D01*
X103232857Y-92859523D01*
X104140000Y-92799047D02*
X104019047Y-92859523D01*
X103777142Y-92859523D01*
X103656190Y-92799047D01*
X103595714Y-92678095D01*
X103595714Y-92194285D01*
X103656190Y-92073333D01*
X103777142Y-92012857D01*
X104019047Y-92012857D01*
X104140000Y-92073333D01*
X104200476Y-92194285D01*
X104200476Y-92315238D01*
X103595714Y-92436190D01*
X104744761Y-92012857D02*
X104744761Y-92859523D01*
X104744761Y-92133809D02*
X104805238Y-92073333D01*
X104926190Y-92012857D01*
X105107619Y-92012857D01*
X105228571Y-92073333D01*
X105289047Y-92194285D01*
X105289047Y-92859523D01*
X105893809Y-92012857D02*
X105893809Y-92859523D01*
X105893809Y-92133809D02*
X105954285Y-92073333D01*
X106075238Y-92012857D01*
X106256666Y-92012857D01*
X106377619Y-92073333D01*
X106438095Y-92194285D01*
X106438095Y-92859523D01*
X107587142Y-92859523D02*
X107587142Y-92194285D01*
X107526666Y-92073333D01*
X107405714Y-92012857D01*
X107163809Y-92012857D01*
X107042857Y-92073333D01*
X107587142Y-92799047D02*
X107466190Y-92859523D01*
X107163809Y-92859523D01*
X107042857Y-92799047D01*
X106982380Y-92678095D01*
X106982380Y-92557142D01*
X107042857Y-92436190D01*
X107163809Y-92375714D01*
X107466190Y-92375714D01*
X107587142Y-92315238D01*
X94820619Y-95830571D02*
X94772238Y-95927333D01*
X94723857Y-95975714D01*
X94627095Y-96024095D01*
X94336809Y-96024095D01*
X94240047Y-95975714D01*
X94191666Y-95927333D01*
X94143285Y-95830571D01*
X94143285Y-95685428D01*
X94191666Y-95588666D01*
X94240047Y-95540285D01*
X94336809Y-95491904D01*
X94627095Y-95491904D01*
X94723857Y-95540285D01*
X94772238Y-95588666D01*
X94820619Y-95685428D01*
X94820619Y-95830571D01*
X114747523Y-108385428D02*
X114892666Y-108433809D01*
X114941047Y-108482190D01*
X114989428Y-108578952D01*
X114989428Y-108724095D01*
X114941047Y-108820857D01*
X114892666Y-108869238D01*
X114795904Y-108917619D01*
X114408857Y-108917619D01*
X114408857Y-107901619D01*
X114747523Y-107901619D01*
X114844285Y-107950000D01*
X114892666Y-107998380D01*
X114941047Y-108095142D01*
X114941047Y-108191904D01*
X114892666Y-108288666D01*
X114844285Y-108337047D01*
X114747523Y-108385428D01*
X114408857Y-108385428D01*
X115424857Y-107901619D02*
X115424857Y-108724095D01*
X115473238Y-108820857D01*
X115521619Y-108869238D01*
X115618380Y-108917619D01*
X115811904Y-108917619D01*
X115908666Y-108869238D01*
X115957047Y-108820857D01*
X116005428Y-108724095D01*
X116005428Y-107901619D01*
X116344095Y-107901619D02*
X116924666Y-107901619D01*
X116634380Y-108917619D02*
X116634380Y-107901619D01*
X117795523Y-108917619D02*
X117214952Y-108917619D01*
X117505238Y-108917619D02*
X117505238Y-107901619D01*
X117408476Y-108046761D01*
X117311714Y-108143523D01*
X117214952Y-108191904D01*
X91288809Y-108663619D02*
X90950142Y-108179809D01*
X90708238Y-108663619D02*
X90708238Y-107647619D01*
X91095285Y-107647619D01*
X91192047Y-107696000D01*
X91240428Y-107744380D01*
X91288809Y-107841142D01*
X91288809Y-107986285D01*
X91240428Y-108083047D01*
X91192047Y-108131428D01*
X91095285Y-108179809D01*
X90708238Y-108179809D01*
X91675857Y-108615238D02*
X91821000Y-108663619D01*
X92062904Y-108663619D01*
X92159666Y-108615238D01*
X92208047Y-108566857D01*
X92256428Y-108470095D01*
X92256428Y-108373333D01*
X92208047Y-108276571D01*
X92159666Y-108228190D01*
X92062904Y-108179809D01*
X91869380Y-108131428D01*
X91772619Y-108083047D01*
X91724238Y-108034666D01*
X91675857Y-107937904D01*
X91675857Y-107841142D01*
X91724238Y-107744380D01*
X91772619Y-107696000D01*
X91869380Y-107647619D01*
X92111285Y-107647619D01*
X92256428Y-107696000D01*
X92546714Y-107647619D02*
X93127285Y-107647619D01*
X92837000Y-108663619D02*
X92837000Y-107647619D01*
X93998142Y-108663619D02*
X93417571Y-108663619D01*
X93707857Y-108663619D02*
X93707857Y-107647619D01*
X93611095Y-107792761D01*
X93514333Y-107889523D01*
X93417571Y-107937904D01*
X106123619Y-173941619D02*
X105639809Y-173941619D01*
X105639809Y-172925619D01*
X106413904Y-173651333D02*
X106897714Y-173651333D01*
X106317142Y-173941619D02*
X106655809Y-172925619D01*
X106994476Y-173941619D01*
X107333142Y-173941619D02*
X107333142Y-172925619D01*
X107913714Y-173941619D01*
X107913714Y-172925619D01*
X108155619Y-174038380D02*
X108929714Y-174038380D01*
X109752190Y-173844857D02*
X109703809Y-173893238D01*
X109558666Y-173941619D01*
X109461904Y-173941619D01*
X109316761Y-173893238D01*
X109220000Y-173796476D01*
X109171619Y-173699714D01*
X109123238Y-173506190D01*
X109123238Y-173361047D01*
X109171619Y-173167523D01*
X109220000Y-173070761D01*
X109316761Y-172974000D01*
X109461904Y-172925619D01*
X109558666Y-172925619D01*
X109703809Y-172974000D01*
X109752190Y-173022380D01*
X110381142Y-172925619D02*
X110574666Y-172925619D01*
X110671428Y-172974000D01*
X110768190Y-173070761D01*
X110816571Y-173264285D01*
X110816571Y-173602952D01*
X110768190Y-173796476D01*
X110671428Y-173893238D01*
X110574666Y-173941619D01*
X110381142Y-173941619D01*
X110284380Y-173893238D01*
X110187619Y-173796476D01*
X110139238Y-173602952D01*
X110139238Y-173264285D01*
X110187619Y-173070761D01*
X110284380Y-172974000D01*
X110381142Y-172925619D01*
X111252000Y-173941619D02*
X111252000Y-172925619D01*
X111832571Y-173941619D01*
X111832571Y-172925619D01*
X112848571Y-173941619D02*
X112268000Y-173941619D01*
X112558285Y-173941619D02*
X112558285Y-172925619D01*
X112461523Y-173070761D01*
X112364761Y-173167523D01*
X112268000Y-173215904D01*
D18*
X94705714Y-136271000D02*
X94705714Y-136633857D01*
X93943714Y-136633857D01*
X94016285Y-136053285D02*
X93980000Y-136017000D01*
X93943714Y-135944428D01*
X93943714Y-135763000D01*
X93980000Y-135690428D01*
X94016285Y-135654142D01*
X94088857Y-135617857D01*
X94161428Y-135617857D01*
X94270285Y-135654142D01*
X94705714Y-136089571D01*
X94705714Y-135617857D01*
X109546571Y-147156714D02*
X109546571Y-146394714D01*
X109728000Y-146394714D01*
X109836857Y-146431000D01*
X109909428Y-146503571D01*
X109945714Y-146576142D01*
X109982000Y-146721285D01*
X109982000Y-146830142D01*
X109945714Y-146975285D01*
X109909428Y-147047857D01*
X109836857Y-147120428D01*
X109728000Y-147156714D01*
X109546571Y-147156714D01*
X110744000Y-147084142D02*
X110707714Y-147120428D01*
X110598857Y-147156714D01*
X110526285Y-147156714D01*
X110417428Y-147120428D01*
X110344857Y-147047857D01*
X110308571Y-146975285D01*
X110272285Y-146830142D01*
X110272285Y-146721285D01*
X110308571Y-146576142D01*
X110344857Y-146503571D01*
X110417428Y-146431000D01*
X110526285Y-146394714D01*
X110598857Y-146394714D01*
X110707714Y-146431000D01*
X110744000Y-146467285D01*
X111070571Y-147156714D02*
X111070571Y-146394714D01*
X111252000Y-146394714D01*
X111360857Y-146431000D01*
X111433428Y-146503571D01*
X111469714Y-146576142D01*
X111506000Y-146721285D01*
X111506000Y-146830142D01*
X111469714Y-146975285D01*
X111433428Y-147047857D01*
X111360857Y-147120428D01*
X111252000Y-147156714D01*
X111070571Y-147156714D01*
X112268000Y-147084142D02*
X112231714Y-147120428D01*
X112122857Y-147156714D01*
X112050285Y-147156714D01*
X111941428Y-147120428D01*
X111868857Y-147047857D01*
X111832571Y-146975285D01*
X111796285Y-146830142D01*
X111796285Y-146721285D01*
X111832571Y-146576142D01*
X111868857Y-146503571D01*
X111941428Y-146431000D01*
X112050285Y-146394714D01*
X112122857Y-146394714D01*
X112231714Y-146431000D01*
X112268000Y-146467285D01*
X112993714Y-147156714D02*
X112558285Y-147156714D01*
X112776000Y-147156714D02*
X112776000Y-146394714D01*
X112703428Y-146503571D01*
X112630857Y-146576142D01*
X112558285Y-146612428D01*
D10*
X100771476Y-150247047D02*
X100952904Y-150307523D01*
X101255285Y-150307523D01*
X101376238Y-150247047D01*
X101436714Y-150186571D01*
X101497190Y-150065619D01*
X101497190Y-149944666D01*
X101436714Y-149823714D01*
X101376238Y-149763238D01*
X101255285Y-149702761D01*
X101013380Y-149642285D01*
X100892428Y-149581809D01*
X100831952Y-149521333D01*
X100771476Y-149400380D01*
X100771476Y-149279428D01*
X100831952Y-149158476D01*
X100892428Y-149098000D01*
X101013380Y-149037523D01*
X101315761Y-149037523D01*
X101497190Y-149098000D01*
X102041476Y-150307523D02*
X102041476Y-149037523D01*
X102646238Y-150307523D02*
X102646238Y-149037523D01*
X103130047Y-149037523D01*
X103251000Y-149098000D01*
X103311476Y-149158476D01*
X103371952Y-149279428D01*
X103371952Y-149460857D01*
X103311476Y-149581809D01*
X103251000Y-149642285D01*
X103130047Y-149702761D01*
X102646238Y-149702761D01*
X103916238Y-149823714D02*
X104883857Y-149823714D01*
X105367666Y-149037523D02*
X106214333Y-149037523D01*
X105670047Y-150307523D01*
X106395761Y-150428476D02*
X107363380Y-150428476D01*
X107665761Y-149037523D02*
X107665761Y-150065619D01*
X107726238Y-150186571D01*
X107786714Y-150247047D01*
X107907666Y-150307523D01*
X108149571Y-150307523D01*
X108270523Y-150247047D01*
X108331000Y-150186571D01*
X108391476Y-150065619D01*
X108391476Y-149037523D01*
X108996238Y-149460857D02*
X108996238Y-150307523D01*
X108996238Y-149581809D02*
X109056714Y-149521333D01*
X109177666Y-149460857D01*
X109359095Y-149460857D01*
X109480047Y-149521333D01*
X109540523Y-149642285D01*
X109540523Y-150307523D01*
X110145285Y-150307523D02*
X110145285Y-149460857D01*
X110145285Y-149037523D02*
X110084809Y-149098000D01*
X110145285Y-149158476D01*
X110205761Y-149098000D01*
X110145285Y-149037523D01*
X110145285Y-149158476D01*
X110629095Y-149460857D02*
X110931476Y-150307523D01*
X111233857Y-149460857D01*
X112201476Y-150247047D02*
X112080523Y-150307523D01*
X111838619Y-150307523D01*
X111717666Y-150247047D01*
X111657190Y-150126095D01*
X111657190Y-149642285D01*
X111717666Y-149521333D01*
X111838619Y-149460857D01*
X112080523Y-149460857D01*
X112201476Y-149521333D01*
X112261952Y-149642285D01*
X112261952Y-149763238D01*
X111657190Y-149884190D01*
X112806238Y-150307523D02*
X112806238Y-149460857D01*
X112806238Y-149702761D02*
X112866714Y-149581809D01*
X112927190Y-149521333D01*
X113048142Y-149460857D01*
X113169095Y-149460857D01*
X113531952Y-150247047D02*
X113652904Y-150307523D01*
X113894809Y-150307523D01*
X114015761Y-150247047D01*
X114076238Y-150126095D01*
X114076238Y-150065619D01*
X114015761Y-149944666D01*
X113894809Y-149884190D01*
X113713380Y-149884190D01*
X113592428Y-149823714D01*
X113531952Y-149702761D01*
X113531952Y-149642285D01*
X113592428Y-149521333D01*
X113713380Y-149460857D01*
X113894809Y-149460857D01*
X114015761Y-149521333D01*
X115164809Y-150307523D02*
X115164809Y-149642285D01*
X115104333Y-149521333D01*
X114983380Y-149460857D01*
X114741476Y-149460857D01*
X114620523Y-149521333D01*
X115164809Y-150247047D02*
X115043857Y-150307523D01*
X114741476Y-150307523D01*
X114620523Y-150247047D01*
X114560047Y-150126095D01*
X114560047Y-150005142D01*
X114620523Y-149884190D01*
X114741476Y-149823714D01*
X115043857Y-149823714D01*
X115164809Y-149763238D01*
X115951000Y-150307523D02*
X115830047Y-150247047D01*
X115769571Y-150126095D01*
X115769571Y-149037523D01*
X116313857Y-152212523D02*
X115588142Y-152212523D01*
X115951000Y-152212523D02*
X115951000Y-150942523D01*
X115830047Y-151123952D01*
X115709095Y-151244904D01*
X115588142Y-151305380D01*
X113048142Y-151063476D02*
X113108619Y-151003000D01*
X113229571Y-150942523D01*
X113531952Y-150942523D01*
X113652904Y-151003000D01*
X113713380Y-151063476D01*
X113773857Y-151184428D01*
X113773857Y-151305380D01*
X113713380Y-151486809D01*
X112987666Y-152212523D01*
X113773857Y-152212523D01*
X108572904Y-151365857D02*
X108572904Y-152212523D01*
X108270523Y-150882047D02*
X107968142Y-151789190D01*
X108754333Y-151789190D01*
X106093380Y-150942523D02*
X105488619Y-150942523D01*
X105428142Y-151547285D01*
X105488619Y-151486809D01*
X105609571Y-151426333D01*
X105911952Y-151426333D01*
X106032904Y-151486809D01*
X106093380Y-151547285D01*
X106153857Y-151668238D01*
X106153857Y-151970619D01*
X106093380Y-152091571D01*
X106032904Y-152152047D01*
X105911952Y-152212523D01*
X105609571Y-152212523D01*
X105488619Y-152152047D01*
X105428142Y-152091571D01*
X103492904Y-150942523D02*
X103251000Y-150942523D01*
X103130047Y-151003000D01*
X103069571Y-151063476D01*
X102948619Y-151244904D01*
X102888142Y-151486809D01*
X102888142Y-151970619D01*
X102948619Y-152091571D01*
X103009095Y-152152047D01*
X103130047Y-152212523D01*
X103371952Y-152212523D01*
X103492904Y-152152047D01*
X103553380Y-152091571D01*
X103613857Y-151970619D01*
X103613857Y-151668238D01*
X103553380Y-151547285D01*
X103492904Y-151486809D01*
X103371952Y-151426333D01*
X103130047Y-151426333D01*
X103009095Y-151486809D01*
X102948619Y-151547285D01*
X102888142Y-151668238D01*
X100287666Y-150942523D02*
X101134333Y-150942523D01*
X100590047Y-152212523D01*
D19*
X105890523Y-148007285D02*
X105723857Y-148007285D01*
X105723857Y-148269190D02*
X105723857Y-147769190D01*
X105961952Y-147769190D01*
X106247666Y-147769190D02*
X106295285Y-147769190D01*
X106342904Y-147793000D01*
X106366714Y-147816809D01*
X106390523Y-147864428D01*
X106414333Y-147959666D01*
X106414333Y-148078714D01*
X106390523Y-148173952D01*
X106366714Y-148221571D01*
X106342904Y-148245380D01*
X106295285Y-148269190D01*
X106247666Y-148269190D01*
X106200047Y-148245380D01*
X106176238Y-148221571D01*
X106152428Y-148173952D01*
X106128619Y-148078714D01*
X106128619Y-147959666D01*
X106152428Y-147864428D01*
X106176238Y-147816809D01*
X106200047Y-147793000D01*
X106247666Y-147769190D01*
X106866714Y-147769190D02*
X106628619Y-147769190D01*
X106604809Y-148007285D01*
X106628619Y-147983476D01*
X106676238Y-147959666D01*
X106795285Y-147959666D01*
X106842904Y-147983476D01*
X106866714Y-148007285D01*
X106890523Y-148054904D01*
X106890523Y-148173952D01*
X106866714Y-148221571D01*
X106842904Y-148245380D01*
X106795285Y-148269190D01*
X106676238Y-148269190D01*
X106628619Y-148245380D01*
X106604809Y-148221571D01*
X107200047Y-147769190D02*
X107247666Y-147769190D01*
X107295285Y-147793000D01*
X107319095Y-147816809D01*
X107342904Y-147864428D01*
X107366714Y-147959666D01*
X107366714Y-148078714D01*
X107342904Y-148173952D01*
X107319095Y-148221571D01*
X107295285Y-148245380D01*
X107247666Y-148269190D01*
X107200047Y-148269190D01*
X107152428Y-148245380D01*
X107128619Y-148221571D01*
X107104809Y-148173952D01*
X107081000Y-148078714D01*
X107081000Y-147959666D01*
X107104809Y-147864428D01*
X107128619Y-147816809D01*
X107152428Y-147793000D01*
X107200047Y-147769190D01*
X107819095Y-147769190D02*
X107581000Y-147769190D01*
X107557190Y-148007285D01*
X107581000Y-147983476D01*
X107628619Y-147959666D01*
X107747666Y-147959666D01*
X107795285Y-147983476D01*
X107819095Y-148007285D01*
X107842904Y-148054904D01*
X107842904Y-148173952D01*
X107819095Y-148221571D01*
X107795285Y-148245380D01*
X107747666Y-148269190D01*
X107628619Y-148269190D01*
X107581000Y-148245380D01*
X107557190Y-148221571D01*
X108033380Y-148245380D02*
X108104809Y-148269190D01*
X108223857Y-148269190D01*
X108271476Y-148245380D01*
X108295285Y-148221571D01*
X108319095Y-148173952D01*
X108319095Y-148126333D01*
X108295285Y-148078714D01*
X108271476Y-148054904D01*
X108223857Y-148031095D01*
X108128619Y-148007285D01*
X108081000Y-147983476D01*
X108057190Y-147959666D01*
X108033380Y-147912047D01*
X108033380Y-147864428D01*
X108057190Y-147816809D01*
X108081000Y-147793000D01*
X108128619Y-147769190D01*
X108247666Y-147769190D01*
X108319095Y-147793000D01*
X108533380Y-148078714D02*
X108914333Y-148078714D01*
X109128619Y-147816809D02*
X109152428Y-147793000D01*
X109200047Y-147769190D01*
X109319095Y-147769190D01*
X109366714Y-147793000D01*
X109390523Y-147816809D01*
X109414333Y-147864428D01*
X109414333Y-147912047D01*
X109390523Y-147983476D01*
X109104809Y-148269190D01*
X109414333Y-148269190D01*
X109581000Y-147769190D02*
X109700047Y-148269190D01*
X109795285Y-147912047D01*
X109890523Y-148269190D01*
X110009571Y-147769190D01*
X110485761Y-148269190D02*
X110319095Y-148031095D01*
X110200047Y-148269190D02*
X110200047Y-147769190D01*
X110390523Y-147769190D01*
X110438142Y-147793000D01*
X110461952Y-147816809D01*
X110485761Y-147864428D01*
X110485761Y-147935857D01*
X110461952Y-147983476D01*
X110438142Y-148007285D01*
X110390523Y-148031095D01*
X110200047Y-148031095D01*
X110676238Y-147816809D02*
X110700047Y-147793000D01*
X110747666Y-147769190D01*
X110866714Y-147769190D01*
X110914333Y-147793000D01*
X110938142Y-147816809D01*
X110961952Y-147864428D01*
X110961952Y-147912047D01*
X110938142Y-147983476D01*
X110652428Y-148269190D01*
X110961952Y-148269190D01*
D17*
X117397666Y-154104904D02*
X117397666Y-153914428D01*
X117511952Y-154143000D02*
X117111952Y-154009666D01*
X117511952Y-153876333D01*
X117511952Y-153743000D02*
X117111952Y-153743000D01*
X117397666Y-153609666D01*
X117111952Y-153476333D01*
X117511952Y-153476333D01*
X117511952Y-153076333D02*
X117511952Y-153304904D01*
X117511952Y-153190619D02*
X117111952Y-153190619D01*
X117169095Y-153228714D01*
X117207190Y-153266809D01*
X117226238Y-153304904D01*
X117511952Y-152904904D02*
X117111952Y-152904904D01*
X117111952Y-152809666D01*
X117131000Y-152752523D01*
X117169095Y-152714428D01*
X117207190Y-152695380D01*
X117283380Y-152676333D01*
X117340523Y-152676333D01*
X117416714Y-152695380D01*
X117454809Y-152714428D01*
X117492904Y-152752523D01*
X117511952Y-152809666D01*
X117511952Y-152904904D01*
X117359571Y-152504904D02*
X117359571Y-152200142D01*
X117111952Y-151933476D02*
X117111952Y-151895380D01*
X117131000Y-151857285D01*
X117150047Y-151838238D01*
X117188142Y-151819190D01*
X117264333Y-151800142D01*
X117359571Y-151800142D01*
X117435761Y-151819190D01*
X117473857Y-151838238D01*
X117492904Y-151857285D01*
X117511952Y-151895380D01*
X117511952Y-151933476D01*
X117492904Y-151971571D01*
X117473857Y-151990619D01*
X117435761Y-152009666D01*
X117359571Y-152028714D01*
X117264333Y-152028714D01*
X117188142Y-152009666D01*
X117150047Y-151990619D01*
X117131000Y-151971571D01*
X117111952Y-151933476D01*
X117111952Y-151438238D02*
X117111952Y-151628714D01*
X117302428Y-151647761D01*
X117283380Y-151628714D01*
X117264333Y-151590619D01*
X117264333Y-151495380D01*
X117283380Y-151457285D01*
X117302428Y-151438238D01*
X117340523Y-151419190D01*
X117435761Y-151419190D01*
X117473857Y-151438238D01*
X117492904Y-151457285D01*
X117511952Y-151495380D01*
X117511952Y-151590619D01*
X117492904Y-151628714D01*
X117473857Y-151647761D01*
X117111952Y-151171571D02*
X117111952Y-151133476D01*
X117131000Y-151095380D01*
X117150047Y-151076333D01*
X117188142Y-151057285D01*
X117264333Y-151038238D01*
X117359571Y-151038238D01*
X117435761Y-151057285D01*
X117473857Y-151076333D01*
X117492904Y-151095380D01*
X117511952Y-151133476D01*
X117511952Y-151171571D01*
X117492904Y-151209666D01*
X117473857Y-151228714D01*
X117435761Y-151247761D01*
X117359571Y-151266809D01*
X117264333Y-151266809D01*
X117188142Y-151247761D01*
X117150047Y-151228714D01*
X117131000Y-151209666D01*
X117111952Y-151171571D01*
X117111952Y-150676333D02*
X117111952Y-150866809D01*
X117302428Y-150885857D01*
X117283380Y-150866809D01*
X117264333Y-150828714D01*
X117264333Y-150733476D01*
X117283380Y-150695380D01*
X117302428Y-150676333D01*
X117340523Y-150657285D01*
X117435761Y-150657285D01*
X117473857Y-150676333D01*
X117492904Y-150695380D01*
X117511952Y-150733476D01*
X117511952Y-150828714D01*
X117492904Y-150866809D01*
X117473857Y-150885857D01*
X117492904Y-150504904D02*
X117511952Y-150447761D01*
X117511952Y-150352523D01*
X117492904Y-150314428D01*
X117473857Y-150295380D01*
X117435761Y-150276333D01*
X117397666Y-150276333D01*
X117359571Y-150295380D01*
X117340523Y-150314428D01*
X117321476Y-150352523D01*
X117302428Y-150428714D01*
X117283380Y-150466809D01*
X117264333Y-150485857D01*
X117226238Y-150504904D01*
X117188142Y-150504904D01*
X117150047Y-150485857D01*
X117131000Y-150466809D01*
X117111952Y-150428714D01*
X117111952Y-150333476D01*
X117131000Y-150276333D01*
X117359571Y-150104904D02*
X117359571Y-149800142D01*
X117511952Y-149609666D02*
X117111952Y-149609666D01*
X117511952Y-149381095D01*
X117111952Y-149381095D01*
X117111952Y-149228714D02*
X117111952Y-148962047D01*
X117511952Y-149228714D01*
X117511952Y-148962047D01*
X117397666Y-154104904D02*
X117397666Y-153914428D01*
X117511952Y-154143000D02*
X117111952Y-154009666D01*
X117511952Y-153876333D01*
X117511952Y-153743000D02*
X117111952Y-153743000D01*
X117397666Y-153609666D01*
X117111952Y-153476333D01*
X117511952Y-153476333D01*
X117511952Y-153076333D02*
X117511952Y-153304904D01*
X117511952Y-153190619D02*
X117111952Y-153190619D01*
X117169095Y-153228714D01*
X117207190Y-153266809D01*
X117226238Y-153304904D01*
X117511952Y-152904904D02*
X117111952Y-152904904D01*
X117111952Y-152809666D01*
X117131000Y-152752523D01*
X117169095Y-152714428D01*
X117207190Y-152695380D01*
X117283380Y-152676333D01*
X117340523Y-152676333D01*
X117416714Y-152695380D01*
X117454809Y-152714428D01*
X117492904Y-152752523D01*
X117511952Y-152809666D01*
X117511952Y-152904904D01*
X117359571Y-152504904D02*
X117359571Y-152200142D01*
X117111952Y-151933476D02*
X117111952Y-151895380D01*
X117131000Y-151857285D01*
X117150047Y-151838238D01*
X117188142Y-151819190D01*
X117264333Y-151800142D01*
X117359571Y-151800142D01*
X117435761Y-151819190D01*
X117473857Y-151838238D01*
X117492904Y-151857285D01*
X117511952Y-151895380D01*
X117511952Y-151933476D01*
X117492904Y-151971571D01*
X117473857Y-151990619D01*
X117435761Y-152009666D01*
X117359571Y-152028714D01*
X117264333Y-152028714D01*
X117188142Y-152009666D01*
X117150047Y-151990619D01*
X117131000Y-151971571D01*
X117111952Y-151933476D01*
X117111952Y-151438238D02*
X117111952Y-151628714D01*
X117302428Y-151647761D01*
X117283380Y-151628714D01*
X117264333Y-151590619D01*
X117264333Y-151495380D01*
X117283380Y-151457285D01*
X117302428Y-151438238D01*
X117340523Y-151419190D01*
X117435761Y-151419190D01*
X117473857Y-151438238D01*
X117492904Y-151457285D01*
X117511952Y-151495380D01*
X117511952Y-151590619D01*
X117492904Y-151628714D01*
X117473857Y-151647761D01*
X117111952Y-151171571D02*
X117111952Y-151133476D01*
X117131000Y-151095380D01*
X117150047Y-151076333D01*
X117188142Y-151057285D01*
X117264333Y-151038238D01*
X117359571Y-151038238D01*
X117435761Y-151057285D01*
X117473857Y-151076333D01*
X117492904Y-151095380D01*
X117511952Y-151133476D01*
X117511952Y-151171571D01*
X117492904Y-151209666D01*
X117473857Y-151228714D01*
X117435761Y-151247761D01*
X117359571Y-151266809D01*
X117264333Y-151266809D01*
X117188142Y-151247761D01*
X117150047Y-151228714D01*
X117131000Y-151209666D01*
X117111952Y-151171571D01*
X117111952Y-150676333D02*
X117111952Y-150866809D01*
X117302428Y-150885857D01*
X117283380Y-150866809D01*
X117264333Y-150828714D01*
X117264333Y-150733476D01*
X117283380Y-150695380D01*
X117302428Y-150676333D01*
X117340523Y-150657285D01*
X117435761Y-150657285D01*
X117473857Y-150676333D01*
X117492904Y-150695380D01*
X117511952Y-150733476D01*
X117511952Y-150828714D01*
X117492904Y-150866809D01*
X117473857Y-150885857D01*
X117492904Y-150504904D02*
X117511952Y-150447761D01*
X117511952Y-150352523D01*
X117492904Y-150314428D01*
X117473857Y-150295380D01*
X117435761Y-150276333D01*
X117397666Y-150276333D01*
X117359571Y-150295380D01*
X117340523Y-150314428D01*
X117321476Y-150352523D01*
X117302428Y-150428714D01*
X117283380Y-150466809D01*
X117264333Y-150485857D01*
X117226238Y-150504904D01*
X117188142Y-150504904D01*
X117150047Y-150485857D01*
X117131000Y-150466809D01*
X117111952Y-150428714D01*
X117111952Y-150333476D01*
X117131000Y-150276333D01*
X117359571Y-150104904D02*
X117359571Y-149800142D01*
X117511952Y-149609666D02*
X117111952Y-149609666D01*
X117511952Y-149381095D01*
X117111952Y-149381095D01*
X117111952Y-149228714D02*
X117111952Y-148962047D01*
X117511952Y-149228714D01*
X117511952Y-148962047D01*
D10*
X97209428Y-186145714D02*
X97257809Y-186000571D01*
X97306190Y-185952190D01*
X97402952Y-185903809D01*
X97548095Y-185903809D01*
X97644857Y-185952190D01*
X97693238Y-186000571D01*
X97741619Y-186097333D01*
X97741619Y-186484380D01*
X96725619Y-186484380D01*
X96725619Y-186145714D01*
X96774000Y-186048952D01*
X96822380Y-186000571D01*
X96919142Y-185952190D01*
X97015904Y-185952190D01*
X97112666Y-186000571D01*
X97161047Y-186048952D01*
X97209428Y-186145714D01*
X97209428Y-186484380D01*
X97451333Y-185516761D02*
X97451333Y-185032952D01*
X97741619Y-185613523D02*
X96725619Y-185274857D01*
X97741619Y-184936190D01*
X96725619Y-184742666D02*
X96725619Y-184162095D01*
X97741619Y-184452380D02*
X96725619Y-184452380D01*
X97741619Y-183291238D02*
X97741619Y-183871809D01*
X97741619Y-183581523D02*
X96725619Y-183581523D01*
X96870761Y-183678285D01*
X96967523Y-183775047D01*
X97015904Y-183871809D01*
D18*
X113084428Y-142911285D02*
X113011857Y-142875000D01*
X112939285Y-142802428D01*
X112830428Y-142693571D01*
X112757857Y-142657285D01*
X112685285Y-142657285D01*
X112721571Y-142838714D02*
X112649000Y-142802428D01*
X112576428Y-142729857D01*
X112540142Y-142584714D01*
X112540142Y-142330714D01*
X112576428Y-142185571D01*
X112649000Y-142113000D01*
X112721571Y-142076714D01*
X112866714Y-142076714D01*
X112939285Y-142113000D01*
X113011857Y-142185571D01*
X113048142Y-142330714D01*
X113048142Y-142584714D01*
X113011857Y-142729857D01*
X112939285Y-142802428D01*
X112866714Y-142838714D01*
X112721571Y-142838714D01*
X113773857Y-142838714D02*
X113338428Y-142838714D01*
X113556142Y-142838714D02*
X113556142Y-142076714D01*
X113483571Y-142185571D01*
X113411000Y-142258142D01*
X113338428Y-142294428D01*
D14*
X110051857Y-146030904D02*
X109975666Y-145992809D01*
X109937571Y-145954714D01*
X109899476Y-145878523D01*
X109899476Y-145649952D01*
X109937571Y-145573761D01*
X109975666Y-145535666D01*
X110051857Y-145497571D01*
X110166142Y-145497571D01*
X110242333Y-145535666D01*
X110280428Y-145573761D01*
X110318523Y-145649952D01*
X110318523Y-145878523D01*
X110280428Y-145954714D01*
X110242333Y-145992809D01*
X110166142Y-146030904D01*
X110051857Y-146030904D01*
D10*
X100408619Y-170167904D02*
X99392619Y-170167904D01*
X99392619Y-169926000D01*
X99441000Y-169780857D01*
X99537761Y-169684095D01*
X99634523Y-169635714D01*
X99828047Y-169587333D01*
X99973190Y-169587333D01*
X100166714Y-169635714D01*
X100263476Y-169684095D01*
X100360238Y-169780857D01*
X100408619Y-169926000D01*
X100408619Y-170167904D01*
X99392619Y-168668095D02*
X99392619Y-169151904D01*
X99876428Y-169200285D01*
X99828047Y-169151904D01*
X99779666Y-169055142D01*
X99779666Y-168813238D01*
X99828047Y-168716476D01*
X99876428Y-168668095D01*
X99973190Y-168619714D01*
X100215095Y-168619714D01*
X100311857Y-168668095D01*
X100360238Y-168716476D01*
X100408619Y-168813238D01*
X100408619Y-169055142D01*
X100360238Y-169151904D01*
X100311857Y-169200285D01*
X115867579Y-164132737D02*
X115799158Y-164132737D01*
X115662316Y-164064316D01*
X115593895Y-163995895D01*
X115525474Y-163859053D01*
X115525474Y-163722211D01*
X115559685Y-163619579D01*
X115662316Y-163448527D01*
X115764948Y-163345895D01*
X115936000Y-163243264D01*
X116038632Y-163209053D01*
X116175474Y-163209053D01*
X116312316Y-163277474D01*
X116380737Y-163345895D01*
X116449158Y-163482737D01*
X116449158Y-163551158D01*
X116722841Y-163824842D02*
X116791262Y-163824842D01*
X116893894Y-163859053D01*
X117064946Y-164030105D01*
X117099157Y-164132737D01*
X117099157Y-164201158D01*
X117064946Y-164303789D01*
X116996525Y-164372210D01*
X116859683Y-164440631D01*
X116038632Y-164440631D01*
X116483368Y-164885367D01*
X116825473Y-165227472D02*
X116962315Y-165364314D01*
X117064946Y-165398525D01*
X117133367Y-165398525D01*
X117304420Y-165364314D01*
X117475472Y-165261683D01*
X117749156Y-164987999D01*
X117783367Y-164885367D01*
X117783367Y-164816946D01*
X117749156Y-164714315D01*
X117612314Y-164577473D01*
X117509683Y-164543262D01*
X117441262Y-164543262D01*
X117338630Y-164577473D01*
X117167578Y-164748525D01*
X117133367Y-164851157D01*
X117133367Y-164919578D01*
X117167578Y-165022209D01*
X117304420Y-165159051D01*
X117407051Y-165193262D01*
X117475472Y-165193262D01*
X117578104Y-165159051D01*
X111911190Y-166841714D02*
X112878809Y-166841714D01*
X112395000Y-167325523D02*
X112395000Y-166357904D01*
X110133190Y-171921714D02*
X111100809Y-171921714D01*
X110617000Y-172405523D02*
X110617000Y-171437904D01*
X100692857Y-159493857D02*
X100644476Y-159542238D01*
X100499333Y-159590619D01*
X100402571Y-159590619D01*
X100257428Y-159542238D01*
X100160666Y-159445476D01*
X100112285Y-159348714D01*
X100063904Y-159155190D01*
X100063904Y-159010047D01*
X100112285Y-158816523D01*
X100160666Y-158719761D01*
X100257428Y-158623000D01*
X100402571Y-158574619D01*
X100499333Y-158574619D01*
X100644476Y-158623000D01*
X100692857Y-158671380D01*
X101079904Y-158671380D02*
X101128285Y-158623000D01*
X101225047Y-158574619D01*
X101466952Y-158574619D01*
X101563714Y-158623000D01*
X101612095Y-158671380D01*
X101660476Y-158768142D01*
X101660476Y-158864904D01*
X101612095Y-159010047D01*
X101031523Y-159590619D01*
X101660476Y-159590619D01*
X101999142Y-158574619D02*
X102676476Y-158574619D01*
X102241047Y-159590619D01*
X99023714Y-166853809D02*
X99023714Y-165886190D01*
X99507523Y-166370000D02*
X98539904Y-166370000D01*
X99785714Y-164694809D02*
X99785714Y-163727190D01*
X100269523Y-164211000D02*
X99301904Y-164211000D01*
D18*
X104974571Y-139917714D02*
X104974571Y-139155714D01*
X105156000Y-139155714D01*
X105264857Y-139192000D01*
X105337428Y-139264571D01*
X105373714Y-139337142D01*
X105410000Y-139482285D01*
X105410000Y-139591142D01*
X105373714Y-139736285D01*
X105337428Y-139808857D01*
X105264857Y-139881428D01*
X105156000Y-139917714D01*
X104974571Y-139917714D01*
X105664000Y-139155714D02*
X106172000Y-139155714D01*
X105845428Y-139917714D01*
X103196571Y-139917714D02*
X103196571Y-139155714D01*
X103378000Y-139155714D01*
X103486857Y-139192000D01*
X103559428Y-139264571D01*
X103595714Y-139337142D01*
X103632000Y-139482285D01*
X103632000Y-139591142D01*
X103595714Y-139736285D01*
X103559428Y-139808857D01*
X103486857Y-139881428D01*
X103378000Y-139917714D01*
X103196571Y-139917714D01*
X104285142Y-139155714D02*
X104140000Y-139155714D01*
X104067428Y-139192000D01*
X104031142Y-139228285D01*
X103958571Y-139337142D01*
X103922285Y-139482285D01*
X103922285Y-139772571D01*
X103958571Y-139845142D01*
X103994857Y-139881428D01*
X104067428Y-139917714D01*
X104212571Y-139917714D01*
X104285142Y-139881428D01*
X104321428Y-139845142D01*
X104357714Y-139772571D01*
X104357714Y-139591142D01*
X104321428Y-139518571D01*
X104285142Y-139482285D01*
X104212571Y-139446000D01*
X104067428Y-139446000D01*
X103994857Y-139482285D01*
X103958571Y-139518571D01*
X103922285Y-139591142D01*
X100547714Y-141786428D02*
X99785714Y-141786428D01*
X99785714Y-141605000D01*
X99822000Y-141496142D01*
X99894571Y-141423571D01*
X99967142Y-141387285D01*
X100112285Y-141351000D01*
X100221142Y-141351000D01*
X100366285Y-141387285D01*
X100438857Y-141423571D01*
X100511428Y-141496142D01*
X100547714Y-141605000D01*
X100547714Y-141786428D01*
X99785714Y-141097000D02*
X99785714Y-140625285D01*
X100076000Y-140879285D01*
X100076000Y-140770428D01*
X100112285Y-140697857D01*
X100148571Y-140661571D01*
X100221142Y-140625285D01*
X100402571Y-140625285D01*
X100475142Y-140661571D01*
X100511428Y-140697857D01*
X100547714Y-140770428D01*
X100547714Y-140988142D01*
X100511428Y-141060714D01*
X100475142Y-141097000D01*
X100547714Y-143564428D02*
X99785714Y-143564428D01*
X99785714Y-143383000D01*
X99822000Y-143274142D01*
X99894571Y-143201571D01*
X99967142Y-143165285D01*
X100112285Y-143129000D01*
X100221142Y-143129000D01*
X100366285Y-143165285D01*
X100438857Y-143201571D01*
X100511428Y-143274142D01*
X100547714Y-143383000D01*
X100547714Y-143564428D01*
X100547714Y-142403285D02*
X100547714Y-142838714D01*
X100547714Y-142621000D02*
X99785714Y-142621000D01*
X99894571Y-142693571D01*
X99967142Y-142766142D01*
X100003428Y-142838714D01*
D11*
X91969166Y-98204261D02*
X91757500Y-97901880D01*
X91606309Y-98204261D02*
X91606309Y-97569261D01*
X91848214Y-97569261D01*
X91908690Y-97599500D01*
X91938928Y-97629738D01*
X91969166Y-97690214D01*
X91969166Y-97780928D01*
X91938928Y-97841404D01*
X91908690Y-97871642D01*
X91848214Y-97901880D01*
X91606309Y-97901880D01*
X92271547Y-98204261D02*
X92392500Y-98204261D01*
X92452976Y-98174023D01*
X92483214Y-98143785D01*
X92543690Y-98053071D01*
X92573928Y-97932119D01*
X92573928Y-97690214D01*
X92543690Y-97629738D01*
X92513452Y-97599500D01*
X92452976Y-97569261D01*
X92332023Y-97569261D01*
X92271547Y-97599500D01*
X92241309Y-97629738D01*
X92211071Y-97690214D01*
X92211071Y-97841404D01*
X92241309Y-97901880D01*
X92271547Y-97932119D01*
X92332023Y-97962357D01*
X92452976Y-97962357D01*
X92513452Y-97932119D01*
X92543690Y-97901880D01*
X92573928Y-97841404D01*
X91080166Y-100871261D02*
X90868500Y-100568880D01*
X90717309Y-100871261D02*
X90717309Y-100236261D01*
X90959214Y-100236261D01*
X91019690Y-100266500D01*
X91049928Y-100296738D01*
X91080166Y-100357214D01*
X91080166Y-100447928D01*
X91049928Y-100508404D01*
X91019690Y-100538642D01*
X90959214Y-100568880D01*
X90717309Y-100568880D01*
X91624452Y-100447928D02*
X91624452Y-100871261D01*
X91473261Y-100206023D02*
X91322071Y-100659595D01*
X91715166Y-100659595D01*
D18*
X94832714Y-172212000D02*
X94469857Y-172466000D01*
X94832714Y-172647428D02*
X94070714Y-172647428D01*
X94070714Y-172357142D01*
X94107000Y-172284571D01*
X94143285Y-172248285D01*
X94215857Y-172212000D01*
X94324714Y-172212000D01*
X94397285Y-172248285D01*
X94433571Y-172284571D01*
X94469857Y-172357142D01*
X94469857Y-172647428D01*
X94070714Y-171558857D02*
X94070714Y-171704000D01*
X94107000Y-171776571D01*
X94143285Y-171812857D01*
X94252142Y-171885428D01*
X94397285Y-171921714D01*
X94687571Y-171921714D01*
X94760142Y-171885428D01*
X94796428Y-171849142D01*
X94832714Y-171776571D01*
X94832714Y-171631428D01*
X94796428Y-171558857D01*
X94760142Y-171522571D01*
X94687571Y-171486285D01*
X94506142Y-171486285D01*
X94433571Y-171522571D01*
X94397285Y-171558857D01*
X94361000Y-171631428D01*
X94361000Y-171776571D01*
X94397285Y-171849142D01*
X94433571Y-171885428D01*
X94506142Y-171921714D01*
D10*
X98138380Y-177596904D02*
X97247904Y-177596904D01*
X97143142Y-177649285D01*
X97090761Y-177701666D01*
X97038380Y-177806428D01*
X97038380Y-178015952D01*
X97090761Y-178120714D01*
X97143142Y-178173095D01*
X97247904Y-178225476D01*
X98138380Y-178225476D01*
X98138380Y-178644523D02*
X98138380Y-179325476D01*
X97719333Y-178958809D01*
X97719333Y-179115952D01*
X97666952Y-179220714D01*
X97614571Y-179273095D01*
X97509809Y-179325476D01*
X97247904Y-179325476D01*
X97143142Y-179273095D01*
X97090761Y-179220714D01*
X97038380Y-179115952D01*
X97038380Y-178801666D01*
X97090761Y-178696904D01*
X97143142Y-178644523D01*
X95806380Y-159088666D02*
X95806380Y-158604857D01*
X96822380Y-158604857D01*
X96822380Y-159330571D02*
X96822380Y-159959523D01*
X96435333Y-159620857D01*
X96435333Y-159766000D01*
X96386952Y-159862761D01*
X96338571Y-159911142D01*
X96241809Y-159959523D01*
X95999904Y-159959523D01*
X95903142Y-159911142D01*
X95854761Y-159862761D01*
X95806380Y-159766000D01*
X95806380Y-159475714D01*
X95854761Y-159378952D01*
X95903142Y-159330571D01*
D11*
X93562714Y-166261142D02*
X93562714Y-166624000D01*
X92800714Y-166624000D01*
X93562714Y-166007142D02*
X92800714Y-166007142D01*
X93562714Y-165571714D01*
X92800714Y-165571714D01*
X93562714Y-165208857D02*
X92800714Y-165208857D01*
X93562714Y-164773428D02*
X93127285Y-165100000D01*
X92800714Y-164773428D02*
X93236142Y-165208857D01*
X93562714Y-164047714D02*
X93562714Y-164483142D01*
X93562714Y-164265428D02*
X92800714Y-164265428D01*
X92909571Y-164338000D01*
X92982142Y-164410571D01*
X93018428Y-164483142D01*
X92964000Y-160854571D02*
X92964000Y-160491714D01*
X93181714Y-160927142D02*
X92419714Y-160673142D01*
X93181714Y-160419142D01*
X93109142Y-159729714D02*
X93145428Y-159766000D01*
X93181714Y-159874857D01*
X93181714Y-159947428D01*
X93145428Y-160056285D01*
X93072857Y-160128857D01*
X93000285Y-160165142D01*
X92855142Y-160201428D01*
X92746285Y-160201428D01*
X92601142Y-160165142D01*
X92528571Y-160128857D01*
X92456000Y-160056285D01*
X92419714Y-159947428D01*
X92419714Y-159874857D01*
X92456000Y-159766000D01*
X92492285Y-159729714D01*
X92419714Y-159512000D02*
X92419714Y-159076571D01*
X93181714Y-159294285D02*
X92419714Y-159294285D01*
X93181714Y-158423428D02*
X93181714Y-158858857D01*
X93181714Y-158641142D02*
X92419714Y-158641142D01*
X92528571Y-158713714D01*
X92601142Y-158786285D01*
X92637428Y-158858857D01*
D18*
X97681142Y-172193857D02*
X97717428Y-172230142D01*
X97753714Y-172339000D01*
X97753714Y-172411571D01*
X97717428Y-172520428D01*
X97644857Y-172593000D01*
X97572285Y-172629285D01*
X97427142Y-172665571D01*
X97318285Y-172665571D01*
X97173142Y-172629285D01*
X97100571Y-172593000D01*
X97028000Y-172520428D01*
X96991714Y-172411571D01*
X96991714Y-172339000D01*
X97028000Y-172230142D01*
X97064285Y-172193857D01*
X97753714Y-171468142D02*
X97753714Y-171903571D01*
X97753714Y-171685857D02*
X96991714Y-171685857D01*
X97100571Y-171758428D01*
X97173142Y-171831000D01*
X97209428Y-171903571D01*
X97753714Y-170742428D02*
X97753714Y-171177857D01*
X97753714Y-170960142D02*
X96991714Y-170960142D01*
X97100571Y-171032714D01*
X97173142Y-171105285D01*
X97209428Y-171177857D01*
D11*
X101953785Y-137701261D02*
X101742119Y-137398880D01*
X101590928Y-137701261D02*
X101590928Y-137066261D01*
X101832833Y-137066261D01*
X101893309Y-137096500D01*
X101923547Y-137126738D01*
X101953785Y-137187214D01*
X101953785Y-137277928D01*
X101923547Y-137338404D01*
X101893309Y-137368642D01*
X101832833Y-137398880D01*
X101590928Y-137398880D01*
X102165452Y-137066261D02*
X102558547Y-137066261D01*
X102346880Y-137308166D01*
X102437595Y-137308166D01*
X102498071Y-137338404D01*
X102528309Y-137368642D01*
X102558547Y-137429119D01*
X102558547Y-137580309D01*
X102528309Y-137640785D01*
X102498071Y-137671023D01*
X102437595Y-137701261D01*
X102256166Y-137701261D01*
X102195690Y-137671023D01*
X102165452Y-137640785D01*
X102951642Y-137066261D02*
X103012119Y-137066261D01*
X103072595Y-137096500D01*
X103102833Y-137126738D01*
X103133071Y-137187214D01*
X103163309Y-137308166D01*
X103163309Y-137459357D01*
X103133071Y-137580309D01*
X103102833Y-137640785D01*
X103072595Y-137671023D01*
X103012119Y-137701261D01*
X102951642Y-137701261D01*
X102891166Y-137671023D01*
X102860928Y-137640785D01*
X102830690Y-137580309D01*
X102800452Y-137459357D01*
X102800452Y-137308166D01*
X102830690Y-137187214D01*
X102860928Y-137126738D01*
X102891166Y-137096500D01*
X102951642Y-137066261D01*
X101953785Y-135288261D02*
X101742119Y-134985880D01*
X101590928Y-135288261D02*
X101590928Y-134653261D01*
X101832833Y-134653261D01*
X101893309Y-134683500D01*
X101923547Y-134713738D01*
X101953785Y-134774214D01*
X101953785Y-134864928D01*
X101923547Y-134925404D01*
X101893309Y-134955642D01*
X101832833Y-134985880D01*
X101590928Y-134985880D01*
X102195690Y-134713738D02*
X102225928Y-134683500D01*
X102286404Y-134653261D01*
X102437595Y-134653261D01*
X102498071Y-134683500D01*
X102528309Y-134713738D01*
X102558547Y-134774214D01*
X102558547Y-134834690D01*
X102528309Y-134925404D01*
X102165452Y-135288261D01*
X102558547Y-135288261D01*
X102860928Y-135288261D02*
X102981880Y-135288261D01*
X103042357Y-135258023D01*
X103072595Y-135227785D01*
X103133071Y-135137071D01*
X103163309Y-135016119D01*
X103163309Y-134774214D01*
X103133071Y-134713738D01*
X103102833Y-134683500D01*
X103042357Y-134653261D01*
X102921404Y-134653261D01*
X102860928Y-134683500D01*
X102830690Y-134713738D01*
X102800452Y-134774214D01*
X102800452Y-134925404D01*
X102830690Y-134985880D01*
X102860928Y-135016119D01*
X102921404Y-135046357D01*
X103042357Y-135046357D01*
X103102833Y-135016119D01*
X103133071Y-134985880D01*
X103163309Y-134925404D01*
X92422738Y-173757166D02*
X92725119Y-173545500D01*
X92422738Y-173394309D02*
X93057738Y-173394309D01*
X93057738Y-173636214D01*
X93027500Y-173696690D01*
X92997261Y-173726928D01*
X92936785Y-173757166D01*
X92846071Y-173757166D01*
X92785595Y-173726928D01*
X92755357Y-173696690D01*
X92725119Y-173636214D01*
X92725119Y-173394309D01*
X93057738Y-174331690D02*
X93057738Y-174029309D01*
X92755357Y-173999071D01*
X92785595Y-174029309D01*
X92815833Y-174089785D01*
X92815833Y-174240976D01*
X92785595Y-174301452D01*
X92755357Y-174331690D01*
X92694880Y-174361928D01*
X92543690Y-174361928D01*
X92483214Y-174331690D01*
X92452976Y-174301452D01*
X92422738Y-174240976D01*
X92422738Y-174089785D01*
X92452976Y-174029309D01*
X92483214Y-173999071D01*
X92809785Y-162720261D02*
X92598119Y-162417880D01*
X92446928Y-162720261D02*
X92446928Y-162085261D01*
X92688833Y-162085261D01*
X92749309Y-162115500D01*
X92779547Y-162145738D01*
X92809785Y-162206214D01*
X92809785Y-162296928D01*
X92779547Y-162357404D01*
X92749309Y-162387642D01*
X92688833Y-162417880D01*
X92446928Y-162417880D01*
X93414547Y-162720261D02*
X93051690Y-162720261D01*
X93233119Y-162720261D02*
X93233119Y-162085261D01*
X93172642Y-162175976D01*
X93112166Y-162236452D01*
X93051690Y-162266690D01*
X93989071Y-162085261D02*
X93686690Y-162085261D01*
X93656452Y-162387642D01*
X93686690Y-162357404D01*
X93747166Y-162327166D01*
X93898357Y-162327166D01*
X93958833Y-162357404D01*
X93989071Y-162387642D01*
X94019309Y-162448119D01*
X94019309Y-162599309D01*
X93989071Y-162659785D01*
X93958833Y-162690023D01*
X93898357Y-162720261D01*
X93747166Y-162720261D01*
X93686690Y-162690023D01*
X93656452Y-162659785D01*
X92682785Y-168435261D02*
X92471119Y-168132880D01*
X92319928Y-168435261D02*
X92319928Y-167800261D01*
X92561833Y-167800261D01*
X92622309Y-167830500D01*
X92652547Y-167860738D01*
X92682785Y-167921214D01*
X92682785Y-168011928D01*
X92652547Y-168072404D01*
X92622309Y-168102642D01*
X92561833Y-168132880D01*
X92319928Y-168132880D01*
X93287547Y-168435261D02*
X92924690Y-168435261D01*
X93106119Y-168435261D02*
X93106119Y-167800261D01*
X93045642Y-167890976D01*
X92985166Y-167951452D01*
X92924690Y-167981690D01*
X93831833Y-168011928D02*
X93831833Y-168435261D01*
X93680642Y-167770023D02*
X93529452Y-168223595D01*
X93922547Y-168223595D01*
X92731166Y-180373261D02*
X92519500Y-180070880D01*
X92368309Y-180373261D02*
X92368309Y-179738261D01*
X92610214Y-179738261D01*
X92670690Y-179768500D01*
X92700928Y-179798738D01*
X92731166Y-179859214D01*
X92731166Y-179949928D01*
X92700928Y-180010404D01*
X92670690Y-180040642D01*
X92610214Y-180070880D01*
X92368309Y-180070880D01*
X93094023Y-180010404D02*
X93033547Y-179980166D01*
X93003309Y-179949928D01*
X92973071Y-179889452D01*
X92973071Y-179859214D01*
X93003309Y-179798738D01*
X93033547Y-179768500D01*
X93094023Y-179738261D01*
X93214976Y-179738261D01*
X93275452Y-179768500D01*
X93305690Y-179798738D01*
X93335928Y-179859214D01*
X93335928Y-179889452D01*
X93305690Y-179949928D01*
X93275452Y-179980166D01*
X93214976Y-180010404D01*
X93094023Y-180010404D01*
X93033547Y-180040642D01*
X93003309Y-180070880D01*
X92973071Y-180131357D01*
X92973071Y-180252309D01*
X93003309Y-180312785D01*
X93033547Y-180343023D01*
X93094023Y-180373261D01*
X93214976Y-180373261D01*
X93275452Y-180343023D01*
X93305690Y-180312785D01*
X93335928Y-180252309D01*
X93335928Y-180131357D01*
X93305690Y-180070880D01*
X93275452Y-180040642D01*
X93214976Y-180010404D01*
X102385585Y-147226261D02*
X102173919Y-146923880D01*
X102022728Y-147226261D02*
X102022728Y-146591261D01*
X102264633Y-146591261D01*
X102325109Y-146621500D01*
X102355347Y-146651738D01*
X102385585Y-146712214D01*
X102385585Y-146802928D01*
X102355347Y-146863404D01*
X102325109Y-146893642D01*
X102264633Y-146923880D01*
X102022728Y-146923880D01*
X102990347Y-147226261D02*
X102627490Y-147226261D01*
X102808919Y-147226261D02*
X102808919Y-146591261D01*
X102748442Y-146681976D01*
X102687966Y-146742452D01*
X102627490Y-146772690D01*
X103292728Y-147226261D02*
X103413680Y-147226261D01*
X103474157Y-147196023D01*
X103504395Y-147165785D01*
X103564871Y-147075071D01*
X103595109Y-146954119D01*
X103595109Y-146712214D01*
X103564871Y-146651738D01*
X103534633Y-146621500D01*
X103474157Y-146591261D01*
X103353204Y-146591261D01*
X103292728Y-146621500D01*
X103262490Y-146651738D01*
X103232252Y-146712214D01*
X103232252Y-146863404D01*
X103262490Y-146923880D01*
X103292728Y-146954119D01*
X103353204Y-146984357D01*
X103474157Y-146984357D01*
X103534633Y-146954119D01*
X103564871Y-146923880D01*
X103595109Y-146863404D01*
X109319785Y-142599833D02*
X109350023Y-142630071D01*
X109380261Y-142720785D01*
X109380261Y-142781261D01*
X109350023Y-142871976D01*
X109289547Y-142932452D01*
X109229071Y-142962690D01*
X109108119Y-142992928D01*
X109017404Y-142992928D01*
X108896452Y-142962690D01*
X108835976Y-142932452D01*
X108775500Y-142871976D01*
X108745261Y-142781261D01*
X108745261Y-142720785D01*
X108775500Y-142630071D01*
X108805738Y-142599833D01*
X109017404Y-142236976D02*
X108987166Y-142297452D01*
X108956928Y-142327690D01*
X108896452Y-142357928D01*
X108866214Y-142357928D01*
X108805738Y-142327690D01*
X108775500Y-142297452D01*
X108745261Y-142236976D01*
X108745261Y-142116023D01*
X108775500Y-142055547D01*
X108805738Y-142025309D01*
X108866214Y-141995071D01*
X108896452Y-141995071D01*
X108956928Y-142025309D01*
X108987166Y-142055547D01*
X109017404Y-142116023D01*
X109017404Y-142236976D01*
X109047642Y-142297452D01*
X109077880Y-142327690D01*
X109138357Y-142357928D01*
X109259309Y-142357928D01*
X109319785Y-142327690D01*
X109350023Y-142297452D01*
X109380261Y-142236976D01*
X109380261Y-142116023D01*
X109350023Y-142055547D01*
X109319785Y-142025309D01*
X109259309Y-141995071D01*
X109138357Y-141995071D01*
X109077880Y-142025309D01*
X109047642Y-142055547D01*
X109017404Y-142116023D01*
D18*
X101219000Y-138702142D02*
X101182714Y-138738428D01*
X101073857Y-138774714D01*
X101001285Y-138774714D01*
X100892428Y-138738428D01*
X100819857Y-138665857D01*
X100783571Y-138593285D01*
X100747285Y-138448142D01*
X100747285Y-138339285D01*
X100783571Y-138194142D01*
X100819857Y-138121571D01*
X100892428Y-138049000D01*
X101001285Y-138012714D01*
X101073857Y-138012714D01*
X101182714Y-138049000D01*
X101219000Y-138085285D01*
X101872142Y-138012714D02*
X101727000Y-138012714D01*
X101654428Y-138049000D01*
X101618142Y-138085285D01*
X101545571Y-138194142D01*
X101509285Y-138339285D01*
X101509285Y-138629571D01*
X101545571Y-138702142D01*
X101581857Y-138738428D01*
X101654428Y-138774714D01*
X101799571Y-138774714D01*
X101872142Y-138738428D01*
X101908428Y-138702142D01*
X101944714Y-138629571D01*
X101944714Y-138448142D01*
X101908428Y-138375571D01*
X101872142Y-138339285D01*
X101799571Y-138303000D01*
X101654428Y-138303000D01*
X101581857Y-138339285D01*
X101545571Y-138375571D01*
X101509285Y-138448142D01*
X96030142Y-172212000D02*
X96066428Y-172248285D01*
X96102714Y-172357142D01*
X96102714Y-172429714D01*
X96066428Y-172538571D01*
X95993857Y-172611142D01*
X95921285Y-172647428D01*
X95776142Y-172683714D01*
X95667285Y-172683714D01*
X95522142Y-172647428D01*
X95449571Y-172611142D01*
X95377000Y-172538571D01*
X95340714Y-172429714D01*
X95340714Y-172357142D01*
X95377000Y-172248285D01*
X95413285Y-172212000D01*
X96102714Y-171486285D02*
X96102714Y-171921714D01*
X96102714Y-171704000D02*
X95340714Y-171704000D01*
X95449571Y-171776571D01*
X95522142Y-171849142D01*
X95558428Y-171921714D01*
D11*
X100481190Y-132875261D02*
X100481190Y-133389309D01*
X100511428Y-133449785D01*
X100541666Y-133480023D01*
X100602142Y-133510261D01*
X100723095Y-133510261D01*
X100783571Y-133480023D01*
X100813809Y-133449785D01*
X100844047Y-133389309D01*
X100844047Y-132875261D01*
X101085952Y-132875261D02*
X101509285Y-132875261D01*
X101237142Y-133510261D01*
D10*
X106794904Y-142064619D02*
X106794904Y-142887095D01*
X106843285Y-142983857D01*
X106891666Y-143032238D01*
X106988428Y-143080619D01*
X107181952Y-143080619D01*
X107278714Y-143032238D01*
X107327095Y-142983857D01*
X107375476Y-142887095D01*
X107375476Y-142064619D01*
X108391476Y-143080619D02*
X107810904Y-143080619D01*
X108101190Y-143080619D02*
X108101190Y-142064619D01*
X108004428Y-142209761D01*
X107907666Y-142306523D01*
X107810904Y-142354904D01*
X106607428Y-141429619D02*
X106510666Y-141381238D01*
X106462285Y-141332857D01*
X106413904Y-141236095D01*
X106413904Y-140945809D01*
X106462285Y-140849047D01*
X106510666Y-140800666D01*
X106607428Y-140752285D01*
X106752571Y-140752285D01*
X106849333Y-140800666D01*
X106897714Y-140849047D01*
X106946095Y-140945809D01*
X106946095Y-141236095D01*
X106897714Y-141332857D01*
X106849333Y-141381238D01*
X106752571Y-141429619D01*
X106607428Y-141429619D01*
D11*
X93562714Y-172447857D02*
X92800714Y-172447857D01*
X92800714Y-172157571D01*
X92837000Y-172085000D01*
X92873285Y-172048714D01*
X92945857Y-172012428D01*
X93054714Y-172012428D01*
X93127285Y-172048714D01*
X93163571Y-172085000D01*
X93199857Y-172157571D01*
X93199857Y-172447857D01*
X92800714Y-171758428D02*
X93562714Y-171577000D01*
X93018428Y-171431857D01*
X93562714Y-171286714D01*
X92800714Y-171105285D01*
X93562714Y-170379571D02*
X93199857Y-170633571D01*
X93562714Y-170815000D02*
X92800714Y-170815000D01*
X92800714Y-170524714D01*
X92837000Y-170452142D01*
X92873285Y-170415857D01*
X92945857Y-170379571D01*
X93054714Y-170379571D01*
X93127285Y-170415857D01*
X93163571Y-170452142D01*
X93199857Y-170524714D01*
X93199857Y-170815000D01*
X93562714Y-169653857D02*
X93562714Y-170089285D01*
X93562714Y-169871571D02*
X92800714Y-169871571D01*
X92909571Y-169944142D01*
X92982142Y-170016714D01*
X93018428Y-170089285D01*
X100230214Y-130909785D02*
X100199976Y-130879547D01*
X100169738Y-130788833D01*
X100169738Y-130728357D01*
X100199976Y-130637642D01*
X100260452Y-130577166D01*
X100320928Y-130546928D01*
X100441880Y-130516690D01*
X100532595Y-130516690D01*
X100653547Y-130546928D01*
X100714023Y-130577166D01*
X100774500Y-130637642D01*
X100804738Y-130728357D01*
X100804738Y-130788833D01*
X100774500Y-130879547D01*
X100744261Y-130909785D01*
X100744261Y-131151690D02*
X100774500Y-131181928D01*
X100804738Y-131242404D01*
X100804738Y-131393595D01*
X100774500Y-131454071D01*
X100744261Y-131484309D01*
X100683785Y-131514547D01*
X100623309Y-131514547D01*
X100532595Y-131484309D01*
X100169738Y-131121452D01*
X100169738Y-131514547D01*
X100744261Y-131756452D02*
X100774500Y-131786690D01*
X100804738Y-131847166D01*
X100804738Y-131998357D01*
X100774500Y-132058833D01*
X100744261Y-132089071D01*
X100683785Y-132119309D01*
X100623309Y-132119309D01*
X100532595Y-132089071D01*
X100169738Y-131726214D01*
X100169738Y-132119309D01*
X93109142Y-178453142D02*
X93145428Y-178489428D01*
X93181714Y-178598285D01*
X93181714Y-178670857D01*
X93145428Y-178779714D01*
X93072857Y-178852285D01*
X93000285Y-178888571D01*
X92855142Y-178924857D01*
X92746285Y-178924857D01*
X92601142Y-178888571D01*
X92528571Y-178852285D01*
X92456000Y-178779714D01*
X92419714Y-178670857D01*
X92419714Y-178598285D01*
X92456000Y-178489428D01*
X92492285Y-178453142D01*
X93181714Y-178126571D02*
X92419714Y-178126571D01*
X92782571Y-178126571D02*
X92782571Y-177691142D01*
X93181714Y-177691142D02*
X92419714Y-177691142D01*
X93181714Y-176892857D02*
X92818857Y-177146857D01*
X93181714Y-177328285D02*
X92419714Y-177328285D01*
X92419714Y-177038000D01*
X92456000Y-176965428D01*
X92492285Y-176929142D01*
X92564857Y-176892857D01*
X92673714Y-176892857D01*
X92746285Y-176929142D01*
X92782571Y-176965428D01*
X92818857Y-177038000D01*
X92818857Y-177328285D01*
X92456000Y-176167142D02*
X92419714Y-176239714D01*
X92419714Y-176348571D01*
X92456000Y-176457428D01*
X92528571Y-176530000D01*
X92601142Y-176566285D01*
X92746285Y-176602571D01*
X92855142Y-176602571D01*
X93000285Y-176566285D01*
X93072857Y-176530000D01*
X93145428Y-176457428D01*
X93181714Y-176348571D01*
X93181714Y-176276000D01*
X93145428Y-176167142D01*
X93109142Y-176130857D01*
X92855142Y-176130857D01*
X92855142Y-176276000D01*
X93181714Y-175405142D02*
X93181714Y-175840571D01*
X93181714Y-175622857D02*
X92419714Y-175622857D01*
X92528571Y-175695428D01*
X92601142Y-175768000D01*
X92637428Y-175840571D01*
X110892166Y-132306785D02*
X110861928Y-132337023D01*
X110771214Y-132367261D01*
X110710738Y-132367261D01*
X110620023Y-132337023D01*
X110559547Y-132276547D01*
X110529309Y-132216071D01*
X110499071Y-132095119D01*
X110499071Y-132004404D01*
X110529309Y-131883452D01*
X110559547Y-131822976D01*
X110620023Y-131762500D01*
X110710738Y-131732261D01*
X110771214Y-131732261D01*
X110861928Y-131762500D01*
X110892166Y-131792738D01*
X111103833Y-131732261D02*
X111527166Y-131732261D01*
X111255023Y-132367261D01*
X100986166Y-139527642D02*
X100774500Y-139527642D01*
X100774500Y-139860261D02*
X100774500Y-139225261D01*
X101076880Y-139225261D01*
X101318785Y-139527642D02*
X101530452Y-139527642D01*
X101621166Y-139860261D02*
X101318785Y-139860261D01*
X101318785Y-139225261D01*
X101621166Y-139225261D01*
X101802595Y-139225261D02*
X102165452Y-139225261D01*
X101984023Y-139860261D02*
X101984023Y-139225261D01*
X102346880Y-139285738D02*
X102377119Y-139255500D01*
X102437595Y-139225261D01*
X102588785Y-139225261D01*
X102649261Y-139255500D01*
X102679500Y-139285738D01*
X102709738Y-139346214D01*
X102709738Y-139406690D01*
X102679500Y-139497404D01*
X102316642Y-139860261D01*
X102709738Y-139860261D01*
D18*
X98679000Y-146630571D02*
X98425000Y-146630571D01*
X98425000Y-147029714D02*
X98425000Y-146267714D01*
X98787857Y-146267714D01*
X99078142Y-146630571D02*
X99332142Y-146630571D01*
X99441000Y-147029714D02*
X99078142Y-147029714D01*
X99078142Y-146267714D01*
X99441000Y-146267714D01*
X99658714Y-146267714D02*
X100094142Y-146267714D01*
X99876428Y-147029714D02*
X99876428Y-146267714D01*
X100747285Y-147029714D02*
X100311857Y-147029714D01*
X100529571Y-147029714D02*
X100529571Y-146267714D01*
X100457000Y-146376571D01*
X100384428Y-146449142D01*
X100311857Y-146485428D01*
X115461142Y-100928714D02*
X115207142Y-100565857D01*
X115025714Y-100928714D02*
X115025714Y-100166714D01*
X115316000Y-100166714D01*
X115388571Y-100203000D01*
X115424857Y-100239285D01*
X115461142Y-100311857D01*
X115461142Y-100420714D01*
X115424857Y-100493285D01*
X115388571Y-100529571D01*
X115316000Y-100565857D01*
X115025714Y-100565857D01*
X116114285Y-100420714D02*
X116114285Y-100928714D01*
X115932857Y-100130428D02*
X115751428Y-100674714D01*
X116223142Y-100674714D01*
X116440857Y-100166714D02*
X116948857Y-100166714D01*
X116622285Y-100928714D01*
X116117131Y-145252736D02*
X116117131Y-145304052D01*
X116065815Y-145406683D01*
X116014500Y-145457999D01*
X115911868Y-145509315D01*
X115809237Y-145509315D01*
X115732263Y-145483657D01*
X115603974Y-145406683D01*
X115527000Y-145329710D01*
X115450026Y-145201420D01*
X115424368Y-145124447D01*
X115424368Y-145021815D01*
X115475684Y-144919184D01*
X115527000Y-144867868D01*
X115629631Y-144816552D01*
X115680947Y-144816552D01*
X116117131Y-144277737D02*
X115860552Y-144534316D01*
X116091473Y-144816552D01*
X116091473Y-144765237D01*
X116117131Y-144688263D01*
X116245420Y-144559974D01*
X116322394Y-144534316D01*
X116373710Y-144534316D01*
X116450683Y-144559974D01*
X116578973Y-144688263D01*
X116604631Y-144765237D01*
X116604631Y-144816552D01*
X116578973Y-144893526D01*
X116450683Y-145021815D01*
X116373710Y-145047473D01*
X116322394Y-145047473D01*
D11*
X109192785Y-144631833D02*
X109223023Y-144662071D01*
X109253261Y-144752785D01*
X109253261Y-144813261D01*
X109223023Y-144903976D01*
X109162547Y-144964452D01*
X109102071Y-144994690D01*
X108981119Y-145024928D01*
X108890404Y-145024928D01*
X108769452Y-144994690D01*
X108708976Y-144964452D01*
X108648500Y-144903976D01*
X108618261Y-144813261D01*
X108618261Y-144752785D01*
X108648500Y-144662071D01*
X108678738Y-144631833D01*
X108829928Y-144087547D02*
X109253261Y-144087547D01*
X108588023Y-144238738D02*
X109041595Y-144389928D01*
X109041595Y-143996833D01*
X93505261Y-97309214D02*
X93202880Y-97520880D01*
X93505261Y-97672071D02*
X92870261Y-97672071D01*
X92870261Y-97430166D01*
X92900500Y-97369690D01*
X92930738Y-97339452D01*
X92991214Y-97309214D01*
X93081928Y-97309214D01*
X93142404Y-97339452D01*
X93172642Y-97369690D01*
X93202880Y-97430166D01*
X93202880Y-97672071D01*
X92870261Y-97097547D02*
X92870261Y-96704452D01*
X93112166Y-96916119D01*
X93112166Y-96825404D01*
X93142404Y-96764928D01*
X93172642Y-96734690D01*
X93233119Y-96704452D01*
X93384309Y-96704452D01*
X93444785Y-96734690D01*
X93475023Y-96764928D01*
X93505261Y-96825404D01*
X93505261Y-97006833D01*
X93475023Y-97067309D01*
X93444785Y-97097547D01*
X92930738Y-96462547D02*
X92900500Y-96432309D01*
X92870261Y-96371833D01*
X92870261Y-96220642D01*
X92900500Y-96160166D01*
X92930738Y-96129928D01*
X92991214Y-96099690D01*
X93051690Y-96099690D01*
X93142404Y-96129928D01*
X93505261Y-96492785D01*
X93505261Y-96099690D01*
D10*
X116268263Y-156034262D02*
X115926158Y-155692158D01*
X116644579Y-154973737D01*
X117294578Y-156102683D02*
X116815631Y-156581630D01*
X117397209Y-155657947D02*
X116713000Y-156000052D01*
X117157736Y-156444788D01*
D11*
X107662738Y-143990785D02*
X107965119Y-143779119D01*
X107662738Y-143627928D02*
X108297738Y-143627928D01*
X108297738Y-143869833D01*
X108267500Y-143930309D01*
X108237261Y-143960547D01*
X108176785Y-143990785D01*
X108086071Y-143990785D01*
X108025595Y-143960547D01*
X107995357Y-143930309D01*
X107965119Y-143869833D01*
X107965119Y-143627928D01*
X107662738Y-144595547D02*
X107662738Y-144232690D01*
X107662738Y-144414119D02*
X108297738Y-144414119D01*
X108207023Y-144353642D01*
X108146547Y-144293166D01*
X108116309Y-144232690D01*
X108025595Y-144958404D02*
X108055833Y-144897928D01*
X108086071Y-144867690D01*
X108146547Y-144837452D01*
X108176785Y-144837452D01*
X108237261Y-144867690D01*
X108267500Y-144897928D01*
X108297738Y-144958404D01*
X108297738Y-145079357D01*
X108267500Y-145139833D01*
X108237261Y-145170071D01*
X108176785Y-145200309D01*
X108146547Y-145200309D01*
X108086071Y-145170071D01*
X108055833Y-145139833D01*
X108025595Y-145079357D01*
X108025595Y-144958404D01*
X107995357Y-144897928D01*
X107965119Y-144867690D01*
X107904642Y-144837452D01*
X107783690Y-144837452D01*
X107723214Y-144867690D01*
X107692976Y-144897928D01*
X107662738Y-144958404D01*
X107662738Y-145079357D01*
X107692976Y-145139833D01*
X107723214Y-145170071D01*
X107783690Y-145200309D01*
X107904642Y-145200309D01*
X107965119Y-145170071D01*
X107995357Y-145139833D01*
X108025595Y-145079357D01*
D20*
X101509285Y-129987523D02*
X101509285Y-131015619D01*
X101569761Y-131136571D01*
X101630238Y-131197047D01*
X101751190Y-131257523D01*
X101993095Y-131257523D01*
X102114047Y-131197047D01*
X102174523Y-131136571D01*
X102235000Y-131015619D01*
X102235000Y-129987523D01*
X102839761Y-130592285D02*
X103263095Y-130592285D01*
X103444523Y-131257523D02*
X102839761Y-131257523D01*
X102839761Y-129987523D01*
X103444523Y-129987523D01*
X103867857Y-129987523D02*
X104714523Y-131257523D01*
X104714523Y-129987523D02*
X103867857Y-131257523D01*
X105016904Y-129987523D02*
X105742619Y-129987523D01*
X105379761Y-131257523D02*
X105379761Y-129987523D01*
X106831190Y-131257523D02*
X106105476Y-131257523D01*
X106468333Y-131257523D02*
X106468333Y-129987523D01*
X106347380Y-130168952D01*
X106226428Y-130289904D01*
X106105476Y-130350380D01*
D10*
X97517857Y-126177523D02*
X96792142Y-126177523D01*
X97155000Y-126177523D02*
X97155000Y-124907523D01*
X97034047Y-125088952D01*
X96913095Y-125209904D01*
X96792142Y-125270380D01*
X96792142Y-122488476D02*
X96852619Y-122428000D01*
X96973571Y-122367523D01*
X97275952Y-122367523D01*
X97396904Y-122428000D01*
X97457380Y-122488476D01*
X97517857Y-122609428D01*
X97517857Y-122730380D01*
X97457380Y-122911809D01*
X96731666Y-123637523D01*
X97517857Y-123637523D01*
D21*
X98382666Y-154961166D02*
X98382666Y-155680833D01*
X98425000Y-155765500D01*
X98467333Y-155807833D01*
X98552000Y-155850166D01*
X98721333Y-155850166D01*
X98806000Y-155807833D01*
X98848333Y-155765500D01*
X98890666Y-155680833D01*
X98890666Y-154961166D01*
X99271666Y-155807833D02*
X99398666Y-155850166D01*
X99610333Y-155850166D01*
X99695000Y-155807833D01*
X99737333Y-155765500D01*
X99779666Y-155680833D01*
X99779666Y-155596166D01*
X99737333Y-155511500D01*
X99695000Y-155469166D01*
X99610333Y-155426833D01*
X99441000Y-155384500D01*
X99356333Y-155342166D01*
X99314000Y-155299833D01*
X99271666Y-155215166D01*
X99271666Y-155130500D01*
X99314000Y-155045833D01*
X99356333Y-155003500D01*
X99441000Y-154961166D01*
X99652666Y-154961166D01*
X99779666Y-155003500D01*
X100457000Y-155384500D02*
X100584000Y-155426833D01*
X100626333Y-155469166D01*
X100668666Y-155553833D01*
X100668666Y-155680833D01*
X100626333Y-155765500D01*
X100584000Y-155807833D01*
X100499333Y-155850166D01*
X100160666Y-155850166D01*
X100160666Y-154961166D01*
X100457000Y-154961166D01*
X100541666Y-155003500D01*
X100584000Y-155045833D01*
X100626333Y-155130500D01*
X100626333Y-155215166D01*
X100584000Y-155299833D01*
X100541666Y-155342166D01*
X100457000Y-155384500D01*
X100160666Y-155384500D01*
X101049666Y-155511500D02*
X101727000Y-155511500D01*
X102150333Y-154961166D02*
X102150333Y-155680833D01*
X102192666Y-155765500D01*
X102235000Y-155807833D01*
X102319666Y-155850166D01*
X102489000Y-155850166D01*
X102573666Y-155807833D01*
X102616000Y-155765500D01*
X102658333Y-155680833D01*
X102658333Y-154961166D01*
X103039333Y-155596166D02*
X103462666Y-155596166D01*
X102954666Y-155850166D02*
X103251000Y-154961166D01*
X103547333Y-155850166D01*
X104351666Y-155850166D02*
X104055333Y-155426833D01*
X103843666Y-155850166D02*
X103843666Y-154961166D01*
X104182333Y-154961166D01*
X104267000Y-155003500D01*
X104309333Y-155045833D01*
X104351666Y-155130500D01*
X104351666Y-155257500D01*
X104309333Y-155342166D01*
X104267000Y-155384500D01*
X104182333Y-155426833D01*
X103843666Y-155426833D01*
X104605666Y-154961166D02*
X105113666Y-154961166D01*
X104859666Y-155850166D02*
X104859666Y-154961166D01*
X105875666Y-155850166D02*
X105367666Y-155850166D01*
X105621666Y-155850166D02*
X105621666Y-154961166D01*
X105537000Y-155088166D01*
X105452333Y-155172833D01*
X105367666Y-155215166D01*
M02*
